<svg xmlns="http://www.w3.org/2000/svg" xmlns:xlink="http://www.w3.org/1999/xlink" width="151" height="151" viewBox="0 0 151 151"><defs><linearGradient id="a" x1="0.053" y1="0.047" x2="0.962" y2="0.97" gradientUnits="objectBoundingBox"><stop offset="0" stop-color="#43efd4"/><stop offset="0.798" stop-color="#006cff"/><stop offset="1" stop-color="#006cff"/></linearGradient></defs><g transform="translate(-383 -2266)"><rect width="151" height="151" rx="12" transform="translate(383 2266)" fill="url(#a)"/><g transform="translate(426.159 2298.131)"><g transform="translate(1.66 1.968)"><path d="M26,50H79.121v75.032H26Z" transform="translate(-26 -43.667)" fill="#eefaff"/><path d="M129.24,30H109.32A3.319,3.319,0,0,0,106,33.32v6.64h26.561V33.32A3.319,3.319,0,0,0,129.24,30Z" transform="translate(-92.72 -26.987)" fill="#43efd4"/><g transform="translate(22.928 0)"><path d="M232.561,172.6a65.646,65.646,0,0,0,2.611-6.783,3.177,3.177,0,0,0,.709.143,3.32,3.32,0,1,0,0-6.64,3.233,3.233,0,0,0-.83.168,6.583,6.583,0,0,0-11.62,0,3.232,3.232,0,0,0-.83-.168,3.32,3.32,0,1,0,0,6.64,3.177,3.177,0,0,0,.709-.143,65.646,65.646,0,0,0,2.611,6.783C214.513,175.215,206,192.356,206,202.48c0,10.911,10.237,10.956,22.93,10.956h.621c12.693,0,22.93-.045,22.93-10.956C252.481,192.356,243.968,175.215,232.561,172.6Z" transform="translate(-199.048 -132.071)" fill="#e4c4ff"/><ellipse cx="3.442" cy="2.951" rx="3.442" ry="2.951" transform="translate(0)" fill="#ffda8f"/></g></g><g transform="translate(0 0.001)"><path d="M29.566,6.64H17.66A1.66,1.66,0,0,0,16,8.3V83.333a1.66,1.66,0,0,0,1.66,1.66h7.47a1.66,1.66,0,1,0,0-3.32H19.32V9.96h9.96v4.98a1.66,1.66,0,0,0,1.66,1.66H57.5a1.66,1.66,0,0,0,1.66-1.66V9.96h9.96V24.41a8.293,8.293,0,0,0-4.944,3.147h-.036A4.98,4.98,0,0,0,63.7,37.5c.491,1.419.98,2.715,1.492,3.944-11.31,4.113-19.31,20.77-19.31,30.936,0,4.189,1.364,7.26,4.144,9.3H40.07a1.66,1.66,0,1,0,0,3.32H74.1c11.46,0,21.58-1.117,21.58-12.616,0-8.618-5.751-21.9-14.392-28.251a4.987,4.987,0,0,0,4.432-4.949,1.66,1.66,0,0,0-3.32,0,1.662,1.662,0,0,1-1.66,1.66H76.618c.423-1.049.833-2.15,1.245-3.339a4.98,4.98,0,0,0-.442-9.941h-.036a8.294,8.294,0,0,0-4.944-3.147V8.3a1.66,1.66,0,0,0-1.66-1.66H58.875a4.988,4.988,0,0,0-4.695-3.32H48.915a4.979,4.979,0,0,0-9.389,0H34.26a4.988,4.988,0,0,0-4.695,3.32Zm62.8,65.736c0,8.864-7.686,9.3-21.27,9.3h-.621c-13.584,0-21.27-.432-21.27-9.3,0-9.846,8.32-25.744,18.463-28.22H73.9C84.031,46.63,92.361,62.519,92.361,72.376Zm-17.228-42.2a1.66,1.66,0,0,0,1.879.813c.14-.037.358-.1.425-.114a1.66,1.66,0,0,1,.032,3.319c-1.314-.329-2.058.164-2.333,1-.7,2.124-1.382,3.944-2.115,5.642h-4.48c-.733-1.7-1.415-3.518-2.115-5.642a1.661,1.661,0,0,0-1.576-1.141,2.813,2.813,0,0,0-.757.142,1.66,1.66,0,0,1,.032-3.319c.067.011.26.07.425.114a1.66,1.66,0,0,0,1.879-.813,4.924,4.924,0,0,1,8.7,0ZM44.221,3.32a1.66,1.66,0,1,1-1.66,1.66A1.662,1.662,0,0,1,44.221,3.32ZM34.26,6.64h5.266a4.979,4.979,0,0,0,9.389,0h5.266a1.662,1.662,0,0,1,1.66,1.66v4.98H32.6V8.3A1.662,1.662,0,0,1,34.26,6.64Z" transform="translate(-16 0)"/><path d="M322.64,309.609V307.66a1.66,1.66,0,0,0-3.32,0v1.946a4.98,4.98,0,0,0,1.66,9.675,1.66,1.66,0,1,1-1.329,2.655A1.66,1.66,0,1,0,317,323.929a5,5,0,0,0,2.323,1.7v1.949a1.66,1.66,0,0,0,3.32,0v-1.946a4.98,4.98,0,0,0-1.66-9.675,1.66,1.66,0,1,1,1.329-2.655,1.66,1.66,0,1,0,2.655-1.994A5,5,0,0,0,322.64,309.609Z" transform="translate(-266.199 -255.204)"/><path d="M68.793,153.126a1.661,1.661,0,0,0-2.348,0l-9.96,9.96a1.66,1.66,0,0,0,2.348,2.348l8.786-8.786,5.466,5.466a1.661,1.661,0,0,0,2.348,0L85.88,151.668v.972a1.66,1.66,0,0,0,3.32,0v-4.98A1.66,1.66,0,0,0,87.54,146H82.56a1.66,1.66,0,1,0,0,3.32h.972l-9.272,9.272Z" transform="translate(-49.359 -121.764)"/><path d="M57.66,289.32H77.58a1.66,1.66,0,1,0,0-3.32H57.66a1.66,1.66,0,1,0,0,3.32Z" transform="translate(-49.36 -238.524)"/><path d="M57.66,329.32H77.58a1.66,1.66,0,1,0,0-3.32H57.66a1.66,1.66,0,1,0,0,3.32Z" transform="translate(-49.36 -271.884)"/><path d="M57.66,369.32H70.94a1.66,1.66,0,1,0,0-3.32H57.66a1.66,1.66,0,1,0,0,3.32Z" transform="translate(-49.36 -305.244)"/><path d="M57.66,409.32H70.94a1.66,1.66,0,1,0,0-3.32H57.66a1.66,1.66,0,1,0,0,3.32Z" transform="translate(-49.36 -338.604)"/><ellipse cx="1.967" cy="1.475" rx="1.967" ry="1.475" transform="translate(14.753 81.632)"/></g></g></g></svg>