<svg xmlns="http://www.w3.org/2000/svg" width="132.441" height="132.441" viewBox="0 0 132.441 132.441"><g transform="translate(-1 -1)"><g transform="translate(3.706 3.136)"><g transform="translate(25.064 98.263)"><path d="M26.817,48a4.285,4.285,0,0,1,4.272,4.272V69.362a8.545,8.545,0,1,1-17.089,0V52.272A4.285,4.285,0,0,1,18.272,48h8.545Z" transform="translate(-14 -48)" fill="#af58fa"/></g><g transform="translate(27.2 84.848)"><path d="M27.817,41.72v9.143a4.285,4.285,0,0,1-4.272,4.272H19.272A4.285,4.285,0,0,1,15,50.863V41.72a35.229,35.229,0,0,0,6.408.6A35.051,35.051,0,0,0,27.817,41.72Z" transform="translate(-15 -41.72)" fill="#ccd1d9"/></g><g transform="translate(0 17.233)"><circle cx="33.922" cy="33.922" r="33.922" transform="translate(0 0)" fill="#e6e9ed"/></g><g transform="translate(8.332 25.565)"><circle cx="25.59" cy="25.59" r="25.59" transform="translate(0 0)" fill="#a8cdff"/></g><g transform="translate(37.881 0)"><path d="M109.718,6.272v47a4.285,4.285,0,0,1-4.272,4.272H24.272A4.285,4.285,0,0,1,20,53.268v-47A4.285,4.285,0,0,1,24.272,2h81.174a4.285,4.285,0,0,1,4.272,4.272Z" transform="translate(-20 -2)" fill="#e4c4ff"/></g><g transform="translate(59.243 55.54)"><path d="M98.357,62.178v6.408l-5.426,1.73a31.037,31.037,0,0,1-2.649,6.451l2.606,5.041L83.81,90.888l-5.041-2.606a31.036,31.036,0,0,1-6.451,2.649l-1.73,5.426H57.77l-1.73-5.426a31.037,31.037,0,0,1-6.451-2.649l-5.041,2.606L35.469,81.81l2.606-5.041a31.036,31.036,0,0,1-2.649-6.451L30,68.587V55.77l5.426-1.73a31.035,31.035,0,0,1,2.649-6.451l-2.606-5.041,9.079-9.057,5.041,2.585a31.036,31.036,0,0,1,6.451-2.649L57.77,28H70.587l1.73,5.426a31.036,31.036,0,0,1,6.451,2.649l5.041-2.606,9.057,9.079-2.585,5.041a31.037,31.037,0,0,1,2.649,6.451l5.426,1.73Zm-12.817,0A21.362,21.362,0,1,0,64.178,83.54,21.369,21.369,0,0,0,85.54,62.178Z" transform="translate(-30 -28)" fill="#a7fff1"/></g><g transform="translate(101.966 8.545)"><path d="M58.545,6A8.538,8.538,0,1,1,50,14.545,8.542,8.542,0,0,1,58.545,6Z" transform="translate(-50 -6)" fill="#b4dd7f"/></g><g transform="translate(78.468 25.634)"><path d="M50.941,17.183A6.407,6.407,0,1,1,39,20.408a6.2,6.2,0,0,1,1.239-3.76A6.321,6.321,0,0,1,45.408,14,6.391,6.391,0,0,1,50.941,17.183Z" transform="translate(-39 -14)" fill="#b4dd7f"/></g><g transform="translate(54.97 8.545)"><path d="M39.578,16.168a6.321,6.321,0,0,1-5.169,2.649,6.408,6.408,0,1,1,6.408-6.408A6.2,6.2,0,0,1,39.578,16.168Z" transform="translate(-28 -6)" fill="#b4dd7f"/></g><g transform="translate(46.426 38.451)"><path d="M29.81,20.3a4.245,4.245,0,1,1-1.538-.3A4.109,4.109,0,0,1,29.81,20.3Z" transform="translate(-24 -20)" fill="#b4dd7f"/></g></g><g transform="translate(1 1)"><path d="M133.441,54.4v-47A6.416,6.416,0,0,0,127.033,1H45.859a6.416,6.416,0,0,0-6.408,6.408V18.164c-.741-.049-1.444-.075-2.136-.075A36.293,36.293,0,0,0,28.77,89.661v7.466a6.338,6.338,0,0,0,.857,3.142,6.4,6.4,0,0,0-2.993,5.4v17.089a10.681,10.681,0,0,0,21.362,0V105.671a6.4,6.4,0,0,0-2.993-5.4,6.338,6.338,0,0,0,.857-3.142V89.661A36.388,36.388,0,0,0,67.035,75.18l1.583,3.076a32.075,32.075,0,0,0-1.963,4.761l-5.842,1.871v15.934l5.84,1.871a31.888,31.888,0,0,0,1.963,4.761l-2.8,5.445,11.266,11.266,5.445-2.8a32.076,32.076,0,0,0,4.761,1.963l1.876,5.842h15.934l1.871-5.84a31.985,31.985,0,0,0,4.761-1.963l5.445,2.8L128.436,112.9l-2.8-5.445A31.984,31.984,0,0,0,127.6,102.7l5.842-1.876V84.887l-5.84-1.871a32.076,32.076,0,0,0-1.963-4.761l2.8-5.445L117.175,61.543l-5.445,2.8a32.036,32.036,0,0,0-4.761-1.963l-.506-1.57h20.571a6.416,6.416,0,0,0,6.408-6.408ZM45.859,60.812H59.885A23.482,23.482,0,1,1,37.315,30.906a21.351,21.351,0,0,1,2.136.122V54.4A6.416,6.416,0,0,0,45.859,60.812Zm-2.136,61.948a6.408,6.408,0,0,1-12.817,0V105.671a2.137,2.137,0,0,1,2.136-2.136h8.545a2.137,2.137,0,0,1,2.136,2.136ZM41.587,97.127a2.137,2.137,0,0,1-2.136,2.136H35.178a2.137,2.137,0,0,1-2.136-2.136V90.445a36.611,36.611,0,0,0,4.272.273,36.205,36.205,0,0,0,4.272-.282ZM37.315,86.446a32.042,32.042,0,0,1,0-64.085c.677,0,1.389.034,2.136.092V26.73c-.731-.06-1.442-.1-2.136-.1A27.77,27.77,0,1,0,64.29,60.812h4.373A32.048,32.048,0,0,1,37.315,86.446ZM72.993,60.812h14.8l-.5,1.568a31.943,31.943,0,0,0-4.761,1.963l-5.445-2.8L71.13,67.492a35.82,35.82,0,0,0,1.863-6.68Zm30.594,5.033,1.1.312a27.579,27.579,0,0,1,5.975,2.463l1,.56,4.689-2.412,6.859,6.859L120.8,78.314l.56,1a27.534,27.534,0,0,1,2.463,5.975l.312,1.1L129.169,88v9.7l-5.033,1.611-.312,1.1a27.717,27.717,0,0,1-2.461,5.975l-.562,1,2.412,4.689-6.859,6.861-4.687-2.414-1,.56a27.71,27.71,0,0,1-5.975,2.465l-1.1.312-1.609,5.031h-9.7l-1.611-5.033-1.1-.312a27.718,27.718,0,0,1-5.975-2.461l-1-.562L77.9,118.943l-6.861-6.861,2.414-4.689-.562-1a27.741,27.741,0,0,1-2.463-5.975l-.312-1.1-5.031-1.609v-9.7l5.033-1.611.312-1.1a27.717,27.717,0,0,1,2.461-5.975l.562-1-2.414-4.689L77.9,66.768l4.689,2.412,1-.56a27.473,27.473,0,0,1,5.975-2.463l1.1-.312,1.609-5.033h9.7ZM89.161,56.54h-43.3A2.138,2.138,0,0,1,43.723,54.4v-47a2.138,2.138,0,0,1,2.136-2.136h81.174a2.138,2.138,0,0,1,2.136,2.136v47a2.138,2.138,0,0,1-2.136,2.136H89.161Z" transform="translate(-1 -1)"/><path d="M89.221,5A10.693,10.693,0,0,0,78.54,15.681a10.581,10.581,0,0,0,.607,3.4l-9.5,5.541a8.443,8.443,0,0,0-11.463-.558L48.021,16.674a8.54,8.54,0,1,0-12.887,3.8L29.577,34.923c-.058,0-.111-.017-.169-.017a6.484,6.484,0,1,0,4.151,1.566L39.13,21.991a7.884,7.884,0,0,0,.959.1,8.458,8.458,0,0,0,5.4-1.978L55.655,27.5a8.562,8.562,0,1,0,16.122.825L81.3,22.775A10.662,10.662,0,1,0,89.221,5ZM29.408,43.451a2.136,2.136,0,1,1,2.136-2.136A2.138,2.138,0,0,1,29.408,43.451ZM40.089,17.817a4.272,4.272,0,1,1,4.272-4.272A4.277,4.277,0,0,1,40.089,17.817Zm23.5,17.089a4.272,4.272,0,1,1,4.272-4.272A4.277,4.277,0,0,1,63.587,34.906ZM89.221,22.089a6.408,6.408,0,1,1,6.408-6.408A6.416,6.416,0,0,1,89.221,22.089Z" transform="translate(23.995 3.545)"/><path d="M57,23h4.272v4.272H57Z" transform="translate(62.624 23.995)"/><path d="M49,23h4.272v4.272H49Z" transform="translate(53.535 23.995)"/><path d="M53,23h4.272v4.272H53Z" transform="translate(58.08 23.995)"/><path d="M49,19H70.362v4.272H49Z" transform="translate(53.535 19.451)"/><path d="M13.272,26H9A19.247,19.247,0,0,0,28.225,45.225V40.953A14.971,14.971,0,0,1,13.272,26Z" transform="translate(8.089 27.404)"/><path d="M60.953,44H56.681A10.693,10.693,0,0,1,46,54.681v4.272A14.972,14.972,0,0,0,60.953,44Z" transform="translate(50.127 47.855)"/><path d="M35,56.5A23.5,23.5,0,1,0,58.5,33,23.525,23.525,0,0,0,35,56.5ZM58.5,37.272A19.225,19.225,0,1,1,39.272,56.5,19.246,19.246,0,0,1,58.5,37.272Z" transform="translate(37.629 35.357)"/></g></g></svg>