<svg xmlns="http://www.w3.org/2000/svg" width="80.062" height="94.828" viewBox="0 0 80.062 94.828"><path d="M80.628,99.549H11.656A4.156,4.156,0,0,1,7.5,95.393V11.656A4.156,4.156,0,0,1,11.656,7.5H80.628a4.156,4.156,0,0,1,4.156,4.156V95.393A4.156,4.156,0,0,1,80.628,99.549Zm0,0" transform="translate(-6.111 -6.111)" fill="#596674"/><path d="M13.056,95.393V11.656A4.156,4.156,0,0,1,17.213,7.5H11.656A4.156,4.156,0,0,0,7.5,11.656V95.393a4.156,4.156,0,0,0,4.156,4.156h5.556A4.156,4.156,0,0,1,13.056,95.393Zm0,0" transform="translate(-6.111 -6.111)" fill="#565c62"/><path d="M57.5,61.656V73.532a4.156,4.156,0,0,0,4.156,4.156h50.451a4.156,4.156,0,0,0,4.156-4.156V61.656a4.156,4.156,0,0,0-4.156-4.156H61.656A4.156,4.156,0,0,0,57.5,61.656Zm0,0" transform="translate(-46.85 -46.85)" fill="#85cdea"/><path d="M63.056,73.532V61.656A4.156,4.156,0,0,1,67.213,57.5H61.656A4.156,4.156,0,0,0,57.5,61.656V73.532a4.156,4.156,0,0,0,4.156,4.156h5.556A4.156,4.156,0,0,1,63.056,73.532Zm0,0" transform="translate(-46.85 -46.85)" fill="#78b7d2"/><path d="M61.656,201.5H79.484a4.156,4.156,0,0,1,4.156,4.156v11.875a4.156,4.156,0,0,1-4.156,4.156H61.656a4.156,4.156,0,0,1-4.156-4.156V205.656A4.156,4.156,0,0,1,61.656,201.5Zm0,0" transform="translate(-46.85 -164.18)" fill="#d9d7d8"/><path d="M63.056,217.532V205.656a4.156,4.156,0,0,1,4.156-4.156H61.656a4.156,4.156,0,0,0-4.156,4.156v11.875a4.156,4.156,0,0,0,4.156,4.156h5.556A4.156,4.156,0,0,1,63.056,217.532Zm0,0" transform="translate(-46.85 -164.18)" fill="#bab8b9"/><path d="M237.8,201.5h17.828a4.156,4.156,0,0,1,4.156,4.156v11.875a4.156,4.156,0,0,1-4.156,4.156H237.8a4.156,4.156,0,0,1-4.156-4.156V205.656A4.156,4.156,0,0,1,237.8,201.5Zm0,0" transform="translate(-190.368 -164.18)" fill="#fadc60"/><path d="M239.2,217.532V205.656a4.156,4.156,0,0,1,4.156-4.156H237.8a4.156,4.156,0,0,0-4.156,4.156v11.875a4.156,4.156,0,0,0,4.156,4.156h5.556A4.156,4.156,0,0,1,239.2,217.532Zm0,0" transform="translate(-190.368 -164.18)" fill="#e6cb59"/><path d="M61.656,345.5H79.484a4.156,4.156,0,0,1,4.156,4.156v11.875a4.156,4.156,0,0,1-4.156,4.156H61.656a4.156,4.156,0,0,1-4.156-4.156V349.656A4.156,4.156,0,0,1,61.656,345.5Zm0,0" transform="translate(-46.85 -281.51)" fill="#58b78c"/><path d="M63.056,361.532V349.656a4.156,4.156,0,0,1,4.156-4.156H61.656a4.156,4.156,0,0,0-4.156,4.156v11.875a4.156,4.156,0,0,0,4.156,4.156h5.556A4.156,4.156,0,0,1,63.056,361.532Zm0,0" transform="translate(-46.85 -281.51)" fill="#46926f"/><path d="M237.8,345.5h17.828a4.156,4.156,0,0,1,4.156,4.156v11.875a4.156,4.156,0,0,1-4.156,4.156H237.8a4.156,4.156,0,0,1-4.156-4.156V349.656A4.156,4.156,0,0,1,237.8,345.5Zm0,0" transform="translate(-190.368 -281.51)" fill="#fd6f71"/><path d="M239.2,361.532V349.656a4.156,4.156,0,0,1,4.156-4.156H237.8a4.156,4.156,0,0,0-4.156,4.156v11.875a4.156,4.156,0,0,0,4.156,4.156h5.556A4.156,4.156,0,0,1,239.2,361.532Zm0,0" transform="translate(-190.368 -281.51)" fill="#e36465"/><path d="M74.517,0H5.545A5.552,5.552,0,0,0,0,5.545V89.282a5.552,5.552,0,0,0,5.545,5.545H74.517a5.552,5.552,0,0,0,5.545-5.545V5.545A5.551,5.551,0,0,0,74.517,0Zm2.767,89.282a2.771,2.771,0,0,1-2.767,2.767H5.545a2.771,2.771,0,0,1-2.767-2.767V5.545A2.771,2.771,0,0,1,5.545,2.778H74.517a2.77,2.77,0,0,1,2.767,2.767V89.282Zm0,0"/><path d="M106,50H55.545A5.552,5.552,0,0,0,50,55.545V67.421a5.552,5.552,0,0,0,5.545,5.545H106a5.552,5.552,0,0,0,5.545-5.545V55.545A5.551,5.551,0,0,0,106,50Zm2.767,17.421A2.771,2.771,0,0,1,106,70.188H55.545a2.771,2.771,0,0,1-2.767-2.767V55.545a2.771,2.771,0,0,1,2.767-2.767H106a2.77,2.77,0,0,1,2.767,2.767V67.421Zm0,0" transform="translate(-40.739 -40.739)"/><path d="M73.373,194H55.545A5.552,5.552,0,0,0,50,199.545v11.875a5.552,5.552,0,0,0,5.545,5.545H73.373a5.552,5.552,0,0,0,5.545-5.545V199.545A5.552,5.552,0,0,0,73.373,194Zm2.767,17.421a2.771,2.771,0,0,1-2.767,2.767H55.545a2.771,2.771,0,0,1-2.767-2.767V199.545a2.771,2.771,0,0,1,2.767-2.767H73.373a2.771,2.771,0,0,1,2.767,2.767Zm0,0" transform="translate(-40.739 -158.069)"/><path d="M249.514,194H249.3a1.389,1.389,0,1,0,0,2.778h.209a2.77,2.77,0,0,1,2.767,2.767v11.875a2.77,2.77,0,0,1-2.767,2.767H231.685a2.77,2.77,0,0,1-2.767-2.767V199.545a2.77,2.77,0,0,1,2.767-2.767h12.434a1.389,1.389,0,1,0,0-2.778H231.685a5.552,5.552,0,0,0-5.545,5.545v11.875a5.552,5.552,0,0,0,5.545,5.545h17.829a5.552,5.552,0,0,0,5.545-5.545V199.545A5.551,5.551,0,0,0,249.514,194Zm0,0" transform="translate(-184.257 -158.069)"/><path d="M73.373,338H67.052a1.389,1.389,0,0,0,0,2.778h6.321a2.771,2.771,0,0,1,2.767,2.767v11.875a2.771,2.771,0,0,1-2.767,2.767H55.545a2.771,2.771,0,0,1-2.767-2.767V343.545a2.771,2.771,0,0,1,2.767-2.767h6.426a1.389,1.389,0,0,0,0-2.778H55.545A5.552,5.552,0,0,0,50,343.545v11.875a5.552,5.552,0,0,0,5.545,5.545H73.373a5.552,5.552,0,0,0,5.545-5.545V343.545A5.552,5.552,0,0,0,73.373,338Zm0,0" transform="translate(-40.739 -275.399)"/><path d="M249.514,338H231.685a5.552,5.552,0,0,0-5.545,5.545v11.875a5.552,5.552,0,0,0,5.545,5.545h17.829a5.552,5.552,0,0,0,5.545-5.545V343.545A5.551,5.551,0,0,0,249.514,338Zm2.767,17.421a2.771,2.771,0,0,1-2.767,2.767H231.685a2.77,2.77,0,0,1-2.767-2.767V343.545a2.77,2.77,0,0,1,2.767-2.767h17.829a2.77,2.77,0,0,1,2.767,2.767v11.875Zm0,0" transform="translate(-184.257 -275.399)"/><path d="M110,233.019h-2.13v-2.13a1.389,1.389,0,1,0-2.778,0v2.13h-2.13a1.389,1.389,0,1,0,0,2.778h2.13v2.13a1.389,1.389,0,0,0,2.778,0V235.8H110a1.389,1.389,0,0,0,0-2.778Zm0,0" transform="translate(-82.758 -186.994)"/><path d="M286.137,248.5H279.1a1.389,1.389,0,0,0,0,2.778h7.037a1.389,1.389,0,1,0,0-2.778Zm0,0" transform="translate(-226.276 -202.475)"/><path d="M114.486,379.473a1.39,1.39,0,0,0-1.965,0l-1.506,1.506-1.506-1.506a1.389,1.389,0,1,0-1.964,1.964l1.506,1.506-1.506,1.506a1.389,1.389,0,0,0,1.964,1.964l1.506-1.506,1.506,1.506a1.389,1.389,0,1,0,1.964-1.964l-1.506-1.506,1.506-1.506A1.389,1.389,0,0,0,114.486,379.473Zm0,0" transform="translate(-87.296 -308.859)"/><path d="M286.137,379.066H279.1a1.389,1.389,0,1,0,0,2.778h7.037a1.389,1.389,0,1,0,0-2.778Zm0,0" transform="translate(-226.276 -308.859)"/><path d="M286.137,405.934H279.1a1.389,1.389,0,1,0,0,2.778h7.037a1.389,1.389,0,1,0,0-2.778Zm0,0" transform="translate(-226.276 -330.751)"/></svg>