<svg xmlns="http://www.w3.org/2000/svg" width="163.828" height="60.045" viewBox="0 0 163.828 60.045"><g transform="translate(-425 -1787.052)"><text transform="translate(425 1839.097)" fill="#fff" font-size="30" font-family="Roboto-Medium, Roboto" font-weight="500"><tspan x="0" y="0">02</tspan></text><g transform="translate(504.222 1787.052)"><g transform="translate(41.61)"><g transform="translate(0)"><path d="M63.109,0l-21.5,5.367V22.711h1.565V6.589L63.109,1.613,83.042,6.589V22.183h1.565V5.367Z" transform="translate(-41.611)" fill="#fff"/><path d="M83.041,239.193c-.259.909-3.221,9.895-19.933,14.83-9.1-2.687-14.036-6.583-16.58-9.389a14.8,14.8,0,0,1-3.353-5.441V228.246H41.61v11.137l.02.086a15.364,15.364,0,0,0,3.647,6.113c2.7,3.012,7.943,7.192,17.612,10.006l.219.064.219-.064c9.669-2.814,14.914-6.995,17.612-10.006a15.361,15.361,0,0,0,3.647-6.113l.02-.086V227.731H83.041v11.462Z" transform="translate(-41.61 -203.977)" fill="#fff"/><path d="M98.7,84.175l.236.074.236-.074c7.612-2.4,11.835-5.645,14.038-7.94a14.065,14.065,0,0,0,3-4.363l.056-.14V45.553L98.936,41.228,81.611,45.553V71.732l.056.14a14.061,14.061,0,0,0,3,4.363c2.2,2.3,6.426,5.536,14.038,7.94Zm-15.525-37.4,15.761-3.935L114.7,46.775v24.65a12.981,12.981,0,0,1-2.617,3.726c-2.054,2.141-6,5.161-13.144,7.457-7.148-2.3-11.09-5.316-13.144-7.457a12.981,12.981,0,0,1-2.617-3.726Z" transform="translate(-77.439 -36.928)" fill="#fff"/><path d="M157.2,130.715a5.927,5.927,0,0,0-5.92-5.92h-3.2a5.874,5.874,0,1,0-5.628,0h-3.2a5.927,5.927,0,0,0-5.92,5.92V138.3H157.2ZM140.963,119.64a4.31,4.31,0,1,1,4.31,4.31A4.315,4.315,0,0,1,140.963,119.64Zm14.674,17.1h-3.272v-4.632H150.8v4.632H139.745v-4.632h-1.565v4.632h-3.272v-6.023a4.36,4.36,0,0,1,4.355-4.355h12.019a4.36,4.36,0,0,1,4.355,4.355Z" transform="translate(-123.775 -101.899)" fill="#fff"/></g><g transform="translate(17.795 27.868)"><path d="M212.208,267.168h1.565v1.565h-1.565Z" transform="translate(-212.208 -267.168)" fill="#fff"/><path d="M240.208,267.168h1.565v1.565h-1.565Z" transform="translate(-237.287 -267.168)" fill="#fff"/><path d="M268.208,267.168h1.565v1.565h-1.565Z" transform="translate(-262.367 -267.168)" fill="#fff"/></g></g></g></g></svg>