<svg xmlns="http://www.w3.org/2000/svg" xmlns:xlink="http://www.w3.org/1999/xlink" width="151" height="151" viewBox="0 0 151 151"><defs><linearGradient id="a" x1="0.053" y1="0.047" x2="0.962" y2="0.97" gradientUnits="objectBoundingBox"><stop offset="0" stop-color="#43efd4"/><stop offset="0.798" stop-color="#006cff"/><stop offset="1" stop-color="#006cff"/></linearGradient></defs><g transform="translate(-1010 -4103)"><rect width="151" height="151" rx="12" transform="translate(1010 4103)" fill="url(#a)"/><g transform="translate(1041 4125)"><g transform="translate(2.532 2.532)"><g transform="translate(61.29 73.548)"><path d="M72.645,50V68.387H42v-4.6l4.765-2.375a2.492,2.492,0,0,0,0-4.444L42,54.6V50H72.645Z" transform="translate(-42 -50)" fill="#e6e9ed"/></g><g transform="translate(61.29 0)"><path d="M72.645,5.065V17.323a3.074,3.074,0,0,1-3.065,3.065H45.065A3.074,3.074,0,0,1,42,17.323V5.065A3.074,3.074,0,0,1,45.065,2H69.581A3.074,3.074,0,0,1,72.645,5.065Z" transform="translate(-42 -2)" fill="#e6e9ed"/></g><g transform="translate(62.823 36.774)"><path d="M70.581,35.194,56.79,44.387,43,35.194,56.79,26Z" transform="translate(-43 -26)" fill="#43efd4"/></g><g transform="translate(0 33.71)"><path d="M32.645,36.258V48.516H2V24H32.645Z" transform="translate(-2 -24)" fill="#e4c4ff"/></g><g transform="translate(0 73.548)"><path d="M14.258,50V68.387H11.194A9.207,9.207,0,0,1,2,59.194,9.2,9.2,0,0,1,11.194,50Z" transform="translate(-2 -50)" fill="#aab2bd"/></g><g transform="translate(52.097 73.548)"><path d="M49.959,56.972a2.492,2.492,0,0,1,0,4.444L45.194,63.79,36,68.387V50l9.194,4.6Z" transform="translate(-36 -50)" fill="#aab2bd"/></g><g transform="translate(12.258 73.548)"><path d="M16.129,59.194v9.194H10V50h6.129Z" transform="translate(-10 -50)" fill="#a7fff1"/></g><g transform="translate(18.387 82.742)"><path d="M14,56H47.71v9.194H14Z" transform="translate(-14 -56)" fill="#43efd4"/></g><g transform="translate(18.387 73.548)"><path d="M14,50H47.71v9.194H14Z" transform="translate(-14 -50)" fill="#a7fff1"/></g></g><g transform="translate(1 1)"><path d="M53,55h3.065v3.065H53Z" transform="translate(26.677 27.742)"/><path d="M49,55h3.065v3.065H49Z" transform="translate(24.548 27.742)"/><path d="M57,55h3.065v3.065H57Z" transform="translate(28.806 27.742)"/><path d="M91.4,22.452a4.6,4.6,0,0,0,4.6-4.6V5.6A4.6,4.6,0,0,0,91.4,1H66.887a4.6,4.6,0,0,0-4.6,4.6v4.6H23.984a7.67,7.67,0,0,0-7.661,7.661V34.71H1V62.29H34.71V50.032H64.891l12.722,8.481V74.548H62.29V78.2l-7.3-3.65H11.726a10.726,10.726,0,0,0,0,21.452H54.991l7.3-3.65V96H96V74.548H80.677V58.513L95.7,48.5,80.677,38.487V22.452ZM53.1,83.742H22.452V77.613H53.1Zm-33.71,9.194H16.323V77.613h3.065Zm3.065-6.129H53.1v6.129H22.452Zm33.71-8.247,11.733,5.867a.946.946,0,0,1,0,1.695L56.161,91.989Zm-52.1,6.714a7.67,7.67,0,0,1,7.661-7.661h1.532V92.935H11.726A7.67,7.67,0,0,1,4.065,85.274Zm88.871,7.661H65.355V90.819l3.913-1.957a4.013,4.013,0,0,0,0-7.177L65.355,79.73V77.613H92.935ZM65.355,5.6a1.533,1.533,0,0,1,1.532-1.532H91.4A1.533,1.533,0,0,1,92.935,5.6V17.855A1.533,1.533,0,0,1,91.4,19.387H66.887a1.533,1.533,0,0,1-1.532-1.532ZM31.645,59.226H4.065V37.774H31.645Zm47.5-3.374L68.118,48.5l11.028-7.352L90.173,48.5ZM77.613,38.487,64.891,46.968H34.71V34.71H19.387V17.855a4.6,4.6,0,0,1,4.6-4.6H62.29v4.6a4.6,4.6,0,0,0,4.6,4.6H77.613Z" transform="translate(-1 -1)"/><path d="M5,27H26.452v3.065H5Z" transform="translate(1.129 12.839)"/><path d="M17,31h3.065v3.065H17Z" transform="translate(7.516 14.968)"/><path d="M5,31H20.323v3.065H5Z" transform="translate(1.129 14.968)"/><path d="M5,35H26.452v3.065H5Z" transform="translate(1.129 17.097)"/><path d="M45,7h3.065v3.065H45Z" transform="translate(22.419 2.194)"/><path d="M57,7h3.065v3.065H57Z" transform="translate(28.806 2.194)"/><path d="M49,7h3.065v3.065H49Z" transform="translate(24.548 2.194)"/><path d="M53,7h3.065v3.065H53Z" transform="translate(26.677 2.194)"/></g></g></g></svg>