<svg xmlns="http://www.w3.org/2000/svg" width="1086.598" height="667" viewBox="0 0 1086.598 667"><g transform="translate(-240 -4682)"><g transform="translate(296 4734)" fill="#fff" stroke="#006cff" stroke-width="1"><rect width="1030" height="529" stroke="none"/><rect x="0.5" y="0.5" width="1029" height="528" fill="none"/></g><g transform="translate(296 4793)" fill="#ebebeb" stroke="#006cff" stroke-width="1"><rect width="1030" height="60" stroke="none"/><rect x="0.5" y="0.5" width="1029" height="59" fill="none"/></g><g transform="translate(296 4851)" fill="#fcfcfc" stroke="#006cff" stroke-width="1"><rect width="1030" height="60" stroke="none"/><rect x="0.5" y="0.5" width="1029" height="59" fill="none"/></g><g transform="translate(296 4909)" fill="#fcfcfc" stroke="#006cff" stroke-width="1"><rect width="1030" height="60" stroke="none"/><rect x="0.5" y="0.5" width="1029" height="59" fill="none"/></g><g transform="translate(296 4968)" fill="#fcfcfc" stroke="#006cff" stroke-width="1"><rect width="1030" height="60" stroke="none"/><rect x="0.5" y="0.5" width="1029" height="59" fill="none"/></g><g transform="translate(296 5027)" fill="#ebebeb" stroke="#006cff" stroke-width="1"><rect width="1030" height="60" stroke="none"/><rect x="0.5" y="0.5" width="1029" height="59" fill="none"/></g><path d="M8.235-2.391H4.008L3.27,0h-3.3L4.667-12.8h2.9L12.3,0H8.982ZM4.746-4.772H7.5L6.117-9.211ZM17.112-2.109a1.317,1.317,0,0,0,.967-.338,1.241,1.241,0,0,0,.334-.945H21.19A3.288,3.288,0,0,1,20.07-.826a4.168,4.168,0,0,1-2.887,1,4.22,4.22,0,0,1-3.27-1.3,5.125,5.125,0,0,1-1.2-3.6v-.123A5.792,5.792,0,0,1,13.25-7.4a3.872,3.872,0,0,1,1.534-1.7,4.573,4.573,0,0,1,2.373-.593A4.116,4.116,0,0,1,20.1-8.657a3.647,3.647,0,0,1,1.09,2.786H18.413A1.626,1.626,0,0,0,18.053-7a1.244,1.244,0,0,0-.967-.4q-1.151,0-1.345,1.468a10.357,10.357,0,0,0-.062,1.283,4.068,4.068,0,0,0,.343,1.986A1.187,1.187,0,0,0,17.112-2.109Zm8.78-9.765V-9.51h1.564v2.057H25.893V-3.1a1.111,1.111,0,0,0,.193.747,1.037,1.037,0,0,0,.765.211,4.345,4.345,0,0,0,.738-.053V-.079a5.466,5.466,0,0,1-1.67.255A3.1,3.1,0,0,1,23.66-.545a2.954,2.954,0,0,1-.729-2.188v-4.72H21.718V-9.51h1.213v-2.364ZM31.746,0H28.775V-9.51h2.971ZM28.6-11.962A1.322,1.322,0,0,1,29.057-13a1.724,1.724,0,0,1,1.187-.4,1.724,1.724,0,0,1,1.187.4,1.322,1.322,0,0,1,.457,1.037,1.322,1.322,0,0,1-.457,1.037,1.724,1.724,0,0,1-1.187.4,1.724,1.724,0,0,1-1.187-.4A1.322,1.322,0,0,1,28.6-11.962Zm8.763,8.438,1.5-5.985h3.12L38.883,0H35.859l-3.1-9.51h3.129ZM45.993,0H43.022V-9.51h2.971ZM42.847-11.962A1.322,1.322,0,0,1,43.3-13a1.724,1.724,0,0,1,1.187-.4,1.724,1.724,0,0,1,1.187.4,1.322,1.322,0,0,1,.457,1.037,1.322,1.322,0,0,1-.457,1.037,1.724,1.724,0,0,1-1.187.4,1.724,1.724,0,0,1-1.187-.4A1.322,1.322,0,0,1,42.847-11.962Zm4.6,7.137a5.809,5.809,0,0,1,.976-3.56,3.211,3.211,0,0,1,2.725-1.3,2.731,2.731,0,0,1,2.145,1V-13.5h2.971V0H53.6l-.149-1.02a2.8,2.8,0,0,1-2.32,1.2,3.205,3.205,0,0,1-2.689-1.3A5.993,5.993,0,0,1,47.443-4.825Zm2.962.185q0,2.531,1.477,2.531a1.458,1.458,0,0,0,1.406-.826V-6.557A1.419,1.419,0,0,0,51.9-7.4q-1.371,0-1.485,2.215ZM63.3,0a3.344,3.344,0,0,1-.281-.853A2.754,2.754,0,0,1,60.732.176a3.374,3.374,0,0,1-2.285-.813,2.588,2.588,0,0,1-.94-2.043,2.66,2.66,0,0,1,1.143-2.338,5.821,5.821,0,0,1,3.322-.791h.914v-.5q0-1.31-1.134-1.31A.925.925,0,0,0,60.7-6.583H57.735a2.659,2.659,0,0,1,1.173-2.241A4.927,4.927,0,0,1,61.9-9.686a4.323,4.323,0,0,1,2.874.888,3.086,3.086,0,0,1,1.081,2.435v4.21a4.311,4.311,0,0,0,.4,2V0ZM61.444-1.934a1.652,1.652,0,0,0,.918-.237,1.487,1.487,0,0,0,.523-.536V-4.228h-.861q-1.547,0-1.547,1.389a.848.848,0,0,0,.272.655A.986.986,0,0,0,61.444-1.934Zm5.678-2.892a5.809,5.809,0,0,1,.976-3.56,3.211,3.211,0,0,1,2.725-1.3,2.731,2.731,0,0,1,2.145,1V-13.5h2.971V0H73.274l-.149-1.02A2.8,2.8,0,0,1,70.8.176a3.205,3.205,0,0,1-2.689-1.3A5.993,5.993,0,0,1,67.122-4.825Zm2.962.185q0,2.531,1.477,2.531a1.458,1.458,0,0,0,1.406-.826V-6.557A1.419,1.419,0,0,0,71.578-7.4q-1.371,0-1.485,2.215Zm17.807.272H82.608V-6.662h5.282ZM96.715,0H93.744V-9.457L90.826-8.6v-2.25L96.442-12.8h.272Z" transform="translate(328 4829.5)" fill="#12263f"/><path d="M8.235-2.391H4.008L3.27,0h-3.3L4.667-12.8h2.9L12.3,0H8.982ZM4.746-4.772H7.5L6.117-9.211ZM17.112-2.109a1.317,1.317,0,0,0,.967-.338,1.241,1.241,0,0,0,.334-.945H21.19A3.288,3.288,0,0,1,20.07-.826a4.168,4.168,0,0,1-2.887,1,4.22,4.22,0,0,1-3.27-1.3,5.125,5.125,0,0,1-1.2-3.6v-.123A5.792,5.792,0,0,1,13.25-7.4a3.872,3.872,0,0,1,1.534-1.7,4.573,4.573,0,0,1,2.373-.593A4.116,4.116,0,0,1,20.1-8.657a3.647,3.647,0,0,1,1.09,2.786H18.413A1.626,1.626,0,0,0,18.053-7a1.244,1.244,0,0,0-.967-.4q-1.151,0-1.345,1.468a10.357,10.357,0,0,0-.062,1.283,4.068,4.068,0,0,0,.343,1.986A1.187,1.187,0,0,0,17.112-2.109Zm8.78-9.765V-9.51h1.564v2.057H25.893V-3.1a1.111,1.111,0,0,0,.193.747,1.037,1.037,0,0,0,.765.211,4.345,4.345,0,0,0,.738-.053V-.079a5.466,5.466,0,0,1-1.67.255A3.1,3.1,0,0,1,23.66-.545a2.954,2.954,0,0,1-.729-2.188v-4.72H21.718V-9.51h1.213v-2.364ZM31.746,0H28.775V-9.51h2.971ZM28.6-11.962A1.322,1.322,0,0,1,29.057-13a1.724,1.724,0,0,1,1.187-.4,1.724,1.724,0,0,1,1.187.4,1.322,1.322,0,0,1,.457,1.037,1.322,1.322,0,0,1-.457,1.037,1.724,1.724,0,0,1-1.187.4,1.724,1.724,0,0,1-1.187-.4A1.322,1.322,0,0,1,28.6-11.962Zm8.763,8.438,1.5-5.985h3.12L38.883,0H35.859l-3.1-9.51h3.129ZM45.993,0H43.022V-9.51h2.971ZM42.847-11.962A1.322,1.322,0,0,1,43.3-13a1.724,1.724,0,0,1,1.187-.4,1.724,1.724,0,0,1,1.187.4,1.322,1.322,0,0,1,.457,1.037,1.322,1.322,0,0,1-.457,1.037,1.724,1.724,0,0,1-1.187.4,1.724,1.724,0,0,1-1.187-.4A1.322,1.322,0,0,1,42.847-11.962Zm4.6,7.137a5.809,5.809,0,0,1,.976-3.56,3.211,3.211,0,0,1,2.725-1.3,2.731,2.731,0,0,1,2.145,1V-13.5h2.971V0H53.6l-.149-1.02a2.8,2.8,0,0,1-2.32,1.2,3.205,3.205,0,0,1-2.689-1.3A5.993,5.993,0,0,1,47.443-4.825Zm2.962.185q0,2.531,1.477,2.531a1.458,1.458,0,0,0,1.406-.826V-6.557A1.419,1.419,0,0,0,51.9-7.4q-1.371,0-1.485,2.215ZM63.3,0a3.344,3.344,0,0,1-.281-.853A2.754,2.754,0,0,1,60.732.176a3.374,3.374,0,0,1-2.285-.813,2.588,2.588,0,0,1-.94-2.043,2.66,2.66,0,0,1,1.143-2.338,5.821,5.821,0,0,1,3.322-.791h.914v-.5q0-1.31-1.134-1.31A.925.925,0,0,0,60.7-6.583H57.735a2.659,2.659,0,0,1,1.173-2.241A4.927,4.927,0,0,1,61.9-9.686a4.323,4.323,0,0,1,2.874.888,3.086,3.086,0,0,1,1.081,2.435v4.21a4.311,4.311,0,0,0,.4,2V0ZM61.444-1.934a1.652,1.652,0,0,0,.918-.237,1.487,1.487,0,0,0,.523-.536V-4.228h-.861q-1.547,0-1.547,1.389a.848.848,0,0,0,.272.655A.986.986,0,0,0,61.444-1.934Zm5.678-2.892a5.809,5.809,0,0,1,.976-3.56,3.211,3.211,0,0,1,2.725-1.3,2.731,2.731,0,0,1,2.145,1V-13.5h2.971V0H73.274l-.149-1.02A2.8,2.8,0,0,1,70.8.176a3.205,3.205,0,0,1-2.689-1.3A5.993,5.993,0,0,1,67.122-4.825Zm2.962.185q0,2.531,1.477,2.531a1.458,1.458,0,0,0,1.406-.826V-6.557A1.419,1.419,0,0,0,71.578-7.4q-1.371,0-1.485,2.215Zm17.807.272H82.608V-6.662h5.282ZM99.079,0h-8.93V-1.934l4.113-4.324a4.909,4.909,0,0,0,1.521-2.751,1.913,1.913,0,0,0-.36-1.257,1.287,1.287,0,0,0-1.046-.431,1.3,1.3,0,0,0-1.1.576,2.366,2.366,0,0,0-.422,1.437H89.886a4.2,4.2,0,0,1,.589-2.175,4.129,4.129,0,0,1,1.635-1.56,4.856,4.856,0,0,1,2.338-.562,4.777,4.777,0,0,1,3.195.958,3.42,3.42,0,0,1,1.121,2.751A4,4,0,0,1,98.481-7.8a6.456,6.456,0,0,1-.875,1.5,22.029,22.029,0,0,1-1.912,2.1L94.043-2.285h5.036Z" transform="translate(328 5062.5)" fill="#12263f"/><path d="M10.327-11.408H6.214V0H4.535V-11.408H.431V-12.8h9.9ZM16.849,0a3.416,3.416,0,0,1-.229-1A3.628,3.628,0,0,1,13.913.176a3.357,3.357,0,0,1-2.307-.8,2.573,2.573,0,0,1-.9-2.017,2.688,2.688,0,0,1,1.129-2.307,5.325,5.325,0,0,1,3.177-.822h1.582v-.747a1.826,1.826,0,0,0-.51-1.358,2.049,2.049,0,0,0-1.5-.505,2.371,2.371,0,0,0-1.459.439,1.3,1.3,0,0,0-.589,1.063H10.9A2.244,2.244,0,0,1,11.4-8.249,3.449,3.449,0,0,1,12.775-9.3a4.613,4.613,0,0,1,1.9-.387,3.759,3.759,0,0,1,2.575.822A2.964,2.964,0,0,1,18.22-6.6v4.377a5.351,5.351,0,0,0,.334,2.083V0Zm-2.7-1.239a2.858,2.858,0,0,0,1.45-.4,2.392,2.392,0,0,0,.993-1.028V-4.614H15.319q-2.988,0-2.988,1.749a1.48,1.48,0,0,0,.51,1.2A1.959,1.959,0,0,0,14.15-1.239ZM25.365-8.051a4.873,4.873,0,0,0-.8-.062A2.143,2.143,0,0,0,22.395-6.75V0H20.769V-9.51h1.582l.026,1.1a2.532,2.532,0,0,1,2.268-1.274,1.661,1.661,0,0,1,.721.123ZM30.806.176a4.155,4.155,0,0,1-3.146-1.27,4.714,4.714,0,0,1-1.213-3.4v-.3a5.707,5.707,0,0,1,.541-2.527A4.217,4.217,0,0,1,28.5-9.057a3.8,3.8,0,0,1,2.1-.628,3.562,3.562,0,0,1,2.883,1.222,5.289,5.289,0,0,1,1.028,3.5v.677H28.072a3.38,3.38,0,0,0,.822,2.272,2.583,2.583,0,0,0,2,.866A2.832,2.832,0,0,0,32.353-1.5,3.666,3.666,0,0,0,33.4-2.435l.993.773A3.993,3.993,0,0,1,30.806.176ZM30.6-8.35a2.169,2.169,0,0,0-1.652.716,3.482,3.482,0,0,0-.826,2.008h4.764v-.123a3.1,3.1,0,0,0-.668-1.92A2.042,2.042,0,0,0,30.6-8.35ZM42.267,0a3.416,3.416,0,0,1-.229-1A3.628,3.628,0,0,1,39.331.176a3.357,3.357,0,0,1-2.307-.8,2.573,2.573,0,0,1-.9-2.017,2.688,2.688,0,0,1,1.129-2.307,5.325,5.325,0,0,1,3.177-.822h1.582v-.747a1.826,1.826,0,0,0-.51-1.358A2.049,2.049,0,0,0,40-8.376a2.371,2.371,0,0,0-1.459.439,1.3,1.3,0,0,0-.589,1.063H36.316a2.244,2.244,0,0,1,.505-1.375A3.449,3.449,0,0,1,38.193-9.3a4.613,4.613,0,0,1,1.9-.387,3.759,3.759,0,0,1,2.575.822A2.964,2.964,0,0,1,43.638-6.6v4.377a5.351,5.351,0,0,0,.334,2.083V0Zm-2.7-1.239a2.858,2.858,0,0,0,1.45-.4,2.392,2.392,0,0,0,.993-1.028V-4.614H40.737q-2.988,0-2.988,1.749a1.48,1.48,0,0,0,.51,1.2A1.959,1.959,0,0,0,39.568-1.239Zm10-3.533H45.281V-6.1H49.57ZM56.329,0H54.694V-10.837l-3.278,1.2v-1.477l4.658-1.749h.255Z" transform="translate(328 4887.5)" fill="#12263f"/><path d="M10.327-11.408H6.214V0H4.535V-11.408H.431V-12.8h9.9ZM16.849,0a3.416,3.416,0,0,1-.229-1A3.628,3.628,0,0,1,13.913.176a3.357,3.357,0,0,1-2.307-.8,2.573,2.573,0,0,1-.9-2.017,2.688,2.688,0,0,1,1.129-2.307,5.325,5.325,0,0,1,3.177-.822h1.582v-.747a1.826,1.826,0,0,0-.51-1.358,2.049,2.049,0,0,0-1.5-.505,2.371,2.371,0,0,0-1.459.439,1.3,1.3,0,0,0-.589,1.063H10.9A2.244,2.244,0,0,1,11.4-8.249,3.449,3.449,0,0,1,12.775-9.3a4.613,4.613,0,0,1,1.9-.387,3.759,3.759,0,0,1,2.575.822A2.964,2.964,0,0,1,18.22-6.6v4.377a5.351,5.351,0,0,0,.334,2.083V0Zm-2.7-1.239a2.858,2.858,0,0,0,1.45-.4,2.392,2.392,0,0,0,.993-1.028V-4.614H15.319q-2.988,0-2.988,1.749a1.48,1.48,0,0,0,.51,1.2A1.959,1.959,0,0,0,14.15-1.239ZM25.365-8.051a4.873,4.873,0,0,0-.8-.062A2.143,2.143,0,0,0,22.395-6.75V0H20.769V-9.51h1.582l.026,1.1a2.532,2.532,0,0,1,2.268-1.274,1.661,1.661,0,0,1,.721.123ZM30.806.176a4.155,4.155,0,0,1-3.146-1.27,4.714,4.714,0,0,1-1.213-3.4v-.3a5.707,5.707,0,0,1,.541-2.527A4.217,4.217,0,0,1,28.5-9.057a3.8,3.8,0,0,1,2.1-.628,3.562,3.562,0,0,1,2.883,1.222,5.289,5.289,0,0,1,1.028,3.5v.677H28.072a3.38,3.38,0,0,0,.822,2.272,2.583,2.583,0,0,0,2,.866A2.832,2.832,0,0,0,32.353-1.5,3.666,3.666,0,0,0,33.4-2.435l.993.773A3.993,3.993,0,0,1,30.806.176ZM30.6-8.35a2.169,2.169,0,0,0-1.652.716,3.482,3.482,0,0,0-.826,2.008h4.764v-.123a3.1,3.1,0,0,0-.668-1.92A2.042,2.042,0,0,0,30.6-8.35ZM42.267,0a3.416,3.416,0,0,1-.229-1A3.628,3.628,0,0,1,39.331.176a3.357,3.357,0,0,1-2.307-.8,2.573,2.573,0,0,1-.9-2.017,2.688,2.688,0,0,1,1.129-2.307,5.325,5.325,0,0,1,3.177-.822h1.582v-.747a1.826,1.826,0,0,0-.51-1.358A2.049,2.049,0,0,0,40-8.376a2.371,2.371,0,0,0-1.459.439,1.3,1.3,0,0,0-.589,1.063H36.316a2.244,2.244,0,0,1,.505-1.375A3.449,3.449,0,0,1,38.193-9.3a4.613,4.613,0,0,1,1.9-.387,3.759,3.759,0,0,1,2.575.822A2.964,2.964,0,0,1,43.638-6.6v4.377a5.351,5.351,0,0,0,.334,2.083V0Zm-2.7-1.239a2.858,2.858,0,0,0,1.45-.4,2.392,2.392,0,0,0,.993-1.028V-4.614H40.737q-2.988,0-2.988,1.749a1.48,1.48,0,0,0,.51,1.2A1.959,1.959,0,0,0,39.568-1.239Zm10-3.533H45.281V-6.1H49.57ZM59.37,0H50.985V-1.169l4.43-4.922a10.524,10.524,0,0,0,1.358-1.815,3.029,3.029,0,0,0,.374-1.446A2.3,2.3,0,0,0,56.54-11a2.12,2.12,0,0,0-1.617-.642,2.511,2.511,0,0,0-1.885.69,2.635,2.635,0,0,0-.672,1.92H50.739a3.774,3.774,0,0,1,1.138-2.856,4.219,4.219,0,0,1,3.045-1.09,4.054,4.054,0,0,1,2.821.936,3.193,3.193,0,0,1,1.037,2.492q0,1.89-2.408,4.5L52.945-1.327H59.37Z" transform="translate(328 4945.5)" fill="#12263f"/><path d="M10.327-11.408H6.214V0H4.535V-11.408H.431V-12.8h9.9ZM16.849,0a3.416,3.416,0,0,1-.229-1A3.628,3.628,0,0,1,13.913.176a3.357,3.357,0,0,1-2.307-.8,2.573,2.573,0,0,1-.9-2.017,2.688,2.688,0,0,1,1.129-2.307,5.325,5.325,0,0,1,3.177-.822h1.582v-.747a1.826,1.826,0,0,0-.51-1.358,2.049,2.049,0,0,0-1.5-.505,2.371,2.371,0,0,0-1.459.439,1.3,1.3,0,0,0-.589,1.063H10.9A2.244,2.244,0,0,1,11.4-8.249,3.449,3.449,0,0,1,12.775-9.3a4.613,4.613,0,0,1,1.9-.387,3.759,3.759,0,0,1,2.575.822A2.964,2.964,0,0,1,18.22-6.6v4.377a5.351,5.351,0,0,0,.334,2.083V0Zm-2.7-1.239a2.858,2.858,0,0,0,1.45-.4,2.392,2.392,0,0,0,.993-1.028V-4.614H15.319q-2.988,0-2.988,1.749a1.48,1.48,0,0,0,.51,1.2A1.959,1.959,0,0,0,14.15-1.239ZM25.365-8.051a4.873,4.873,0,0,0-.8-.062A2.143,2.143,0,0,0,22.395-6.75V0H20.769V-9.51h1.582l.026,1.1a2.532,2.532,0,0,1,2.268-1.274,1.661,1.661,0,0,1,.721.123ZM30.806.176a4.155,4.155,0,0,1-3.146-1.27,4.714,4.714,0,0,1-1.213-3.4v-.3a5.707,5.707,0,0,1,.541-2.527A4.217,4.217,0,0,1,28.5-9.057a3.8,3.8,0,0,1,2.1-.628,3.562,3.562,0,0,1,2.883,1.222,5.289,5.289,0,0,1,1.028,3.5v.677H28.072a3.38,3.38,0,0,0,.822,2.272,2.583,2.583,0,0,0,2,.866A2.832,2.832,0,0,0,32.353-1.5,3.666,3.666,0,0,0,33.4-2.435l.993.773A3.993,3.993,0,0,1,30.806.176ZM30.6-8.35a2.169,2.169,0,0,0-1.652.716,3.482,3.482,0,0,0-.826,2.008h4.764v-.123a3.1,3.1,0,0,0-.668-1.92A2.042,2.042,0,0,0,30.6-8.35ZM42.267,0a3.416,3.416,0,0,1-.229-1A3.628,3.628,0,0,1,39.331.176a3.357,3.357,0,0,1-2.307-.8,2.573,2.573,0,0,1-.9-2.017,2.688,2.688,0,0,1,1.129-2.307,5.325,5.325,0,0,1,3.177-.822h1.582v-.747a1.826,1.826,0,0,0-.51-1.358A2.049,2.049,0,0,0,40-8.376a2.371,2.371,0,0,0-1.459.439,1.3,1.3,0,0,0-.589,1.063H36.316a2.244,2.244,0,0,1,.505-1.375A3.449,3.449,0,0,1,38.193-9.3a4.613,4.613,0,0,1,1.9-.387,3.759,3.759,0,0,1,2.575.822A2.964,2.964,0,0,1,43.638-6.6v4.377a5.351,5.351,0,0,0,.334,2.083V0Zm-2.7-1.239a2.858,2.858,0,0,0,1.45-.4,2.392,2.392,0,0,0,.993-1.028V-4.614H40.737q-2.988,0-2.988,1.749a1.48,1.48,0,0,0,.51,1.2A1.959,1.959,0,0,0,39.568-1.239Zm10-3.533H45.281V-6.1H49.57ZM53.35-7.189h1.222A2.685,2.685,0,0,0,56.382-7.8a2.026,2.026,0,0,0,.659-1.591,1.985,1.985,0,0,0-2.241-2.25,2.331,2.331,0,0,0-1.683.6,2.107,2.107,0,0,0-.628,1.6H50.862a3.264,3.264,0,0,1,1.112-2.527A4.05,4.05,0,0,1,54.8-12.973a4,4,0,0,1,2.839.958,3.461,3.461,0,0,1,1.028,2.663,2.809,2.809,0,0,1-.541,1.617,3.264,3.264,0,0,1-1.472,1.169,3.145,3.145,0,0,1,1.63,1.107,3.076,3.076,0,0,1,.576,1.89A3.491,3.491,0,0,1,57.735-.835,4.213,4.213,0,0,1,54.809.176,4.324,4.324,0,0,1,51.877-.8a3.236,3.236,0,0,1-1.129-2.575h1.635a2.092,2.092,0,0,0,.659,1.617,2.507,2.507,0,0,0,1.767.606,2.46,2.46,0,0,0,1.8-.615,2.371,2.371,0,0,0,.624-1.767,2.151,2.151,0,0,0-.686-1.714,2.987,2.987,0,0,0-1.978-.615H53.35Z" transform="translate(328 5004.5)" fill="#12263f"/><g transform="translate(296 5086)" fill="#fcfcfc" stroke="#006cff" stroke-width="1"><rect width="1030" height="60" stroke="none"/><rect x="0.5" y="0.5" width="1029" height="59" fill="none"/></g><g transform="translate(296 5144)" fill="#fcfcfc" stroke="#006cff" stroke-width="1"><rect width="1030" height="60" stroke="none"/><rect x="0.5" y="0.5" width="1029" height="59" fill="none"/></g><g transform="translate(296 5203)" fill="#fcfcfc" stroke="#006cff" stroke-width="1"><rect width="1030" height="60" stroke="none"/><rect x="0.5" y="0.5" width="1029" height="59" fill="none"/></g><path d="M10.327-11.408H6.214V0H4.535V-11.408H.431V-12.8h9.9ZM16.849,0a3.416,3.416,0,0,1-.229-1A3.628,3.628,0,0,1,13.913.176a3.357,3.357,0,0,1-2.307-.8,2.573,2.573,0,0,1-.9-2.017,2.688,2.688,0,0,1,1.129-2.307,5.325,5.325,0,0,1,3.177-.822h1.582v-.747a1.826,1.826,0,0,0-.51-1.358,2.049,2.049,0,0,0-1.5-.505,2.371,2.371,0,0,0-1.459.439,1.3,1.3,0,0,0-.589,1.063H10.9A2.244,2.244,0,0,1,11.4-8.249,3.449,3.449,0,0,1,12.775-9.3a4.613,4.613,0,0,1,1.9-.387,3.759,3.759,0,0,1,2.575.822A2.964,2.964,0,0,1,18.22-6.6v4.377a5.351,5.351,0,0,0,.334,2.083V0Zm-2.7-1.239a2.858,2.858,0,0,0,1.45-.4,2.392,2.392,0,0,0,.993-1.028V-4.614H15.319q-2.988,0-2.988,1.749a1.48,1.48,0,0,0,.51,1.2A1.959,1.959,0,0,0,14.15-1.239ZM25.365-8.051a4.873,4.873,0,0,0-.8-.062A2.143,2.143,0,0,0,22.395-6.75V0H20.769V-9.51h1.582l.026,1.1a2.532,2.532,0,0,1,2.268-1.274,1.661,1.661,0,0,1,.721.123ZM30.806.176a4.155,4.155,0,0,1-3.146-1.27,4.714,4.714,0,0,1-1.213-3.4v-.3a5.707,5.707,0,0,1,.541-2.527A4.217,4.217,0,0,1,28.5-9.057a3.8,3.8,0,0,1,2.1-.628,3.562,3.562,0,0,1,2.883,1.222,5.289,5.289,0,0,1,1.028,3.5v.677H28.072a3.38,3.38,0,0,0,.822,2.272,2.583,2.583,0,0,0,2,.866A2.832,2.832,0,0,0,32.353-1.5,3.666,3.666,0,0,0,33.4-2.435l.993.773A3.993,3.993,0,0,1,30.806.176ZM30.6-8.35a2.169,2.169,0,0,0-1.652.716,3.482,3.482,0,0,0-.826,2.008h4.764v-.123a3.1,3.1,0,0,0-.668-1.92A2.042,2.042,0,0,0,30.6-8.35ZM42.267,0a3.416,3.416,0,0,1-.229-1A3.628,3.628,0,0,1,39.331.176a3.357,3.357,0,0,1-2.307-.8,2.573,2.573,0,0,1-.9-2.017,2.688,2.688,0,0,1,1.129-2.307,5.325,5.325,0,0,1,3.177-.822h1.582v-.747a1.826,1.826,0,0,0-.51-1.358A2.049,2.049,0,0,0,40-8.376a2.371,2.371,0,0,0-1.459.439,1.3,1.3,0,0,0-.589,1.063H36.316a2.244,2.244,0,0,1,.505-1.375A3.449,3.449,0,0,1,38.193-9.3a4.613,4.613,0,0,1,1.9-.387,3.759,3.759,0,0,1,2.575.822A2.964,2.964,0,0,1,43.638-6.6v4.377a5.351,5.351,0,0,0,.334,2.083V0Zm-2.7-1.239a2.858,2.858,0,0,0,1.45-.4,2.392,2.392,0,0,0,.993-1.028V-4.614H40.737q-2.988,0-2.988,1.749a1.48,1.48,0,0,0,.51,1.2A1.959,1.959,0,0,0,39.568-1.239Zm10-3.533H45.281V-6.1H49.57ZM56.329,0H54.694V-10.837l-3.278,1.2v-1.477l4.658-1.749h.255Z" transform="translate(328 5122.5)" fill="#12263f"/><path d="M10.327-11.408H6.214V0H4.535V-11.408H.431V-12.8h9.9ZM16.849,0a3.416,3.416,0,0,1-.229-1A3.628,3.628,0,0,1,13.913.176a3.357,3.357,0,0,1-2.307-.8,2.573,2.573,0,0,1-.9-2.017,2.688,2.688,0,0,1,1.129-2.307,5.325,5.325,0,0,1,3.177-.822h1.582v-.747a1.826,1.826,0,0,0-.51-1.358,2.049,2.049,0,0,0-1.5-.505,2.371,2.371,0,0,0-1.459.439,1.3,1.3,0,0,0-.589,1.063H10.9A2.244,2.244,0,0,1,11.4-8.249,3.449,3.449,0,0,1,12.775-9.3a4.613,4.613,0,0,1,1.9-.387,3.759,3.759,0,0,1,2.575.822A2.964,2.964,0,0,1,18.22-6.6v4.377a5.351,5.351,0,0,0,.334,2.083V0Zm-2.7-1.239a2.858,2.858,0,0,0,1.45-.4,2.392,2.392,0,0,0,.993-1.028V-4.614H15.319q-2.988,0-2.988,1.749a1.48,1.48,0,0,0,.51,1.2A1.959,1.959,0,0,0,14.15-1.239ZM25.365-8.051a4.873,4.873,0,0,0-.8-.062A2.143,2.143,0,0,0,22.395-6.75V0H20.769V-9.51h1.582l.026,1.1a2.532,2.532,0,0,1,2.268-1.274,1.661,1.661,0,0,1,.721.123ZM30.806.176a4.155,4.155,0,0,1-3.146-1.27,4.714,4.714,0,0,1-1.213-3.4v-.3a5.707,5.707,0,0,1,.541-2.527A4.217,4.217,0,0,1,28.5-9.057a3.8,3.8,0,0,1,2.1-.628,3.562,3.562,0,0,1,2.883,1.222,5.289,5.289,0,0,1,1.028,3.5v.677H28.072a3.38,3.38,0,0,0,.822,2.272,2.583,2.583,0,0,0,2,.866A2.832,2.832,0,0,0,32.353-1.5,3.666,3.666,0,0,0,33.4-2.435l.993.773A3.993,3.993,0,0,1,30.806.176ZM30.6-8.35a2.169,2.169,0,0,0-1.652.716,3.482,3.482,0,0,0-.826,2.008h4.764v-.123a3.1,3.1,0,0,0-.668-1.92A2.042,2.042,0,0,0,30.6-8.35ZM42.267,0a3.416,3.416,0,0,1-.229-1A3.628,3.628,0,0,1,39.331.176a3.357,3.357,0,0,1-2.307-.8,2.573,2.573,0,0,1-.9-2.017,2.688,2.688,0,0,1,1.129-2.307,5.325,5.325,0,0,1,3.177-.822h1.582v-.747a1.826,1.826,0,0,0-.51-1.358A2.049,2.049,0,0,0,40-8.376a2.371,2.371,0,0,0-1.459.439,1.3,1.3,0,0,0-.589,1.063H36.316a2.244,2.244,0,0,1,.505-1.375A3.449,3.449,0,0,1,38.193-9.3a4.613,4.613,0,0,1,1.9-.387,3.759,3.759,0,0,1,2.575.822A2.964,2.964,0,0,1,43.638-6.6v4.377a5.351,5.351,0,0,0,.334,2.083V0Zm-2.7-1.239a2.858,2.858,0,0,0,1.45-.4,2.392,2.392,0,0,0,.993-1.028V-4.614H40.737q-2.988,0-2.988,1.749a1.48,1.48,0,0,0,.51,1.2A1.959,1.959,0,0,0,39.568-1.239Zm10-3.533H45.281V-6.1H49.57ZM59.37,0H50.985V-1.169l4.43-4.922a10.524,10.524,0,0,0,1.358-1.815,3.029,3.029,0,0,0,.374-1.446A2.3,2.3,0,0,0,56.54-11a2.12,2.12,0,0,0-1.617-.642,2.511,2.511,0,0,0-1.885.69,2.635,2.635,0,0,0-.672,1.92H50.739a3.774,3.774,0,0,1,1.138-2.856,4.219,4.219,0,0,1,3.045-1.09,4.054,4.054,0,0,1,2.821.936,3.193,3.193,0,0,1,1.037,2.492q0,1.89-2.408,4.5L52.945-1.327H59.37Z" transform="translate(328 5180.5)" fill="#12263f"/><path d="M10.327-11.408H6.214V0H4.535V-11.408H.431V-12.8h9.9ZM16.849,0a3.416,3.416,0,0,1-.229-1A3.628,3.628,0,0,1,13.913.176a3.357,3.357,0,0,1-2.307-.8,2.573,2.573,0,0,1-.9-2.017,2.688,2.688,0,0,1,1.129-2.307,5.325,5.325,0,0,1,3.177-.822h1.582v-.747a1.826,1.826,0,0,0-.51-1.358,2.049,2.049,0,0,0-1.5-.505,2.371,2.371,0,0,0-1.459.439,1.3,1.3,0,0,0-.589,1.063H10.9A2.244,2.244,0,0,1,11.4-8.249,3.449,3.449,0,0,1,12.775-9.3a4.613,4.613,0,0,1,1.9-.387,3.759,3.759,0,0,1,2.575.822A2.964,2.964,0,0,1,18.22-6.6v4.377a5.351,5.351,0,0,0,.334,2.083V0Zm-2.7-1.239a2.858,2.858,0,0,0,1.45-.4,2.392,2.392,0,0,0,.993-1.028V-4.614H15.319q-2.988,0-2.988,1.749a1.48,1.48,0,0,0,.51,1.2A1.959,1.959,0,0,0,14.15-1.239ZM25.365-8.051a4.873,4.873,0,0,0-.8-.062A2.143,2.143,0,0,0,22.395-6.75V0H20.769V-9.51h1.582l.026,1.1a2.532,2.532,0,0,1,2.268-1.274,1.661,1.661,0,0,1,.721.123ZM30.806.176a4.155,4.155,0,0,1-3.146-1.27,4.714,4.714,0,0,1-1.213-3.4v-.3a5.707,5.707,0,0,1,.541-2.527A4.217,4.217,0,0,1,28.5-9.057a3.8,3.8,0,0,1,2.1-.628,3.562,3.562,0,0,1,2.883,1.222,5.289,5.289,0,0,1,1.028,3.5v.677H28.072a3.38,3.38,0,0,0,.822,2.272,2.583,2.583,0,0,0,2,.866A2.832,2.832,0,0,0,32.353-1.5,3.666,3.666,0,0,0,33.4-2.435l.993.773A3.993,3.993,0,0,1,30.806.176ZM30.6-8.35a2.169,2.169,0,0,0-1.652.716,3.482,3.482,0,0,0-.826,2.008h4.764v-.123a3.1,3.1,0,0,0-.668-1.92A2.042,2.042,0,0,0,30.6-8.35ZM42.267,0a3.416,3.416,0,0,1-.229-1A3.628,3.628,0,0,1,39.331.176a3.357,3.357,0,0,1-2.307-.8,2.573,2.573,0,0,1-.9-2.017,2.688,2.688,0,0,1,1.129-2.307,5.325,5.325,0,0,1,3.177-.822h1.582v-.747a1.826,1.826,0,0,0-.51-1.358A2.049,2.049,0,0,0,40-8.376a2.371,2.371,0,0,0-1.459.439,1.3,1.3,0,0,0-.589,1.063H36.316a2.244,2.244,0,0,1,.505-1.375A3.449,3.449,0,0,1,38.193-9.3a4.613,4.613,0,0,1,1.9-.387,3.759,3.759,0,0,1,2.575.822A2.964,2.964,0,0,1,43.638-6.6v4.377a5.351,5.351,0,0,0,.334,2.083V0Zm-2.7-1.239a2.858,2.858,0,0,0,1.45-.4,2.392,2.392,0,0,0,.993-1.028V-4.614H40.737q-2.988,0-2.988,1.749a1.48,1.48,0,0,0,.51,1.2A1.959,1.959,0,0,0,39.568-1.239Zm10-3.533H45.281V-6.1H49.57ZM53.35-7.189h1.222A2.685,2.685,0,0,0,56.382-7.8a2.026,2.026,0,0,0,.659-1.591,1.985,1.985,0,0,0-2.241-2.25,2.331,2.331,0,0,0-1.683.6,2.107,2.107,0,0,0-.628,1.6H50.862a3.264,3.264,0,0,1,1.112-2.527A4.05,4.05,0,0,1,54.8-12.973a4,4,0,0,1,2.839.958,3.461,3.461,0,0,1,1.028,2.663,2.809,2.809,0,0,1-.541,1.617,3.264,3.264,0,0,1-1.472,1.169,3.145,3.145,0,0,1,1.63,1.107,3.076,3.076,0,0,1,.576,1.89A3.491,3.491,0,0,1,57.735-.835,4.213,4.213,0,0,1,54.809.176,4.324,4.324,0,0,1,51.877-.8a3.236,3.236,0,0,1-1.129-2.575h1.635a2.092,2.092,0,0,0,.659,1.617,2.507,2.507,0,0,0,1.767.606,2.46,2.46,0,0,0,1.8-.615,2.371,2.371,0,0,0,.624-1.767,2.151,2.151,0,0,0-.686-1.714,2.987,2.987,0,0,0-1.978-.615H53.35Z" transform="translate(328 5239.5)" fill="#12263f"/><g transform="translate(477 4734)" fill="#ebebeb" stroke="#006cff" stroke-width="1"><rect width="93" height="60" stroke="none"/><rect x="0.5" y="0.5" width="92" height="59" fill="none"/></g><g transform="translate(569 4734)" fill="#a7fff1" stroke="#006cff" stroke-width="1"><rect width="64" height="60" stroke="none"/><rect x="0.5" y="0.5" width="63" height="59" fill="none"/></g><path d="M8.9-5.423H4.052v3.05h5.73V0H.967V-12.8H9.8v2.382H4.052v2.7H8.9Zm4.72-4.087.1,1.116a3.225,3.225,0,0,1,2.716-1.292,2.713,2.713,0,0,1,2.219.888,4.226,4.226,0,0,1,.76,2.672V0H16.444V-6a1.6,1.6,0,0,0-.29-1.059A1.342,1.342,0,0,0,15.1-7.4a1.413,1.413,0,0,0-1.292.686V0H10.846V-9.51ZM25.655.176a4.889,4.889,0,0,1-3.542-1.305,4.507,4.507,0,0,1-1.354-3.4v-.246A5.84,5.84,0,0,1,21.3-7.348a3.955,3.955,0,0,1,1.578-1.727,4.763,4.763,0,0,1,2.461-.611A4.117,4.117,0,0,1,28.5-8.442a4.887,4.887,0,0,1,1.16,3.467v1.151H23.774a2.135,2.135,0,0,0,.694,1.257,2.066,2.066,0,0,0,1.389.457,2.662,2.662,0,0,0,2.2-.984l1.354,1.6A3.784,3.784,0,0,1,27.839-.277,5.3,5.3,0,0,1,25.655.176ZM25.321-7.4q-1.3,0-1.547,1.723h2.988v-.229a1.467,1.467,0,0,0-.36-1.1A1.434,1.434,0,0,0,25.321-7.4Zm7.365,4.526a1.686,1.686,0,0,1,1.169.417,1.37,1.37,0,0,1,.466,1.068,1.37,1.37,0,0,1-.466,1.068A1.686,1.686,0,0,1,32.687.1a1.672,1.672,0,0,1-1.173-.422,1.379,1.379,0,0,1-.461-1.063,1.379,1.379,0,0,1,.461-1.063A1.672,1.672,0,0,1,32.687-2.874Z" transform="translate(587 4770.5)" fill="#12263f"/><g transform="translate(632 4734)" fill="#e4c4ff" stroke="#006cff" stroke-width="1"><rect width="64" height="60" stroke="none"/><rect x="0.5" y="0.5" width="63" height="59" fill="none"/></g><path d="M9.026-5.1H4.052V0H.967V-12.8H9.527v2.382H4.052v2.944H9.026ZM15.275.176a4.889,4.889,0,0,1-3.542-1.305,4.507,4.507,0,0,1-1.354-3.4v-.246a5.84,5.84,0,0,1,.541-2.575A3.955,3.955,0,0,1,12.5-9.075a4.763,4.763,0,0,1,2.461-.611,4.117,4.117,0,0,1,3.164,1.244,4.887,4.887,0,0,1,1.16,3.467v1.151H13.395a2.135,2.135,0,0,0,.694,1.257,2.066,2.066,0,0,0,1.389.457,2.662,2.662,0,0,0,2.2-.984l1.354,1.6A3.784,3.784,0,0,1,17.459-.277,5.3,5.3,0,0,1,15.275.176ZM14.941-7.4q-1.3,0-1.547,1.723h2.988v-.229a1.467,1.467,0,0,0-.36-1.1A1.434,1.434,0,0,0,14.941-7.4ZM29.3-4.676a5.8,5.8,0,0,1-.967,3.595A3.238,3.238,0,0,1,25.611.176,2.81,2.81,0,0,1,23.273-.976L23.15,0H20.5V-13.5h2.962v4.755a2.711,2.711,0,0,1,2.136-.94,3.239,3.239,0,0,1,2.742,1.274A5.826,5.826,0,0,1,29.3-4.825ZM26.332-4.86a3.878,3.878,0,0,0-.365-1.956A1.229,1.229,0,0,0,24.847-7.4a1.418,1.418,0,0,0-1.389.765v3.779a1.426,1.426,0,0,0,1.406.756,1.258,1.258,0,0,0,1.327-1.02A7.333,7.333,0,0,0,26.332-4.86ZM32.44-2.874a1.686,1.686,0,0,1,1.169.417,1.37,1.37,0,0,1,.466,1.068,1.37,1.37,0,0,1-.466,1.068A1.686,1.686,0,0,1,32.44.1a1.672,1.672,0,0,1-1.173-.422,1.379,1.379,0,0,1-.461-1.063,1.379,1.379,0,0,1,.461-1.063A1.672,1.672,0,0,1,32.44-2.874Z" transform="translate(649 4770.5)" fill="#12263f"/><g transform="translate(695 4734)" fill="#a7fff1" stroke="#006cff" stroke-width="1"><rect width="64" height="60" stroke="none"/><rect x="0.5" y="0.5" width="63" height="59" fill="none"/></g><path d="M5.019-12.8l2.856,8.9,2.848-8.9h4.061V0H11.689V-2.988l.3-6.117L8.895,0H6.855l-3.1-9.114.3,6.126V0H.967V-12.8ZM21.964,0a3.344,3.344,0,0,1-.281-.853A2.754,2.754,0,0,1,19.4.176a3.374,3.374,0,0,1-2.285-.813,2.588,2.588,0,0,1-.94-2.043,2.66,2.66,0,0,1,1.143-2.338,5.821,5.821,0,0,1,3.322-.791h.914v-.5q0-1.31-1.134-1.31a.925.925,0,0,0-1.055,1.037H16.4a2.659,2.659,0,0,1,1.173-2.241,4.927,4.927,0,0,1,2.993-.861A4.323,4.323,0,0,1,23.44-8.8a3.086,3.086,0,0,1,1.081,2.435v4.21a4.311,4.311,0,0,0,.4,2V0ZM20.109-1.934a1.652,1.652,0,0,0,.918-.237,1.487,1.487,0,0,0,.523-.536V-4.228h-.861q-1.547,0-1.547,1.389a.848.848,0,0,0,.272.655A.986.986,0,0,0,20.109-1.934Zm11.8-4.9-.976-.07a1.752,1.752,0,0,0-1.793.879V0H26.183V-9.51H28.96l.1,1.222a2.294,2.294,0,0,1,2.083-1.4,2.888,2.888,0,0,1,.826.105Zm1.38,3.955a1.686,1.686,0,0,1,1.169.417,1.37,1.37,0,0,1,.466,1.068,1.37,1.37,0,0,1-.466,1.068A1.686,1.686,0,0,1,33.293.1,1.672,1.672,0,0,1,32.12-.325a1.379,1.379,0,0,1-.461-1.063,1.379,1.379,0,0,1,.461-1.063A1.672,1.672,0,0,1,33.293-2.874Z" transform="translate(711 4770.5)" fill="#12263f"/><g transform="translate(758 4734)" fill="#e4c4ff" stroke="#006cff" stroke-width="1"><rect width="64" height="60" stroke="none"/><rect x="0.5" y="0.5" width="63" height="59" fill="none"/></g><path d="M8.235-2.391H4.008L3.27,0h-3.3L4.667-12.8h2.9L12.3,0H8.982ZM4.746-4.772H7.5L6.117-9.211Zm17.174.1a5.8,5.8,0,0,1-.967,3.595A3.238,3.238,0,0,1,18.229.176,2.81,2.81,0,0,1,15.891-.976L15.768,0H13.113V-13.5h2.962v4.755a2.711,2.711,0,0,1,2.136-.94,3.239,3.239,0,0,1,2.742,1.274,5.826,5.826,0,0,1,.967,3.586ZM18.949-4.86a3.878,3.878,0,0,0-.365-1.956A1.229,1.229,0,0,0,17.464-7.4a1.418,1.418,0,0,0-1.389.765v3.779a1.426,1.426,0,0,0,1.406.756,1.258,1.258,0,0,0,1.327-1.02A7.333,7.333,0,0,0,18.949-4.86ZM28.978-6.829,28-6.9a1.752,1.752,0,0,0-1.793.879V0H23.247V-9.51h2.777l.1,1.222a2.294,2.294,0,0,1,2.083-1.4,2.888,2.888,0,0,1,.826.105Zm1.38,3.955a1.686,1.686,0,0,1,1.169.417,1.37,1.37,0,0,1,.466,1.068,1.37,1.37,0,0,1-.466,1.068A1.686,1.686,0,0,1,30.357.1a1.672,1.672,0,0,1-1.173-.422,1.379,1.379,0,0,1-.461-1.063,1.379,1.379,0,0,1,.461-1.063A1.672,1.672,0,0,1,30.357-2.874Z" transform="translate(774 4770.5)" fill="#12263f"/><g transform="translate(821 4734)" fill="#a7fff1" stroke="#006cff" stroke-width="1"><rect width="64" height="60" stroke="none"/><rect x="0.5" y="0.5" width="63" height="59" fill="none"/></g><path d="M5.019-12.8l2.856,8.9,2.848-8.9h4.061V0H11.689V-2.988l.3-6.117L8.895,0H6.855l-3.1-9.114.3,6.126V0H.967V-12.8ZM21.964,0a3.344,3.344,0,0,1-.281-.853A2.754,2.754,0,0,1,19.4.176a3.374,3.374,0,0,1-2.285-.813,2.588,2.588,0,0,1-.94-2.043,2.66,2.66,0,0,1,1.143-2.338,5.821,5.821,0,0,1,3.322-.791h.914v-.5q0-1.31-1.134-1.31a.925.925,0,0,0-1.055,1.037H16.4a2.659,2.659,0,0,1,1.173-2.241,4.927,4.927,0,0,1,2.993-.861A4.323,4.323,0,0,1,23.44-8.8a3.086,3.086,0,0,1,1.081,2.435v4.21a4.311,4.311,0,0,0,.4,2V0ZM20.109-1.934a1.652,1.652,0,0,0,.918-.237,1.487,1.487,0,0,0,.523-.536V-4.228h-.861q-1.547,0-1.547,1.389a.848.848,0,0,0,.272.655A.986.986,0,0,0,20.109-1.934Zm9.853-2.215L31.544-9.51h3.173l-3.876,11.1-.167.4a2.944,2.944,0,0,1-2.918,1.846,4.625,4.625,0,0,1-1.222-.176V1.547h.387a2.027,2.027,0,0,0,.954-.18,1.093,1.093,0,0,0,.488-.646L28.6.088l-3.3-9.6h3.164Zm7.356,1.274a1.686,1.686,0,0,1,1.169.417,1.37,1.37,0,0,1,.466,1.068,1.37,1.37,0,0,1-.466,1.068A1.686,1.686,0,0,1,37.318.1a1.672,1.672,0,0,1-1.173-.422,1.379,1.379,0,0,1-.461-1.063,1.379,1.379,0,0,1,.461-1.063A1.672,1.672,0,0,1,37.318-2.874Z" transform="translate(834 4770.5)" fill="#12263f"/><g transform="translate(884 4734)" fill="#e4c4ff" stroke="#006cff" stroke-width="1"><rect width="64" height="60" stroke="none"/><rect x="0.5" y="0.5" width="63" height="59" fill="none"/></g><path d="M6.064-12.8H9.141v8.78a4.2,4.2,0,0,1-.567,2.18A3.87,3.87,0,0,1,6.992-.352,4.835,4.835,0,0,1,4.729.176,4.661,4.661,0,0,1,1.477-.879,3.833,3.833,0,0,1,.316-3.867H3.41a2.113,2.113,0,0,0,.3,1.274,1.2,1.2,0,0,0,1.015.4,1.148,1.148,0,0,0,.989-.479,2.251,2.251,0,0,0,.347-1.34ZM16.611-1.028a3.054,3.054,0,0,1-2.54,1.2A3,3,0,0,1,11.7-.734a3.826,3.826,0,0,1-.8-2.615V-9.51H13.86v6.179a1.065,1.065,0,0,0,1.187,1.222,1.548,1.548,0,0,0,1.45-.729V-9.51h2.979V0H16.7ZM23.818-9.51l.1,1.116a3.225,3.225,0,0,1,2.716-1.292A2.713,2.713,0,0,1,28.85-8.8a4.226,4.226,0,0,1,.76,2.672V0H26.64V-6a1.6,1.6,0,0,0-.29-1.059A1.342,1.342,0,0,0,25.295-7.4,1.413,1.413,0,0,0,24-6.715V0H21.041V-9.51Zm9.264,6.636a1.686,1.686,0,0,1,1.169.417,1.37,1.37,0,0,1,.466,1.068,1.37,1.37,0,0,1-.466,1.068A1.686,1.686,0,0,1,33.082.1a1.672,1.672,0,0,1-1.173-.422,1.379,1.379,0,0,1-.461-1.063,1.379,1.379,0,0,1,.461-1.063A1.672,1.672,0,0,1,33.082-2.874Z" transform="translate(900 4770.5)" fill="#12263f"/><g transform="translate(947 4734)" fill="#a7fff1" stroke="#006cff" stroke-width="1"><rect width="64" height="60" stroke="none"/><rect x="0.5" y="0.5" width="63" height="59" fill="none"/></g><path d="M6.064-12.8H9.141v8.78a4.2,4.2,0,0,1-.567,2.18A3.87,3.87,0,0,1,6.992-.352,4.835,4.835,0,0,1,4.729.176,4.661,4.661,0,0,1,1.477-.879,3.833,3.833,0,0,1,.316-3.867H3.41a2.113,2.113,0,0,0,.3,1.274,1.2,1.2,0,0,0,1.015.4,1.148,1.148,0,0,0,.989-.479,2.251,2.251,0,0,0,.347-1.34ZM16.611-1.028a3.054,3.054,0,0,1-2.54,1.2A3,3,0,0,1,11.7-.734a3.826,3.826,0,0,1-.8-2.615V-9.51H13.86v6.179a1.065,1.065,0,0,0,1.187,1.222,1.548,1.548,0,0,0,1.45-.729V-9.51h2.979V0H16.7ZM24.223,0H21.252V-13.5h2.971Zm3.656-2.874a1.686,1.686,0,0,1,1.169.417,1.37,1.37,0,0,1,.466,1.068,1.37,1.37,0,0,1-.466,1.068A1.686,1.686,0,0,1,27.879.1a1.672,1.672,0,0,1-1.173-.422,1.379,1.379,0,0,1-.461-1.063,1.379,1.379,0,0,1,.461-1.063A1.672,1.672,0,0,1,27.879-2.874Z" transform="translate(966 4770.5)" fill="#12263f"/><g transform="translate(1010 4734)" fill="#e4c4ff" stroke="#006cff" stroke-width="1"><rect width="64" height="60" stroke="none"/><rect x="0.5" y="0.5" width="63" height="59" fill="none"/></g><path d="M8.235-2.391H4.008L3.27,0h-3.3L4.667-12.8h2.9L12.3,0H8.982ZM4.746-4.772H7.5L6.117-9.211Zm8-.053a6.421,6.421,0,0,1,.475-2.549,3.821,3.821,0,0,1,1.362-1.709,3.591,3.591,0,0,1,2.065-.6,2.855,2.855,0,0,1,2.32,1l.105-.826h2.689V-.36a4.009,4.009,0,0,1-.584,2.184,3.75,3.75,0,0,1-1.692,1.424,6.219,6.219,0,0,1-2.566.5,5.365,5.365,0,0,1-2.026-.4,3.657,3.657,0,0,1-1.5-1.028L14.634.58a2.716,2.716,0,0,0,2.18.976A1.764,1.764,0,0,0,18.782-.466v-.3a2.781,2.781,0,0,1-2.153.94,3.437,3.437,0,0,1-2.812-1.332A5.517,5.517,0,0,1,12.744-4.72Zm2.971.185a3.383,3.383,0,0,0,.439,1.85,1.387,1.387,0,0,0,1.23.681,1.573,1.573,0,0,0,1.4-.642v-4A1.534,1.534,0,0,0,17.4-7.4a1.4,1.4,0,0,0-1.239.708A3.858,3.858,0,0,0,15.715-4.641Zm7.356-.2a5.613,5.613,0,0,1,.554-2.536,3.96,3.96,0,0,1,1.591-1.709,4.791,4.791,0,0,1,2.435-.6,4.373,4.373,0,0,1,3.366,1.323,5.076,5.076,0,0,1,1.23,3.6v.105a4.925,4.925,0,0,1-1.235,3.529A4.384,4.384,0,0,1,27.668.176a4.434,4.434,0,0,1-3.261-1.217,4.761,4.761,0,0,1-1.327-3.3Zm2.962.185a3.538,3.538,0,0,0,.413,1.934,1.376,1.376,0,0,0,1.222.615q1.582,0,1.617-2.435v-.3q0-2.558-1.635-2.558-1.485,0-1.608,2.206Zm9.352,1.784a1.686,1.686,0,0,1,1.169.417,1.37,1.37,0,0,1,.466,1.068,1.37,1.37,0,0,1-.466,1.068A1.686,1.686,0,0,1,35.385.1a1.672,1.672,0,0,1-1.173-.422,1.379,1.379,0,0,1-.461-1.063,1.379,1.379,0,0,1,.461-1.063A1.672,1.672,0,0,1,35.385-2.874Z" transform="translate(1026 4770.5)" fill="#12263f"/><g transform="translate(1073 4734)" fill="#a7fff1" stroke="#006cff" stroke-width="1"><rect width="64" height="60" stroke="none"/><rect x="0.5" y="0.5" width="63" height="59" fill="none"/></g><path d="M7.567-3.4a1.268,1.268,0,0,0-.479-1.055,5.954,5.954,0,0,0-1.683-.782,16.147,16.147,0,0,1-1.969-.782Q.949-7.242.949-9.378a3.011,3.011,0,0,1,.62-1.876A4.008,4.008,0,0,1,3.322-12.52a6.823,6.823,0,0,1,2.549-.453,5.969,5.969,0,0,1,2.474.492,3.917,3.917,0,0,1,1.7,1.4A3.661,3.661,0,0,1,10.652-9H7.576A1.547,1.547,0,0,0,7.1-10.213a1.867,1.867,0,0,0-1.3-.431,2.106,2.106,0,0,0-1.305.365,1.119,1.119,0,0,0-.479.927,1.127,1.127,0,0,0,.527.892A6.65,6.65,0,0,0,6.4-7.633a11.36,11.36,0,0,1,2.18.918,3.663,3.663,0,0,1,2.074,3.3A3.125,3.125,0,0,1,9.387-.782,5.629,5.629,0,0,1,5.915.176,6.888,6.888,0,0,1,3.1-.382,4.247,4.247,0,0,1,1.2-1.912,3.985,3.985,0,0,1,.563-4.148H3.656a1.963,1.963,0,0,0,.532,1.516,2.513,2.513,0,0,0,1.727.488,1.985,1.985,0,0,0,1.208-.33A1.088,1.088,0,0,0,7.567-3.4ZM16.7.176a4.889,4.889,0,0,1-3.542-1.305,4.507,4.507,0,0,1-1.354-3.4v-.246a5.84,5.84,0,0,1,.541-2.575,3.955,3.955,0,0,1,1.578-1.727,4.763,4.763,0,0,1,2.461-.611,4.117,4.117,0,0,1,3.164,1.244,4.887,4.887,0,0,1,1.16,3.467v1.151H14.818a2.135,2.135,0,0,0,.694,1.257,2.066,2.066,0,0,0,1.389.457,2.662,2.662,0,0,0,2.2-.984l1.354,1.6A3.784,3.784,0,0,1,18.883-.277,5.3,5.3,0,0,1,16.7.176ZM16.365-7.4q-1.3,0-1.547,1.723h2.988v-.229a1.467,1.467,0,0,0-.36-1.1A1.434,1.434,0,0,0,16.365-7.4ZM30.727-4.685a5.735,5.735,0,0,1-1,3.538A3.2,3.2,0,0,1,27.035.176a2.742,2.742,0,0,1-2.153-.958V3.656H21.92V-9.51h2.769l.088.879a2.742,2.742,0,0,1,2.241-1.055,3.224,3.224,0,0,1,2.733,1.3,5.805,5.805,0,0,1,.976,3.564Zm-2.962-.185q0-2.531-1.477-2.531a1.394,1.394,0,0,0-1.406.756V-2.9a1.439,1.439,0,0,0,1.424.791q1.415,0,1.459-2.443Zm6.1,2a1.686,1.686,0,0,1,1.169.417A1.37,1.37,0,0,1,35.5-1.389a1.37,1.37,0,0,1-.466,1.068A1.686,1.686,0,0,1,33.864.1a1.672,1.672,0,0,1-1.173-.422,1.379,1.379,0,0,1-.461-1.063,1.379,1.379,0,0,1,.461-1.063A1.672,1.672,0,0,1,33.864-2.874Z" transform="translate(1090 4770.5)" fill="#12263f"/><g transform="translate(1136 4734)" fill="#e4c4ff" stroke="#006cff" stroke-width="1"><rect width="64" height="60" stroke="none"/><rect x="0.5" y="0.5" width="63" height="59" fill="none"/></g><path d="M11.8-6.135a7.546,7.546,0,0,1-.694,3.313A5.132,5.132,0,0,1,9.136-.6,5.494,5.494,0,0,1,6.223.176a5.572,5.572,0,0,1-2.9-.751A5.123,5.123,0,0,1,1.349-2.725,7.329,7.329,0,0,1,.606-5.933v-.721A7.58,7.58,0,0,1,1.3-9.971,5.119,5.119,0,0,1,3.274-12.19a5.533,5.533,0,0,1,2.931-.782,5.479,5.479,0,0,1,2.9.773A5.211,5.211,0,0,1,11.087-10,7.362,7.362,0,0,1,11.8-6.724ZM8.666-6.671a5.381,5.381,0,0,0-.637-2.9,2.044,2.044,0,0,0-1.824-.989q-2.32,0-2.452,3.48l-.009.94a5.535,5.535,0,0,0,.624,2.892A2.041,2.041,0,0,0,6.223-2.232a2.016,2.016,0,0,0,1.8-.993,5.383,5.383,0,0,0,.642-2.856Zm8.613,4.562a1.317,1.317,0,0,0,.967-.338,1.241,1.241,0,0,0,.334-.945h2.777A3.288,3.288,0,0,1,20.237-.826a4.168,4.168,0,0,1-2.887,1,4.22,4.22,0,0,1-3.27-1.3,5.125,5.125,0,0,1-1.2-3.6v-.123A5.792,5.792,0,0,1,13.417-7.4a3.872,3.872,0,0,1,1.534-1.7,4.573,4.573,0,0,1,2.373-.593,4.116,4.116,0,0,1,2.944,1.028,3.647,3.647,0,0,1,1.09,2.786H18.58A1.626,1.626,0,0,0,18.22-7a1.244,1.244,0,0,0-.967-.4q-1.151,0-1.345,1.468a10.357,10.357,0,0,0-.062,1.283,4.068,4.068,0,0,0,.343,1.986A1.187,1.187,0,0,0,17.279-2.109Zm8.78-9.765V-9.51h1.564v2.057H26.06V-3.1a1.111,1.111,0,0,0,.193.747,1.037,1.037,0,0,0,.765.211,4.345,4.345,0,0,0,.738-.053V-.079a5.466,5.466,0,0,1-1.67.255,3.1,3.1,0,0,1-2.259-.721A2.954,2.954,0,0,1,23.1-2.733v-4.72H21.885V-9.51H23.1v-2.364Zm4.562,9a1.686,1.686,0,0,1,1.169.417,1.37,1.37,0,0,1,.466,1.068A1.37,1.37,0,0,1,31.79-.321,1.686,1.686,0,0,1,30.621.1a1.672,1.672,0,0,1-1.173-.422,1.379,1.379,0,0,1-.461-1.063,1.379,1.379,0,0,1,.461-1.063A1.672,1.672,0,0,1,30.621-2.874Z" transform="translate(1152 4770.5)" fill="#12263f"/><g transform="translate(1199 4734)" fill="#a7fff1" stroke="#006cff" stroke-width="1"><rect width="64" height="60" stroke="none"/><rect x="0.5" y="0.5" width="63" height="59" fill="none"/></g><path d="M11.654,0H8.587L4.052-7.963V0H.967V-12.8H4.052L8.578-4.834V-12.8h3.076ZM13.1-4.843a5.613,5.613,0,0,1,.554-2.536A3.96,3.96,0,0,1,15.24-9.088a4.791,4.791,0,0,1,2.435-.6,4.373,4.373,0,0,1,3.366,1.323,5.076,5.076,0,0,1,1.23,3.6v.105a4.925,4.925,0,0,1-1.235,3.529A4.384,4.384,0,0,1,17.692.176a4.434,4.434,0,0,1-3.261-1.217,4.761,4.761,0,0,1-1.327-3.3Zm2.962.185a3.538,3.538,0,0,0,.413,1.934,1.376,1.376,0,0,0,1.222.615q1.582,0,1.617-2.435v-.3q0-2.558-1.635-2.558-1.485,0-1.608,2.206Zm11.18,1.134,1.5-5.985h3.12L28.758,0H25.734l-3.1-9.51h3.129Zm5.871.65a1.686,1.686,0,0,1,1.169.417,1.37,1.37,0,0,1,.466,1.068,1.37,1.37,0,0,1-.466,1.068A1.686,1.686,0,0,1,33.108.1a1.672,1.672,0,0,1-1.173-.422,1.379,1.379,0,0,1-.461-1.063,1.379,1.379,0,0,1,.461-1.063A1.672,1.672,0,0,1,33.108-2.874Z" transform="translate(1215 4770.5)" fill="#12263f"/><g transform="translate(1262 4734)" fill="#e4c4ff" stroke="#006cff" stroke-width="1"><rect width="64" height="60" stroke="none"/><rect x="0.5" y="0.5" width="63" height="59" fill="none"/></g><path d="M.967,0V-12.8H5.089a6.064,6.064,0,0,1,3.05.769,5.406,5.406,0,0,1,2.114,2.171,6.554,6.554,0,0,1,.769,3.142v.589a6.592,6.592,0,0,1-.743,3.151A5.429,5.429,0,0,1,8.187-.8a5.93,5.93,0,0,1-3.01.8ZM4.052-10.415v8.042H5.124a2.4,2.4,0,0,0,2.039-.945,4.63,4.63,0,0,0,.712-2.808V-6.68a4.592,4.592,0,0,0-.712-2.795,2.442,2.442,0,0,0-2.074-.94ZM15.592,0H12.621V-9.51h2.971ZM12.445-11.962A1.322,1.322,0,0,1,12.9-13a1.724,1.724,0,0,1,1.187-.4,1.724,1.724,0,0,1,1.187.4,1.322,1.322,0,0,1,.457,1.037,1.322,1.322,0,0,1-.457,1.037,1.724,1.724,0,0,1-1.187.4,1.724,1.724,0,0,1-1.187-.4A1.322,1.322,0,0,1,12.445-11.962Zm8.991,9.853a1.317,1.317,0,0,0,.967-.338,1.241,1.241,0,0,0,.334-.945h2.777A3.288,3.288,0,0,1,24.394-.826a4.168,4.168,0,0,1-2.887,1,4.22,4.22,0,0,1-3.27-1.3,5.125,5.125,0,0,1-1.2-3.6v-.123A5.792,5.792,0,0,1,17.574-7.4a3.872,3.872,0,0,1,1.534-1.7,4.573,4.573,0,0,1,2.373-.593,4.116,4.116,0,0,1,2.944,1.028,3.647,3.647,0,0,1,1.09,2.786H22.737A1.626,1.626,0,0,0,22.377-7a1.244,1.244,0,0,0-.967-.4q-1.151,0-1.345,1.468A10.357,10.357,0,0,0,20-4.649a4.068,4.068,0,0,0,.343,1.986A1.187,1.187,0,0,0,21.437-2.109ZM28.6-2.874a1.686,1.686,0,0,1,1.169.417,1.37,1.37,0,0,1,.466,1.068,1.37,1.37,0,0,1-.466,1.068A1.686,1.686,0,0,1,28.6.1a1.672,1.672,0,0,1-1.173-.422,1.379,1.379,0,0,1-.461-1.063,1.379,1.379,0,0,1,.461-1.063A1.672,1.672,0,0,1,28.6-2.874Z" transform="translate(1280 4770.5)" fill="#12263f"/><g transform="translate(477 4793)" fill="none" stroke="#006cff" stroke-width="1"><rect width="93" height="470" stroke="none"/><rect x="0.5" y="0.5" width="92" height="469" fill="none"/></g><g transform="translate(569 4793)" fill="none" stroke="#006cff" stroke-width="1"><rect width="64" height="470" stroke="none"/><rect x="0.5" y="0.5" width="63" height="469" fill="none"/></g><g transform="translate(632 4793)" fill="none" stroke="#006cff" stroke-width="1"><rect width="64" height="470" stroke="none"/><rect x="0.5" y="0.5" width="63" height="469" fill="none"/></g><g transform="translate(695 4793)" fill="none" stroke="#006cff" stroke-width="1"><rect width="64" height="470" stroke="none"/><rect x="0.5" y="0.5" width="63" height="469" fill="none"/></g><g transform="translate(758 4793)" fill="none" stroke="#006cff" stroke-width="1"><rect width="64" height="470" stroke="none"/><rect x="0.5" y="0.5" width="63" height="469" fill="none"/></g><g transform="translate(821 4793)" fill="none" stroke="#006cff" stroke-width="1"><rect width="64" height="470" stroke="none"/><rect x="0.5" y="0.5" width="63" height="469" fill="none"/></g><g transform="translate(884 4793)" fill="none" stroke="#006cff" stroke-width="1"><rect width="64" height="470" stroke="none"/><rect x="0.5" y="0.5" width="63" height="469" fill="none"/></g><g transform="translate(1010 4793)" fill="none" stroke="#006cff" stroke-width="1"><rect width="64" height="470" stroke="none"/><rect x="0.5" y="0.5" width="63" height="469" fill="none"/></g><g transform="translate(1073 4793)" fill="none" stroke="#006cff" stroke-width="1"><rect width="64" height="470" stroke="none"/><rect x="0.5" y="0.5" width="63" height="469" fill="none"/></g><g transform="translate(1199 4793)" fill="none" stroke="#006cff" stroke-width="1"><rect width="64" height="470" stroke="none"/><rect x="0.5" y="0.5" width="63" height="469" fill="none"/></g><path d="M8.9-5.423H4.052v3.05h5.73V0H.967V-12.8H9.8v2.382H4.052v2.7H8.9Zm4.72-4.087.1,1.116a3.225,3.225,0,0,1,2.716-1.292,2.713,2.713,0,0,1,2.219.888,4.226,4.226,0,0,1,.76,2.672V0H16.444V-6a1.6,1.6,0,0,0-.29-1.059A1.342,1.342,0,0,0,15.1-7.4a1.413,1.413,0,0,0-1.292.686V0H10.846V-9.51ZM25.655.176a4.889,4.889,0,0,1-3.542-1.305,4.507,4.507,0,0,1-1.354-3.4v-.246A5.84,5.84,0,0,1,21.3-7.348a3.955,3.955,0,0,1,1.578-1.727,4.763,4.763,0,0,1,2.461-.611A4.117,4.117,0,0,1,28.5-8.442a4.887,4.887,0,0,1,1.16,3.467v1.151H23.774a2.135,2.135,0,0,0,.694,1.257,2.066,2.066,0,0,0,1.389.457,2.662,2.662,0,0,0,2.2-.984l1.354,1.6A3.784,3.784,0,0,1,27.839-.277,5.3,5.3,0,0,1,25.655.176ZM25.321-7.4q-1.3,0-1.547,1.723h2.988v-.229a1.467,1.467,0,0,0-.36-1.1A1.434,1.434,0,0,0,25.321-7.4Zm7.365,4.526a1.686,1.686,0,0,1,1.169.417,1.37,1.37,0,0,1,.466,1.068,1.37,1.37,0,0,1-.466,1.068A1.686,1.686,0,0,1,32.687.1a1.672,1.672,0,0,1-1.173-.422,1.379,1.379,0,0,1-.461-1.063,1.379,1.379,0,0,1,.461-1.063A1.672,1.672,0,0,1,32.687-2.874Z" transform="translate(506 4770.5)" fill="#12263f"/><path d="M5.66-7.893l3.067-4.9h1.986L6.671-6.451,10.811,0h-2L5.66-4.992,2.5,0H.5L4.649-6.451.6-12.8H2.575ZM16.576-4.834a5.571,5.571,0,0,1,1.037-3.52,3.28,3.28,0,0,1,2.716-1.332,3.3,3.3,0,0,1,2.646,1.143V-13.5H24.6V0H23.106l-.079-1.02a3.311,3.311,0,0,1-2.716,1.2,3.248,3.248,0,0,1-2.694-1.354,5.634,5.634,0,0,1-1.042-3.533Zm1.626.185a4.218,4.218,0,0,0,.668,2.531,2.159,2.159,0,0,0,1.846.914,2.372,2.372,0,0,0,2.259-1.389V-6.961a2.39,2.39,0,0,0-2.241-1.345,2.17,2.17,0,0,0-1.863.923A4.644,4.644,0,0,0,18.2-4.649ZM28.89,0H27.255V-9.51H28.89Zm.018-13.491h1.969l-2.355,2.584h-1.31ZM37.441,0a3.416,3.416,0,0,1-.229-1A3.628,3.628,0,0,1,34.506.176,3.357,3.357,0,0,1,32.2-.62a2.573,2.573,0,0,1-.9-2.017,2.688,2.688,0,0,1,1.129-2.307A5.325,5.325,0,0,1,35.6-5.766h1.582v-.747a1.826,1.826,0,0,0-.51-1.358,2.049,2.049,0,0,0-1.5-.505,2.371,2.371,0,0,0-1.459.439,1.3,1.3,0,0,0-.589,1.063H31.491A2.244,2.244,0,0,1,32-8.249,3.449,3.449,0,0,1,33.368-9.3a4.613,4.613,0,0,1,1.9-.387,3.759,3.759,0,0,1,2.575.822A2.964,2.964,0,0,1,38.813-6.6v4.377a5.351,5.351,0,0,0,.334,2.083V0Zm-2.7-1.239a2.858,2.858,0,0,0,1.45-.4,2.392,2.392,0,0,0,.993-1.028V-4.614H35.912q-2.988,0-2.988,1.749a1.48,1.48,0,0,0,.51,1.2A1.959,1.959,0,0,0,34.743-1.239ZM46.9-2.522a1.2,1.2,0,0,0-.5-1.024,4.78,4.78,0,0,0-1.731-.628,8.186,8.186,0,0,1-1.96-.633,2.788,2.788,0,0,1-1.072-.879A2.1,2.1,0,0,1,41.291-6.9a2.467,2.467,0,0,1,.989-1.978,3.861,3.861,0,0,1,2.527-.809,3.974,3.974,0,0,1,2.624.835,2.652,2.652,0,0,1,1.006,2.136H46.8a1.468,1.468,0,0,0-.567-1.151,2.124,2.124,0,0,0-1.428-.483,2.223,2.223,0,0,0-1.389.387,1.217,1.217,0,0,0-.5,1.011.986.986,0,0,0,.466.888,5.731,5.731,0,0,0,1.683.571,8.77,8.77,0,0,1,1.973.65,2.878,2.878,0,0,1,1.121.91,2.237,2.237,0,0,1,.365,1.3A2.434,2.434,0,0,1,47.5-.593a4.277,4.277,0,0,1-2.646.769,4.789,4.789,0,0,1-2.021-.4,3.288,3.288,0,0,1-1.375-1.129,2.722,2.722,0,0,1-.5-1.569h1.626a1.683,1.683,0,0,0,.655,1.3,2.54,2.54,0,0,0,1.613.479,2.622,2.622,0,0,0,1.481-.374A1.148,1.148,0,0,0,46.9-2.522Z" transform="translate(497 4829.5)" fill="#12263f"/><path d="M5.66-7.893l3.067-4.9h1.986L6.671-6.451,10.811,0h-2L5.66-4.992,2.5,0H.5L4.649-6.451.6-12.8H2.575ZM16.576-4.834a5.571,5.571,0,0,1,1.037-3.52,3.28,3.28,0,0,1,2.716-1.332,3.3,3.3,0,0,1,2.646,1.143V-13.5H24.6V0H23.106l-.079-1.02a3.311,3.311,0,0,1-2.716,1.2,3.248,3.248,0,0,1-2.694-1.354,5.634,5.634,0,0,1-1.042-3.533Zm1.626.185a4.218,4.218,0,0,0,.668,2.531,2.159,2.159,0,0,0,1.846.914,2.372,2.372,0,0,0,2.259-1.389V-6.961a2.39,2.39,0,0,0-2.241-1.345,2.17,2.17,0,0,0-1.863.923A4.644,4.644,0,0,0,18.2-4.649ZM28.89,0H27.255V-9.51H28.89Zm.018-13.491h1.969l-2.355,2.584h-1.31ZM37.441,0a3.416,3.416,0,0,1-.229-1A3.628,3.628,0,0,1,34.506.176,3.357,3.357,0,0,1,32.2-.62a2.573,2.573,0,0,1-.9-2.017,2.688,2.688,0,0,1,1.129-2.307A5.325,5.325,0,0,1,35.6-5.766h1.582v-.747a1.826,1.826,0,0,0-.51-1.358,2.049,2.049,0,0,0-1.5-.505,2.371,2.371,0,0,0-1.459.439,1.3,1.3,0,0,0-.589,1.063H31.491A2.244,2.244,0,0,1,32-8.249,3.449,3.449,0,0,1,33.368-9.3a4.613,4.613,0,0,1,1.9-.387,3.759,3.759,0,0,1,2.575.822A2.964,2.964,0,0,1,38.813-6.6v4.377a5.351,5.351,0,0,0,.334,2.083V0Zm-2.7-1.239a2.858,2.858,0,0,0,1.45-.4,2.392,2.392,0,0,0,.993-1.028V-4.614H35.912q-2.988,0-2.988,1.749a1.48,1.48,0,0,0,.51,1.2A1.959,1.959,0,0,0,34.743-1.239ZM46.9-2.522a1.2,1.2,0,0,0-.5-1.024,4.78,4.78,0,0,0-1.731-.628,8.186,8.186,0,0,1-1.96-.633,2.788,2.788,0,0,1-1.072-.879A2.1,2.1,0,0,1,41.291-6.9a2.467,2.467,0,0,1,.989-1.978,3.861,3.861,0,0,1,2.527-.809,3.974,3.974,0,0,1,2.624.835,2.652,2.652,0,0,1,1.006,2.136H46.8a1.468,1.468,0,0,0-.567-1.151,2.124,2.124,0,0,0-1.428-.483,2.223,2.223,0,0,0-1.389.387,1.217,1.217,0,0,0-.5,1.011.986.986,0,0,0,.466.888,5.731,5.731,0,0,0,1.683.571,8.77,8.77,0,0,1,1.973.65,2.878,2.878,0,0,1,1.121.91,2.237,2.237,0,0,1,.365,1.3A2.434,2.434,0,0,1,47.5-.593a4.277,4.277,0,0,1-2.646.769,4.789,4.789,0,0,1-2.021-.4,3.288,3.288,0,0,1-1.375-1.129,2.722,2.722,0,0,1-.5-1.569h1.626a1.683,1.683,0,0,0,.655,1.3,2.54,2.54,0,0,0,1.613.479,2.622,2.622,0,0,0,1.481-.374A1.148,1.148,0,0,0,46.9-2.522Z" transform="translate(497 4887.5)" fill="#12263f"/><path d="M5.66-7.893l3.067-4.9h1.986L6.671-6.451,10.811,0h-2L5.66-4.992,2.5,0H.5L4.649-6.451.6-12.8H2.575ZM16.576-4.834a5.571,5.571,0,0,1,1.037-3.52,3.28,3.28,0,0,1,2.716-1.332,3.3,3.3,0,0,1,2.646,1.143V-13.5H24.6V0H23.106l-.079-1.02a3.311,3.311,0,0,1-2.716,1.2,3.248,3.248,0,0,1-2.694-1.354,5.634,5.634,0,0,1-1.042-3.533Zm1.626.185a4.218,4.218,0,0,0,.668,2.531,2.159,2.159,0,0,0,1.846.914,2.372,2.372,0,0,0,2.259-1.389V-6.961a2.39,2.39,0,0,0-2.241-1.345,2.17,2.17,0,0,0-1.863.923A4.644,4.644,0,0,0,18.2-4.649ZM28.89,0H27.255V-9.51H28.89Zm.018-13.491h1.969l-2.355,2.584h-1.31ZM37.441,0a3.416,3.416,0,0,1-.229-1A3.628,3.628,0,0,1,34.506.176,3.357,3.357,0,0,1,32.2-.62a2.573,2.573,0,0,1-.9-2.017,2.688,2.688,0,0,1,1.129-2.307A5.325,5.325,0,0,1,35.6-5.766h1.582v-.747a1.826,1.826,0,0,0-.51-1.358,2.049,2.049,0,0,0-1.5-.505,2.371,2.371,0,0,0-1.459.439,1.3,1.3,0,0,0-.589,1.063H31.491A2.244,2.244,0,0,1,32-8.249,3.449,3.449,0,0,1,33.368-9.3a4.613,4.613,0,0,1,1.9-.387,3.759,3.759,0,0,1,2.575.822A2.964,2.964,0,0,1,38.813-6.6v4.377a5.351,5.351,0,0,0,.334,2.083V0Zm-2.7-1.239a2.858,2.858,0,0,0,1.45-.4,2.392,2.392,0,0,0,.993-1.028V-4.614H35.912q-2.988,0-2.988,1.749a1.48,1.48,0,0,0,.51,1.2A1.959,1.959,0,0,0,34.743-1.239ZM46.9-2.522a1.2,1.2,0,0,0-.5-1.024,4.78,4.78,0,0,0-1.731-.628,8.186,8.186,0,0,1-1.96-.633,2.788,2.788,0,0,1-1.072-.879A2.1,2.1,0,0,1,41.291-6.9a2.467,2.467,0,0,1,.989-1.978,3.861,3.861,0,0,1,2.527-.809,3.974,3.974,0,0,1,2.624.835,2.652,2.652,0,0,1,1.006,2.136H46.8a1.468,1.468,0,0,0-.567-1.151,2.124,2.124,0,0,0-1.428-.483,2.223,2.223,0,0,0-1.389.387,1.217,1.217,0,0,0-.5,1.011.986.986,0,0,0,.466.888,5.731,5.731,0,0,0,1.683.571,8.77,8.77,0,0,1,1.973.65,2.878,2.878,0,0,1,1.121.91,2.237,2.237,0,0,1,.365,1.3A2.434,2.434,0,0,1,47.5-.593a4.277,4.277,0,0,1-2.646.769,4.789,4.789,0,0,1-2.021-.4,3.288,3.288,0,0,1-1.375-1.129,2.722,2.722,0,0,1-.5-1.569h1.626a1.683,1.683,0,0,0,.655,1.3,2.54,2.54,0,0,0,1.613.479,2.622,2.622,0,0,0,1.481-.374A1.148,1.148,0,0,0,46.9-2.522Z" transform="translate(497 4949.5)" fill="#12263f"/><path d="M5.66-7.893l3.067-4.9h1.986L6.671-6.451,10.811,0h-2L5.66-4.992,2.5,0H.5L4.649-6.451.6-12.8H2.575ZM16.576-4.834a5.571,5.571,0,0,1,1.037-3.52,3.28,3.28,0,0,1,2.716-1.332,3.3,3.3,0,0,1,2.646,1.143V-13.5H24.6V0H23.106l-.079-1.02a3.311,3.311,0,0,1-2.716,1.2,3.248,3.248,0,0,1-2.694-1.354,5.634,5.634,0,0,1-1.042-3.533Zm1.626.185a4.218,4.218,0,0,0,.668,2.531,2.159,2.159,0,0,0,1.846.914,2.372,2.372,0,0,0,2.259-1.389V-6.961a2.39,2.39,0,0,0-2.241-1.345,2.17,2.17,0,0,0-1.863.923A4.644,4.644,0,0,0,18.2-4.649ZM28.89,0H27.255V-9.51H28.89Zm.018-13.491h1.969l-2.355,2.584h-1.31ZM37.441,0a3.416,3.416,0,0,1-.229-1A3.628,3.628,0,0,1,34.506.176,3.357,3.357,0,0,1,32.2-.62a2.573,2.573,0,0,1-.9-2.017,2.688,2.688,0,0,1,1.129-2.307A5.325,5.325,0,0,1,35.6-5.766h1.582v-.747a1.826,1.826,0,0,0-.51-1.358,2.049,2.049,0,0,0-1.5-.505,2.371,2.371,0,0,0-1.459.439,1.3,1.3,0,0,0-.589,1.063H31.491A2.244,2.244,0,0,1,32-8.249,3.449,3.449,0,0,1,33.368-9.3a4.613,4.613,0,0,1,1.9-.387,3.759,3.759,0,0,1,2.575.822A2.964,2.964,0,0,1,38.813-6.6v4.377a5.351,5.351,0,0,0,.334,2.083V0Zm-2.7-1.239a2.858,2.858,0,0,0,1.45-.4,2.392,2.392,0,0,0,.993-1.028V-4.614H35.912q-2.988,0-2.988,1.749a1.48,1.48,0,0,0,.51,1.2A1.959,1.959,0,0,0,34.743-1.239ZM46.9-2.522a1.2,1.2,0,0,0-.5-1.024,4.78,4.78,0,0,0-1.731-.628,8.186,8.186,0,0,1-1.96-.633,2.788,2.788,0,0,1-1.072-.879A2.1,2.1,0,0,1,41.291-6.9a2.467,2.467,0,0,1,.989-1.978,3.861,3.861,0,0,1,2.527-.809,3.974,3.974,0,0,1,2.624.835,2.652,2.652,0,0,1,1.006,2.136H46.8a1.468,1.468,0,0,0-.567-1.151,2.124,2.124,0,0,0-1.428-.483,2.223,2.223,0,0,0-1.389.387,1.217,1.217,0,0,0-.5,1.011.986.986,0,0,0,.466.888,5.731,5.731,0,0,0,1.683.571,8.77,8.77,0,0,1,1.973.65,2.878,2.878,0,0,1,1.121.91,2.237,2.237,0,0,1,.365,1.3A2.434,2.434,0,0,1,47.5-.593a4.277,4.277,0,0,1-2.646.769,4.789,4.789,0,0,1-2.021-.4,3.288,3.288,0,0,1-1.375-1.129,2.722,2.722,0,0,1-.5-1.569h1.626a1.683,1.683,0,0,0,.655,1.3,2.54,2.54,0,0,0,1.613.479,2.622,2.622,0,0,0,1.481-.374A1.148,1.148,0,0,0,46.9-2.522Z" transform="translate(497 5007.5)" fill="#12263f"/><path d="M5.66-7.893l3.067-4.9h1.986L6.671-6.451,10.811,0h-2L5.66-4.992,2.5,0H.5L4.649-6.451.6-12.8H2.575ZM16.576-4.834a5.571,5.571,0,0,1,1.037-3.52,3.28,3.28,0,0,1,2.716-1.332,3.3,3.3,0,0,1,2.646,1.143V-13.5H24.6V0H23.106l-.079-1.02a3.311,3.311,0,0,1-2.716,1.2,3.248,3.248,0,0,1-2.694-1.354,5.634,5.634,0,0,1-1.042-3.533Zm1.626.185a4.218,4.218,0,0,0,.668,2.531,2.159,2.159,0,0,0,1.846.914,2.372,2.372,0,0,0,2.259-1.389V-6.961a2.39,2.39,0,0,0-2.241-1.345,2.17,2.17,0,0,0-1.863.923A4.644,4.644,0,0,0,18.2-4.649ZM28.89,0H27.255V-9.51H28.89Zm.018-13.491h1.969l-2.355,2.584h-1.31ZM37.441,0a3.416,3.416,0,0,1-.229-1A3.628,3.628,0,0,1,34.506.176,3.357,3.357,0,0,1,32.2-.62a2.573,2.573,0,0,1-.9-2.017,2.688,2.688,0,0,1,1.129-2.307A5.325,5.325,0,0,1,35.6-5.766h1.582v-.747a1.826,1.826,0,0,0-.51-1.358,2.049,2.049,0,0,0-1.5-.505,2.371,2.371,0,0,0-1.459.439,1.3,1.3,0,0,0-.589,1.063H31.491A2.244,2.244,0,0,1,32-8.249,3.449,3.449,0,0,1,33.368-9.3a4.613,4.613,0,0,1,1.9-.387,3.759,3.759,0,0,1,2.575.822A2.964,2.964,0,0,1,38.813-6.6v4.377a5.351,5.351,0,0,0,.334,2.083V0Zm-2.7-1.239a2.858,2.858,0,0,0,1.45-.4,2.392,2.392,0,0,0,.993-1.028V-4.614H35.912q-2.988,0-2.988,1.749a1.48,1.48,0,0,0,.51,1.2A1.959,1.959,0,0,0,34.743-1.239ZM46.9-2.522a1.2,1.2,0,0,0-.5-1.024,4.78,4.78,0,0,0-1.731-.628,8.186,8.186,0,0,1-1.96-.633,2.788,2.788,0,0,1-1.072-.879A2.1,2.1,0,0,1,41.291-6.9a2.467,2.467,0,0,1,.989-1.978,3.861,3.861,0,0,1,2.527-.809,3.974,3.974,0,0,1,2.624.835,2.652,2.652,0,0,1,1.006,2.136H46.8a1.468,1.468,0,0,0-.567-1.151,2.124,2.124,0,0,0-1.428-.483,2.223,2.223,0,0,0-1.389.387,1.217,1.217,0,0,0-.5,1.011.986.986,0,0,0,.466.888,5.731,5.731,0,0,0,1.683.571,8.77,8.77,0,0,1,1.973.65,2.878,2.878,0,0,1,1.121.91,2.237,2.237,0,0,1,.365,1.3A2.434,2.434,0,0,1,47.5-.593a4.277,4.277,0,0,1-2.646.769,4.789,4.789,0,0,1-2.021-.4,3.288,3.288,0,0,1-1.375-1.129,2.722,2.722,0,0,1-.5-1.569h1.626a1.683,1.683,0,0,0,.655,1.3,2.54,2.54,0,0,0,1.613.479,2.622,2.622,0,0,0,1.481-.374A1.148,1.148,0,0,0,46.9-2.522Z" transform="translate(497 5061.5)" fill="#12263f"/><path d="M5.66-7.893l3.067-4.9h1.986L6.671-6.451,10.811,0h-2L5.66-4.992,2.5,0H.5L4.649-6.451.6-12.8H2.575ZM16.576-4.834a5.571,5.571,0,0,1,1.037-3.52,3.28,3.28,0,0,1,2.716-1.332,3.3,3.3,0,0,1,2.646,1.143V-13.5H24.6V0H23.106l-.079-1.02a3.311,3.311,0,0,1-2.716,1.2,3.248,3.248,0,0,1-2.694-1.354,5.634,5.634,0,0,1-1.042-3.533Zm1.626.185a4.218,4.218,0,0,0,.668,2.531,2.159,2.159,0,0,0,1.846.914,2.372,2.372,0,0,0,2.259-1.389V-6.961a2.39,2.39,0,0,0-2.241-1.345,2.17,2.17,0,0,0-1.863.923A4.644,4.644,0,0,0,18.2-4.649ZM28.89,0H27.255V-9.51H28.89Zm.018-13.491h1.969l-2.355,2.584h-1.31ZM37.441,0a3.416,3.416,0,0,1-.229-1A3.628,3.628,0,0,1,34.506.176,3.357,3.357,0,0,1,32.2-.62a2.573,2.573,0,0,1-.9-2.017,2.688,2.688,0,0,1,1.129-2.307A5.325,5.325,0,0,1,35.6-5.766h1.582v-.747a1.826,1.826,0,0,0-.51-1.358,2.049,2.049,0,0,0-1.5-.505,2.371,2.371,0,0,0-1.459.439,1.3,1.3,0,0,0-.589,1.063H31.491A2.244,2.244,0,0,1,32-8.249,3.449,3.449,0,0,1,33.368-9.3a4.613,4.613,0,0,1,1.9-.387,3.759,3.759,0,0,1,2.575.822A2.964,2.964,0,0,1,38.813-6.6v4.377a5.351,5.351,0,0,0,.334,2.083V0Zm-2.7-1.239a2.858,2.858,0,0,0,1.45-.4,2.392,2.392,0,0,0,.993-1.028V-4.614H35.912q-2.988,0-2.988,1.749a1.48,1.48,0,0,0,.51,1.2A1.959,1.959,0,0,0,34.743-1.239ZM46.9-2.522a1.2,1.2,0,0,0-.5-1.024,4.78,4.78,0,0,0-1.731-.628,8.186,8.186,0,0,1-1.96-.633,2.788,2.788,0,0,1-1.072-.879A2.1,2.1,0,0,1,41.291-6.9a2.467,2.467,0,0,1,.989-1.978,3.861,3.861,0,0,1,2.527-.809,3.974,3.974,0,0,1,2.624.835,2.652,2.652,0,0,1,1.006,2.136H46.8a1.468,1.468,0,0,0-.567-1.151,2.124,2.124,0,0,0-1.428-.483,2.223,2.223,0,0,0-1.389.387,1.217,1.217,0,0,0-.5,1.011.986.986,0,0,0,.466.888,5.731,5.731,0,0,0,1.683.571,8.77,8.77,0,0,1,1.973.65,2.878,2.878,0,0,1,1.121.91,2.237,2.237,0,0,1,.365,1.3A2.434,2.434,0,0,1,47.5-.593a4.277,4.277,0,0,1-2.646.769,4.789,4.789,0,0,1-2.021-.4,3.288,3.288,0,0,1-1.375-1.129,2.722,2.722,0,0,1-.5-1.569h1.626a1.683,1.683,0,0,0,.655,1.3,2.54,2.54,0,0,0,1.613.479,2.622,2.622,0,0,0,1.481-.374A1.148,1.148,0,0,0,46.9-2.522Z" transform="translate(497 5119.5)" fill="#12263f"/><path d="M5.66-7.893l3.067-4.9h1.986L6.671-6.451,10.811,0h-2L5.66-4.992,2.5,0H.5L4.649-6.451.6-12.8H2.575ZM16.576-4.834a5.571,5.571,0,0,1,1.037-3.52,3.28,3.28,0,0,1,2.716-1.332,3.3,3.3,0,0,1,2.646,1.143V-13.5H24.6V0H23.106l-.079-1.02a3.311,3.311,0,0,1-2.716,1.2,3.248,3.248,0,0,1-2.694-1.354,5.634,5.634,0,0,1-1.042-3.533Zm1.626.185a4.218,4.218,0,0,0,.668,2.531,2.159,2.159,0,0,0,1.846.914,2.372,2.372,0,0,0,2.259-1.389V-6.961a2.39,2.39,0,0,0-2.241-1.345,2.17,2.17,0,0,0-1.863.923A4.644,4.644,0,0,0,18.2-4.649ZM28.89,0H27.255V-9.51H28.89Zm.018-13.491h1.969l-2.355,2.584h-1.31ZM37.441,0a3.416,3.416,0,0,1-.229-1A3.628,3.628,0,0,1,34.506.176,3.357,3.357,0,0,1,32.2-.62a2.573,2.573,0,0,1-.9-2.017,2.688,2.688,0,0,1,1.129-2.307A5.325,5.325,0,0,1,35.6-5.766h1.582v-.747a1.826,1.826,0,0,0-.51-1.358,2.049,2.049,0,0,0-1.5-.505,2.371,2.371,0,0,0-1.459.439,1.3,1.3,0,0,0-.589,1.063H31.491A2.244,2.244,0,0,1,32-8.249,3.449,3.449,0,0,1,33.368-9.3a4.613,4.613,0,0,1,1.9-.387,3.759,3.759,0,0,1,2.575.822A2.964,2.964,0,0,1,38.813-6.6v4.377a5.351,5.351,0,0,0,.334,2.083V0Zm-2.7-1.239a2.858,2.858,0,0,0,1.45-.4,2.392,2.392,0,0,0,.993-1.028V-4.614H35.912q-2.988,0-2.988,1.749a1.48,1.48,0,0,0,.51,1.2A1.959,1.959,0,0,0,34.743-1.239ZM46.9-2.522a1.2,1.2,0,0,0-.5-1.024,4.78,4.78,0,0,0-1.731-.628,8.186,8.186,0,0,1-1.96-.633,2.788,2.788,0,0,1-1.072-.879A2.1,2.1,0,0,1,41.291-6.9a2.467,2.467,0,0,1,.989-1.978,3.861,3.861,0,0,1,2.527-.809,3.974,3.974,0,0,1,2.624.835,2.652,2.652,0,0,1,1.006,2.136H46.8a1.468,1.468,0,0,0-.567-1.151,2.124,2.124,0,0,0-1.428-.483,2.223,2.223,0,0,0-1.389.387,1.217,1.217,0,0,0-.5,1.011.986.986,0,0,0,.466.888,5.731,5.731,0,0,0,1.683.571,8.77,8.77,0,0,1,1.973.65,2.878,2.878,0,0,1,1.121.91,2.237,2.237,0,0,1,.365,1.3A2.434,2.434,0,0,1,47.5-.593a4.277,4.277,0,0,1-2.646.769,4.789,4.789,0,0,1-2.021-.4,3.288,3.288,0,0,1-1.375-1.129,2.722,2.722,0,0,1-.5-1.569h1.626a1.683,1.683,0,0,0,.655,1.3,2.54,2.54,0,0,0,1.613.479,2.622,2.622,0,0,0,1.481-.374A1.148,1.148,0,0,0,46.9-2.522Z" transform="translate(497 5181.5)" fill="#12263f"/><path d="M5.66-7.893l3.067-4.9h1.986L6.671-6.451,10.811,0h-2L5.66-4.992,2.5,0H.5L4.649-6.451.6-12.8H2.575ZM16.576-4.834a5.571,5.571,0,0,1,1.037-3.52,3.28,3.28,0,0,1,2.716-1.332,3.3,3.3,0,0,1,2.646,1.143V-13.5H24.6V0H23.106l-.079-1.02a3.311,3.311,0,0,1-2.716,1.2,3.248,3.248,0,0,1-2.694-1.354,5.634,5.634,0,0,1-1.042-3.533Zm1.626.185a4.218,4.218,0,0,0,.668,2.531,2.159,2.159,0,0,0,1.846.914,2.372,2.372,0,0,0,2.259-1.389V-6.961a2.39,2.39,0,0,0-2.241-1.345,2.17,2.17,0,0,0-1.863.923A4.644,4.644,0,0,0,18.2-4.649ZM28.89,0H27.255V-9.51H28.89Zm.018-13.491h1.969l-2.355,2.584h-1.31ZM37.441,0a3.416,3.416,0,0,1-.229-1A3.628,3.628,0,0,1,34.506.176,3.357,3.357,0,0,1,32.2-.62a2.573,2.573,0,0,1-.9-2.017,2.688,2.688,0,0,1,1.129-2.307A5.325,5.325,0,0,1,35.6-5.766h1.582v-.747a1.826,1.826,0,0,0-.51-1.358,2.049,2.049,0,0,0-1.5-.505,2.371,2.371,0,0,0-1.459.439,1.3,1.3,0,0,0-.589,1.063H31.491A2.244,2.244,0,0,1,32-8.249,3.449,3.449,0,0,1,33.368-9.3a4.613,4.613,0,0,1,1.9-.387,3.759,3.759,0,0,1,2.575.822A2.964,2.964,0,0,1,38.813-6.6v4.377a5.351,5.351,0,0,0,.334,2.083V0Zm-2.7-1.239a2.858,2.858,0,0,0,1.45-.4,2.392,2.392,0,0,0,.993-1.028V-4.614H35.912q-2.988,0-2.988,1.749a1.48,1.48,0,0,0,.51,1.2A1.959,1.959,0,0,0,34.743-1.239ZM46.9-2.522a1.2,1.2,0,0,0-.5-1.024,4.78,4.78,0,0,0-1.731-.628,8.186,8.186,0,0,1-1.96-.633,2.788,2.788,0,0,1-1.072-.879A2.1,2.1,0,0,1,41.291-6.9a2.467,2.467,0,0,1,.989-1.978,3.861,3.861,0,0,1,2.527-.809,3.974,3.974,0,0,1,2.624.835,2.652,2.652,0,0,1,1.006,2.136H46.8a1.468,1.468,0,0,0-.567-1.151,2.124,2.124,0,0,0-1.428-.483,2.223,2.223,0,0,0-1.389.387,1.217,1.217,0,0,0-.5,1.011.986.986,0,0,0,.466.888,5.731,5.731,0,0,0,1.683.571,8.77,8.77,0,0,1,1.973.65,2.878,2.878,0,0,1,1.121.91,2.237,2.237,0,0,1,.365,1.3A2.434,2.434,0,0,1,47.5-.593a4.277,4.277,0,0,1-2.646.769,4.789,4.789,0,0,1-2.021-.4,3.288,3.288,0,0,1-1.375-1.129,2.722,2.722,0,0,1-.5-1.569h1.626a1.683,1.683,0,0,0,.655,1.3,2.54,2.54,0,0,0,1.613.479,2.622,2.622,0,0,0,1.481-.374A1.148,1.148,0,0,0,46.9-2.522Z" transform="translate(497 5239.5)" fill="#12263f"/><g transform="translate(580 4803)" fill="#b7eaa8" stroke="#006cff" stroke-width="1"><rect width="294" height="40" stroke="none"/><rect x="0.5" y="0.5" width="293" height="39" fill="none"/></g><g transform="translate(646 4862)" fill="#b7eaa8" stroke="#006cff" stroke-width="1"><rect width="104" height="40" stroke="none"/><rect x="0.5" y="0.5" width="103" height="39" fill="none"/></g><g transform="translate(719 4921)" fill="#b7eaa8" stroke="#006cff" stroke-width="1"><rect width="184" height="40" stroke="none"/><rect x="0.5" y="0.5" width="183" height="39" fill="none"/></g><g transform="translate(776 4978)" fill="#b7eaa8" stroke="#006cff" stroke-width="1"><rect width="235" height="40" stroke="none"/><rect x="0.5" y="0.5" width="234" height="39" fill="none"/></g><g transform="translate(1020 4978)" fill="#a8e0ea" stroke="#006cff" stroke-width="1"><rect width="167" height="40" stroke="none"/><rect x="0.5" y="0.5" width="166" height="39" fill="none"/></g><g transform="translate(1037 5037)" fill="#fff79b" stroke="#006cff" stroke-width="1"><rect width="219" height="40" stroke="none"/><rect x="0.5" y="0.5" width="218" height="39" fill="none"/></g><g transform="translate(1056 5096)" fill="#fff79b" stroke="#006cff" stroke-width="1"><rect width="126" height="40" stroke="none"/><rect x="0.5" y="0.5" width="125" height="39" fill="none"/></g><g transform="translate(1083 5155)" fill="#fff79b" stroke="#006cff" stroke-width="1"><rect width="228" height="40" stroke="none"/><rect x="0.5" y="0.5" width="227" height="39" fill="none"/></g><g transform="translate(1199 5214)" fill="#fff79b" stroke="#006cff" stroke-width="1"><rect width="127" height="40" stroke="none"/><rect x="0.5" y="0.5" width="126" height="39" fill="none"/></g><rect width="150" height="41" transform="translate(422 5308)" fill="#b7eaa8"/><rect width="150" height="41" transform="translate(592 5308)" fill="#a8e0ea"/><rect width="150" height="41" transform="translate(762 5308)" fill="#fff79b"/><rect width="150" height="41" transform="translate(937 5308)" fill="#ffb093"/><path d="M-3709-6986v496.333" transform="translate(4720 11780)" fill="none" stroke="#006cff" stroke-width="3"/><path d="M11,0,22,19H0Z" transform="translate(1022 5303) rotate(180)" fill="#006cff"/><path d="M-4242-6980.812v-31.27h848.6v31.27" transform="translate(4719 11710)" fill="none" stroke="#3d8efc" stroke-width="2"/><circle cx="16" cy="16" r="16" transform="translate(617 4682)" fill="#006cff"/><circle cx="7" cy="7" r="7" transform="translate(626 4691)" fill="#b1d2ff"/><path d="M-4242-6980.812v-31.27h410v31.27" transform="translate(7268.447 1019) rotate(-90)" fill="none" stroke="#006cff" stroke-width="2"/><g transform="translate(-377 332)"><circle cx="16" cy="16" r="16" transform="translate(617 4682)" fill="#006cff"/><circle cx="7" cy="7" r="7" transform="translate(626 4691)" fill="#b1d2ff"/></g><g transform="translate(378 421)"><circle cx="16" cy="16" r="16" transform="translate(617 4682)" fill="#006cff"/><circle cx="7" cy="7" r="7" transform="translate(626 4691)" fill="#b1d2ff"/></g><g transform="translate(61 125)"><circle cx="16" cy="16" r="16" transform="translate(617 4682)" fill="#006cff"/><circle cx="7" cy="7" r="7" transform="translate(626 4691)" fill="#b1d2ff"/></g><g transform="translate(315 36)"><circle cx="16" cy="16" r="16" transform="translate(617 4682)" fill="#006cff"/><circle cx="7" cy="7" r="7" transform="translate(626 4691)" fill="#b1d2ff"/></g><path d="M10.9-4.061A4.708,4.708,0,0,1,9.4-.927,4.911,4.911,0,0,1,6.047.176,4.509,4.509,0,0,1,2.413-1.45,6.542,6.542,0,0,1,1.046-5.8v-1.23a7.291,7.291,0,0,1,.637-3.138,4.76,4.76,0,0,1,1.806-2.079A5.029,5.029,0,0,1,6.2-12.973a4.624,4.624,0,0,1,3.27,1.138A4.765,4.765,0,0,1,10.9-8.684H9.2A3.66,3.66,0,0,0,8.249-10.9,2.891,2.891,0,0,0,6.2-11.584a3.02,3.02,0,0,0-2.536,1.2,5.484,5.484,0,0,0-.918,3.4v1.239a5.637,5.637,0,0,0,.87,3.313A2.812,2.812,0,0,0,6.047-1.2,3.247,3.247,0,0,0,8.2-1.841a3.536,3.536,0,0,0,1-2.219Zm1.617-.782a5.617,5.617,0,0,1,.549-2.514,4.1,4.1,0,0,1,1.529-1.723,4.163,4.163,0,0,1,2.237-.606,4.01,4.01,0,0,1,3.142,1.345,5.174,5.174,0,0,1,1.2,3.577v.114a5.666,5.666,0,0,1-.532,2.492A4.038,4.038,0,0,1,19.121-.439a4.211,4.211,0,0,1-2.272.615,4,4,0,0,1-3.133-1.345,5.147,5.147,0,0,1-1.2-3.56Zm1.635.193a4.068,4.068,0,0,0,.734,2.54,2.349,2.349,0,0,0,1.964.958,2.335,2.335,0,0,0,1.969-.971,4.449,4.449,0,0,0,.729-2.72A4.061,4.061,0,0,0,18.8-7.378a2.361,2.361,0,0,0-1.973-.971,2.335,2.335,0,0,0-1.942.958A4.416,4.416,0,0,0,14.15-4.649ZM24.741-9.51l.044,1.055a3.512,3.512,0,0,1,2.821-1.23,2.719,2.719,0,0,1,2.716,1.529,3.6,3.6,0,0,1,1.235-1.107,3.647,3.647,0,0,1,1.8-.422q3.129,0,3.182,3.313V0H34.91V-6.275A2.184,2.184,0,0,0,34.444-7.8a2.051,2.051,0,0,0-1.564-.505,2.156,2.156,0,0,0-1.5.541,2.193,2.193,0,0,0-.694,1.455V0H29.048V-6.231a1.814,1.814,0,0,0-2.03-2.074,2.175,2.175,0,0,0-2.188,1.362V0H23.2V-9.51Zm22.28,4.86a5.694,5.694,0,0,1-.993,3.5A3.183,3.183,0,0,1,43.339.176a3.488,3.488,0,0,1-2.725-1.1V3.656H38.988V-9.51h1.485l.079,1.055a3.35,3.35,0,0,1,2.76-1.23,3.243,3.243,0,0,1,2.711,1.292,5.756,5.756,0,0,1,1,3.595ZM45.4-4.834a4.2,4.2,0,0,0-.686-2.54,2.208,2.208,0,0,0-1.881-.932A2.39,2.39,0,0,0,40.614-7v4.544a2.4,2.4,0,0,0,2.232,1.3,2.2,2.2,0,0,0,1.859-.927A4.587,4.587,0,0,0,45.4-4.834ZM50.854,0H49.228V-13.5h1.626ZM57.4.176a4.155,4.155,0,0,1-3.146-1.27,4.714,4.714,0,0,1-1.213-3.4v-.3a5.707,5.707,0,0,1,.541-2.527,4.217,4.217,0,0,1,1.512-1.74,3.8,3.8,0,0,1,2.1-.628,3.562,3.562,0,0,1,2.883,1.222,5.289,5.289,0,0,1,1.028,3.5v.677H54.668a3.38,3.38,0,0,0,.822,2.272,2.583,2.583,0,0,0,2,.866A2.832,2.832,0,0,0,58.948-1.5a3.666,3.666,0,0,0,1.046-.932l.993.773A3.993,3.993,0,0,1,57.4.176ZM57.2-8.35a2.169,2.169,0,0,0-1.652.716,3.482,3.482,0,0,0-.826,2.008h4.764v-.123a3.1,3.1,0,0,0-.668-1.92A2.042,2.042,0,0,0,57.2-8.35Zm8-3.463v2.3h1.775v1.257H65.2v5.9a1.317,1.317,0,0,0,.237.857,1,1,0,0,0,.809.286,3.937,3.937,0,0,0,.773-.105V0a4.714,4.714,0,0,1-1.248.176,2.025,2.025,0,0,1-1.644-.659,2.832,2.832,0,0,1-.554-1.872v-5.9H61.84V-9.51h1.731v-2.3Zm3.067,6.97a5.617,5.617,0,0,1,.549-2.514,4.1,4.1,0,0,1,1.529-1.723,4.163,4.163,0,0,1,2.237-.606,4.01,4.01,0,0,1,3.142,1.345,5.174,5.174,0,0,1,1.2,3.577v.114a5.666,5.666,0,0,1-.532,2.492A4.038,4.038,0,0,1,74.87-.439,4.211,4.211,0,0,1,72.6.176a4,4,0,0,1-3.133-1.345,5.147,5.147,0,0,1-1.2-3.56Zm1.635.193a4.068,4.068,0,0,0,.734,2.54,2.349,2.349,0,0,0,1.964.958,2.335,2.335,0,0,0,1.969-.971,4.449,4.449,0,0,0,.729-2.72,4.061,4.061,0,0,0-.743-2.536A2.361,2.361,0,0,0,72.58-8.35a2.335,2.335,0,0,0-1.942.958A4.416,4.416,0,0,0,69.9-4.649Z" transform="translate(460 5335)" fill="#12263f"/><path d="M3.3,0H1.608V-12.8H3.3ZM7.664-9.51l.053,1.2a3.465,3.465,0,0,1,2.848-1.371q3.015,0,3.041,3.4V0H11.979V-6.293a2.189,2.189,0,0,0-.47-1.521,1.884,1.884,0,0,0-1.437-.492,2.347,2.347,0,0,0-1.389.422,2.865,2.865,0,0,0-.932,1.107V0H6.126V-9.51ZM19.872-1.151a2.342,2.342,0,0,0,1.521-.527A1.855,1.855,0,0,0,22.113-3h1.538a2.949,2.949,0,0,1-.562,1.556A3.7,3.7,0,0,1,21.7-.264a3.994,3.994,0,0,1-1.833.439,3.918,3.918,0,0,1-3.089-1.3,5.163,5.163,0,0,1-1.147-3.546v-.272a5.725,5.725,0,0,1,.51-2.47,3.883,3.883,0,0,1,1.463-1.679,4.157,4.157,0,0,1,2.254-.6,3.814,3.814,0,0,1,2.659.958A3.424,3.424,0,0,1,23.651-6.24H22.113a2.241,2.241,0,0,0-.7-1.516,2.174,2.174,0,0,0-1.551-.593,2.276,2.276,0,0,0-1.92.892,4.19,4.19,0,0,0-.681,2.58v.308a4.106,4.106,0,0,0,.677,2.531A2.287,2.287,0,0,0,19.872-1.151Zm5.177-3.691A5.617,5.617,0,0,1,25.6-7.356a4.1,4.1,0,0,1,1.529-1.723,4.163,4.163,0,0,1,2.237-.606,4.01,4.01,0,0,1,3.142,1.345,5.174,5.174,0,0,1,1.2,3.577v.114a5.666,5.666,0,0,1-.532,2.492A4.038,4.038,0,0,1,31.654-.439a4.211,4.211,0,0,1-2.272.615,4,4,0,0,1-3.133-1.345,5.147,5.147,0,0,1-1.2-3.56Zm1.635.193a4.068,4.068,0,0,0,.734,2.54,2.349,2.349,0,0,0,1.964.958,2.335,2.335,0,0,0,1.969-.971,4.449,4.449,0,0,0,.729-2.72,4.061,4.061,0,0,0-.743-2.536,2.361,2.361,0,0,0-1.973-.971,2.335,2.335,0,0,0-1.942.958A4.416,4.416,0,0,0,26.684-4.649ZM37.274-9.51l.044,1.055a3.512,3.512,0,0,1,2.821-1.23,2.719,2.719,0,0,1,2.716,1.529A3.6,3.6,0,0,1,44.09-9.264a3.647,3.647,0,0,1,1.8-.422q3.129,0,3.182,3.313V0H47.443V-6.275A2.184,2.184,0,0,0,46.978-7.8a2.051,2.051,0,0,0-1.564-.505,2.156,2.156,0,0,0-1.5.541,2.193,2.193,0,0,0-.694,1.455V0H41.581V-6.231a1.814,1.814,0,0,0-2.03-2.074,2.175,2.175,0,0,0-2.188,1.362V0H35.736V-9.51Zm22.28,4.86a5.694,5.694,0,0,1-.993,3.5A3.183,3.183,0,0,1,55.872.176a3.488,3.488,0,0,1-2.725-1.1V3.656H51.521V-9.51h1.485l.079,1.055a3.35,3.35,0,0,1,2.76-1.23,3.243,3.243,0,0,1,2.711,1.292,5.756,5.756,0,0,1,1,3.595Zm-1.626-.185a4.2,4.2,0,0,0-.686-2.54,2.208,2.208,0,0,0-1.881-.932A2.39,2.39,0,0,0,53.147-7v4.544a2.4,2.4,0,0,0,2.232,1.3,2.2,2.2,0,0,0,1.859-.927A4.587,4.587,0,0,0,57.929-4.834ZM63.387,0H61.761V-13.5h1.626Zm6.548.176a4.155,4.155,0,0,1-3.146-1.27,4.714,4.714,0,0,1-1.213-3.4v-.3a5.707,5.707,0,0,1,.541-2.527,4.217,4.217,0,0,1,1.512-1.74,3.8,3.8,0,0,1,2.1-.628,3.562,3.562,0,0,1,2.883,1.222,5.289,5.289,0,0,1,1.028,3.5v.677H67.2a3.38,3.38,0,0,0,.822,2.272,2.583,2.583,0,0,0,2,.866A2.832,2.832,0,0,0,71.481-1.5a3.666,3.666,0,0,0,1.046-.932l.993.773A3.993,3.993,0,0,1,69.935.176Zm-.2-8.525a2.169,2.169,0,0,0-1.652.716,3.482,3.482,0,0,0-.826,2.008h4.764v-.123a3.1,3.1,0,0,0-.668-1.92A2.042,2.042,0,0,0,69.732-8.35Zm8-3.463v2.3h1.775v1.257H77.73v5.9a1.317,1.317,0,0,0,.237.857,1,1,0,0,0,.809.286,3.937,3.937,0,0,0,.773-.105V0A4.714,4.714,0,0,1,78.3.176a2.025,2.025,0,0,1-1.644-.659A2.832,2.832,0,0,1,76.1-2.355v-5.9H74.373V-9.51H76.1v-2.3ZM80.8-4.843a5.617,5.617,0,0,1,.549-2.514,4.1,4.1,0,0,1,1.529-1.723,4.163,4.163,0,0,1,2.237-.606,4.01,4.01,0,0,1,3.142,1.345,5.174,5.174,0,0,1,1.2,3.577v.114a5.666,5.666,0,0,1-.532,2.492A4.038,4.038,0,0,1,87.4-.439a4.211,4.211,0,0,1-2.272.615A4,4,0,0,1,82-1.169a5.147,5.147,0,0,1-1.2-3.56Zm1.635.193a4.068,4.068,0,0,0,.734,2.54,2.349,2.349,0,0,0,1.964.958A2.335,2.335,0,0,0,87.1-2.123a4.449,4.449,0,0,0,.729-2.72,4.061,4.061,0,0,0-.743-2.536,2.361,2.361,0,0,0-1.973-.971,2.335,2.335,0,0,0-1.942.958A4.416,4.416,0,0,0,82.433-4.649Z" transform="translate(622 5335)" fill="#12263f"/><path d="M11.32,0h-1.7L3.182-9.861V0h-1.7V-12.8h1.7l6.46,9.905V-12.8H11.32Zm2.312-4.843a5.617,5.617,0,0,1,.549-2.514A4.1,4.1,0,0,1,15.71-9.079a4.163,4.163,0,0,1,2.237-.606,4.01,4.01,0,0,1,3.142,1.345,5.174,5.174,0,0,1,1.2,3.577v.114a5.666,5.666,0,0,1-.532,2.492A4.038,4.038,0,0,1,20.237-.439a4.211,4.211,0,0,1-2.272.615,4,4,0,0,1-3.133-1.345,5.147,5.147,0,0,1-1.2-3.56Zm1.635.193A4.068,4.068,0,0,0,16-2.109a2.349,2.349,0,0,0,1.964.958,2.335,2.335,0,0,0,1.969-.971,4.449,4.449,0,0,0,.729-2.72,4.061,4.061,0,0,0-.743-2.536,2.361,2.361,0,0,0-1.973-.971A2.335,2.335,0,0,0,16-7.392,4.416,4.416,0,0,0,15.267-4.649ZM30.551,0H28.925V-9.51h1.626ZM28.793-12.032a.971.971,0,0,1,.242-.668.907.907,0,0,1,.716-.272.922.922,0,0,1,.721.272.96.96,0,0,1,.246.668.929.929,0,0,1-.246.659.938.938,0,0,1-.721.264.924.924,0,0,1-.716-.264A.938.938,0,0,1,28.793-12.032Zm5.9,2.522.053,1.2a3.465,3.465,0,0,1,2.848-1.371q3.015,0,3.041,3.4V0H39.006V-6.293a2.189,2.189,0,0,0-.47-1.521A1.884,1.884,0,0,0,37.1-8.306a2.347,2.347,0,0,0-1.389.422,2.865,2.865,0,0,0-.932,1.107V0H33.152V-9.51ZM44.851,0H43.225V-9.51h1.626ZM43.093-12.032a.971.971,0,0,1,.242-.668.907.907,0,0,1,.716-.272.922.922,0,0,1,.721.272.96.96,0,0,1,.246.668.929.929,0,0,1-.246.659.938.938,0,0,1-.721.264.924.924,0,0,1-.716-.264A.938.938,0,0,1,43.093-12.032ZM51.267-1.151a2.342,2.342,0,0,0,1.521-.527A1.855,1.855,0,0,0,53.508-3h1.538a2.949,2.949,0,0,1-.562,1.556A3.7,3.7,0,0,1,53.1-.264a3.994,3.994,0,0,1-1.833.439,3.918,3.918,0,0,1-3.089-1.3A5.163,5.163,0,0,1,47.03-4.667v-.272a5.725,5.725,0,0,1,.51-2.47A3.883,3.883,0,0,1,49-9.088a4.157,4.157,0,0,1,2.254-.6,3.814,3.814,0,0,1,2.659.958A3.424,3.424,0,0,1,55.046-6.24H53.508a2.241,2.241,0,0,0-.7-1.516,2.174,2.174,0,0,0-1.551-.593,2.276,2.276,0,0,0-1.92.892,4.19,4.19,0,0,0-.681,2.58v.308a4.106,4.106,0,0,0,.677,2.531A2.287,2.287,0,0,0,51.267-1.151ZM58.641,0H57.015V-9.51h1.626ZM56.883-12.032a.971.971,0,0,1,.242-.668.907.907,0,0,1,.716-.272.922.922,0,0,1,.721.272.96.96,0,0,1,.246.668.929.929,0,0,1-.246.659.938.938,0,0,1-.721.264.924.924,0,0,1-.716-.264A.938.938,0,0,1,56.883-12.032ZM67.113,0a3.416,3.416,0,0,1-.229-1A3.628,3.628,0,0,1,64.178.176a3.357,3.357,0,0,1-2.307-.8,2.573,2.573,0,0,1-.9-2.017A2.688,2.688,0,0,1,62.1-4.944a5.325,5.325,0,0,1,3.177-.822h1.582v-.747a1.826,1.826,0,0,0-.51-1.358,2.049,2.049,0,0,0-1.5-.505,2.371,2.371,0,0,0-1.459.439A1.3,1.3,0,0,0,62.8-6.873H61.163a2.244,2.244,0,0,1,.505-1.375A3.449,3.449,0,0,1,63.04-9.3a4.613,4.613,0,0,1,1.9-.387,3.759,3.759,0,0,1,2.575.822A2.964,2.964,0,0,1,68.484-6.6v4.377a5.351,5.351,0,0,0,.334,2.083V0Zm-2.7-1.239a2.858,2.858,0,0,0,1.45-.4,2.392,2.392,0,0,0,.993-1.028V-4.614H65.584q-2.988,0-2.988,1.749a1.48,1.48,0,0,0,.51,1.2A1.959,1.959,0,0,0,64.415-1.239Zm6.223-3.595a5.571,5.571,0,0,1,1.037-3.52,3.28,3.28,0,0,1,2.716-1.332,3.3,3.3,0,0,1,2.646,1.143V-13.5h1.626V0H77.168l-.079-1.02a3.311,3.311,0,0,1-2.716,1.2,3.248,3.248,0,0,1-2.694-1.354,5.634,5.634,0,0,1-1.042-3.533Zm1.626.185a4.218,4.218,0,0,0,.668,2.531,2.159,2.159,0,0,0,1.846.914,2.372,2.372,0,0,0,2.259-1.389V-6.961a2.39,2.39,0,0,0-2.241-1.345,2.17,2.17,0,0,0-1.863.923A4.644,4.644,0,0,0,72.264-4.649Zm8.49-.193A5.617,5.617,0,0,1,81.3-7.356a4.1,4.1,0,0,1,1.529-1.723,4.163,4.163,0,0,1,2.237-.606,4.01,4.01,0,0,1,3.142,1.345,5.174,5.174,0,0,1,1.2,3.577v.114a5.666,5.666,0,0,1-.532,2.492A4.038,4.038,0,0,1,87.359-.439a4.211,4.211,0,0,1-2.272.615,4,4,0,0,1-3.133-1.345,5.147,5.147,0,0,1-1.2-3.56Zm1.635.193a4.068,4.068,0,0,0,.734,2.54,2.349,2.349,0,0,0,1.964.958,2.335,2.335,0,0,0,1.969-.971,4.449,4.449,0,0,0,.729-2.72,4.061,4.061,0,0,0-.743-2.536,2.361,2.361,0,0,0-1.973-.971,2.335,2.335,0,0,0-1.942.958A4.416,4.416,0,0,0,82.389-4.649Z" transform="translate(793 5335)" fill="#12263f"/><path d="M11.32,0h-1.7V-5.915H3.173V0H1.485V-12.8H3.173v5.5H9.624v-5.5h1.7Zm2.312-4.843a5.617,5.617,0,0,1,.549-2.514A4.1,4.1,0,0,1,15.71-9.079a4.163,4.163,0,0,1,2.237-.606,4.01,4.01,0,0,1,3.142,1.345,5.174,5.174,0,0,1,1.2,3.577v.114a5.666,5.666,0,0,1-.532,2.492A4.038,4.038,0,0,1,20.237-.439a4.211,4.211,0,0,1-2.272.615,4,4,0,0,1-3.133-1.345,5.147,5.147,0,0,1-1.2-3.56Zm1.635.193A4.068,4.068,0,0,0,16-2.109a2.349,2.349,0,0,0,1.964.958,2.335,2.335,0,0,0,1.969-.971,4.449,4.449,0,0,0,.729-2.72,4.061,4.061,0,0,0-.743-2.536,2.361,2.361,0,0,0-1.973-.971A2.335,2.335,0,0,0,16-7.392,4.416,4.416,0,0,0,15.267-4.649ZM27.439-2.382,29.654-9.51h1.74L27.571,1.468q-.888,2.373-2.821,2.373l-.308-.026L23.836,3.7V2.382l.439.035a2.164,2.164,0,0,0,1.288-.334,2.417,2.417,0,0,0,.76-1.222l.36-.967-3.393-9.4h1.775Z" transform="translate(998 5335)" fill="#12263f"/></g></svg>