<svg xmlns="http://www.w3.org/2000/svg" width="70" height="70" viewBox="0 0 70 70"><g transform="translate(-765 -1609)"><g transform="translate(764.563 1609)"><g transform="translate(0.438)" fill="#fff" stroke="#af58fa" stroke-width="1"><circle cx="35" cy="35" r="35" stroke="none"/><circle cx="35" cy="35" r="34.5" fill="none"/></g></g><g transform="translate(780.573 1624.548)"><g transform="translate(0.664 0.664)"><path d="M31.217,1.993V17.8A10.636,10.636,0,0,0,17.6,25.239h-2.71L5.779,31.1a.731.731,0,0,1-1.129-.611V25.239H1.993A1.993,1.993,0,0,1,0,23.247V1.993A1.993,1.993,0,0,1,1.993,0H29.225A1.993,1.993,0,0,1,31.217,1.993Z" transform="translate(0)" fill="#a7fff1"/><path d="M47.254,36.626a10.627,10.627,0,1,1-7.306-10.1A10.627,10.627,0,0,1,47.254,36.626Z" transform="translate(-8.731 -8.73)" fill="#a8cdff"/><path d="M44.814,26.531A10.541,10.541,0,0,0,41.493,26c-.338,0-.672.019-1,.05a10.51,10.51,0,0,1,2.331.482A10.627,10.627,0,0,1,40.5,47.2c.328.031.66.05,1,.05a10.627,10.627,0,0,0,3.321-20.723Z" transform="translate(-13.597 -8.731)" fill="#3d8efc"/><path d="M30.35,36.188a.664.664,0,0,1-.626-.886,8.67,8.67,0,0,1,3.824-4.6.664.664,0,0,1,.664,1.15,7.337,7.337,0,0,0-3.237,3.891A.664.664,0,0,1,30.35,36.188Z" transform="translate(-9.969 -10.284)" fill="#f5f5f5"/><circle cx="1.5" cy="1.5" r="1.5" transform="translate(26.336 32.182)" fill="#69d6f4"/><rect width="3" height="10" rx="1.5" transform="translate(26.336 20.182)" fill="#69d6f4"/><circle cx="0.5" cy="0.5" r="0.5" transform="translate(19.336 27.182)" fill="#f5f5f5"/></g><path d="M32.546,18.006V2.657A2.657,2.657,0,0,0,29.889,0H2.657A2.657,2.657,0,0,0,0,2.657V23.911a2.657,2.657,0,0,0,2.657,2.657H4.649v4.583a1.41,1.41,0,0,0,.717,1.222A1.4,1.4,0,0,0,6.8,32.32l8.947-5.752h1.707a11.578,11.578,0,0,0-.186,1.993A11.291,11.291,0,1,0,32.546,18.006ZM11.291,25.239a.664.664,0,0,0,0,1.328H13.3L6.084,31.2c-.007.007-.04.02-.106-.053V26.568H8.635a.664.664,0,1,0,0-1.328H2.657a1.332,1.332,0,0,1-1.328-1.328V2.657A1.332,1.332,0,0,1,2.657,1.328H29.889a1.332,1.332,0,0,1,1.328,1.328V17.595a11.252,11.252,0,0,0-13.45,7.645ZM28.56,38.523a9.963,9.963,0,1,1,9.963-9.963A9.963,9.963,0,0,1,28.56,38.523Z"/><path d="M5.664,7.328H30.239a.664.664,0,1,0,0-1.328H5.664a.664.664,0,0,0,0,1.328Z" transform="translate(-1.679 -2.015)"/><path d="M32.254,11H11.664a.664.664,0,0,0,0,1.328h20.59a.664.664,0,1,0,0-1.328Z" transform="translate(-3.694 -3.694)"/><path d="M5.664,12.328H6.993a.664.664,0,1,0,0-1.328H5.664a.664.664,0,1,0,0,1.328Z" transform="translate(-1.679 -3.694)"/><path d="M41.321,16H38.664a.664.664,0,1,0,0,1.328h2.657a.664.664,0,1,0,0-1.328Z" transform="translate(-12.761 -5.373)"/><path d="M5.664,17.328H24.926a.664.664,0,0,0,0-1.328H5.664a.664.664,0,1,0,0,1.328Z" transform="translate(-1.679 -5.373)"/><path d="M33.933,21H16.664a.664.664,0,0,0,0,1.328H33.933a.664.664,0,1,0,0-1.328Z" transform="translate(-5.373 -7.052)"/><path d="M5.664,22.328h4.649a.664.664,0,1,0,0-1.328H5.664a.664.664,0,1,0,0,1.328Z" transform="translate(-1.679 -7.052)"/><path d="M27.985,26H24.664a.664.664,0,0,0,0,1.328h3.321a.664.664,0,0,0,0-1.328Z" transform="translate(-8.059 -8.731)"/><path d="M5.664,27.328h9.3a.664.664,0,0,0,0-1.328h-9.3a.664.664,0,1,0,0,1.328Z" transform="translate(-1.679 -8.731)"/><path d="M16.956,31H5.664a.664.664,0,1,0,0,1.328H16.956a.664.664,0,0,0,0-1.328Z" transform="translate(-1.679 -10.41)"/><path d="M41.993,49a1.993,1.993,0,1,0,1.993,1.993A1.993,1.993,0,0,0,41.993,49Zm0,2.657a.664.664,0,1,1,.664-.664A.664.664,0,0,1,41.993,51.657Z" transform="translate(-13.432 -16.454)"/><path d="M41.993,31A2,2,0,0,0,40,32.993v6.642a1.993,1.993,0,0,0,3.985,0V32.993A2,2,0,0,0,41.993,31Zm.664,8.635a.664.664,0,0,1-1.328,0V32.993a.664.664,0,0,1,1.328,0Z" transform="translate(-13.432 -10.41)"/></g></g></svg>