<svg xmlns="http://www.w3.org/2000/svg" width="158" height="60.044" viewBox="0 0 158 60.044"><g transform="translate(-634 -1787.053)"><text transform="translate(634 1839.097)" fill="#fff" font-size="30" font-family="Roboto-Medium, Roboto" font-weight="500"><tspan x="0" y="0">03</tspan></text><g transform="translate(740.323 1787.053)"><path d="M44.109,7.568A25.838,25.838,0,1,0,7.568,44.109,25.838,25.838,0,1,0,44.109,7.568Zm-18.27,42.46A24.189,24.189,0,1,1,50.028,25.838,24.216,24.216,0,0,1,25.838,50.028Z" fill="#fff"/><path d="M52.238,30a22.525,22.525,0,0,0-14.675,5.445A.825.825,0,0,0,38.639,36.7a20.915,20.915,0,1,1-2.245,2.245.825.825,0,0,0-1.251-1.075A22.53,22.53,0,1,0,52.238,30Z" transform="translate(-26.433 -26.701)" fill="#fff"/><path d="M141.049,116.232l-15.827,8.642-.013.007-.008,0a.824.824,0,0,0-.079.051l-.021.015a.833.833,0,0,0-.079.069.824.824,0,0,0-.07.081l-.015.021a.822.822,0,0,0-.051.08l0,.007,0,.008,0,.005L116.23,141.05a.825.825,0,0,0,1.119,1.119l15.828-8.642.013-.007.008-.005a.812.812,0,0,0,.079-.051l.021-.015a.747.747,0,0,0,.15-.15l.015-.02a.811.811,0,0,0,.051-.08l0-.008,0-.009,8.645-15.832a.825.825,0,0,0-1.119-1.119ZM125.8,126.967l5.633,5.633-12.409,6.776Zm6.8,4.467-5.633-5.633,12.409-6.776Z" transform="translate(-103.361 -103.362)" fill="#fff"/><path d="M79.241,60a.825.825,0,0,0-.825.825V63.32a15.966,15.966,0,0,0-15.1,15.1H60.825a.825.825,0,1,0,0,1.649h2.5a15.933,15.933,0,0,0,1.927,6.81.825.825,0,0,0,1.447-.792A14.289,14.289,0,0,1,86.084,66.7a.825.825,0,0,0,.792-1.447,15.93,15.93,0,0,0-6.81-1.927v-2.5A.824.824,0,0,0,79.241,60Z" transform="translate(-53.403 -53.403)" fill="#fff"/><path d="M169.728,188.97a.825.825,0,0,0,.825-.825V185.65a15.966,15.966,0,0,0,15.1-15.1h2.5a.825.825,0,0,0,0-1.649h-2.5a15.933,15.933,0,0,0-1.927-6.81.825.825,0,1,0-1.447.792,14.289,14.289,0,0,1-19.388,19.389.825.825,0,0,0-.792,1.447,15.932,15.932,0,0,0,6.81,1.927v2.5A.825.825,0,0,0,169.728,188.97Z" transform="translate(-143.89 -143.89)" fill="#fff"/></g></g></svg>