<svg xmlns="http://www.w3.org/2000/svg" xmlns:xlink="http://www.w3.org/1999/xlink" width="151" height="151" viewBox="0 0 151 151"><defs><linearGradient id="a" x1="0.053" y1="0.047" x2="0.962" y2="0.97" gradientUnits="objectBoundingBox"><stop offset="0" stop-color="#43efd4"/><stop offset="0.798" stop-color="#006cff"/><stop offset="1" stop-color="#006cff"/></linearGradient></defs><g transform="translate(-883 -2266)"><rect width="151" height="151" rx="12" transform="translate(883 2266)" fill="url(#a)"/><g transform="translate(917.006 2298.133)"><path d="M203.976,199.478l-19.185-19.185a3.072,3.072,0,1,1,4.344-4.344l-4.94-4.94a3.065,3.065,0,0,1-.9-2.173,3.156,3.156,0,0,1,.039-.492,3.068,3.068,0,0,1,4.915-1.933l-1.88-1.88a3.073,3.073,0,0,1-.9-2.176,2.932,2.932,0,0,1,.041-.5,3.073,3.073,0,0,1,5.207-1.67l2.153,2.153a3.072,3.072,0,1,1,4.344-4.344l12.468,12.468.035-.05a5.618,5.618,0,0,1,7.952.006l5.814,5.814a5.966,5.966,0,0,1,1.747,4.21l0,3.637a6.419,6.419,0,0,0,1.882,4.534l1.3,1.3-14.828,14.827-1.656-1.656a6.421,6.421,0,0,0-4.121-1.867A5.959,5.959,0,0,1,203.976,199.478Zm0,0" transform="translate(-152.152 -130.403)" fill="#fecbaa"/><path d="M353.846,358.929l16.83-16.83a1.42,1.42,0,0,1,2.008,0l5.994,5.993a1.421,1.421,0,0,1,0,2.008l-16.831,16.83a1.421,1.421,0,0,1-2.008,0l-5.994-5.994A1.42,1.42,0,0,1,353.846,358.929Zm0,0" transform="translate(-293.383 -283.633)" fill="#a7fff1"/><path d="M87.587,199.489,106.773,180.3a3.072,3.072,0,1,0-4.345-4.344l4.94-4.94a3.07,3.07,0,0,0-4.052-4.6l1.88-1.88a3.072,3.072,0,0,0,.9-2.175,2.929,2.929,0,0,0-.041-.5,3.061,3.061,0,0,0-2.542-2.533,3.072,3.072,0,0,0-2.665.862L98.7,162.348A3.072,3.072,0,1,0,94.353,158L81.885,170.472l-.035-.049a5.618,5.618,0,0,0-7.952.006l-5.813,5.814a5.963,5.963,0,0,0-1.747,4.21l0,3.637a6.415,6.415,0,0,1-1.881,4.534l-1.3,1.3,14.828,14.827,1.657-1.656a6.422,6.422,0,0,1,4.121-1.867A5.965,5.965,0,0,0,87.587,199.489Zm0,0" transform="translate(-52.426 -130.411)" fill="#fecbaa"/><path d="M32.744,358.938l-16.831-16.83a1.42,1.42,0,0,0-2.008,0L7.911,348.1a1.421,1.421,0,0,0,0,2.008l16.831,16.83a1.42,1.42,0,0,0,2.008,0l5.994-5.994A1.421,1.421,0,0,0,32.744,358.938Zm0,0" transform="translate(-6.222 -283.639)" fill="#43efd4"/><path d="M180.525,84.614v27.132a3.072,3.072,0,1,1-6.144,0v6.986a3.07,3.07,0,0,1-6.116.386v2.659a3.071,3.071,0,0,1-.9,2.176,2.882,2.882,0,0,1-.382.325,3.073,3.073,0,0,1-4.863-2.5v-3.045a3.072,3.072,0,1,1-6.144,0V101.1l-.06.011a5.619,5.619,0,0,1-5.619-5.627V87.261a5.967,5.967,0,0,1,1.741-4.212l2.569-2.574a6.42,6.42,0,0,0,1.876-4.537V74.105h20.97v2.343a6.426,6.426,0,0,0,1.593,4.234A5.96,5.96,0,0,1,180.525,84.614Zm0,0" transform="translate(-124.762 -61.515)" fill="#fedfc5"/><path d="M173.252,175.956a3.075,3.075,0,0,0-4.348,0l4.94-4.94a3.07,3.07,0,0,0-4.052-4.6l1.88-1.88a3.071,3.071,0,0,0,.9-2.175,2.865,2.865,0,0,0-.041-.5,3.073,3.073,0,0,0-5.206-1.67l-2.153,2.153A3.072,3.072,0,1,0,160.829,158l-12.468,12.468-.035-.049a5.6,5.6,0,0,0-5.088-1.529,8.244,8.244,0,0,0,4.328,3.274v15.46a5.627,5.627,0,0,0,6.718,5.518,5.631,5.631,0,0,0,3.259,2.861l15.7-15.7A3.071,3.071,0,0,0,173.252,175.956Zm0,0" transform="translate(-118.903 -130.411)" fill="#ffae85"/><path d="M210.452,180.635v-10.85a5.621,5.621,0,0,0-.751.63l-.035.049L197.2,158a3.075,3.075,0,0,0-4.348,0,3.075,3.075,0,0,0,0,4.348l-2.153-2.153a3.07,3.07,0,0,0-5.207,1.67,2.93,2.93,0,0,0-.04.5,3.069,3.069,0,0,0,.9,2.175l1.88,1.88a3.07,3.07,0,0,0-4.053,4.6l4.94,4.94a3.072,3.072,0,1,0-4.344,4.344l12.853,12.852a5.642,5.642,0,0,0,1.056.1,5.57,5.57,0,0,0,3.288-1.064,5.619,5.619,0,0,0,2.332-4.561v-1.385q.26.024.524.024A5.63,5.63,0,0,0,210.452,180.635Zm0,0" transform="translate(-152.142 -130.404)" fill="#ffae85"/><path d="M180.525,84.614v27.132a3.073,3.073,0,0,1-3.072,3.077c-.046,0-.095,0-.145,0a3.039,3.039,0,0,1-1.649-.577l0,0a3.071,3.071,0,0,1-1.274-2.494v6.986a3.07,3.07,0,0,1-6.116.386v2.659a3.071,3.071,0,0,1-.9,2.176,2.882,2.882,0,0,1-.382.325,3.073,3.073,0,0,1-4.863-2.5v-3.045a3.072,3.072,0,1,1-6.144,0V101.1l-.06.011a5.619,5.619,0,0,1-5.619-5.627V87.261a5.967,5.967,0,0,1,1.741-4.212l2.569-2.574a6.432,6.432,0,0,0,1.876-4.537V74.105h20.97v2.343a5.788,5.788,0,0,0,.2,1.585,6.382,6.382,0,0,0,1.391,2.649A6.008,6.008,0,0,1,180.525,84.614Zm0,0" transform="translate(-124.762 -61.515)" fill="#fedfc5"/><path d="M209.348,84.614v27.132a3.073,3.073,0,0,1-3.072,3.077c-.046,0-.095,0-.145,0a3.039,3.039,0,0,1-1.649-.577l.052-26.145a4.009,4.009,0,0,0-.1-.725,11.818,11.818,0,0,0-11.822-9.537H185.02a6.4,6.4,0,0,0,.287-1.9V74.105h20.97v2.343a5.79,5.79,0,0,0,.2,1.585,6.382,6.382,0,0,0,1.391,2.649A6.008,6.008,0,0,1,209.348,84.614Zm0,0" transform="translate(-153.585 -61.515)" fill="#fecbaa"/><path d="M194.921,18.817h-23.8a1.42,1.42,0,0,1-1.42-1.42V8.92a1.42,1.42,0,0,1,1.42-1.42h23.8a1.42,1.42,0,0,1,1.42,1.42V17.4A1.42,1.42,0,0,1,194.921,18.817Zm0,0" transform="translate(-140.868 -6.226)" fill="#af58fa"/><path d="M202.883,447.762l-.256,1.248.246-1.25a1.274,1.274,0,1,0-.492,2.5l.023,0a1.3,1.3,0,0,0,.241.023,1.275,1.275,0,0,0,.238-2.526Zm0,0" transform="translate(-167.144 -371.667)"/><path d="M262.1,450.262l.127,1.268-.131-1.267a1.274,1.274,0,0,0,.129,2.542c.044,0,.088,0,.132-.007l.035,0a1.274,1.274,0,0,0-.292-2.532Zm0,0" transform="translate(-216.613 -373.758)"/><path d="M232.443,451.232h-.019a1.267,1.267,0,0,0-1.321,1.216,1.281,1.281,0,0,0,1.224,1.33h.059a1.274,1.274,0,0,0,.056-2.547Zm0,0" transform="translate(-191.838 -374.568)"/><path d="M174.289,439.87l-.016-.006a1.267,1.267,0,0,0-1.622.771,1.278,1.278,0,1,0,1.638-.765Zm0,0" transform="translate(-143.256 -365.071)"/><path d="M291.313,444.844l.314,1.235-.318-1.234a1.274,1.274,0,0,0,.317,2.509,1.261,1.261,0,0,0,.319-.041l.034-.009a1.274,1.274,0,0,0-.666-2.46Zm0,0" transform="translate(-241.022 -369.232)"/><path d="M319.36,435.061l.505,1.169-.509-1.168a1.274,1.274,0,1,0,1.017,2.337l.031-.014a1.274,1.274,0,0,0-1.045-2.324Zm0,0" transform="translate(-264.462 -361.055)"/><path d="M147.757,81.239a1.275,1.275,0,1,0-.6-2.4l-.015.008a1.272,1.272,0,0,0,.611,2.392Zm0,0" transform="translate(-121.591 -65.32)"/><path d="M63.919,165.652a1.274,1.274,0,0,0,1.721-.537l.023-.044a1.275,1.275,0,1,0-1.743.581Zm0,0" transform="translate(-52.493 -135.501)"/><path d="M52.462,193.48a1.273,1.273,0,0,0,1.615-.8l.017-.05a1.275,1.275,0,1,0-1.632.849Zm0,0" transform="translate(-42.83 -158.535)"/><path d="M79.488,139.913a1.273,1.273,0,0,0,1.78-.281l.017-.023a1.274,1.274,0,0,0-2.073-1.482l1.027.755-1.031-.75A1.274,1.274,0,0,0,79.488,139.913Zm0,0" transform="translate(-65.547 -114.22)"/><path d="M122.319,97.382a1.28,1.28,0,1,0-.738-2.315l-.032.023a1.276,1.276,0,0,0,.77,2.292Zm0,0" transform="translate(-100.479 -78.711)"/><path d="M49.7,311.286a1.274,1.274,0,1,0-.017-.056Zm0,0" transform="translate(-41.203 -257.017)"/><path d="M99.664,117.165a1.278,1.278,0,1,0-.89-2.185l-.021.021a1.273,1.273,0,0,0,.911,2.164Zm0,0" transform="translate(-81.674 -95.136)"/><path d="M45.888,281.3a1.274,1.274,0,0,0-2.529.315l.007.051a1.272,1.272,0,0,0,1.258,1.087,1.278,1.278,0,0,0,1.264-1.453Zm0,0" transform="translate(-35.985 -232.589)"/><path d="M42.827,252.713h.038a1.274,1.274,0,0,0,1.273-1.237v-.054a1.275,1.275,0,1,0-1.313,1.291Zm0,0" transform="translate(-34.525 -207.649)"/><path d="M45.382,222.73a1.312,1.312,0,0,0,.226.02,1.275,1.275,0,0,0,1.253-1.05c0-.019.006-.037.009-.056a1.275,1.275,0,1,0-1.488,1.086Zm0,0" transform="translate(-36.8 -182.775)"/><path d="M403.15,143.766a1.274,1.274,0,0,0,2.1-1.447l-1.059.709,1.055-.715a1.274,1.274,0,0,0-2.11,1.43Zm0,0" transform="translate(-334.46 -117.67)"/><path d="M437.072,229.031a1.274,1.274,0,0,0-1.124,1.409l.007.055a1.275,1.275,0,0,0,1.26,1.094,1.305,1.305,0,0,0,.182-.013,1.283,1.283,0,0,0-.325-2.545Zm0,0" transform="translate(-361.875 -190.113)"/><path d="M429.691,199.92l.005.017a1.274,1.274,0,0,0,1.222.915,1.255,1.255,0,0,0,.36-.052,1.274,1.274,0,0,0,.863-1.582l-.005-.017a1.274,1.274,0,0,0-2.445.719Zm0,0" transform="translate(-356.644 -164.598)"/><path d="M418.671,170.81a1.281,1.281,0,0,0,1.149.715,1.273,1.273,0,0,0,1.141-1.832l-1.155.538,1.153-.541a1.274,1.274,0,0,0-2.308,1.082Zm0,0" transform="translate(-347.424 -140.252)"/><path d="M383.571,119.529a1.284,1.284,0,1,0-.038-.04Zm0,0" transform="translate(-318.09 -97.413)"/><path d="M438.628,260.385a1.282,1.282,0,0,0-.109,2.562l.072,0a1.275,1.275,0,0,0,1.271-1.2l0-.052A1.272,1.272,0,0,0,438.628,260.385Zm0,0" transform="translate(-363.017 -216.146)"/><path d="M334.215,81.662l.031.017a1.269,1.269,0,0,0,1.716-.524,1.278,1.278,0,0,0-.518-1.725l-.617,1.115.613-1.118a1.274,1.274,0,1,0-1.225,2.235Zm0,0" transform="translate(-276.883 -65.802)"/><path d="M360.381,98.631l.02.015a1.274,1.274,0,0,0,1.54-2.031l-.009-.006a1.274,1.274,0,1,0-1.552,2.021Zm0,0" transform="translate(-298.739 -79.977)"/><path d="M86.2,63.529,80.22,57.537a2.691,2.691,0,0,0-3.81,0l-.139.139-.393-.393a5.143,5.143,0,0,1-1.116-1.669,1.242,1.242,0,0,0-.091-.236,5.153,5.153,0,0,1-.3-1.731V51.952a1.283,1.283,0,1,0-.008-2.265A7.184,7.184,0,0,0,72.262,44.9l-5.8-5.813a6.885,6.885,0,0,0-8.8-.79l-.616-.619V23.1a7.236,7.236,0,0,0-1.8-4.772,5.142,5.142,0,0,1-1.277-3.394V13.865h.088a2.7,2.7,0,0,0,2.694-2.694V2.694A2.7,2.7,0,0,0,54.054,0h-23.8a2.7,2.7,0,0,0-2.694,2.694v8.476a2.7,2.7,0,0,0,2.694,2.694h.2v.559a5.112,5.112,0,0,1-1.5,3.636l-2.569,2.574a7.189,7.189,0,0,0-2.114,5.112v8.221A6.871,6.871,0,0,0,25,37.073a6.842,6.842,0,0,0-4.471,2.01l-5.8,5.813a7.19,7.19,0,0,0-2.114,5.112v3.64a5.112,5.112,0,0,1-1.5,3.636l-.388.389,0,0-.138-.139a2.691,2.691,0,0,0-3.81,0L.786,63.529a2.7,2.7,0,0,0,0,3.811l2.049,2.051a1.274,1.274,0,1,0,1.8-1.8L2.59,65.539a.148.148,0,0,1,0-.209l5.982-5.992a.143.143,0,0,1,.2,0l1.04,1.042h0L24.016,74.6,25.607,76.2a.148.148,0,0,1,0,.209L19.625,82.4a.143.143,0,0,1-.2,0L8.246,71.2a1.274,1.274,0,1,0-1.8,1.8L17.619,84.2a2.691,2.691,0,0,0,3.81,0l5.982-5.992a2.7,2.7,0,0,0,0-3.81l-.065-.065.755-.756a5.12,5.12,0,0,1,3.3-1.495,7.21,7.21,0,0,0,4.64-2.1l5.5-5.507a4.363,4.363,0,0,0,3.154-3.324,4.345,4.345,0,0,0,6.209-3.932V54.191a4.343,4.343,0,0,0,6.144-3.961V41.286l3.92,3.939a1.274,1.274,0,0,0,1.806-1.8L59.5,40.143a4.34,4.34,0,0,1,5.159.741l5.8,5.812a4.658,4.658,0,0,1,1.369,3.312v3.64a7.645,7.645,0,0,0,2.248,5.437l.4.4-1.848,1.852-11.179,11.2L60.82,71.9l-.019-.019-.11-.11a7.672,7.672,0,0,0-4.934-2.237,4.673,4.673,0,0,1-3.005-1.364l-4.187-4.164a1.274,1.274,0,1,0-1.8,1.806l4.184,4.161a7.211,7.211,0,0,0,4.64,2.1,5.123,5.123,0,0,1,3.3,1.494l.062.062a1.224,1.224,0,0,0,.106.106l.587.588-.065.066a2.7,2.7,0,0,0,0,3.81L65.559,84.2a2.692,2.692,0,0,0,3.811,0L86.2,67.34A2.7,2.7,0,0,0,86.2,63.529ZM75.229,50.859l-.024,0-.232-.047Zm-41,17.32a4.664,4.664,0,0,1-3,1.361A7.672,7.672,0,0,0,26.3,71.776l-.752.753-.677-.678-.026-.026L12.518,59.48l.4-.4a7.645,7.645,0,0,0,2.248-5.437v-3.64A4.655,4.655,0,0,1,16.531,46.7l5.8-5.812a4.339,4.339,0,0,1,5.165-.737l-3.273,3.278a1.274,1.274,0,0,0,1.8,1.8l3.91-3.917V57.217a4.345,4.345,0,0,0,6.233,3.92,4.367,4.367,0,0,0,2.16,2.934ZM54.49,50.231a1.8,1.8,0,1,1-3.6,0V36.017a1.274,1.274,0,0,0-2.548,0v21.2a1.8,1.8,0,0,1-3.569.3V36a1.288,1.288,0,0,0-2.575.015v21.2a4.369,4.369,0,0,0,.027.478v2.568a1.8,1.8,0,1,1-3.6,0V35.988a1.275,1.275,0,0,0-2.549,0V57.217a1.8,1.8,0,1,1-3.6,0v-23.7a1.274,1.274,0,1,0-2.548,0V37.9a1.251,1.251,0,0,0-.307.147,4.36,4.36,0,0,1-2.824-4.078V25.746a4.658,4.658,0,0,1,1.369-3.312l2.569-2.574A7.643,7.643,0,0,0,33,14.424v-.559h2.562a1.274,1.274,0,1,0,0-2.548H30.251a.146.146,0,0,1-.145-.146V2.694a.146.146,0,0,1,.145-.146h23.8a.146.146,0,0,1,.146.146v8.476a.146.146,0,0,1-.146.146H41.54a1.274,1.274,0,1,0,0,2.548h9.877v1.068a7.694,7.694,0,0,0,1.909,5.075A4.685,4.685,0,0,1,54.49,23.1ZM84.4,65.539,67.566,82.4a.136.136,0,0,1-.1.042.138.138,0,0,1-.1-.042l-5.982-5.992a.148.148,0,0,1,0-.209l.963-.965h0l9.771-9.788,6.1-6.108a.142.142,0,0,1,.2,0L84.4,65.33A.148.148,0,0,1,84.4,65.539Zm0,0" transform="translate(0)"/><path d="M195.173,32.8a1.359,1.359,0,1,0,1.357,1.359A1.36,1.36,0,0,0,195.173,32.8Zm0,0" transform="translate(-160.887 -27.231)"/><path d="M456.771,374.688a1.359,1.359,0,1,0,1.357,1.359A1.36,1.36,0,0,0,456.771,374.688Zm0,0" transform="translate(-378.04 -311.029)"/><path d="M111.725,444.562a1.357,1.357,0,1,0-1.357,1.359A1.36,1.36,0,0,0,111.725,444.562Zm0,0" transform="translate(-90.491 -367.904)"/></g></g></svg>