<svg xmlns="http://www.w3.org/2000/svg" width="74.966" height="89.937" viewBox="0 0 74.966 89.937"><g transform="translate(-40.017)"><path d="M160.376,148.885c-4.19,4.19-3.666,12.645-3.666,12.645h-21.25s.449-8.455-3.666-12.645a21.624,21.624,0,1,1,28.582,0Z" transform="translate(-68.527 -90.074)" fill="#ffd517"/><g transform="translate(66.26 76.095)"><path d="M202.834,408.82a2.012,2.012,0,0,1-2.02,2.02H182.332a2.012,2.012,0,0,1-2.02-2.02h0a2.012,2.012,0,0,1,2.02-2.02h18.406a2.077,2.077,0,0,1,2.1,2.02Z" transform="translate(-180.312 -406.8)" fill="#e5e5e5"/><path d="M212.1,453.62a2.012,2.012,0,0,1-2.02,2.02H197.132a2.012,2.012,0,0,1-2.02-2.02h0a2.012,2.012,0,0,1,2.02-2.02h12.944a2.012,2.012,0,0,1,2.02,2.02Z" transform="translate(-192.344 -443.22)" fill="#e5e5e5"/></g><g transform="translate(40.017)"><path d="M155.32,143.455a23.107,23.107,0,1,0-30.752.224c3.666,3.666,3.292,11.448,3.292,11.523a1.788,1.788,0,0,0,.374,1.048,1.477,1.477,0,0,0,1.048.449h21.175a1.477,1.477,0,0,0,1.048-.449,1.4,1.4,0,0,0,.374-1.048c0-.075-.374-7.856,3.292-11.523C155.246,143.6,155.32,143.529,155.32,143.455Zm-2.1-1.871a.747.747,0,0,0-.3.374c-3.292,3.517-3.816,9.278-3.891,11.972H130.7c-.075-2.768-.673-8.754-4.19-12.271a20.269,20.269,0,1,1,33.6-15.264A20.12,20.12,0,0,1,153.225,141.584Z" transform="translate(-102.366 -83.896)" fill="#210b20"/><path d="M234.134,135.2a1.422,1.422,0,0,0,0,2.843,15.2,15.2,0,0,1,15.189,15.189,1.422,1.422,0,0,0,2.843,0A18.042,18.042,0,0,0,234.134,135.2Z" transform="translate(-196.667 -109.91)" fill="#210b20"/><path d="M198.077,402.642a3.433,3.433,0,0,0-3.442-3.442H176.154a3.442,3.442,0,1,0,0,6.884H194.56A3.45,3.45,0,0,0,198.077,402.642Zm-3.517.6H176.154a.6.6,0,1,1,0-1.2H194.56a.59.59,0,0,1,.6.6C195.234,403.016,194.934,403.24,194.56,403.24Z" transform="translate(-147.891 -324.527)" fill="#210b20"/><path d="M203.9,444H190.954a3.442,3.442,0,1,0,0,6.884H203.9a3.433,3.433,0,0,0,3.442-3.442A3.481,3.481,0,0,0,203.9,444Zm0,4.04H190.954a.6.6,0,0,1,0-1.2H203.9a.59.59,0,0,1,.6.6A.551.551,0,0,1,203.9,448.04Z" transform="translate(-159.922 -360.947)" fill="#210b20"/><path d="M235.555,11V1.422a1.422,1.422,0,0,0-2.843,0v9.652a1.421,1.421,0,0,0,1.422,1.422A1.485,1.485,0,0,0,235.555,11Z" transform="translate(-196.667)" fill="#210b20"/><path d="M333.74,36.97a1.422,1.422,0,0,0-1.945.374l-5.312,8.006a1.422,1.422,0,0,0,.374,1.945,1.444,1.444,0,0,0,.748.224,1.562,1.562,0,0,0,1.2-.6l5.312-8.006A1.436,1.436,0,0,0,333.74,36.97Z" transform="translate(-272.704 -29.862)" fill="#210b20"/><path d="M121.4,45.429a1.426,1.426,0,0,0,1.2-2.17l-5.163-8.081a1.412,1.412,0,0,0-2.394,1.5l5.163,8.081A1.438,1.438,0,0,0,121.4,45.429Z" transform="translate(-100.844 -28.07)" fill="#210b20"/><path d="M40.745,116.972l8.455,4.564a1.112,1.112,0,0,0,.673.15,1.543,1.543,0,0,0,1.272-.748,1.407,1.407,0,0,0-.6-1.945l-8.455-4.564a1.407,1.407,0,0,0-1.945.6A1.522,1.522,0,0,0,40.745,116.972Z" transform="translate(-40.017 -92.879)" fill="#210b20"/><path d="M381.676,122.15a2.185,2.185,0,0,0,.673-.15l8.455-4.564a1.439,1.439,0,1,0-1.347-2.544L381,119.456a1.427,1.427,0,0,0,.673,2.694Z" transform="translate(-316.6 -93.268)" fill="#210b20"/></g></g></svg>