<svg xmlns="http://www.w3.org/2000/svg" xmlns:xlink="http://www.w3.org/1999/xlink" width="151" height="151" viewBox="0 0 151 151"><defs><linearGradient id="a" x1="0.053" y1="0.047" x2="0.962" y2="0.97" gradientUnits="objectBoundingBox"><stop offset="0" stop-color="#43efd4"/><stop offset="0.798" stop-color="#006cff"/><stop offset="1" stop-color="#006cff"/></linearGradient></defs><g transform="translate(-1010 -5767)"><rect width="151" height="151" rx="12" transform="translate(1010 5767)" fill="url(#a)"/><g transform="translate(1041.277 5797.277)"><g transform="translate(8.016 60.958)"><path d="M45.886,348.935H60v21.53H45.886Z" transform="translate(-45.886 -348.935)" fill="#a7fff1"/></g><g transform="translate(27.781 52.487)"><path d="M159.024,300.447h14.118v30H159.024Z" transform="translate(-159.024 -300.447)" fill="#a7fff1"/></g><g transform="translate(47.546 41.899)"><path d="M272.163,239.837h14.118v40.589H272.163Z" transform="translate(-272.163 -239.837)" fill="#9dc6fb"/></g><g transform="translate(67.311 34.84)"><path d="M385.3,199.431h14.118v47.648H385.3Z" transform="translate(-385.301 -199.431)" fill="#af58fa"/></g><g transform="translate(47.546 56.882)"><path d="M272.163,332.462V351.21h14.118V325.6a122.982,122.982,0,0,1-14.118,6.858Z" transform="translate(-272.163 -325.604)" fill="#80b4fb"/></g><g transform="translate(27.781 65.914)"><path d="M169.948,378.409c-3.679,1.223-7.331,2.265-10.924,3.132v12.336h14.118V377.3Q171.562,377.872,169.948,378.409Z" transform="translate(-159.024 -377.304)" fill="#69d6f4"/></g><g transform="translate(8.016 71.382)"><path d="M45.886,410.449v9.259H60V408.6A111.954,111.954,0,0,1,45.886,410.449Z" transform="translate(-45.886 -408.602)" fill="#69d6f4"/></g><g transform="translate(67.311 41.692)"><path d="M385.3,250.385v29.061h14.118v-40.8A74.659,74.659,0,0,1,385.3,250.385Z" transform="translate(-385.301 -238.65)" fill="#e4c4ff"/></g><g transform="translate(1.31 82.488)"><path d="M0,0H5.647V86.825H0Z" transform="translate(86.825 0) rotate(90)" fill="#4073c8"/></g><g transform="translate(7.84 1.31)"><path d="M115.642,7.5H101.524v5.647h7.3L94,27.971H82.288a2.823,2.823,0,0,0-2.081.916L63.575,47.03h-18.7v5.647H64.817a2.823,2.823,0,0,0,2.081-.916L83.53,33.618h11.64a2.824,2.824,0,0,0,2-.827L112.818,17.14v7.3h5.647V10.324A2.823,2.823,0,0,0,115.642,7.5Z" transform="translate(-44.876 -7.5)" fill="#43efd4"/></g><g transform="translate(0 0)"><path d="M88.135,239.577h-5.4V219.136a1.31,1.31,0,1,0-2.62,0v20.441h-11.5V194.55h11.5v18.471a1.31,1.31,0,0,0,2.62,0V193.24a1.31,1.31,0,0,0-1.31-1.31H67.311A1.31,1.31,0,0,0,66,193.24v46.337H62.974V200.3a1.31,1.31,0,0,0-1.31-1.31H47.546a1.31,1.31,0,0,0-1.31,1.31v39.278H43.209V210.888a1.31,1.31,0,0,0-1.31-1.31H27.781a1.31,1.31,0,0,0-1.31,1.31v28.689H23.444V219.358a1.31,1.31,0,0,0-1.31-1.31H8.016a1.31,1.31,0,0,0-1.31,1.31v20.219H1.31A1.31,1.31,0,0,0,0,240.887v5.648a1.31,1.31,0,0,0,1.31,1.31H15.461a1.31,1.31,0,1,0,0-2.62H2.62V242.2h84.2v3.027H21.575a1.31,1.31,0,1,0,0,2.62h66.56a1.31,1.31,0,0,0,1.31-1.31v-5.648a1.31,1.31,0,0,0-1.31-1.31ZM48.857,201.609h11.5v37.968h-11.5ZM29.091,212.2h11.5v27.379h-11.5ZM9.326,220.669h11.5v18.908H9.326Z" transform="translate(0 -158.4)"/><path d="M38.69,47.8H58.63a4.144,4.144,0,0,0,3.048-1.34L77.92,28.738H88.984a4.107,4.107,0,0,0,2.923-1.21l13.415-13.415v4.139a1.31,1.31,0,0,0,1.31,1.31h5.646a1.31,1.31,0,0,0,1.31-1.31V4.133A4.138,4.138,0,0,0,109.455,0H95.338a1.31,1.31,0,0,0-1.31,1.31V6.958a1.31,1.31,0,0,0,1.31,1.31h4.138l-12.2,12.2H76.1a4.142,4.142,0,0,0-3.046,1.34L56.812,39.531H53.2a1.31,1.31,0,1,0,0,2.62h4.189a1.31,1.31,0,0,0,.966-.425L74.987,23.582a1.515,1.515,0,0,1,1.115-.49H87.815a1.31,1.31,0,0,0,.926-.384L103.565,7.885a1.31,1.31,0,0,0-.926-2.237h-5.99V2.62h12.807a1.515,1.515,0,0,1,1.513,1.513V16.942h-3.026V10.95a1.31,1.31,0,0,0-2.237-.926L90.054,25.675a1.5,1.5,0,0,1-1.07.443H77.344a1.31,1.31,0,0,0-.966.425L59.747,44.687a1.517,1.517,0,0,1-1.116.49H40V42.151h7.084a1.31,1.31,0,1,0,0-2.62H38.69a1.31,1.31,0,0,0-1.31,1.31v5.646a1.31,1.31,0,0,0,1.31,1.31Z" transform="translate(-30.85 0)"/></g></g></g></svg>