<svg xmlns="http://www.w3.org/2000/svg" xmlns:xlink="http://www.w3.org/1999/xlink" width="151" height="151" viewBox="0 0 151 151"><defs><linearGradient id="a" x1="0.053" y1="0.047" x2="0.962" y2="0.97" gradientUnits="objectBoundingBox"><stop offset="0" stop-color="#43efd4"/><stop offset="0.798" stop-color="#006cff"/><stop offset="1" stop-color="#006cff"/></linearGradient></defs><g transform="translate(-1010 -4985)"><rect width="151" height="151" rx="12" transform="translate(1010 4985)" fill="url(#a)"/><g transform="translate(1039 5007.15)"><g transform="translate(1.475 1.475)"><path d="M22.072,0A22.072,22.072,0,1,1,0,22.072,22.072,22.072,0,0,1,22.072,0Z" transform="translate(0)" fill="#a7fff1"/><path d="M32.726,68.8a22.067,22.067,0,0,1-17.1-36.02A22.068,22.068,0,1,0,46.673,63.825,21.975,21.975,0,0,1,32.726,68.8Z" transform="translate(-7.5 -27.805)" fill="#43efd4"/><circle cx="22.072" cy="22.072" r="22.072" transform="translate(0 53.604)" fill="#fff"/><path d="M32.726,341.345a22.067,22.067,0,0,1-17.1-36.02,22.068,22.068,0,1,0,31.049,31.049A21.976,21.976,0,0,1,32.726,341.345Z" transform="translate(-7.5 -246.749)" fill="#c3aff0"/><circle cx="22.072" cy="22.072" r="22.072" transform="translate(53.604)" fill="#e2c1ff"/><path d="M305.273,68.8a22.067,22.067,0,0,1-17.1-36.02A22.068,22.068,0,1,0,319.22,63.825,21.973,21.973,0,0,1,305.273,68.8Z" transform="translate(-226.443 -27.805)" fill="#af58fa"/><path d="M22.072,0A22.072,22.072,0,1,1,0,22.072,22.072,22.072,0,0,1,22.072,0Z" transform="translate(53.604 53.604)" fill="#69d6f4"/><path d="M305.273,341.345a22.067,22.067,0,0,1-17.1-36.02,22.068,22.068,0,1,0,31.049,31.049A21.974,21.974,0,0,1,305.273,341.345Z" transform="translate(-226.443 -246.749)" fill="#3d8efc"/><g transform="translate(9.931 9.46)"><path d="M81.171,65.479l1.105-.638a12.231,12.231,0,0,0-3.153-5.461l-1.105.638a3.153,3.153,0,0,1-4.73-2.731V56.01a12.231,12.231,0,0,0-6.306,0v1.276a3.153,3.153,0,0,1-4.73,2.731l-1.105-.638a12.231,12.231,0,0,0-3.153,5.461l1.105.638a3.153,3.153,0,0,1,0,5.462l-1.105.638a12.231,12.231,0,0,0,3.153,5.461l1.105-.638a3.153,3.153,0,0,1,4.73,2.731v1.276a12.231,12.231,0,0,0,6.306,0V79.132a3.153,3.153,0,0,1,4.73-2.731l1.105.638a12.231,12.231,0,0,0,3.153-5.461l-1.105-.638a3.153,3.153,0,0,1,0-5.462ZM70.135,71.363a3.153,3.153,0,1,1,3.153-3.153A3.153,3.153,0,0,1,70.135,71.363Z" transform="translate(-57.993 -55.597)" fill="#fff"/><circle cx="11.036" cy="11.036" r="11.036" transform="translate(54.71 55.181)" fill="#fff"/><path d="M359.944,109.867H347.331a3.153,3.153,0,0,1-3.153-3.153V98.831a3.153,3.153,0,0,1,3.153-3.153h12.613a3.153,3.153,0,0,1,3.153,3.153v7.883A3.153,3.153,0,0,1,359.944,109.867Z" transform="translate(-287.892 -87.795)" fill="#fff"/></g></g><g transform="translate(0 0)"><path d="M93.928,62.77a1.475,1.475,0,0,0-.3,2.065,20.409,20.409,0,0,1,4.118,12.316,20.6,20.6,0,1,1-20.6-20.6,20.408,20.408,0,0,1,12.316,4.118,1.475,1.475,0,1,0,1.768-2.362,23.335,23.335,0,0,0-12.609-4.657V47.047A23.547,23.547,0,1,0,53.652,22.072H47.045A23.334,23.334,0,0,0,42.388,9.463a1.475,1.475,0,1,0-2.362,1.768,20.408,20.408,0,0,1,4.118,12.316,20.6,20.6,0,1,1-20.6-20.6A20.409,20.409,0,0,1,35.864,7.068a1.475,1.475,0,0,0,1.768-2.362A23.339,23.339,0,0,0,23.547,0a23.547,23.547,0,0,0-1.475,47.047v6.6A23.547,23.547,0,1,0,47.047,78.627h6.6A23.547,23.547,0,0,0,100.7,77.152a23.336,23.336,0,0,0-4.707-14.085,1.475,1.475,0,0,0-2.065-.3ZM77.152,2.95a20.6,20.6,0,1,1-20.6,20.6,20.62,20.62,0,0,1,20.6-20.6Zm-30.1,22.072h6.6A23.58,23.58,0,0,0,75.677,47.047v6.6A23.58,23.58,0,0,0,53.652,75.677h-6.6A23.58,23.58,0,0,0,25.023,53.652v-6.6A23.581,23.581,0,0,0,47.047,25.023Zm-23.5,72.726a20.6,20.6,0,1,1,20.6-20.6A20.62,20.62,0,0,1,23.547,97.749Z" transform="translate(0 0)"/><path d="M75.881,60.731l1.105-.638a1.475,1.475,0,0,0,.684-1.673,13.7,13.7,0,0,0-3.522-6.1,1.476,1.476,0,0,0-1.791-.244l-1.105.638a1.678,1.678,0,0,1-2.517-1.453V49.985a1.475,1.475,0,0,0-1.107-1.428,13.7,13.7,0,0,0-7.043,0,1.475,1.475,0,0,0-1.107,1.428v1.276a1.678,1.678,0,0,1-2.517,1.453l-1.105-.638a1.475,1.475,0,0,0-1.791.244,13.707,13.707,0,0,0-3.522,6.1,1.475,1.475,0,0,0,.684,1.673l1.105.638a1.678,1.678,0,0,1,0,2.907l-1.105.638a1.475,1.475,0,0,0-.684,1.673,13.7,13.7,0,0,0,3.522,6.1,1.475,1.475,0,0,0,1.79.244l1.105-.638a1.678,1.678,0,0,1,2.517,1.453v1.276a1.475,1.475,0,0,0,1.107,1.428,13.7,13.7,0,0,0,7.043,0,1.475,1.475,0,0,0,1.107-1.428V73.107a1.678,1.678,0,0,1,2.517-1.453l1.105.638a1.475,1.475,0,0,0,1.79-.244,13.705,13.705,0,0,0,3.522-6.1,1.475,1.475,0,0,0-.684-1.673l-1.105-.638a1.678,1.678,0,0,1,0-2.907Zm-1.475,5.462.068.04A10.437,10.437,0,0,1,72.8,69.138l-.068-.04a4.628,4.628,0,0,0-6.942,4.008v.079a10.477,10.477,0,0,1-3.356,0v-.079A4.628,4.628,0,0,0,55.487,69.1l-.068.04a10.437,10.437,0,0,1-1.678-2.907l.068-.04a4.628,4.628,0,0,0,0-8.016l-.068-.04a10.437,10.437,0,0,1,1.678-2.907l.068.04a4.628,4.628,0,0,0,6.942-4.008v-.079a10.477,10.477,0,0,1,3.356,0v.079a4.628,4.628,0,0,0,6.943,4.008l.068-.04a10.437,10.437,0,0,1,1.678,2.907l-.068.04a4.628,4.628,0,0,0,0,8.016Z" transform="translate(-40.56 -38.637)"/><path d="M100.822,96.193a4.628,4.628,0,1,0,4.628,4.628A4.633,4.633,0,0,0,100.822,96.193Zm0,6.306a1.678,1.678,0,1,1,1.678-1.678A1.68,1.68,0,0,1,100.822,102.5Z" transform="translate(-77.275 -77.274)"/><path d="M66.578,326.818a10.955,10.955,0,0,0-9.357-9.357V314.1a1.475,1.475,0,1,0-2.95,0v3.357a10.955,10.955,0,0,0-9.357,9.357H41.556a1.475,1.475,0,1,0,0,2.95h3.357a10.954,10.954,0,0,0,9.357,9.357v3.357a1.475,1.475,0,0,0,2.95,0v-3.357a10.955,10.955,0,0,0,9.357-9.357h3.357a1.475,1.475,0,1,0,0-2.95Zm-9.357,9.321V334.6a1.475,1.475,0,1,0-2.95,0v1.539a8,8,0,0,1-6.371-6.371h1.539a1.475,1.475,0,1,0,0-2.95H47.9a8,8,0,0,1,6.371-6.371v1.539a1.475,1.475,0,1,0,2.95,0v-1.539a8,8,0,0,1,6.371,6.371H62.052a1.475,1.475,0,1,0,0,2.95h1.539A8,8,0,0,1,57.221,336.139Z" transform="translate(-32.198 -251.142)"/><path d="M341.172,328.661a12.511,12.511,0,1,0,12.511,12.511A12.525,12.525,0,0,0,341.172,328.661Zm9.447,11.036h-7.972v-7.972A9.584,9.584,0,0,1,350.619,339.7Zm-9.447,11.036a9.561,9.561,0,0,1-1.475-19.008v9.447a1.475,1.475,0,0,0,1.475,1.475h9.447A9.576,9.576,0,0,1,341.172,350.733Z" transform="translate(-264.021 -264.021)"/><path d="M341.305,79.559h12.613a4.634,4.634,0,0,0,4.628-4.628V67.048a4.633,4.633,0,0,0-4.628-4.628H352.24V59.165a3.055,3.055,0,0,0-3.052-3.052h-3.153a3.055,3.055,0,0,0-3.052,3.052v3.255h-1.678a4.633,4.633,0,0,0-4.628,4.628v7.883A4.634,4.634,0,0,0,341.305,79.559Zm12.613-2.95H341.305a1.68,1.68,0,0,1-1.678-1.678V70.366c.255.107.531.211.829.311a17.61,17.61,0,0,0,2.527.62v.481a1.475,1.475,0,1,0,2.95,0v-.15c.55.031,1.111.048,1.678.048s1.128-.017,1.678-.048v.15a1.475,1.475,0,1,0,2.95,0V71.3a17.61,17.61,0,0,0,2.527-.62c.3-.1.574-.2.829-.311v4.565A1.68,1.68,0,0,1,353.918,76.609Zm-7.985-17.444a.1.1,0,0,1,.1-.1h3.153a.1.1,0,0,1,.1.1v3.255h-3.356Zm-4.628,6.2h12.613a1.679,1.679,0,0,1,1.674,1.587c-.418.559-3.123,1.769-7.98,1.769s-7.562-1.21-7.98-1.769A1.679,1.679,0,0,1,341.305,65.369Z" transform="translate(-270.46 -45.077)"/></g></g></g></svg>