<svg xmlns="http://www.w3.org/2000/svg" width="111" height="111" viewBox="0 0 111 111"><g transform="translate(-1025 -4314)"><rect width="111" height="111" rx="12" transform="translate(1025 4314)" fill="#7ff8e4"/><g transform="translate(1040.488 4336.192)"><g transform="translate(15.117 0.976)"><path d="M67.381,72.163H24.273a2.629,2.629,0,0,1-2.629-2.629V10.129A2.629,2.629,0,0,1,24.273,7.5H55.778a2.629,2.629,0,0,1,1.859.77l11.6,11.6a2.629,2.629,0,0,1,.77,1.859v47.8A2.628,2.628,0,0,1,67.381,72.163Z" transform="translate(-21.644 -7.5)" fill="#f2e3ff"/></g><g transform="translate(47.186 0.976)"><path d="M283.65,19.873l-11.6-11.6a2.629,2.629,0,0,0-1.859-.77h-2.066V18.014a5.783,5.783,0,0,0,5.783,5.783h6.046a1.314,1.314,0,0,1,1.314,1.314V69.666a2.628,2.628,0,0,1-1.811,2.5h2.336a2.629,2.629,0,0,0,2.629-2.629v-47.8A2.628,2.628,0,0,0,283.65,19.873Z" transform="translate(-268.123 -7.5)" fill="#ddebfd"/></g><g transform="translate(50.34 1.215)"><path d="M295,22.244h10.275a2.626,2.626,0,0,0-.531-.77l-11.6-11.6a2.623,2.623,0,0,0-.77-.531V19.615A2.628,2.628,0,0,0,295,22.244Z" transform="translate(-292.368 -9.34)" fill="#bed9fd"/></g><g transform="translate(19.323 5.182)"><g transform="translate(0 31.017)"><circle cx="2.103" cy="2.103" r="2.103" fill="#dbfff9"/></g><g transform="translate(0 13.143)"><circle cx="2.103" cy="2.103" r="2.103" fill="#dbfff9"/></g><g transform="translate(0 21.554)"><circle cx="2.103" cy="2.103" r="2.103" fill="#dbfff9"/></g><g transform="translate(8.412 13.143)"><path d="M149.112,145.048h-29.44A1.051,1.051,0,0,1,118.62,144v-2.1a1.051,1.051,0,0,1,1.051-1.051h29.44a1.051,1.051,0,0,1,1.051,1.051V144A1.051,1.051,0,0,1,149.112,145.048Z" transform="translate(-118.62 -140.842)" fill="#a7fff1"/></g><path d="M68.689,44.032H55.02a1.051,1.051,0,0,1-1.051-1.051v-2.1a1.051,1.051,0,0,1,1.051-1.051H68.689a1.051,1.051,0,0,1,1.051,1.051v2.1A1.051,1.051,0,0,1,68.689,44.032Z" transform="translate(-53.969 -39.826)" fill="#a7fff1"/><g transform="translate(8.412 13.143)"><path d="M135.969,145.048h-16.3A1.051,1.051,0,0,1,118.62,144v-2.1a1.051,1.051,0,0,1,1.051-1.051h16.3a1.051,1.051,0,0,1,1.051,1.051V144A1.051,1.051,0,0,1,135.969,145.048Z" transform="translate(-118.62 -140.842)" fill="#af58fa"/></g><g transform="translate(8.412 21.554)"><path d="M149.112,209.7h-29.44a1.051,1.051,0,0,1-1.051-1.051v-2.1a1.051,1.051,0,0,1,1.051-1.051h29.44a1.051,1.051,0,0,1,1.051,1.051v2.1A1.051,1.051,0,0,1,149.112,209.7Z" transform="translate(-118.62 -205.492)" fill="#a7fff1"/></g><g transform="translate(8.412 21.554)"><path d="M143.854,209.7H119.671a1.051,1.051,0,0,1-1.051-1.051v-2.1a1.051,1.051,0,0,1,1.051-1.051h24.183a1.051,1.051,0,0,1,1.051,1.051v2.1A1.051,1.051,0,0,1,143.854,209.7Z" transform="translate(-118.62 -205.492)" fill="#af58fa"/></g><g transform="translate(8.412 31.017)"><path d="M149.112,282.43h-29.44a1.051,1.051,0,0,1-1.051-1.051v-2.1a1.051,1.051,0,0,1,1.051-1.051h29.44a1.051,1.051,0,0,1,1.051,1.051v2.1A1.051,1.051,0,0,1,149.112,282.43Z" transform="translate(-118.62 -278.224)" fill="#a7fff1"/></g><g transform="translate(8.412 31.017)"><path d="M132.026,282.43H119.671a1.051,1.051,0,0,1-1.051-1.051v-2.1a1.051,1.051,0,0,1,1.051-1.051h12.354a1.051,1.051,0,0,1,1.051,1.051v2.1A1.051,1.051,0,0,1,132.026,282.43Z" transform="translate(-118.62 -278.224)" fill="#af58fa"/></g></g><g transform="translate(50.866 40.405)"><g transform="translate(0)"><circle cx="12.617" cy="12.617" r="12.617" fill="#fff"/><g transform="translate(2.542 2.542)"><path d="M333.612,330.083a12.617,12.617,0,0,1-17.67,17.67,12.617,12.617,0,1,0,17.67-17.67Z" transform="translate(-315.942 -330.083)" fill="#dbfff9"/></g></g><g transform="translate(5.813 5.813)"><circle cx="6.805" cy="6.805" r="6.805" fill="#a7fff1"/></g></g><g transform="translate(14.141 0)"><path d="M15.117,55.007a.976.976,0,0,0,.976-.976V3.6a1.655,1.655,0,0,1,1.654-1.652H49.252c.038,0,.075,0,.113.005V11.49a3.609,3.609,0,0,0,3.6,3.6H62.5c0,.037.006.075.006.112v2.348a.976.976,0,0,0,1.952,0V15.207A3.629,3.629,0,0,0,63.4,12.659L51.8,1.056A3.581,3.581,0,0,0,49.252,0H17.746a3.609,3.609,0,0,0-3.605,3.6V54.031a.976.976,0,0,0,.976.976Zm46.01-41.864H52.969a1.655,1.655,0,0,1-1.653-1.653V3.333Z" transform="translate(-14.141 0)"/><path d="M49.548,276.881a3.079,3.079,0,1,0-3.079-3.079A3.082,3.082,0,0,0,49.548,276.881Zm0-4.206a1.127,1.127,0,1,1-1.127,1.127A1.128,1.128,0,0,1,49.548,272.676Z" transform="translate(-42.263 -235.501)"/><path d="M49.548,139.5a3.079,3.079,0,1,0-3.079-3.079A3.082,3.082,0,0,0,49.548,139.5Zm0-4.206a1.127,1.127,0,1,1-1.127,1.127A1.128,1.128,0,0,1,49.548,135.294Z" transform="translate(-42.263 -115.993)"/><path d="M49.548,204.149a3.079,3.079,0,1,0-3.079-3.079A3.082,3.082,0,0,0,49.548,204.149Zm0-4.206a1.127,1.127,0,1,1-1.127,1.127A1.128,1.128,0,0,1,49.548,199.944Z" transform="translate(-42.263 -172.232)"/><path d="M48.5,38.482H62.165a2.029,2.029,0,0,0,2.027-2.027v-2.1a2.029,2.029,0,0,0-2.027-2.027H48.5a2.029,2.029,0,0,0-2.027,2.027v2.1A2.029,2.029,0,0,0,48.5,38.482Zm-.076-4.13a.076.076,0,0,1,.076-.076H62.165a.076.076,0,0,1,.076.076v2.1a.076.076,0,0,1-.076.076H48.5a.076.076,0,0,1-.076-.076Z" transform="translate(-42.263 -28.119)"/><path d="M47.445,98.928H50.6a.976.976,0,0,0,0-1.952H47.445a.976.976,0,0,0,0,1.952Z" transform="translate(-42.263 -84.359)"/><path d="M113.4,97.952a.976.976,0,0,0-.976-.976h-8.411a.976.976,0,0,0,0,1.952h8.411A.976.976,0,0,0,113.4,97.952Z" transform="translate(-91.472 -84.359)"/><path d="M144.615,135.369a2.029,2.029,0,0,0-2.027-2.027h-29.44a2.029,2.029,0,0,0-2.027,2.027v2.1a2.03,2.03,0,0,0,2.027,2.027h29.44a2.03,2.03,0,0,0,2.027-2.027Zm-31.543,2.1v-2.1a.076.076,0,0,1,.076-.076h16.3a.076.076,0,0,1,.076.076v2.1a.076.076,0,0,1-.076.076h-16.3A.076.076,0,0,1,113.072,137.472Zm29.591,0a.076.076,0,0,1-.076.076H131.468c0-.025,0-.05,0-.076v-2.1c0-.025,0-.05,0-.076h11.12a.076.076,0,0,1,.076.076v2.1Z" transform="translate(-98.502 -115.993)"/><path d="M113.147,204.149h29.44a2.029,2.029,0,0,0,2.027-2.027v-2.1a2.029,2.029,0,0,0-2.027-2.027h-29.44a2.029,2.029,0,0,0-2.027,2.027v2.1A2.03,2.03,0,0,0,113.147,204.149Zm29.516-4.13v2.1a.076.076,0,0,1-.076.076h-3.234c0-.025,0-.05,0-.076v-2.1c0-.026,0-.05,0-.076h3.234A.076.076,0,0,1,142.663,200.019Zm-29.591,0a.076.076,0,0,1,.076-.076H137.33a.076.076,0,0,1,.076.076v2.1a.076.076,0,0,1-.076.076H113.147a.076.076,0,0,1-.076-.076Z" transform="translate(-98.502 -172.232)"/><path d="M64.459,180.761V163.406a.976.976,0,1,0-1.952,0v17.355a13.524,13.524,0,0,0-2.313.368,2.02,2.02,0,0,0,.06-.479v-2.1a2.029,2.029,0,0,0-2.027-2.027H28.786a2.029,2.029,0,0,0-2.027,2.027v2.1a2.029,2.029,0,0,0,2.027,2.027H56.472a13.586,13.586,0,0,0,0,23.283H17.746a1.655,1.655,0,0,1-1.654-1.652v-4.426a.976.976,0,0,0-1.952,0v4.426a3.609,3.609,0,0,0,3.605,3.6H63.483a13.593,13.593,0,0,0,.976-27.151ZM58.3,178.547v2.1a.076.076,0,0,1-.076.076H43.164c0-.025,0-.05,0-.076v-2.1c0-.026,0-.05,0-.076H58.226A.076.076,0,0,1,58.3,178.547Zm-29.591,2.1v-2.1a.076.076,0,0,1,.076-.076H41.14a.076.076,0,0,1,.076.076v2.1a.076.076,0,0,1-.076.076H28.786A.076.076,0,0,1,28.71,180.65Zm34.773,25.31a11.641,11.641,0,0,1,0-23.283h0a11.641,11.641,0,0,1,0,23.283Z" transform="translate(-14.141 -141.297)"/><path d="M375.69,390.867l-1.767,1.767-.539-.539a.976.976,0,0,0-1.38,1.38l1.229,1.229a.976.976,0,0,0,1.38,0l2.457-2.457a.976.976,0,1,0-1.38-1.38Z" transform="translate(-325.195 -339.764)"/><path d="M348.23,355.223a.974.974,0,0,0-1.069.873,5.829,5.829,0,1,1-.889-3.739.976.976,0,1,0,1.643-1.053,7.781,7.781,0,1,0,1.188,4.989A.976.976,0,0,0,348.23,355.223Z" transform="translate(-292.02 -302.478)"/><path d="M220.17,362.58a.976.976,0,0,0,0-1.952h-4.028a.976.976,0,0,0,0,1.952Z" transform="translate(-189.011 -313.708)"/><path d="M110.462,393.929a.976.976,0,0,0,.976.976h17.651a.976.976,0,0,0,0-1.952H111.438A.976.976,0,0,0,110.462,393.929Z" transform="translate(-97.93 -341.827)"/><path d="M47.445,394.9h4.074a.976.976,0,0,0,0-1.952H47.445a.976.976,0,0,0,0,1.952Z" transform="translate(-42.263 -341.827)"/><path d="M65.188,360.628H47.445a.976.976,0,0,0,0,1.952H65.188a.976.976,0,0,0,0-1.952Z" transform="translate(-42.263 -313.708)"/><path d="M47.445,427.23H63.394a.976.976,0,1,0,0-1.952H47.445a.976.976,0,1,0,0,1.952Z" transform="translate(-42.263 -369.946)"/></g></g></g></svg>