<svg xmlns="http://www.w3.org/2000/svg" width="111" height="111" viewBox="0 0 111 111"><g transform="translate(-1025 -3831)"><g transform="translate(0 15)"><rect width="111" height="111" rx="12" transform="translate(1025 3816)" fill="#7ff8e4"/><g transform="translate(1039.735 3797.239)"><path d="M304.362,125.416v2.96a1.38,1.38,0,0,1-.763,1.235l-.617.309h16.566l-1.235-.617a2.761,2.761,0,0,1-1.526-2.469l0-23.139h-20.7v11.042A11.036,11.036,0,0,0,304.362,125.416Z" transform="translate(-245.1 -52.66)" fill="#f5b97d"/><circle cx="8.282" cy="8.282" r="8.282" transform="translate(4.052 41.372)" fill="#617881"/><path d="M68.5,86.812c0-8.385-5.371-15.183-13.756-15.183A15.183,15.183,0,0,0,39.564,86.812c0,6.9,6.8,11.042,15.183,11.042S68.5,93.713,68.5,86.812Z" transform="translate(-32.752 -26.116)" fill="#617881"/><path d="M49.226,101.826A12.609,12.609,0,0,1,44.2,96.435a15.128,15.128,0,0,0-4.64,10.912c0,6.864,6.726,10.994,15.049,11.038Z" transform="translate(-32.752 -46.651)" fill="#475959"/><path d="M45.616,272.032H34.574a11.042,11.042,0,0,0-11.042,11.042v16.563H52.518v-20.7A6.9,6.9,0,0,0,45.616,272.032Z" transform="translate(-19.48 -192.012)" fill="#a7fff1"/><path d="M34.574,276.174h2.76v-4.141h-2.76a11.042,11.042,0,0,0-11.042,11.042v16.563h4.141V283.075a6.909,6.909,0,0,1,6.9-6.9Z" transform="translate(-19.48 -192.013)" fill="#43efd4"/><path d="M93.182,244.374a5.521,5.521,0,0,1-5.521-5.521v-6.9H98.7v6.9A5.521,5.521,0,0,1,93.182,244.374Z" transform="translate(-72.567 -158.833)" fill="#f7d291"/><path d="M87.661,245.031A13.71,13.71,0,0,0,98.7,246.217v-6.248H87.661Z" transform="translate(-72.567 -165.47)" fill="#ecbd83"/><path d="M104.49,320.129H79.645v19.324H104.49a2.761,2.761,0,0,0,2.76-2.76v-13.8A2.76,2.76,0,0,0,104.49,320.129Z" transform="translate(-65.931 -231.828)" fill="#eceaec"/><path d="M66.373,320.129a2.761,2.761,0,0,0-2.76,2.76v13.8a2.761,2.761,0,0,0,2.76,2.76H91.218a2.761,2.761,0,0,0,2.76-2.76h0v-1.38H71.895a4.141,4.141,0,0,1-4.141-4.141V320.129Z" transform="translate(-52.66 -231.828)" fill="#dad8db"/><path d="M68.865,127.742c4.388,3.111,10.657,4.12,14.087,4.446a2.748,2.748,0,0,1,2.476,2.745v3.851a11.042,11.042,0,1,1-22.084,0v0a12.823,12.823,0,0,1,3.318-8.608Z" transform="translate(-52.437 -72.567)" fill="#ffe1a0"/><circle cx="2.76" cy="2.76" r="2.76" transform="translate(23.376 95.203)" fill="#fff"/><path d="M304.868,258.614,299.641,256H283.075l-7.99,4a5.521,5.521,0,0,0-3.052,4.938v26.954H307.92V263.552A5.521,5.521,0,0,0,304.868,258.614Z" transform="translate(-225.193 -178.741)" fill="#f2e3ff"/><path d="M281.693,298.661a6.9,6.9,0,0,0-2.59-5.389l-5.938-4.751a5.508,5.508,0,0,0-1.133,3.334v26.954h9.662V298.661Z" transform="translate(-225.191 -205.662)" fill="#e4c4ff"/><path d="M352.99,352.194H333.666a5.521,5.521,0,0,0-5.521,5.521l4.141,13.8h26.225v-13.8A5.521,5.521,0,0,0,352.99,352.194Z" transform="translate(-271.643 -258.372)" fill="#9b959d"/><path d="M304.362,125.416V103.694H296.08v11.042A11.037,11.037,0,0,0,304.362,125.416Z" transform="translate(-245.099 -52.66)" fill="#e3aa75"/><path d="M297.991,55.6H286.949a6.9,6.9,0,0,0-6.9,6.9,2.761,2.761,0,0,0,2.76,2.76h1.38a4.141,4.141,0,0,1,4.141,4.141V73.54a6.9,6.9,0,0,0,6.9,6.9h6.9a5.521,5.521,0,0,0,5.521-5.521V65.259A9.662,9.662,0,0,0,297.991,55.6Z" transform="translate(-231.828 -12.844)" fill="#617881"/><path d="M337.807,352.194h-4.141a5.521,5.521,0,0,0-5.521,5.521v13.8h4.141v-13.8A5.521,5.521,0,0,1,337.807,352.194Z" transform="translate(-271.643 -258.372)" fill="#857e87"/><path d="M286.949,55.6a6.9,6.9,0,0,0-6.9,6.9,2.761,2.761,0,0,0,2.76,2.76h1.38a4.141,4.141,0,0,1,4.141,4.141V55.6Z" transform="translate(-231.828 -12.844)" fill="#475959"/><path d="M67.532,145.865V136.3l-.869.959a12.823,12.823,0,0,0-3.318,8.608v0A11.024,11.024,0,0,0,76.481,156.7,11.041,11.041,0,0,1,67.532,145.865Z" transform="translate(-52.438 -79.648)" fill="#f7d291"/><path d="M112.069,209.179a1.291,1.291,0,0,0,.648,1.707,8.362,8.362,0,0,0,6.58,0,1.291,1.291,0,1,0-1.059-2.356,5.789,5.789,0,0,1-4.462,0A1.291,1.291,0,0,0,112.069,209.179Z" transform="translate(-92.678 -139.351)"/><path d="M105.232,172.3a1.291,1.291,0,0,0,1.291-1.291v-1.38a1.291,1.291,0,0,0-2.583,0v1.38A1.291,1.291,0,0,0,105.232,172.3Z" transform="translate(-86.044 -106.174)"/><path d="M153.329,172.3a1.291,1.291,0,0,0,1.291-1.291v-1.38a1.291,1.291,0,0,0-2.583,0v1.38A1.291,1.291,0,0,0,153.329,172.3Z" transform="translate(-125.859 -106.174)"/><path d="M132.311,352.709a4.052,4.052,0,1,0,4.052,4.052A4.057,4.057,0,0,0,132.311,352.709Zm0,5.521a1.469,1.469,0,1,1,1.469-1.469A1.471,1.471,0,0,1,132.311,358.23Z" transform="translate(-106.175 -258.798)"/><path d="M84.018,93.077V84.811a6.775,6.775,0,0,0-3.766-6.093L73.79,75.487a1.461,1.461,0,0,1-.812-1.314l0-5.831a6.822,6.822,0,0,0,4.141-6.266V52.414A10.966,10.966,0,0,0,66.164,41.461H55.122a8.2,8.2,0,0,0-8.193,8.193,4.058,4.058,0,0,0,2.76,3.84v8.583a12.321,12.321,0,0,0,8.282,11.638v2.056L49.315,80.1a6.775,6.775,0,0,0-3.766,6.093v20.141H42.29a4.164,4.164,0,0,0,.32-1.6V91.2a4.192,4.192,0,0,0-4.187-4.187H34.329v-.089a8.2,8.2,0,0,0-6.9-8.09V77.263a12.366,12.366,0,0,0,6.716-9.2,10.644,10.644,0,0,0,2.9-7.37A17.507,17.507,0,0,0,32.967,49.11a14.391,14.391,0,0,0-11.018-4.888,16.619,16.619,0,0,0-1.719.089A9.573,9.573,0,1,0,5.937,56.818,16.458,16.458,0,0,0,5.475,60.7a10.684,10.684,0,0,0,4.6,8.837,12.352,12.352,0,0,0,3.73,5.932V78.8A12.351,12.351,0,0,0,2.761,91.062v15.272H1.291a1.291,1.291,0,0,0,0,2.583H45.549v4.23a1.291,1.291,0,0,0,2.583,0V86.192a4.244,4.244,0,0,1,.3-1.558l4.764,3.97a5.6,5.6,0,0,1,2.019,4.31v20.232a1.291,1.291,0,0,0,2.583,0v-13.8a4.235,4.235,0,0,1,4.23-4.23H81.347a4.234,4.234,0,0,1,4.23,4.23v13.8a1.291,1.291,0,0,0,2.583,0v-13.8A6.822,6.822,0,0,0,84.018,93.077ZM5.3,49.654a6.986,6.986,0,0,1,12.079-4.786,16.552,16.552,0,0,0-10.508,9.2A6.947,6.947,0,0,1,5.3,49.654Zm4.334,15.9A8.024,8.024,0,0,1,8.058,60.7,13.907,13.907,0,0,1,21.949,46.8a11.689,11.689,0,0,1,9.074,4.006A14.932,14.932,0,0,1,34.46,60.7a8.615,8.615,0,0,1-.178,1.749v-.079a4.022,4.022,0,0,0-3.645-4.031c-3.243-.308-9.3-1.266-13.462-4.214a1.291,1.291,0,0,0-1.7.186l-2.2,2.432a14.086,14.086,0,0,0-3.637,8.814Zm2.567.66a11.509,11.509,0,0,1,2.984-7.741l1.459-1.611c4.554,2.8,10.486,3.734,13.751,4.044A1.45,1.45,0,0,1,31.7,62.366v3.851a9.751,9.751,0,1,1-19.5,0ZM24.845,78.2v.435a4.23,4.23,0,0,1-8.459,0V77.219a12.282,12.282,0,0,0,8.459.985ZM40.028,104.73a1.606,1.606,0,0,1-1.6,1.6H13.849a1.606,1.606,0,0,1-1.6-1.6V97.963a1.291,1.291,0,1,0-2.583,0v6.767a4.164,4.164,0,0,0,.32,1.6H5.343V91.062a9.762,9.762,0,0,1,9.019-9.72,6.81,6.81,0,0,0,12.5.018,5.617,5.617,0,0,1,4.887,5.562v.089h-17.9A4.192,4.192,0,0,0,9.662,91.2v1.245a1.291,1.291,0,0,0,2.583,0V91.2a1.606,1.606,0,0,1,1.6-1.6H38.424a1.606,1.606,0,0,1,1.6,1.6ZM52.272,62.076v-8.37h.089a2.853,2.853,0,0,1,2.849,2.85V60.7A8.2,8.2,0,0,0,63.4,68.889h1.38a1.291,1.291,0,0,0,0-2.583H63.4a5.616,5.616,0,0,1-5.61-5.61V56.555a5.438,5.438,0,0,0-5.432-5.432h-1.38a1.471,1.471,0,0,1-1.469-1.469,5.616,5.616,0,0,1,5.61-5.61H66.164a8.38,8.38,0,0,1,8.37,8.37v9.662a4.234,4.234,0,0,1-4.23,4.23,1.291,1.291,0,0,0,0,2.583l.089,0,0,5.287a4.054,4.054,0,0,0,.418,1.794H60.554V72.757a1.291,1.291,0,0,0-.969-1.25,9.74,9.74,0,0,1-7.313-9.43ZM81.436,92.533l-.089,0H62.023a6.776,6.776,0,0,0-4.23,1.478V92.914a8.171,8.171,0,0,0-2.948-6.294l-4.776-3.98a4.291,4.291,0,0,1,.4-.231l7.717-3.859H74.143L79.1,81.028a4.206,4.206,0,0,1,2.338,3.783Z"/></g></g></g></svg>