<svg xmlns="http://www.w3.org/2000/svg" width="56.439" height="58.313" viewBox="0 0 56.439 58.313"><g transform="translate(-820.176 -674.766)"><g transform="translate(859.228 697.859)"><path d="M3153.9,2049.454h-9.073v2.88h9.987v-1.967A.915.915,0,0,0,3153.9,2049.454Z" transform="translate(-3144.829 -2049.454)" fill="#fff"/></g><g transform="translate(820.817 686.891)"><path d="M896.42,1402.858c0-3.481-3.1-6.313-6.906-6.313H865.232c-3.806,0-6.9,2.832-6.9,6.313V1414.2a6.546,6.546,0,0,0,5.968,6.254,7.093,7.093,0,0,0,.935.06H890.8a.16.16,0,0,1,.075.019l1.329.706,4.214,2.239v-20.618Z" transform="translate(-858.329 -1396.545)" fill="#fce26c"/></g><g transform="translate(822.909 689.027)"><path d="M1016.9,1523.692a.277.277,0,0,0-.044.017.732.732,0,0,0-.294.309,3.068,3.068,0,0,0-.266,1.652V1539.2a3.764,3.764,0,0,1-3.764,3.765l-24.028-.011c-.718.042-1.432,0-2.132,0a7.751,7.751,0,0,0-3.17.294c-.728.327-.126.684.316.991a7.208,7.208,0,0,0,3.22,1.219,7.094,7.094,0,0,0,.935.06h25.57a.16.16,0,0,1,.075.019l1.329.706,4.214,2.239V1527.86a5.823,5.823,0,0,0-.568-2.5C1018.122,1525,1017.413,1523.548,1016.9,1523.692Z" transform="translate(-982.864 -1523.682)" fill="#fcba5d"/></g><g transform="translate(826.527 675.416)"><path d="M1218.146,721.613V731.2a.8.8,0,0,1-.8.8h-7.852a.481.481,0,0,0-.481.481v6.484a.8.8,0,0,1-.8.8h-9.531a.481.481,0,0,0-.481.481v2.884a.481.481,0,0,0,.481.481h13.7a.481.481,0,0,0,.481-.481v-6.484a.8.8,0,0,1,.8-.8h7.852a.481.481,0,0,0,.481-.481V721.614a.8.8,0,0,1,.972-.783l2.02.441a.481.481,0,0,0,.491-.753l-5.016-6.874a.494.494,0,0,0-.776,0l-5.019,6.873a.481.481,0,0,0,.49.753l2.021-.441a.8.8,0,0,1,.972.783Z" transform="translate(-1198.2 -713.456)" fill="#96a1ff"/></g><g transform="translate(859.228 693.731)"><path d="M3153.9,1807.523a1.236,1.236,0,0,1,1.235,1.234v1.966h4.074c.058,0,.107.008.16.011v-2.95a4.073,4.073,0,0,0-4.067-4.07h-10.474v3.808Z" transform="translate(-3144.828 -1803.715)" fill="#9cf2ff"/></g><g transform="translate(871.206 695.084)"><path d="M3857.807,1888.058v1.815h2.4c.058,0,.107.008.16.011v-2.95a4.045,4.045,0,0,0-1.048-2.717c-.056.056-.113.116-.169.179A5.5,5.5,0,0,0,3857.807,1888.058Z" transform="translate(-3857.807 -1884.217)" fill="#7dcfff"/></g><g transform="translate(831.266 711.179)"><path d="M1502.307,2842.343h-21.984v8.753a.8.8,0,0,0,.8.8h22.469a2.7,2.7,0,0,1-.062-.542v-8.362Z" transform="translate(-1480.323 -2842.343)" fill="#fff"/></g><g transform="translate(826.924 711.135)"><path d="M1252.078,2851.428a2.7,2.7,0,0,1-2.541-1.823h-22.551a1.123,1.123,0,0,1-1.122-1.122v-8.753h-3.226a7.48,7.48,0,0,1-.8-.045v10.122a4.071,4.071,0,0,0,4.067,4.067h13.258a.16.16,0,0,1,.16.16v2.855a.16.16,0,0,1-.16.16h-4.051a.8.8,0,0,0-.8.8v2.336a.8.8,0,0,0,.8.8h19.872a.8.8,0,0,0,.8-.8v-2.336a.8.8,0,0,0-.8-.8h-4.051a.16.16,0,0,1-.16-.16v-2.855a.16.16,0,0,1,.16-.16h13.684a4.084,4.084,0,0,0,3.728-2.446Z" transform="translate(-1221.842 -2839.685)" fill="#9cf2ff"/></g><g transform="translate(840.009 722.759)"><path d="M2017.928,3531.79a2.651,2.651,0,0,1-.768-.118h-1.044a2.052,2.052,0,0,0-2.053,2.052v3.169a1.893,1.893,0,0,1-1.893,1.893h-5.275a8.655,8.655,0,0,0-6.092,2.514l-.026.025a.786.786,0,0,0,.188.025h19.872a.8.8,0,0,0,.8-.8v-2.336a.8.8,0,0,0-.8-.8h-4.211V3534.4a.16.16,0,0,1,.16-.16h13.684a4.084,4.084,0,0,0,3.728-2.446Z" transform="translate(-2000.777 -3531.672)" fill="#7dcfff"/></g><g transform="translate(854.795 701.06)"><path d="M2900.023,2240.005a1.983,1.983,0,0,0-.3-.021h-14.381v13.029a.16.16,0,0,1-.236.141l-4.2-2.23v8.192a2.364,2.364,0,0,0,2.365,2.365h16.51a2.378,2.378,0,0,0,2.3-2.365v-16.77A2.364,2.364,0,0,0,2900.023,2240.005Zm-7.412,3.468a4.047,4.047,0,1,1-4.047,4.047A4.052,4.052,0,0,1,2892.611,2243.473Z" transform="translate(-2880.908 -2239.984)" fill="#fff"/></g><g transform="translate(855.862 702.107)"><path d="M2964.138,2302.3a7.412,7.412,0,0,0-2.159,5.228v10.293a2.378,2.378,0,0,1-2.3,2.365h-11.782a3.779,3.779,0,0,0-3.32,1.834,1.841,1.841,0,0,0-.143.328,2.341,2.341,0,0,0,1.3.4h16.51a2.378,2.378,0,0,0,2.3-2.365v-16.77A2.346,2.346,0,0,0,2964.138,2302.3Z" transform="translate(-2944.43 -2302.299)" fill="#ededed"/></g><g transform="translate(860.234 714.156)"><path d="M3209.425,3023.775l.8-4.194a.154.154,0,0,1,.015-.038H3208.2a3.277,3.277,0,0,0-3.248,2.871l-.227,1.842a.578.578,0,0,0,.574.649h4.964l-.811-1A.161.161,0,0,1,3209.425,3023.775Z" transform="translate(-3204.726 -3019.544)" fill="#9cf2ff"/></g><g transform="translate(862.772 704.87)"><path d="M3359.476,2474.2a3.727,3.727,0,1,0-3.727-3.727A3.731,3.731,0,0,0,3359.476,2474.2Z" transform="translate(-3355.749 -2466.749)" fill="#fff"/></g><g transform="translate(865.262 714.156)"><path d="M3505.681,3019.641a.158.158,0,0,1,.015-.1h-.939a.156.156,0,0,1,.015.1l-.782,4.121,1.236,1.523,1.236-1.523Z" transform="translate(-3503.991 -3019.544)" fill="#fff"/></g><g transform="translate(867.219 714.156)"><path d="M3625.8,3022.415a3.277,3.277,0,0,0-3.247-2.871h-2.031a.157.157,0,0,1,.015.038l.8,4.194a.161.161,0,0,1-.033.131l-.811,1h4.964a.579.579,0,0,0,.574-.649Z" transform="translate(-3620.485 -3019.544)" fill="#9cf2ff"/></g><g transform="translate(826.527 675.443)"><g transform="translate(16.368 0)"><path d="M2177.9,715.085a.452.452,0,0,0-.231.161l-5.019,6.873a.481.481,0,0,0,.491.753l1.4-.305,1.661-2.274A8.832,8.832,0,0,0,2177.9,715.085Z" transform="translate(-2172.556 -715.085)" fill="#fff"/></g><g transform="translate(0 7.399)"><path d="M1219.429,1160.671v-4.363a.8.8,0,0,0-.972-.783l-.31.068v10.231a.8.8,0,0,1-.8.8h-7.852a.481.481,0,0,0-.481.481v6.484a.8.8,0,0,1-.8.8h-9.531a.481.481,0,0,0-.481.481v2.884a.479.479,0,0,0,.139.337q.289-.3.581-.59a1.912,1.912,0,0,0,.563-1.349.481.481,0,0,1,.481-.481h9.531a.8.8,0,0,0,.8-.8v-6.484a.481.481,0,0,1,.481-.481h7.852a.8.8,0,0,0,.8-.8v-6.422A.036.036,0,0,0,1219.429,1160.671Z" transform="translate(-1198.201 -1155.506)" fill="#fff"/></g></g><g transform="translate(859.228 693.731)"><path d="M3156.616,1804.855a1.711,1.711,0,0,0,.175-.08,2.453,2.453,0,0,0,.588-.481,4.017,4.017,0,0,0-2.075-.579h-10.475V1805h9.694A5.941,5.941,0,0,0,3156.616,1804.855Z" transform="translate(-3144.829 -1803.715)" fill="#fff"/></g><g transform="translate(820.817 686.891)"><g transform="translate(29.501 0.002)"><path d="M2619.463,1398.119a.388.388,0,0,0,.138-.064c.589-.442-1.585-.988-1.834-1.044a15.725,15.725,0,0,0-3.341-.332v1.28h2.966c.587,0,1.169.141,1.763.175A1.04,1.04,0,0,0,2619.463,1398.119Z" transform="translate(-2614.426 -1396.679)" fill="#fff"/></g><g transform="translate(35.81 1.846)"><path d="M2990.205,1506.434l-.231.231a6.991,6.991,0,0,1,1.057.657A5.887,5.887,0,0,0,2990.205,1506.434Z" transform="translate(-2989.974 -1506.434)" fill="#fff"/></g><g transform="translate(0 0)"><path d="M865.232,1396.545c-3.806,0-6.9,2.832-6.9,6.313V1414.2a5.761,5.761,0,0,0,.3,1.827c.139.415.348,1.2.791,1.382a5.117,5.117,0,0,0,.227-1.107c.026-.283-.052-.559-.035-.821q0-1.233,0-2.466v-8.875c0-3.481,3.1-6.313,6.9-6.313h17.15v-1.282Z" transform="translate(-858.329 -1396.545)" fill="#fff"/></g></g><g transform="translate(826.924 711.135)"><path d="M1223.123,2851.087v-11.359h-.486a7.479,7.479,0,0,1-.8-.045v10.122a4.063,4.063,0,0,0,1.908,3.44A4.038,4.038,0,0,1,1223.123,2851.087Z" transform="translate(-1221.841 -2839.683)" fill="#fff"/></g><g transform="translate(860.235 714.156)"><path d="M3208.213,3019.543a3.278,3.278,0,0,0-3.248,2.871l-.227,1.842a.579.579,0,0,0,.063.337c.295-.295.623-.655.949-1.009a11.991,11.991,0,0,0,1.119-1.483,3.014,3.014,0,0,1,2.626-1.276h.5l.236-1.244a.152.152,0,0,1,.015-.038Z" transform="translate(-3204.735 -3019.543)" fill="#fff"/></g><g transform="translate(867.252 714.156)"><path d="M3626.406,3020.186a3.249,3.249,0,0,0-1.932-.642h-2.031a.168.168,0,0,1,.015.038l.236,1.244h2.156a2.215,2.215,0,0,0,1.556-.64Z" transform="translate(-3622.442 -3019.544)" fill="#fff"/></g><g transform="translate(859.594 713.515)"><path d="M3179.167,2988.035h-5.3a.481.481,0,0,0-.769,0h-5.3a1.219,1.219,0,0,1-1.21-1.368l.227-1.842a3.92,3.92,0,0,1,3.884-3.434h5.57a3.919,3.919,0,0,1,3.884,3.433l.227,1.842a1.22,1.22,0,0,1-1.21,1.369Zm-8.47-5.683a2.957,2.957,0,0,0-2.93,2.59l-.227,1.841a.258.258,0,0,0,.256.29h5.3a.481.481,0,0,0,.769,0h5.3a.258.258,0,0,0,.256-.29l-.227-1.842a2.956,2.956,0,0,0-2.93-2.589h-5.57Z" transform="translate(-3166.577 -2981.391)" fill="#000d42"/></g><g transform="translate(862.131 704.229)"><path d="M3321.964,2437.332a4.368,4.368,0,1,1,4.368-4.368A4.373,4.373,0,0,1,3321.964,2437.332Zm0-7.774a3.406,3.406,0,1,0,3.406,3.406A3.41,3.41,0,0,0,3321.964,2429.558Z" transform="translate(-3317.597 -2428.597)" fill="#000d42"/></g><g transform="translate(864.61 713.743)"><path d="M3467.066,3001.835a.48.48,0,0,1-.373-.178l-1.408-1.734a.481.481,0,0,1-.1-.393l.8-4.194a.481.481,0,1,1,.945.179l-.754,3.975.894,1.1.894-1.1-.754-3.975a.481.481,0,1,1,.944-.179l.8,4.194a.481.481,0,0,1-.1.393l-1.408,1.734A.48.48,0,0,1,3467.066,3001.835Z" transform="translate(-3465.178 -2994.945)" fill="#000d42"/></g><g transform="translate(854.154 700.419)"><path d="M2862.209,2224.61H2845.76a3,3,0,0,1-3.006-3.006v-8.46a.481.481,0,1,1,.961,0v8.46a2.083,2.083,0,0,0,.081.57,2.053,2.053,0,0,0,1.964,1.475h16.51a2.054,2.054,0,0,0,1.984-2.045v-16.77a2.043,2.043,0,0,0-1.784-2.022,1.658,1.658,0,0,0-.26-.019h-14.543a.481.481,0,1,1,0-.961h14.543a2.627,2.627,0,0,1,.393.028,3,3,0,0,1,2.613,2.975v16.77a3.024,3.024,0,0,1-2.934,3.006Z" transform="translate(-2842.754 -2201.831)" fill="#000d42"/></g><g transform="translate(825.886 674.766)"><path d="M1174.867,706.213h-13.7a1.123,1.123,0,0,1-1.122-1.122v-2.884a1.123,1.123,0,0,1,1.122-1.122h9.53a.16.16,0,0,0,.16-.16v-6.484a1.123,1.123,0,0,1,1.122-1.122h7.852a.16.16,0,0,0,.16-.16v-9.586a.16.16,0,0,0-.194-.157l-2.021.44a1.122,1.122,0,0,1-1.145-1.757l5.019-6.873a1.122,1.122,0,0,1,1.812,0l5.016,6.874a1.122,1.122,0,0,1-1.145,1.757l-2.021-.441a.16.16,0,0,0-.194.157v13.752a1.123,1.123,0,0,1-1.122,1.122h-7.852a.16.16,0,0,0-.16.16v6.484a1.123,1.123,0,0,1-1.122,1.122Zm-13.7-4.166a.16.16,0,0,0-.16.16v2.884a.16.16,0,0,0,.16.16h13.7a.16.16,0,0,0,.16-.16v-6.484a1.123,1.123,0,0,1,1.122-1.122H1184a.16.16,0,0,0,.16-.16V683.573a1.121,1.121,0,0,1,1.361-1.1l2.021.441a.16.16,0,0,0,.164-.251l-5.016-6.874a.16.16,0,0,0-.258,0l-5.019,6.873a.16.16,0,0,0,.163.251l2.021-.44a1.121,1.121,0,0,1,1.36,1.1v9.586a1.123,1.123,0,0,1-1.122,1.122h-7.852a.16.16,0,0,0-.16.16v6.484a1.123,1.123,0,0,1-1.122,1.122Z" transform="translate(-1160.049 -674.766)" fill="#000d42"/></g><g transform="translate(820.176 686.25)"><path d="M859.068,1386.711a.48.48,0,0,1-.226-.056l-5.672-3.014H827.72a7.716,7.716,0,0,1-1.019-.065,7.185,7.185,0,0,1-6.525-6.889v-11.341c0-3.834,3.384-6.954,7.544-6.954h18.593a.481.481,0,0,1,0,.961H827.72c-3.629,0-6.582,2.688-6.582,5.993v11.341a6.226,6.226,0,0,0,5.686,5.936,6.787,6.787,0,0,0,.9.057h25.57a.479.479,0,0,1,.226.056l5.072,2.695v-20.085c0-3.3-2.954-5.993-6.586-5.993h-1.522a.481.481,0,0,1,0-.961H852c4.162,0,7.547,3.12,7.547,6.954v20.885a.481.481,0,0,1-.481.48Z" transform="translate(-820.176 -1358.391)" fill="#000d42"/></g><g transform="translate(858.586 693.09)"><path d="M3121.927,1773.874a.481.481,0,0,1-.481-.481v-3.121a3.752,3.752,0,0,0-3.746-3.749h-10.636a.481.481,0,1,1,0-.961H3117.7a4.715,4.715,0,0,1,4.708,4.711v3.121A.481.481,0,0,1,3121.927,1773.874Z" transform="translate(-3106.583 -1765.561)" fill="#000d42"/></g><g transform="translate(830.625 710.537)"><path d="M1466.279,2814.916h-22.667a1.444,1.444,0,0,1-1.442-1.442v-8.916a.481.481,0,0,1,.961,0v8.916a.481.481,0,0,0,.481.481h22.667a.481.481,0,0,1,0,.961Z" transform="translate(-1442.17 -2804.078)" fill="#000d42"/></g><g transform="translate(826.283 710.476)"><path d="M1217.476,2823.076H1197.6a1.444,1.444,0,0,1-1.442-1.442V2819.3a1.444,1.444,0,0,1,1.442-1.442h3.57v-1.894H1188.4a4.713,4.713,0,0,1-4.708-4.708v-10.3a.481.481,0,0,1,.961,0v10.3A3.751,3.751,0,0,0,1188.4,2815h13.258a.48.48,0,0,1,.481.48v2.856a.481.481,0,0,1-.481.48H1197.6a.481.481,0,0,0-.481.481v2.336a.481.481,0,0,0,.481.48h19.872a.481.481,0,0,0,.481-.48V2819.3a.481.481,0,0,0-.481-.481h-4.051a.481.481,0,0,1-.481-.48v-2.856a.48.48,0,0,1,.481-.48h13.684a3.763,3.763,0,0,0,3.516-2.451.481.481,0,1,1,.9.333,4.728,4.728,0,0,1-4.418,3.08h-13.2v1.894h3.57a1.444,1.444,0,0,1,1.442,1.442v2.336A1.444,1.444,0,0,1,1217.476,2823.076Z" transform="translate(-1183.689 -2800.473)" fill="#000d42"/></g><g transform="translate(858.587 697.219)"><path d="M3117.463,2015.462a.481.481,0,0,1-.481-.481v-2.127a.594.594,0,0,0-.594-.593h-9.233a.481.481,0,0,1,0-.961h9.233a1.557,1.557,0,0,1,1.555,1.555v2.127A.481.481,0,0,1,3117.463,2015.462Z" transform="translate(-3106.675 -2011.3)" fill="#000d42"/></g></g></svg>