<svg xmlns="http://www.w3.org/2000/svg" width="111" height="111" viewBox="0 0 111 111"><g transform="translate(-1025 -4174)"><rect width="111" height="111" rx="12" transform="translate(1025 4174)" fill="#7ff8e4"/><g transform="translate(1054.629 4192.999)"><path d="M396.65,269.181a2.015,2.015,0,0,1-2.848,0l-13.2-13.2,2.848-2.848,13.2,13.2A2.015,2.015,0,0,1,396.65,269.181Zm0,0" transform="translate(-329.505 -219.15)" fill="#484b63"/><path d="M7.5,62.5H49.792v59.343H7.5Zm0,0" transform="translate(-6.493 -54.108)" fill="#e4c4ff"/><path d="M40,307.727h8.056v21.75H40Zm0,0" transform="translate(-34.63 -266.41)" fill="#43efd4"/><path d="M134,247.727h8.056v29.806H134Zm0,0" transform="translate(-116.009 -214.466)" fill="#43efd4"/><path d="M230,269.727h8.056v26.852H230Zm0,0" transform="translate(-199.12 -233.512)" fill="#a7fff1"/><path d="M70,307.727h4.028v21.75H70Zm0,0" transform="translate(-60.602 -266.41)" fill="#a7fff1"/><path d="M164,247.727h4.028v29.806H164Zm0,0" transform="translate(-141.981 -214.466)" fill="#a7fff1"/><path d="M260,269.727h4.028v26.852H260Zm0,0" transform="translate(-225.092 -233.512)" fill="#43efd4"/><path d="M173.355,13.756a21.347,21.347,0,1,0,0,30.189A21.347,21.347,0,0,0,173.355,13.756Zm0,0" transform="translate(-118.531 -6.496)" fill="#50536e"/><path d="M196.531,67.119a17.32,17.32,0,1,1,0-24.494A17.339,17.339,0,0,1,196.531,67.119Zm0,0" transform="translate(-144.555 -32.517)" fill="#fff"/><path d="M295.174,42.629a17.294,17.294,0,0,0-14.26-4.948,17.311,17.311,0,0,1,0,34.389,17.313,17.313,0,0,0,14.26-29.441Zm0,0" transform="translate(-243.199 -32.521)" fill="#dbfff9"/><path d="M67.858,46.207,57.528,35.874a22.361,22.361,0,0,0,.9-25.8,1.007,1.007,0,1,0-1.682,1.107,20.359,20.359,0,1,1-2.63-3.225l.055.056A1.007,1.007,0,0,0,55.6,6.6l-.058-.058a22.379,22.379,0,0,0-31.615,0q-.411.411-.8.837H1.007A1.007,1.007,0,0,0,0,8.383v4.454a1.007,1.007,0,1,0,2.014,0V9.39h19.5a22.182,22.182,0,0,0-1.986,3.388H6.982a1.007,1.007,0,1,0,0,2.014H18.694a22.309,22.309,0,0,0-.723,2.462H6.982a1.007,1.007,0,1,0,0,2.014H17.6a22.5,22.5,0,0,0-.2,2.461H6.982a1.007,1.007,0,0,0,0,2.014H17.431a22.377,22.377,0,0,0,2.254,8.505H17.991a1.007,1.007,0,0,0-1.007,1.007v29.81a1.007,1.007,0,0,0,1.007,1.007h8.056a1.007,1.007,0,0,0,1.007-1.007v-22.3a22.187,22.187,0,0,0,2.819,1.651V63.066a1.007,1.007,0,0,0,1.007,1.007h8.056a1.007,1.007,0,0,0,1.007-1.007V44.693a22.72,22.72,0,0,0,2.35-.145V60.1a1.007,1.007,0,1,0,2.014,0V44.224a22.2,22.2,0,0,0,8.949-4.076l10.329,10.33a3.021,3.021,0,0,0,4.274-4.272ZM25.04,62.059H19v-27.8h1.814a22.368,22.368,0,0,0,3.111,3.895q.544.544,1.117,1.042Zm6.848,0V43.283a22.415,22.415,0,0,0,6.042,1.339V62.059Zm34.547-13a1.007,1.007,0,0,1-1.425,0l-10.2-10.2c.247-.226.49-.457.729-.7s.47-.481.7-.729l10.2,10.2A1.008,1.008,0,0,1,66.435,49.054Zm0,0"/><path d="M43.3,167.854a1.007,1.007,0,0,0-1.007,1.007v2.283H2.014V121.616a1.007,1.007,0,1,0-2.014,0V172.15a1.007,1.007,0,0,0,1.007,1.007H43.3a1.007,1.007,0,0,0,1.007-1.007v-3.29A1.007,1.007,0,0,0,43.3,167.854Zm0,0" transform="translate(0 -104.416)"/><path d="M32.5,301.2v21.754a1.007,1.007,0,0,0,1.007,1.007h8.056a1.007,1.007,0,0,0,1.007-1.007V301.2a1.007,1.007,0,0,0-1.007-1.007H33.507A1.007,1.007,0,0,0,32.5,301.2Zm2.014,1.007h6.042v19.739H34.514Zm0,0" transform="translate(-28.137 -259.89)"/><path d="M53.037,197.194a1.007,1.007,0,0,0,0-2.014h-7.53a1.007,1.007,0,0,0,0,2.014Zm0,0" transform="translate(-38.525 -168.974)"/><path d="M177.8,29.988a18.3,18.3,0,1,0,12.959,5.36A18.2,18.2,0,0,0,177.8,29.988Zm11.535,29.858A16.336,16.336,0,1,1,194.1,48.31,16.2,16.2,0,0,1,189.331,59.846Zm0,0" transform="translate(-138.065 -25.961)"/></g></g></svg>