<svg xmlns="http://www.w3.org/2000/svg" width="143.738" height="143.5" viewBox="0 0 143.738 143.5"><g transform="translate(0 -0.425)"><g transform="translate(2.106 2.292)"><g transform="translate(0 11.23)"><path d="M135.47,175.373H19.057A11.557,11.557,0,0,1,7.5,163.815V58.632A11.557,11.557,0,0,1,19.057,47.075H135.47a11.557,11.557,0,0,1,11.557,11.557V163.815A11.557,11.557,0,0,1,135.47,175.373Z" transform="translate(-7.5 -47.075)" fill="#e1f3ff"/><path d="M434.562,47.075h-11.23a11.557,11.557,0,0,1,11.557,11.557V163.815a11.557,11.557,0,0,1-11.557,11.557h11.23a11.557,11.557,0,0,0,11.557-11.557V58.632a11.557,11.557,0,0,0-11.557-11.557Z" transform="translate(-306.592 -47.075)" fill="#ccebff"/><path d="M147.027,78.188H7.5V58.632A11.557,11.557,0,0,1,19.057,47.075H135.47a11.557,11.557,0,0,1,11.557,11.557Z" transform="translate(-7.5 -47.075)" fill="#e4c4ff"/><path d="M434.562,47.075h-11.23a11.557,11.557,0,0,1,11.557,11.557V78.188h11.23V58.632a11.557,11.557,0,0,0-11.557-11.557Z" transform="translate(-306.592 -47.075)" fill="#af58fa"/><g transform="translate(9.069 39.246)"><path d="M152.35,279.825H47.47a7.666,7.666,0,0,1,0-15.331H152.35a7.666,7.666,0,0,1,0,15.331Z" transform="translate(-39.804 -242.702)" fill="#a7fff1"/><path d="M80.52,357.448H47.47a7.666,7.666,0,0,1,0-15.331H80.52a7.666,7.666,0,0,1,0,15.331Z" transform="translate(-39.804 -298.533)" fill="#a7fff1"/><path d="M336.378,202.2H303.328a7.666,7.666,0,0,1,0-15.331h33.051a7.666,7.666,0,1,1,0,15.331Z" transform="translate(-223.833 -186.871)" fill="#a7fff1"/></g></g><g transform="translate(21.221)"><path d="M87.959,31.757a4.868,4.868,0,0,1-4.868-4.868V11.943a4.868,4.868,0,0,1,9.737,0V26.888A4.868,4.868,0,0,1,87.959,31.757Z" transform="translate(-83.091 -7.075)" fill="#e1f3ff"/><path d="M399.1,31.757a4.868,4.868,0,0,1-4.868-4.868V11.943a4.868,4.868,0,0,1,9.737,0V26.888A4.868,4.868,0,0,1,399.1,31.757Z" transform="translate(-306.879 -7.075)" fill="#e1f3ff"/></g></g><g transform="translate(0 0.425)"><path d="M130.075,11.416h-7.558V7.16c0-8.973-13.948-8.987-13.948,0v4.256H59.557c-2.722,0-2.722,4.211,0,4.211h49.013v6.478c0,8.973,13.948,8.987,13.948,0V15.627h7.558a9.463,9.463,0,0,1,9.452,9.452v17.45H4.211V25.079a9.463,9.463,0,0,1,9.452-9.452h7.558v6.478c0,8.973,13.948,8.987,13.948,0V15.627H45.893c2.722,0,2.722-4.211,0-4.211H35.169V7.16c0-8.973-13.948-8.988-13.948,0v4.256H13.663A13.678,13.678,0,0,0,0,25.079V130.262a13.679,13.679,0,0,0,13.663,13.663h95.778c2.722,0,2.722-4.211,0-4.211H13.663a9.463,9.463,0,0,1-9.452-9.452V46.74H139.527v83.522a9.463,9.463,0,0,1-9.452,9.452h-7.094c-2.722,0-2.722,4.211,0,4.211h7.094a13.679,13.679,0,0,0,13.663-13.663V25.079a13.678,13.678,0,0,0-13.663-13.663ZM118.306,22.105c0,3.456-5.526,3.615-5.526,0V7.16c0-3.456,5.526-3.615,5.526,0ZM25.432,7.16c0-3.456,5.526-3.615,5.526,0V22.105c0,3.456-5.526,3.615-5.526,0Z" transform="translate(0 -0.425)" fill="#060606"/><path d="M156.726,266.765a9.782,9.782,0,0,0-9.771-9.771H42.074a9.771,9.771,0,1,0,0,19.542h104.88A9.782,9.782,0,0,0,156.726,266.765Zm-120.211,0a5.567,5.567,0,0,1,5.56-5.56h104.88a5.56,5.56,0,0,1,0,11.12H42.074a5.566,5.566,0,0,1-5.56-5.56Z" transform="translate(-23.234 -184.965)" fill="#060606"/><path d="M84.9,344.388a9.782,9.782,0,0,0-9.771-9.771H42.074a9.771,9.771,0,1,0,0,19.542H75.125A9.782,9.782,0,0,0,84.9,344.388Zm-9.771,5.56H42.074a5.56,5.56,0,1,1,0-11.12H75.125a5.56,5.56,0,0,1,0,11.12Z" transform="translate(-23.234 -240.796)" fill="#060606"/><path d="M330.984,198.913a9.771,9.771,0,0,0,0-19.542H297.933a9.771,9.771,0,0,0,0,19.542Zm-38.611-9.771a5.567,5.567,0,0,1,5.56-5.56h33.051a5.56,5.56,0,0,1,0,11.12H297.933A5.567,5.567,0,0,1,292.373,189.142Z" transform="translate(-207.264 -129.134)" fill="#060606"/><path d="M68.543,210.887H74.91a2.106,2.106,0,0,0,0-4.211H68.543a2.106,2.106,0,0,0,0,4.211Z" transform="translate(-47.786 -148.773)" fill="#060606"/><path d="M159.366,210.887a2.106,2.106,0,0,0,0-4.211H153a2.106,2.106,0,1,0,0,4.211Z" transform="translate(-108.531 -148.773)" fill="#060606"/><path d="M245.029,210.887a2.106,2.106,0,1,0,0-4.211h-6.367a2.106,2.106,0,0,0,0,4.211Z" transform="translate(-170.145 -148.773)" fill="#060606"/><path d="M324.327,210.887h6.367a2.106,2.106,0,0,0,0-4.211h-6.367a2.106,2.106,0,0,0,0,4.211Z" transform="translate(-231.761 -148.773)" fill="#060606"/><path d="M409.99,210.887h6.367a2.106,2.106,0,0,0,0-4.211H409.99a2.106,2.106,0,1,0,0,4.211Z" transform="translate(-293.375 -148.773)" fill="#060606"/><path d="M74.909,284.3H68.542a2.106,2.106,0,1,0,0,4.211h6.367a2.106,2.106,0,1,0,0-4.211Z" transform="translate(-47.785 -204.604)" fill="#060606"/><path d="M159.366,284.3H153a2.106,2.106,0,1,0,0,4.211h6.367a2.106,2.106,0,0,0,0-4.211Z" transform="translate(-108.531 -204.604)" fill="#060606"/><path d="M245.029,284.3h-6.367a2.106,2.106,0,0,0,0,4.211h6.367a2.106,2.106,0,1,0,0-4.211Z" transform="translate(-170.145 -204.604)" fill="#060606"/><path d="M330.693,284.3h-6.367a2.106,2.106,0,0,0,0,4.211h6.367a2.106,2.106,0,1,0,0-4.211Z" transform="translate(-231.76 -204.604)" fill="#060606"/><path d="M418.461,286.4a2.105,2.105,0,0,0-2.106-2.106h-6.367a2.106,2.106,0,0,0,0,4.211h6.367A2.105,2.105,0,0,0,418.461,286.4Z" transform="translate(-293.374 -204.604)" fill="#060606"/><path d="M74.909,361.922H68.542a2.106,2.106,0,1,0,0,4.211h6.367a2.106,2.106,0,1,0,0-4.211Z" transform="translate(-47.785 -260.436)" fill="#060606"/><path d="M159.366,361.922H153a2.106,2.106,0,1,0,0,4.211h6.367a2.106,2.106,0,0,0,0-4.211Z" transform="translate(-108.531 -260.436)" fill="#060606"/><path d="M245.029,361.922h-6.367a2.106,2.106,0,0,0,0,4.211h6.367a2.106,2.106,0,1,0,0-4.211Z" transform="translate(-170.145 -260.436)" fill="#060606"/><path d="M330.693,361.922h-6.367a2.106,2.106,0,0,0,0,4.211h6.367a2.106,2.106,0,1,0,0-4.211Z" transform="translate(-231.76 -260.436)" fill="#060606"/><path d="M409.99,361.922a2.106,2.106,0,1,0,0,4.211h6.367a2.106,2.106,0,0,0,0-4.211Z" transform="translate(-293.375 -260.436)" fill="#060606"/><path d="M68.543,439.545a2.106,2.106,0,1,0,0,4.211H74.91a2.106,2.106,0,0,0,0-4.211Z" transform="translate(-47.786 -316.267)" fill="#060606"/><path d="M153,439.545a2.106,2.106,0,1,0,0,4.211h6.367a2.106,2.106,0,1,0,0-4.211Z" transform="translate(-108.532 -316.267)" fill="#060606"/><path d="M245.029,439.545h-6.367a2.106,2.106,0,0,0,0,4.211h6.367a2.106,2.106,0,1,0,0-4.211Z" transform="translate(-170.145 -316.267)" fill="#060606"/><path d="M330.693,439.545h-6.367a2.106,2.106,0,0,0,0,4.211h6.367a2.106,2.106,0,1,0,0-4.211Z" transform="translate(-231.76 -316.267)" fill="#060606"/><path d="M418.461,441.651a2.105,2.105,0,0,0-2.106-2.106h-6.367a2.106,2.106,0,0,0,0,4.211h6.367A2.105,2.105,0,0,0,418.461,441.651Z" transform="translate(-293.374 -316.267)" fill="#060606"/></g></g></svg>