<svg xmlns="http://www.w3.org/2000/svg" width="259" height="259" viewBox="0 0 259 259"><g transform="translate(6799 5401)"><rect width="259" height="259" rx="22" transform="translate(-6799 -5401)" fill="#fff"/><g transform="translate(-6751.844 -5357.46)"><path d="M146.525,66.057a22.617,22.617,0,0,0-26.359-34.683A37.91,37.91,0,0,0,55.7,28.325,28.791,28.791,0,0,0,23.276,69.239,40.782,40.782,0,0,0,50.783,140.13q2.048,0,4.046-.2a34.464,34.464,0,0,1-11.776,25.748,34.593,34.593,0,0,0,31.112-14.486,40.373,40.373,0,0,0,39.415-7.927,42.8,42.8,0,0,0,32.945-77.209Z" transform="translate(-6.847 -6.847)" fill="#a7fff1"/><g transform="translate(0 1.813)"><g transform="translate(53.814 28.966)"><path d="M204.553,160.067H190.68V149.925a18.389,18.389,0,0,1,11.747-17.142,13.074,13.074,0,1,0-13.836-21.615,12.96,12.96,0,0,0-4.045,9.455H170.671a26.945,26.945,0,1,1,36.864,25.058,4.591,4.591,0,0,0-2.982,4.243v10.143Z" transform="translate(-170.671 -93.677)" fill="#af58fa"/><circle cx="6.937" cy="6.937" r="6.937" transform="translate(20.008 80.264)" fill="#af58fa"/></g><path d="M455.173,382.022a3.155,3.155,0,1,0,2.229.924A3.176,3.176,0,0,0,455.173,382.022Z" transform="translate(-309.494 -262.139)"/><path d="M143.965,58.454a25.527,25.527,0,0,0,3.455-12.9,25.777,25.777,0,0,0-32.7-24.826,41.059,41.059,0,0,0-67.235-2.745A31.949,31.949,0,0,0,10.218,49.472a31.612,31.612,0,0,0,2.415,12.2,43.934,43.934,0,0,0,31.3,74.762q.344,0,.689-.006a31.444,31.444,0,0,1-10.5,20.031,3.153,3.153,0,0,0,1.811,5.512q1.583.135,3.157.134a37.874,37.874,0,0,0,29.409-14.1,43.542,43.542,0,0,0,39.118-8.209,46.317,46.317,0,0,0,7.863.672,45.531,45.531,0,0,0,20-4.569,3.153,3.153,0,0,0-2.748-5.676,39.27,39.27,0,0,1-17.251,3.939,39.9,39.9,0,0,1-8.11-.831,3.153,3.153,0,0,0-2.722.718,37.22,37.22,0,0,1-36.333,7.307,3.154,3.154,0,0,0-3.577,1.169,31.534,31.534,0,0,1-21.156,12.951A37.733,37.733,0,0,0,51.135,133.1a3.153,3.153,0,0,0-3.462-3.159c-1.241.123-2.5.184-3.737.184a37.628,37.628,0,0,1-25.38-65.41,3.154,3.154,0,0,0,.689-3.745,25.357,25.357,0,0,1-2.721-11.5,25.646,25.646,0,0,1,31.6-24.927,3.154,3.154,0,0,0,3.332-1.285,34.756,34.756,0,0,1,59.107,2.8,3.153,3.153,0,0,0,3.92,1.4A19.464,19.464,0,0,1,137.166,57.3a3.153,3.153,0,0,0,.728,4.5,39.67,39.67,0,0,1,17.238,32.708,39.259,39.259,0,0,1-4.018,17.413,3.153,3.153,0,1,0,5.664,2.773,45.511,45.511,0,0,0,4.66-20.186,45.969,45.969,0,0,0-17.473-36.063Z" transform="translate(0 -1.813)"/><path d="M200.859,143.081a1.442,1.442,0,0,1,.99-1.311,30.1,30.1,0,1,0-41.178-27.99,3.153,3.153,0,0,0,3.153,3.153H177.7a3.153,3.153,0,0,0,3.153-3.153,9.92,9.92,0,0,1,10.4-9.908,9.922,9.922,0,0,1,3.168,19.136,21.526,21.526,0,0,0-13.739,20.073v10.142a3.153,3.153,0,0,0,3.153,3.153h13.874a3.153,3.153,0,0,0,3.153-3.153V143.081Zm-1.332-7.175a7.727,7.727,0,0,0-4.974,7.175v6.989h-7.567v-6.989a15.253,15.253,0,0,1,9.755-14.21,16.227,16.227,0,1,0-17.175-26.826,16.074,16.074,0,0,0-4.718,8.582h-7.666a23.8,23.8,0,0,1,47.354,2.034,23.821,23.821,0,0,1-15.009,23.246Z" transform="translate(-110.01 -57.867)"/><path d="M234.217,338.234a10.09,10.09,0,1,0,10.09,10.09A10.1,10.1,0,0,0,234.217,338.234Zm0,13.874A3.784,3.784,0,1,1,238,348.324,3.788,3.788,0,0,1,234.217,352.108Z" transform="translate(-153.458 -232.158)"/></g></g></g></svg>