<svg xmlns="http://www.w3.org/2000/svg" width="856" height="466" viewBox="0 0 856 466"><g transform="translate(-372 -4440)"><g transform="translate(372 4440)" fill="#fff"><path d="M 855.5 465.5 L 0.5 465.5 L 0.5 0.5 L 855.5 0.5 L 855.5 465.5 Z" stroke="none"/><path d="M 1 1 L 1 465 L 855 465 L 855 1 L 1 1 M 0 0 L 856 0 L 856 466 L 0 466 L 0 0 Z" stroke="none" fill="#43efd4"/></g><path d="M0,0H454V26H0Z" transform="translate(427 4485)" fill="#e4c4ff"/><path d="M11.32-4.333a4.673,4.673,0,0,1-.721,2.36A4.35,4.35,0,0,1,8.75-.387a6.3,6.3,0,0,1-2.72.563A5.025,5.025,0,0,1,2.057-1.468,6.786,6.786,0,0,1,.606-6.108v-.633a7.746,7.746,0,0,1,.655-3.292,4.961,4.961,0,0,1,1.885-2.18,5.26,5.26,0,0,1,2.848-.769,5.516,5.516,0,0,1,3.744,1.226,4.844,4.844,0,0,1,1.608,3.379H8.271a2.292,2.292,0,0,0-.589-1.679,2.422,2.422,0,0,0-1.687-.51A1.843,1.843,0,0,0,4.307-9.7a5.536,5.536,0,0,0-.562,2.751v.905A6.126,6.126,0,0,0,4.258-3.12a1.882,1.882,0,0,0,1.771.879,2.369,2.369,0,0,0,1.626-.5,2.126,2.126,0,0,0,.6-1.591ZM18,0a3.344,3.344,0,0,1-.281-.853A2.754,2.754,0,0,1,15.434.176a3.374,3.374,0,0,1-2.285-.813,2.588,2.588,0,0,1-.94-2.043,2.66,2.66,0,0,1,1.143-2.338,5.821,5.821,0,0,1,3.322-.791h.914v-.5q0-1.31-1.134-1.31A.925.925,0,0,0,15.4-6.583H12.437A2.659,2.659,0,0,1,13.61-8.824,4.927,4.927,0,0,1,16.6-9.686a4.323,4.323,0,0,1,2.874.888,3.086,3.086,0,0,1,1.081,2.435v4.21a4.311,4.311,0,0,0,.4,2V0ZM16.146-1.934a1.652,1.652,0,0,0,.918-.237,1.487,1.487,0,0,0,.523-.536V-4.228h-.861q-1.547,0-1.547,1.389a.848.848,0,0,0,.272.655A.986.986,0,0,0,16.146-1.934Zm11.716.905a3.054,3.054,0,0,1-2.54,1.2,3,3,0,0,1-2.369-.91,3.826,3.826,0,0,1-.8-2.615V-9.51H25.11v6.179A1.065,1.065,0,0,0,26.3-2.109a1.548,1.548,0,0,0,1.45-.729V-9.51h2.979V0H27.949Zm9.466-1.644a.684.684,0,0,0-.4-.606,6.016,6.016,0,0,0-1.5-.475A6.853,6.853,0,0,1,33.6-4.4a3.062,3.062,0,0,1-1.1-.971,2.319,2.319,0,0,1-.378-1.31,2.628,2.628,0,0,1,1.081-2.158,4.453,4.453,0,0,1,2.83-.848,4.934,4.934,0,0,1,3.023.853A2.666,2.666,0,0,1,40.2-6.592H37.23q0-1.143-1.2-1.143a1.194,1.194,0,0,0-.782.259.8.8,0,0,0-.316.646.737.737,0,0,0,.387.642,3.654,3.654,0,0,0,1.235.4,10.671,10.671,0,0,1,1.49.378A2.706,2.706,0,0,1,40.184-2.76,2.491,2.491,0,0,1,39.028-.642a5.068,5.068,0,0,1-2.993.817,5.172,5.172,0,0,1-2.18-.439,3.645,3.645,0,0,1-1.494-1.2,2.707,2.707,0,0,1-.536-1.591h2.769a1.145,1.145,0,0,0,.439.962,1.808,1.808,0,0,0,1.081.3,1.422,1.422,0,0,0,.91-.246A.787.787,0,0,0,37.327-2.672ZM46.925,0a3.344,3.344,0,0,1-.281-.853A2.754,2.754,0,0,1,44.358.176a3.374,3.374,0,0,1-2.285-.813,2.588,2.588,0,0,1-.94-2.043,2.66,2.66,0,0,1,1.143-2.338A5.821,5.821,0,0,1,45.6-5.81h.914v-.5q0-1.31-1.134-1.31a.925.925,0,0,0-1.055,1.037H41.361a2.659,2.659,0,0,1,1.173-2.241,4.927,4.927,0,0,1,2.993-.861A4.323,4.323,0,0,1,48.4-8.8a3.086,3.086,0,0,1,1.081,2.435v4.21a4.311,4.311,0,0,0,.4,2V0ZM45.07-1.934a1.652,1.652,0,0,0,.918-.237,1.487,1.487,0,0,0,.523-.536V-4.228H45.65q-1.547,0-1.547,1.389a.848.848,0,0,0,.272.655A.986.986,0,0,0,45.07-1.934Z" transform="translate(634 4504)" fill="#12263f"/><path d="M22,0,44,38H0Z" transform="translate(392 4520) rotate(-90)" fill="#e4c4ff"/><path d="M22,0,44,38H0Z" transform="translate(919 4476) rotate(90)" fill="#e4c4ff"/><path d="M5,0H136a5,5,0,0,1,5,5V29a5,5,0,0,1-5,5H5a5,5,0,0,1-5-5V5A5,5,0,0,1,5,0Z" transform="translate(398 4531)" fill="#69d6f4"/><path d="M11.32,0h-1.7V-5.915H3.173V0H1.485V-12.8H3.173v5.5H9.624v-5.5h1.7Zm2.312-4.843a5.617,5.617,0,0,1,.549-2.514A4.1,4.1,0,0,1,15.71-9.079a4.163,4.163,0,0,1,2.237-.606,4.01,4.01,0,0,1,3.142,1.345,5.174,5.174,0,0,1,1.2,3.577v.114a5.666,5.666,0,0,1-.532,2.492A4.038,4.038,0,0,1,20.237-.439a4.211,4.211,0,0,1-2.272.615,4,4,0,0,1-3.133-1.345,5.147,5.147,0,0,1-1.2-3.56Zm1.635.193A4.068,4.068,0,0,0,16-2.109a2.349,2.349,0,0,0,1.964.958,2.335,2.335,0,0,0,1.969-.971,4.449,4.449,0,0,0,.729-2.72,4.061,4.061,0,0,0-.743-2.536,2.361,2.361,0,0,0-1.973-.971A2.335,2.335,0,0,0,16-7.392,4.416,4.416,0,0,0,15.267-4.649ZM25.857-9.51,25.9-8.455a3.512,3.512,0,0,1,2.821-1.23,2.719,2.719,0,0,1,2.716,1.529,3.6,3.6,0,0,1,1.235-1.107,3.647,3.647,0,0,1,1.8-.422q3.129,0,3.182,3.313V0H36.026V-6.275A2.184,2.184,0,0,0,35.561-7.8,2.051,2.051,0,0,0,34-8.306a2.156,2.156,0,0,0-1.5.541A2.193,2.193,0,0,0,31.8-6.311V0H30.164V-6.231a1.814,1.814,0,0,0-2.03-2.074,2.175,2.175,0,0,0-2.188,1.362V0H24.319V-9.51Zm22.3,4.86a5.654,5.654,0,0,1-1,3.5A3.2,3.2,0,0,1,44.464.176,3.315,3.315,0,0,1,41.678-1.1L41.6,0H40.1V-13.5H41.73v5.036a3.3,3.3,0,0,1,2.716-1.222,3.221,3.221,0,0,1,2.72,1.31,5.824,5.824,0,0,1,.989,3.586Zm-1.626-.185A4.394,4.394,0,0,0,45.888-7.4a2.124,2.124,0,0,0-1.846-.905A2.387,2.387,0,0,0,41.73-6.812V-2.7A2.454,2.454,0,0,0,44.06-1.2a2.112,2.112,0,0,0,1.819-.905A4.672,4.672,0,0,0,46.529-4.834ZM54.8-8.051a4.873,4.873,0,0,0-.8-.062A2.143,2.143,0,0,0,51.829-6.75V0H50.2V-9.51h1.582l.026,1.1a2.532,2.532,0,0,1,2.268-1.274,1.661,1.661,0,0,1,.721.123ZM60.073.176a4.155,4.155,0,0,1-3.146-1.27,4.714,4.714,0,0,1-1.213-3.4v-.3a5.707,5.707,0,0,1,.541-2.527,4.217,4.217,0,0,1,1.512-1.74,3.8,3.8,0,0,1,2.1-.628,3.562,3.562,0,0,1,2.883,1.222,5.289,5.289,0,0,1,1.028,3.5v.677H57.34a3.38,3.38,0,0,0,.822,2.272,2.583,2.583,0,0,0,2,.866A2.832,2.832,0,0,0,61.62-1.5a3.666,3.666,0,0,0,1.046-.932l.993.773A3.993,3.993,0,0,1,60.073.176Zm-.2-8.525a2.169,2.169,0,0,0-1.652.716,3.482,3.482,0,0,0-.826,2.008h4.764v-.123a3.1,3.1,0,0,0-.668-1.92A2.042,2.042,0,0,0,59.871-8.35Z" transform="translate(435 4554)" fill="#12263f"/><path d="M5,0H136a5,5,0,0,1,5,5V29a5,5,0,0,1-5,5H5a5,5,0,0,1-5-5V5A5,5,0,0,1,5,0Z" transform="translate(584 4531)" fill="#69d6f4"/><path d="M3.665-12.8,7.849-2.355,12.032-12.8h2.188V0H12.533V-4.983l.158-5.379L8.49,0H7.2L3.006-10.336l.167,5.353V0H1.485V-12.8ZM22.816,0a3.416,3.416,0,0,1-.229-1A3.628,3.628,0,0,1,19.881.176a3.357,3.357,0,0,1-2.307-.8,2.573,2.573,0,0,1-.9-2.017A2.688,2.688,0,0,1,17.8-4.944a5.325,5.325,0,0,1,3.177-.822h1.582v-.747a1.826,1.826,0,0,0-.51-1.358,2.049,2.049,0,0,0-1.5-.505,2.371,2.371,0,0,0-1.459.439A1.3,1.3,0,0,0,18.5-6.873H16.866a2.244,2.244,0,0,1,.505-1.375A3.449,3.449,0,0,1,18.743-9.3a4.613,4.613,0,0,1,1.9-.387,3.759,3.759,0,0,1,2.575.822A2.964,2.964,0,0,1,24.188-6.6v4.377a5.351,5.351,0,0,0,.334,2.083V0Zm-2.7-1.239a2.858,2.858,0,0,0,1.45-.4,2.392,2.392,0,0,0,.993-1.028V-4.614H21.287q-2.988,0-2.988,1.749a1.48,1.48,0,0,0,.51,1.2A1.959,1.959,0,0,0,20.118-1.239Zm6.223-3.595A5.582,5.582,0,0,1,27.369-8.38a3.332,3.332,0,0,1,2.76-1.305,3.33,3.33,0,0,1,2.663,1.134l.07-.958h1.494V3.656H32.73V-.879A3.412,3.412,0,0,1,30.111.176a3.28,3.28,0,0,1-2.747-1.34A5.706,5.706,0,0,1,26.341-4.72Zm1.626.185a4.231,4.231,0,0,0,.69,2.566,2.195,2.195,0,0,0,1.859.932A2.435,2.435,0,0,0,32.73-2.435V-7.093a2.442,2.442,0,0,0-2.2-1.257,2.211,2.211,0,0,0-1.872.936A4.606,4.606,0,0,0,27.967-4.649ZM42.838-.94A3.454,3.454,0,0,1,40.052.176a2.956,2.956,0,0,1-2.316-.883,3.823,3.823,0,0,1-.8-2.615V-9.51h1.626v6.144q0,2.162,1.758,2.162a2.434,2.434,0,0,0,2.479-1.389V-9.51H44.42V0H42.873ZM48.656,0H47.03V-9.51h1.626ZM46.9-12.032a.971.971,0,0,1,.242-.668.907.907,0,0,1,.716-.272.922.922,0,0,1,.721.272.96.96,0,0,1,.246.668.929.929,0,0,1-.246.659.938.938,0,0,1-.721.264.924.924,0,0,1-.716-.264A.938.938,0,0,1,46.9-12.032ZM52.8-9.51l.053,1.2A3.465,3.465,0,0,1,55.7-9.686q3.015,0,3.041,3.4V0H57.111V-6.293a2.189,2.189,0,0,0-.47-1.521A1.884,1.884,0,0,0,55.2-8.306a2.347,2.347,0,0,0-1.389.422,2.865,2.865,0,0,0-.932,1.107V0H51.258V-9.51ZM67.061,0a3.416,3.416,0,0,1-.229-1A3.628,3.628,0,0,1,64.125.176a3.357,3.357,0,0,1-2.307-.8,2.573,2.573,0,0,1-.9-2.017,2.688,2.688,0,0,1,1.129-2.307,5.325,5.325,0,0,1,3.177-.822h1.582v-.747a1.826,1.826,0,0,0-.51-1.358,2.049,2.049,0,0,0-1.5-.505,2.371,2.371,0,0,0-1.459.439,1.3,1.3,0,0,0-.589,1.063H61.11a2.244,2.244,0,0,1,.505-1.375A3.449,3.449,0,0,1,62.987-9.3a4.613,4.613,0,0,1,1.9-.387,3.759,3.759,0,0,1,2.575.822A2.964,2.964,0,0,1,68.432-6.6v4.377a5.351,5.351,0,0,0,.334,2.083V0Zm-2.7-1.239a2.858,2.858,0,0,0,1.45-.4,2.392,2.392,0,0,0,.993-1.028V-4.614H65.531q-2.988,0-2.988,1.749a1.48,1.48,0,0,0,.51,1.2A1.959,1.959,0,0,0,64.362-1.239Z" transform="translate(621 4554)" fill="#12263f"/><path d="M5,0H136a5,5,0,0,1,5,5V29a5,5,0,0,1-5,5H5a5,5,0,0,1-5-5V5A5,5,0,0,1,5,0Z" transform="translate(778 4531)" fill="#69d6f4"/><path d="M8.719-5.915H3.173V-1.38H9.615V0H1.485V-12.8H9.527v1.389H3.173v4.113H8.719ZM13-9.51l.053,1.2A3.465,3.465,0,0,1,15.9-9.686q3.015,0,3.041,3.4V0H17.314V-6.293a2.189,2.189,0,0,0-.47-1.521,1.884,1.884,0,0,0-1.437-.492,2.347,2.347,0,0,0-1.389.422,2.865,2.865,0,0,0-.932,1.107V0H11.461V-9.51Zm10.6-2.3v2.3h1.775v1.257H23.6v5.9a1.317,1.317,0,0,0,.237.857,1,1,0,0,0,.809.286,3.937,3.937,0,0,0,.773-.105V0A4.714,4.714,0,0,1,24.17.176a2.025,2.025,0,0,1-1.644-.659,2.832,2.832,0,0,1-.554-1.872v-5.9H20.241V-9.51h1.731v-2.3Zm3.067,6.97a5.617,5.617,0,0,1,.549-2.514,4.1,4.1,0,0,1,1.529-1.723,4.163,4.163,0,0,1,2.237-.606,4.01,4.01,0,0,1,3.142,1.345,5.174,5.174,0,0,1,1.2,3.577v.114a5.666,5.666,0,0,1-.532,2.492A4.038,4.038,0,0,1,33.271-.439,4.211,4.211,0,0,1,31,.176a4,4,0,0,1-3.133-1.345,5.147,5.147,0,0,1-1.2-3.56Zm1.635.193a4.068,4.068,0,0,0,.734,2.54A2.349,2.349,0,0,0,31-1.151a2.335,2.335,0,0,0,1.969-.971,4.449,4.449,0,0,0,.729-2.72,4.061,4.061,0,0,0-.743-2.536,2.361,2.361,0,0,0-1.973-.971,2.335,2.335,0,0,0-1.942.958A4.416,4.416,0,0,0,28.3-4.649Zm13.658-3.4a4.873,4.873,0,0,0-.8-.062A2.143,2.143,0,0,0,38.988-6.75V0H37.362V-9.51h1.582l.026,1.1a2.532,2.532,0,0,1,2.268-1.274,1.661,1.661,0,0,1,.721.123ZM44.991-9.51l.053,1.2a3.465,3.465,0,0,1,2.848-1.371q3.015,0,3.041,3.4V0H49.307V-6.293a2.189,2.189,0,0,0-.47-1.521A1.884,1.884,0,0,0,47.4-8.306a2.347,2.347,0,0,0-1.389.422,2.865,2.865,0,0,0-.932,1.107V0H43.453V-9.51Zm7.963,4.667A5.617,5.617,0,0,1,53.5-7.356a4.1,4.1,0,0,1,1.529-1.723,4.163,4.163,0,0,1,2.237-.606,4.01,4.01,0,0,1,3.142,1.345,5.174,5.174,0,0,1,1.2,3.577v.114a5.666,5.666,0,0,1-.532,2.492A4.038,4.038,0,0,1,59.559-.439a4.211,4.211,0,0,1-2.272.615,4,4,0,0,1-3.133-1.345,5.147,5.147,0,0,1-1.2-3.56Zm1.635.193a4.068,4.068,0,0,0,.734,2.54,2.349,2.349,0,0,0,1.964.958,2.335,2.335,0,0,0,1.969-.971,4.449,4.449,0,0,0,.729-2.72,4.061,4.061,0,0,0-.743-2.536A2.361,2.361,0,0,0,57.27-8.35a2.335,2.335,0,0,0-1.942.958A4.416,4.416,0,0,0,54.589-4.649Z" transform="translate(815 4554)" fill="#12263f"/><path d="M5,0H136a5,5,0,0,1,5,5V29a5,5,0,0,1-5,5H5a5,5,0,0,1-5-5V5A5,5,0,0,1,5,0Z" transform="translate(398 4838)" fill="#69d6f4"/><path d="M3.665-12.8,7.849-2.355,12.032-12.8h2.188V0H12.533V-4.983l.158-5.379L8.49,0H7.2L3.006-10.336l.167,5.353V0H1.485V-12.8ZM22.816,0a3.416,3.416,0,0,1-.229-1A3.628,3.628,0,0,1,19.881.176a3.357,3.357,0,0,1-2.307-.8,2.573,2.573,0,0,1-.9-2.017A2.688,2.688,0,0,1,17.8-4.944a5.325,5.325,0,0,1,3.177-.822h1.582v-.747a1.826,1.826,0,0,0-.51-1.358,2.049,2.049,0,0,0-1.5-.505,2.371,2.371,0,0,0-1.459.439A1.3,1.3,0,0,0,18.5-6.873H16.866a2.244,2.244,0,0,1,.505-1.375A3.449,3.449,0,0,1,18.743-9.3a4.613,4.613,0,0,1,1.9-.387,3.759,3.759,0,0,1,2.575.822A2.964,2.964,0,0,1,24.188-6.6v4.377a5.351,5.351,0,0,0,.334,2.083V0Zm-2.7-1.239a2.858,2.858,0,0,0,1.45-.4,2.392,2.392,0,0,0,.993-1.028V-4.614H21.287q-2.988,0-2.988,1.749a1.48,1.48,0,0,0,.51,1.2A1.959,1.959,0,0,0,20.118-1.239Zm8.824-10.573v2.3h1.775v1.257H28.942v5.9a1.317,1.317,0,0,0,.237.857,1,1,0,0,0,.809.286,3.937,3.937,0,0,0,.773-.105V0a4.714,4.714,0,0,1-1.248.176A2.025,2.025,0,0,1,27.87-.483a2.832,2.832,0,0,1-.554-1.872v-5.9H25.585V-9.51h1.731v-2.3ZM36.563.176a4.155,4.155,0,0,1-3.146-1.27,4.714,4.714,0,0,1-1.213-3.4v-.3a5.707,5.707,0,0,1,.541-2.527,4.217,4.217,0,0,1,1.512-1.74,3.8,3.8,0,0,1,2.1-.628,3.562,3.562,0,0,1,2.883,1.222,5.289,5.289,0,0,1,1.028,3.5v.677H33.829a3.38,3.38,0,0,0,.822,2.272,2.583,2.583,0,0,0,2,.866A2.832,2.832,0,0,0,38.109-1.5a3.666,3.666,0,0,0,1.046-.932l.993.773A3.993,3.993,0,0,1,36.563.176Zm-.2-8.525a2.169,2.169,0,0,0-1.652.716,3.482,3.482,0,0,0-.826,2.008h4.764v-.123a3.1,3.1,0,0,0-.668-1.92A2.042,2.042,0,0,0,36.36-8.35Zm10.389.3a4.873,4.873,0,0,0-.8-.062A2.143,2.143,0,0,0,43.778-6.75V0H42.152V-9.51h1.582l.026,1.1a2.532,2.532,0,0,1,2.268-1.274,1.661,1.661,0,0,1,.721.123ZM50.01,0H48.384V-9.51H50.01ZM48.252-12.032a.971.971,0,0,1,.242-.668.907.907,0,0,1,.716-.272.922.922,0,0,1,.721.272.96.96,0,0,1,.246.668.929.929,0,0,1-.246.659.938.938,0,0,1-.721.264.924.924,0,0,1-.716-.264A.938.938,0,0,1,48.252-12.032ZM58.482,0a3.416,3.416,0,0,1-.229-1A3.628,3.628,0,0,1,55.547.176a3.357,3.357,0,0,1-2.307-.8,2.573,2.573,0,0,1-.9-2.017,2.688,2.688,0,0,1,1.129-2.307,5.325,5.325,0,0,1,3.177-.822h1.582v-.747a1.826,1.826,0,0,0-.51-1.358,2.049,2.049,0,0,0-1.5-.505,2.371,2.371,0,0,0-1.459.439,1.3,1.3,0,0,0-.589,1.063H52.532a2.244,2.244,0,0,1,.505-1.375A3.449,3.449,0,0,1,54.409-9.3a4.613,4.613,0,0,1,1.9-.387,3.759,3.759,0,0,1,2.575.822A2.964,2.964,0,0,1,59.854-6.6v4.377a5.351,5.351,0,0,0,.334,2.083V0Zm-2.7-1.239a2.858,2.858,0,0,0,1.45-.4,2.392,2.392,0,0,0,.993-1.028V-4.614H56.953q-2.988,0-2.988,1.749a1.48,1.48,0,0,0,.51,1.2A1.959,1.959,0,0,0,55.784-1.239ZM64.169,0H62.543V-13.5h1.626Z" transform="translate(435 4861)" fill="#12263f"/><path d="M5,0H136a5,5,0,0,1,5,5V29a5,5,0,0,1-5,5H5a5,5,0,0,1-5-5V5A5,5,0,0,1,5,0Z" transform="translate(584 4838)" fill="#69d6f4"/><path d="M3.665-12.8,7.849-2.355,12.032-12.8h2.188V0H12.533V-4.983l.158-5.379L8.49,0H7.2L3.006-10.336l.167,5.353V0H1.485V-12.8ZM20.892.176a4.155,4.155,0,0,1-3.146-1.27,4.714,4.714,0,0,1-1.213-3.4v-.3a5.707,5.707,0,0,1,.541-2.527,4.217,4.217,0,0,1,1.512-1.74,3.8,3.8,0,0,1,2.1-.628,3.562,3.562,0,0,1,2.883,1.222,5.289,5.289,0,0,1,1.028,3.5v.677H18.158a3.38,3.38,0,0,0,.822,2.272,2.583,2.583,0,0,0,2,.866A2.832,2.832,0,0,0,22.438-1.5a3.666,3.666,0,0,0,1.046-.932l.993.773A3.993,3.993,0,0,1,20.892.176Zm-.2-8.525a2.169,2.169,0,0,0-1.652.716,3.482,3.482,0,0,0-.826,2.008h4.764v-.123a3.1,3.1,0,0,0-.668-1.92A2.042,2.042,0,0,0,20.689-8.35Zm.791-5.15h1.969l-2.355,2.584h-1.31Zm7.207,1.688v2.3h1.775v1.257H28.688v5.9a1.317,1.317,0,0,0,.237.857,1,1,0,0,0,.809.286,3.937,3.937,0,0,0,.773-.105V0a4.714,4.714,0,0,1-1.248.176,2.025,2.025,0,0,1-1.644-.659,2.832,2.832,0,0,1-.554-1.872v-5.9H25.33V-9.51h1.731v-2.3Zm3.067,6.97A5.617,5.617,0,0,1,32.3-7.356a4.1,4.1,0,0,1,1.529-1.723,4.163,4.163,0,0,1,2.237-.606,4.01,4.01,0,0,1,3.142,1.345,5.174,5.174,0,0,1,1.2,3.577v.114a5.666,5.666,0,0,1-.532,2.492A4.038,4.038,0,0,1,38.36-.439a4.211,4.211,0,0,1-2.272.615,4,4,0,0,1-3.133-1.345,5.147,5.147,0,0,1-1.2-3.56Zm1.635.193a4.068,4.068,0,0,0,.734,2.54,2.349,2.349,0,0,0,1.964.958,2.335,2.335,0,0,0,1.969-.971,4.449,4.449,0,0,0,.729-2.72,4.061,4.061,0,0,0-.743-2.536A2.361,2.361,0,0,0,36.07-8.35a2.335,2.335,0,0,0-1.942.958A4.416,4.416,0,0,0,33.39-4.649Zm8.666-.185a5.571,5.571,0,0,1,1.037-3.52,3.28,3.28,0,0,1,2.716-1.332,3.3,3.3,0,0,1,2.646,1.143V-13.5H50.08V0H48.586l-.079-1.02a3.311,3.311,0,0,1-2.716,1.2A3.248,3.248,0,0,1,43.1-1.178a5.634,5.634,0,0,1-1.042-3.533Zm1.626.185a4.218,4.218,0,0,0,.668,2.531A2.159,2.159,0,0,0,46.2-1.2a2.372,2.372,0,0,0,2.259-1.389V-6.961a2.39,2.39,0,0,0-2.241-1.345,2.17,2.17,0,0,0-1.863.923A4.644,4.644,0,0,0,43.682-4.649Zm8.49-.193a5.617,5.617,0,0,1,.549-2.514A4.1,4.1,0,0,1,54.25-9.079a4.163,4.163,0,0,1,2.237-.606,4.01,4.01,0,0,1,3.142,1.345,5.174,5.174,0,0,1,1.2,3.577v.114A5.666,5.666,0,0,1,60.3-2.158,4.038,4.038,0,0,1,58.777-.439,4.211,4.211,0,0,1,56.5.176a4,4,0,0,1-3.133-1.345,5.147,5.147,0,0,1-1.2-3.56Zm1.635.193a4.068,4.068,0,0,0,.734,2.54,2.349,2.349,0,0,0,1.964.958,2.335,2.335,0,0,0,1.969-.971,4.449,4.449,0,0,0,.729-2.72,4.061,4.061,0,0,0-.743-2.536,2.361,2.361,0,0,0-1.973-.971,2.335,2.335,0,0,0-1.942.958A4.416,4.416,0,0,0,53.807-4.649Z" transform="translate(624 4861)" fill="#12263f"/><path d="M5,0H136a5,5,0,0,1,5,5V29a5,5,0,0,1-5,5H5a5,5,0,0,1-5-5V5A5,5,0,0,1,5,0Z" transform="translate(778 4838)" fill="#69d6f4"/><path d="M3.665-12.8,7.849-2.355,12.032-12.8h2.188V0H12.533V-4.983l.158-5.379L8.49,0H7.2L3.006-10.336l.167,5.353V0H1.485V-12.8ZM20.892.176a4.155,4.155,0,0,1-3.146-1.27,4.714,4.714,0,0,1-1.213-3.4v-.3a5.707,5.707,0,0,1,.541-2.527,4.217,4.217,0,0,1,1.512-1.74,3.8,3.8,0,0,1,2.1-.628,3.562,3.562,0,0,1,2.883,1.222,5.289,5.289,0,0,1,1.028,3.5v.677H18.158a3.38,3.38,0,0,0,.822,2.272,2.583,2.583,0,0,0,2,.866A2.832,2.832,0,0,0,22.438-1.5a3.666,3.666,0,0,0,1.046-.932l.993.773A3.993,3.993,0,0,1,20.892.176Zm-.2-8.525a2.169,2.169,0,0,0-1.652.716,3.482,3.482,0,0,0-.826,2.008h4.764v-.123a3.1,3.1,0,0,0-.668-1.92A2.042,2.042,0,0,0,20.689-8.35Zm5.4,3.516a5.571,5.571,0,0,1,1.037-3.52,3.28,3.28,0,0,1,2.716-1.332,3.3,3.3,0,0,1,2.646,1.143V-13.5H34.11V0H32.616l-.079-1.02a3.311,3.311,0,0,1-2.716,1.2,3.248,3.248,0,0,1-2.694-1.354,5.634,5.634,0,0,1-1.042-3.533Zm1.626.185a4.218,4.218,0,0,0,.668,2.531,2.159,2.159,0,0,0,1.846.914,2.372,2.372,0,0,0,2.259-1.389V-6.961a2.39,2.39,0,0,0-2.241-1.345,2.17,2.17,0,0,0-1.863.923A4.644,4.644,0,0,0,27.712-4.649ZM38.4,0H36.773V-9.51H38.4ZM36.642-12.032a.971.971,0,0,1,.242-.668.907.907,0,0,1,.716-.272.922.922,0,0,1,.721.272.96.96,0,0,1,.246.668.929.929,0,0,1-.246.659.938.938,0,0,1-.721.264.924.924,0,0,1-.716-.264A.938.938,0,0,1,36.642-12.032Zm3.964,7.2a5.571,5.571,0,0,1,1.037-3.52,3.28,3.28,0,0,1,2.716-1.332A3.3,3.3,0,0,1,47-8.543V-13.5H48.63V0H47.136l-.079-1.02a3.311,3.311,0,0,1-2.716,1.2,3.248,3.248,0,0,1-2.694-1.354,5.634,5.634,0,0,1-1.042-3.533Zm1.626.185A4.218,4.218,0,0,0,42.9-2.118a2.159,2.159,0,0,0,1.846.914A2.372,2.372,0,0,0,47-2.593V-6.961a2.39,2.39,0,0,0-2.241-1.345,2.17,2.17,0,0,0-1.863.923A4.644,4.644,0,0,0,42.231-4.649ZM57.023,0a3.416,3.416,0,0,1-.229-1A3.628,3.628,0,0,1,54.088.176a3.357,3.357,0,0,1-2.307-.8,2.573,2.573,0,0,1-.9-2.017,2.688,2.688,0,0,1,1.129-2.307,5.325,5.325,0,0,1,3.177-.822h1.582v-.747a1.826,1.826,0,0,0-.51-1.358,2.049,2.049,0,0,0-1.5-.505,2.371,2.371,0,0,0-1.459.439,1.3,1.3,0,0,0-.589,1.063H51.073a2.244,2.244,0,0,1,.505-1.375A3.449,3.449,0,0,1,52.95-9.3a4.613,4.613,0,0,1,1.9-.387,3.759,3.759,0,0,1,2.575.822A2.964,2.964,0,0,1,58.395-6.6v4.377a5.351,5.351,0,0,0,.334,2.083V0Zm-2.7-1.239a2.858,2.858,0,0,0,1.45-.4,2.392,2.392,0,0,0,.993-1.028V-4.614H55.494q-2.988,0-2.988,1.749a1.48,1.48,0,0,0,.51,1.2A1.959,1.959,0,0,0,54.325-1.239Z" transform="translate(818 4861)" fill="#12263f"/><g transform="translate(0 -39)"><path d="M-8847-6960h498.781" transform="translate(9346 11700)" fill="none" stroke="#af58fa" stroke-width="1"/><path d="M6.5,0,13,11H0Z" transform="translate(1006 4733) rotate(90)" fill="#af58fa"/></g><g transform="translate(3224.746 630.401) rotate(45)"><path d="M-8847-6960h151.823" transform="translate(9692.958 11700)" fill="none" stroke="#af58fa" stroke-width="1"/><path d="M6.5,0,13,11H0Z" transform="translate(1006 4733) rotate(90)" fill="#af58fa"/></g><g transform="translate(3411.746 630.401) rotate(45)"><path d="M-8847-6960h151.823" transform="translate(9692.958 11700)" fill="none" stroke="#af58fa" stroke-width="1"/><path d="M6.5,0,13,11H0Z" transform="translate(1006 4733) rotate(90)" fill="#af58fa"/></g><g transform="translate(3598.746 630.401) rotate(45)"><path d="M-8847-6960h151.823" transform="translate(9692.958 11700)" fill="none" stroke="#af58fa" stroke-width="1"/><path d="M6.5,0,13,11H0Z" transform="translate(1006 4733) rotate(90)" fill="#af58fa"/></g><g transform="translate(467 4820.167) rotate(-45)"><path d="M0,0H151.822" transform="translate(0 6.002)" fill="none" stroke="#af58fa" stroke-width="1"/><path d="M6.5,0,13,11H0Z" transform="translate(160.042 0) rotate(90)" fill="#af58fa"/></g><g transform="translate(654 4820.167) rotate(-45)"><path d="M0,0H151.822" transform="translate(0 6.002)" fill="none" stroke="#af58fa" stroke-width="1"/><path d="M6.5,0,13,11H0Z" transform="translate(160.042 0) rotate(90)" fill="#af58fa"/></g><g transform="translate(841 4820.167) rotate(-45)"><path d="M0,0H151.822" transform="translate(0 6.002)" fill="none" stroke="#af58fa" stroke-width="1"/><path d="M6.5,0,13,11H0Z" transform="translate(160.042 0) rotate(90)" fill="#af58fa"/></g><g transform="translate(-518 -128)"><path d="M-8847-6960h61.12" transform="translate(9783.661 11700)" fill="none" stroke="#af58fa" stroke-width="1"/><path d="M6.5,0,13,11H0Z" transform="translate(1006 4733) rotate(90)" fill="#af58fa"/></g><g transform="translate(-488 -95)"><path d="M-8847-6960h61.12" transform="translate(9783.661 11700)" fill="none" stroke="#af58fa" stroke-width="1"/><path d="M6.5,0,13,11H0Z" transform="translate(1006 4733) rotate(90)" fill="#af58fa"/></g><g transform="translate(-453.33 -62)"><path d="M-8847-6960h61.12" transform="translate(9783.661 11700)" fill="none" stroke="#af58fa" stroke-width="1"/><path d="M6.5,0,13,11H0Z" transform="translate(1006 4733) rotate(90)" fill="#af58fa"/></g><g transform="translate(-330 -128)"><path d="M-8847-6960h61.12" transform="translate(9783.661 11700)" fill="none" stroke="#af58fa" stroke-width="1"/><path d="M6.5,0,13,11H0Z" transform="translate(1006 4733) rotate(90)" fill="#af58fa"/></g><g transform="translate(-300 -95)"><path d="M-8847-6960h61.12" transform="translate(9783.661 11700)" fill="none" stroke="#af58fa" stroke-width="1"/><path d="M6.5,0,13,11H0Z" transform="translate(1006 4733) rotate(90)" fill="#af58fa"/></g><g transform="translate(-265.33 -62)"><path d="M-8847-6960h61.12" transform="translate(9783.661 11700)" fill="none" stroke="#af58fa" stroke-width="1"/><path d="M6.5,0,13,11H0Z" transform="translate(1006 4733) rotate(90)" fill="#af58fa"/></g><g transform="translate(-147 -128)"><path d="M-8847-6960h61.12" transform="translate(9783.661 11700)" fill="none" stroke="#af58fa" stroke-width="1"/><path d="M6.5,0,13,11H0Z" transform="translate(1006 4733) rotate(90)" fill="#af58fa"/></g><g transform="translate(-117 -95)"><path d="M-8847-6960h61.12" transform="translate(9783.661 11700)" fill="none" stroke="#af58fa" stroke-width="1"/><path d="M6.5,0,13,11H0Z" transform="translate(1006 4733) rotate(90)" fill="#af58fa"/></g><g transform="translate(-82.33 -62)"><path d="M-8847-6960h61.12" transform="translate(9783.661 11700)" fill="none" stroke="#af58fa" stroke-width="1"/><path d="M6.5,0,13,11H0Z" transform="translate(1006 4733) rotate(90)" fill="#af58fa"/></g><g transform="translate(-2779.222 1016.603) rotate(-30)"><path d="M-8847-6960h25.58" transform="translate(9819.201 11700)" fill="none" stroke="#af58fa" stroke-width="1"/><path d="M6.5,0,13,11H0Z" transform="translate(1006 4733) rotate(90)" fill="#af58fa"/></g><g transform="translate(-2755.121 1048.602) rotate(-30)"><path d="M-8847-6960h25.58" transform="translate(9819.201 11700)" fill="none" stroke="#af58fa" stroke-width="1"/><path d="M6.5,0,13,11H0Z" transform="translate(1006 4733) rotate(90)" fill="#af58fa"/></g><g transform="translate(-2564.121 1048.602) rotate(-30)"><path d="M-8847-6960h25.58" transform="translate(9819.201 11700)" fill="none" stroke="#af58fa" stroke-width="1"/><path d="M6.5,0,13,11H0Z" transform="translate(1006 4733) rotate(90)" fill="#af58fa"/></g><g transform="translate(-2413.79 1016.603) rotate(-30)"><path d="M-8847-6960h25.58" transform="translate(9819.201 11700)" fill="none" stroke="#af58fa" stroke-width="1"/><path d="M6.5,0,13,11H0Z" transform="translate(1006 4733) rotate(90)" fill="#af58fa"/></g><g transform="translate(-2389.689 1048.602) rotate(-30)"><path d="M-8847-6960h25.58" transform="translate(9819.201 11700)" fill="none" stroke="#af58fa" stroke-width="1"/><path d="M6.5,0,13,11H0Z" transform="translate(1006 4733) rotate(90)" fill="#af58fa"/></g><g transform="translate(-488 22.18)"><path d="M-8847-6960h61.12" transform="translate(9783.661 11700)" fill="none" stroke="#af58fa" stroke-width="1"/><path d="M6.5,0,13,11H0Z" transform="translate(1006 4733) rotate(90)" fill="#af58fa"/></g><g transform="translate(1984.379 146.922) rotate(30)"><path d="M-8847-6960h25.58" transform="translate(9819.201 11700)" fill="none" stroke="#af58fa" stroke-width="1"/><path d="M6.5,0,13,11H0Z" transform="translate(1006 4733) rotate(90)" fill="#af58fa"/></g><g transform="translate(-302.662 27)"><path d="M-8847-6960h61.12" transform="translate(9783.661 11700)" fill="none" stroke="#af58fa" stroke-width="1"/><path d="M6.5,0,13,11H0Z" transform="translate(1006 4733) rotate(90)" fill="#af58fa"/></g><g transform="translate(-265.33 -6)"><path d="M-8847-6960h61.12" transform="translate(9783.661 11700)" fill="none" stroke="#af58fa" stroke-width="1"/><path d="M6.5,0,13,11H0Z" transform="translate(1006 4733) rotate(90)" fill="#af58fa"/></g><g transform="translate(2157.494 146.922) rotate(30)"><path d="M-8847-6960h25.58" transform="translate(9819.201 11700)" fill="none" stroke="#af58fa" stroke-width="1"/><path d="M6.5,0,13,11H0Z" transform="translate(1006 4733) rotate(90)" fill="#af58fa"/></g><g transform="translate(-82.33 -7)"><path d="M-8847-6960h61.12" transform="translate(9783.661 11700)" fill="none" stroke="#af58fa" stroke-width="1"/><path d="M6.5,0,13,11H0Z" transform="translate(1006 4733) rotate(90)" fill="#af58fa"/></g><g transform="translate(-114.33 26)"><path d="M-8847-6960h61.12" transform="translate(9783.661 11700)" fill="none" stroke="#af58fa" stroke-width="1"/><path d="M6.5,0,13,11H0Z" transform="translate(1006 4733) rotate(90)" fill="#af58fa"/></g><g transform="translate(-149 59)"><path d="M-8847-6960h61.12" transform="translate(9783.661 11700)" fill="none" stroke="#af58fa" stroke-width="1"/><path d="M6.5,0,13,11H0Z" transform="translate(1006 4733) rotate(90)" fill="#af58fa"/></g><g transform="translate(2313.164 185.344) rotate(30)"><path d="M-8847-6960h25.58" transform="translate(9819.201 11700)" fill="none" stroke="#af58fa" stroke-width="1"/><path d="M6.5,0,13,11H0Z" transform="translate(1006 4733) rotate(90)" fill="#af58fa"/></g><g transform="translate(2379.549 119.002) rotate(30)"><path d="M-8847-6960h25.58" transform="translate(9819.201 11700)" fill="none" stroke="#af58fa" stroke-width="1"/><path d="M6.5,0,13,11H0Z" transform="translate(1006 4733) rotate(90)" fill="#af58fa"/></g><path d="M4.38-4.753A6.612,6.612,0,0,1,1.747-6.031,2.442,2.442,0,0,1,.923-7.9,2.58,2.58,0,0,1,1.93-9.987a4,4,0,0,1,2.618-.824,4.369,4.369,0,0,1,1.959.425A3.222,3.222,0,0,1,7.841-9.214a3,3,0,0,1,.472,1.633H6.9A1.94,1.94,0,0,0,6.284-9.1a2.508,2.508,0,0,0-1.736-.553A2.565,2.565,0,0,0,2.926-9.2a1.526,1.526,0,0,0-.582,1.271,1.373,1.373,0,0,0,.553,1.1A5.428,5.428,0,0,0,4.779-6a8.717,8.717,0,0,1,2.08.824A3.157,3.157,0,0,1,7.972-4.124,2.683,2.683,0,0,1,8.335-2.71,2.492,2.492,0,0,1,7.324-.634a4.31,4.31,0,0,1-2.7.78A5.013,5.013,0,0,1,2.571-.275,3.451,3.451,0,0,1,1.1-1.428,2.815,2.815,0,0,1,.586-3.091H2a1.837,1.837,0,0,0,.714,1.527A3.007,3.007,0,0,0,4.622-1a2.764,2.764,0,0,0,1.707-.454A1.475,1.475,0,0,0,6.921-2.7a1.448,1.448,0,0,0-.549-1.212A6.333,6.333,0,0,0,4.38-4.753ZM14.817-.784A2.878,2.878,0,0,1,12.5.146a2.464,2.464,0,0,1-1.93-.736A3.186,3.186,0,0,1,9.9-2.769V-7.925H11.25v5.12q0,1.8,1.465,1.8A2.028,2.028,0,0,0,14.78-2.161V-7.925h1.355V0H14.846ZM24.9-3.875a4.712,4.712,0,0,1-.835,2.919,2.668,2.668,0,0,1-2.241,1.1A2.763,2.763,0,0,1,19.5-.916L19.438,0H18.193V-11.25h1.355v4.2a2.747,2.747,0,0,1,2.263-1.018A2.684,2.684,0,0,1,24.078-6.98,4.853,4.853,0,0,1,24.9-3.992Zm-1.355-.154a3.662,3.662,0,0,0-.535-2.139,1.77,1.77,0,0,0-1.538-.754,1.989,1.989,0,0,0-1.926,1.245v3.428A2.045,2.045,0,0,0,21.489-1a1.76,1.76,0,0,0,1.516-.754A3.894,3.894,0,0,0,23.547-4.028ZM31.5,0a2.846,2.846,0,0,1-.19-.835,3.023,3.023,0,0,1-2.256.981,2.8,2.8,0,0,1-1.923-.663A2.145,2.145,0,0,1,26.382-2.2a2.24,2.24,0,0,1,.941-1.923A4.437,4.437,0,0,1,29.971-4.8h1.318v-.623a1.522,1.522,0,0,0-.425-1.132,1.707,1.707,0,0,0-1.252-.421,1.976,1.976,0,0,0-1.216.366,1.079,1.079,0,0,0-.491.886H26.543a1.87,1.87,0,0,1,.421-1.146,2.874,2.874,0,0,1,1.143-.875,3.844,3.844,0,0,1,1.586-.322,3.133,3.133,0,0,1,2.146.685A2.47,2.47,0,0,1,32.644-5.5v3.647a4.459,4.459,0,0,0,.278,1.736V0ZM29.253-1.033a2.381,2.381,0,0,0,1.208-.33,1.994,1.994,0,0,0,.828-.857V-3.845H30.227q-2.49,0-2.49,1.458a1.234,1.234,0,0,0,.425,1A1.633,1.633,0,0,0,29.253-1.033ZM39.382-2.1a1,1,0,0,0-.414-.853,3.983,3.983,0,0,0-1.443-.524,6.822,6.822,0,0,1-1.633-.527A2.324,2.324,0,0,1,35-4.739a1.752,1.752,0,0,1-.289-1.011A2.056,2.056,0,0,1,35.533-7.4a3.218,3.218,0,0,1,2.106-.674,3.311,3.311,0,0,1,2.186.7,2.21,2.21,0,0,1,.839,1.78H39.3a1.223,1.223,0,0,0-.472-.959,1.77,1.77,0,0,0-1.19-.4,1.852,1.852,0,0,0-1.157.322,1.014,1.014,0,0,0-.417.842.822.822,0,0,0,.388.74,4.776,4.776,0,0,0,1.4.476,7.308,7.308,0,0,1,1.644.542,2.4,2.4,0,0,1,.934.758,1.864,1.864,0,0,1,.3,1.08,2.028,2.028,0,0,1-.85,1.7,3.564,3.564,0,0,1-2.2.641A3.991,3.991,0,0,1,36-.19a2.74,2.74,0,0,1-1.146-.941,2.268,2.268,0,0,1-.414-1.307h1.355a1.4,1.4,0,0,0,.546,1.08,2.117,2.117,0,0,0,1.344.4,2.185,2.185,0,0,0,1.234-.311A.956.956,0,0,0,39.382-2.1Zm4.958-7.742v1.919H45.82v1.047H44.341v4.915a1.1,1.1,0,0,0,.2.714.833.833,0,0,0,.674.238,3.281,3.281,0,0,0,.645-.088V0a3.928,3.928,0,0,1-1.04.146A1.687,1.687,0,0,1,43.447-.4a2.36,2.36,0,0,1-.461-1.56V-6.877H41.543V-7.925h1.443V-9.844ZM52.295,0a2.846,2.846,0,0,1-.19-.835,3.023,3.023,0,0,1-2.256.981,2.8,2.8,0,0,1-1.923-.663A2.145,2.145,0,0,1,47.175-2.2a2.24,2.24,0,0,1,.941-1.923A4.437,4.437,0,0,1,50.764-4.8h1.318v-.623a1.522,1.522,0,0,0-.425-1.132,1.707,1.707,0,0,0-1.252-.421,1.976,1.976,0,0,0-1.216.366,1.079,1.079,0,0,0-.491.886H47.336a1.87,1.87,0,0,1,.421-1.146A2.874,2.874,0,0,1,48.9-7.749a3.844,3.844,0,0,1,1.586-.322,3.133,3.133,0,0,1,2.146.685A2.47,2.47,0,0,1,53.438-5.5v3.647a4.459,4.459,0,0,0,.278,1.736V0ZM50.046-1.033a2.381,2.381,0,0,0,1.208-.33,1.994,1.994,0,0,0,.828-.857V-3.845H51.021q-2.49,0-2.49,1.458a1.234,1.234,0,0,0,.425,1A1.633,1.633,0,0,0,50.046-1.033Z" transform="translate(396 4730)" fill="#12263f"/><path d="M9.082-3.384A3.923,3.923,0,0,1,7.833-.773,4.093,4.093,0,0,1,5.039.146,3.758,3.758,0,0,1,2.01-1.208,5.451,5.451,0,0,1,.872-4.834V-5.859A6.076,6.076,0,0,1,1.4-8.474a3.966,3.966,0,0,1,1.505-1.732,4.191,4.191,0,0,1,2.256-.6,3.853,3.853,0,0,1,2.725.948A3.971,3.971,0,0,1,9.082-7.236H7.668a3.05,3.05,0,0,0-.795-1.846,2.409,2.409,0,0,0-1.71-.571,2.517,2.517,0,0,0-2.113,1,4.57,4.57,0,0,0-.765,2.834V-4.79A4.7,4.7,0,0,0,3.01-2.029,2.344,2.344,0,0,0,5.039-1a2.706,2.706,0,0,0,1.8-.531,2.947,2.947,0,0,0,.831-1.849ZM15.681,0a2.846,2.846,0,0,1-.19-.835,3.023,3.023,0,0,1-2.256.981,2.8,2.8,0,0,1-1.923-.663A2.145,2.145,0,0,1,10.562-2.2,2.24,2.24,0,0,1,11.5-4.12,4.437,4.437,0,0,1,14.15-4.8h1.318v-.623a1.522,1.522,0,0,0-.425-1.132,1.707,1.707,0,0,0-1.252-.421,1.976,1.976,0,0,0-1.216.366,1.079,1.079,0,0,0-.491.886H10.723a1.87,1.87,0,0,1,.421-1.146,2.874,2.874,0,0,1,1.143-.875,3.844,3.844,0,0,1,1.586-.322,3.133,3.133,0,0,1,2.146.685A2.47,2.47,0,0,1,16.824-5.5v3.647A4.459,4.459,0,0,0,17.1-.117V0ZM13.433-1.033a2.381,2.381,0,0,0,1.208-.33,1.994,1.994,0,0,0,.828-.857V-3.845H14.407q-2.49,0-2.49,1.458a1.234,1.234,0,0,0,.425,1A1.633,1.633,0,0,0,13.433-1.033ZM23.84-.784a2.878,2.878,0,0,1-2.322.93,2.464,2.464,0,0,1-1.93-.736,3.186,3.186,0,0,1-.67-2.179V-7.925h1.355v5.12q0,1.8,1.465,1.8A2.028,2.028,0,0,0,23.8-2.161V-7.925h1.355V0H23.87ZM31.831-2.1a1,1,0,0,0-.414-.853,3.983,3.983,0,0,0-1.443-.524,6.822,6.822,0,0,1-1.633-.527,2.324,2.324,0,0,1-.894-.732,1.752,1.752,0,0,1-.289-1.011A2.056,2.056,0,0,1,27.982-7.4a3.218,3.218,0,0,1,2.106-.674,3.311,3.311,0,0,1,2.186.7,2.21,2.21,0,0,1,.839,1.78H31.75a1.223,1.223,0,0,0-.472-.959,1.77,1.77,0,0,0-1.19-.4,1.852,1.852,0,0,0-1.157.322,1.014,1.014,0,0,0-.417.842.822.822,0,0,0,.388.74,4.776,4.776,0,0,0,1.4.476,7.308,7.308,0,0,1,1.644.542,2.4,2.4,0,0,1,.934.758,1.864,1.864,0,0,1,.3,1.08,2.028,2.028,0,0,1-.85,1.7,3.564,3.564,0,0,1-2.2.641A3.991,3.991,0,0,1,28.447-.19,2.74,2.74,0,0,1,27.3-1.132a2.268,2.268,0,0,1-.414-1.307h1.355a1.4,1.4,0,0,0,.546,1.08,2.117,2.117,0,0,0,1.344.4,2.185,2.185,0,0,0,1.234-.311A.956.956,0,0,0,31.831-2.1ZM39.844,0a2.846,2.846,0,0,1-.19-.835A3.023,3.023,0,0,1,37.4.146a2.8,2.8,0,0,1-1.923-.663A2.145,2.145,0,0,1,34.724-2.2a2.24,2.24,0,0,1,.941-1.923A4.437,4.437,0,0,1,38.313-4.8h1.318v-.623a1.522,1.522,0,0,0-.425-1.132,1.707,1.707,0,0,0-1.252-.421,1.976,1.976,0,0,0-1.216.366,1.079,1.079,0,0,0-.491.886H34.885a1.87,1.87,0,0,1,.421-1.146,2.874,2.874,0,0,1,1.143-.875,3.844,3.844,0,0,1,1.586-.322,3.133,3.133,0,0,1,2.146.685A2.47,2.47,0,0,1,40.986-5.5v3.647a4.459,4.459,0,0,0,.278,1.736V0ZM37.6-1.033a2.381,2.381,0,0,0,1.208-.33,1.994,1.994,0,0,0,.828-.857V-3.845H38.569q-2.49,0-2.49,1.458a1.234,1.234,0,0,0,.425,1A1.633,1.633,0,0,0,37.6-1.033ZM53.518-3.875A4.745,4.745,0,0,1,52.69-.959,2.653,2.653,0,0,1,50.449.146a2.906,2.906,0,0,1-2.271-.916V3.047H46.824V-7.925h1.238l.066.879a2.791,2.791,0,0,1,2.3-1.025,2.7,2.7,0,0,1,2.26,1.077,4.8,4.8,0,0,1,.831,3Zm-1.355-.154a3.5,3.5,0,0,0-.571-2.117,1.84,1.84,0,0,0-1.567-.776A1.992,1.992,0,0,0,48.179-5.83v3.787a2,2,0,0,0,1.86,1.084,1.832,1.832,0,0,0,1.549-.773A3.822,3.822,0,0,0,52.163-4.028ZM59.07-6.709A4.06,4.06,0,0,0,58.4-6.76a1.786,1.786,0,0,0-1.809,1.135V0H55.239V-7.925h1.318l.022.916a2.11,2.11,0,0,1,1.89-1.062,1.384,1.384,0,0,1,.6.1ZM61.787,0H60.432V-7.925h1.355ZM60.322-10.027a.809.809,0,0,1,.2-.557.756.756,0,0,1,.6-.227.768.768,0,0,1,.6.227.8.8,0,0,1,.205.557.774.774,0,0,1-.205.549.782.782,0,0,1-.6.22.77.77,0,0,1-.6-.22A.782.782,0,0,1,60.322-10.027Zm4.915,2.1.044,1a2.888,2.888,0,0,1,2.373-1.143q2.512,0,2.534,2.834V0H68.833V-5.244a1.824,1.824,0,0,0-.392-1.267,1.57,1.57,0,0,0-1.2-.41,1.956,1.956,0,0,0-1.157.352,2.387,2.387,0,0,0-.776.923V0H63.955V-7.925ZM75.41-.959A1.952,1.952,0,0,0,76.677-1.4a1.546,1.546,0,0,0,.6-1.1H78.56a2.457,2.457,0,0,1-.469,1.3,3.087,3.087,0,0,1-1.154.981A3.329,3.329,0,0,1,75.41.146a3.265,3.265,0,0,1-2.574-1.08,4.3,4.3,0,0,1-.956-2.955v-.227A4.771,4.771,0,0,1,72.3-6.174a3.236,3.236,0,0,1,1.219-1.4,3.464,3.464,0,0,1,1.879-.5,3.178,3.178,0,0,1,2.216.8A2.853,2.853,0,0,1,78.56-5.2H77.278A1.867,1.867,0,0,0,76.7-6.464,1.811,1.811,0,0,0,75.4-6.958a1.9,1.9,0,0,0-1.6.743,3.491,3.491,0,0,0-.568,2.15v.256A3.422,3.422,0,0,0,73.8-1.7,1.906,1.906,0,0,0,75.41-.959ZM81.555,0H80.2V-7.925h1.355ZM80.09-10.027a.809.809,0,0,1,.2-.557.756.756,0,0,1,.6-.227.768.768,0,0,1,.6.227.8.8,0,0,1,.205.557.774.774,0,0,1-.205.549.782.782,0,0,1-.6.22.77.77,0,0,1-.6-.22A.782.782,0,0,1,80.09-10.027ZM90.417-3.875A4.745,4.745,0,0,1,89.59-.959,2.653,2.653,0,0,1,87.349.146a2.906,2.906,0,0,1-2.271-.916V3.047H83.723V-7.925h1.238l.066.879a2.791,2.791,0,0,1,2.3-1.025,2.7,2.7,0,0,1,2.26,1.077,4.8,4.8,0,0,1,.831,3Zm-1.355-.154a3.5,3.5,0,0,0-.571-2.117,1.84,1.84,0,0,0-1.567-.776A1.992,1.992,0,0,0,85.078-5.83v3.787a2,2,0,0,0,1.86,1.084,1.832,1.832,0,0,0,1.549-.773A3.822,3.822,0,0,0,89.063-4.028ZM97.031,0a2.846,2.846,0,0,1-.19-.835,3.023,3.023,0,0,1-2.256.981,2.8,2.8,0,0,1-1.923-.663A2.145,2.145,0,0,1,91.912-2.2a2.24,2.24,0,0,1,.941-1.923A4.437,4.437,0,0,1,95.5-4.8h1.318v-.623a1.522,1.522,0,0,0-.425-1.132,1.707,1.707,0,0,0-1.252-.421,1.976,1.976,0,0,0-1.216.366,1.079,1.079,0,0,0-.491.886H92.073a1.87,1.87,0,0,1,.421-1.146,2.874,2.874,0,0,1,1.143-.875,3.844,3.844,0,0,1,1.586-.322,3.133,3.133,0,0,1,2.146.685A2.47,2.47,0,0,1,98.174-5.5v3.647a4.459,4.459,0,0,0,.278,1.736V0ZM94.783-1.033a2.381,2.381,0,0,0,1.208-.33,1.994,1.994,0,0,0,.828-.857V-3.845H95.757q-2.49,0-2.49,1.458a1.234,1.234,0,0,0,.425,1A1.633,1.633,0,0,0,94.783-1.033ZM101.77,0h-1.355V-11.25h1.355Z" transform="translate(396 4784)" fill="#12263f"/><path d="M0,0H222V26H0Z" transform="translate(959 4485)" fill="#e4c4ff"/><path d="M22,0,44,38H0Z" transform="translate(924 4520) rotate(-90)" fill="#e4c4ff"/><path d="M22,0,44,38H0Z" transform="translate(1212 4476) rotate(90)" fill="#e4c4ff"/><path d="M8.9-5.423H4.052v3.05h5.73V0H.967V-12.8H9.8v2.382H4.052v2.7H8.9ZM11.4,0V-7.453H10.02V-9.51H11.4v-.756a3.286,3.286,0,0,1,.958-2.522,3.785,3.785,0,0,1,2.689-.9,5.889,5.889,0,0,1,1.389.185l.009,2.18a2.706,2.706,0,0,0-.729-.079q-1.345,0-1.345,1.16v.729h1.854v2.057H14.37V0ZM21.656.176a4.889,4.889,0,0,1-3.542-1.305,4.507,4.507,0,0,1-1.354-3.4v-.246A5.84,5.84,0,0,1,17.3-7.348a3.955,3.955,0,0,1,1.578-1.727,4.763,4.763,0,0,1,2.461-.611A4.117,4.117,0,0,1,24.5-8.442a4.887,4.887,0,0,1,1.16,3.467v1.151H19.775a2.135,2.135,0,0,0,.694,1.257,2.066,2.066,0,0,0,1.389.457,2.662,2.662,0,0,0,2.2-.984l1.354,1.6A3.784,3.784,0,0,1,23.84-.277,5.3,5.3,0,0,1,21.656.176ZM21.322-7.4q-1.3,0-1.547,1.723h2.988v-.229a1.467,1.467,0,0,0-.36-1.1A1.434,1.434,0,0,0,21.322-7.4Zm9.554,5.291a1.317,1.317,0,0,0,.967-.338,1.241,1.241,0,0,0,.334-.945h2.777A3.288,3.288,0,0,1,33.833-.826a4.168,4.168,0,0,1-2.887,1,4.22,4.22,0,0,1-3.27-1.3,5.125,5.125,0,0,1-1.2-3.6v-.123A5.792,5.792,0,0,1,27.013-7.4a3.872,3.872,0,0,1,1.534-1.7,4.573,4.573,0,0,1,2.373-.593,4.116,4.116,0,0,1,2.944,1.028,3.647,3.647,0,0,1,1.09,2.786H32.177A1.626,1.626,0,0,0,31.816-7a1.244,1.244,0,0,0-.967-.4Q29.7-7.4,29.5-5.933a10.357,10.357,0,0,0-.062,1.283,4.068,4.068,0,0,0,.343,1.986A1.187,1.187,0,0,0,30.876-2.109Zm8.78-9.765V-9.51h1.564v2.057H39.656V-3.1a1.111,1.111,0,0,0,.193.747,1.037,1.037,0,0,0,.765.211,4.345,4.345,0,0,0,.738-.053V-.079a5.466,5.466,0,0,1-1.67.255,3.1,3.1,0,0,1-2.259-.721,2.954,2.954,0,0,1-.729-2.188v-4.72H35.481V-9.51h1.213v-2.364Zm2.092,7.031A5.613,5.613,0,0,1,42.3-7.378a3.96,3.96,0,0,1,1.591-1.709,4.791,4.791,0,0,1,2.435-.6,4.373,4.373,0,0,1,3.366,1.323,5.076,5.076,0,0,1,1.23,3.6v.105a4.925,4.925,0,0,1-1.235,3.529A4.384,4.384,0,0,1,46.345.176a4.434,4.434,0,0,1-3.261-1.217,4.761,4.761,0,0,1-1.327-3.3Zm2.962.185a3.538,3.538,0,0,0,.413,1.934,1.376,1.376,0,0,0,1.222.615q1.582,0,1.617-2.435v-.3q0-2.558-1.635-2.558-1.485,0-1.608,2.206Z" transform="translate(1045 4504)" fill="#12263f"/><path d="M75.5,0A75.5,75.5,0,1,1,0,75.5,75.5,75.5,0,0,1,75.5,0Z" transform="translate(1023 4625)" fill="#af58fa"/><path d="M5.627-6.03V0H1.343V-17.773H8.435a8.261,8.261,0,0,1,3.607.751,5.658,5.658,0,0,1,2.429,2.136,5.834,5.834,0,0,1,.861,3.143A5.143,5.143,0,0,1,13.47-7.587,7.724,7.724,0,0,1,8.362-6.03Zm0-3.308H8.435a2.648,2.648,0,0,0,1.9-.623,2.313,2.313,0,0,0,.653-1.758,2.859,2.859,0,0,0-.671-1.99,2.377,2.377,0,0,0-1.831-.757H5.627Zm19.788-.146-1.355-.1a2.434,2.434,0,0,0-2.49,1.221V0H17.456V-13.208h3.857l.134,1.7a3.185,3.185,0,0,1,2.893-1.941,4.012,4.012,0,0,1,1.147.146Zm.525,2.759a7.8,7.8,0,0,1,.769-3.522,5.5,5.5,0,0,1,2.209-2.374,6.654,6.654,0,0,1,3.381-.83,6.073,6.073,0,0,1,4.675,1.837,7.05,7.05,0,0,1,1.709,5v.146a6.84,6.84,0,0,1-1.715,4.9A6.089,6.089,0,0,1,32.324.244,6.159,6.159,0,0,1,27.8-1.447,6.613,6.613,0,0,1,25.952-6.03Zm4.114.256a4.914,4.914,0,0,0,.574,2.686,1.911,1.911,0,0,0,1.7.854q2.2,0,2.246-3.381v-.415q0-3.552-2.271-3.552-2.063,0-2.234,3.064Zm22.705-.024A8.05,8.05,0,0,1,51.416-1.5,4.5,4.5,0,0,1,47.632.244a3.9,3.9,0,0,1-3.247-1.6L44.214,0H40.527V-18.75h4.114v6.6a3.766,3.766,0,0,1,2.966-1.306,4.5,4.5,0,0,1,3.809,1.77A8.092,8.092,0,0,1,52.759-6.7ZM48.633-6.75a5.386,5.386,0,0,0-.507-2.716,1.707,1.707,0,0,0-1.556-.812,1.969,1.969,0,0,0-1.929,1.062v5.249a1.98,1.98,0,0,0,1.953,1.05,1.747,1.747,0,0,0,1.843-1.416A10.185,10.185,0,0,0,48.633-6.75ZM58.911,0H54.785V-18.75h4.126Zm8.923.244a6.79,6.79,0,0,1-4.919-1.813,6.26,6.26,0,0,1-1.88-4.718v-.342a8.111,8.111,0,0,1,.751-3.577,5.493,5.493,0,0,1,2.191-2.4,6.615,6.615,0,0,1,3.418-.848,5.717,5.717,0,0,1,4.395,1.727A6.788,6.788,0,0,1,73.4-6.909v1.6H65.222a2.965,2.965,0,0,0,.964,1.746,2.869,2.869,0,0,0,1.929.635A3.7,3.7,0,0,0,71.167-4.3l1.88,2.222A5.255,5.255,0,0,1,70.868-.385,7.363,7.363,0,0,1,67.834.244Zm-.464-10.522q-1.807,0-2.148,2.393h4.15V-8.2a2.038,2.038,0,0,0-.5-1.532A1.992,1.992,0,0,0,67.371-10.278Zm11.572-2.93.134,1.55a4.541,4.541,0,0,1,3.772-1.794,3.343,3.343,0,0,1,3.381,1.99,4.4,4.4,0,0,1,3.882-1.99q4.016,0,4.126,4.858V0H90.112V-8.337a2.518,2.518,0,0,0-.342-1.477,1.455,1.455,0,0,0-1.245-.464,1.949,1.949,0,0,0-1.819,1.086l.012.171V0H82.593V-8.313a2.647,2.647,0,0,0-.33-1.5,1.451,1.451,0,0,0-1.257-.464A1.973,1.973,0,0,0,79.2-9.192V0H75.085V-13.208ZM104.028,0a4.645,4.645,0,0,1-.391-1.184A3.825,3.825,0,0,1,100.464.244,4.686,4.686,0,0,1,97.29-.885a3.594,3.594,0,0,1-1.306-2.838A3.694,3.694,0,0,1,97.571-6.97a8.085,8.085,0,0,1,4.614-1.1h1.27v-.7q0-1.819-1.575-1.819a1.284,1.284,0,0,0-1.465,1.44H96.3a3.693,3.693,0,0,1,1.63-3.113,6.843,6.843,0,0,1,4.156-1.2,6,6,0,0,1,3.992,1.233,4.287,4.287,0,0,1,1.5,3.381v5.847a5.988,5.988,0,0,0,.562,2.783V0Zm-2.576-2.686a2.3,2.3,0,0,0,1.276-.33,2.066,2.066,0,0,0,.726-.745V-5.872h-1.2q-2.148,0-2.148,1.929a1.178,1.178,0,0,0,.378.909A1.369,1.369,0,0,0,101.453-2.686Z" transform="translate(1045 4708)" fill="#fff"/></g></svg>