<svg xmlns="http://www.w3.org/2000/svg" width="259" height="259" viewBox="0 0 259 259"><g transform="translate(6799 4177)"><rect width="259" height="259" rx="22" transform="translate(-6799 -4177)" fill="#fff"/><g transform="translate(-6803.278 -4133)"><g transform="translate(72.553 2.505)"><path d="M120.75,336.953a22.774,22.774,0,1,1-32.207-32.207Z" transform="translate(-80.427 -205.47)" fill="#f9f6f6"/><path d="M109.2,343.164a22.774,22.774,0,0,1-20.653-38.418l5.2,5.2A22.776,22.776,0,0,0,109.2,343.164Z" transform="translate(-80.427 -205.47)" fill="#dddaec"/><path d="M190.706,372.848a22.4,22.4,0,0,1,12.708,20.2v7.919a7.924,7.924,0,1,1,0,15.848H129.4a7.924,7.924,0,1,1,0-15.848V393.05a22.4,22.4,0,0,1,12.708-20.2" transform="translate(-106.806 -250.827)" fill="#be694f"/><path d="M229.579,377.442a8.071,8.071,0,0,1-8.1,8.079h-9.765A8.713,8.713,0,0,1,203,376.808a8.713,8.713,0,0,1-8.714,8.714h-9.765a8.071,8.071,0,0,1-8.1-8.079,7.923,7.923,0,0,1,7.922-7.768l-3.751-10.55a37.968,37.968,0,0,1,.03-25.539l2.765-7.725h39.229l2.765,7.725a37.968,37.968,0,0,1,.03,25.539l-3.751,10.55a7.923,7.923,0,0,1,7.921,7.769Z" transform="translate(-143.394 -219.531)" fill="#d09080"/><path d="M194.284,385.525h-9.765a8.071,8.071,0,0,1-8.1-8.079,7.923,7.923,0,0,1,7.922-7.769l-3.751-10.55a37.968,37.968,0,0,1,.03-25.539l2.765-7.725h9.775l-2.765,7.725a37.968,37.968,0,0,0-.03,25.539l3.751,10.55a7.923,7.923,0,0,0-7.922,7.769A8.072,8.072,0,0,0,194.284,385.525Z" transform="translate(-143.394 -219.534)" fill="#c67d66"/><path d="M236.508,281.51v14.812a47.682,47.682,0,0,1-39.229,0V281.51Z" transform="translate(-157.29 -189.994)" fill="#ffe07d"/><path d="M206,281.51v17.771a47.458,47.458,0,0,1-8.717-2.959V281.51Z" transform="translate(-157.29 -189.994)" fill="#ffd064"/><circle cx="15.512" cy="15.512" r="15.512" transform="translate(44.092 68.673)" fill="#da4a54"/><path d="M188.138,36.763H154.672a25.692,25.692,0,0,0-25.693,25.693V92.812A25.692,25.692,0,0,0,154.672,118.5h33.466A25.692,25.692,0,0,0,213.83,92.812V62.456a25.692,25.692,0,0,0-25.693-25.693Z" transform="translate(-111.801 -26.99)" fill="#d09080"/><path d="M182.152,118.5h-27.48A25.692,25.692,0,0,1,128.979,92.81V62.455a25.694,25.694,0,0,1,25.693-25.693h27.48a25.694,25.694,0,0,0-25.693,25.693V92.81A25.691,25.691,0,0,0,182.152,118.5Z" transform="translate(-111.801 -26.989)" fill="#c67d66"/><path d="M236.557,36.765h12.992V82.52H236.557Z" transform="translate(-183.449 -26.991)" fill="#f9f6f6"/><path d="M249.53,36.765v.357a25.565,25.565,0,0,0-12.972,6.289V36.765Z" transform="translate(-183.45 -26.991)" fill="#dddaec"/><path d="M200.2,173.767H186.1a13.892,13.892,0,0,0-13.892,13.892v14.763a13.994,13.994,0,0,0,27.987,0,13.994,13.994,0,0,0,27.987,0V187.658a13.892,13.892,0,0,0-13.892-13.892Z" transform="translate(-140.592 -118.236)" fill="#f9f6f6"/><path d="M193.459,214.385a14,14,0,0,1-21.251-11.966V187.653a13.893,13.893,0,0,1,13.894-13.89h14.511a13.89,13.89,0,0,0-13.89,13.89v14.765A13.977,13.977,0,0,0,193.459,214.385Z" transform="translate(-140.592 -118.233)" fill="#dddaec"/><path d="M234.988,157.8H221.216a7.108,7.108,0,1,0,0,14.216h2.221v4.22a4.664,4.664,0,1,0,9.329,0v-4.22h2.221a7.108,7.108,0,0,0,0-14.216Z" transform="translate(-168.498 -107.605)" fill="#30579d"/><path d="M230.259,180.37a4.668,4.668,0,0,1-6.823-4.138v-4.218h-2.221a7.109,7.109,0,0,1,0-14.218h6.539a7.109,7.109,0,1,0,0,14.218v4.218a4.669,4.669,0,0,0,2.5,4.138Z" transform="translate(-168.497 -107.599)" fill="#26457d"/><path d="M97.317,10.462,80.509,27.27a10.105,10.105,0,0,0,0,14.291l7.984,7.984a10.105,10.105,0,0,0,16.666-3.757L113.983,21A10.105,10.105,0,0,0,97.317,10.462Z" transform="translate(-77.548 -7.501)" fill="#f9f6f6"/><path d="M93.315,26.978a10.1,10.1,0,0,0,0,14.291l7.982,7.982a9.676,9.676,0,0,0,.928.822,10.112,10.112,0,0,1-13.737-.531l-7.982-7.982a10.1,10.1,0,0,1,0-14.291L97.313,10.459a10.1,10.1,0,0,1,13.373-.808c-.194.16-.381.334-.564.518Z" transform="translate(-77.546 -7.5)" fill="#dddaec"/><path d="M340.876,10.462,357.684,27.27a10.105,10.105,0,0,1,0,14.291L349.7,49.544a10.105,10.105,0,0,1-16.666-3.757L324.21,21a10.105,10.105,0,0,1,16.666-10.534Z" transform="translate(-241.438 -7.501)" fill="#f9f6f6"/><path d="M347.7,51.106a10.108,10.108,0,0,1-14.665-5.314L324.21,21A10.107,10.107,0,0,1,338.875,8.911a9.9,9.9,0,0,0-2,1.553A10.111,10.111,0,0,0,334.5,21l8.827,24.795A9.963,9.963,0,0,0,347.7,51.106Z" transform="translate(-241.437 -7.503)" fill="#dddaec"/></g><g transform="translate(70.049 0)"><path d="M190.571,20.5l-3.133-3.133a2.5,2.5,0,0,0-3.542,3.542l3.133,3.133a7.612,7.612,0,0,1,0,10.748l-7.987,7.983a7.6,7.6,0,0,1-12.534-2.827l-8.824-24.791A7.6,7.6,0,0,1,164.847,5.01a7.559,7.559,0,0,1,5.373,2.225l6.6,6.6a2.5,2.5,0,0,0,3.542-3.542l-6.6-6.6a12.588,12.588,0,0,0-21.238,6.317,28.44,28.44,0,0,0-3.632-.236H115.422a28.385,28.385,0,0,0-3.632.236A12.589,12.589,0,0,0,90.55,3.694L73.743,20.5a12.61,12.61,0,0,0,0,17.834l7.984,7.984a12.586,12.586,0,0,0,5.5,3.227V68.325A28.206,28.206,0,0,0,103.263,93.77a16.607,16.607,0,0,0,6.776,7.271v7.351l-2.622,7.322a40.315,40.315,0,0,0-1.838,7.174l-.171.094L82.436,100.011a2.5,2.5,0,0,0-3.542,0,25.023,25.023,0,0,0-7.2,14.657,2.5,2.5,0,1,0,4.97.633,20.015,20.015,0,0,1,4.105-9.869l20.481,20.481a25.187,25.187,0,0,0-7.639,11.99,20.262,20.262,0,0,1-16.124-13.753,2.5,2.5,0,1,0-4.767,1.541,25.265,25.265,0,0,0,20,17.14c-.049.629-.075,1.261-.075,1.9v5.715A10.431,10.431,0,0,0,95.151,171h74.01a10.429,10.429,0,0,0,2.5-20.554v-5.718a25.063,25.063,0,0,0-12.932-21.84,40.322,40.322,0,0,0-1.838-7.174l-2.62-7.315V101.05a16.571,16.571,0,0,0,6.786-7.283,28.207,28.207,0,0,0,16.027-25.442V49.545a12.579,12.579,0,0,0,5.5-3.227l7.987-7.983a12.627,12.627,0,0,0,0-17.833ZM127.492,64.416h-2.221a4.6,4.6,0,0,1,0-9.206h13.772a4.6,4.6,0,0,1,0,9.206h-2.221a2.5,2.5,0,0,0-2.5,2.5v4.22a2.16,2.16,0,1,1-4.319,0v-4.22A2.5,2.5,0,0,0,127.492,64.416Zm8.657-49.634V50.2h-7.984V14.782ZM77.285,34.793a7.6,7.6,0,0,1,0-10.749L94.093,7.236a7.6,7.6,0,0,1,12.535,7.923L97.8,39.951a7.6,7.6,0,0,1-12.535,2.826Zm24.378,37.134V86.69c0,.1.006.206.008.309a23.2,23.2,0,0,1-9.436-18.673V49.909c.394-.051.789-.116,1.182-.2a12.546,12.546,0,0,0,9.107-8.073l8.824-24.792a12.44,12.44,0,0,0,.486-1.778,23.406,23.406,0,0,1,3.589-.279h7.732V50.437a9.647,9.647,0,0,0-6.521,5.16A16.416,16.416,0,0,0,101.663,71.927ZM89.731,160.569a5.42,5.42,0,0,1,5.421-5.417,2.5,2.5,0,0,0,2.5-2.5v-7.919a20.03,20.03,0,0,1,7.4-15.472,40.517,40.517,0,0,0,2.333,13.68l2.761,7.764a10.492,10.492,0,0,0-7.077,9.669,10.165,10.165,0,0,0,1.564,5.62H95.152a5.426,5.426,0,0,1-5.421-5.42Zm51.139,5.42a6.216,6.216,0,0,1-6.208-6.209V141.657a8.294,8.294,0,0,0,5.775-7.892,2.5,2.5,0,1,0-5.01,0,3.27,3.27,0,0,1-6.541,0,2.5,2.5,0,1,0-5.01,0,8.294,8.294,0,0,0,5.775,7.892v18.123a6.216,6.216,0,0,1-6.208,6.209h-9.766a5.709,5.709,0,0,1-4.047-1.71,5.282,5.282,0,0,1-1.549-3.815,5.445,5.445,0,0,1,5.418-5.313,2.5,2.5,0,0,0,2.36-3.344l-3.751-10.549a35.58,35.58,0,0,1,.027-23.855l1.877-5.24a50.179,50.179,0,0,0,36.292,0l1.877,5.24a35.58,35.58,0,0,1,.027,23.855l-3.751,10.549a2.5,2.5,0,0,0,2.36,3.344,5.445,5.445,0,0,1,5.418,5.314,5.282,5.282,0,0,1-1.549,3.815,5.709,5.709,0,0,1-4.047,1.71H140.87Zm25.787-21.261v7.919a2.5,2.5,0,0,0,2.5,2.5,5.419,5.419,0,1,1,0,10.838h-9.483a10.166,10.166,0,0,0,1.564-5.62,10.493,10.493,0,0,0-7.077-9.669l2.761-7.764a40.516,40.516,0,0,0,2.333-13.68A20.027,20.027,0,0,1,166.657,144.729Zm-17.391-37.544a45.173,45.173,0,0,1-34.217,0V102.89a16.488,16.488,0,0,0,8.237-.514,18.041,18.041,0,0,0,17.745,0,16.426,16.426,0,0,0,5.118.817,16.67,16.67,0,0,0,3.116-.295v4.291Zm-20.425-7.923c.339-.289.671-.588.989-.906a16.648,16.648,0,0,0,2.332-2.925,16.627,16.627,0,0,0,3.315,3.829,12.86,12.86,0,0,1-6.636,0Zm28.8-12.572a11.489,11.489,0,1,1-22.978,0,2.5,2.5,0,0,0-5.01,0,11.489,11.489,0,0,1-22.978,0V71.927a11.405,11.405,0,0,1,9.034-11.139,9.627,9.627,0,0,0,9.28,8.634v1.72a7.169,7.169,0,0,0,14.339,0v-1.72a9.627,9.627,0,0,0,9.28-8.634,11.4,11.4,0,0,1,9.033,11.14V86.69Zm5,.312c0-.1.008-.207.008-.311V71.928A16.415,16.415,0,0,0,147.68,55.6a9.648,9.648,0,0,0-6.521-5.16V14.782h7.732a23.446,23.446,0,0,1,3.588.279,12.464,12.464,0,0,0,.486,1.777l8.824,24.793A12.551,12.551,0,0,0,170.9,49.7c.392.088.785.153,1.177.2V68.326A23.2,23.2,0,0,1,162.641,87Z" transform="translate(-70.049 0)"/><ellipse cx="4.04" cy="6.483" rx="4.04" ry="6.483" transform="translate(37.854 39.788)"/><path d="M308.472,119.131c-2.228,0-4.04,2.908-4.04,6.483s1.812,6.483,4.04,6.483,4.04-2.908,4.04-6.483S310.7,119.131,308.472,119.131Z" transform="translate(-226.151 -79.343)"/></g></g></g></svg>