<svg xmlns="http://www.w3.org/2000/svg" xmlns:xlink="http://www.w3.org/1999/xlink" width="295" height="316" viewBox="0 0 295 316"><defs><linearGradient id="a" x1="0.053" y1="0.047" x2="0.962" y2="0.97" gradientUnits="objectBoundingBox"><stop offset="0" stop-color="#af58fa"/><stop offset="0.798" stop-color="#43efd4"/><stop offset="1" stop-color="#43efd4"/></linearGradient></defs><g transform="translate(-810 -3309)"><rect width="295" height="316" rx="12" transform="translate(810 3309)" fill="url(#a)"/><path d="M-46.066-13.887h-5.121V0H-55.3V-13.887h-5.027v-3.176h14.262ZM-33.75-7.23h-6.469v4.066h7.641V0H-44.332V-17.062h11.777v3.176h-7.664v3.6h6.469Zm-3.832-14.4h4.172l-3.258,3.68h-3.223ZM-17.1-5.777a6.231,6.231,0,0,1-.961,3.146A5.8,5.8,0,0,1-20.525-.516a8.4,8.4,0,0,1-3.627.75,6.7,6.7,0,0,1-5.3-2.191,9.048,9.048,0,0,1-1.934-6.187v-.844a10.328,10.328,0,0,1,.873-4.389A6.615,6.615,0,0,1-28-16.283a7.013,7.013,0,0,1,3.8-1.025,7.354,7.354,0,0,1,4.992,1.635,6.459,6.459,0,0,1,2.145,4.506h-4.1a3.056,3.056,0,0,0-.785-2.238,3.229,3.229,0,0,0-2.25-.68,2.457,2.457,0,0,0-2.25,1.148A7.381,7.381,0,0,0-27.2-9.27v1.207a8.167,8.167,0,0,0,.686,3.9,2.509,2.509,0,0,0,2.361,1.172,3.159,3.159,0,0,0,2.168-.668,2.835,2.835,0,0,0,.8-2.121ZM-.9,0h-4.09l-6.047-10.617V0h-4.113V-17.062h4.113L-5-6.445V-17.062H-.9ZM6.082,0H1.98V-17.062h4.1ZM22.746-5.777a6.231,6.231,0,0,1-.961,3.146A5.8,5.8,0,0,1,19.318-.516a8.4,8.4,0,0,1-3.627.75,6.7,6.7,0,0,1-5.3-2.191A9.048,9.048,0,0,1,8.461-8.145v-.844a10.328,10.328,0,0,1,.873-4.389,6.615,6.615,0,0,1,2.514-2.906,7.013,7.013,0,0,1,3.8-1.025,7.354,7.354,0,0,1,4.992,1.635,6.459,6.459,0,0,1,2.145,4.506h-4.1a3.056,3.056,0,0,0-.785-2.238,3.229,3.229,0,0,0-2.25-.68,2.457,2.457,0,0,0-2.25,1.148,7.381,7.381,0,0,0-.75,3.668v1.207a8.167,8.167,0,0,0,.686,3.9,2.509,2.509,0,0,0,2.361,1.172,3.159,3.159,0,0,0,2.168-.668,2.835,2.835,0,0,0,.8-2.121Zm11.637,2.59H28.746L27.762,0H23.367l6.258-17.062h3.867L39.8,0H35.379ZM29.73-6.363H33.4l-1.84-5.918ZM49.84-4.535A1.69,1.69,0,0,0,49.2-5.941a7.938,7.938,0,0,0-2.244-1.043,21.53,21.53,0,0,1-2.625-1.043Q41.016-9.656,41.016-12.5a4.014,4.014,0,0,1,.826-2.5,5.344,5.344,0,0,1,2.338-1.687,9.1,9.1,0,0,1,3.4-.6,7.958,7.958,0,0,1,3.3.656,5.223,5.223,0,0,1,2.268,1.869A4.881,4.881,0,0,1,53.953-12h-4.1a2.063,2.063,0,0,0-.639-1.617,2.489,2.489,0,0,0-1.729-.574,2.807,2.807,0,0,0-1.74.486,1.492,1.492,0,0,0-.639,1.236,1.5,1.5,0,0,0,.7,1.189,8.867,8.867,0,0,0,2.473,1.1,15.147,15.147,0,0,1,2.906,1.225,4.884,4.884,0,0,1,2.766,4.395,4.166,4.166,0,0,1-1.687,3.516A7.506,7.506,0,0,1,47.637.234,9.184,9.184,0,0,1,43.881-.51,5.663,5.663,0,0,1,41.35-2.549a5.313,5.313,0,0,1-.85-2.982h4.125a2.617,2.617,0,0,0,.709,2.021,3.351,3.351,0,0,0,2.3.65A2.647,2.647,0,0,0,49.248-3.3,1.45,1.45,0,0,0,49.84-4.535ZM-77.1,24.223a6.231,6.231,0,0,1-.961,3.146,5.8,5.8,0,0,1-2.467,2.115,8.4,8.4,0,0,1-3.627.75,6.7,6.7,0,0,1-5.3-2.191,9.048,9.048,0,0,1-1.934-6.187v-.844a10.328,10.328,0,0,1,.873-4.389A6.615,6.615,0,0,1-88,13.717a7.013,7.013,0,0,1,3.8-1.025,7.354,7.354,0,0,1,4.992,1.635,6.459,6.459,0,0,1,2.145,4.506h-4.1a3.056,3.056,0,0,0-.785-2.238,3.229,3.229,0,0,0-2.25-.68,2.457,2.457,0,0,0-2.25,1.148,7.381,7.381,0,0,0-.75,3.668v1.207a8.167,8.167,0,0,0,.686,3.9,2.509,2.509,0,0,0,2.361,1.172,3.159,3.159,0,0,0,2.168-.668,2.835,2.835,0,0,0,.8-2.121Zm15.328-11.285V24.105a6.419,6.419,0,0,1-.809,3.287,5.238,5.238,0,0,1-2.32,2.115,8.174,8.174,0,0,1-3.574.727,7.062,7.062,0,0,1-4.91-1.617,5.768,5.768,0,0,1-1.828-4.43V12.938h4.137V24.27q.07,2.8,2.6,2.8a2.518,2.518,0,0,0,1.934-.7,3.286,3.286,0,0,0,.656-2.285V12.938Zm12,13.875h-5.637L-56.4,30h-4.395l6.258-17.062h3.867L-44.361,30h-4.418Zm-4.652-3.176h3.668l-1.84-5.918ZM-28.869,30h-4.09l-6.047-10.617V30h-4.113V12.938h4.113l6.035,10.617V12.938h4.1Zm16-13.887h-5.121V30h-4.113V16.113h-5.027V12.938h14.262ZM-6.756,30h-4.1V12.938h4.1ZM9.5,16.113H4.377V30H.264V16.113H-4.764V12.938H9.5Zm10.02,10.7H13.881L12.9,30H8.5L14.76,12.938h3.867L24.932,30H20.514Zm-4.652-3.176h3.668l-1.84-5.918Zm23.3-7.523H33.041V30H28.928V16.113H23.9V12.938H38.162ZM44.279,30h-4.1V12.938h4.1Zm9.48-4.641,3.4-12.422h4.594L56.01,30h-4.5l-5.7-17.062h4.559Zm18.047,1.453H66.17L65.186,30H60.791l6.258-17.062h3.867L77.221,30H72.8Zm-4.652-3.176h3.668l-1.84-5.918Zm20.109,1.828a1.69,1.69,0,0,0-.639-1.406,7.938,7.938,0,0,0-2.244-1.043,21.53,21.53,0,0,1-2.625-1.043q-3.316-1.629-3.316-4.477a4.014,4.014,0,0,1,.826-2.5A5.344,5.344,0,0,1,81.6,13.307a9.1,9.1,0,0,1,3.4-.6,7.958,7.958,0,0,1,3.3.656,5.223,5.223,0,0,1,2.268,1.869A4.881,4.881,0,0,1,91.377,18h-4.1a2.063,2.063,0,0,0-.639-1.617,2.489,2.489,0,0,0-1.729-.574,2.807,2.807,0,0,0-1.74.486,1.432,1.432,0,0,0,.064,2.426,8.867,8.867,0,0,0,2.473,1.1,15.147,15.147,0,0,1,2.906,1.225,4.884,4.884,0,0,1,2.766,4.395,4.166,4.166,0,0,1-1.687,3.516,7.506,7.506,0,0,1-4.629,1.277A9.184,9.184,0,0,1,81.3,29.49a5.663,5.663,0,0,1-2.531-2.039,5.313,5.313,0,0,1-.85-2.982h4.125a2.617,2.617,0,0,0,.709,2.021,3.351,3.351,0,0,0,2.3.65,2.647,2.647,0,0,0,1.611-.439A1.45,1.45,0,0,0,87.264,25.465Z" transform="translate(958 3543)" fill="#fff"/><g transform="translate(6)"><g transform="translate(907.368 3369.841)"><path d="M8,8H80.246V86.266H8ZM8,8" transform="translate(-6.495 -6.495)" fill="#e4c4ff"/><path d="M356.221,347.205a6.343,6.343,0,0,1,1.881,4.515,6.4,6.4,0,0,1-10.912,4.515l-10.16-10.174L328,337.031,337.031,328l3.01,3.01Zm0,0" transform="translate(-266.29 -266.29)" fill="#43efd4"/><path d="M320.653,315.995l-4.26,4.26-5.674-5.674a24.8,24.8,0,0,0,4.26-4.26Zm0,0" transform="translate(-252.26 -251.937)" fill="#aab2bd"/><path d="M152.164,128.082A24.082,24.082,0,1,1,128.082,104,24.082,24.082,0,0,1,152.164,128.082Zm0,0" transform="translate(-84.433 -84.433)" fill="#ccd1d9"/><path d="M172.123,154.061A18.061,18.061,0,1,1,154.061,136,18.061,18.061,0,0,1,172.123,154.061Zm0,0" transform="translate(-110.413 -110.413)" fill="#fff"/><g transform="translate(7.526 10.536)"><path d="M331.01,64a3.01,3.01,0,0,1,0,6.02,2.864,2.864,0,0,1-1.294-.3A3,3,0,0,1,331.01,64Zm0,0" transform="translate(-273.816 -62.495)" fill="#a7fff1"/><path d="M248.632,249.174A3.01,3.01,0,0,1,251.01,248a2.864,2.864,0,0,1,1.294.3,3.007,3.007,0,1,1-4.3,2.709A2.922,2.922,0,0,1,248.632,249.174Zm0,0" transform="translate(-208.867 -211.877)" fill="#a7fff1"/><path d="M181.388,196.847a3,3,0,1,1-3.372-4.666,2.765,2.765,0,0,1,.994-.181,3.019,3.019,0,0,1,3.01,3.01A2.922,2.922,0,0,1,181.388,196.847Zm0,0" transform="translate(-150.413 -166.413)" fill="#a7fff1"/><path d="M128.572,60.771A2.971,2.971,0,0,1,128,59.01a3.01,3.01,0,1,1,4,2.829,2.766,2.766,0,0,1-.994.181A3.022,3.022,0,0,1,128.572,60.771Zm0,0" transform="translate(-111.444 -56)" fill="#a7fff1"/><path d="M45.449,121.249a2.971,2.971,0,0,1,.572,1.761,3.016,3.016,0,1,1-.572-1.761Zm0,0" transform="translate(-40 -107.959)" fill="#a7fff1"/></g><path d="M91,79.848,75.256,64.1V0H0V81.277H70.112l9.73,9.73A7.89,7.89,0,0,0,91,79.848ZM85.42,90.307a4.848,4.848,0,0,1-3.451-1.429L71.358,78.266H3.01V3.01H72.246V61.093l-1.511-1.511L68.387,61.93l-3.722-3.722a25.513,25.513,0,0,0-2.933-32.645l2.577-6.038c.138.013.27.042.412.042a4.531,4.531,0,1,0-3.152-1.291l-2.222,5.209A25.47,25.47,0,0,0,31.389,21.2L29.92,17.036a4.538,4.538,0,1,0-7.138-2.217l-9.694,7.049a4.476,4.476,0,0,0-2.552-.8,4.515,4.515,0,1,0,4.515,4.515,4.454,4.454,0,0,0-.205-1.274l9.694-7.049a4.489,4.489,0,0,0,2.551.8l1.695,4.8a25.5,25.5,0,0,0-.492,41.2l-2.336,8.179H24.082v-3.01h-3.01v3.01h-3.01v-6.02h-3.01v6.02h-3.01V63.215H9.031v9.031H6.02v3.01H28.227l2.7-9.44A25.416,25.416,0,0,0,58.288,64.6L62,68.315l-2.423,2.426L65.14,76.3l2.128-2.128-3.436-3.437,6.9-6.9L88.873,81.976a4.881,4.881,0,0,1-3.453,8.331ZM64.129,66.188l-3.474-3.474a25.963,25.963,0,0,0,2.125-2.131l3.477,3.477ZM21.072,43.649a22.528,22.528,0,0,1,8.761-17.816l1.074,3.042a19.5,19.5,0,0,0,11.13,34.261l.245-3A16.49,16.49,0,0,1,32,31.963l1.3,3.68a4.5,4.5,0,0,0,5.255,7.285l6.852,5.33a4.431,4.431,0,0,0-.248,1.412,4.515,4.515,0,1,0,7.667-3.224l4.892-11.464A16.382,16.382,0,0,1,60.2,43.649,16.632,16.632,0,0,1,45.016,60.134l.245,3A19.661,19.661,0,0,0,63.215,43.649,19.442,19.442,0,0,0,59.1,31.722l1.33-3.119A22.562,22.562,0,1,1,21.072,43.649Zm35.8-14.359A19.446,19.446,0,0,0,45.26,24.162l-.245,3a16.477,16.477,0,0,1,10.585,5.1L50.081,45.2c-.138-.013-.27-.042-.412-.042a4.47,4.47,0,0,0-2.427.721l-6.852-5.33a4.431,4.431,0,0,0,.248-1.412,4.521,4.521,0,0,0-4.512-4.515L34.47,29.926a16.338,16.338,0,0,1,7.812-2.763l-.245-3A19.324,19.324,0,0,0,33.436,27l-1.024-2.9a22.454,22.454,0,0,1,25.714,2.249Zm-7.2,18.874a1.505,1.505,0,1,1-1.505,1.505A1.507,1.507,0,0,1,49.669,48.164ZM36.123,37.628a1.505,1.505,0,1,1-1.505,1.505A1.507,1.507,0,0,1,36.123,37.628ZM63.215,15.051a1.505,1.505,0,1,1,1.505,1.505A1.507,1.507,0,0,1,63.215,15.051ZM25.587,13.546a1.505,1.505,0,1,1,1.505,1.505A1.507,1.507,0,0,1,25.587,13.546ZM12.041,25.587a1.505,1.505,0,1,1-1.505-1.505A1.507,1.507,0,0,1,12.041,25.587Zm0,0"/></g><g transform="translate(309)"><rect width="129" height="129" transform="translate(578 3352)" fill="none"/></g></g></g></svg>