<svg xmlns="http://www.w3.org/2000/svg" width="111" height="111" viewBox="0 0 111 111"><g transform="translate(-1025 -3968)"><g transform="translate(0 15)"><rect width="111" height="111" rx="12" transform="translate(1025 3953)" fill="#7ff8e4"/><g transform="translate(1039.735 3972.025)"><path d="M48.784,381.347H27.652v-8.53a4.977,4.977,0,0,1,4.976-4.977H43.808a4.976,4.976,0,0,1,4.976,4.977Zm0,0" transform="translate(-23.273 -309.585)" fill="#af58fa"/><path d="M49.542,258.187a10.043,10.043,0,1,0-17.11-.028,3.245,3.245,0,0,0,2.764,1.551H46.8A3.229,3.229,0,0,0,49.542,258.187Zm0,0" transform="translate(-26.051 -204.406)" fill="#475959"/><path d="M63.32,305.5a5.843,5.843,0,0,1-5.843-5.842v-2.453a4.878,4.878,0,0,1,4.879-4.878h2.582a4.225,4.225,0,0,1,4.225,4.224v3.107A5.842,5.842,0,0,1,63.32,305.5Zm0,0" transform="translate(-48.374 -246.032)" fill="#fdd1a7"/><path d="M60.266,280.3c-.909,6.882-9.348,5.566-9.348,5.566V280.3Zm0,0" transform="translate(-42.854 -235.906)" fill="#475959"/><path d="M210.416,381.347H189.285v-8.53a4.977,4.977,0,0,1,4.976-4.977H205.44a4.976,4.976,0,0,1,4.976,4.977Zm0,0" transform="translate(-159.308 -309.585)" fill="#a7fff1"/><path d="M211.175,258.187a10.043,10.043,0,1,0-17.11-.028,3.243,3.243,0,0,0,2.763,1.551h11.6A3.231,3.231,0,0,0,211.175,258.187Zm0,0" transform="translate(-162.086 -204.406)" fill="#617881"/><path d="M224.952,305.5a5.842,5.842,0,0,1-5.842-5.842v-2.453a4.878,4.878,0,0,1,4.878-4.878h2.582a4.224,4.224,0,0,1,4.225,4.224v3.107A5.842,5.842,0,0,1,224.952,305.5Zm0,0" transform="translate(-184.409 -246.032)" fill="#fdd1a7"/><path d="M221.9,280.3c-.909,6.882-9.348,5.566-9.348,5.566V280.3Zm0,0" transform="translate(-178.886 -235.906)" fill="#617881"/><path d="M372.046,381.347H350.914v-8.53a4.977,4.977,0,0,1,4.976-4.977H367.07a4.977,4.977,0,0,1,4.976,4.977Zm0,0" transform="translate(-295.34 -309.585)" fill="#e4c4ff"/><path d="M372.8,258.187a10.043,10.043,0,1,0-17.11-.028,3.244,3.244,0,0,0,2.763,1.551h11.6A3.23,3.23,0,0,0,372.8,258.187Zm0,0" transform="translate(-298.118 -204.406)" fill="#617881"/><path d="M386.581,305.5a5.842,5.842,0,0,1-5.842-5.842v-2.453a4.878,4.878,0,0,1,4.878-4.878H388.2a4.225,4.225,0,0,1,4.225,4.224v3.107A5.843,5.843,0,0,1,386.581,305.5Zm0,0" transform="translate(-320.441 -246.032)" fill="#fdd1a7"/><path d="M383.528,280.3c-.909,6.882-9.348,5.566-9.348,5.566V280.3Zm0,0" transform="translate(-314.921 -235.906)" fill="#617881"/><path d="M308.137,37.824h28.227a1.559,1.559,0,0,1,1.559,1.559V56.024a1.559,1.559,0,0,1-1.559,1.559H323.7V63.03a1.364,1.364,0,0,1-2.329.964l-6.411-6.411h-6.827a1.559,1.559,0,0,1-1.559-1.559V39.383A1.559,1.559,0,0,1,308.137,37.824Zm0,0" transform="translate(-258.025 -31.834)" fill="#e4c4ff"/><path d="M479.159,39.381V56.021A1.559,1.559,0,0,1,477.6,57.58h-3.21a1.559,1.559,0,0,0,1.56-1.559V39.381a1.56,1.56,0,0,0-1.56-1.56h3.21A1.56,1.56,0,0,1,479.159,39.381Zm0,0" transform="translate(-399.261 -31.831)" fill="#af58fa"/><path d="M37.286,37.824H9.059A1.559,1.559,0,0,0,7.5,39.383V56.024a1.559,1.559,0,0,0,1.559,1.559h12.66V63.03a1.364,1.364,0,0,0,2.329.964l6.411-6.411h6.827a1.559,1.559,0,0,0,1.559-1.559V39.383A1.559,1.559,0,0,0,37.286,37.824Zm0,0" transform="translate(-6.312 -31.834)" fill="#e4c4ff"/><path d="M179.486,39.381V56.021a1.559,1.559,0,0,1-1.56,1.559h-3.321a1.558,1.558,0,0,0,1.558-1.559V39.381a1.559,1.559,0,0,0-1.558-1.56h3.321A1.56,1.56,0,0,1,179.486,39.381Zm0,0" transform="translate(-146.953 -31.831)" fill="#f2e3ff"/><path d="M167.99,7.5H131.032a1.559,1.559,0,0,0-1.559,1.559V25.7a1.559,1.559,0,0,0,1.559,1.559h15.28v5.446a1.364,1.364,0,0,0,2.329.965l6.411-6.411H167.99a1.559,1.559,0,0,0,1.559-1.559V9.059A1.559,1.559,0,0,0,167.99,7.5Zm0,0" transform="translate(-108.968 -6.312)" fill="#43efd4"/><path d="M357.808,9.062V25.7a1.559,1.559,0,0,1-1.56,1.558h-3.092a1.558,1.558,0,0,0,1.558-1.558V9.062A1.558,1.558,0,0,0,353.156,7.5h3.092A1.559,1.559,0,0,1,357.808,9.062Zm0,0" transform="translate(-297.227 -6.316)" fill="#a7fff1"/><path d="M38.02,255.187a7.082,7.082,0,0,0,.327-.65,4.443,4.443,0,0,0,3.116-2.036,11.2,11.2,0,0,0-.259-12.178,1.188,1.188,0,0,0-1.965,1.334,8.82,8.82,0,0,1,.2,9.593,2,2,0,0,1-.508.55c0-.026,0-.052,0-.079v-3.107a5.428,5.428,0,0,0-3.553-5.083,8.869,8.869,0,0,0,.166-.891,1.188,1.188,0,1,0-2.355-.311,4.712,4.712,0,0,1-3.389,4.154,10.823,10.823,0,0,1-4.3.428,1.187,1.187,0,0,0-.626,2.253c0,.035,0,.069,0,.1v2.453c0,.027,0,.053,0,.08a2.087,2.087,0,0,1-.523-.576,8.855,8.855,0,0,1,7.765-13.477,8.705,8.705,0,0,1,3.417.784,1.188,1.188,0,0,0,.983-2.163A11.224,11.224,0,0,0,20.676,246.6a11.206,11.206,0,0,0,1.654,5.868,4.4,4.4,0,0,0,3.136,2.07,7.041,7.041,0,0,0,.326.648,6.171,6.171,0,0,0-5.64,6.14v8.53a1.188,1.188,0,0,0,2.376,0v-8.53a3.793,3.793,0,0,1,3.789-3.789h1.645a7.016,7.016,0,0,0,7.906-.012,1.249,1.249,0,0,0,.16.012H37.5a3.793,3.793,0,0,1,3.789,3.789v8.53a1.188,1.188,0,0,0,2.376,0v-8.53A6.172,6.172,0,0,0,38.02,255.187Zm-10.769-3.464v-2.4a11.92,11.92,0,0,0,3.329-.593,7.186,7.186,0,0,0,3.906-2.994,3.043,3.043,0,0,1,2.075,2.878v3.107a4.655,4.655,0,0,1-9.31,0Zm0,0" transform="translate(-16.961 -198.096)"/><path d="M54.559,406.512a1.188,1.188,0,0,0-1.188,1.188v6.194a1.188,1.188,0,0,0,2.376,0V407.7A1.187,1.187,0,0,0,54.559,406.512Zm0,0" transform="translate(-44.919 -342.132)"/><path d="M121.555,406.512a1.188,1.188,0,0,0-1.188,1.188v6.194a1.188,1.188,0,0,0,2.376,0V407.7A1.187,1.187,0,0,0,121.555,406.512Zm0,0" transform="translate(-101.305 -342.132)"/><path d="M199.652,255.183a6.925,6.925,0,0,0,.327-.65,4.441,4.441,0,0,0,3.116-2.036,11.23,11.23,0,1,0-19.132-.032,4.4,4.4,0,0,0,3.136,2.07,6.8,6.8,0,0,0,.325.647,6.171,6.171,0,0,0-5.639,6.141v8.53a1.188,1.188,0,0,0,2.376,0v-8.53a3.793,3.793,0,0,1,3.789-3.789h1.645a7.016,7.016,0,0,0,7.889,0h1.645a3.793,3.793,0,0,1,3.789,3.789v8.53a1.188,1.188,0,0,0,2.376,0v-8.53A6.172,6.172,0,0,0,199.652,255.183Zm-13.665-3.961a8.855,8.855,0,1,1,15.088.025,2,2,0,0,1-.508.55c0-.026,0-.052,0-.079v-3.107a5.43,5.43,0,0,0-3.553-5.083,8.875,8.875,0,0,0,.166-.891,1.188,1.188,0,1,0-2.355-.311,4.712,4.712,0,0,1-3.389,4.154,10.823,10.823,0,0,1-4.3.428,1.187,1.187,0,0,0-.626,2.254c0,.034,0,.068,0,.1v2.452c0,.027,0,.053,0,.08A2.078,2.078,0,0,1,185.987,251.222Zm2.9.5v-2.4a11.923,11.923,0,0,0,3.329-.593,7.186,7.186,0,0,0,3.905-2.994,3.043,3.043,0,0,1,2.075,2.879v3.107a4.655,4.655,0,1,1-9.309,0Zm0,0" transform="translate(-152.996 -198.092)"/><path d="M216.192,406.512A1.187,1.187,0,0,0,215,407.7v6.194a1.188,1.188,0,0,0,2.376,0V407.7A1.188,1.188,0,0,0,216.192,406.512Zm0,0" transform="translate(-180.954 -342.132)"/><path d="M283.188,406.512A1.187,1.187,0,0,0,282,407.7v6.194a1.188,1.188,0,0,0,2.376,0V407.7A1.188,1.188,0,0,0,283.188,406.512Zm0,0" transform="translate(-237.34 -342.132)"/><path d="M361.281,255.187a6.906,6.906,0,0,0,.326-.65,4.442,4.442,0,0,0,3.117-2.036,11.231,11.231,0,1,0-19.132-.032,4.468,4.468,0,0,0,3.135,2.067,7.093,7.093,0,0,0,.327.65,6.171,6.171,0,0,0-5.639,6.14v8.53a1.188,1.188,0,1,0,2.376,0v-8.53a3.793,3.793,0,0,1,3.789-3.789h1.478a1.22,1.22,0,0,0,.152-.01,7.016,7.016,0,0,0,7.9.01h1.646a3.793,3.793,0,0,1,3.789,3.789v8.53a1.188,1.188,0,1,0,2.376,0v-8.53A6.171,6.171,0,0,0,361.281,255.187Zm-13.666-3.961a8.855,8.855,0,1,1,15.089.025,2,2,0,0,1-.509.55c0-.026,0-.053,0-.079v-3.107a5.432,5.432,0,0,0-3.553-5.082c.068-.289.126-.584.167-.891a1.188,1.188,0,1,0-2.355-.311,4.714,4.714,0,0,1-3.389,4.154,10.823,10.823,0,0,1-4.3.428,1.187,1.187,0,0,0-.625,2.253c0,.035,0,.069,0,.1v2.453c0,.027,0,.053,0,.08A2.08,2.08,0,0,1,347.616,251.226Zm2.9.5v-2.4a11.919,11.919,0,0,0,3.329-.593,7.186,7.186,0,0,0,3.906-2.994,3.046,3.046,0,0,1,2.075,2.879v3.107a4.655,4.655,0,0,1-9.31,0Zm0,0" transform="translate(-289.027 -198.095)"/><path d="M377.821,406.512a1.188,1.188,0,0,0-1.188,1.188v6.194a1.188,1.188,0,0,0,2.376,0V407.7A1.188,1.188,0,0,0,377.821,406.512Zm0,0" transform="translate(-316.985 -342.132)"/><path d="M444.817,406.512a1.188,1.188,0,0,0-1.188,1.188v6.194a1.188,1.188,0,0,0,2.376,0V407.7A1.188,1.188,0,0,0,444.817,406.512Zm0,0" transform="translate(-373.371 -342.132)"/><path d="M78.339,4.8H61.769V2.747A2.75,2.75,0,0,0,59.022,0H22.064a2.75,2.75,0,0,0-2.747,2.747V4.8H2.747A2.75,2.75,0,0,0,0,7.549V24.191a2.75,2.75,0,0,0,2.747,2.747H14.219V31.2A2.552,2.552,0,0,0,18.576,33l6.063-6.063h6.335a2.75,2.75,0,0,0,2.747-2.747V22.135h2.435v4.259a2.551,2.551,0,0,0,4.357,1.8l6.063-6.063h.791V24.19a2.75,2.75,0,0,0,2.747,2.747h6.335L62.51,33a2.553,2.553,0,0,0,4.358-1.8V26.938H78.34a2.75,2.75,0,0,0,2.747-2.747V7.549A2.751,2.751,0,0,0,78.339,4.8ZM78.71,24.19a.371.371,0,0,1-.371.371H65.679a1.188,1.188,0,0,0-1.188,1.188V31.2a.177.177,0,0,1-.3.125l-6.411-6.41a1.188,1.188,0,0,0-.839-.348H50.112a.372.372,0,0,1-.371-.371V22.135h9.281a2.75,2.75,0,0,0,2.747-2.747v-5.2a1.188,1.188,0,0,0-2.376,0v5.2a.371.371,0,0,1-.371.371H46.083a1.189,1.189,0,0,0-.84.348l-6.411,6.411a.176.176,0,0,1-.3-.125V20.947a1.188,1.188,0,0,0-1.188-1.188H30.132a1.188,1.188,0,0,0,0,2.376h1.213V24.19a.371.371,0,0,1-.371.371H24.147a1.188,1.188,0,0,0-.839.348L16.9,31.32a.176.176,0,0,1-.3-.125V25.749a1.188,1.188,0,0,0-1.188-1.188H2.747a.371.371,0,0,1-.371-.371V7.549a.371.371,0,0,1,.371-.371h16.57V19.389a2.75,2.75,0,0,0,2.747,2.747h2.6a1.188,1.188,0,0,0,0-2.376h-2.6a.371.371,0,0,1-.371-.371V2.747a.372.372,0,0,1,.371-.371H59.022a.371.371,0,0,1,.371.371V8.719a1.188,1.188,0,0,0,2.376,0V7.178h16.57a.371.371,0,0,1,.371.371V24.19Zm0,0"/><path d="M413.512,107.715h-7.82a1.188,1.188,0,0,0,0,2.376h7.82a1.188,1.188,0,0,0,0-2.376Zm0,0" transform="translate(-340.443 -90.656)"/><path d="M442.328,78.395h-2.4a1.188,1.188,0,1,0,0,2.376h2.4a1.188,1.188,0,1,0,0-2.376Zm0,0" transform="translate(-369.258 -65.979)"/><path d="M52.125,107.715H44.3a1.188,1.188,0,0,0,0,2.376h7.82a1.188,1.188,0,0,0,0-2.376Zm0,0" transform="translate(-36.289 -90.656)"/><path d="M44.3,80.77h2.4a1.188,1.188,0,0,0,0-2.376H44.3a1.188,1.188,0,0,0,0,2.376Zm0,0" transform="translate(-36.289 -65.979)"/><path d="M174.1,77.391h-7.82a1.188,1.188,0,1,0,0,2.376h7.82a1.188,1.188,0,0,0,0-2.376Zm0,0" transform="translate(-138.948 -65.134)"/><path d="M166.282,50.446h2.4a1.188,1.188,0,0,0,0-2.376h-2.4a1.188,1.188,0,1,0,0,2.376Zm0,0" transform="translate(-138.948 -40.457)"/><path d="M230.475,48.07H211.164a1.188,1.188,0,1,0,0,2.376h19.311a1.188,1.188,0,1,0,0-2.376Zm0,0" transform="translate(-176.723 -40.457)"/><path d="M259.291,77.391H245.4a1.188,1.188,0,1,0,0,2.376h13.888a1.188,1.188,0,1,0,0-2.376Zm0,0" transform="translate(-205.538 -65.134)"/></g></g></g></svg>