<svg xmlns="http://www.w3.org/2000/svg" xmlns:xlink="http://www.w3.org/1999/xlink" width="151" height="151" viewBox="0 0 151 151"><defs><linearGradient id="a" x1="0.053" y1="0.047" x2="0.962" y2="0.97" gradientUnits="objectBoundingBox"><stop offset="0" stop-color="#43efd4"/><stop offset="0.798" stop-color="#006cff"/><stop offset="1" stop-color="#006cff"/></linearGradient></defs><g transform="translate(-550 -2266)"><rect width="151" height="151" rx="12" transform="translate(550 2266)" fill="url(#a)"/><g transform="translate(588.069 2299.004)"><path d="M73.984,9.076v80.93H15.519a1.58,1.58,0,0,1-1.578-1.58V25.959H30.984a1.653,1.653,0,0,0,1.655-1.653V7.5H72.4A1.58,1.58,0,0,1,73.984,9.076Z" transform="translate(-12.7 -6.255)" fill="#dff6fd"/><path d="M286.492,64.993h-1.135a.539.539,0,0,1-.477-.285,6.048,6.048,0,0,0-5.338-3.214h-4.919a6.044,6.044,0,0,0-6.043,6.043V86.6a6.044,6.044,0,0,0,6.043,6.043s2.192,0,3.779-.009a1.6,1.6,0,0,1,1.6,1.6v8.573a9.628,9.628,0,0,0,.889,4.061l1.174,2.552V131.5a7.667,7.667,0,0,0,.874,3.569h3.551V64.993Z" transform="translate(-225.208 -51.319)" fill="#c8effe"/><path d="M373.893,158.106v25.327a5.566,5.566,0,0,1-.511,2.333l-1.552,3.375v22.988a3.568,3.568,0,0,1-7.136,0V189.141l-1.552-3.375a5.565,5.565,0,0,1-.511-2.333V158.106Z" transform="translate(-303.698 -131.947)" fill="#e4c4ff"/><g transform="translate(1.241 1.241)"><path d="M367.478,158.105H362.63v25.327a5.565,5.565,0,0,0,.511,2.333l1.552,3.375v22.988a3.568,3.568,0,0,0,6.315,2.277,3.547,3.547,0,0,1-.684-2.094V189.324l-1.552-3.375a5.564,5.564,0,0,1-.511-2.333v-9.978a3.866,3.866,0,0,1,3.866-3.866h1.765V158.105h-6.415Z" transform="translate(-304.938 -133.187)" fill="#e4c4ff"/><path d="M310.54,107.641h28.611v15.88H310.54Z" transform="translate(-261.467 -91.072)" fill="#af58fa"/><g transform="translate(57.692 41.042)"><path d="M373.893,255.556V261.9H362.631v-6.348h11.262Z" transform="translate(-362.631 -255.556)" fill="#e4c4ff"/></g><path d="M368.261,261.9v-6.348H362.63V261.9h5.631Z" transform="translate(-304.938 -214.514)" fill="#af58fa"/><g transform="translate(0)"><path d="M32.639,7.5v16.81a1.653,1.653,0,0,1-1.655,1.653H13.941a1.577,1.577,0,0,1,.463-1.115L31.287,7.959A1.581,1.581,0,0,1,32.4,7.5Z" transform="translate(-13.941 -7.496)" fill="#dff6fd"/></g><path d="M74.716,185.544h1.972" transform="translate(-64.661 -156.086)" fill="none" stroke="#000" stroke-linecap="round" stroke-linejoin="round" stroke-miterlimit="10" stroke-width="15"/></g><path d="M320.6,112.976v-5.335H310.54v15.88h28.611v-5.782H325.365A4.762,4.762,0,0,1,320.6,112.976Z" transform="translate(-260.226 -89.831)" fill="#f2e3ff"/><path d="M300.406,109.37h-4.919a1.907,1.907,0,0,1-1.907-1.907V88.4a1.907,1.907,0,0,1,1.907-1.907h4.919a1.907,1.907,0,0,1,1.907,1.907v19.063A1.907,1.907,0,0,1,300.406,109.37Z" transform="translate(-246.072 -72.182)" fill="#af58fa"/><path d="M448.876,109.37H453.8a1.907,1.907,0,0,0,1.907-1.907V88.4a1.907,1.907,0,0,0-1.907-1.907h-4.919a1.907,1.907,0,0,0-1.907,1.907v19.063A1.907,1.907,0,0,0,448.876,109.37Z" transform="translate(-374.082 -72.182)" fill="#af58fa"/><path d="M32.638,7.5v16.81a1.653,1.653,0,0,1-1.655,1.653H13.94V88.426a1.58,1.58,0,0,0,1.58,1.58H34.752a1.58,1.58,0,0,1-1.578-1.58V31.94A4.043,4.043,0,0,1,34.633,28.8a5.778,5.778,0,0,0,2.141-4.49V7.5Z" transform="translate(-12.699 -6.255)" fill="#c8effe"/><path d="M110.639,366.872H68.612a.8.8,0,0,1-.8-.8V357.29a.8.8,0,0,1,.8-.8h42.027a.8.8,0,0,1,.8.8v8.786A.8.8,0,0,1,110.639,366.872Z" transform="translate(-57.662 -297.512)" fill="#43efd4"/><path d="M68.612,356.495a.8.8,0,0,0-.8.8v8.786a.8.8,0,0,0,.8.8h9.525V356.495Z" transform="translate(-57.662 -297.512)" fill="#a7fff1"/><g transform="translate(0 0.001)"><path d="M319.526,78.993h-4.919a3.152,3.152,0,0,0-3.148,3.148v.351H297.3v-.351a3.152,3.152,0,0,0-3.148-3.148h-4.919a3.152,3.152,0,0,0-3.148,3.148V101.2a3.152,3.152,0,0,0,3.148,3.148h4.919A3.152,3.152,0,0,0,297.3,101.2v-.351h.21v16.556a6.778,6.778,0,0,0,.624,2.852l1.439,3.128V134.8a1.241,1.241,0,0,0,2.482,0V123.118a1.239,1.239,0,0,0-.114-.519l-1.553-3.375a4.313,4.313,0,0,1-.4-1.815v-1.615h8.781v1.615a4.313,4.313,0,0,1-.4,1.815l-1.553,3.375a1.24,1.24,0,0,0-.114.519v22.988a2.327,2.327,0,0,1-4.654,0v-6.022a1.241,1.241,0,0,0-2.482,0v6.022a4.809,4.809,0,0,0,9.617,0V123.389l1.439-3.128a6.778,6.778,0,0,0,.624-2.852V100.853h.21v.351a3.152,3.152,0,0,0,3.148,3.148h4.919a3.152,3.152,0,0,0,3.148-3.148V82.141A3.151,3.151,0,0,0,319.526,78.993ZM294.813,101.2a.667.667,0,0,1-.666.666h-4.919a.667.667,0,0,1-.666-.666V82.141a.667.667,0,0,1,.666-.666h4.919a.667.667,0,0,1,.666.666Zm5.173,12.109v-3.866h8.781v3.866Zm8.78-6.348h-8.781v-6.112h8.781Zm11.425-5.761a.667.667,0,0,1-.666.666h-4.919a.667.667,0,0,1-.666-.666V91.03a1.241,1.241,0,0,0-2.482,0v7.341H297.3v-13.4h14.164v.769a1.241,1.241,0,0,0,2.482,0v-3.6a.667.667,0,0,1,.666-.666h4.919a.667.667,0,0,1,.666.666Z" transform="translate(-239.813 -65.924)"/><path d="M61.67,82.509H9.26a.339.339,0,0,1-.338-.339V20.944h15.8a2.9,2.9,0,0,0,2.9-2.9V2.482H66.145a.339.339,0,0,1,.338.339v8.134a1.241,1.241,0,0,0,2.482,0V2.82A2.824,2.824,0,0,0,66.145,0h-40A2.8,2.8,0,0,0,24.15.826L7.266,17.709A2.8,2.8,0,0,0,6.44,19.7V82.171a2.823,2.823,0,0,0,2.82,2.82H61.67a1.241,1.241,0,0,0,0-2.482ZM25.138,3.347v14.7a.414.414,0,0,1-.413.413h-14.7Z" transform="translate(-6.44 0)"/><path d="M68.457,180.526h1.972a1.241,1.241,0,1,0,0-2.482H68.457a1.241,1.241,0,1,0,0,2.482Z" transform="translate(-57.16 -148.587)"/><path d="M137.39,180.526a1.241,1.241,0,1,0,0-2.482H114.871a1.241,1.241,0,1,0,0,2.482Z" transform="translate(-95.895 -148.587)"/><path d="M100.826,233.866H68.457a1.241,1.241,0,1,0,0,2.482h32.369a1.241,1.241,0,1,0,0-2.482Z" transform="translate(-57.16 -195.173)"/><path d="M109.9,289.688H68.457a1.241,1.241,0,1,0,0,2.482H109.9a1.241,1.241,0,1,0,0-2.482Z" transform="translate(-57.16 -241.759)"/><path d="M67.563,351.477a1.241,1.241,0,1,0,0-2.482h-5.21a2.039,2.039,0,0,0-2.036,2.036v8.786a2.039,2.039,0,0,0,2.036,2.036H104.38a2.039,2.039,0,0,0,2.036-2.036v-8.786a2.039,2.039,0,0,0-2.036-2.036H72.852a1.241,1.241,0,1,0,0,2.482h31.083v7.9H62.8v-7.9Z" transform="translate(-51.403 -291.254)"/></g></g></g></svg>