<svg xmlns="http://www.w3.org/2000/svg" width="93.252" height="93.252" viewBox="0 0 93.252 93.252"><g transform="translate(24.906 21.536)"><path d="M180.187,130.885V118.241h-43.44v12.644a20.227,20.227,0,0,0,5.809,14.3,9.964,9.964,0,0,1,2.676,8.542l-4.68,28.519a5.464,5.464,0,0,0,5.392,6.349H170.99a5.464,5.464,0,0,0,5.392-6.349l-4.68-28.519a9.964,9.964,0,0,1,2.676-8.542A20.227,20.227,0,0,0,180.187,130.885Z" transform="translate(-136.747 -118.241)" fill="#ffe4c2"/></g><g transform="translate(24.906 21.536)"><path d="M151.481,182.243l4.68-28.519a9.964,9.964,0,0,0-2.676-8.542,20.227,20.227,0,0,1-5.809-14.3V118.241H136.747v12.644a20.227,20.227,0,0,0,5.809,14.3,9.964,9.964,0,0,1,2.676,8.542l-4.68,28.519a5.464,5.464,0,0,0,5.392,6.349h10.928A5.464,5.464,0,0,1,151.481,182.243Z" transform="translate(-136.747 -118.241)" fill="#f2d1a5"/></g><g transform="translate(19.306 17.264)"><path d="M0,0H19.618V54.64H0Z" transform="translate(54.64) rotate(90)" fill="#e9edf5"/></g><g transform="translate(19.306 17.264)"><path d="M122.529,108.941V94.787H106v19.618h21.993A5.464,5.464,0,0,1,122.529,108.941Z" transform="translate(-106 -94.787)" fill="#dce1eb"/></g><g transform="translate(25.043 7.912)"><path d="M142.9,65.273a5.4,5.4,0,0,1-5.4-5.4V48.839a5.4,5.4,0,1,1,10.791,0V59.877A5.4,5.4,0,0,1,142.9,65.273Z" transform="translate(-137.5 -43.443)" fill="#fff2de"/></g><g transform="translate(25.043 7.912)"><path d="M142.9,59.877V48.839a5.392,5.392,0,0,1,2.7-4.672,5.395,5.395,0,0,0-8.093,4.672V59.877a5.395,5.395,0,0,0,8.093,4.672A5.392,5.392,0,0,1,142.9,59.877Z" transform="translate(-137.5 -43.443)" fill="#ffe4c2"/></g><g transform="translate(35.835 6.091)"><path d="M202.146,55.273a5.4,5.4,0,0,1-5.4-5.4V38.839a5.4,5.4,0,1,1,10.791,0V49.877A5.4,5.4,0,0,1,202.146,55.273Z" transform="translate(-196.75 -33.443)" fill="#fff2de"/></g><g transform="translate(35.835 6.091)"><path d="M202.146,49.878V38.84a5.392,5.392,0,0,1,2.7-4.672,5.395,5.395,0,0,0-8.093,4.672V49.878a5.395,5.395,0,0,0,8.093,4.672A5.393,5.393,0,0,1,202.146,49.878Z" transform="translate(-196.75 -33.444)" fill="#ffe4c2"/></g><g transform="translate(46.626 6.091)"><path d="M261.4,55.273a5.4,5.4,0,0,1-5.4-5.4V38.839a5.4,5.4,0,0,1,10.791,0V49.877A5.4,5.4,0,0,1,261.4,55.273Z" transform="translate(-256 -33.443)" fill="#fff2de"/></g><g transform="translate(46.626 6.091)"><path d="M261.4,49.878V38.84a5.392,5.392,0,0,1,2.7-4.672A5.395,5.395,0,0,0,256,38.84V49.878a5.395,5.395,0,0,0,8.093,4.672A5.393,5.393,0,0,1,261.4,49.878Z" transform="translate(-256 -33.444)" fill="#ffe4c2"/></g><g transform="translate(57.417 7.912)"><path d="M320.646,65.273a5.4,5.4,0,0,1-5.4-5.4V48.839a5.4,5.4,0,1,1,10.791,0V59.877A5.4,5.4,0,0,1,320.646,65.273Z" transform="translate(-315.25 -43.443)" fill="#fff2de"/></g><g transform="translate(57.417 7.913)"><path d="M320.646,59.878V48.84a5.392,5.392,0,0,1,2.7-4.672,5.395,5.395,0,0,0-8.093,4.672V59.878a5.395,5.395,0,0,0,8.093,4.672,5.393,5.393,0,0,1-2.7-4.672Z" transform="translate(-315.25 -43.444)" fill="#ffe4c2"/></g><g transform="translate(79.137 8.651)"><path d="M440.875,87.569a6.375,6.375,0,0,0,6.375-6.375V53.875a6.375,6.375,0,1,0-12.749,0v27.32A6.375,6.375,0,0,0,440.875,87.569Z" transform="translate(-434.5 -47.5)" fill="#636978"/></g><g transform="translate(79.137 27.775)"><path d="M440.875,158.875a6.375,6.375,0,0,0,6.375-6.375v14.571a6.375,6.375,0,1,1-12.749,0V152.5A6.375,6.375,0,0,0,440.875,158.875Z" transform="translate(-434.5 -152.5)" fill="#555a66"/></g><g transform="translate(41.23 19.833)"><path d="M246.588,108.894H231.806a5.43,5.43,0,0,0,0,10.86,6.747,6.747,0,0,1,5.989,3.618,9.909,9.909,0,1,0,8.793-14.478Z" transform="translate(-226.376 -108.894)" fill="#fff2de"/></g><g transform="translate(68.209 1.366)"><path d="M380.875,62.14a6.375,6.375,0,0,0,6.375-6.375V13.875a6.375,6.375,0,0,0-12.749,0V55.765A6.375,6.375,0,0,0,380.875,62.14Z" transform="translate(-374.5 -7.5)" fill="#707789"/></g><g transform="translate(68.209 35.061)"><path d="M380.875,198.875a6.375,6.375,0,0,0,6.375-6.375v14.571a6.375,6.375,0,1,1-12.749,0V192.5A6.375,6.375,0,0,0,380.875,198.875Z" transform="translate(-374.5 -192.5)" fill="#636978"/></g><g transform="translate(1.366 8.651)"><path d="M13.875,87.569A6.375,6.375,0,0,1,7.5,81.195V53.875a6.375,6.375,0,0,1,12.749,0v27.32A6.375,6.375,0,0,1,13.875,87.569Z" transform="translate(-7.5 -47.5)" fill="#636978"/></g><g transform="translate(1.366 27.775)"><path d="M13.875,158.875A6.375,6.375,0,0,1,7.5,152.5v14.571a6.375,6.375,0,0,0,12.749,0V152.5A6.375,6.375,0,0,1,13.875,158.875Z" transform="translate(-7.5 -152.5)" fill="#555a66"/></g><g transform="translate(12.294 1.366)"><path d="M73.875,62.14A6.375,6.375,0,0,1,67.5,55.765V13.875a6.375,6.375,0,1,1,12.749,0V55.765A6.375,6.375,0,0,1,73.875,62.14Z" transform="translate(-67.5 -7.5)" fill="#707789"/></g><g transform="translate(12.294 35.061)"><path d="M73.875,198.875A6.375,6.375,0,0,1,67.5,192.5v14.571a6.375,6.375,0,1,0,12.749,0V192.5A6.375,6.375,0,0,1,73.875,198.875Z" transform="translate(-67.5 -192.5)" fill="#636978"/></g><path d="M85.511,7.285a7.717,7.717,0,0,0-3.187.685V7.741a7.741,7.741,0,0,0-15.481,0v.141a6.747,6.747,0,0,0-8.764.6A6.756,6.756,0,0,0,46.626,7.417,6.756,6.756,0,0,0,35.173,8.486a6.747,6.747,0,0,0-8.764-.6V7.741a7.741,7.741,0,0,0-15.481,0V7.97A7.745,7.745,0,0,0,0,15.026v27.32A7.745,7.745,0,0,0,10.928,49.4v.229a7.741,7.741,0,0,0,15.481,0v-4.6a22.62,22.62,0,0,0,3.324,4.4,8.638,8.638,0,0,1,2.31,7.371l-4.68,28.519a6.83,6.83,0,0,0,6.74,7.936H59.149a6.83,6.83,0,0,0,6.74-7.936L64.048,74.1a1.366,1.366,0,1,0-2.7.442l1.84,11.215a4.1,4.1,0,0,1-4.044,4.762H34.1a4.1,4.1,0,0,1-4.044-4.761l4.68-28.519A11.381,11.381,0,0,0,31.7,47.526a19.109,19.109,0,0,1-5-9.278H54.053a11.339,11.339,0,0,0,7.4,2.769c.154,0,.309,0,.464-.01a11.183,11.183,0,0,0,4.172-1,19.327,19.327,0,0,1-4.539,7.521,11.382,11.382,0,0,0-3.043,9.714l1.943,11.84a1.366,1.366,0,0,0,2.7-.443L61.209,56.8a8.638,8.638,0,0,1,2.31-7.371,22.619,22.619,0,0,0,3.324-4.4v4.605a7.741,7.741,0,0,0,15.481,0V49.4a7.745,7.745,0,0,0,10.928-7.056V15.026a7.749,7.749,0,0,0-7.741-7.741Zm-22.7,1.993a4.034,4.034,0,0,1,4.03,4.03v6.536a11.248,11.248,0,0,0-5.4-1.377H58.783V13.308a4.034,4.034,0,0,1,4.03-4.03ZM52.022,7.457a4.034,4.034,0,0,1,4.03,4.03v6.98H47.992v-6.98a4.034,4.034,0,0,1,4.03-4.03ZM37.2,11.487a4.03,4.03,0,0,1,8.059,0v7.126a6.792,6.792,0,0,0-5.308,7.732,4.036,4.036,0,0,1-2.751-3.82ZM26.409,29.772A6.754,6.754,0,0,0,36.5,27.347a6.737,6.737,0,0,0,4.691,1.939,6.79,6.79,0,0,0,5.473,2.774,5.36,5.36,0,0,1,4.777,2.883c.1.2.21.386.322.574H26.409Zm4.03-20.494a4.034,4.034,0,0,1,4.03,4.03V24.346a4.03,4.03,0,0,1-8.059,0V13.308a4.034,4.034,0,0,1,4.03-4.03ZM23.677,49.631a5.009,5.009,0,0,1-10.017,0V23.542a1.366,1.366,0,1,0-2.732,0V46.21a5.009,5.009,0,0,1-8.2-3.864V15.026a5.009,5.009,0,0,1,8.2-3.864v6.915a1.366,1.366,0,1,0,2.732,0V7.741a5.009,5.009,0,1,1,10.017,0ZM61.808,38.277a8.592,8.592,0,0,1-7.948-4.6,8.084,8.084,0,0,0-7.2-4.353,4.064,4.064,0,1,1,0-8.128H61.443a8.515,8.515,0,0,1,5.4,1.925V36.347A8.518,8.518,0,0,1,61.808,38.277ZM79.592,49.631a5.009,5.009,0,1,1-10.017,0V7.741a5.009,5.009,0,1,1,10.017,0ZM90.52,42.346a5.009,5.009,0,0,1-8.2,3.864V11.163a5.008,5.008,0,0,1,8.2,3.863Z"/></svg>