<svg xmlns="http://www.w3.org/2000/svg" width="74.829" height="89.937" viewBox="0 0 74.829 89.937"><g transform="translate(-41.61)"><g transform="translate(42.972 1.403)"><path d="M85.164,7.73l36.053,9V67.793s-4.075,17.746-36.053,27.052C53.186,85.539,49.111,67.793,49.111,67.793V16.731Z" transform="translate(-49.111 -7.73)" fill="#c6fff6"/><path d="M85.164,94.523C71.67,87.414,62.416,80.347,58.238,75.833a24.963,24.963,0,0,1-5.5-8.562v-47.7L92.9,9.662,85.164,7.73l-36.053,9V67.793s4.075,17.746,36.053,27.052C86.67,94.407,86.542,94.106,85.164,94.523Z" transform="translate(-49.111 -7.73)" fill="#a4fef1"/><path d="M117.9,121c-12.909-4.077-20.077-9.523-23.858-13.464a23.2,23.2,0,0,1-4.933-7.157V56.146L117.9,48.958l28.791,7.188v44.235a23.2,23.2,0,0,1-4.933,7.157C137.979,111.479,130.811,116.924,117.9,121Z" transform="translate(-81.849 -41.474)" fill="#fff"/><path d="M96.664,105.024a21.279,21.279,0,0,1-3.922-5.4V58.982l32.482-8.2L117.9,48.958,89.111,56.146v44.235a23.2,23.2,0,0,0,4.933,7.157c3.782,3.941,10.95,9.386,23.858,13.464,1.895-.6,3.663-1.227,5.317-1.875C112.2,116.973,99.731,108.22,96.664,105.024Z" transform="translate(-81.849 -41.474)" fill="#ccd6e9"/><path d="M179.643,247.79h-38.8V235.946A8.941,8.941,0,0,1,149.784,227H170.7a8.941,8.941,0,0,1,8.941,8.941Z" transform="translate(-124.19 -187.198)" fill="#b59dda"/><path d="M144.475,235.946a5.317,5.317,0,0,1,5.311-5.311H177.9A8.927,8.927,0,0,0,170.7,227H149.785a8.941,8.941,0,0,0-8.941,8.941V247.79h3.631Z" transform="translate(-124.191 -187.198)" fill="#926fc9"/><circle cx="8.862" cy="8.862" r="8.862" transform="translate(27.191 20.611)" fill="#ffdaaa"/><path d="M202.522,130.128a8.865,8.865,0,0,1,7.047-8.675,8.862,8.862,0,1,0,0,17.351A8.865,8.865,0,0,1,202.522,130.128Z" transform="translate(-171.7 -100.655)" fill="#ffb680"/></g><g transform="translate(41.61)"><g transform="translate(0)"><path d="M79.355.082,79.025,0,41.611,9.341V39.526h2.723V11.467L79.025,2.807l34.691,8.661v27.14h2.723V9.341Z" transform="translate(-41.611)"/><path d="M113.716,247.68c-.45,1.583-5.605,17.221-34.691,25.809-15.835-4.676-24.429-11.457-28.856-16.341-4.34-4.788-5.621-8.725-5.836-9.47V228.627H41.61V248.01l.034.15c.045.2,1.157,4.845,6.348,10.64,4.7,5.242,13.824,12.518,30.652,17.415l.381.111.38-.111c16.828-4.9,25.957-12.173,30.652-17.415,5.191-5.795,6.3-10.445,6.348-10.64l.034-.15V227.731h-2.723V247.68Z" transform="translate(-41.61 -186.389)"/><path d="M111.354,115.973l.41.13.41-.13c13.247-4.184,20.6-9.824,24.431-13.819a24.478,24.478,0,0,0,5.215-7.594l.1-.243V48.756L112.094,41.31l-.33-.082L81.611,48.756v45.56l.1.243a24.471,24.471,0,0,0,5.215,7.594C90.757,106.148,98.107,111.789,111.354,115.973Zm-27.02-65.09,27.43-6.848,27.43,6.848v42.9a22.592,22.592,0,0,1-4.554,6.485c-3.575,3.725-10.436,8.982-22.876,12.977-12.44-4-19.3-9.252-22.876-12.977a22.593,22.593,0,0,1-4.554-6.485Z" transform="translate(-74.349 -33.744)"/><path d="M174.867,143.264a10.314,10.314,0,0,0-10.3-10.3H159a10.224,10.224,0,1,0-9.8,0h-5.561a10.314,10.314,0,0,0-10.3,10.3V156.47h41.523ZM146.6,123.99a7.5,7.5,0,1,1,7.5,7.5A7.509,7.509,0,0,1,146.6,123.99Zm25.539,29.757h-5.695v-8.061h-2.723v8.061H144.485v-8.061h-2.723v8.061h-5.695V143.264a7.588,7.588,0,0,1,7.58-7.58h20.917a7.588,7.588,0,0,1,7.58,7.58Z" transform="translate(-116.691 -93.113)"/></g><g transform="translate(30.97 48.501)"><path d="M212.208,267.168h2.723v2.723h-2.723Z" transform="translate(-212.208 -267.168)" fill="#fff"/><path d="M240.208,267.168h2.723v2.723h-2.723Z" transform="translate(-235.125 -267.168)" fill="#fff"/><path d="M268.208,267.168h2.723v2.723h-2.723Z" transform="translate(-258.042 -267.168)" fill="#fff"/></g></g></g></svg>