<svg xmlns="http://www.w3.org/2000/svg" width="56.439" height="48.314" viewBox="0 0 56.439 48.314"><g transform="translate(-751.301 -1077.383)"><g transform="translate(788.606 1100.277)"><path d="M2959.729,2430.825v-2.393a2.806,2.806,0,0,0-2.8-2.8h-5.916a2.8,2.8,0,0,0-2.8,2.8v2.393h1.936v-2.393a.866.866,0,0,1,.865-.865h5.916a.865.865,0,0,1,.865.865v2.393Z" transform="translate(-2948.209 -2425.632)" fill="#96a1ff"/></g><g transform="translate(755.285 1081.346)"><path d="M985.905,1322.7a12.082,12.082,0,0,0,.631,4.036,12.177,12.177,0,0,0,7.621,7.659,12.153,12.153,0,0,0,9.795-.9,18.312,18.312,0,0,0,2.553-1.895l-8.576-8.576a.163.163,0,0,1-.048-.115v-12.129a18.219,18.219,0,0,0-3.431.542,12.1,12.1,0,0,0-3.041,1.437,12.246,12.246,0,0,0-4.634,5.668A12.044,12.044,0,0,0,985.905,1322.7Z" transform="translate(-985.904 -1310.749)" fill="#fff"/></g><g transform="translate(760.01 1089.862)"><path d="M1288.111,1827.9h4.352V1825.5a3.13,3.13,0,0,1,3.127-3.127h5.916a3.109,3.109,0,0,1,1.124.212v-9.5a.806.806,0,0,0-.805-.805h-14.848a15.789,15.789,0,0,1-22.783,17.589v4.176a.806.806,0,0,0,.805.805h20.506v-4.473A2.552,2.552,0,0,1,1288.111,1827.9Z" transform="translate(-1264.194 -1812.287)" fill="#fff"/></g><g transform="translate(751.954 1078.036)"><path d="M805.2,1146.75a15.471,15.471,0,1,0-15.471-15.471A15.489,15.489,0,0,0,805.2,1146.75Zm0-27.927a.163.163,0,0,1,.163.163v12.225l8.645,8.645a.163.163,0,0,1,0,.231,12.456,12.456,0,1,1-8.808-21.264Z" transform="translate(-789.726 -1115.808)" fill="#fce26c"/></g><g transform="translate(755.266 1081.348)"><path d="M1006.486,1310.862a15.429,15.429,0,0,1-1.112,20.366l.37.37a.163.163,0,0,1,0,.231,12.555,12.555,0,0,1-7.678,3.594,15.427,15.427,0,0,1-13.289-2.853,15.462,15.462,0,1,0,21.708-21.708Z" transform="translate(-984.778 -1310.862)" fill="#fcba5d"/></g><g transform="translate(781.648 1114.763)"><path d="M2553.429,3280.9v2.279a1.14,1.14,0,0,1-1.138,1.138h-2.3a1.14,1.14,0,0,1-1.138-1.138V3280.9a41.579,41.579,0,0,1-10.43-2.221v8.117a2.226,2.226,0,0,0,2.28,2.163h20.88a2.226,2.226,0,0,0,2.28-2.163v-8.118A41.541,41.541,0,0,1,2553.429,3280.9Z" transform="translate(-2538.42 -3278.677)" fill="#96a1ff"/></g><g transform="translate(755.637 1104.009)"><path d="M1032.354,2664.274v-10.123h-20.506a1.133,1.133,0,0,1-1.132-1.132v-4.357a15.9,15.9,0,0,1-4.047-3.261v8.952a4.1,4.1,0,0,0,4.1,4.1h13.989a.163.163,0,0,1,.163.163v3.651a.163.163,0,0,1-.163.163h-4.124a.817.817,0,0,0-.816.816v2.378a.816.816,0,0,0,.816.815h13.044A2.472,2.472,0,0,1,1032.354,2664.274Z" transform="translate(-1006.67 -2645.402)" fill="#9cf2ff"/></g><g transform="translate(769.152 1122.435)"><path d="M1814.725,3730.942v-.446h-6.2a8.449,8.449,0,0,0-5.974,2.474.81.81,0,0,0,.448.135h13.044A2.472,2.472,0,0,1,1814.725,3730.942Z" transform="translate(-1802.556 -3730.496)" fill="#7dcfff"/></g><g transform="translate(790.868 1102.54)"><path d="M3087.881,2558.851h-5.916a.539.539,0,0,0-.538.539v2.393h6.993v-2.393A.539.539,0,0,0,3087.881,2558.851Z" transform="translate(-3081.427 -2558.851)" fill="#fff"/></g><g transform="translate(792.404 1114.891)"><path d="M3172.69,3291.445h2.3a.813.813,0,0,0,.812-.812v-4.372h-3.926v4.372A.813.813,0,0,0,3172.69,3291.445Z" transform="translate(-3171.878 -3286.26)" fill="#fce26c"/></g><g transform="translate(780.877 1085.236)"><path d="M2509.827,1544.175a1.133,1.133,0,0,1,1.132,1.131v9.642a3.128,3.128,0,0,1,1.68,2.768v2.393h2.371v-16.136a4.1,4.1,0,0,0-4.1-4.1h-17.848a15.716,15.716,0,0,1,1.839,4.3Z" transform="translate(-2493.064 -1539.875)" fill="#9cf2ff"/></g><g transform="translate(800.214 1086.873)"><path d="M3631.77,1640.553v10.716a3.1,3.1,0,0,1,.239,1.185v2.393h2.371v-16.136a4.069,4.069,0,0,0-.827-2.461A6.087,6.087,0,0,0,3631.77,1640.553Z" transform="translate(-3631.77 -1636.249)" fill="#7dcfff"/></g><g transform="translate(781.648 1105.797)"><path d="M2538.42,2752.835v6.462a41.371,41.371,0,0,0,10.43,2.236V2759.6a.163.163,0,0,1,.163-.163h4.252a.163.163,0,0,1,.163.163v1.929a41.325,41.325,0,0,0,10.431-2.238v-6.46a2.226,2.226,0,0,0-2.28-2.162H2540.7A2.226,2.226,0,0,0,2538.42,2752.835Z" transform="translate(-2538.42 -2750.673)" fill="#96a1ff"/></g><g transform="translate(782.543 1106.655)"><path d="M2615.648,2801.216a8.886,8.886,0,0,0-2.584,6.265v7.325a2.226,2.226,0,0,1-2.28,2.162h-14.437a7.38,7.38,0,0,0-5.218,2.161,2.343,2.343,0,0,0,1.385.449h20.88a2.226,2.226,0,0,0,2.28-2.162V2801.19Z" transform="translate(-2591.129 -2801.19)" fill="#7885f5"/></g><g transform="translate(751.954 1078.036)"><path d="M791.031,1132.584a15.46,15.46,0,0,1,25.732-11.566,15.462,15.462,0,1,0-21.826,21.826A15.4,15.4,0,0,1,791.031,1132.584Z" transform="translate(-789.726 -1115.808)" fill="#fff"/></g><g transform="translate(781.648 1114.764)"><path d="M2539.725,3284.772v-5.6c-.431-.134-.865-.273-1.3-.421v8.117a2.044,2.044,0,0,0,.137.724A3.988,3.988,0,0,0,2539.725,3284.772Z" transform="translate(-2538.42 -3278.751)" fill="#fff"/></g><g transform="translate(755.637 1104.009)"><path d="M1007.975,2655.658V2646.7a15.89,15.89,0,0,1-1.3-1.3v8.952a4.1,4.1,0,0,0,1.931,3.472A4.068,4.068,0,0,1,1007.975,2655.658Z" transform="translate(-1006.67 -2645.401)" fill="#fff"/></g><g transform="translate(792.404 1114.891)"><path d="M3171.878,3286.26v4.372a.805.805,0,0,0,.171.492l.016-.017a3.818,3.818,0,0,0,1.118-2.7.844.844,0,0,1,.844-.844,1.249,1.249,0,0,0,.885-.368q.444-.445.892-.887v-.05Z" transform="translate(-3171.878 -3286.26)" fill="#fff"/></g><g transform="translate(780.877 1085.236)"><path d="M2512.672,1541.026a1.689,1.689,0,0,0,.682-.41,5.089,5.089,0,0,0-2.442-.743h-17.848c.26.422.5.858.72,1.3h17.631A4.037,4.037,0,0,0,2512.672,1541.026Z" transform="translate(-2493.064 -1539.873)" fill="#fff"/></g><g transform="translate(781.648 1105.797)"><path d="M2562.691,2750.954a2.347,2.347,0,0,0-1.112-.281H2540.7a2.226,2.226,0,0,0-2.28,2.162v6.461c.44.15.874.29,1.3.424v-5.581a2.226,2.226,0,0,1,2.28-2.162h17.7a4.647,4.647,0,0,0,2.909-.951A.99.99,0,0,0,2562.691,2750.954Z" transform="translate(-2538.42 -2750.673)" fill="#fff"/></g><g transform="translate(780.995 1105.144)"><path d="M2523.808,2732.8h-20.88a2.879,2.879,0,0,1-2.932-2.815v-14.922a2.879,2.879,0,0,1,2.932-2.815h20.88a2.879,2.879,0,0,1,2.932,2.815v14.922A2.879,2.879,0,0,1,2523.808,2732.8Zm-20.88-19.573a1.9,1.9,0,0,0-1.954,1.836v14.922a1.9,1.9,0,0,0,1.954,1.836h20.88a1.9,1.9,0,0,0,1.954-1.836v-14.922a1.9,1.9,0,0,0-1.954-1.836Z" transform="translate(-2499.996 -2712.25)" fill="#000d42"/></g><g transform="translate(790.216 1101.887)"><path d="M3050.812,2524.652a.489.489,0,0,1-.49-.489v-2.545a.213.213,0,0,0-.212-.212H3044.2a.213.213,0,0,0-.212.212v2.545a.489.489,0,0,1-.979,0v-2.545a1.192,1.192,0,0,1,1.191-1.191h5.916a1.192,1.192,0,0,1,1.191,1.191v2.545A.489.489,0,0,1,3050.812,2524.652Z" transform="translate(-3043.004 -2520.427)" fill="#000d42"/></g><g transform="translate(787.954 1099.625)"><path d="M2922.121,2393.695a.489.489,0,0,1-.489-.489v-2.545a2.479,2.479,0,0,0-2.478-2.474h-5.916a2.477,2.477,0,0,0-2.474,2.474v2.545a.489.489,0,1,1-.979,0v-2.545a3.457,3.457,0,0,1,3.453-3.453h5.916a3.459,3.459,0,0,1,3.456,3.453v2.545A.489.489,0,0,1,2922.121,2393.695Z" transform="translate(-2909.786 -2387.208)" fill="#000d42"/></g><g transform="translate(780.995 1114.049)"><path d="M2511.248,3239.941h-.032a41.938,41.938,0,0,1-10.883-2.321.489.489,0,1,1,.316-.926,40.976,40.976,0,0,0,10.63,2.27.489.489,0,0,1-.031.978Z" transform="translate(-2500.001 -3236.667)" fill="#000d42"/></g><g transform="translate(796.004 1114.05)"><path d="M3384.354,3239.959a.489.489,0,0,1-.031-.978,40.924,40.924,0,0,0,10.627-2.271.489.489,0,0,1,.316.926,41.9,41.9,0,0,1-10.88,2.321Z" transform="translate(-3383.865 -3236.685)" fill="#000d42"/></g><g transform="translate(791.752 1114.239)"><path d="M3137.22,3254.325h-2.3a1.466,1.466,0,0,1-1.465-1.465v-4.535a.489.489,0,0,1,.489-.49h4.252a.49.49,0,0,1,.49.49v4.535A1.466,1.466,0,0,1,3137.22,3254.325Zm-2.788-5.51v4.046a.487.487,0,0,0,.486.486h2.3a.486.486,0,0,0,.486-.486v-4.046Z" transform="translate(-3133.454 -3247.836)" fill="#000d42"/></g><g transform="translate(780.104 1084.584)"><path d="M2470.42,1522.988a.489.489,0,0,1-.489-.489v-16.3a3.776,3.776,0,0,0-3.771-3.772h-18.132a.489.489,0,0,1,0-.979h18.132a4.756,4.756,0,0,1,4.75,4.75v16.3A.489.489,0,0,1,2470.42,1522.988Z" transform="translate(-2447.538 -1501.45)" fill="#000d42"/></g><g transform="translate(782.103 1089.21)"><path d="M2581.719,1785.55a.489.489,0,0,1-.49-.489v-9.739a.479.479,0,0,0-.479-.479H2565.7a.489.489,0,0,1,0-.979h15.049a1.459,1.459,0,0,1,1.458,1.458v9.739A.489.489,0,0,1,2581.719,1785.55Z" transform="translate(-2565.213 -1773.864)" fill="#000d42"/></g><g transform="translate(759.358 1106.693)"><path d="M1247.9,2809.824H1227.23a1.459,1.459,0,0,1-1.458-1.458v-4.445a.489.489,0,0,1,.979,0v4.445a.48.48,0,0,0,.479.479H1247.9a.489.489,0,1,1,0,.979Z" transform="translate(-1225.772 -2803.432)" fill="#000d42"/></g><g transform="translate(754.985 1103.097)"><path d="M997.186,2614.293H982.861a1.47,1.47,0,0,1-1.468-1.468v-2.378a1.47,1.47,0,0,1,1.468-1.468h3.634v-2.672H973a4.755,4.755,0,0,1-4.75-4.75v-9.373a.489.489,0,0,1,.979,0v9.376a3.775,3.775,0,0,0,3.771,3.771h13.989a.489.489,0,0,1,.489.49v3.651a.489.489,0,0,1-.489.49h-4.124a.49.49,0,0,0-.489.489v2.378a.49.49,0,0,0,.489.49h14.325a.489.489,0,0,1,0,.979Z" transform="translate(-968.245 -2591.693)" fill="#000d42"/></g><g transform="translate(751.301 1077.383)"><path d="M767.425,1109.63a16.124,16.124,0,1,1,16.124-16.124A16.142,16.142,0,0,1,767.425,1109.63Zm0-31.269a15.145,15.145,0,1,0,15.145,15.145A15.162,15.162,0,0,0,767.425,1078.362Z" transform="translate(-751.301 -1077.383)" fill="#000d42"/></g><g transform="translate(773.257 1082.478)"><path d="M2046.616,1379.731a.487.487,0,0,1-.325-.124,11.891,11.891,0,0,0-1.761-1.3.489.489,0,0,1,.5-.839,12.888,12.888,0,0,1,1.907,1.4.489.489,0,0,1-.325.855Z" transform="translate(-2044.293 -1377.403)" fill="#000d42"/></g><g transform="translate(777.211 1086.277)"><path d="M2278.037,1614.948a.49.49,0,0,1-.423-.734,11.782,11.782,0,0,0-.375-12.336.489.489,0,1,1,.817-.538,12.761,12.761,0,0,1,.405,13.362A.489.489,0,0,1,2278.037,1614.948Z" transform="translate(-2277.158 -1601.121)" fill="#000d42"/></g><g transform="translate(754.642 1080.724)"><path d="M960.849,1299.714a12.782,12.782,0,0,1,0-25.565.489.489,0,0,1,.489.489v12.09l8.549,8.549a.489.489,0,0,1,0,.692A12.87,12.87,0,0,1,960.849,1299.714Zm-.489-24.576a11.8,11.8,0,1,0,8.482,20.479l-8.339-8.339a.489.489,0,0,1-.143-.346Z" transform="translate(-948.067 -1274.149)" fill="#000d42"/></g><g transform="translate(766.934 1102.298)"><path d="M1672.448,2548.638a.489.489,0,0,1-.49-.489v-3.011a.489.489,0,1,1,.979,0v3.011A.489.489,0,0,1,1672.448,2548.638Z" transform="translate(-1671.958 -2544.648)" fill="#000d42"/></g><g transform="translate(754.643 1093.017)"><path d="M951.586,1999.056h-3.011a.489.489,0,1,1,0-.979h3.011a.489.489,0,1,1,0,.979Z" transform="translate(-948.086 -1998.077)" fill="#000d42"/></g></g></svg>