<svg xmlns="http://www.w3.org/2000/svg" width="61.085" height="61.085" viewBox="0 0 61.085 61.085"><g transform="translate(-1018.031 -1018.027)"><g transform="translate(1018.817 1018.813)"><path d="M1066.624,1065.327v-.206a.99.99,0,0,1,.989-.989h6.736a.583.583,0,0,0,.582-.472,3.79,3.79,0,0,1,7.46,0,.583.583,0,0,0,.582.472h6.736a.99.99,0,0,1,.989.989v.206h24.993v-3.473a5.686,5.686,0,0,0-5.679-5.679h-48.154a5.686,5.686,0,0,0-5.679,5.679v3.473Zm42.493-7.014a2.214,2.214,0,1,1-2.214,2.214A2.216,2.216,0,0,1,1109.118,1058.313Zm-7.056,0a2.214,2.214,0,1,1-2.214,2.214A2.216,2.216,0,0,1,1102.061,1058.313Z" transform="translate(-1056.178 -1056.174)" fill="#9cf2ff"/></g><g transform="translate(1018.817 1028.359)"><path d="M1110.012,1569.318a5.686,5.686,0,0,0,5.679-5.679v-44.288H1090.7v2.1h2.828a1.892,1.892,0,0,1,1.89,1.89v23.819c.009-.053.02-.1.028-.157l.32-2.079c.082-.531.134-1.079.184-1.608l.017-.178a6.908,6.908,0,0,1,4.774-6.05v-2.774a12.178,12.178,0,0,0-1.583-6.215,3.96,3.96,0,0,1-.51-2.635,4.024,4.024,0,0,1,3.494-3.359,3.993,3.993,0,0,1,4.449,3.966,4.012,4.012,0,0,1-.484,1.906,12.536,12.536,0,0,0-1.652,6.022v3.088a6.908,6.908,0,0,1,4.773,6.05l.017.177c.05.53.1,1.077.184,1.609l.32,2.079a21.429,21.429,0,0,0,3.028,8.176l.034.055a1.883,1.883,0,0,1,1.373,2.022c0,1.124-.669,2.038-1.492,2.038h-6.016a4.084,4.084,0,0,1-8.159,0h-3.1v2.015a1.891,1.891,0,0,1-1.889,1.889h-29.732a1.891,1.891,0,0,1-1.889-1.889v-37.967a1.891,1.891,0,0,1,1.889-1.889h2.829v-2.1h-10.446v44.288a5.686,5.686,0,0,0,5.679,5.679Z" transform="translate(-1056.178 -1519.351)" fill="#96a1ff"/></g><g transform="translate(1020.268 1021.058)"><g transform="translate(54.917 0)"><path d="M3793.061,1165.1l-.018.018a6.122,6.122,0,0,0-1.81,4.344v2.507h3.145v-5.76c-.428-.348-.869-.68-1.27-1.059C3793.091,1165.135,3793.077,1165.118,3793.061,1165.1Z" transform="translate(-3791.233 -1165.102)" fill="#7dcfff"/></g><g transform="translate(0 7.3)"><path d="M1181.515,1519.315v35.442c.077.128.149.259.229.386l.034.055a1.883,1.883,0,0,1,1.373,2.022c0,1.124-.669,2.038-1.492,2.038h-.144v1.2a5.679,5.679,0,0,1-5.679,5.679H1130.46a6.611,6.611,0,0,0-3.44.933,2.32,2.32,0,0,0-.422.311,5.655,5.655,0,0,0,4.228,1.9h48.154a5.679,5.679,0,0,0,5.679-5.679v-44.289Z" transform="translate(-1126.598 -1519.315)" fill="#7885f5"/></g></g><g transform="translate(1029.656 1023.571)"><path d="M1604.8,1290.625h-6.736a.976.976,0,0,1-.969-.8,3.4,3.4,0,0,0-6.686,0,.975.975,0,0,1-.969.8h-6.736a.6.6,0,0,0-.6.6v5.6a.6.6,0,0,0,.6.6h22.1a.6.6,0,0,0,.6-.6v-5.6A.6.6,0,0,0,1604.8,1290.625Z" transform="translate(-1582.11 -1287.032)" fill="#fce26c"/></g><g transform="translate(1031.171 1027.218)"><path d="M1677,1463.984c-.1-.046-.556.758-.619.846a16.745,16.745,0,0,1-1.852,2.155c-.234.227-.573.59-.923.59h-10.456a10.708,10.708,0,0,0-7.576,3.144h21.177a.6.6,0,0,0,.6-.6v-5.6A.6.6,0,0,0,1677,1463.984Z" transform="translate(-1655.576 -1463.983)" fill="#fcba5d"/></g><g transform="translate(1061.633 1031.481)"><path d="M3140.864,1674.436a3.6,3.6,0,1,0-6.7,1.827,12.57,12.57,0,0,1,1.638,6.415v2.675a6.324,6.324,0,0,1,1.431-.169h.065a6.324,6.324,0,0,1,1.432.169v-2.989a12.923,12.923,0,0,1,1.7-6.21A3.617,3.617,0,0,0,3140.864,1674.436Z" transform="translate(-3133.662 -1670.837)" fill="#fce26c"/></g><g transform="translate(1055.494 1046.22)"><path d="M2839.265,2391.955l-.017.178c-.051.535-.1,1.088-.187,1.631l-.32,2.079a21.823,21.823,0,0,1-2.978,8.154h19.481a21.83,21.83,0,0,1-2.978-8.154l-.32-2.079c-.083-.543-.136-1.1-.187-1.632l-.017-.177a6.378,6.378,0,0,0-6.207-5.963h-.065A6.378,6.378,0,0,0,2839.265,2391.955Z" transform="translate(-2835.763 -2385.992)" fill="#fce26c"/></g><g transform="translate(1067.637 1047.123)"><path d="M3429.35,2438.764l-.32-2.079c-.083-.543-.136-1.1-.187-1.632l-.017-.177a6.833,6.833,0,0,0-1.7-3.92c-.281-.311-1.113-1.266-1.552-1.125-.514.164-.584,1.418-.584,1.825,0,1.336.586,2.5.708,3.791.051.535.1,1.089.187,1.632l.32,2.079a21.844,21.844,0,0,0,2.75,7.761h3.373A21.829,21.829,0,0,1,3429.35,2438.764Z" transform="translate(-3424.99 -2429.816)" fill="#fcba5d"/></g><g transform="translate(1061.548 1068.302)"><path d="M3133.228,3460.92a3.7,3.7,0,0,0,3.686-3.5h-7.373A3.7,3.7,0,0,0,3133.228,3460.92Z" transform="translate(-3129.542 -3457.421)" fill="#fce26c"/></g><g transform="translate(1024.938 1030.853)"><path d="M1385.884,1659.51v-17.654a1.5,1.5,0,0,0-1.5-1.5h-2.828v2.507a.99.99,0,0,1-.989.989h-22.095a.99.99,0,0,1-.989-.989v-2.506h-2.829a1.5,1.5,0,0,0-1.5,1.5v37.967a1.5,1.5,0,0,0,1.5,1.5h29.732a1.5,1.5,0,0,0,1.5-1.5V1659.51Z" transform="translate(-1353.16 -1640.359)" fill="#fff"/></g><g transform="translate(1025.749 1031.543)"><path d="M1424.446,1692.319v-17.654a1.484,1.484,0,0,0-.24-.806l-.029.029a9.789,9.789,0,0,0-2.876,6.924v8.363s0,20.313,0,20.313a1.5,1.5,0,0,1-1.5,1.5h-20.141a10.043,10.043,0,0,0-7.1,2.942l-.03.03a1.478,1.478,0,0,0,.685.174h29.732a1.5,1.5,0,0,0,1.5-1.5v-20.313Z" transform="translate(-1392.533 -1673.859)" fill="#ededed"/></g><g transform="translate(1054.04 1064.618)"><path d="M2765.252,3280.326c0,.907.493,1.646,1.1,1.646h20.19c.606,0,1.1-.738,1.1-1.646s-.493-1.645-1.1-1.645h-20.19C2765.745,3278.681,2765.252,3279.419,2765.252,3280.326Z" transform="translate(-2765.252 -3278.681)" fill="#fce26c"/></g><g transform="translate(1062.88 1021.345)"><path d="M3195.987,1182.658a1.82,1.82,0,1,0-1.82-1.82A1.822,1.822,0,0,0,3195.987,1182.658Z" transform="translate(-3194.167 -1179.017)" fill="#fff"/></g><g transform="translate(1069.936 1021.345)"><circle cx="1.82" cy="1.82" r="1.82" transform="translate(0 0)" fill="#fff"/></g><g transform="translate(1018.817 1018.813)"><path d="M1112.715,1057.568c.063-.018.126-.037.188-.058.3-.1.349-.349.082-.5a6.746,6.746,0,0,0-.89-.436,5.654,5.654,0,0,0-2.083-.4h-48.154a5.686,5.686,0,0,0-5.679,5.679v3.473h1.572v-1.9a5.686,5.686,0,0,1,5.679-5.679h47.892A5.184,5.184,0,0,0,1112.715,1057.568Z" transform="translate(-1056.178 -1056.173)" fill="#fff"/></g><g transform="translate(1018.817 1028.359)"><path d="M1057.75,1563.813v-44.461h-1.572v44.288a5.636,5.636,0,0,0,.6,2.527A3.329,3.329,0,0,0,1057.75,1563.813Z" transform="translate(-1056.178 -1519.352)" fill="#fff"/></g><g transform="translate(1029.656 1023.571)"><path d="M1592.6,1287.222a3.411,3.411,0,0,0-2.2,2.626.976.976,0,0,1-.965.776h-6.736a.6.6,0,0,0-.6.6v5.6a.07.07,0,0,0,.018-.015,5.305,5.305,0,0,0,1.554-3.752v-.261a.6.6,0,0,1,.6-.6h6.736a.974.974,0,0,0,.978-.865,2.647,2.647,0,0,1,.984-1.9,3.631,3.631,0,0,1,3.833-.49A3.412,3.412,0,0,0,1592.6,1287.222Z" transform="translate(-1582.109 -1287.032)" fill="#fff"/></g><g transform="translate(1061.633 1031.481)"><path d="M3137.372,1684.25a12.57,12.57,0,0,0-1.638-6.415,3.572,3.572,0,0,1-.459-2.376,3.625,3.625,0,0,1,3.148-3.026,3.586,3.586,0,0,1,2.042.369,3.6,3.6,0,1,0-6.3,3.461,12.57,12.57,0,0,1,1.638,6.415v2.675a6.324,6.324,0,0,1,1.431-.169h.065l.076,0Z" transform="translate(-3133.662 -1670.837)" fill="#fff"/></g><g transform="translate(1055.494 1046.22)"><path d="M2845.2,2387.7a4.422,4.422,0,0,0,1.015-.879c.12-.147.5-.711.736-.653a5.937,5.937,0,0,0-1.417-.173h-.065a6.378,6.378,0,0,0-6.207,5.963l-.017.178c-.051.535-.1,1.088-.187,1.631l-.32,2.079a21.822,21.822,0,0,1-2.978,8.154h2.444a21.918,21.918,0,0,0,2.106-6.581l.32-2.079c.083-.543.136-1.1.187-1.631l.017-.178a6.78,6.78,0,0,1,1.351-3.466,6.671,6.671,0,0,1,1.346-1.321C2844.062,2388.35,2844.655,2388.056,2845.2,2387.7Z" transform="translate(-2835.762 -2385.991)" fill="#fff"/></g><g transform="translate(1054.04 1064.618)"><path d="M2786.541,3278.68h-20.19c-.606,0-1.1.738-1.1,1.645a1.672,1.672,0,0,0,.808,1.58c.238.1,1.242-1.353,1.445-1.491a2.159,2.159,0,0,1,1.287-.162h14.952a4.984,4.984,0,0,0,3.378-1.319A.846.846,0,0,0,2786.541,3278.68Z" transform="translate(-2765.252 -3278.68)" fill="#fff"/></g><g transform="translate(1018.031 1018.027)"><path d="M1072.651,1079.113H1024.5a6.473,6.473,0,0,1-6.466-6.466v-48.154a6.473,6.473,0,0,1,6.466-6.466h48.154a6.473,6.473,0,0,1,6.465,6.466v48.154A6.473,6.473,0,0,1,1072.651,1079.113Zm-48.154-59.906a5.292,5.292,0,0,0-5.286,5.286v48.154a5.292,5.292,0,0,0,5.286,5.286h48.154a5.292,5.292,0,0,0,5.286-5.286v-48.154a5.292,5.292,0,0,0-5.286-5.286Z" transform="translate(-1018.031 -1018.027)" fill="#000d42"/></g><g transform="translate(1052.551 1027.573)"><path d="M2718.947,1482.384h-25.386a.59.59,0,0,1,0-1.179h25.386a.59.59,0,1,1,0,1.179Z" transform="translate(-2692.971 -1481.205)" fill="#000d42"/></g><g transform="translate(1018.031 1027.573)"><path d="M1029.461,1482.384h-10.839a.59.59,0,1,1,0-1.179h10.839a.59.59,0,0,1,0,1.179Z" transform="translate(-1018.032 -1481.205)" fill="#000d42"/></g><g transform="translate(1069.15 1020.559)"><path d="M3501,1146.081a2.607,2.607,0,1,1,2.606-2.607A2.609,2.609,0,0,1,3501,1146.081Zm0-4.034a1.427,1.427,0,1,0,1.427,1.427A1.429,1.429,0,0,0,3501,1142.047Z" transform="translate(-3498.394 -1140.868)" fill="#000d42"/></g><g transform="translate(1062.094 1020.559)"><path d="M3158.625,1146.081a2.607,2.607,0,1,1,2.606-2.607A2.609,2.609,0,0,1,3158.625,1146.081Zm0-4.034a1.427,1.427,0,1,0,1.427,1.427A1.429,1.429,0,0,0,3158.625,1142.047Z" transform="translate(-3156.019 -1140.868)" fill="#000d42"/></g><g transform="translate(1054.55 1045.434)"><path d="M2810.751,2367.421h-20.19a.59.59,0,0,1-.5-.9l.082-.13a21.035,21.035,0,0,0,2.973-8.026l.32-2.079c.08-.52.131-1.062.181-1.585l.017-.178a7.16,7.16,0,0,1,6.99-6.674h.065a7.16,7.16,0,0,1,6.99,6.674l.017.177c.05.524.1,1.066.181,1.586l.32,2.079a21.044,21.044,0,0,0,2.973,8.027l.082.13a.59.59,0,0,1-.5.9Zm-19.146-1.179h18.1a22.246,22.246,0,0,1-2.676-7.7l-.32-2.08c-.085-.554-.138-1.113-.19-1.654l-.017-.177a5.987,5.987,0,0,0-5.815-5.607h-.065a5.987,5.987,0,0,0-5.816,5.607l-.017.178c-.051.541-.1,1.1-.189,1.653l-.32,2.079A22.246,22.246,0,0,1,2791.605,2366.241Z" transform="translate(-2789.971 -2347.844)" fill="#000d42"/></g><g transform="translate(1053.254 1063.832)"><path d="M2749.18,3245.4h-20.19a2.511,2.511,0,0,1,0-4.863.59.59,0,0,1,0,1.179c-.333,0-.706.535-.706,1.252s.373,1.252.706,1.252h20.19c.333,0,.706-.536.706-1.252s-.373-1.252-.706-1.252a.59.59,0,0,1,0-1.179,2.511,2.511,0,0,1,0,4.863Z" transform="translate(-2727.105 -3240.532)" fill="#000d42"/></g><g transform="translate(1060.847 1030.696)"><path d="M3101.548,1648.875a.59.59,0,0,1-.59-.59v-3.238a13.308,13.308,0,0,1,1.749-6.4,3.207,3.207,0,0,0-.681-3.919,3.188,3.188,0,0,0-2.508-.8,3.228,3.228,0,0,0-2.8,2.694,3.183,3.183,0,0,0,.408,2.117,12.963,12.963,0,0,1,1.693,6.616v2.924a.59.59,0,0,1-1.179,0v-2.924a11.786,11.786,0,0,0-1.528-6.014,4.351,4.351,0,0,1-.56-2.893,4.388,4.388,0,1,1,8.193,2.758,12.15,12.15,0,0,0-1.6,5.835v3.237A.589.589,0,0,1,3101.548,1648.875Z" transform="translate(-3095.499 -1632.736)" fill="#000d42"/></g><g transform="translate(1060.752 1067.516)"><path d="M3095.394,3424.346a4.487,4.487,0,0,1-4.482-4.482.59.59,0,0,1,1.179,0,3.3,3.3,0,0,0,6.606,0,.59.59,0,0,1,1.179,0A4.487,4.487,0,0,1,3095.394,3424.346Z" transform="translate(-3090.911 -3419.274)" fill="#000d42"/></g><g transform="translate(1064.885 1048.801)"><path d="M3295.13,2518.229h-.035a.59.59,0,0,1-.554-.623,5.321,5.321,0,0,0-2.778-5.264.59.59,0,0,1,.5-1.066,6.491,6.491,0,0,1,3.451,6.4A.59.59,0,0,1,3295.13,2518.229Z" transform="translate(-3291.425 -2511.218)" fill="#000d42"/></g><g transform="translate(1028.87 1022.785)"><path d="M1567.439,1260.842h-22.1a1.384,1.384,0,0,1-1.382-1.382v-5.6a1.384,1.384,0,0,1,1.382-1.382h6.736a.193.193,0,0,0,.195-.148,4.183,4.183,0,0,1,8.234,0,.193.193,0,0,0,.195.148h6.736a1.384,1.384,0,0,1,1.382,1.382v5.6A1.384,1.384,0,0,1,1567.439,1260.842Zm-22.1-7.185a.2.2,0,0,0-.2.2v5.6a.2.2,0,0,0,.2.2h22.095a.2.2,0,0,0,.2-.2v-5.6a.2.2,0,0,0-.2-.2H1560.7a1.368,1.368,0,0,1-1.355-1.12,3,3,0,0,0-5.912,0,1.368,1.368,0,0,1-1.356,1.12Z" transform="translate(-1543.962 -1248.885)" fill="#000d42"/></g><g transform="translate(1024.152 1030.068)"><path d="M1347.029,1644.79H1317.3a2.285,2.285,0,0,1-2.282-2.282v-37.966a2.285,2.285,0,0,1,2.282-2.282h3.024a.59.59,0,1,1,0,1.179H1317.3a1.1,1.1,0,0,0-1.1,1.1v37.967a1.1,1.1,0,0,0,1.1,1.1h29.732a1.1,1.1,0,0,0,1.1-1.1V1640.3a.59.59,0,1,1,1.179,0v2.211A2.285,2.285,0,0,1,1347.029,1644.79Z" transform="translate(-1315.014 -1602.259)" fill="#000d42"/></g><g transform="translate(1052.551 1030.067)"><path d="M2698.288,1630.836a.59.59,0,0,1-.59-.59V1604.5a1.1,1.1,0,0,0-1.1-1.1h-3.024a.59.59,0,0,1,0-1.179h3.024a2.285,2.285,0,0,1,2.283,2.283v25.75A.59.59,0,0,1,2698.288,1630.836Z" transform="translate(-2692.981 -1602.214)" fill="#000d42"/></g><g transform="translate(1030.341 1041.013)"><path d="M1618.472,2140.712a.59.59,0,0,1-.59-.59v-4.549l-1.488,1.821a.59.59,0,1,1-.913-.746l2.534-3.1a.59.59,0,0,1,1.046.373v6.2A.59.59,0,0,1,1618.472,2140.712Z" transform="translate(-1615.349 -2133.33)" fill="#000d42"/></g><g transform="translate(1031.155 1056.962)"><path d="M1659.07,2914.569h-3.636a.59.59,0,0,1-.367-1.051,14.053,14.053,0,0,0,1.909-1.856c.394-.466,1.443-1.705,1.114-2.565a.993.993,0,0,0-.868-.73,2.3,2.3,0,0,0-1.26.4.59.59,0,0,1-.636-.993,3.413,3.413,0,0,1,1.936-.59,2.15,2.15,0,0,1,1.93,1.487c.578,1.51-.749,3.078-1.315,3.748q-.422.5-.895.966h2.089a.59.59,0,0,1,0,1.179Z" transform="translate(-1654.844 -2907.187)" fill="#000d42"/></g><g transform="translate(1038.127 1042.072)"><path d="M2003.662,2185.882h-9.977a.59.59,0,1,1,0-1.179h9.977a.59.59,0,0,1,0,1.179Z" transform="translate(-1993.096 -2184.703)" fill="#000d42"/></g><g transform="translate(1038.127 1045.18)"><path d="M2003.662,2336.7h-9.977a.59.59,0,1,1,0-1.179h9.977a.59.59,0,0,1,0,1.179Z" transform="translate(-1993.096 -2335.522)" fill="#000d42"/></g><g transform="translate(1038.127 1058.76)"><path d="M2003.662,2995.617h-9.977a.59.59,0,1,1,0-1.179h9.977a.59.59,0,0,1,0,1.179Z" transform="translate(-1993.096 -2994.438)" fill="#000d42"/></g><g transform="translate(1038.127 1061.868)"><path d="M2003.662,3146.446h-9.977a.59.59,0,1,1,0-1.179h9.977a.59.59,0,0,1,0,1.179Z" transform="translate(-1993.096 -3145.267)" fill="#000d42"/></g></g></svg>