<svg xmlns="http://www.w3.org/2000/svg" width="152.394" height="63.632" viewBox="0 0 152.394 63.632"><g transform="translate(-216.141 -1783.465)"><text transform="translate(216.141 1839.097)" fill="#fff" font-size="30" font-family="Roboto-Medium, Roboto" font-weight="500"><tspan x="0" y="0">01</tspan></text><g transform="translate(286.499 1783.465)"><g transform="translate(35.966)"><path d="M119.541,93.2a14.233,14.233,0,0,0-9.407,24.9c2.249,2.249,2.045,7.055,1.994,7.106a.847.847,0,0,0,.256.665.943.943,0,0,0,.613.256h13.036a.847.847,0,0,0,.613-.256.972.972,0,0,0,.256-.665c0-.051-.256-4.857,1.994-7.106l.153-.153A14.19,14.19,0,0,0,119.541,93.2Zm8.18,23.567c-.051.051-.153.153-.153.2-1.994,2.147-2.352,5.675-2.4,7.362h-11.3c-.051-1.687-.409-5.368-2.556-7.566a12.448,12.448,0,1,1,16.41,0Z" transform="translate(-96.464 -81.288)" fill="#fff"/><path d="M210.2,121.6a.869.869,0,1,0,0,1.738,9.305,9.305,0,0,1,9.3,9.3.869.869,0,0,0,1.738,0A11,11,0,0,0,210.2,121.6Z" transform="translate(-187.172 -106.059)" fill="#fff"/><path d="M168.425,358.4H157.076a2.147,2.147,0,1,0,0,4.294h11.3a2.2,2.2,0,0,0,2.2-2.147A2.16,2.16,0,0,0,168.425,358.4Zm0,2.505H157.076a.4.4,0,0,1-.409-.409.376.376,0,0,1,.409-.409h11.3a.4.4,0,0,1,.409.409A.365.365,0,0,1,168.425,360.9Z" transform="translate(-139.725 -312.595)" fill="#fff"/><path d="M178.251,398.8h-7.975a2.147,2.147,0,0,0,0,4.294h7.975a2.16,2.16,0,0,0,2.147-2.147A2.127,2.127,0,0,0,178.251,398.8Zm0,2.505h-7.975a.4.4,0,0,1-.409-.409.376.376,0,0,1,.409-.409h7.975a.409.409,0,1,1,0,.818Z" transform="translate(-151.237 -347.831)" fill="#fff"/><path d="M210.2,7.668a.862.862,0,0,0,.869-.869V.869a.869.869,0,0,0-1.738,0V6.8A.9.9,0,0,0,210.2,7.668Z" transform="translate(-187.172)" fill="#fff"/><path d="M297.76,33.278a.825.825,0,0,0-1.176.2l-3.272,4.908a.842.842,0,0,0,.2,1.227.825.825,0,0,0,.46.153.816.816,0,0,0,.716-.409l3.272-4.908A.792.792,0,0,0,297.76,33.278Z" transform="translate(-260.266 -28.881)" fill="#fff"/><path d="M107.114,37.644a.825.825,0,0,0,.46-.153.9.9,0,0,0,.256-1.227l-3.17-4.959a.886.886,0,0,0-1.483.971l3.17,4.959A.848.848,0,0,0,107.114,37.644Z" transform="translate(-94.466 -26.959)" fill="#fff"/><path d="M42.428,106.2l-5.163-2.812a.9.9,0,0,0-1.176.358.816.816,0,0,0,.358,1.176l5.163,2.812a1.2,1.2,0,0,0,.409.1.843.843,0,0,0,.767-.46A.9.9,0,0,0,42.428,106.2Z" transform="translate(-35.965 -90.093)" fill="#fff"/><path d="M349.062,103.742a.9.9,0,0,0-1.176-.358l-5.214,2.812a.9.9,0,0,0-.358,1.176.843.843,0,0,0,.767.46.963.963,0,0,0,.409-.1l5.214-2.812A.9.9,0,0,0,349.062,103.742Z" transform="translate(-303.082 -90.093)" fill="#fff"/></g></g></g></svg>