<svg xmlns="http://www.w3.org/2000/svg" width="86.925" height="86.925" viewBox="0 0 86.925 86.925"><g transform="translate(-1.501 -1.487)"><path d="M74.629,37.085H70.49V42.88H47.033V33.223h5.8V29.083h-5.8V5.626h5.8V1.487H37.1V5.626h5.795V29.083H37.1v4.139h5.795V42.88H19.441V37.085H15.3V42.88H1.5v4.139H15.3v5.8h4.139v-5.8H42.894v9.657H37.1v4.139h5.795V84.272H37.1v4.139H52.832V84.272h-5.8V60.815h5.8V56.676h-5.8V47.019H70.49v5.8h4.139v-5.8h13.8V42.88h-13.8Z" transform="translate(0 0)" fill="#055672"/><g transform="translate(1.501 15.283)"><path d="M1.5,10.087H5.64V25.82H1.5Z" transform="translate(-1.501 11.715)" fill="#43d3e8" fill-rule="evenodd"/><path d="M10.1,4.82H25.838V8.959H10.1Z" transform="translate(25.494 -4.82)" fill="#43d3e8" fill-rule="evenodd"/><path d="M8.168,10.087h4.139V25.82H8.168Z" transform="translate(19.428 11.715)" fill="#43d3e8" fill-rule="evenodd"/><path d="M14.835,10.087h4.139V25.82H14.835Z" transform="translate(40.358 11.715)" fill="#43d3e8" fill-rule="evenodd"/><path d="M10.1,18.154H25.838v4.139H10.1Z" transform="translate(25.494 37.039)" fill="#43d3e8" fill-rule="evenodd"/><path d="M21.5,10.087H25.64V25.82H21.5Z" transform="translate(61.284 11.715)" fill="#43d3e8" fill-rule="evenodd"/></g><path d="M24.544,36.288V31.9A16.57,16.57,0,0,0,7.979,15.335H3.591v4.139H7.979A12.429,12.429,0,0,1,20.4,31.9v4.388Z" transform="translate(6.561 43.473)" fill="#055672"/><path d="M29.426,5.486,25.158,9.754,20.886,5.486,17.96,8.412l4.272,4.268L17.96,16.952l2.926,2.926,4.272-4.272,4.268,4.272,2.926-2.926L28.085,12.68l4.268-4.268Z" transform="translate(51.669 12.554)" fill="#055672"/><path d="M14.458,18.117V11.109L19.582,5.98,16.656,3.054,12.388,7.326,8.12,3.054,5.194,5.98l5.124,5.129v7.008Z" transform="translate(11.593 4.919)" fill="#055672"/></g></svg>