<svg xmlns="http://www.w3.org/2000/svg" xmlns:xlink="http://www.w3.org/1999/xlink" width="151" height="151" viewBox="0 0 151 151"><defs><linearGradient id="a" x1="0.053" y1="0.047" x2="0.962" y2="0.97" gradientUnits="objectBoundingBox"><stop offset="0" stop-color="#43efd4"/><stop offset="0.798" stop-color="#006cff"/><stop offset="1" stop-color="#006cff"/></linearGradient></defs><g transform="translate(-1178 -1858)"><rect width="151" height="151" rx="12" transform="translate(1178 1858)" fill="url(#a)"/><g transform="translate(1177.795 1890.011)"><path d="M265.839,261.412v6.66l-7.455,5.613-7.455-5.613v-6.66Z" transform="translate(-176.082 -217)" fill="#fed2a4"/><path d="M254.326,268.072v-6.66h-3.4v6.66l7.455,5.613,1.7-1.279Z" transform="translate(-176.081 -217)" fill="#ffbd86"/><path d="M59.593,152.271H48.858a2.548,2.548,0,0,1-2.548-2.548V133.59a2.548,2.548,0,0,1,2.548-2.548H59.593a2.548,2.548,0,0,1,2.548,2.548v8.066l5.277,5.337H62.142v2.729A2.548,2.548,0,0,1,59.593,152.271Z" transform="translate(-6.226 -108.779)" fill="#af58fa"/><path d="M69.606,308.865h5.277v-5.614a2.639,2.639,0,1,0-5.277,0Z" transform="translate(-25.564 -249.541)" fill="#fed2a4"/><path d="M73.52,300.94a2.639,2.639,0,0,0-3.914,2.31v5.614h2.548v-5.614A2.639,2.639,0,0,1,73.52,300.94Z" transform="translate(-25.564 -249.541)" fill="#ffbd86"/><path d="M67.209,324.7a2.548,2.548,0,0,0,2.548-2.548v-2.729l9.666-12.547a5.1,5.1,0,0,1,2.253-1.664l12.295-4.6,7.45,5.613,7.45-5.613,16.653,5.246a7.132,7.132,0,0,1,4.922,6.782v22.6H80.311V322.058L71.27,332.981a5.1,5.1,0,0,1-4.241,2.27h-.091a5.1,5.1,0,0,1-5.1-5.1V324.7Z" transform="translate(-19.118 -249.54)" fill="#3d8efc"/><g transform="translate(42.723 51.071)"><path d="M306.508,306.225l6.448-4.858-2.4-.755-5.751,4.333Z" transform="translate(-263.531 -300.612)" fill="#0593fc"/><path d="M170.559,411.017h3.4v15.875h-3.4Z" transform="translate(-152.089 -392.26)" fill="#0593fc"/><path d="M65.24,330.154V324.7h5.368a2.548,2.548,0,0,0,2.548-2.548v-2.729l9.666-12.547a5.1,5.1,0,0,1,2.253-1.664L95.1,301.461l-1.127-.849-12.295,4.6a5.1,5.1,0,0,0-2.253,1.664l-9.666,12.547v2.729A2.548,2.548,0,0,1,67.21,324.7H61.842v5.458a5.1,5.1,0,0,0,5.1,5.1h.091a5.1,5.1,0,0,0,1.652-.275A5.1,5.1,0,0,1,65.24,330.154Z" transform="translate(-61.842 -300.612)" fill="#0593fc"/></g><path d="M170.559,411.017h39.579v10.6H170.559Z" transform="translate(-109.366 -341.189)" fill="#e4c4ff"/><path d="M170.559,411.017h3.4v10.6h-3.4Z" transform="translate(-109.366 -341.189)" fill="#f9b916"/><path d="M189.71,131.752h-2.559a3.55,3.55,0,0,0-3.55,3.55v2.66a3.55,3.55,0,0,0,3.55,3.55h2.559Z" transform="translate(-120.192 -109.368)" fill="#fed2a4"/><path d="M370.056,131.752h2.559a3.55,3.55,0,0,1,3.55,3.55v2.66a3.55,3.55,0,0,1-3.55,3.55h-2.559Z" transform="translate(-274.97 -109.368)" fill="#fed2a4"/><path d="M219.559,105.338v12.276a11.809,11.809,0,0,0,11.809,11.809h1.95a11.809,11.809,0,0,0,11.809-11.809V105.458l-12.784-5.381Z" transform="translate(-150.041 -83.075)" fill="#fff3de"/><path d="M222.957,117.614V105.338l11.066-4.554-1.68-.707-12.784,5.261v12.276a11.809,11.809,0,0,0,11.809,11.809h1.95c.243,0,.484-.01.724-.024a11.808,11.808,0,0,1-11.085-11.785Z" transform="translate(-150.041 -83.075)" fill="#ffe5c2"/><path d="M191.469,54.394h5.863a5.1,5.1,0,0,0,5.1-5.1V38.562h-3.315a7.645,7.645,0,0,0-7.645,7.645Z" transform="translate(-126.724 -32.011)" fill="#546e7a"/><path d="M202.428,38.564v0h-3.315a7.645,7.645,0,0,0-7.645,7.645v8.187h3.4V46.207A7.644,7.644,0,0,1,202.428,38.564Z" transform="translate(-126.723 -32.011)" fill="#435860"/><path d="M269.725,7.5a10.462,10.462,0,0,1,10.462,10.462V28.611H261.076a5.1,5.1,0,0,1-5.1-5.1V12.6a5.1,5.1,0,0,1,5.1-5.1Z" transform="translate(-180.274 -6.227)" fill="#546e7a"/><path d="M259.377,23.513V12.6a5.1,5.1,0,0,1,5.1-5.1h-3.4a5.1,5.1,0,0,0-5.1,5.1V23.513a5.1,5.1,0,0,0,5.1,5.1h3.4a5.1,5.1,0,0,1-5.1-5.1Z" transform="translate(-180.274 -6.227)" fill="#435860"/><path d="M48.858,365.019h5.458a2.548,2.548,0,0,0,2.548-2.548V351.735a2.548,2.548,0,0,0-2.548-2.548H48.858a2.548,2.548,0,0,0-2.548,2.548V362.47A2.548,2.548,0,0,0,48.858,365.019Z" transform="translate(-6.226 -289.863)" fill="#fff3de"/><path d="M49.709,362.47V351.735a2.548,2.548,0,0,1,2.548-2.548h-3.4a2.548,2.548,0,0,0-2.548,2.548V362.47a2.548,2.548,0,0,0,2.548,2.548h3.4A2.548,2.548,0,0,1,49.709,362.47Z" transform="translate(-6.227 -289.863)" fill="#ffe5c2"/><g transform="translate(38.81 0)"><path d="M320.965,155.818a1.274,1.274,0,0,0,1.274-1.274v-1.672a1.274,1.274,0,1,0-2.548,0v1.672A1.274,1.274,0,0,0,320.965,155.818Z" transform="translate(-271.972 -125.842)"/><path d="M256.347,155.818a1.274,1.274,0,0,0,1.274-1.274v-1.672a1.274,1.274,0,1,0-2.548,0v1.672A1.274,1.274,0,0,0,256.347,155.818Z" transform="translate(-218.332 -125.842)"/><path d="M272.97,207.967a4.475,4.475,0,0,0,4.47-4.47,1.274,1.274,0,1,0-2.548,0,1.921,1.921,0,1,1-3.843,0,1.274,1.274,0,1,0-2.548,0A4.475,4.475,0,0,0,272.97,207.967Z" transform="translate(-229.478 -167.867)"/><path d="M111.326,68.325a1.274,1.274,0,0,0,1.274-1.274V63.1a8.391,8.391,0,0,0-5.813-8L91.031,50.138V45.069A13.739,13.739,0,0,0,96.36,33.419c2.923.225,6.109-1.508,6.109-4.824v-2.66a4.806,4.806,0,0,0-1.307-3.3c.016-.082.025-3.634.025-3.634a1.274,1.274,0,0,0-2.548,0v2.107H80.8a3.827,3.827,0,0,1-3.823-3.823V6.371A3.827,3.827,0,0,1,80.8,2.548h8.649a9.2,9.2,0,0,1,9.188,9.188v1.713a1.274,1.274,0,1,0,2.548,0V11.736A11.749,11.749,0,0,0,89.451,0H80.8a6.38,6.38,0,0,0-6.275,5.277H72.391A8.93,8.93,0,0,0,63.471,14.2s.007,8.324.018,8.391a4.807,4.807,0,0,0-1.355,3.347v2.66c0,3.265,3.171,5.075,6.109,4.824a13.546,13.546,0,0,0,5.329,11.651v5.12L62.11,54.474a6.376,6.376,0,0,0-2.815,2.08l-7.382,9.583V61.872a3.814,3.814,0,0,0-1.32-2.885V53.71a3.913,3.913,0,1,0-7.825,0v4.34c-2.684,0-3.958,1.506-3.958,3.823V72.607a3.829,3.829,0,0,0,2.638,3.634v4.373a6.435,6.435,0,0,0,11.724,3.592l6.746-8.151V85.7a1.274,1.274,0,0,0,1.274,1.274h50.133A1.274,1.274,0,0,0,112.6,85.7V72.6a1.274,1.274,0,1,0-2.548,0V84.429h-8.006V67.523a1.274,1.274,0,1,0-2.548,0v1.031H62.467V67.24a1.274,1.274,0,0,0-2.548,0v4.818L51.17,82.628C49.084,85.146,44,85.222,44,80.614V76.43h4.048v1.364a1.274,1.274,0,0,0,2.548,0v-2.3a3.814,3.814,0,0,0,1.32-2.886V70.312l9.4-12.2A3.83,3.83,0,0,1,63,56.86L74.64,52.51l6.9,5.192a1.334,1.334,0,0,0,1.614-.061L90,52.484l16.012,5.044a5.845,5.845,0,0,1,4.042,5.571v3.952a1.274,1.274,0,0,0,1.274,1.274ZM99.5,71.1V79.16H77.623a1.274,1.274,0,0,0,0,2.548H99.5V84.43H62.467V81.708h9.6a1.274,1.274,0,1,0,0-2.548h-9.6V71.1ZM45.316,53.71a1.364,1.364,0,1,1,2.729,0v4.34H45.316Zm-3.958,8.162A1.276,1.276,0,0,1,42.633,60.6H48.09a1.276,1.276,0,0,1,1.274,1.274v1.455h-4a1.274,1.274,0,0,0,0,2.548h4V68.6h-4a1.274,1.274,0,1,0,0,2.548h4v1.455c0,.85-.515,1.216-1.273,1.274H42.633a1.276,1.276,0,0,1-1.274-1.274ZM99.921,28.594a2.279,2.279,0,0,1-2.276,2.276H96.361V23.658h1.284a2.279,2.279,0,0,1,2.276,2.276ZM66.02,14.2a6.378,6.378,0,0,1,6.371-6.371h2.041v9.461h0a3.827,3.827,0,0,1-3.823,3.823H66.02Zm.939,16.674a2.279,2.279,0,0,1-2.276-2.276v-2.66a2.279,2.279,0,0,1,2.276-2.276h1.285V30.87H66.959Zm3.833,3.669V23.653A6.365,6.365,0,0,0,75.706,21.1a6.365,6.365,0,0,0,5.1,2.553h13.01V34.539c0,14-23.02,13.985-23.02,0Zm17.691,12v3.893L82.3,55.089l-6.181-4.657V46.54c3.038,1.823,9.1,1.71,12.361,0Z" transform="translate(-38.81 0)"/><path d="M65.119,177.941a1.275,1.275,0,0,0,1.8,0l5.277-5.277a1.274,1.274,0,0,0-1.8-1.8l-4.376,4.376L64.282,173.5a1.274,1.274,0,0,0-1.8,1.8Z" transform="translate(-58.149 -141.524)"/><path d="M42.634,147.32H53.369a3.827,3.827,0,0,0,3.823-3.823v-1.455h4c1.346-.011,1.94-1.037.906-2.17l-4.909-4.965v-7.543a3.827,3.827,0,0,0-3.823-3.823H42.634a3.827,3.827,0,0,0-3.823,3.823V143.5A3.827,3.827,0,0,0,42.634,147.32Zm-1.274-19.955a1.276,1.276,0,0,1,1.274-1.274H53.369a1.276,1.276,0,0,1,1.274,1.274v8.066a1.273,1.273,0,0,0,.368.9l3.132,3.167H55.917a1.274,1.274,0,0,0-1.274,1.274V143.5a1.276,1.276,0,0,1-1.274,1.274H42.634a1.276,1.276,0,0,1-1.274-1.274Z" transform="translate(-38.811 -102.553)"/></g></g></g></svg>