<svg xmlns="http://www.w3.org/2000/svg" width="259" height="259" viewBox="0 0 259 259"><g transform="translate(-902 -6310)"><rect width="259" height="259" rx="22" transform="translate(902 6310)" fill="#fff"/><g transform="translate(949.156 6342.582)"><path d="M52.808,364.524a2.917,2.917,0,0,0-.84,2.586l2.481,14.472a2.923,2.923,0,0,1-4.24,3.08l-12.994-6.831a2.907,2.907,0,0,0-2.72,0L21.5,384.662a2.923,2.923,0,0,1-4.24-3.08l.366-2.129,2.115-12.343a2.917,2.917,0,0,0-.841-2.586L8.389,354.278a2.923,2.923,0,0,1,1.621-4.985l14.528-2.11a2.923,2.923,0,0,0,2.2-1.6l6.5-13.167a2.922,2.922,0,0,1,5.24,0l6.5,13.167a2.914,2.914,0,0,0,2.2,1.6l4.491.651L61.7,349.293a2.923,2.923,0,0,1,1.619,4.985Zm0,0" transform="translate(-4.86 -214.241)" fill="#af58fa"/><path d="M70.664,395.857a2.917,2.917,0,0,0-.84,2.586l2.481,14.472a2.923,2.923,0,0,1-4.24,3.08l-12.994-6.831a2.907,2.907,0,0,0-2.72,0L39.358,416a2.923,2.923,0,0,1-4.24-3.08l.366-2.129c22.777-9.715,31.261-21.863,34.037-31.618l10.037,1.458a2.923,2.923,0,0,1,1.619,4.985Zm0,0" transform="translate(-22.716 -245.573)" fill="#e4c4ff"/><path d="M55.814,162.98A2.279,2.279,0,0,0,55.158,165l1.938,11.31a2.284,2.284,0,0,1-3.313,2.407l-10.156-5.339a2.279,2.279,0,0,0-2.126,0l-10.156,5.339a2.284,2.284,0,0,1-3.313-2.407l.285-1.664L29.971,165a2.28,2.28,0,0,0-.658-2.022L21.1,154.971a2.285,2.285,0,0,1,1.268-3.9l11.355-1.649a2.286,2.286,0,0,0,1.72-1.248l5.079-10.291a2.283,2.283,0,0,1,4.095,0l5.079,10.291a2.278,2.278,0,0,0,1.72,1.248l3.51.509,7.845,1.14a2.284,2.284,0,0,1,1.265,3.9Zm0,0" transform="translate(-13.215 -88.48)" fill="#fed370"/><path d="M69.771,187.469a2.279,2.279,0,0,0-.655,2.022L71.054,200.8a2.284,2.284,0,0,1-3.313,2.407L57.586,197.87a2.279,2.279,0,0,0-2.126,0L45.3,203.208a2.284,2.284,0,0,1-3.313-2.407l.285-1.664c17.8-7.593,24.434-17.087,26.6-24.712l7.845,1.138a2.284,2.284,0,0,1,1.265,3.9Zm0,0" transform="translate(-27.173 -112.969)" fill="#fda736"/><path d="M225.9,432.373a1.748,1.748,0,0,0-.5,1.552l1.489,8.689a1.754,1.754,0,0,1-2.545,1.848l-7.8-4.1a1.748,1.748,0,0,0-1.632,0l-7.8,4.1a1.755,1.755,0,0,1-2.546-1.848l.219-1.279,1.27-7.41a1.749,1.749,0,0,0-.505-1.552l-6.312-6.152a1.756,1.756,0,0,1,.973-2.993l8.723-1.266a1.753,1.753,0,0,0,1.32-.959l3.9-7.9a1.753,1.753,0,0,1,3.145,0l3.9,7.9a1.75,1.75,0,0,0,1.321.959l2.7.391,6.025.875a1.754,1.754,0,0,1,.972,2.993Zm0,0" transform="translate(-128.69 -266.915)" fill="#af58fa"/><path d="M236.62,451.181a1.747,1.747,0,0,0-.5,1.552l1.489,8.689a1.754,1.754,0,0,1-2.545,1.848l-7.8-4.1a1.748,1.748,0,0,0-1.632,0l-7.8,4.1a1.755,1.755,0,0,1-2.546-1.848l.219-1.279c13.675-5.833,18.769-13.126,20.435-18.983l6.027.875a1.754,1.754,0,0,1,.972,2.992Zm0,0" transform="translate(-139.412 -285.724)" fill="#e4c4ff"/><path d="M279.813,138.193a1.537,1.537,0,0,0-.442,1.363l1.306,7.626a1.54,1.54,0,0,1-2.234,1.623l-6.846-3.6a1.534,1.534,0,0,0-1.433,0l-6.847,3.6a1.541,1.541,0,0,1-2.234-1.623l.193-1.123,1.115-6.5a1.539,1.539,0,0,0-.443-1.363l-5.54-5.4a1.54,1.54,0,0,1,.855-2.626l7.654-1.112a1.543,1.543,0,0,0,1.16-.842l3.424-6.937a1.539,1.539,0,0,1,2.759,0l3.424,6.937a1.536,1.536,0,0,0,1.159.842l2.366.343,5.289.768a1.54,1.54,0,0,1,.852,2.627Zm0,0" transform="translate(-165.765 -77.992)" fill="#fed370"/><path d="M289.221,154.7a1.537,1.537,0,0,0-.442,1.363l1.306,7.626a1.54,1.54,0,0,1-2.234,1.623l-6.846-3.6a1.534,1.534,0,0,0-1.433,0l-6.847,3.6a1.541,1.541,0,0,1-2.234-1.623l.193-1.123c12-5.118,16.47-11.518,17.933-16.659l5.288.769a1.539,1.539,0,0,1,.853,2.626Zm0,0" transform="translate(-175.173 -94.498)" fill="#fda736"/><path d="M15.276,382.788A5.576,5.576,0,0,1,9.8,376.277l2.481-14.471a.277.277,0,0,0-.08-.248L1.685,351.312a5.564,5.564,0,0,1,3.084-9.491L19.3,339.71a.284.284,0,0,0,.211-.154l6.5-13.164a5.564,5.564,0,0,1,9.98,0,2.643,2.643,0,0,1-4.74,2.338.247.247,0,0,0-.25-.155.25.25,0,0,0-.25.155l-6.5,13.166a5.563,5.563,0,0,1-4.189,3.044l-14.53,2.111a.247.247,0,0,0-.224.19.25.25,0,0,0,.07.286l10.514,10.248a5.561,5.561,0,0,1,1.6,4.924l-2.481,14.47a.249.249,0,0,0,.111.272.246.246,0,0,0,.293.022l13-6.832a5.567,5.567,0,0,1,5.179,0l13,6.832a.28.28,0,0,0,.4-.295L44.5,362.7a5.561,5.561,0,0,1,1.6-4.924l10.514-10.248a.279.279,0,0,0-.154-.476l-14.53-2.111a5.564,5.564,0,0,1-4.189-3.044l-1.581-3.205a2.642,2.642,0,0,1,4.739-2.338l1.583,3.2a.277.277,0,0,0,.211.153l14.528,2.111a5.564,5.564,0,0,1,3.084,9.491L49.792,361.559a.277.277,0,0,0-.08.248l2.481,14.471a5.565,5.565,0,0,1-8.073,5.866l-13-6.832a.281.281,0,0,0-.26,0l-13,6.832A5.558,5.558,0,0,1,15.276,382.788Zm0,0" transform="translate(0 -209.383)"/><path d="M25.419,176.773a4.937,4.937,0,0,1-4.851-5.764l1.909-11.123-8.082-7.878a4.926,4.926,0,0,1,2.729-8.4l11.169-1.623,4.995-10.12a4.927,4.927,0,0,1,8.836,0l4.995,10.12,11.169,1.623a4.926,4.926,0,0,1,2.729,8.4l-8.082,7.878,1.908,11.123a4.925,4.925,0,0,1-7.147,5.193l-9.989-5.252L27.716,176.2A4.927,4.927,0,0,1,25.419,176.773ZM37.705,165.62a4.931,4.931,0,0,1,2.293.566l9.512,5-1.817-10.593a4.924,4.924,0,0,1,1.418-4.36l7.7-7.5-10.636-1.546a4.925,4.925,0,0,1-3.709-2.695l-4.757-9.638-4.757,9.638a4.924,4.924,0,0,1-3.709,2.695L18.6,148.731l7.7,7.5a4.927,4.927,0,0,1,1.416,4.362L25.9,171.185l9.513-5A4.946,4.946,0,0,1,37.705,165.62Zm19.82-16.784h0Zm0,0" transform="translate(-8.357 -83.624)"/><path d="M201.424,442.452a4.4,4.4,0,0,1-4.33-5.145l1.411-8.228-5.977-5.826a4.4,4.4,0,0,1,2.437-7.5l8.261-1.2,3.694-7.486a4.4,4.4,0,0,1,7.885,0l3.694,7.484,8.261,1.2a4.4,4.4,0,0,1,2.437,7.5l-5.979,5.827,1.412,8.226a4.4,4.4,0,0,1-6.379,4.635l-7.389-3.884-7.388,3.884A4.39,4.39,0,0,1,201.424,442.452Zm9.439-9.8a4.4,4.4,0,0,1,2.045.505l6.21,3.265-1.186-6.913a4.4,4.4,0,0,1,1.265-3.892l5.024-4.9-6.942-1.009a4.4,4.4,0,0,1-3.31-2.406l-3.1-6.29-3.1,6.29a4.4,4.4,0,0,1-3.31,2.406l-6.942,1.009,5.024,4.9a4.394,4.394,0,0,1,1.263,3.891l-1.185,6.914,6.209-3.265A4.409,4.409,0,0,1,210.862,432.657ZM226,420.984h0Zm-15.934-11.578h0Zm0,0" transform="translate(-123.831 -262.056)"/><path d="M354.34,44a2.643,2.643,0,0,1-1.869-4.512L391.191.774a2.642,2.642,0,0,1,3.737,3.737L356.209,43.23A2.635,2.635,0,0,1,354.34,44Zm0,0" transform="translate(-227.782 0)"/><path d="M137.159,262.451a2.643,2.643,0,0,1-1.868-4.512l38.03-38.03a2.642,2.642,0,1,1,3.737,3.737l-38.03,38.03A2.634,2.634,0,0,1,137.159,262.451Zm0,0" transform="translate(-87.122 -141.925)"/><path d="M177.579,308.036a2.643,2.643,0,0,1-1.869-4.512l17.26-17.26A2.642,2.642,0,0,1,196.707,290l-17.26,17.26A2.634,2.634,0,0,1,177.579,308.036Zm0,0" transform="translate(-113.299 -184.901)"/><path d="M333.508,212.937a2.643,2.643,0,0,1-1.869-4.512l49.142-49.141a2.642,2.642,0,0,1,3.737,3.737l-49.141,49.141A2.634,2.634,0,0,1,333.508,212.937Zm0,0" transform="translate(-214.29 -102.661)"/><path d="M272.372,341.2a2.643,2.643,0,0,1-1.869-4.512l12.623-12.623a2.643,2.643,0,0,1,3.738,3.737l-12.625,12.624A2.631,2.631,0,0,1,272.372,341.2Zm0,0" transform="translate(-174.693 -209.384)"/><path d="M162.077,193.029a2.642,2.642,0,0,1-1.868-4.512l8.343-8.343a2.643,2.643,0,0,1,3.738,3.737l-8.345,8.345A2.639,2.639,0,0,1,162.077,193.029Zm0,0" transform="translate(-103.261 -116.191)"/><path d="M259.354,43.327a2.643,2.643,0,0,1-1.869-4.512l11.763-11.762a2.642,2.642,0,0,1,3.737,3.737L261.223,42.552A2.635,2.635,0,0,1,259.354,43.327Zm0,0" transform="translate(-166.263 -17.02)"/><path d="M162.077,113.971a2.643,2.643,0,0,1-1.868-4.512l26.252-26.252a2.643,2.643,0,0,1,3.737,3.738L163.946,113.2A2.634,2.634,0,0,1,162.077,113.971Zm0,0" transform="translate(-103.261 -53.389)"/><path d="M141.331,95.649a2.642,2.642,0,0,1-1.869-4.51l12.271-12.271a2.642,2.642,0,0,1,3.737,3.737L143.2,94.876A2.635,2.635,0,0,1,141.331,95.649Zm0,0" transform="translate(-89.823 -50.579)"/><path d="M274.3,146.768a4.2,4.2,0,0,1-1.952-.484l-6.332-3.331-6.334,3.331a4.182,4.182,0,0,1-6.068-4.408l1.21-7.052-5.124-4.995a4.182,4.182,0,0,1,2.318-7.133l7.081-1.029,3.167-6.416a4.182,4.182,0,0,1,7.5,0l3.167,6.416,7.08,1.029a4.182,4.182,0,0,1,2.319,7.132l-5.124,4.995,1.208,7.052a4.19,4.19,0,0,1-4.117,4.894Zm-8.284-9.243a4.173,4.173,0,0,1,1.946.482l4.868,2.559-.929-5.421a4.178,4.178,0,0,1,1.2-3.7l3.939-3.84-5.442-.79a4.182,4.182,0,0,1-3.149-2.287l-2.435-4.933-2.435,4.931a4.181,4.181,0,0,1-3.149,2.289l-5.442.79,3.939,3.84a4.176,4.176,0,0,1,1.2,3.7l-.929,5.421,4.868-2.56A4.192,4.192,0,0,1,266.02,137.525Zm7.173-15.339h0Zm-8.162-4.6h0Zm0,0" transform="translate(-160.904 -73.132)"/><path d="M300.633,372.183a2.643,2.643,0,0,1-1.869-4.512l15.13-15.13a2.642,2.642,0,0,1,3.737,3.737l-15.13,15.13A2.634,2.634,0,0,1,300.633,372.183Zm0,0" transform="translate(-192.998 -227.827)"/><path d="M316.329,259.989a2.643,2.643,0,0,1-1.869-4.512l6.053-6.053a2.643,2.643,0,0,1,3.738,3.737l-6.053,6.053A2.637,2.637,0,0,1,316.329,259.989Zm0,0" transform="translate(-203.163 -161.042)"/><path d="M419.856,70.054a2.643,2.643,0,0,1-1.869-4.512l7.249-7.249a2.643,2.643,0,0,1,3.738,3.738l-7.249,7.248A2.631,2.631,0,0,1,419.856,70.054Zm0,0" transform="translate(-270.214 -37.253)"/><path d="M97.654,59.386h-.012a2.642,2.642,0,0,1-2.63-2.655l0-.922a2.643,2.643,0,1,1,5.285.025l0,.922A2.643,2.643,0,0,1,97.654,59.386Zm0,0" transform="translate(-61.535 -34.442)"/><path d="M97.572,86.024h-.014a2.642,2.642,0,0,1-2.629-2.656l0-.921a2.643,2.643,0,0,1,2.643-2.63h.014a2.642,2.642,0,0,1,2.629,2.655l0,.922A2.643,2.643,0,0,1,97.572,86.024Zm0,0" transform="translate(-61.482 -51.694)"/><path d="M110.55,73.129h-.014l-.922,0a2.643,2.643,0,0,1,.012-5.285h.012l.922,0a2.643,2.643,0,0,1-.011,5.285Zm0,0" transform="translate(-69.29 -43.937)"/><path d="M83.912,73.047H83.9l-.922,0a2.643,2.643,0,0,1,.012-5.285H83l.922.006a2.642,2.642,0,0,1-.014,5.284Zm0,0" transform="translate(-52.038 -43.884)"/><path d="M17.307,292.359h-.014a2.642,2.642,0,0,1-2.629-2.656l0-.922a2.643,2.643,0,0,1,5.285.026l0,.922A2.643,2.643,0,0,1,17.307,292.359Zm0,0" transform="translate(-9.497 -185.33)"/><path d="M17.224,319h-.012a2.643,2.643,0,0,1-2.63-2.655l0-.922a2.643,2.643,0,1,1,5.285.025l0,.922A2.643,2.643,0,0,1,17.224,319Zm0,0" transform="translate(-9.444 -202.582)"/><path d="M30.205,306.1h-.014l-.922,0a2.643,2.643,0,0,1,.026-5.285l.922,0a2.643,2.643,0,0,1-.012,5.285Zm0,0" transform="translate(-17.254 -194.825)"/><path d="M3.568,306.019H3.555l-.921,0a2.643,2.643,0,0,1,.023-5.285l.922,0a2.643,2.643,0,0,1-.011,5.285Zm0,0" transform="translate(-0.002 -194.772)"/><path d="M392.99,382.16h-.012a2.643,2.643,0,0,1-2.63-2.655l0-.922a2.642,2.642,0,0,1,2.643-2.63h.011a2.643,2.643,0,0,1,2.632,2.654l0,.922A2.644,2.644,0,0,1,392.99,382.16Zm0,0" transform="translate(-252.814 -243.491)"/><path d="M392.906,408.8h-.014a2.644,2.644,0,0,1-2.63-2.656l.006-.922a2.642,2.642,0,0,1,2.642-2.629h.012a2.642,2.642,0,0,1,2.63,2.655l-.006.922A2.642,2.642,0,0,1,392.906,408.8Zm0,0" transform="translate(-252.759 -260.743)"/><path d="M405.885,395.9h-.012l-.922,0a2.643,2.643,0,0,1,.012-5.285h.012l.922,0a2.643,2.643,0,0,1-.012,5.285Zm0,0" transform="translate(-260.569 -252.986)"/><path d="M379.25,395.82h-.014l-.922,0a2.643,2.643,0,0,1,.012-5.285h.014l.922,0a2.643,2.643,0,0,1-.012,5.285Zm0,0" transform="translate(-243.317 -252.933)"/></g></g></svg>