<svg xmlns="http://www.w3.org/2000/svg" width="133.653" height="63.424" viewBox="0 0 133.653 63.424"><g transform="translate(-425.576 -3967.549)"><g transform="translate(425.576 3967.548)"><g transform="translate(1.858 1.86)"><path d="M74.7,44.862A29.854,29.854,0,1,1,44.851,15.008,29.854,29.854,0,0,1,74.7,44.862Z" transform="translate(-14.997 -15.008)" fill="#a7fff1"/><g transform="translate(16.022 16.022)"><path d="M170.837,165.215l-7.037-7.037,7.037-7.037a3.98,3.98,0,0,0-5.629-5.629l-7.037,7.037-7.037-7.037a3.98,3.98,0,1,0-5.629,5.629l7.037,7.037-7.037,7.037a3.98,3.98,0,1,0,5.629,5.629l7.037-7.037,7.037,7.037a3.981,3.981,0,0,0,5.629-5.629Z" transform="translate(-144.339 -144.346)" fill="#e7f0ef"/></g></g><g transform="translate(0 0.001)"><path d="M54.136,9.289A31.712,31.712,0,1,0,9.288,54.137,31.712,31.712,0,0,0,54.136,9.289ZM31.712,59.709a28,28,0,1,1,28-28,28.028,28.028,0,0,1-28,28Z" transform="translate(0 -0.001)"/><path d="M160.722,135.178a5.838,5.838,0,0,0-9.967-4.129l-5.723,5.723-5.723-5.723a5.838,5.838,0,1,0-8.257,8.256l5.723,5.723-5.723,5.723a5.838,5.838,0,1,0,8.257,8.257l5.723-5.723,5.723,5.723a5.839,5.839,0,0,0,8.257-8.257l-5.723-5.723,5.722-5.723a5.8,5.8,0,0,0,1.71-4.128Zm-4.338,1.5-7.037,7.037a1.858,1.858,0,0,0,0,2.628l7.037,7.036a2.122,2.122,0,1,1-3,3l-7.037-7.037a1.858,1.858,0,0,0-2.628,0l-7.037,7.037a2.122,2.122,0,0,1-3-3l7.037-7.037a1.858,1.858,0,0,0,0-2.628l-7.037-7.037a2.122,2.122,0,0,1,3-3l7.037,7.037a1.858,1.858,0,0,0,2.628,0l7.037-7.037a2.122,2.122,0,1,1,3,3Z" transform="translate(-113.32 -113.317)"/></g></g><g transform="translate(495.806 3967.549)"><g transform="translate(1.858 1.859)"><path d="M74.7,44.861A29.854,29.854,0,1,1,44.85,15.007,29.854,29.854,0,0,1,74.7,44.861Z" transform="translate(-14.996 -15.007)" fill="#f2e3ff"/><g transform="translate(13.208 17.429)"><path d="M153.745,156.873a3.98,3.98,0,0,0-5.629,0l-14.073,14.073-5.629-5.629a3.98,3.98,0,1,0-5.629,5.629l8.444,8.444a3.98,3.98,0,0,0,5.629,0L153.745,162.5A3.98,3.98,0,0,0,153.745,156.873Z" transform="translate(-121.619 -155.707)" fill="#e7f0ef"/></g></g><g transform="translate(0)"><path d="M54.136,9.288A31.712,31.712,0,0,0,9.288,54.136,31.712,31.712,0,0,0,54.136,9.288ZM31.711,59.708a28,28,0,1,1,28-28,28.027,28.027,0,0,1-28,28Z" transform="translate(0)"/><path d="M137.809,140.7a5.8,5.8,0,0,0-4.128,1.71l-12.76,12.759-4.316-4.316a5.839,5.839,0,0,0-8.257,8.257l8.444,8.444a5.838,5.838,0,0,0,8.257,0l16.888-16.888a5.839,5.839,0,0,0-4.129-9.967Zm1.5,7.339-16.889,16.888a2.121,2.121,0,0,1-3,0l-8.444-8.444a2.122,2.122,0,1,1,3-3l5.629,5.629a1.858,1.858,0,0,0,2.628,0l14.074-14.074a2.122,2.122,0,0,1,3,3Z" transform="translate(-93.432 -123.271)"/></g></g></g></svg>