<svg xmlns="http://www.w3.org/2000/svg" width="89.117" height="89.117" viewBox="0 0 89.117 89.117"><path d="M53.4,57.574A36.07,36.07,0,1,0,57.272,53.7a1.421,1.421,0,0,1-1.959-.1q-1.044.97-2.012,2.016A1.421,1.421,0,0,1,53.4,57.574Zm25.959-4v-4.3a1.422,1.422,0,1,1,2.844,0v4.306A27.472,27.472,0,0,1,93.947,56.9a1.422,1.422,0,0,1,.564,1.93c-.006.012-.014.023-.021.034a26.215,26.215,0,0,1,2.757,1.969l3.969-2.167a1.422,1.422,0,0,1,1.93,1.929l-2.167,3.97a26.193,26.193,0,0,1,1.969,2.757l.034-.021a1.422,1.422,0,0,1,1.93.564A27.477,27.477,0,0,1,108.235,79.6h4.306a1.422,1.422,0,1,1,0,2.844h-4.3A27.533,27.533,0,0,1,82.2,108.483v4.3a1.422,1.422,0,1,1-2.844,0V108.48a27.474,27.474,0,0,1-11.744-3.323,1.422,1.422,0,0,1-.564-1.93c.006-.012.014-.022.021-.034a26.216,26.216,0,0,1-2.757-1.969l-3.969,2.167a1.422,1.422,0,0,1-1.93-1.93l2.167-3.969a26.205,26.205,0,0,1-1.969-2.757l-.034.021a1.422,1.422,0,0,1-1.93-.564,27.475,27.475,0,0,1-3.323-11.744H49.022a1.422,1.422,0,1,1,0-2.844h4.3A27.533,27.533,0,0,1,79.359,53.569Z" transform="translate(-36.223 -36.468)" fill="#fff"/><path d="M141.449,108.013a24.641,24.641,0,0,0-33.436,33.436,1.421,1.421,0,0,1-.531,1.91,26.205,26.205,0,0,0,1.969,2.757l12.736-23.325,0-.009.008-.014.008-.013a1.4,1.4,0,0,1,.089-.138l.026-.035a1.44,1.44,0,0,1,.119-.137,1.47,1.47,0,0,1,.139-.121l.036-.026a1.428,1.428,0,0,1,.137-.088l.013-.008.015-.008,23.333-12.741a26.191,26.191,0,0,0-2.757-1.969A1.421,1.421,0,0,1,141.449,108.013Z" transform="translate(-85.091 -85.091)" fill="#f2ebd9"/><path d="M172.081,171.493l-.009.016-.009.013a1.418,1.418,0,0,1-.088.137l-.026.035a1.287,1.287,0,0,1-.258.258l-.036.026a1.394,1.394,0,0,1-.136.087l-.014.009-.017.009-23.332,12.74a26.172,26.172,0,0,0,2.757,1.969,1.421,1.421,0,0,1,1.91-.53,24.641,24.641,0,0,0,33.436-33.436,1.421,1.421,0,0,1,.53-1.909,26.223,26.223,0,0,0-1.969-2.757Z" transform="translate(-120.065 -120.068)" fill="#f2ebd9"/><path d="M163.854,224.4l-9.714-9.715-11.685,21.4Z" transform="translate(-115.444 -173.979)" fill="#e4c4ff"/><path d="M224.4,163.854l11.685-21.4-21.4,11.685Z" transform="translate(-173.98 -115.444)" fill="#af58fa"/><path d="M56.714,15A41.714,41.714,0,1,0,98.429,56.714,41.762,41.762,0,0,0,56.714,15Zm-.057,80.585a38.85,38.85,0,0,1-29.48-64.177,1.422,1.422,0,0,1,2.006-.151c.018.015.034.032.05.048q.968-1.046,2.012-2.016c-.015-.016-.031-.031-.046-.048a1.422,1.422,0,0,1,.151-2.006,38.863,38.863,0,1,1,25.307,68.35Z" transform="translate(-12.156 -12.156)" fill="#a7fff1"/><path d="M76.066,13.051A44.559,44.559,0,1,0,13.051,76.066,44.559,44.559,0,1,0,76.066,13.051ZM44.559,86.273A41.714,41.714,0,1,1,86.273,44.559,41.762,41.762,0,0,1,44.559,86.273Z" fill="#082947"/><path d="M68.568,30a38.845,38.845,0,0,0-25.306,9.39,1.422,1.422,0,0,0-.151,2.006c.015.017.031.032.046.048a1.421,1.421,0,0,0,1.959.1,36.068,36.068,0,1,1-3.871,3.871,1.421,1.421,0,0,0-.1-1.958c-.017-.016-.033-.033-.05-.048a1.423,1.423,0,0,0-2.006.151A38.854,38.854,0,1,0,68.568,30Z" transform="translate(-24.067 -24.312)" fill="#082947"/><path d="M197.206,163.771a24.641,24.641,0,0,1-33.436,33.436,1.421,1.421,0,0,0-1.91.53c-.007.012-.014.022-.021.034a1.422,1.422,0,0,0,.564,1.93,27.474,27.474,0,0,0,11.744,3.323v4.306a1.422,1.422,0,1,0,2.844,0v-4.3a27.533,27.533,0,0,0,26.035-26.035h4.3a1.422,1.422,0,1,0,0-2.844h-4.306A27.477,27.477,0,0,0,199.7,162.4a1.422,1.422,0,0,0-1.93-.564l-.034.021A1.422,1.422,0,0,0,197.206,163.771Z" transform="translate(-131.011 -131.012)" fill="#082947"/><path d="M131.8,131.212l-.015.008-.013.008a1.42,1.42,0,0,0-.137.088l-.036.026a1.287,1.287,0,0,0-.258.258l-.026.035a1.412,1.412,0,0,0-.089.138l-.008.013-.008.014,0,.009-12.736,23.325-2.167,3.969a1.422,1.422,0,0,0,1.93,1.93l3.969-2.167L145.53,146.13l.022-.012.014-.009a1.393,1.393,0,0,0,.136-.087l.036-.026a1.289,1.289,0,0,0,.258-.258l.026-.035a1.4,1.4,0,0,0,.088-.137l.009-.013.009-.016,12.74-23.332,2.167-3.97a1.422,1.422,0,0,0-1.93-1.929l-3.969,2.167Zm10.719,13.32-21.4,11.685,11.685-21.4Zm2.011-2.011-9.715-9.715,21.4-11.685Z" transform="translate(-94.112 -94.111)" fill="#082947"/><path d="M61.422,91.76a1.422,1.422,0,1,0,0,2.844h4.306a27.477,27.477,0,0,0,3.323,11.744,1.421,1.421,0,0,0,1.93.564l.034-.021a1.421,1.421,0,0,0,.531-1.91,24.641,24.641,0,0,1,33.436-33.436,1.421,1.421,0,0,0,1.909-.53c.007-.012.015-.022.021-.034a1.422,1.422,0,0,0-.564-1.93A27.471,27.471,0,0,0,94.6,65.729V61.422a1.422,1.422,0,1,0-2.844,0v4.3A27.533,27.533,0,0,0,65.725,91.76Z" transform="translate(-48.623 -48.623)" fill="#082947"/></svg>