<svg xmlns="http://www.w3.org/2000/svg" width="111" height="111" viewBox="0 0 111 111"><g transform="translate(-1025 -3694)"><g transform="translate(0 15)"><rect width="111" height="111" rx="12" transform="translate(1025 3679)" fill="#7ff8e4"/><g transform="translate(984.309 3693.974)"><path d="M122.379,361.215v9.155h27.908V361.2l9.395-9.395-6.537-6.536H113.911l2.359,11.243" transform="translate(-42.304 -290.85)" fill="#a7fff1"/><path d="M193.856,371.544l-7.432,7.825-6.91-6.993-6.91,6.993-7.432-7.825" transform="translate(-85.486 -312.98)" fill="#75cef9"/><path d="M124.566,212.745h.033a5.2,5.2,0,0,0,0-10.394c-.037,0-.075,0-.112,0H76.907c-.037,0-.075,0-.112,0a5.2,5.2,0,0,0,0,10.394h.033" transform="translate(-6.661 -170.456)" fill="#f1b986"/><path d="M151.042,110.4a234.422,234.422,0,0,0-45.347,0,160.757,160.757,0,0,0-1.037,28.2,13.3,13.3,0,0,0,12.668,12.61q11.042.521,22.083,0a13.3,13.3,0,0,0,12.668-12.61A160.726,160.726,0,0,0,151.042,110.4Z" transform="translate(-34.332 -92.069)" fill="#f1d0a5"/><path d="M105.7,110.39q11.335-1.1,22.674-1.1a60.358,60.358,0,0,0-11.48,1.11q-.893,14.234-.525,28.465c.16,6.244,2.442,11.336,5.437,12.5q-2.236-.061-4.474-.167a13.3,13.3,0,0,1-12.669-12.61A160.958,160.958,0,0,1,105.7,110.39Z" transform="translate(-34.338 -92.066)" fill="#f1b986"/><path d="M124.148,38.211c-10.652,0-27.015-6.9-34.03-10.095-2.116-.966-3.383-1.593-3.383-1.593S82.672,36.905,76.567,38.211c-.038,0-.074,0-.111,0a5.162,5.162,0,0,0-2.976.937c-2.014-14.509-4.276-23.935.814-26.762a7.144,7.144,0,0,1,8.577.66A55.455,55.455,0,0,1,95,8.715c8.354-1.943,19.438-2.383,27.936,4.989C131.854,21.444,129.445,31.688,124.148,38.211Z" transform="translate(-6.321 -6.314)" fill="#617881"/><path d="M90.118,34.636c-2.116-.966-3.383-1.593-3.383-1.593S82.672,43.425,76.567,44.731c-.038,0-.074,0-.111,0a5.162,5.162,0,0,0-2.976.937C71.465,31.157,69.2,21.731,74.294,18.9a7.144,7.144,0,0,1,8.577.66A55.455,55.455,0,0,1,95,15.234c-8.386,2.035-8.785,14.271-4.879,19.4Z" transform="translate(-6.321 -12.833)" fill="#475959"/><path d="M99.85,263.617a15.705,15.705,0,0,1-4.625,3.129,4.783,4.783,0,0,1-2.609.331c-8.964-1.258-7.862-15.567-7.862-23.9a10.949,10.949,0,0,1,1.427-5.455,15.953,15.953,0,0,1,7.319-6.275l-.485,14.777s-1.707,8.914.662,11.283Z" transform="translate(-17.707 -194.963)" fill="#a7fff1"/><path d="M95.226,293.3a4.783,4.783,0,0,1-2.609.331c-8.964-1.258-7.862-15.567-7.862-23.9a10.949,10.949,0,0,1,1.427-5.455l5.807-1.307a19.009,19.009,0,0,0-4.56,11.951C87.428,281.993,90.209,291.786,95.226,293.3Z" transform="translate(-17.707 -221.515)" fill="#43efd4"/><path d="M93.73,231.449l-.485,14.777-8.26-3.047C84.985,234.846,93.73,231.449,93.73,231.449Z" transform="translate(-17.937 -194.968)" fill="#f1d0a5"/><path d="M331.656,263.617s4.089,4.089,7.234,3.46c8.963-1.258,7.863-15.568,7.863-23.9s-8.746-11.731-8.746-11.731l.486,14.778s1.708,8.912-.662,11.282" transform="translate(-225.727 -194.963)" fill="#a7fff1"/><path d="M371.942,231.449l.485,14.777,8.26-3.047C380.687,234.846,371.942,231.449,371.942,231.449Z" transform="translate(-259.663 -194.968)" fill="#f1d0a5"/><path d="M212.939,247.761h13.639v6.59H212.939Z" transform="translate(-125.723 -208.708)" fill="#475959"/><path d="M124.65,209.715c0-10.074,7.243-14.943,10.97-14.943a6.747,6.747,0,0,1,6.747,6.747v8.2" transform="translate(-51.35 -164.072)" fill="#475959"/><circle cx="8.858" cy="8.858" r="8.858" transform="translate(73.3 36.785)" fill="#617881"/><circle cx="4.779" cy="4.779" r="4.779" transform="translate(77.379 40.864)" fill="#b1e4f9"/><path d="M293.077,209.715c0-10.074-7.243-14.943-10.97-14.943a6.747,6.747,0,0,0-6.747,6.747v8.2" transform="translate(-178.305 -164.072)" fill="#475959"/><circle cx="8.858" cy="8.858" r="8.858" transform="translate(97.055 36.785)" fill="#617881"/><circle cx="4.779" cy="4.779" r="4.779" transform="translate(101.135 40.864)" fill="#b1e4f9"/><path d="M148.99,263.675a5.961,5.961,0,1,0-5.961-5.961A5.968,5.968,0,0,0,148.99,263.675Zm0-9.558a3.6,3.6,0,1,1-3.6,3.6A3.6,3.6,0,0,1,148.99,254.117Z" transform="translate(-66.832 -212.07)"/><path d="M299.7,251.753a5.961,5.961,0,1,0,5.961,5.961A5.968,5.968,0,0,0,299.7,251.753Zm0,9.558a3.6,3.6,0,1,1,3.6-3.6A3.6,3.6,0,0,1,299.7,261.311Z" transform="translate(-193.787 -212.071)"/><path d="M124.316,37.092a6.389,6.389,0,0,0-4.375-6.055,20.789,20.789,0,0,0,3.791-10.9c.178-5.169-2.017-9.887-6.347-13.644a26.341,26.341,0,0,0-13.454-6.1,39.593,39.593,0,0,0-13.44.416A57.92,57.92,0,0,0,76.7,5.331a8.34,8.34,0,0,0-2.15-1.11,8.588,8.588,0,0,0-7.156.815A6.2,6.2,0,0,0,65.249,7a1.182,1.182,0,1,0,1.959,1.324A3.809,3.809,0,0,1,68.547,7.1c4.21-2.34,7.054.353,7.167.463a1.183,1.183,0,0,0,1.389.209A55.243,55.243,0,0,1,90.993,3.12,37.18,37.18,0,0,1,103.6,2.733a24.007,24.007,0,0,1,12.235,5.549c8.3,7.2,6.014,16.462,1.423,22.425C103.755,30.4,81.17,19.264,80.94,19.15a1.182,1.182,0,0,0-1.627.628c-1.056,2.7-4.752,9.875-9.2,10.935a6.345,6.345,0,0,0-2.014.334c-.2-1.384-.4-2.716-.588-4.016-.929-6.267-1.662-11.217-1.4-14.77a1.182,1.182,0,0,0-2.358-.171c-.277,3.812.473,8.877,1.423,15.288.236,1.592.479,3.232.721,4.954a6.376,6.376,0,0,0,1.259,10.4,12.156,12.156,0,0,0-1.288,5.478c0,.779-.01,1.609-.02,2.487-.049,4.2-.11,9.417.89,13.712,1.235,5.3,3.919,8.286,7.977,8.87a4.661,4.661,0,0,0,.878.081,7.568,7.568,0,0,0,3.3-.893V79.52A1.182,1.182,0,0,0,80.075,80.7h27.908a1.182,1.182,0,0,0,1.182-1.182V72.457a7.426,7.426,0,0,0,3.307.905,4.7,4.7,0,0,0,.887-.082,8.884,8.884,0,0,0,1.731-.426,1.182,1.182,0,1,0-.8-2.225,6.531,6.531,0,0,1-1.293.314l-.066.011c-2.052.41-5.217-2.192-6.166-3.136a1.182,1.182,0,1,0-1.672,1.672,18.378,18.378,0,0,0,1.708,1.463v7.385H95.211V62.275L100.1,67.22a1.182,1.182,0,0,0,.841.351h.012a1.182,1.182,0,0,0,.846-.368l7.241-7.624a14.552,14.552,0,0,0,3.13-1.474c-.085,2.48-.63,3.33-.9,3.6a1.182,1.182,0,1,0,1.672,1.672c1.247-1.247,1.758-3.676,1.564-7.427-.081-1.566-.27-3.009-.41-3.921l5.76-2.125c0,.27.006.542.009.821.066,5.694.157,13.493-2.6,17.529a1.182,1.182,0,1,0,1.953,1.333c3.177-4.652,3.085-12.547,3.011-18.89-.01-.878-.02-1.708-.02-2.487a12.156,12.156,0,0,0-1.288-5.478,6.374,6.374,0,0,0,3.4-5.641ZM83.05,57.951a12.18,12.18,0,0,1-7.067-2.689c.044-.565.1-1.1.158-1.586a10.033,10.033,0,0,0,15.986-6.85h3.818a10.033,10.033,0,0,0,15.986,6.85c.058.483.114,1.02.158,1.586a12.179,12.179,0,0,1-7.067,2.689C97.732,58.3,90.34,58.3,83.05,57.951Zm8.17,2.606L87.136,64.69,82.98,60.314Q87.084,60.508,91.22,60.557ZM72.139,40.163c.327-.285.654-.545.974-.781a19.311,19.311,0,0,0-1,6.262,10,10,0,0,0,.593,3.4L68.264,47.4A10.542,10.542,0,0,1,72.139,40.163Zm26.1-1.11V37.447a5.571,5.571,0,0,1,5.565-5.565c1.477,0,3.909,1.024,6.012,3.312a13.494,13.494,0,0,1,1.52,2,10.016,10.016,0,0,0-13.1,1.983v-.128Zm18.445-6c.052,1.571.082,3.152.087,4.733a18.439,18.439,0,0,0-3.7-2.253,15.417,15.417,0,0,0-2.976-3.325A43.434,43.434,0,0,0,116.682,33.055ZM105.914,53.319a7.676,7.676,0,1,1,7.676-7.676A7.685,7.685,0,0,1,105.914,53.319ZM95.873,44.461H92.2V40.235h3.675ZM74.482,45.643a7.676,7.676,0,1,1,7.676,7.676A7.685,7.685,0,0,1,74.482,45.643Zm15.352-6.591v.128a10.016,10.016,0,0,0-13.1-1.983,13.494,13.494,0,0,1,1.52-2c2.1-2.288,4.535-3.312,6.012-3.312a5.571,5.571,0,0,1,5.565,5.565Zm26.12,6.591a19.308,19.308,0,0,0-1-6.263c.3.223.611.468.92.735a10.56,10.56,0,0,1,3.929,7.285l-4.446,1.64A9.988,9.988,0,0,0,115.954,45.643ZM78.613,26.2a35.8,35.8,0,0,0,2.4-4.392,166.722,166.722,0,0,0,20.316,8.1,7.942,7.942,0,0,0-5.452,7.531v.423H92.2v-.423a7.938,7.938,0,0,0-7.929-7.929c-2.663,0-6.6,2.009-9.27,6.017a18.436,18.436,0,0,0-3.7,2.254c.006-1.66.038-3.328.1-4.989,2.525-.866,4.949-3.079,7.217-6.6ZM66.121,37.092a4.021,4.021,0,0,1,2.9-3.855c-.072,2.271-.1,4.55-.072,6.8q-.282.332-.539.674a4.008,4.008,0,0,1-2.284-3.622ZM81.257,78.338V70.975a17.792,17.792,0,0,0,1.722-1.485,1.182,1.182,0,0,0-1.672-1.672c-.945.945-4.105,3.549-6.166,3.136l-.068-.012c-7.089-.995-6.959-12.1-6.864-20.217,0-.279.006-.552.009-.822l5.76,2.125c-.14.912-.329,2.355-.41,3.921-.194,3.751.318,6.18,1.564,7.427A1.182,1.182,0,1,0,76.8,61.705c-.27-.27-.814-1.118-.9-3.6a14.557,14.557,0,0,0,3.11,1.467L86.262,67.2a1.182,1.182,0,0,0,1.7.017l4.887-4.945V78.338ZM100.922,64.69l-4.084-4.133q4.131-.049,8.24-.242Zm18.745-23.976q-.257-.343-.541-.676c.024-2.264,0-4.543-.073-6.8a4.014,4.014,0,0,1,.613,7.477Z" transform="translate(0 0)"/></g></g></g></svg>