<svg xmlns="http://www.w3.org/2000/svg" xmlns:xlink="http://www.w3.org/1999/xlink" width="151" height="151" viewBox="0 0 151 151"><defs><linearGradient id="a" x1="0.053" y1="0.047" x2="0.962" y2="0.97" gradientUnits="objectBoundingBox"><stop offset="0" stop-color="#43efd4"/><stop offset="0.798" stop-color="#006cff"/><stop offset="1" stop-color="#006cff"/></linearGradient></defs><g transform="translate(6716 8590)"><rect width="151" height="151" rx="12" transform="translate(-6716 -8590)" fill="url(#a)"/><g transform="translate(-6751.57 -8535.849)"><g transform="translate(73.638 -45.368)"><path d="M185.617,434.448S174.15,416.479,161.1,416.479s-24.517,17.969-24.517,17.969Z" transform="translate(-123.66 -321.657)" fill="#a7fff1"/><path d="M139.267,486c-1.706,2.166-2.683,3.7-2.683,3.7h49.034s-.977-1.53-2.683-3.7Z" transform="translate(-123.661 -376.904)" fill="#69d6f4"/><path d="M187.335,294.452c-4.579-4.147-13.093-3.161-13.093-3.161s-1.089,7.711,3.49,11.858,13.093,3.161,13.093,3.161,1.089-7.711-3.49-11.858Z" transform="translate(-153.497 -222.09)" fill="#af58fa"/><path d="M272.7,291.29s-8.514-.987-13.093,3.161-3.49,11.858-3.49,11.858,8.514.987,13.093-3.161S272.7,291.29,272.7,291.29Z" transform="translate(-218.559 -222.089)" fill="#af58fa"/><path d="M177.731,300.635c-2.44-2.21-3.27-5.432-3.514-7.96-.133,1.24-.627,7.9,3.514,11.655,4.579,4.147,13.093,3.161,13.093,3.161a18.261,18.261,0,0,0,.042-3.688C190.039,303.885,182.07,304.564,177.731,300.635Z" transform="translate(-153.496 -223.271)" fill="#e4c4ff"/><path d="M269.211,300.635c-4.338,3.929-12.308,3.25-13.135,3.168a18.264,18.264,0,0,0,.042,3.688s8.514.987,13.093-3.161c4.141-3.751,3.646-10.415,3.514-11.655C272.481,295.2,271.651,298.424,269.211,300.635Z" transform="translate(-218.564 -223.271)" fill="#e4c4ff"/><ellipse cx="26.473" cy="26.473" rx="26.473" ry="26.473" transform="translate(0 37.432) rotate(-45)" fill="#a7fff1"/><path d="M153.533,152.564a26.473,26.473,0,0,1-26.408-24.625c-.042.611-.065,1.227-.065,1.848a26.473,26.473,0,1,0,52.945,0c0-.621-.023-1.237-.065-1.848A26.473,26.473,0,0,1,153.533,152.564Z" transform="translate(-116.092 -92.357)" fill="#43efd4"/><circle cx="18.719" cy="18.719" r="18.719" transform="translate(10.964 37.432) rotate(-45)" fill="#43efd4"/><path d="M183.545,144.81a18.721,18.721,0,0,1-18.628-16.871q-.089.912-.091,1.848a18.719,18.719,0,0,0,37.438,0q0-.935-.091-1.848A18.721,18.721,0,0,1,183.545,144.81Z" transform="translate(-146.104 -92.357)" fill="#a7fff1"/></g><g transform="translate(83.012 -36.053)"><path d="M161.268,48.493a1.543,1.543,0,0,0-2.065.7,20.1,20.1,0,0,0-2.071,8.941,20.3,20.3,0,1,0,5.945-14.353,1.543,1.543,0,0,0,2.182,2.182,17.163,17.163,0,1,1-3.287,4.591A1.543,1.543,0,0,0,161.268,48.493Z" transform="translate(-149.363 -30.071)"/><path d="M228.848,93.435c-2.591-.158-3.173-1.815-3.231-2h0a1.542,1.542,0,1,0-2.966.837,6.117,6.117,0,0,0,4.87,4.1v2.053a1.543,1.543,0,1,0,3.086,0V96.417a5.9,5.9,0,0,0,3.089-1.486,6.112,6.112,0,0,0,1.843-4.392c0-1.563-.613-5.267-6.293-5.894a3.382,3.382,0,0,1-2.386-1.064,2.153,2.153,0,0,1-.448-1.3,2.532,2.532,0,0,1,2.651-2.651,2.74,2.74,0,0,1,2.5,1.312,1.542,1.542,0,1,0,2.8-1.282l0,0a5.667,5.667,0,0,0-3.768-2.933V74.652a1.543,1.543,0,1,0-3.086,0v2.064a5.626,5.626,0,0,0-4.194,5.563c0,2.222,1.462,4.978,5.581,5.433,3.546.391,3.546,2.224,3.546,2.827a3.037,3.037,0,0,1-.872,2.144,3.531,3.531,0,0,1-2.73.752Z" transform="translate(-201.368 -58.099)"/><path d="M165.637,93.483c-5.73-5.723-11.351-8.871-16.733-9.379V76.585c.25.007.523.012.818.012,3.085,0,8.418-.511,11.906-3.672,5.136-4.651,4.038-12.892,3.989-13.241a1.543,1.543,0,0,0-1.35-1.317c-.377-.044-9.283-1.016-14.332,3.556a10.584,10.584,0,0,0-1.031,1.082V56.09a28.115,28.115,0,0,0,16.28-6.339,1.543,1.543,0,1,0-1.961-2.382,25.021,25.021,0,0,1-15.648,5.678,1.386,1.386,0,0,0-.426,0,24.981,24.981,0,1,1,25.193-24.979,24.756,24.756,0,0,1-5.087,15.112,1.543,1.543,0,1,0,2.456,1.868,27.815,27.815,0,0,0,5.717-16.98,28.067,28.067,0,1,0-29.61,28.025v6.915a10.629,10.629,0,0,0-1.031-1.082c-5.049-4.573-13.955-3.6-14.332-3.556a1.543,1.543,0,0,0-1.35,1.317c-.049.349-1.147,8.59,3.989,13.241,3.489,3.16,8.821,3.672,11.906,3.672.3,0,.568,0,.818-.012v7.522c-3.965.379-8.1,2.209-12.307,5.458a1.543,1.543,0,1,0,1.885,2.443c4.206-3.246,8.232-4.893,11.963-4.893,9.308,0,18.029,10.18,21.584,14.918H125.772a60.119,60.119,0,0,1,5.18-6.052,1.543,1.543,0,1,0-2.2-2.164,60.7,60.7,0,0,0-7.257,8.929,1.543,1.543,0,0,0,1.3,2.373h49.13a1.543,1.543,0,0,0,1.3-2.373,60.764,60.764,0,0,0-7.589-9.263Zm-13.63-29.272c3.032-2.746,8.25-2.932,10.642-2.855.066,2.166-.186,6.652-3.091,9.283-3.032,2.746-8.251,2.932-10.642,2.855C148.849,71.329,149.1,66.842,152.007,64.211Zm-6.2,9.283c-2.392.076-7.61-.11-10.642-2.855-2.905-2.631-3.158-7.119-3.091-9.283,2.393-.076,7.61.11,10.642,2.855C145.621,66.843,145.873,71.33,145.807,73.494Z" transform="translate(-119.294 0)"/></g></g></g></svg>