<svg xmlns="http://www.w3.org/2000/svg" width="762.001" height="358.797" viewBox="0 0 762.001 358.797"><g transform="translate(-397.413 -873.203)"><path d="M5.2-5.023a4.839,4.839,0,0,1-.242,1.68A3.263,3.263,0,0,1,4.1-2.125a9.118,9.118,0,0,0-.844.859,2.24,2.24,0,0,0-.336.57A1.72,1.72,0,0,0,2.8-.062a1.074,1.074,0,0,0,1.2,1.227A1.3,1.3,0,0,0,4.965.813a1.373,1.373,0,0,0,.371-.984H7.594a3.012,3.012,0,0,1-.961,2.34,3.755,3.755,0,0,1-2.586.84,3.844,3.844,0,0,1-2.586-.793A2.821,2.821,0,0,1,.539-.047a3.481,3.481,0,0,1,1.2-2.437l.758-.727a2,2,0,0,0,.543-.734A3.217,3.217,0,0,0,3.2-5.023Zm.281-2.391a1.124,1.124,0,0,1-.359.859,1.275,1.275,0,0,1-.906.336,1.275,1.275,0,0,1-.906-.336,1.124,1.124,0,0,1-.359-.859A1.143,1.143,0,0,1,3.3-8.273a1.265,1.265,0,0,1,.918-.336,1.265,1.265,0,0,1,.918.336A1.143,1.143,0,0,1,5.484-7.414ZM15.3-4.008V0H12.961V-11.375H17.4a5.134,5.134,0,0,1,2.254.469,3.454,3.454,0,0,1,1.5,1.332,3.714,3.714,0,0,1,.523,1.965,3.266,3.266,0,0,1-1.145,2.637,4.767,4.767,0,0,1-3.168.965Zm0-1.9H17.4a2.059,2.059,0,0,0,1.418-.437,1.591,1.591,0,0,0,.488-1.25,1.876,1.876,0,0,0-.492-1.352,1.839,1.839,0,0,0-1.359-.531H15.3ZM22.68-4.3a5.013,5.013,0,0,1,.484-2.242A3.546,3.546,0,0,1,24.559-8.07a4.069,4.069,0,0,1,2.113-.539,3.849,3.849,0,0,1,2.793,1.047,4.2,4.2,0,0,1,1.207,2.844l.016.578A4.418,4.418,0,0,1,29.6-1.02,3.775,3.775,0,0,1,26.688.156,3.793,3.793,0,0,1,23.77-1.016,4.5,4.5,0,0,1,22.68-4.2Zm2.258.164a3.151,3.151,0,0,0,.453,1.84,1.5,1.5,0,0,0,1.3.637,1.5,1.5,0,0,0,1.281-.629A3.448,3.448,0,0,0,28.43-4.3a3.12,3.12,0,0,0-.461-1.828,1.5,1.5,0,0,0-1.3-.648,1.475,1.475,0,0,0-1.281.645A3.506,3.506,0,0,0,24.938-4.141Zm11.891-2.2a6.134,6.134,0,0,0-.812-.062,1.654,1.654,0,0,0-1.68.867V0H32.078V-8.453h2.133l.063,1.008a2.092,2.092,0,0,1,1.883-1.164,2.366,2.366,0,0,1,.7.1ZM41.547-4.3a5.053,5.053,0,0,1,.887-3.148,2.9,2.9,0,0,1,2.434-1.156A2.6,2.6,0,0,1,47.031-7.57l.148-.883h1.984V3.25H46.9V-.727a2.6,2.6,0,0,1-2.047.883,2.878,2.878,0,0,1-2.406-1.172A5.3,5.3,0,0,1,41.547-4.3Zm2.258.164A3.305,3.305,0,0,0,44.23-2.3a1.364,1.364,0,0,0,1.2.633A1.519,1.519,0,0,0,46.9-2.492V-5.984a1.506,1.506,0,0,0-1.453-.8,1.38,1.38,0,0,0-1.211.633A3.651,3.651,0,0,0,43.8-4.141ZM56-.859A2.831,2.831,0,0,1,53.688.156a2.67,2.67,0,0,1-2.074-.781,3.335,3.335,0,0,1-.73-2.289V-8.453h2.258v5.461q0,1.32,1.2,1.32a1.631,1.631,0,0,0,1.578-.8V-8.453h2.266V0H56.063ZM63.781.156A4.15,4.15,0,0,1,60.754-.984a4.054,4.054,0,0,1-1.168-3.039v-.219a5.106,5.106,0,0,1,.492-2.277,3.612,3.612,0,0,1,1.395-1.547,3.914,3.914,0,0,1,2.059-.543,3.508,3.508,0,0,1,2.73,1.094,4.444,4.444,0,0,1,1,3.1v.922H61.875a2.1,2.1,0,0,0,.66,1.328,2,2,0,0,0,1.395.5,2.437,2.437,0,0,0,2.039-.945l1.109,1.242A3.389,3.389,0,0,1,65.7-.246,4.511,4.511,0,0,1,63.781.156Zm-.258-6.937a1.414,1.414,0,0,0-1.09.453,2.341,2.341,0,0,0-.535,1.3h3.141v-.18a1.669,1.669,0,0,0-.406-1.16A1.459,1.459,0,0,0,63.523-6.781Zm.2-5.219h2.461L64.023-9.578H62.188ZM74.367-3.492a4.691,4.691,0,0,1,.266-1.742,3.575,3.575,0,0,1,.973-1.277,4.975,4.975,0,0,0,.941-1.023,1.6,1.6,0,0,0,.234-.832q0-1.32-1.219-1.32a1.236,1.236,0,0,0-.926.355,1.4,1.4,0,0,0-.363.98H72.008a3.009,3.009,0,0,1,.965-2.336,3.759,3.759,0,0,1,2.59-.844,3.775,3.775,0,0,1,2.57.8,2.847,2.847,0,0,1,.914,2.262,2.751,2.751,0,0,1-.3,1.254,5.166,5.166,0,0,1-1.039,1.309l-.633.6a2.143,2.143,0,0,0-.68,1.336l-.031.477Zm-.227,2.4a1.143,1.143,0,0,1,.355-.863,1.263,1.263,0,0,1,.91-.34,1.263,1.263,0,0,1,.91.34,1.143,1.143,0,0,1,.355.863,1.134,1.134,0,0,1-.348.852,1.265,1.265,0,0,1-.918.336,1.265,1.265,0,0,1-.918-.336A1.134,1.134,0,0,1,74.141-1.094Z" transform="translate(640.413 1059)" fill="#12263f"/><path d="M5.2-5.023a4.839,4.839,0,0,1-.242,1.68A3.263,3.263,0,0,1,4.1-2.125a9.118,9.118,0,0,0-.844.859,2.24,2.24,0,0,0-.336.57A1.72,1.72,0,0,0,2.8-.062a1.074,1.074,0,0,0,1.2,1.227A1.3,1.3,0,0,0,4.965.813a1.373,1.373,0,0,0,.371-.984H7.594a3.012,3.012,0,0,1-.961,2.34,3.755,3.755,0,0,1-2.586.84,3.844,3.844,0,0,1-2.586-.793A2.821,2.821,0,0,1,.539-.047a3.481,3.481,0,0,1,1.2-2.437l.758-.727a2,2,0,0,0,.543-.734A3.217,3.217,0,0,0,3.2-5.023Zm.281-2.391a1.124,1.124,0,0,1-.359.859,1.275,1.275,0,0,1-.906.336,1.275,1.275,0,0,1-.906-.336,1.124,1.124,0,0,1-.359-.859A1.143,1.143,0,0,1,3.3-8.273a1.265,1.265,0,0,1,.918-.336,1.265,1.265,0,0,1,.918.336A1.143,1.143,0,0,1,5.484-7.414ZM15.3-4.008V0H12.961V-11.375H17.4a5.134,5.134,0,0,1,2.254.469,3.454,3.454,0,0,1,1.5,1.332,3.714,3.714,0,0,1,.523,1.965,3.266,3.266,0,0,1-1.145,2.637,4.767,4.767,0,0,1-3.168.965Zm0-1.9H17.4a2.059,2.059,0,0,0,1.418-.437,1.591,1.591,0,0,0,.488-1.25,1.876,1.876,0,0,0-.492-1.352,1.839,1.839,0,0,0-1.359-.531H15.3ZM27.945,0a2.507,2.507,0,0,1-.227-.758,2.732,2.732,0,0,1-2.133.914,3,3,0,0,1-2.059-.719,2.312,2.312,0,0,1-.816-1.812,2.389,2.389,0,0,1,1-2.062,4.915,4.915,0,0,1,2.879-.727h1.039v-.484a1.393,1.393,0,0,0-.3-.937,1.183,1.183,0,0,0-.949-.352,1.345,1.345,0,0,0-.895.273.929.929,0,0,0-.324.75H22.9a2.268,2.268,0,0,1,.453-1.359,3,3,0,0,1,1.281-.98,4.669,4.669,0,0,1,1.859-.355,3.689,3.689,0,0,1,2.48.785,2.747,2.747,0,0,1,.918,2.207v3.664a4.041,4.041,0,0,0,.336,1.82V0ZM26.078-1.57A1.945,1.945,0,0,0,27-1.793a1.462,1.462,0,0,0,.625-.6V-3.844h-.844q-1.7,0-1.8,1.172l-.008.133a.9.9,0,0,0,.3.7A1.153,1.153,0,0,0,26.078-1.57Zm10.3-4.766a6.134,6.134,0,0,0-.812-.062,1.654,1.654,0,0,0-1.68.867V0H31.625V-8.453h2.133l.063,1.008A2.092,2.092,0,0,1,35.7-8.609a2.366,2.366,0,0,1,.7.1ZM42.125,0A2.507,2.507,0,0,1,41.9-.758a2.732,2.732,0,0,1-2.133.914,3,3,0,0,1-2.059-.719,2.312,2.312,0,0,1-.816-1.812,2.389,2.389,0,0,1,1-2.062,4.915,4.915,0,0,1,2.879-.727H41.8v-.484a1.393,1.393,0,0,0-.3-.937,1.183,1.183,0,0,0-.949-.352,1.345,1.345,0,0,0-.895.273.929.929,0,0,0-.324.75H37.078a2.268,2.268,0,0,1,.453-1.359,3,3,0,0,1,1.281-.98,4.669,4.669,0,0,1,1.859-.355,3.689,3.689,0,0,1,2.48.785,2.747,2.747,0,0,1,.918,2.207v3.664a4.041,4.041,0,0,0,.336,1.82V0ZM40.258-1.57a1.945,1.945,0,0,0,.922-.223,1.462,1.462,0,0,0,.625-.6V-3.844h-.844q-1.7,0-1.8,1.172l-.008.133a.9.9,0,0,0,.3.7A1.153,1.153,0,0,0,40.258-1.57ZM49.438-4.3a5.053,5.053,0,0,1,.887-3.148,2.9,2.9,0,0,1,2.434-1.156A2.6,2.6,0,0,1,54.922-7.57l.148-.883h1.984V3.25H54.789V-.727a2.6,2.6,0,0,1-2.047.883,2.878,2.878,0,0,1-2.406-1.172A5.3,5.3,0,0,1,49.438-4.3Zm2.258.164A3.305,3.305,0,0,0,52.121-2.3a1.364,1.364,0,0,0,1.2.633,1.519,1.519,0,0,0,1.469-.828V-5.984a1.506,1.506,0,0,0-1.453-.8,1.38,1.38,0,0,0-1.211.633A3.651,3.651,0,0,0,51.7-4.141Zm12.2,3.281A2.831,2.831,0,0,1,61.578.156,2.67,2.67,0,0,1,59.5-.625a3.335,3.335,0,0,1-.73-2.289V-8.453h2.258v5.461q0,1.32,1.2,1.32a1.631,1.631,0,0,0,1.578-.8V-8.453h2.266V0H63.953ZM71.672.156A4.15,4.15,0,0,1,68.645-.984a4.054,4.054,0,0,1-1.168-3.039v-.219a5.106,5.106,0,0,1,.492-2.277,3.612,3.612,0,0,1,1.395-1.547,3.914,3.914,0,0,1,2.059-.543,3.508,3.508,0,0,1,2.73,1.094,4.444,4.444,0,0,1,1,3.1v.922H69.766a2.1,2.1,0,0,0,.66,1.328,2,2,0,0,0,1.395.5,2.437,2.437,0,0,0,2.039-.945l1.109,1.242A3.389,3.389,0,0,1,73.594-.246,4.511,4.511,0,0,1,71.672.156Zm-.258-6.937a1.414,1.414,0,0,0-1.09.453,2.341,2.341,0,0,0-.535,1.3H72.93v-.18a1.669,1.669,0,0,0-.406-1.16A1.459,1.459,0,0,0,71.414-6.781Zm.2-5.219h2.461L71.914-9.578H70.078ZM82.258-3.492a4.691,4.691,0,0,1,.266-1.742A3.575,3.575,0,0,1,83.5-6.512a4.975,4.975,0,0,0,.941-1.023,1.6,1.6,0,0,0,.234-.832q0-1.32-1.219-1.32a1.236,1.236,0,0,0-.926.355,1.4,1.4,0,0,0-.363.98H79.9a3.009,3.009,0,0,1,.965-2.336,3.759,3.759,0,0,1,2.59-.844,3.775,3.775,0,0,1,2.57.8,2.847,2.847,0,0,1,.914,2.262,2.751,2.751,0,0,1-.3,1.254A5.166,5.166,0,0,1,85.6-5.906l-.633.6a2.143,2.143,0,0,0-.68,1.336l-.031.477Zm-.227,2.4a1.143,1.143,0,0,1,.355-.863,1.263,1.263,0,0,1,.91-.34,1.263,1.263,0,0,1,.91.34,1.143,1.143,0,0,1,.355.863,1.134,1.134,0,0,1-.348.852A1.265,1.265,0,0,1,83.3.094a1.265,1.265,0,0,1-.918-.336A1.134,1.134,0,0,1,82.031-1.094Z" transform="translate(640.413 1080)" fill="#12263f"/><path d="M7.438-2.344H3.328L2.547,0H.055L4.289-11.375H6.461L10.719,0H8.227Zm-3.477-1.9H6.8L5.375-8.5Zm9.375-4.211.07.977a2.951,2.951,0,0,1,2.43-1.133,2.453,2.453,0,0,1,2,.789,3.682,3.682,0,0,1,.672,2.359V0H16.25V-5.406a1.465,1.465,0,0,0-.312-1.043A1.4,1.4,0,0,0,14.9-6.773a1.553,1.553,0,0,0-1.43.813V0H11.211V-8.453ZM25.117,0a2.507,2.507,0,0,1-.227-.758,2.732,2.732,0,0,1-2.133.914A3,3,0,0,1,20.7-.562a2.312,2.312,0,0,1-.816-1.812,2.389,2.389,0,0,1,1-2.062,4.915,4.915,0,0,1,2.879-.727H24.8v-.484a1.393,1.393,0,0,0-.3-.937,1.183,1.183,0,0,0-.949-.352,1.345,1.345,0,0,0-.895.273.929.929,0,0,0-.324.75H20.07a2.268,2.268,0,0,1,.453-1.359,3,3,0,0,1,1.281-.98,4.669,4.669,0,0,1,1.859-.355,3.689,3.689,0,0,1,2.48.785,2.747,2.747,0,0,1,.918,2.207v3.664A4.041,4.041,0,0,0,27.4-.133V0ZM23.25-1.57a1.945,1.945,0,0,0,.922-.223,1.462,1.462,0,0,0,.625-.6V-3.844h-.844q-1.7,0-1.8,1.172l-.008.133a.9.9,0,0,0,.3.7A1.153,1.153,0,0,0,23.25-1.57ZM24.109-12H26.57L24.406-9.578H22.57ZM31.18,0H28.914V-12H31.18Zm4.242,0H33.156V-8.453h2.266Zm-2.4-10.641a1.112,1.112,0,0,1,.34-.836,1.277,1.277,0,0,1,.926-.328,1.28,1.28,0,0,1,.922.328,1.105,1.105,0,0,1,.344.836,1.108,1.108,0,0,1-.348.844,1.283,1.283,0,0,1-.918.328,1.283,1.283,0,0,1-.918-.328A1.108,1.108,0,0,1,33.023-10.641Zm8.836,8.3a.727.727,0,0,0-.41-.652,4.659,4.659,0,0,0-1.316-.426q-3.016-.633-3.016-2.562a2.323,2.323,0,0,1,.934-1.879,3.766,3.766,0,0,1,2.441-.754,4.053,4.053,0,0,1,2.574.758,2.388,2.388,0,0,1,.965,1.969H41.773a1.092,1.092,0,0,0-.312-.8A1.322,1.322,0,0,0,40.484-7a1.351,1.351,0,0,0-.883.258.814.814,0,0,0-.312.656.7.7,0,0,0,.355.605,3.657,3.657,0,0,0,1.2.4,9.8,9.8,0,0,1,1.422.379A2.336,2.336,0,0,1,44.055-2.43a2.2,2.2,0,0,1-.992,1.871A4.28,4.28,0,0,1,40.5.156a4.47,4.47,0,0,1-1.887-.379A3.166,3.166,0,0,1,37.32-1.262a2.414,2.414,0,0,1-.469-1.426h2.141a1.179,1.179,0,0,0,.445.922,1.766,1.766,0,0,0,1.109.32,1.635,1.635,0,0,0,.98-.246A.766.766,0,0,0,41.859-2.336ZM47.891,0H45.625V-8.453h2.266Zm-2.4-10.641a1.112,1.112,0,0,1,.34-.836,1.277,1.277,0,0,1,.926-.328,1.28,1.28,0,0,1,.922.328,1.105,1.105,0,0,1,.344.836,1.108,1.108,0,0,1-.348.844,1.283,1.283,0,0,1-.918.328A1.283,1.283,0,0,1,45.84-9.8,1.108,1.108,0,0,1,45.492-10.641Zm8.836,8.3a.727.727,0,0,0-.41-.652A4.659,4.659,0,0,0,52.6-3.414q-3.016-.633-3.016-2.562a2.323,2.323,0,0,1,.934-1.879,3.766,3.766,0,0,1,2.441-.754,4.053,4.053,0,0,1,2.574.758A2.388,2.388,0,0,1,56.5-5.883H54.242a1.092,1.092,0,0,0-.312-.8A1.322,1.322,0,0,0,52.953-7a1.351,1.351,0,0,0-.883.258.814.814,0,0,0-.312.656.7.7,0,0,0,.355.605,3.657,3.657,0,0,0,1.2.4,9.8,9.8,0,0,1,1.422.379A2.336,2.336,0,0,1,56.523-2.43a2.2,2.2,0,0,1-.992,1.871,4.28,4.28,0,0,1-2.562.715,4.47,4.47,0,0,1-1.887-.379,3.166,3.166,0,0,1-1.293-1.039,2.414,2.414,0,0,1-.469-1.426h2.141a1.179,1.179,0,0,0,.445.922,1.766,1.766,0,0,0,1.109.32A1.635,1.635,0,0,0,54-1.691.766.766,0,0,0,54.328-2.336ZM68.953-4.93h-4.5v3.047h5.281V0H62.109V-11.375h7.609v1.9H64.453v2.711h4.5Zm6.586,2.594a.727.727,0,0,0-.41-.652,4.659,4.659,0,0,0-1.316-.426Q70.8-4.047,70.8-5.977a2.323,2.323,0,0,1,.934-1.879,3.766,3.766,0,0,1,2.441-.754,4.053,4.053,0,0,1,2.574.758,2.388,2.388,0,0,1,.965,1.969H75.453a1.092,1.092,0,0,0-.312-.8A1.322,1.322,0,0,0,74.164-7a1.351,1.351,0,0,0-.883.258.814.814,0,0,0-.312.656.7.7,0,0,0,.355.605,3.657,3.657,0,0,0,1.2.4,9.8,9.8,0,0,1,1.422.379A2.336,2.336,0,0,1,77.734-2.43a2.2,2.2,0,0,1-.992,1.871A4.28,4.28,0,0,1,74.18.156a4.47,4.47,0,0,1-1.887-.379A3.166,3.166,0,0,1,71-1.262a2.414,2.414,0,0,1-.469-1.426h2.141a1.179,1.179,0,0,0,.445.922,1.766,1.766,0,0,0,1.109.32,1.635,1.635,0,0,0,.98-.246A.766.766,0,0,0,75.539-2.336Zm6.352-8.2v2.078h1.445V-6.8H81.891v4.219a1.007,1.007,0,0,0,.18.672.9.9,0,0,0,.688.2,3.6,3.6,0,0,0,.664-.055V-.047a4.648,4.648,0,0,1-1.367.2,2.156,2.156,0,0,1-2.422-2.4V-6.8H78.4V-8.453h1.234v-2.078Zm7.453,4.2a6.134,6.134,0,0,0-.812-.062,1.654,1.654,0,0,0-1.68.867V0H84.594V-8.453h2.133l.063,1.008a2.092,2.092,0,0,1,1.883-1.164,2.366,2.366,0,0,1,.7.1ZM95.094,0a2.507,2.507,0,0,1-.227-.758,2.732,2.732,0,0,1-2.133.914,3,3,0,0,1-2.059-.719,2.312,2.312,0,0,1-.816-1.812,2.389,2.389,0,0,1,1-2.062,4.915,4.915,0,0,1,2.879-.727h1.039v-.484a1.393,1.393,0,0,0-.3-.937,1.183,1.183,0,0,0-.949-.352,1.345,1.345,0,0,0-.895.273.929.929,0,0,0-.324.75H90.047A2.268,2.268,0,0,1,90.5-7.273a3,3,0,0,1,1.281-.98,4.669,4.669,0,0,1,1.859-.355,3.689,3.689,0,0,1,2.48.785,2.747,2.747,0,0,1,.918,2.207v3.664a4.041,4.041,0,0,0,.336,1.82V0ZM93.227-1.57a1.945,1.945,0,0,0,.922-.223,1.462,1.462,0,0,0,.625-.6V-3.844H93.93q-1.7,0-1.8,1.172l-.008.133a.9.9,0,0,0,.3.7A1.153,1.153,0,0,0,93.227-1.57Zm8.25-8.961v2.078h1.445V-6.8h-1.445v4.219a1.007,1.007,0,0,0,.18.672.9.9,0,0,0,.688.2,3.6,3.6,0,0,0,.664-.055V-.047a4.648,4.648,0,0,1-1.367.2,2.156,2.156,0,0,1-2.422-2.4V-6.8H97.984V-8.453h1.234v-2.078ZM108.07.156a4.15,4.15,0,0,1-3.027-1.141,4.054,4.054,0,0,1-1.168-3.039v-.219a5.106,5.106,0,0,1,.492-2.277,3.612,3.612,0,0,1,1.395-1.547,3.914,3.914,0,0,1,2.059-.543,3.508,3.508,0,0,1,2.73,1.094,4.444,4.444,0,0,1,1,3.1v.922h-5.383a2.1,2.1,0,0,0,.66,1.328,2,2,0,0,0,1.395.5,2.437,2.437,0,0,0,2.039-.945l1.109,1.242a3.389,3.389,0,0,1-1.375,1.121A4.511,4.511,0,0,1,108.07.156Zm-.258-6.937a1.414,1.414,0,0,0-1.09.453,2.341,2.341,0,0,0-.535,1.3h3.141v-.18a1.669,1.669,0,0,0-.406-1.16A1.459,1.459,0,0,0,107.813-6.781Zm.2-5.219h2.461l-2.164,2.422h-1.836ZM112.5-4.289a4.954,4.954,0,0,1,.926-3.133,3,3,0,0,1,2.5-1.187,2.631,2.631,0,0,1,2.164.953l.094-.8h2.047V-.281a3.613,3.613,0,0,1-.5,1.93A3.236,3.236,0,0,1,118.3,2.9a4.985,4.985,0,0,1-2.141.43,4.635,4.635,0,0,1-1.812-.371A3.217,3.217,0,0,1,113.016,2l1-1.375a2.645,2.645,0,0,0,2.047.945,1.936,1.936,0,0,0,1.4-.48,1.8,1.8,0,0,0,.5-1.363V-.727a2.612,2.612,0,0,1-2.055.883,2.992,2.992,0,0,1-2.465-1.191A4.953,4.953,0,0,1,112.5-4.2Zm2.258.164a3.076,3.076,0,0,0,.461,1.8,1.467,1.467,0,0,0,1.266.652,1.568,1.568,0,0,0,1.477-.773V-6a1.565,1.565,0,0,0-1.461-.773,1.476,1.476,0,0,0-1.277.664A3.467,3.467,0,0,0,114.758-4.125ZM124.344,0h-2.266V-8.453h2.266Zm-2.4-10.641a1.112,1.112,0,0,1,.34-.836,1.277,1.277,0,0,1,.926-.328,1.28,1.28,0,0,1,.922.328,1.105,1.105,0,0,1,.344.836,1.108,1.108,0,0,1-.348.844,1.283,1.283,0,0,1-.918.328,1.283,1.283,0,0,1-.918-.328A1.108,1.108,0,0,1,121.945-10.641Zm7.773,8.977a1.481,1.481,0,0,0,1.016-.344,1.2,1.2,0,0,0,.406-.914h2.117a2.9,2.9,0,0,1-.469,1.574,3.093,3.093,0,0,1-1.262,1.109,3.949,3.949,0,0,1-1.77.395A3.67,3.67,0,0,1,126.9-1a4.56,4.56,0,0,1-1.047-3.184v-.148a4.508,4.508,0,0,1,1.039-3.117,3.627,3.627,0,0,1,2.852-1.164,3.555,3.555,0,0,1,2.543.9,3.2,3.2,0,0,1,.973,2.4h-2.117a1.539,1.539,0,0,0-.406-1.066,1.358,1.358,0,0,0-1.031-.41,1.361,1.361,0,0,0-1.191.574,3.324,3.324,0,0,0-.4,1.863v.234a3.366,3.366,0,0,0,.4,1.875A1.378,1.378,0,0,0,129.719-1.664ZM134.2-4.3a5.013,5.013,0,0,1,.484-2.242,3.546,3.546,0,0,1,1.395-1.523,4.069,4.069,0,0,1,2.113-.539,3.849,3.849,0,0,1,2.793,1.047,4.2,4.2,0,0,1,1.207,2.844l.016.578a4.418,4.418,0,0,1-1.086,3.121A3.775,3.775,0,0,1,138.2.156a3.793,3.793,0,0,1-2.918-1.172A4.5,4.5,0,0,1,134.2-4.2Zm2.258.164a3.151,3.151,0,0,0,.453,1.84,1.5,1.5,0,0,0,1.3.637,1.5,1.5,0,0,0,1.281-.629,3.448,3.448,0,0,0,.461-2.012,3.12,3.12,0,0,0-.461-1.828,1.5,1.5,0,0,0-1.3-.648,1.475,1.475,0,0,0-1.281.645A3.506,3.506,0,0,0,136.453-4.141Z" transform="translate(612.913 885.203)" fill="#12263f"/><g transform="translate(338.38 720.448)"><path d="M272.372,214.56A244.043,244.043,0,0,0,210.79,223.1a226.527,226.527,0,0,0-57.027,24.242c-17.684,10.682-33.9,23.953-46.916,39.885a132.932,132.932,0,0,0-16.705,25.729,105.565,105.565,0,0,0-9.5,28.9,87.918,87.918,0,0,0,.055,30.154,91.543,91.543,0,0,0,10.172,28.315,103.822,103.822,0,0,0,8.3,12.661,118.615,118.615,0,0,0,9.91,11.506,140.947,140.947,0,0,0,11.177,10.35c1.919,1.669,3.967,3.192,5.955,4.779l3.077,2.271c1.021.761,2.052,1.511,3.112,2.222,16.751,11.687,35.316,20.739,54.453,28.167a438.032,438.032,0,0,0,59.074,17.846c40.2,9.313,81.376,14.279,122.629,17.078,41.287,2.7,82.737,3.131,124.147,2,41.415-1.119,82.8-3.779,124.091-7.505,41.3-3.7,82.5-8.55,123.6-14.14L742.9,507.4c-41.474,4.8-83.044,8.849-124.715,11.744-41.666,2.919-83.428,4.766-125.231,5.058-41.8.307-83.647-.967-125.357-4.532-41.68-3.669-83.306-9.526-124.035-19.824A447.263,447.263,0,0,1,183.6,480.408c-19.464-8.01-38.4-17.7-55.567-30.189-1.084-.761-2.141-1.562-3.19-2.376l-3.153-2.427c-2.045-1.7-4.139-3.326-6.114-5.11a148.273,148.273,0,0,1-11.491-11.078,125.488,125.488,0,0,1-10.2-12.333A110.336,110.336,0,0,1,85.368,403.3a97.524,97.524,0,0,1-10.225-30.37,93.228,93.228,0,0,1,.572-31.956,110.209,110.209,0,0,1,10.521-29.987,136.964,136.964,0,0,1,17.732-26.163c13.67-16.053,30.418-29.184,48.526-39.636a228.4,228.4,0,0,1,57.978-23.3A244.723,244.723,0,0,1,272.372,214.56Z" transform="translate(-3 -54)" fill="#a7fff1"/></g><circle cx="28.5" cy="28.5" r="28.5" transform="translate(470.413 881)" fill="#af58fa"/><path d="M5.2-5.023a4.839,4.839,0,0,1-.242,1.68A3.263,3.263,0,0,1,4.1-2.125a9.118,9.118,0,0,0-.844.859,2.24,2.24,0,0,0-.336.57A1.72,1.72,0,0,0,2.8-.062a1.074,1.074,0,0,0,1.2,1.227A1.3,1.3,0,0,0,4.965.813a1.373,1.373,0,0,0,.371-.984H7.594a3.012,3.012,0,0,1-.961,2.34,3.755,3.755,0,0,1-2.586.84,3.844,3.844,0,0,1-2.586-.793A2.821,2.821,0,0,1,.539-.047a3.481,3.481,0,0,1,1.2-2.437l.758-.727a2,2,0,0,0,.543-.734A3.217,3.217,0,0,0,3.2-5.023Zm.281-2.391a1.124,1.124,0,0,1-.359.859,1.275,1.275,0,0,1-.906.336,1.275,1.275,0,0,1-.906-.336,1.124,1.124,0,0,1-.359-.859A1.143,1.143,0,0,1,3.3-8.273a1.265,1.265,0,0,1,.918-.336,1.265,1.265,0,0,1,.918.336A1.143,1.143,0,0,1,5.484-7.414ZM18.3-5.43a6.853,6.853,0,0,1-.516,2.77,4.754,4.754,0,0,1-1.43,1.887L18.25.711l-1.492,1.32L14.336.086a5.126,5.126,0,0,1-.859.07,4.732,4.732,0,0,1-2.523-.68A4.515,4.515,0,0,1,9.234-2.465a6.67,6.67,0,0,1-.617-2.9V-5.93a6.831,6.831,0,0,1,.605-2.957,4.508,4.508,0,0,1,1.711-1.961,4.706,4.706,0,0,1,2.527-.684,4.706,4.706,0,0,1,2.527.684A4.508,4.508,0,0,1,17.7-8.887,6.811,6.811,0,0,1,18.3-5.937ZM15.93-5.945a4.787,4.787,0,0,0-.641-2.719,2.088,2.088,0,0,0-1.828-.93,2.088,2.088,0,0,0-1.82.918,4.732,4.732,0,0,0-.648,2.691v.555a4.847,4.847,0,0,0,.641,2.7,2.082,2.082,0,0,0,1.844.961,2.064,2.064,0,0,0,1.813-.926,4.819,4.819,0,0,0,.641-2.7ZM24.938-.859A2.831,2.831,0,0,1,22.625.156a2.67,2.67,0,0,1-2.074-.781,3.335,3.335,0,0,1-.73-2.289V-8.453h2.258v5.461q0,1.32,1.2,1.32a1.631,1.631,0,0,0,1.578-.8V-8.453h2.266V0H25ZM32.719.156A4.15,4.15,0,0,1,29.691-.984a4.054,4.054,0,0,1-1.168-3.039v-.219a5.106,5.106,0,0,1,.492-2.277A3.612,3.612,0,0,1,30.41-8.066a3.914,3.914,0,0,1,2.059-.543A3.508,3.508,0,0,1,35.2-7.516a4.444,4.444,0,0,1,1,3.1v.922H30.813a2.1,2.1,0,0,0,.66,1.328,2,2,0,0,0,1.395.5,2.437,2.437,0,0,0,2.039-.945l1.109,1.242A3.389,3.389,0,0,1,34.641-.246,4.511,4.511,0,0,1,32.719.156Zm-.258-6.937a1.414,1.414,0,0,0-1.09.453,2.341,2.341,0,0,0-.535,1.3h3.141v-.18a1.669,1.669,0,0,0-.406-1.16A1.459,1.459,0,0,0,32.461-6.781Zm.2-5.219h2.461L32.961-9.578H31.125ZM43.3-3.492a4.691,4.691,0,0,1,.266-1.742,3.574,3.574,0,0,1,.973-1.277,4.975,4.975,0,0,0,.941-1.023,1.6,1.6,0,0,0,.234-.832q0-1.32-1.219-1.32a1.236,1.236,0,0,0-.926.355,1.4,1.4,0,0,0-.363.98H40.945a3.009,3.009,0,0,1,.965-2.336,3.759,3.759,0,0,1,2.59-.844,3.775,3.775,0,0,1,2.57.8,2.847,2.847,0,0,1,.914,2.262,2.751,2.751,0,0,1-.3,1.254,5.166,5.166,0,0,1-1.039,1.309l-.633.6a2.143,2.143,0,0,0-.68,1.336l-.031.477Zm-.227,2.4a1.143,1.143,0,0,1,.355-.863,1.263,1.263,0,0,1,.91-.34,1.263,1.263,0,0,1,.91.34,1.143,1.143,0,0,1,.355.863,1.134,1.134,0,0,1-.348.852,1.265,1.265,0,0,1-.918.336,1.265,1.265,0,0,1-.918-.336A1.134,1.134,0,0,1,43.078-1.094Z" transform="translate(474.413 915)" fill="#fff"/><circle cx="33.5" cy="33.5" r="33.5" transform="translate(397.413 955)" fill="#af58fa"/><path d="M5.2-5.023a4.839,4.839,0,0,1-.242,1.68A3.263,3.263,0,0,1,4.1-2.125a9.118,9.118,0,0,0-.844.859,2.24,2.24,0,0,0-.336.57A1.72,1.72,0,0,0,2.8-.062a1.074,1.074,0,0,0,1.2,1.227A1.3,1.3,0,0,0,4.965.813a1.373,1.373,0,0,0,.371-.984H7.594a3.012,3.012,0,0,1-.961,2.34,3.755,3.755,0,0,1-2.586.84,3.844,3.844,0,0,1-2.586-.793A2.821,2.821,0,0,1,.539-.047a3.481,3.481,0,0,1,1.2-2.437l.758-.727a2,2,0,0,0,.543-.734A3.217,3.217,0,0,0,3.2-5.023Zm.281-2.391a1.124,1.124,0,0,1-.359.859,1.275,1.275,0,0,1-.906.336,1.275,1.275,0,0,1-.906-.336,1.124,1.124,0,0,1-.359-.859A1.143,1.143,0,0,1,3.3-8.273a1.265,1.265,0,0,1,.918-.336,1.265,1.265,0,0,1,.918.336A1.143,1.143,0,0,1,5.484-7.414ZM18.3-5.43a6.853,6.853,0,0,1-.516,2.77,4.754,4.754,0,0,1-1.43,1.887L18.25.711l-1.492,1.32L14.336.086a5.126,5.126,0,0,1-.859.07,4.732,4.732,0,0,1-2.523-.68A4.515,4.515,0,0,1,9.234-2.465a6.67,6.67,0,0,1-.617-2.9V-5.93a6.831,6.831,0,0,1,.605-2.957,4.508,4.508,0,0,1,1.711-1.961,4.706,4.706,0,0,1,2.527-.684,4.706,4.706,0,0,1,2.527.684A4.508,4.508,0,0,1,17.7-8.887,6.811,6.811,0,0,1,18.3-5.937ZM15.93-5.945a4.787,4.787,0,0,0-.641-2.719,2.088,2.088,0,0,0-1.828-.93,2.088,2.088,0,0,0-1.82.918,4.732,4.732,0,0,0-.648,2.691v.555a4.847,4.847,0,0,0,.641,2.7,2.082,2.082,0,0,0,1.844.961,2.064,2.064,0,0,0,1.813-.926,4.819,4.819,0,0,0,.641-2.7ZM24.938-.859A2.831,2.831,0,0,1,22.625.156a2.67,2.67,0,0,1-2.074-.781,3.335,3.335,0,0,1-.73-2.289V-8.453h2.258v5.461q0,1.32,1.2,1.32a1.631,1.631,0,0,0,1.578-.8V-8.453h2.266V0H25ZM31.211,0H28.945V-8.453h2.266Zm-2.4-10.641a1.112,1.112,0,0,1,.34-.836,1.277,1.277,0,0,1,.926-.328,1.28,1.28,0,0,1,.922.328,1.105,1.105,0,0,1,.344.836A1.108,1.108,0,0,1,31-9.8a1.283,1.283,0,0,1-.918.328A1.283,1.283,0,0,1,29.16-9.8,1.108,1.108,0,0,1,28.813-10.641ZM36.961.156A4.15,4.15,0,0,1,33.934-.984a4.054,4.054,0,0,1-1.168-3.039v-.219a5.106,5.106,0,0,1,.492-2.277,3.612,3.612,0,0,1,1.395-1.547,3.914,3.914,0,0,1,2.059-.543,3.508,3.508,0,0,1,2.73,1.094,4.444,4.444,0,0,1,1,3.1v.922H35.055a2.1,2.1,0,0,0,.66,1.328,2,2,0,0,0,1.395.5,2.437,2.437,0,0,0,2.039-.945l1.109,1.242A3.389,3.389,0,0,1,38.883-.246,4.511,4.511,0,0,1,36.961.156ZM36.7-6.781a1.414,1.414,0,0,0-1.09.453,2.341,2.341,0,0,0-.535,1.3h3.141v-.18a1.669,1.669,0,0,0-.406-1.16A1.459,1.459,0,0,0,36.7-6.781Zm.2-5.219h2.461L37.2-9.578H35.367ZM43.8-8.453l.07.977A2.951,2.951,0,0,1,46.3-8.609a2.453,2.453,0,0,1,2,.789,3.682,3.682,0,0,1,.672,2.359V0H46.711V-5.406A1.465,1.465,0,0,0,46.4-6.449a1.4,1.4,0,0,0-1.039-.324,1.553,1.553,0,0,0-1.43.813V0H41.672V-8.453Zm8.727,4.961a4.691,4.691,0,0,1,.266-1.742,3.574,3.574,0,0,1,.973-1.277A4.975,4.975,0,0,0,54.7-7.535a1.6,1.6,0,0,0,.234-.832q0-1.32-1.219-1.32a1.236,1.236,0,0,0-.926.355,1.4,1.4,0,0,0-.363.98H50.164a3.009,3.009,0,0,1,.965-2.336,3.759,3.759,0,0,1,2.59-.844,3.775,3.775,0,0,1,2.57.8A2.847,2.847,0,0,1,57.2-8.469a2.751,2.751,0,0,1-.3,1.254,5.166,5.166,0,0,1-1.039,1.309l-.633.6a2.143,2.143,0,0,0-.68,1.336l-.031.477Zm-.227,2.4a1.143,1.143,0,0,1,.355-.863,1.263,1.263,0,0,1,.91-.34,1.263,1.263,0,0,1,.91.34,1.143,1.143,0,0,1,.355.863,1.134,1.134,0,0,1-.348.852,1.265,1.265,0,0,1-.918.336,1.265,1.265,0,0,1-.918-.336A1.134,1.134,0,0,1,52.3-1.094Z" transform="translate(402.509 994)" fill="#fff"/><circle cx="37.5" cy="37.5" r="37.5" transform="translate(409.413 1047)" fill="#af58fa"/><path d="M5.2-5.023a4.839,4.839,0,0,1-.242,1.68A3.263,3.263,0,0,1,4.1-2.125a9.118,9.118,0,0,0-.844.859,2.24,2.24,0,0,0-.336.57A1.72,1.72,0,0,0,2.8-.062a1.074,1.074,0,0,0,1.2,1.227A1.3,1.3,0,0,0,4.965.813a1.373,1.373,0,0,0,.371-.984H7.594a3.012,3.012,0,0,1-.961,2.34,3.755,3.755,0,0,1-2.586.84,3.844,3.844,0,0,1-2.586-.793A2.821,2.821,0,0,1,.539-.047a3.481,3.481,0,0,1,1.2-2.437l.758-.727a2,2,0,0,0,.543-.734A3.217,3.217,0,0,0,3.2-5.023Zm.281-2.391a1.124,1.124,0,0,1-.359.859,1.275,1.275,0,0,1-.906.336,1.275,1.275,0,0,1-.906-.336,1.124,1.124,0,0,1-.359-.859A1.143,1.143,0,0,1,3.3-8.273a1.265,1.265,0,0,1,.918-.336,1.265,1.265,0,0,1,.918.336A1.143,1.143,0,0,1,5.484-7.414ZM17.906-3.789A4.025,4.025,0,0,1,16.551-.9,4.76,4.76,0,0,1,13.328.156,4.28,4.28,0,0,1,9.887-1.316,6.038,6.038,0,0,1,8.633-5.359v-.7a6.819,6.819,0,0,1,.578-2.891,4.332,4.332,0,0,1,1.652-1.918,4.629,4.629,0,0,1,2.5-.668,4.637,4.637,0,0,1,3.172,1.055,4.326,4.326,0,0,1,1.391,2.961H15.578a2.376,2.376,0,0,0-.613-1.6,2.271,2.271,0,0,0-1.605-.5,1.991,1.991,0,0,0-1.754.84,4.707,4.707,0,0,0-.6,2.605V-5.3a5.038,5.038,0,0,0,.559,2.7,1.954,1.954,0,0,0,1.762.852,2.314,2.314,0,0,0,1.621-.5,2.241,2.241,0,0,0,.613-1.535ZM18.945-4.3a5.013,5.013,0,0,1,.484-2.242A3.546,3.546,0,0,1,20.824-8.07a4.069,4.069,0,0,1,2.113-.539A3.849,3.849,0,0,1,25.73-7.562a4.2,4.2,0,0,1,1.207,2.844l.016.578A4.418,4.418,0,0,1,25.867-1.02,3.775,3.775,0,0,1,22.953.156a3.793,3.793,0,0,1-2.918-1.172A4.5,4.5,0,0,1,18.945-4.2Zm2.258.164a3.151,3.151,0,0,0,.453,1.84,1.5,1.5,0,0,0,1.3.637,1.5,1.5,0,0,0,1.281-.629A3.448,3.448,0,0,0,24.7-4.3a3.12,3.12,0,0,0-.461-1.828,1.5,1.5,0,0,0-1.3-.648,1.475,1.475,0,0,0-1.281.645A3.506,3.506,0,0,0,21.2-4.141ZM23.383-12h2.461L23.68-9.578H21.844Zm7.078,3.547.07.945a2.971,2.971,0,0,1,2.43-1.1A2.255,2.255,0,0,1,35.2-7.32a2.9,2.9,0,0,1,2.539-1.289,2.521,2.521,0,0,1,2.047.8,3.681,3.681,0,0,1,.672,2.41V0H38.2V-5.391a1.61,1.61,0,0,0-.281-1.051,1.246,1.246,0,0,0-.992-.332,1.409,1.409,0,0,0-1.406.969L35.523,0H33.266V-5.383a1.59,1.59,0,0,0-.289-1.062,1.259,1.259,0,0,0-.984-.328,1.463,1.463,0,0,0-1.391.8V0H28.344V-8.453ZM41.844-4.3a5.013,5.013,0,0,1,.484-2.242A3.546,3.546,0,0,1,43.723-8.07a4.069,4.069,0,0,1,2.113-.539,3.849,3.849,0,0,1,2.793,1.047,4.2,4.2,0,0,1,1.207,2.844l.016.578A4.418,4.418,0,0,1,48.766-1.02,3.775,3.775,0,0,1,45.852.156a3.793,3.793,0,0,1-2.918-1.172A4.5,4.5,0,0,1,41.844-4.2Zm2.258.164a3.151,3.151,0,0,0,.453,1.84,1.5,1.5,0,0,0,1.3.637,1.5,1.5,0,0,0,1.281-.629A3.448,3.448,0,0,0,47.594-4.3a3.12,3.12,0,0,0-.461-1.828,1.5,1.5,0,0,0-1.3-.648,1.475,1.475,0,0,0-1.281.645A3.506,3.506,0,0,0,44.1-4.141Zm12.969.648a4.691,4.691,0,0,1,.266-1.742,3.574,3.574,0,0,1,.973-1.277,4.975,4.975,0,0,0,.941-1.023,1.6,1.6,0,0,0,.234-.832q0-1.32-1.219-1.32a1.236,1.236,0,0,0-.926.355,1.4,1.4,0,0,0-.363.98H54.711a3.009,3.009,0,0,1,.965-2.336,3.759,3.759,0,0,1,2.59-.844,3.775,3.775,0,0,1,2.57.8,2.847,2.847,0,0,1,.914,2.262,2.751,2.751,0,0,1-.3,1.254,5.166,5.166,0,0,1-1.039,1.309l-.633.6a2.143,2.143,0,0,0-.68,1.336l-.031.477Zm-.227,2.4a1.143,1.143,0,0,1,.355-.863,1.263,1.263,0,0,1,.91-.34,1.263,1.263,0,0,1,.91.34,1.143,1.143,0,0,1,.355.863,1.134,1.134,0,0,1-.348.852,1.265,1.265,0,0,1-.918.336,1.265,1.265,0,0,1-.918-.336A1.134,1.134,0,0,1,56.844-1.094Z" transform="translate(416.913 1090)" fill="#fff"/><circle cx="40.5" cy="40.5" r="40.5" transform="translate(503.413 1106)" fill="#af58fa"/><path d="M5.2-5.023a4.839,4.839,0,0,1-.242,1.68A3.263,3.263,0,0,1,4.1-2.125a9.118,9.118,0,0,0-.844.859,2.24,2.24,0,0,0-.336.57A1.72,1.72,0,0,0,2.8-.062a1.074,1.074,0,0,0,1.2,1.227A1.3,1.3,0,0,0,4.965.813a1.373,1.373,0,0,0,.371-.984H7.594a3.012,3.012,0,0,1-.961,2.34,3.755,3.755,0,0,1-2.586.84,3.844,3.844,0,0,1-2.586-.793A2.821,2.821,0,0,1,.539-.047a3.481,3.481,0,0,1,1.2-2.437l.758-.727a2,2,0,0,0,.543-.734A3.217,3.217,0,0,0,3.2-5.023Zm.281-2.391a1.124,1.124,0,0,1-.359.859,1.275,1.275,0,0,1-.906.336,1.275,1.275,0,0,1-.906-.336,1.124,1.124,0,0,1-.359-.859A1.143,1.143,0,0,1,3.3-8.273a1.265,1.265,0,0,1,.918-.336,1.265,1.265,0,0,1,.918.336A1.143,1.143,0,0,1,5.484-7.414ZM17.906-3.789A4.025,4.025,0,0,1,16.551-.9,4.76,4.76,0,0,1,13.328.156,4.28,4.28,0,0,1,9.887-1.316,6.038,6.038,0,0,1,8.633-5.359v-.7a6.819,6.819,0,0,1,.578-2.891,4.332,4.332,0,0,1,1.652-1.918,4.629,4.629,0,0,1,2.5-.668,4.637,4.637,0,0,1,3.172,1.055,4.326,4.326,0,0,1,1.391,2.961H15.578a2.376,2.376,0,0,0-.613-1.6,2.271,2.271,0,0,0-1.605-.5,1.991,1.991,0,0,0-1.754.84,4.707,4.707,0,0,0-.6,2.605V-5.3a5.038,5.038,0,0,0,.559,2.7,1.954,1.954,0,0,0,1.762.852,2.314,2.314,0,0,0,1.621-.5,2.241,2.241,0,0,0,.613-1.535Zm6.453,2.93A2.831,2.831,0,0,1,22.047.156a2.67,2.67,0,0,1-2.074-.781,3.335,3.335,0,0,1-.73-2.289V-8.453H21.5v5.461q0,1.32,1.2,1.32a1.631,1.631,0,0,0,1.578-.8V-8.453h2.266V0H24.422ZM33.148,0a2.507,2.507,0,0,1-.227-.758,2.732,2.732,0,0,1-2.133.914A3,3,0,0,1,28.73-.562a2.312,2.312,0,0,1-.816-1.812,2.389,2.389,0,0,1,1-2.062,4.915,4.915,0,0,1,2.879-.727h1.039v-.484a1.393,1.393,0,0,0-.3-.937,1.183,1.183,0,0,0-.949-.352,1.345,1.345,0,0,0-.895.273.929.929,0,0,0-.324.75H28.1a2.268,2.268,0,0,1,.453-1.359,3,3,0,0,1,1.281-.98A4.669,4.669,0,0,1,31.7-8.609a3.689,3.689,0,0,1,2.48.785,2.747,2.747,0,0,1,.918,2.207v3.664a4.041,4.041,0,0,0,.336,1.82V0ZM31.281-1.57a1.945,1.945,0,0,0,.922-.223,1.462,1.462,0,0,0,.625-.6V-3.844h-.844q-1.7,0-1.8,1.172l-.008.133a.9.9,0,0,0,.3.7A1.153,1.153,0,0,0,31.281-1.57ZM32.141-12H34.6L32.438-9.578H30.6Zm6.766,3.547.07.977a2.951,2.951,0,0,1,2.43-1.133,2.453,2.453,0,0,1,2,.789,3.682,3.682,0,0,1,.672,2.359V0H41.82V-5.406a1.465,1.465,0,0,0-.312-1.043,1.4,1.4,0,0,0-1.039-.324,1.553,1.553,0,0,0-1.43.813V0H36.781V-8.453Zm6.531,4.164a5.094,5.094,0,0,1,.887-3.148A2.877,2.877,0,0,1,48.75-8.609a2.589,2.589,0,0,1,2.039.922V-12h2.266V0H51.016l-.109-.9A2.657,2.657,0,0,1,48.734.156,2.869,2.869,0,0,1,46.34-1.02,5.258,5.258,0,0,1,45.438-4.289Zm2.258.164a3.328,3.328,0,0,0,.414,1.82,1.349,1.349,0,0,0,1.2.633,1.511,1.511,0,0,0,1.477-.883V-5.891a1.489,1.489,0,0,0-1.461-.883Q47.7-6.773,47.7-4.125Zm6.758-.18a5.013,5.013,0,0,1,.484-2.242A3.546,3.546,0,0,1,56.332-8.07a4.069,4.069,0,0,1,2.113-.539,3.849,3.849,0,0,1,2.793,1.047,4.2,4.2,0,0,1,1.207,2.844l.016.578A4.418,4.418,0,0,1,61.375-1.02,3.775,3.775,0,0,1,58.461.156a3.793,3.793,0,0,1-2.918-1.172A4.5,4.5,0,0,1,54.453-4.2Zm2.258.164a3.151,3.151,0,0,0,.453,1.84,1.5,1.5,0,0,0,1.3.637,1.5,1.5,0,0,0,1.281-.629A3.448,3.448,0,0,0,60.2-4.3a3.12,3.12,0,0,0-.461-1.828,1.5,1.5,0,0,0-1.3-.648,1.475,1.475,0,0,0-1.281.645A3.506,3.506,0,0,0,56.711-4.141Zm12.969.648a4.691,4.691,0,0,1,.266-1.742,3.575,3.575,0,0,1,.973-1.277,4.975,4.975,0,0,0,.941-1.023,1.6,1.6,0,0,0,.234-.832q0-1.32-1.219-1.32a1.236,1.236,0,0,0-.926.355,1.4,1.4,0,0,0-.363.98H67.32a3.009,3.009,0,0,1,.965-2.336,3.759,3.759,0,0,1,2.59-.844,3.775,3.775,0,0,1,2.57.8,2.847,2.847,0,0,1,.914,2.262,2.751,2.751,0,0,1-.3,1.254,5.166,5.166,0,0,1-1.039,1.309l-.633.6a2.143,2.143,0,0,0-.68,1.336l-.031.477Zm-.227,2.4a1.143,1.143,0,0,1,.355-.863,1.263,1.263,0,0,1,.91-.34,1.263,1.263,0,0,1,.91.34,1.143,1.143,0,0,1,.355.863,1.134,1.134,0,0,1-.348.852,1.265,1.265,0,0,1-.918.336A1.265,1.265,0,0,1,69.8-.242,1.134,1.134,0,0,1,69.453-1.094Z" transform="translate(506.413 1152)" fill="#fff"/><circle cx="44.5" cy="44.5" r="44.5" transform="translate(634.413 1123)" fill="#af58fa"/><path d="M5.2-5.023a4.839,4.839,0,0,1-.242,1.68A3.263,3.263,0,0,1,4.1-2.125a9.118,9.118,0,0,0-.844.859,2.24,2.24,0,0,0-.336.57A1.72,1.72,0,0,0,2.8-.062a1.074,1.074,0,0,0,1.2,1.227A1.3,1.3,0,0,0,4.965.813a1.373,1.373,0,0,0,.371-.984H7.594a3.012,3.012,0,0,1-.961,2.34,3.755,3.755,0,0,1-2.586.84,3.844,3.844,0,0,1-2.586-.793A2.821,2.821,0,0,1,.539-.047a3.481,3.481,0,0,1,1.2-2.437l.758-.727a2,2,0,0,0,.543-.734A3.217,3.217,0,0,0,3.2-5.023Zm.281-2.391a1.124,1.124,0,0,1-.359.859,1.275,1.275,0,0,1-.906.336,1.275,1.275,0,0,1-.906-.336,1.124,1.124,0,0,1-.359-.859A1.143,1.143,0,0,1,3.3-8.273a1.265,1.265,0,0,1,.918-.336,1.265,1.265,0,0,1,.918.336A1.143,1.143,0,0,1,5.484-7.414ZM8.977,0V-11.375h3.5a5.315,5.315,0,0,1,2.684.676,4.712,4.712,0,0,1,1.848,1.922,5.928,5.928,0,0,1,.664,2.832v.523A5.945,5.945,0,0,1,17.02-2.6,4.672,4.672,0,0,1,15.18-.687,5.355,5.355,0,0,1,12.5,0ZM11.32-9.477v7.594h1.133a2.545,2.545,0,0,0,2.1-.9,4.06,4.06,0,0,0,.742-2.57v-.6a4.124,4.124,0,0,0-.719-2.629,2.537,2.537,0,0,0-2.1-.895ZM18.875-4.3a5.013,5.013,0,0,1,.484-2.242A3.546,3.546,0,0,1,20.754-8.07a4.069,4.069,0,0,1,2.113-.539A3.849,3.849,0,0,1,25.66-7.562a4.2,4.2,0,0,1,1.207,2.844l.016.578A4.418,4.418,0,0,1,25.8-1.02,3.775,3.775,0,0,1,22.883.156a3.793,3.793,0,0,1-2.918-1.172A4.5,4.5,0,0,1,18.875-4.2Zm2.258.164a3.151,3.151,0,0,0,.453,1.84,1.5,1.5,0,0,0,1.3.637,1.5,1.5,0,0,0,1.281-.629A3.448,3.448,0,0,0,24.625-4.3a3.12,3.12,0,0,0-.461-1.828,1.5,1.5,0,0,0-1.3-.648,1.475,1.475,0,0,0-1.281.645A3.506,3.506,0,0,0,21.133-4.141ZM23.313-12h2.461L23.609-9.578H21.773Zm7.039,3.547.07.977a2.951,2.951,0,0,1,2.43-1.133,2.453,2.453,0,0,1,2,.789,3.682,3.682,0,0,1,.672,2.359V0H33.266V-5.406a1.465,1.465,0,0,0-.312-1.043,1.4,1.4,0,0,0-1.039-.324,1.553,1.553,0,0,0-1.43.813V0H28.227V-8.453Zm6.531,4.164a5.094,5.094,0,0,1,.887-3.148A2.877,2.877,0,0,1,40.2-8.609a2.589,2.589,0,0,1,2.039.922V-12H44.5V0H42.461l-.109-.9A2.657,2.657,0,0,1,40.18.156,2.869,2.869,0,0,1,37.785-1.02,5.258,5.258,0,0,1,36.883-4.289Zm2.258.164a3.328,3.328,0,0,0,.414,1.82,1.349,1.349,0,0,0,1.2.633,1.511,1.511,0,0,0,1.477-.883V-5.891a1.489,1.489,0,0,0-1.461-.883Q39.141-6.773,39.141-4.125Zm11,4.281A4.15,4.15,0,0,1,47.113-.984a4.054,4.054,0,0,1-1.168-3.039v-.219a5.106,5.106,0,0,1,.492-2.277,3.612,3.612,0,0,1,1.395-1.547,3.914,3.914,0,0,1,2.059-.543,3.508,3.508,0,0,1,2.73,1.094,4.444,4.444,0,0,1,1,3.1v.922H48.234a2.1,2.1,0,0,0,.66,1.328,2,2,0,0,0,1.395.5,2.437,2.437,0,0,0,2.039-.945l1.109,1.242A3.389,3.389,0,0,1,52.063-.246,4.511,4.511,0,0,1,50.141.156Zm-.258-6.937a1.414,1.414,0,0,0-1.09.453,2.341,2.341,0,0,0-.535,1.3H51.4v-.18a1.669,1.669,0,0,0-.406-1.16A1.459,1.459,0,0,0,49.883-6.781ZM60.727-3.492a4.691,4.691,0,0,1,.266-1.742,3.574,3.574,0,0,1,.973-1.277,4.975,4.975,0,0,0,.941-1.023,1.6,1.6,0,0,0,.234-.832q0-1.32-1.219-1.32A1.236,1.236,0,0,0,61-9.332a1.4,1.4,0,0,0-.363.98H58.367a3.009,3.009,0,0,1,.965-2.336,3.759,3.759,0,0,1,2.59-.844,3.775,3.775,0,0,1,2.57.8,2.847,2.847,0,0,1,.914,2.262,2.751,2.751,0,0,1-.3,1.254A5.166,5.166,0,0,1,64.07-5.906l-.633.6a2.143,2.143,0,0,0-.68,1.336l-.031.477Zm-.227,2.4a1.143,1.143,0,0,1,.355-.863,1.263,1.263,0,0,1,.91-.34,1.263,1.263,0,0,1,.91.34,1.143,1.143,0,0,1,.355.863,1.134,1.134,0,0,1-.348.852,1.265,1.265,0,0,1-.918.336,1.265,1.265,0,0,1-.918-.336A1.134,1.134,0,0,1,60.5-1.094Z" transform="translate(646.413 1173)" fill="#fff"/><circle cx="54.5" cy="54.5" r="54.5" transform="translate(802.413 1123)" fill="#43efd4"/><path d="M5.2-5.023a4.839,4.839,0,0,1-.242,1.68A3.263,3.263,0,0,1,4.1-2.125a9.118,9.118,0,0,0-.844.859,2.24,2.24,0,0,0-.336.57A1.72,1.72,0,0,0,2.8-.062a1.074,1.074,0,0,0,1.2,1.227A1.3,1.3,0,0,0,4.965.813a1.373,1.373,0,0,0,.371-.984H7.594a3.012,3.012,0,0,1-.961,2.34,3.755,3.755,0,0,1-2.586.84,3.844,3.844,0,0,1-2.586-.793A2.821,2.821,0,0,1,.539-.047a3.481,3.481,0,0,1,1.2-2.437l.758-.727a2,2,0,0,0,.543-.734A3.217,3.217,0,0,0,3.2-5.023Zm.281-2.391a1.124,1.124,0,0,1-.359.859,1.275,1.275,0,0,1-.906.336,1.275,1.275,0,0,1-.906-.336,1.124,1.124,0,0,1-.359-.859A1.143,1.143,0,0,1,3.3-8.273a1.265,1.265,0,0,1,.918-.336,1.265,1.265,0,0,1,.918.336A1.143,1.143,0,0,1,5.484-7.414ZM21.891-3.789A4.025,4.025,0,0,1,20.535-.9,4.76,4.76,0,0,1,17.313.156a4.28,4.28,0,0,1-3.441-1.473,6.038,6.038,0,0,1-1.254-4.043v-.7A6.819,6.819,0,0,1,13.2-8.945a4.332,4.332,0,0,1,1.652-1.918,4.629,4.629,0,0,1,2.5-.668,4.637,4.637,0,0,1,3.172,1.055,4.326,4.326,0,0,1,1.391,2.961H19.563a2.376,2.376,0,0,0-.613-1.6,2.271,2.271,0,0,0-1.605-.5,1.991,1.991,0,0,0-1.754.84,4.707,4.707,0,0,0-.6,2.605V-5.3a5.038,5.038,0,0,0,.559,2.7,1.954,1.954,0,0,0,1.762.852,2.314,2.314,0,0,0,1.621-.5,2.241,2.241,0,0,0,.613-1.535Zm6.453,2.93A2.831,2.831,0,0,1,26.031.156a2.67,2.67,0,0,1-2.074-.781,3.335,3.335,0,0,1-.73-2.289V-8.453h2.258v5.461q0,1.32,1.2,1.32a1.631,1.631,0,0,0,1.578-.8V-8.453h2.266V0H28.406ZM37.133,0a2.507,2.507,0,0,1-.227-.758,2.732,2.732,0,0,1-2.133.914,3,3,0,0,1-2.059-.719A2.312,2.312,0,0,1,31.9-2.375a2.389,2.389,0,0,1,1-2.062,4.915,4.915,0,0,1,2.879-.727h1.039v-.484a1.393,1.393,0,0,0-.3-.937,1.183,1.183,0,0,0-.949-.352,1.345,1.345,0,0,0-.895.273.929.929,0,0,0-.324.75H32.086a2.268,2.268,0,0,1,.453-1.359,3,3,0,0,1,1.281-.98,4.669,4.669,0,0,1,1.859-.355,3.689,3.689,0,0,1,2.48.785,2.747,2.747,0,0,1,.918,2.207v3.664a4.041,4.041,0,0,0,.336,1.82V0ZM35.266-1.57a1.945,1.945,0,0,0,.922-.223,1.462,1.462,0,0,0,.625-.6V-3.844h-.844q-1.7,0-1.8,1.172l-.008.133a.9.9,0,0,0,.3.7A1.153,1.153,0,0,0,35.266-1.57ZM36.125-12h2.461L36.422-9.578H34.586Zm6.766,3.547.07.977a2.951,2.951,0,0,1,2.43-1.133,2.453,2.453,0,0,1,2,.789,3.682,3.682,0,0,1,.672,2.359V0H45.8V-5.406a1.465,1.465,0,0,0-.312-1.043,1.4,1.4,0,0,0-1.039-.324,1.553,1.553,0,0,0-1.43.813V0H40.766V-8.453Zm9.586-2.078v2.078h1.445V-6.8H52.477v4.219a1.007,1.007,0,0,0,.18.672.9.9,0,0,0,.688.2,3.6,3.6,0,0,0,.664-.055V-.047a4.648,4.648,0,0,1-1.367.2,2.156,2.156,0,0,1-2.422-2.4V-6.8H48.984V-8.453h1.234v-2.078ZM54.594-4.3a5.013,5.013,0,0,1,.484-2.242A3.546,3.546,0,0,1,56.473-8.07a4.069,4.069,0,0,1,2.113-.539,3.849,3.849,0,0,1,2.793,1.047,4.2,4.2,0,0,1,1.207,2.844l.016.578A4.418,4.418,0,0,1,61.516-1.02,3.775,3.775,0,0,1,58.6.156a3.793,3.793,0,0,1-2.918-1.172A4.5,4.5,0,0,1,54.594-4.2Zm2.258.164A3.151,3.151,0,0,0,57.3-2.3a1.5,1.5,0,0,0,1.3.637,1.5,1.5,0,0,0,1.281-.629A3.448,3.448,0,0,0,60.344-4.3a3.12,3.12,0,0,0-.461-1.828,1.5,1.5,0,0,0-1.3-.648,1.475,1.475,0,0,0-1.281.645A3.506,3.506,0,0,0,56.852-4.141Zm12.969.648a4.691,4.691,0,0,1,.266-1.742,3.575,3.575,0,0,1,.973-1.277A4.975,4.975,0,0,0,72-7.535a1.6,1.6,0,0,0,.234-.832q0-1.32-1.219-1.32a1.236,1.236,0,0,0-.926.355,1.4,1.4,0,0,0-.363.98H67.461a3.009,3.009,0,0,1,.965-2.336,3.759,3.759,0,0,1,2.59-.844,3.775,3.775,0,0,1,2.57.8A2.847,2.847,0,0,1,74.5-8.469a2.751,2.751,0,0,1-.3,1.254,5.166,5.166,0,0,1-1.039,1.309l-.633.6a2.143,2.143,0,0,0-.68,1.336l-.031.477Zm-.227,2.4a1.143,1.143,0,0,1,.355-.863,1.263,1.263,0,0,1,.91-.34,1.263,1.263,0,0,1,.91.34,1.143,1.143,0,0,1,.355.863,1.134,1.134,0,0,1-.348.852,1.265,1.265,0,0,1-.918.336,1.265,1.265,0,0,1-.918-.336A1.134,1.134,0,0,1,69.594-1.094Z" transform="translate(819.413 1183)" fill="#12263f"/><path d="M-6790.947-10601l46.28,105.326,107.128-88.75Z" transform="translate(7796.953 11716.337)" fill="#a7fff1"/><path d="M9.578-9.477H6.094V0H3.75V-9.477H.313v-1.9H9.578ZM8.789-4.3a5.013,5.013,0,0,1,.484-2.242A3.546,3.546,0,0,1,10.668-8.07a4.069,4.069,0,0,1,2.113-.539,3.849,3.849,0,0,1,2.793,1.047,4.2,4.2,0,0,1,1.207,2.844l.016.578A4.418,4.418,0,0,1,15.711-1.02,3.775,3.775,0,0,1,12.8.156,3.793,3.793,0,0,1,9.879-1.016,4.5,4.5,0,0,1,8.789-4.2Zm2.258.164A3.151,3.151,0,0,0,11.5-2.3a1.5,1.5,0,0,0,1.3.637,1.5,1.5,0,0,0,1.281-.629A3.448,3.448,0,0,0,14.539-4.3a3.12,3.12,0,0,0-.461-1.828,1.5,1.5,0,0,0-1.3-.648,1.475,1.475,0,0,0-1.281.645A3.506,3.506,0,0,0,11.047-4.141ZM20.3-8.453l.07.945a2.971,2.971,0,0,1,2.43-1.1A2.255,2.255,0,0,1,25.047-7.32a2.9,2.9,0,0,1,2.539-1.289,2.521,2.521,0,0,1,2.047.8A3.681,3.681,0,0,1,30.3-5.4V0H28.039V-5.391a1.61,1.61,0,0,0-.281-1.051,1.246,1.246,0,0,0-.992-.332,1.409,1.409,0,0,0-1.406.969L25.367,0H23.109V-5.383a1.59,1.59,0,0,0-.289-1.062,1.259,1.259,0,0,0-.984-.328,1.463,1.463,0,0,0-1.391.8V0H18.188V-8.453ZM36.938,0a2.507,2.507,0,0,1-.227-.758,2.732,2.732,0,0,1-2.133.914A3,3,0,0,1,32.52-.562,2.312,2.312,0,0,1,31.7-2.375a2.389,2.389,0,0,1,1-2.062,4.915,4.915,0,0,1,2.879-.727h1.039v-.484a1.393,1.393,0,0,0-.3-.937,1.183,1.183,0,0,0-.949-.352,1.345,1.345,0,0,0-.895.273.929.929,0,0,0-.324.75H31.891a2.268,2.268,0,0,1,.453-1.359,3,3,0,0,1,1.281-.98,4.669,4.669,0,0,1,1.859-.355,3.689,3.689,0,0,1,2.48.785,2.747,2.747,0,0,1,.918,2.207v3.664a4.041,4.041,0,0,0,.336,1.82V0ZM35.07-1.57a1.945,1.945,0,0,0,.922-.223,1.462,1.462,0,0,0,.625-.6V-3.844h-.844q-1.7,0-1.8,1.172l-.008.133a.9.9,0,0,0,.3.7A1.153,1.153,0,0,0,35.07-1.57Zm9.18-2.719a5.094,5.094,0,0,1,.887-3.148,2.877,2.877,0,0,1,2.426-1.172,2.589,2.589,0,0,1,2.039.922V-12h2.266V0H49.828l-.109-.9A2.657,2.657,0,0,1,47.547.156,2.869,2.869,0,0,1,45.152-1.02,5.258,5.258,0,0,1,44.25-4.289Zm2.258.164a3.328,3.328,0,0,0,.414,1.82,1.349,1.349,0,0,0,1.2.633A1.511,1.511,0,0,0,49.6-2.555V-5.891a1.489,1.489,0,0,0-1.461-.883Q46.508-6.773,46.508-4.125Zm11,4.281A4.15,4.15,0,0,1,54.48-.984a4.054,4.054,0,0,1-1.168-3.039v-.219A5.106,5.106,0,0,1,53.8-6.52,3.612,3.612,0,0,1,55.2-8.066a3.914,3.914,0,0,1,2.059-.543,3.508,3.508,0,0,1,2.73,1.094,4.444,4.444,0,0,1,1,3.1v.922H55.6a2.1,2.1,0,0,0,.66,1.328,2,2,0,0,0,1.395.5A2.437,2.437,0,0,0,59.7-2.609L60.8-1.367A3.389,3.389,0,0,1,59.43-.246,4.511,4.511,0,0,1,57.508.156ZM57.25-6.781a1.414,1.414,0,0,0-1.09.453,2.341,2.341,0,0,0-.535,1.3h3.141v-.18a1.669,1.669,0,0,0-.406-1.16A1.459,1.459,0,0,0,57.25-6.781ZM1.016,24V12.625h3.5A5.315,5.315,0,0,1,7.2,13.3a4.712,4.712,0,0,1,1.848,1.922,5.928,5.928,0,0,1,.664,2.832v.523a5.945,5.945,0,0,1-.652,2.82,4.672,4.672,0,0,1-1.84,1.914A5.355,5.355,0,0,1,4.539,24Zm2.344-9.477v7.594H4.492a2.545,2.545,0,0,0,2.1-.9,4.06,4.06,0,0,0,.742-2.57v-.6a4.124,4.124,0,0,0-.719-2.629,2.537,2.537,0,0,0-2.1-.895Zm11.8,9.633a4.15,4.15,0,0,1-3.027-1.141,4.054,4.054,0,0,1-1.168-3.039v-.219a5.106,5.106,0,0,1,.492-2.277,3.612,3.612,0,0,1,1.395-1.547,3.914,3.914,0,0,1,2.059-.543,3.508,3.508,0,0,1,2.73,1.094,4.444,4.444,0,0,1,1,3.1v.922H13.25a2.1,2.1,0,0,0,.66,1.328,2,2,0,0,0,1.395.5,2.437,2.437,0,0,0,2.039-.945l1.109,1.242a3.389,3.389,0,0,1-1.375,1.121A4.511,4.511,0,0,1,15.156,24.156ZM14.9,17.219a1.414,1.414,0,0,0-1.09.453,2.341,2.341,0,0,0-.535,1.3h3.141v-.18a1.669,1.669,0,0,0-.406-1.16A1.459,1.459,0,0,0,14.9,17.219Zm8.531,5.117a1.481,1.481,0,0,0,1.016-.344,1.2,1.2,0,0,0,.406-.914h2.117a2.9,2.9,0,0,1-.469,1.574,3.093,3.093,0,0,1-1.262,1.109,3.949,3.949,0,0,1-1.77.395A3.67,3.67,0,0,1,20.609,23a4.56,4.56,0,0,1-1.047-3.184v-.148A4.508,4.508,0,0,1,20.6,16.555a3.627,3.627,0,0,1,2.852-1.164,3.555,3.555,0,0,1,2.543.9,3.2,3.2,0,0,1,.973,2.4H24.852a1.539,1.539,0,0,0-.406-1.066,1.513,1.513,0,0,0-2.223.164,3.324,3.324,0,0,0-.4,1.863v.234a3.366,3.366,0,0,0,.4,1.875A1.378,1.378,0,0,0,23.43,22.336ZM30.641,24H28.375V15.547h2.266Zm-2.4-10.641a1.112,1.112,0,0,1,.34-.836,1.465,1.465,0,0,1,1.848,0,1.193,1.193,0,0,1,0,1.68,1.448,1.448,0,0,1-1.836,0A1.108,1.108,0,0,1,28.242,13.359Zm8.836,8.3a.727.727,0,0,0-.41-.652,4.659,4.659,0,0,0-1.316-.426q-3.016-.633-3.016-2.562a2.323,2.323,0,0,1,.934-1.879,3.766,3.766,0,0,1,2.441-.754,4.053,4.053,0,0,1,2.574.758,2.388,2.388,0,0,1,.965,1.969H36.992a1.092,1.092,0,0,0-.312-.8A1.322,1.322,0,0,0,35.7,17a1.351,1.351,0,0,0-.883.258.814.814,0,0,0-.312.656.7.7,0,0,0,.355.605,3.657,3.657,0,0,0,1.2.4,9.8,9.8,0,0,1,1.422.379,2.336,2.336,0,0,1,1.789,2.273,2.2,2.2,0,0,1-.992,1.871,4.28,4.28,0,0,1-2.562.715,4.47,4.47,0,0,1-1.887-.379,3.166,3.166,0,0,1-1.293-1.039,2.414,2.414,0,0,1-.469-1.426h2.141a1.179,1.179,0,0,0,.445.922,1.766,1.766,0,0,0,1.109.32,1.635,1.635,0,0,0,.98-.246A.766.766,0,0,0,37.078,21.664ZM43.109,24H40.844V15.547h2.266Zm-2.4-10.641a1.112,1.112,0,0,1,.34-.836,1.465,1.465,0,0,1,1.848,0,1.193,1.193,0,0,1,0,1.68,1.448,1.448,0,0,1-1.836,0A1.108,1.108,0,0,1,40.711,13.359ZM44.617,19.7a5.013,5.013,0,0,1,.484-2.242A3.546,3.546,0,0,1,46.5,15.93a4.069,4.069,0,0,1,2.113-.539A3.849,3.849,0,0,1,51.4,16.438a4.2,4.2,0,0,1,1.207,2.844l.016.578a4.418,4.418,0,0,1-1.086,3.121,4.209,4.209,0,0,1-5.832,0,4.5,4.5,0,0,1-1.09-3.187Zm2.258.164a3.151,3.151,0,0,0,.453,1.84,1.629,1.629,0,0,0,2.578.008,3.448,3.448,0,0,0,.461-2.012,3.12,3.12,0,0,0-.461-1.828,1.5,1.5,0,0,0-1.3-.648,1.475,1.475,0,0,0-1.281.645A3.506,3.506,0,0,0,46.875,19.859Zm9.219-4.312.07.977a2.951,2.951,0,0,1,2.43-1.133,2.453,2.453,0,0,1,2,.789,3.682,3.682,0,0,1,.672,2.359V24H59.008V18.594a1.465,1.465,0,0,0-.312-1.043,1.4,1.4,0,0,0-1.039-.324,1.553,1.553,0,0,0-1.43.813V24H53.969V15.547Zm10.773,8.609a4.15,4.15,0,0,1-3.027-1.141,4.054,4.054,0,0,1-1.168-3.039v-.219a5.106,5.106,0,0,1,.492-2.277,3.612,3.612,0,0,1,1.395-1.547,3.914,3.914,0,0,1,2.059-.543,3.508,3.508,0,0,1,2.73,1.094,4.444,4.444,0,0,1,1,3.1v.922H64.961a2.1,2.1,0,0,0,.66,1.328,2,2,0,0,0,1.395.5,2.437,2.437,0,0,0,2.039-.945l1.109,1.242a3.389,3.389,0,0,1-1.375,1.121A4.511,4.511,0,0,1,66.867,24.156Zm-.258-6.937a1.414,1.414,0,0,0-1.09.453,2.341,2.341,0,0,0-.535,1.3h3.141v-.18a1.669,1.669,0,0,0-.406-1.16A1.459,1.459,0,0,0,66.609,17.219ZM76.2,21.664a.727.727,0,0,0-.41-.652,4.659,4.659,0,0,0-1.316-.426q-3.016-.633-3.016-2.562a2.323,2.323,0,0,1,.934-1.879,3.766,3.766,0,0,1,2.441-.754,4.053,4.053,0,0,1,2.574.758,2.388,2.388,0,0,1,.965,1.969H76.117a1.092,1.092,0,0,0-.312-.8A1.322,1.322,0,0,0,74.828,17a1.351,1.351,0,0,0-.883.258.814.814,0,0,0-.312.656.7.7,0,0,0,.355.605,3.657,3.657,0,0,0,1.2.4,9.8,9.8,0,0,1,1.422.379A2.336,2.336,0,0,1,78.4,21.57a2.2,2.2,0,0,1-.992,1.871,4.28,4.28,0,0,1-2.562.715,4.47,4.47,0,0,1-1.887-.379,3.166,3.166,0,0,1-1.293-1.039,2.414,2.414,0,0,1-.469-1.426h2.141a1.179,1.179,0,0,0,.445.922,1.766,1.766,0,0,0,1.109.32,1.635,1.635,0,0,0,.98-.246A.766.766,0,0,0,76.2,21.664Z" transform="translate(1031.413 1142.5)" fill="#12263f"/><g transform="translate(634.413 925.768)"><circle cx="51.672" cy="51.672" r="51.672" transform="translate(1.56 1.56)" fill="#ffe177"/><path d="M120.1,48.515A51.675,51.675,0,0,1,48.515,120.1,51.674,51.674,0,1,0,120.1,48.515Z" transform="translate(-38.427 -38.427)" fill="#ffd15b"/><g transform="translate(27.186 13.532)"><path d="M158.887,127.674h-4.2a2.941,2.941,0,0,1-2.941-2.941V112.154a5.068,5.068,0,0,1,5.007-5.065,15.964,15.964,0,1,0-15.929-15.964q0,.459.026.916a2.925,2.925,0,0,1-2.323,3.008l-4.149.886A2.943,2.943,0,0,1,130.83,93.3q-.09-1.084-.09-2.174a26.046,26.046,0,1,1,31.088,25.556v8.051A2.941,2.941,0,0,1,158.887,127.674Z" transform="translate(-130.74 -65.08)" fill="#dff6fd"/></g><path d="M262.833,123.174a25.944,25.944,0,0,0-6.724-16.715,51.9,51.9,0,0,1-4.068,12.722,15.78,15.78,0,0,1,.709,4.14,15.981,15.981,0,0,1-15.988,16.543,5.068,5.068,0,0,0-5.007,5.065v12.579a2.941,2.941,0,0,0,2.941,2.941h4.2a2.941,2.941,0,0,0,2.941-2.941v-8.052A26.087,26.087,0,0,0,262.833,123.174Z" transform="translate(-183.565 -84.322)" fill="#c8effe"/><g transform="translate(48.19 82.849)"><circle cx="5.041" cy="5.041" r="5.041" fill="#c8effe"/></g><g transform="translate(0 0)"><path d="M3.119,53.232A50.113,50.113,0,0,1,86.05,15.36,1.56,1.56,0,0,0,88.093,13,53.233,53.233,0,0,0,13,88.093a1.559,1.559,0,0,0,2.357-2.043A50.112,50.112,0,0,1,3.119,53.232Z" transform="translate(0 0)"/><path d="M161.036,85.946a1.56,1.56,0,0,0-2.353,2.048,50.113,50.113,0,0,1-70.7,70.7,1.56,1.56,0,1,0-2.048,2.352,53.232,53.232,0,0,0,75.1-75.1Z" transform="translate(-67.642 -67.65)"/><path d="M171.665,100.9a1.56,1.56,0,0,0,2.163-.432,27.6,27.6,0,1,0-50.587-15.282c0,.775.032,1.55.095,2.3a4.5,4.5,0,0,0,5.427,4.03l4.148-.886a4.454,4.454,0,0,0,3.555-4.617c-.015-.276-.023-.556-.023-.832A14.422,14.422,0,0,1,151.637,70.8a14.487,14.487,0,0,1,13.6,13.859,14.421,14.421,0,0,1-14.4,14.928H150.8a6.465,6.465,0,0,0-4.59,1.918,6.611,6.611,0,0,0-1.964,4.707v12.58a4.5,4.5,0,0,0,4.5,4.5h4.2a4.5,4.5,0,0,0,4.5-4.5v-6.8a27.627,27.627,0,0,0,11.268-5.78,1.559,1.559,0,1,0-2.022-2.375,24.474,24.474,0,0,1-11.107,5.374,1.559,1.559,0,0,0-1.258,1.53v8.053a1.382,1.382,0,0,1-1.381,1.381h-4.2a1.382,1.382,0,0,1-1.381-1.381v-12.58a3.513,3.513,0,0,1,1.048-2.5,3.367,3.367,0,0,1,2.387-1.007h.045a17.54,17.54,0,0,0,17.512-18.158A17.628,17.628,0,0,0,151.8,67.686a17.368,17.368,0,0,0-13,4.782,17.6,17.6,0,0,0-5.477,12.716c0,.332.009.67.027,1.005a1.369,1.369,0,0,1-1.091,1.393l-4.148.886a1.384,1.384,0,0,1-1.668-1.239c-.056-.668-.084-1.356-.084-2.045a24.516,24.516,0,0,1,25.473-24.467,24.477,24.477,0,0,1,19.4,38.018,1.56,1.56,0,0,0,.432,2.163Z" transform="translate(-97.615 -45.606)"/><path d="M230.857,390.933a6.6,6.6,0,1,0,6.6,6.6,6.608,6.608,0,0,0-6.6-6.6Zm0,10.082a3.482,3.482,0,1,1,3.482-3.482,3.486,3.486,0,0,1-3.482,3.482Z" transform="translate(-177.625 -309.644)"/></g></g><g transform="translate(1009.465 915.416)"><g transform="translate(6.963 0)"><path d="M230.3,460.583v3.174a7.6,7.6,0,0,1-.045.829,7.471,7.471,0,0,1-7.423,6.639H211.385a7.471,7.471,0,0,1-7.423-6.639,7.608,7.608,0,0,1-.045-.829v-3.174a7.927,7.927,0,0,0,3.236.685h19.915A7.927,7.927,0,0,0,230.3,460.583Z" transform="translate(-154.887 -345.925)" fill="#50758d"/><g transform="translate(0 0)"><path d="M249.784,16.321a1.867,1.867,0,0,1-1.867-1.867V1.867a1.867,1.867,0,1,1,3.734,0V14.454A1.867,1.867,0,0,1,249.784,16.321Z" transform="translate(-187.934 0)" fill="#ffe7c9"/><path d="M88.3,83.209a1.862,1.862,0,0,1-1.32-.547l-8.9-8.9a1.867,1.867,0,0,1,2.641-2.641l8.9,8.9a1.867,1.867,0,0,1-1.32,3.187Z" transform="translate(-59.968 -53.005)" fill="#ffe7c9"/><path d="M21.417,244.687H8.83a1.867,1.867,0,1,1,0-3.734H21.417a1.867,1.867,0,0,1,0,3.734Z" transform="translate(-6.963 -180.97)" fill="#ffe7c9"/><path d="M79.4,388.214a1.867,1.867,0,0,1-1.32-3.187l8.9-8.9a1.867,1.867,0,1,1,2.641,2.641l-8.9,8.9A1.862,1.862,0,0,1,79.4,388.214Z" transform="translate(-59.968 -282.083)" fill="#ffe7c9"/><path d="M393.309,388.214a1.862,1.862,0,0,1-1.32-.547l-8.9-8.9a1.867,1.867,0,1,1,2.641-2.641l8.9,8.9a1.867,1.867,0,0,1-1.32,3.187Z" transform="translate(-289.045 -282.083)" fill="#ffe7c9"/><path d="M452.761,244.687H440.174a1.867,1.867,0,1,1,0-3.734h12.587a1.867,1.867,0,1,1,0,3.734Z" transform="translate(-330.928 -180.97)" fill="#ffe7c9"/><path d="M384.409,83.209a1.867,1.867,0,0,1-1.32-3.187l8.9-8.9a1.867,1.867,0,0,1,2.641,2.641l-8.9,8.9A1.861,1.861,0,0,1,384.409,83.209Z" transform="translate(-289.045 -53.005)" fill="#ffe7c9"/></g><path d="M217.111,453.333s-12.206,2.245-13.194,1.8v3.174a7.608,7.608,0,0,0,.045.829,7.471,7.471,0,0,0,7.423,6.639h3.236a7.473,7.473,0,0,1-7.04-4.969.75.75,0,0,1,.7-1.005h18.785a7.926,7.926,0,0,0,3.191-.665,7.6,7.6,0,0,0,.045-.829v-3.174C229.316,455.578,217.111,453.333,217.111,453.333Z" transform="translate(-154.887 -340.48)" fill="#2b597f"/><path d="M220.344,387.772a7.959,7.959,0,0,1-7.966,7.966H192.462a7.959,7.959,0,0,1-7.966-7.966s-.117-11.635-.139-11.939v-.01l18.063-2.489,17.857,2.489Z" transform="translate(-140.196 -280.395)" fill="#50758d"/><path d="M198.686,403.248h-6.224a7.959,7.959,0,0,1-7.966-7.966s-.117-11.635-.139-11.939v-.01h6.224v.01c.022.3.139,11.939.139,11.939a7.959,7.959,0,0,0,7.966,7.966Z" transform="translate(-140.196 -287.906)" fill="#2b597f"/><path d="M304.132,419.567h-6.348a1.867,1.867,0,0,1,0-3.734h6.328l.01,1.867Z" transform="translate(-223.985 -312.315)" fill="#2b597f"/><path d="M207.435,417.7a1.868,1.868,0,0,1-1.867,1.867H184.779l-.042-3.734h20.831A1.868,1.868,0,0,1,207.435,417.7Z" transform="translate(-140.482 -312.315)" fill="#2b597f"/><path d="M149.789,90.489h0c-19.226-.3-35.394,16.461-35.048,35.547a35.709,35.709,0,0,0,10.1,24.981c3.682,3.786,6.868,7.286,7.222,12.37l35.92.06c.2-5.233,3.176-8.768,6.883-12.639a35.7,35.7,0,0,0,9.9-24.772c0-19.621-15.658-35.529-34.984-35.546Z" transform="translate(-87.906 -67.959)" fill="#fad207"/><path d="M167.985,163.438v.01l-35.92-.06c-.354-5.083-3.54-8.583-7.222-12.37a35.709,35.709,0,0,1-10.1-24.981c-.346-19.086,15.823-35.842,35.048-35.546.971,0,1.932.042,2.883.119-17.72,1.553-32.034,17.458-31.708,35.427a35.709,35.709,0,0,0,10.1,24.981c3.682,3.786,6.868,7.286,7.222,12.37Z" transform="translate(-87.906 -67.961)" fill="#faa515"/><path d="M201.468,220.931a4.106,4.106,0,0,1-3.091,1.586l-.154,0a4.108,4.108,0,0,1-3.047-1.354l-11.7-12.945a4.108,4.108,0,0,1,6.095-5.509l8.414,9.309,13.425-17.289a4.107,4.107,0,1,1,6.488,5.038Z" transform="translate(-138.739 -145.063)" fill="#faa515"/></g><g transform="translate(6.963 0)"><path d="M249.784,16.321a1.867,1.867,0,0,0,1.867-1.867V1.867a1.867,1.867,0,1,0-3.734,0V14.454A1.867,1.867,0,0,0,249.784,16.321Z" transform="translate(-187.934 0)"/><path d="M86.984,82.662a1.867,1.867,0,0,0,2.641-2.641l-8.9-8.9a1.867,1.867,0,0,0-2.641,2.641Z" transform="translate(-59.968 -53.005)"/><path d="M21.417,240.953H8.83a1.867,1.867,0,1,0,0,3.734H21.417a1.867,1.867,0,0,0,0-3.734Z" transform="translate(-6.963 -180.97)"/><path d="M86.984,376.126l-8.9,8.9a1.867,1.867,0,0,0,2.641,2.641l8.9-8.9a1.867,1.867,0,0,0-2.641-2.641Z" transform="translate(-59.968 -282.083)"/><path d="M385.73,376.126a1.867,1.867,0,0,0-2.641,2.641l8.9,8.9a1.867,1.867,0,0,0,2.641-2.641Z" transform="translate(-289.045 -282.082)"/><path d="M452.761,240.953H440.174a1.867,1.867,0,1,0,0,3.734h12.587a1.867,1.867,0,1,0,0-3.734Z" transform="translate(-330.928 -180.97)"/><path d="M391.99,71.121l-8.9,8.9a1.867,1.867,0,0,0,2.641,2.641l8.9-8.9a1.867,1.867,0,0,0-2.641-2.641Z" transform="translate(-289.045 -53.005)"/><path d="M181.022,120.414c0-20.63-16.546-37.414-36.884-37.414a36.375,36.375,0,0,0-20,5.97,37.334,37.334,0,0,0-13.361,15.46,1.867,1.867,0,0,0,3.384,1.579,33.284,33.284,0,0,1,29.973-19.275c18.279,0,33.149,15.109,33.149,33.68A33.783,33.783,0,0,1,167.9,143.9c-3.488,3.643-6.458,7.124-7.222,12h-32.6c-.963-5.064-4.417-8.616-7.52-11.806a33.754,33.754,0,0,1-9.575-23.678,34.5,34.5,0,0,1,.626-6.55,1.867,1.867,0,1,0-3.666-.711,38.216,38.216,0,0,0-.695,7.261A37.468,37.468,0,0,0,117.888,146.7c3.938,4.047,6.726,7.277,6.726,12.012,0,.016,0,.033,0,.05l.107,10.957a9.837,9.837,0,0,0,4.73,8.4v2.053a9.346,9.346,0,0,0,9.335,9.335h11.451a9.346,9.346,0,0,0,9.335-9.335v-2.053a9.837,9.837,0,0,0,4.73-8.4s-.013-12.2-.038-12.326c.354-4.327,2.977-7.4,6.335-10.91A37.5,37.5,0,0,0,181.022,120.414ZM155.839,180.17a5.608,5.608,0,0,1-5.6,5.6H138.786a5.608,5.608,0,0,1-5.6-5.6v-.72a9.857,9.857,0,0,0,1.369.1H154.47a9.9,9.9,0,0,0,1.369-.1Zm-1.369-4.356H134.554a6.106,6.106,0,0,1-6.1-6.1v-.124h18.919a1.867,1.867,0,0,0,0-3.734H128.455v-6.224h32.056l.058,6.224h-4.481a1.867,1.867,0,1,0,0,3.734h4.481v.124A6.106,6.106,0,0,1,154.47,175.813Z" transform="translate(-82.288 -62.338)"/><path d="M207.093,197.747a1.867,1.867,0,0,0,2.949,2.29l3.7-4.76a5.975,5.975,0,0,0-9.438-7.328l-12.058,15.53-6.921-7.657a5.975,5.975,0,0,0-8.865,8.013l11.7,12.945a6.012,6.012,0,0,0,9.151-.342l7.39-9.517a1.867,1.867,0,1,0-2.949-2.29l-7.39,9.517a2.254,2.254,0,0,1-3.432.128l-11.7-12.945a2.24,2.24,0,1,1,3.324-3l8.414,9.309a1.881,1.881,0,0,0,2.86-.107l13.425-17.289a2.24,2.24,0,1,1,3.539,2.748Z" transform="translate(-133.105 -139.424)"/></g></g></g></svg>