<svg xmlns="http://www.w3.org/2000/svg" width="85.363" height="85.363" viewBox="0 0 85.363 85.363"><path d="M62.5,125.356a2.5,2.5,0,0,1-1.768-4.269l60.355-60.355a2.5,2.5,0,1,1,3.536,3.536L64.27,124.623A2.493,2.493,0,0,1,62.5,125.356Z" transform="translate(-49.997 -49.996)" fill="#384949"/><path d="M284.409,60.733,256,89.142v7.073l31.945-31.946a2.5,2.5,0,1,0-3.536-3.536Z" transform="translate(-213.318 -49.996)" fill="#293939"/><path d="M434.5,15.005h-10a2.5,2.5,0,0,1-2.5-2.5V2.5A2.5,2.5,0,0,1,424.5,0h10a2.5,2.5,0,0,1,2.5,2.5v10A2.5,2.5,0,0,1,434.5,15.005Z" transform="translate(-351.642)" fill="#a24bdb"/><path d="M12.5,437.005H2.5A2.5,2.5,0,0,1,0,434.5v-10A2.5,2.5,0,0,1,2.5,422h10a2.5,2.5,0,0,1,2.5,2.5v10A2.5,2.5,0,0,1,12.5,437.005Z" transform="translate(0 -351.642)" fill="#b760ea"/></svg>