<svg xmlns="http://www.w3.org/2000/svg" width="89.123" height="89.117" viewBox="0 0 89.123 89.117"><g transform="translate(0 -0.009)"><g transform="translate(1.221 1.226)"><path d="M48.653,13.475A35.182,35.182,0,1,0,83.835,48.656,35.182,35.182,0,0,0,48.653,13.475Zm0,53.4A18.217,18.217,0,1,1,66.87,48.656,18.217,18.217,0,0,1,48.653,66.873Z" transform="translate(-5.312 -5.316)" fill="#e4c4ff"/><g transform="translate(14.427 14.428)"><path d="M83.863,74.99a18.324,18.324,0,0,1-8.877,8.877L87.373,96.254a35.383,35.383,0,0,0,8.877-8.877Z" transform="translate(-38.423 -38.427)" fill="#af58fa"/><path d="M34.861,74.99,22.474,87.377a35.361,35.361,0,0,0,8.877,8.877L43.738,83.867a18.321,18.321,0,0,1-8.877-8.877Z" transform="translate(-22.474 -38.427)" fill="#af58fa"/><path d="M83.863,43.741,96.25,31.355a35.371,35.371,0,0,0-8.877-8.877L74.986,34.865a18.327,18.327,0,0,1,8.877,8.877Z" transform="translate(-38.423 -22.478)" fill="#af58fa"/><path d="M34.861,43.741a18.327,18.327,0,0,1,8.877-8.877L31.351,22.478a35.371,35.371,0,0,0-8.877,8.877Z" transform="translate(-22.474 -22.478)" fill="#af58fa"/></g><path d="M108.655,18.422,94.775,4.541A9.5,9.5,0,0,0,79.532,7.062L77.5,11.2a34.9,34.9,0,0,1,5.134,1.864L84.4,9.46a4.072,4.072,0,0,1,6.533-1.081l13.879,13.879a4.073,4.073,0,0,1-1.081,6.532l-3.6,1.771A34.9,34.9,0,0,1,102,35.7l4.132-2.034a9.5,9.5,0,0,0,2.522-15.242Z" transform="translate(-24.759 -1.757)" fill="#91edff"/><path d="M30.562,100.141l-1.769,3.6a4.073,4.073,0,0,1-6.532,1.081L8.379,90.938A4.072,4.072,0,0,1,9.46,84.4l3.6-1.77A34.935,34.935,0,0,1,11.192,77.5l-4.13,2.033A9.5,9.5,0,0,0,4.54,94.775l13.881,13.882a9.381,9.381,0,0,0,6.677,2.785,9.736,9.736,0,0,0,1.592-.132,9.4,9.4,0,0,0,6.973-5.177L35.7,102a34.952,34.952,0,0,1-5.134-1.862Z" transform="translate(-1.754 -24.762)" fill="#91edff"/><path d="M94.774,108.655l13.881-13.881a9.5,9.5,0,0,0-2.521-15.243L102,77.5a34.9,34.9,0,0,1-1.864,5.134l3.6,1.771a4.072,4.072,0,0,1,1.081,6.533L90.938,104.817a4.072,4.072,0,0,1-6.533-1.081l-1.771-3.6A34.9,34.9,0,0,1,77.5,102l2.034,4.132a9.5,9.5,0,0,0,15.242,2.522Z" transform="translate(-24.759 -24.762)" fill="#91edff"/><path d="M13.054,30.562l-3.6-1.77a4.073,4.073,0,0,1-1.081-6.535L22.256,8.378A4.072,4.072,0,0,1,28.789,9.46l1.77,3.6a34.953,34.953,0,0,1,5.135-1.864l-2.032-4.13A9.5,9.5,0,0,0,18.419,4.54L4.538,18.421A9.381,9.381,0,0,0,1.753,25.1a9.81,9.81,0,0,0,.131,1.592A9.4,9.4,0,0,0,7.06,33.664L11.19,35.7a34.9,34.9,0,0,1,1.864-5.133Z" transform="translate(-1.753 -1.757)" fill="#91edff"/></g><g transform="translate(0 0.009)"><path d="M12.941,17.3a1.214,1.214,0,0,0,.861-.357l3.133-3.133a1.219,1.219,0,0,0-1.723-1.723l-3.133,3.133a1.219,1.219,0,0,0,.862,2.08Z" transform="translate(-3.56 -3.568)"/><path d="M83.135,54.9,79.9,53.307a36.307,36.307,0,0,0,0-17.483l3.24-1.6a10.718,10.718,0,0,0,2.845-17.2L72.1,3.151A10.718,10.718,0,0,0,54.9,5.995L53.3,9.237a36.318,36.318,0,0,0-17.486,0L34.223,5.995a10.723,10.723,0,0,0-17.2-2.845,1.218,1.218,0,1,0,1.723,1.723,8.286,8.286,0,0,1,13.288,2.2l1.4,2.844q-1.438.463-2.823,1.038l-1.26-2.558a5.292,5.292,0,0,0-8.488-1.406L6.982,20.871a5.292,5.292,0,0,0,1.405,8.486l2.559,1.26Q10.371,32,9.908,33.44l-2.843-1.4a8.194,8.194,0,0,1-4.513-6.078,8.661,8.661,0,0,1-.115-1.393,8.18,8.18,0,0,1,2.431-5.815,1.218,1.218,0,1,0-1.723-1.723A10.6,10.6,0,0,0,0,24.569,11.037,11.037,0,0,0,.148,26.36a10.6,10.6,0,0,0,5.842,7.868l3.241,1.6a36.31,36.31,0,0,0,0,17.484L5.988,54.9A10.6,10.6,0,0,0,.146,62.769,11.022,11.022,0,0,0,0,64.56,10.6,10.6,0,0,0,3.145,72.1l13.88,13.881a10.583,10.583,0,0,0,7.532,3.147,10.951,10.951,0,0,0,1.8-.149,10.6,10.6,0,0,0,7.87-5.841L35.815,79.9a36.307,36.307,0,0,0,17.495,0L54.9,83.136a10.6,10.6,0,0,0,7.868,5.841,10.991,10.991,0,0,0,1.8.15A10.583,10.583,0,0,0,72.1,85.98L85.981,72.1a10.718,10.718,0,0,0-2.845-17.2ZM15.851,26.461,26.584,37.192a19.387,19.387,0,0,0,0,14.747L15.848,62.674a33.847,33.847,0,0,1,0-36.215ZM24.4,17.256,34.877,27.73a19.57,19.57,0,0,0-7.155,7.156L17.248,24.41A34.245,34.245,0,0,1,24.4,17.256Zm3.99,59.911L27.165,79.66a2.855,2.855,0,0,1-4.579.758L8.707,66.537a2.855,2.855,0,0,1,.756-4.579l2.5-1.228A36.633,36.633,0,0,0,28.392,77.167ZM17.245,64.723,27.719,54.248a19.57,19.57,0,0,0,7.152,7.157L24.4,71.878a34.262,34.262,0,0,1-7.153-7.156ZM27.563,44.569a17,17,0,1,1,17,17A17,17,0,0,1,27.563,44.569Zm33.164-32.6,1.23-2.5a2.855,2.855,0,0,1,4.579-.758L80.42,22.593a2.855,2.855,0,0,1-.757,4.579l-2.5,1.229A36.636,36.636,0,0,0,60.728,11.968ZM71.875,24.41,68.681,27.6A1.218,1.218,0,1,0,70.4,29.326l2.869-2.865a33.847,33.847,0,0,1,0,36.215L62.541,51.939a19.387,19.387,0,0,0,0-14.747l3.1-3.1a1.218,1.218,0,1,0-1.723-1.723L61.4,34.886a19.574,19.574,0,0,0-7.154-7.156L64.721,17.255a34.264,34.264,0,0,1,7.154,7.155ZM61.4,54.248,71.879,64.723a34.265,34.265,0,0,1-7.154,7.156L54.252,61.4A19.565,19.565,0,0,0,61.4,54.248ZM77.165,60.73l2.494,1.228a2.855,2.855,0,0,1,.758,4.579L66.536,80.416a2.855,2.855,0,0,1-4.579-.756l-1.226-2.492A36.634,36.634,0,0,0,77.165,60.73ZM57.087,7.071A8.286,8.286,0,0,1,70.374,4.877L84.255,18.758a8.282,8.282,0,0,1-2.2,13.287l-2.841,1.4q-.462-1.437-1.038-2.823l2.559-1.259a5.292,5.292,0,0,0,1.4-8.488L68.258,6.988a5.292,5.292,0,0,0-8.488,1.405l-1.26,2.56q-1.384-.577-2.823-1.038Zm5.586,8.788L51.938,26.592a19.388,19.388,0,0,0-14.753,0L26.451,15.858a33.847,33.847,0,0,1,36.221,0ZM9.464,27.171a2.855,2.855,0,0,1-.76-4.578L22.586,8.712a2.855,2.855,0,0,1,4.579.76l1.23,2.5A36.638,36.638,0,0,0,11.963,28.4ZM32.036,82.058a8.286,8.286,0,0,1-13.288,2.2L4.868,70.374A8.18,8.18,0,0,1,2.437,64.56a8.634,8.634,0,0,1,.115-1.393,8.194,8.194,0,0,1,4.513-6.08l2.84-1.4q.462,1.438,1.038,2.823L8.387,59.772a5.292,5.292,0,0,0-1.4,8.487L20.864,82.141a5.226,5.226,0,0,0,3.715,1.553,5.4,5.4,0,0,0,.887-.073,5.222,5.222,0,0,0,3.884-2.883L30.6,78.187q1.383.577,2.823,1.038Zm3.445-4.769-.02-.006a33.778,33.778,0,0,1-9.015-4.008L37.181,62.543a19.39,19.39,0,0,0,14.765,0L62.679,73.276a33.774,33.774,0,0,1-9,4c-.026.006-.052.015-.079.022a33.8,33.8,0,0,1-18.123-.01Zm48.774-6.916L70.374,84.255a8.286,8.286,0,0,1-13.287-2.2l-1.393-2.836q1.439-.462,2.823-1.038l1.253,2.553a5.233,5.233,0,0,0,3.883,2.883,5.476,5.476,0,0,0,.886.073,5.226,5.226,0,0,0,3.718-1.552L82.14,68.258a5.292,5.292,0,0,0-1.4-8.488L78.18,58.513q.577-1.383,1.038-2.824l2.839,1.4a8.282,8.282,0,0,1,2.2,13.287Z" transform="translate(0 -0.009)"/></g></g></svg>