<svg xmlns="http://www.w3.org/2000/svg" xmlns:xlink="http://www.w3.org/1999/xlink" width="151" height="151" viewBox="0 0 151 151"><defs><linearGradient id="a" x1="0.053" y1="0.047" x2="0.962" y2="0.97" gradientUnits="objectBoundingBox"><stop offset="0" stop-color="#43efd4"/><stop offset="0.798" stop-color="#006cff"/><stop offset="1" stop-color="#006cff"/></linearGradient></defs><g transform="translate(-1010 -2982)"><rect width="151" height="151" rx="12" transform="translate(1010 2982)" fill="url(#a)"/><g transform="translate(1047.287 3007.5)"><path d="M83.118,10H31.226L10.5,30.726v77.307H83.118Zm0,0" transform="translate(-8.007 -8.007)" fill="#e4c4ff" fill-rule="evenodd"/><path d="M31.226,10V30.726H10.5Zm0,0" transform="translate(-8.007 -8.007)" fill="#af58fa" fill-rule="evenodd"/><path d="M60.469,275.01H72.723v19.5H60.469Zm40.45-11.283h12.254v30.785H100.919Zm-20.225-8.219H92.948v39H80.694Zm0,0" transform="translate(-48.02 -204.596)" fill="#3d8efc" fill-rule="evenodd"/><g transform="translate(33.123 12.903)"><path d="M169.9,157.115a5.679,5.679,0,1,0-5.679-5.679A5.69,5.69,0,0,0,169.9,157.115Zm0,0" transform="translate(-164.223 -129.618)" fill="#f2e3ff" fill-rule="evenodd"/><path d="M271.405,203.611a5.679,5.679,0,1,0-5.679-5.679A5.69,5.69,0,0,0,271.405,203.611Zm0,0" transform="translate(-245.501 -166.85)" fill="#f2e3ff" fill-rule="evenodd"/><path d="M433.151,76.115a5.679,5.679,0,1,0-5.679-5.679A5.69,5.69,0,0,0,433.151,76.115Zm0,0" transform="translate(-375.019 -64.758)" fill="#f2e3ff" fill-rule="evenodd"/></g><path d="M267.723,286.758H255.469a1.993,1.993,0,0,0-1.993,1.993v30.785a1.992,1.992,0,0,0,1.993,1.993h12.254a1.993,1.993,0,0,0,1.993-1.993V288.75A1.993,1.993,0,0,0,267.723,286.758Zm-1.993,30.785h-8.269v-26.8h8.269Zm0,0" transform="translate(-202.57 -229.62)" fill-rule="evenodd"/><path d="M166.219,245.508H153.965a1.993,1.993,0,0,0-1.993,1.993v39a1.992,1.992,0,0,0,1.993,1.993h12.254a1.992,1.992,0,0,0,1.993-1.993v-39A1.992,1.992,0,0,0,166.219,245.508Zm-1.993,39h-8.269V249.493h8.269Zm0,0" transform="translate(-121.291 -196.589)" fill-rule="evenodd"/><path d="M64.716,343.383H52.461a1.993,1.993,0,0,0-1.993,1.993v19.5a1.992,1.992,0,0,0,1.993,1.993H64.716a1.992,1.992,0,0,0,1.993-1.993v-19.5A1.992,1.992,0,0,0,64.716,343.383Zm-1.993,19.5H54.454V347.368h8.269Zm0,0" transform="translate(-40.012 -274.962)" fill-rule="evenodd"/><path d="M91.255,10.911A7.67,7.67,0,0,0,84.2,21.6l-7.1,5.6V1.993A1.993,1.993,0,0,0,75.11,0H23.219c-.023,0-.044,0-.067,0l-.068,0a1.905,1.905,0,0,0-.25.031h0a1.939,1.939,0,0,0-.248.068L22.52.129a1.963,1.963,0,0,0-.223.1l-.014.007a2.056,2.056,0,0,0-.219.137L22.012.41a1.943,1.943,0,0,0-.2.174L1.084,21.309a2.011,2.011,0,0,0-.173.2l-.04.054a2.056,2.056,0,0,0-.137.219.117.117,0,0,0-.007.014,1.963,1.963,0,0,0-.1.223c-.008.02-.016.041-.023.062a1.928,1.928,0,0,0-.068.247.01.01,0,0,0,0,0,1.917,1.917,0,0,0-.031.251c0,.023,0,.045,0,.068s0,.044,0,.067v77.307a1.992,1.992,0,0,0,1.993,1.993H75.109a1.992,1.992,0,0,0,1.993-1.993V32.275l9.571-7.544a7.67,7.67,0,1,0,4.582-13.82ZM21.226,6.8V20.726H7.3Zm51.891,91.23H4.485V24.712H23.219a1.993,1.993,0,0,0,1.993-1.993V3.985H73.118V30.342l-9.509,7.5a7.659,7.659,0,0,0-10.483,1.254l-6.76-3.1A7.671,7.671,0,1,0,31.13,34.722a7.629,7.629,0,0,0,.894,3.587l-15.1,14.057a1.993,1.993,0,1,0,2.716,2.916l15.1-14.058A7.654,7.654,0,0,0,44.7,39.617l6.76,3.1a7.671,7.671,0,1,0,14.614-1.747l7.041-5.55ZM59.027,40.3a3.686,3.686,0,1,1-3.686,3.686A3.691,3.691,0,0,1,59.027,40.3ZM35.115,34.722A3.686,3.686,0,1,1,38.8,38.408,3.69,3.69,0,0,1,35.115,34.722Zm56.14-12.453a3.686,3.686,0,1,1,3.686-3.686A3.69,3.69,0,0,1,91.255,22.268Zm0,0" transform="translate(0)" fill-rule="evenodd"/><path d="M52.462,291.365a1.993,1.993,0,1,0-1.993-1.993A2,2,0,0,0,52.462,291.365Zm0,0" transform="translate(-40.012 -230.117)" fill-rule="evenodd"/></g></g></svg>