<svg xmlns="http://www.w3.org/2000/svg" width="65.887" height="70.446" viewBox="0 0 65.887 70.446"><g transform="translate(-16.566)"><g transform="translate(17.46 1.032)"><path d="M68.654,16.618V9.779A2.279,2.279,0,0,0,66.375,7.5H25.345a2.279,2.279,0,0,0-2.279,2.279V59.926a2.279,2.279,0,0,0,2.279,2.279h6.838Z" transform="translate(-23.066 -7.5)" fill="#bec8f7"/><path d="M318,7.5h-3.165a2.279,2.279,0,0,1,2.279,2.279V20.573l3.165-3.956V9.779A2.279,2.279,0,0,0,318,7.5Z" transform="translate(-274.689 -7.5)" fill="#a2b6f4"/><path d="M134.921,130.751a2.279,2.279,0,0,1-2.279,2.279H91.612a2.279,2.279,0,0,1-2.279-2.279V76.045a2.279,2.279,0,0,1,2.279-2.279h33.247a2.279,2.279,0,0,1,1.612.668l7.782,7.782a2.279,2.279,0,0,1,.668,1.612v46.923Z" transform="translate(-80.215 -64.648)" fill="#e9efff"/><path d="M217.876,144.593H206.4a1.1,1.1,0,0,1-1.1-1.1v-2.357a1.1,1.1,0,0,1,1.1-1.1h11.475a1.1,1.1,0,0,1,1.1,1.1v2.357A1.1,1.1,0,0,1,217.876,144.593Z" transform="translate(-180.227 -121.799)" fill="#77dfff"/><path d="M337.1,82.217l-7.782-7.782a2.279,2.279,0,0,0-1.612-.668h-3.165a2.279,2.279,0,0,1,1.612.668l7.782,7.782a2.279,2.279,0,0,1,.668,1.612v46.923a2.279,2.279,0,0,1-2.279,2.279h3.165a2.279,2.279,0,0,0,2.279-2.279V83.829A2.279,2.279,0,0,0,337.1,82.217Z" transform="translate(-283.059 -64.649)" fill="#bec8f7"/><path d="M362.849,83.517l-7.782-7.782a2.273,2.273,0,0,0-.668-.46v6.631a2.279,2.279,0,0,0,2.279,2.279h6.631A2.273,2.273,0,0,0,362.849,83.517Z" transform="translate(-308.811 -65.95)" fill="#bec8f7"/><path d="M354.786,75.5l-.039-.028q-.081-.055-.166-.1l0,0q-.088-.05-.18-.091h0v2.957l5.285,5.285a2.275,2.275,0,0,1,.46.668h3.165q-.042-.092-.091-.18l0,0q-.048-.085-.1-.166l-.028-.038c-.03-.042-.061-.084-.094-.124s-.092-.106-.142-.157l-7.782-7.782c-.05-.05-.1-.1-.157-.142S354.829,75.529,354.786,75.5Z" transform="translate(-308.811 -65.949)" fill="#a2b6f4"/><path d="M276.865,140.033H273.7a1.1,1.1,0,0,1,1.1,1.1v2.357a1.1,1.1,0,0,1-1.1,1.1h3.165a1.1,1.1,0,0,0,1.1-1.1v-2.357A1.1,1.1,0,0,0,276.865,140.033Z" transform="translate(-239.215 -121.798)" fill="#69cdff"/><g transform="translate(25.074 41.029)"><path d="M206.4,323.935h36.549a1.1,1.1,0,0,0,1.1-1.1V306.8a1.1,1.1,0,0,0-1.1-1.1H206.4a1.1,1.1,0,0,0-1.1,1.1v16.034A1.1,1.1,0,0,0,206.4,323.935Z" transform="translate(-205.3 -305.7)" fill="#af58fa"/></g></g><g transform="translate(16.566 0)"><path d="M80.321,41.029H73.336V30.449a1.032,1.032,0,1,0-2.064,0V41.029h-27.5a2.135,2.135,0,0,0-2.133,2.133V59.2a2.135,2.135,0,0,0,2.133,2.133h27.5v5.806a1.249,1.249,0,0,1-1.247,1.247H28.995a1.249,1.249,0,0,1-1.247-1.247V12.429a1.249,1.249,0,0,1,1.247-1.248H62.154v5.806A3.315,3.315,0,0,0,65.465,20.3h5.806v6.022a1.032,1.032,0,0,0,2.064,0v-6.11a3.29,3.29,0,0,0-.97-2.342l-7.782-7.782a3.371,3.371,0,0,0-.365-.316V3.311A3.315,3.315,0,0,0,60.907,0H19.877a3.315,3.315,0,0,0-3.311,3.311V5.806a1.032,1.032,0,0,0,2.064,0V3.311a1.249,1.249,0,0,1,1.248-1.248H60.907a1.249,1.249,0,0,1,1.248,1.248V9.118H28.995a3.315,3.315,0,0,0-3.311,3.311V54.706H19.877a1.249,1.249,0,0,1-1.248-1.248V9.934a1.032,1.032,0,0,0-2.064,0V53.458a3.315,3.315,0,0,0,3.311,3.311h5.806V67.135a3.315,3.315,0,0,0,3.311,3.311H70.024a3.315,3.315,0,0,0,3.311-3.311V61.328H80.32A2.135,2.135,0,0,0,82.453,59.2V43.162a2.135,2.135,0,0,0-2.132-2.133ZM69.812,18.235H65.465a1.249,1.249,0,0,1-1.248-1.248V12.641ZM80.389,59.2a.069.069,0,0,1-.069.069H43.772A.069.069,0,0,1,43.7,59.2V43.162a.069.069,0,0,1,.069-.069H80.321a.069.069,0,0,1,.069.069Z" transform="translate(-16.566 0)"/><path d="M236.425,331.333h-3.355A2.174,2.174,0,0,0,230.9,333.5v7.978a1.032,1.032,0,1,0,2.064,0v-3.527h3.527a3.326,3.326,0,0,0,2.4-1.026,3.285,3.285,0,0,0,.912-2.444A3.34,3.34,0,0,0,236.425,331.333Zm.967,4.172a1.237,1.237,0,0,1-.9.387h-3.527V333.5a.108.108,0,0,1,.108-.108h3.355a1.3,1.3,0,0,1,1.31,1.186A1.239,1.239,0,0,1,237.392,335.505Z" transform="translate(-201.409 -285.745)" fill="#fff"/><path d="M318.181,331.333H315.9a2.174,2.174,0,0,0-2.172,2.172v6.838a2.174,2.174,0,0,0,2.172,2.172h2.279a4.456,4.456,0,0,0,4.451-4.451v-2.28A4.456,4.456,0,0,0,318.181,331.333Zm2.387,6.731a2.39,2.39,0,0,1-2.387,2.387H315.9a.108.108,0,0,1-.108-.108V333.5a.108.108,0,0,1,.108-.108h2.279a2.39,2.39,0,0,1,2.387,2.387Z" transform="translate(-272.843 -285.745)" fill="#fff"/><path d="M404.577,331.333h-5.841a2.174,2.174,0,0,0-2.172,2.172v7.978a1.032,1.032,0,0,0,2.064,0v-3.527h3.527a1.032,1.032,0,0,0,0-2.064h-3.527V333.5a.108.108,0,0,1,.108-.108h5.841a1.032,1.032,0,0,0,0-2.064Z" transform="translate(-344.28 -285.745)" fill="#fff"/><path d="M212.408,139.157a2.135,2.135,0,0,0,2.133-2.133v-2.357a2.135,2.135,0,0,0-2.133-2.133H200.933a2.135,2.135,0,0,0-2.133,2.133v2.357a2.135,2.135,0,0,0,2.133,2.133Zm-11.544-2.133v-2.357a.069.069,0,0,1,.069-.069h11.475a.069.069,0,0,1,.069.069v2.357a.069.069,0,0,1-.069.069H200.933A.069.069,0,0,1,200.864,137.024Z" transform="translate(-173.726 -114.299)"/><path d="M165.477,198.8H133.565a1.032,1.032,0,0,0,0,2.064h31.912a1.032,1.032,0,0,0,0-2.064Z" transform="translate(-116.577 -171.447)"/><path d="M165.477,231.933H133.565a1.032,1.032,0,0,0,0,2.064h31.912a1.032,1.032,0,0,0,0-2.064Z" transform="translate(-116.577 -200.021)"/><path d="M165.477,265.067H133.565a1.032,1.032,0,1,0,0,2.064h31.912a1.032,1.032,0,1,0,0-2.064Z" transform="translate(-116.577 -228.596)"/></g></g></svg>