<svg xmlns="http://www.w3.org/2000/svg" width="927" height="482" viewBox="0 0 927 482"><g transform="translate(6006 4707)"><g transform="translate(-6006 -4707)" fill="#fff" stroke="#af58fa" stroke-width="1"><rect width="927" height="482" rx="15" stroke="none"/><rect x="0.5" y="0.5" width="926" height="481" rx="14.5" fill="none"/></g><g transform="translate(-5729.875 -4581.942)"><g transform="translate(5.359 201.506)"><path d="M7.231,72.717A13.086,13.086,0,0,1,2,62.256V47l10.208,5.1A13.077,13.077,0,0,1,19.435,63.8V81.871Z" transform="translate(-2 -47)" fill="#52565a"/></g><g transform="translate(83.818 192.788)"><path d="M72.306,45c0,12.035-11.708,21.794-26.153,21.794S20,57.035,20,45" transform="translate(-20 -45)" fill="#c66b60"/></g><g transform="translate(193.021 175.03)"><path d="M57.9,107.246v-.615l1.43-5.719a244.194,244.194,0,0,0,7.288-59.2v-.785A56.521,56.521,0,0,1,50.1,58.069l-.92.615L48.9,58.9q-.693,21.6-3.077,43.092l-.771,6.931A16.48,16.48,0,0,1,57.9,107.246Z" transform="translate(-45.053 -40.926)" fill="#a8b0bc"/></g><g transform="translate(48.947 188.621)"><path d="M33.951,96.825l-.157-.667,1.892-13.251a245.157,245.157,0,0,0,2.467-34.7V46.55c-1.569-.462-3.156-.846-4.708-1.36L30,44.044A204.87,204.87,0,0,0,16.368,96.111l-.009.048H12a17.078,17.078,0,0,1,8.74,2.406,17.249,17.249,0,0,1,8.7-2.406A17.158,17.158,0,0,1,33.951,96.825Z" transform="translate(-12 -44.044)" fill="#a8b0bc"/></g><g transform="translate(48.947 240.736)"><path d="M29.435,56A17.436,17.436,0,0,1,46.871,73.435v8.718H12V73.435A17.436,17.436,0,0,1,29.435,56Z" transform="translate(-12 -56)" fill="#52565a"/></g><g transform="translate(184.072 240.736)"><path d="M60.435,56A17.436,17.436,0,0,1,77.871,73.435v8.718H43V73.435A17.436,17.436,0,0,1,60.435,56Z" transform="translate(-43 -56)" fill="#52565a"/></g><g transform="translate(31.512 240.736)"><path d="M25.435,56A17.436,17.436,0,0,1,42.871,73.435v8.718H8V73.435A17.436,17.436,0,0,1,25.435,56Z" transform="translate(-8 -56)" fill="#52565a"/></g><g transform="translate(166.637 240.736)"><path d="M56.435,56A17.436,17.436,0,0,1,73.871,73.435v8.718H39V73.435A17.436,17.436,0,0,1,56.435,56Z" transform="translate(-39 -56)" fill="#52565a"/></g><g transform="translate(23.118 48.946)"><path d="M206.258,107.895v.187a56.661,56.661,0,0,1-25.233,47.15l-.92.61-.279.218q-.693,21.6-3.077,43.092l-1,9H158.311l-1.273-5.728a312.22,312.22,0,0,1-6.974-50.8l-.009-.139h-.462l-4.01,1.338A143.906,143.906,0,0,1,100.1,160.2H98.834a143.931,143.931,0,0,1-45.489-7.38L49.9,151.675a204.871,204.871,0,0,0-13.635,52.067l0,.048H23.186L10.11,151.483,6.16,92.247A39.274,39.274,0,0,1,7.246,80.125l.466-1.861a39.22,39.22,0,0,1,34.5-29.553l68.146-6.2V29.435A17.436,17.436,0,0,1,127.8,12h13.077" transform="translate(-6.074 -12)" fill="#e3e4e5"/></g><g transform="translate(149.201 27.152)"><path d="M39.359,102.895,35.087,43.07c-.057-.8-.087-1.6-.087-2.4A33.668,33.668,0,0,1,68.668,7H97.223a33.668,33.668,0,0,1,33.672,33.668c0,.8-.031,1.6-.087,2.4l-4.272,59.83" transform="translate(-35 -7)" fill="#e3e4e5"/></g><g transform="translate(144.842 5.357)"><path d="M60.153,28.153l-1.465-2.2A43.184,43.184,0,0,1,51.435,2L41.628,9.353A19.074,19.074,0,0,0,39.588,38.1l3.13,3.13" transform="translate(-34 -2)" fill="#efbe9a"/></g><g transform="translate(223.302 5.357)"><path d="M52,28.153l1.465-2.2A43.184,43.184,0,0,0,60.718,2l9.807,7.353A19.074,19.074,0,0,1,72.565,38.1l-3.13,3.13" transform="translate(-52 -2)" fill="#efbe9a"/></g><g transform="translate(127.407 48.946)"><path d="M51.794,12H48.756A18.758,18.758,0,0,0,30,30.756V42.512h5.309A18.759,18.759,0,0,0,48.573,37.02l3.221-3.226" transform="translate(-30 -12)" fill="#c66b60"/></g><g transform="translate(245.096 48.946)"><path d="M57,12h3.038A18.758,18.758,0,0,1,78.794,30.756V42.512H73.485A18.759,18.759,0,0,1,60.221,37.02L57,33.794" transform="translate(-57 -12)" fill="#c66b60"/></g><g transform="translate(153.56 101.252)"><path d="M66.512,24a40.613,40.613,0,0,1,13.077,2.127A40.613,40.613,0,0,1,92.665,24c16.851,0,30.512,9.759,30.512,21.794S109.517,67.589,92.665,67.589a40.613,40.613,0,0,1-13.077-2.127,40.613,40.613,0,0,1-13.077,2.127C49.661,67.589,36,57.829,36,45.794S49.661,24,66.512,24Z" transform="translate(-36 -24)" fill="#c66b60"/></g><g transform="translate(197.149 27.152)"><path d="M60.28,7H57.808A34.84,34.84,0,0,0,92.217,66.1L93.86,43.07c.057-.8.087-1.6.087-2.4A33.668,33.668,0,0,0,60.28,7Z" transform="translate(-46 -7)" fill="#52565a"/></g><g transform="translate(62.024 83.817)"><path d="M19.359,20A21.794,21.794,0,1,0,54.23,20" transform="translate(-15 -20)" fill="#52565a"/></g><g transform="translate(92.536 127.405)"><path d="M39.435,30A17.436,17.436,0,0,1,56.871,47.435c0,.218-.057.418-.065.636a17.244,17.244,0,0,1,4.424-.636A17.435,17.435,0,1,1,43.794,64.871c0-.218.057-.418.065-.636a17.244,17.244,0,0,1-4.424.636,17.435,17.435,0,0,1,0-34.871Z" transform="translate(-22 -30)" fill="#52565a"/></g><g transform="translate(27.153 136.123)"><path d="M7,75.589A21.794,21.794,0,0,0,7,32" transform="translate(-7 -32)" fill="#52565a"/></g><g transform="translate(149.201 96.893)"><path d="M96.024,75.306A45.071,45.071,0,0,1,82.947,73.4a45.071,45.071,0,0,1-13.077,1.909C50.644,75.306,35,63.577,35,49.153S50.644,23,69.871,23a45.07,45.07,0,0,1,13.077,1.909A45.071,45.071,0,0,1,96.024,23c19.227,0,34.871,11.73,34.871,26.153S115.251,75.306,96.024,75.306ZM82.947,64.466a4.4,4.4,0,0,1,1.4.231,36.3,36.3,0,0,0,11.677,1.892c14.175,0,26.153-7.985,26.153-17.435S110.2,31.718,96.024,31.718a36.185,36.185,0,0,0-11.677,1.9,4.405,4.405,0,0,1-2.8,0,36.139,36.139,0,0,0-11.673-1.9c-14.175,0-26.153,7.985-26.153,17.435S55.7,66.589,69.871,66.589a36.185,36.185,0,0,0,11.677-1.9,4.4,4.4,0,0,1,1.4-.227Z" transform="translate(-35 -23)"/></g><g transform="translate(214.584 114.329)"><path d="M56.538,40.077a6.538,6.538,0,1,1,6.538-6.538A6.546,6.546,0,0,1,56.538,40.077Z" transform="translate(-50 -27)"/></g><g transform="translate(166.637 114.329)"><path d="M45.538,40.077a6.538,6.538,0,1,1,6.538-6.538A6.546,6.546,0,0,1,45.538,40.077Z" transform="translate(-39 -27)"/></g><g transform="translate(144.842 22.793)"><path d="M134.241,106.563l-8.692-.623,4.272-59.83c.048-.68.074-1.382.074-2.079a29.348,29.348,0,0,0-29.313-29.313H72.027A29.347,29.347,0,0,0,42.718,44.031c0,.7.026,1.4.078,2.092l4.267,59.821-8.692.623L34.1,46.738c-.065-.907-.1-1.8-.1-2.707A38.074,38.074,0,0,1,72.031,6h28.555a38.073,38.073,0,0,1,38.027,38.031c0,.9-.035,1.8-.092,2.7Z" transform="translate(-34 -6)"/></g><g transform="translate(218.943 62.023)"><path d="M57.538,28.077a6.538,6.538,0,1,1,6.538-6.538A6.546,6.546,0,0,1,57.538,28.077Z" transform="translate(-51 -15)"/></g><g transform="translate(162.278 62.023)"><path d="M44.538,28.077a6.538,6.538,0,1,1,6.538-6.538A6.546,6.546,0,0,1,44.538,28.077Z" transform="translate(-38 -15)"/></g><g transform="translate(140.483 1)"><path d="M42.995,47.669l-3.134-3.134A23.267,23.267,0,0,1,33,27.971,23.545,23.545,0,0,1,42.372,9.228L52.179,1.87a4.357,4.357,0,0,1,6.974,3.487,38.732,38.732,0,0,0,6.521,21.537l1.465,2.2-7.253,4.834-1.465-2.2a47.453,47.453,0,0,1-7.279-18.185L47.6,16.2a14.721,14.721,0,0,0-1.578,22.178l3.134,3.134Z" transform="translate(-33 -1)"/></g><g transform="translate(219.675 1)"><path d="M75.312,47.669l-6.163-6.163,3.134-3.134A14.711,14.711,0,0,0,70.7,16.2l-3.539-2.65a47.454,47.454,0,0,1-7.279,18.185l-1.465,2.2L51.168,29.1l1.465-2.2A38.781,38.781,0,0,0,59.153,5.357,4.357,4.357,0,0,1,66.128,1.87l9.807,7.358a23.532,23.532,0,0,1,9.372,18.743,23.277,23.277,0,0,1-6.861,16.568Z" transform="translate(-51.168 -1)"/></g><g transform="translate(123.048 44.587)"><path d="M38.668,50.23H33.359A4.355,4.355,0,0,1,29,45.871V34.115A23.122,23.122,0,0,1,52.115,11h3.038v8.718H52.115a14.4,14.4,0,0,0-14.4,14.4v7.4h.95A14.314,14.314,0,0,0,48.846,37.3l3.226-3.226,6.163,6.163L55.009,43.46A22.965,22.965,0,0,1,38.668,50.23Z" transform="translate(-29 -11)"/></g><g transform="translate(242.014 44.587)"><path d="M81.169,50.23H75.86A22.965,22.965,0,0,1,59.519,43.46l-3.226-3.226,6.163-6.163L65.682,37.3A14.314,14.314,0,0,0,75.86,41.512h.95v-7.4a14.4,14.4,0,0,0-14.4-14.4H59.375V11h3.038A23.116,23.116,0,0,1,85.528,34.115V45.871a4.355,4.355,0,0,1-4.359,4.359Z" transform="translate(-56.293 -11)"/></g><g transform="translate(192.79 23.883)"><path d="M84.23,74.9A39.23,39.23,0,0,1,58.281,6.25l5.771,6.538A30.516,30.516,0,0,0,95.667,63.966l3.278,8.081A39.034,39.034,0,0,1,84.23,74.9Z" transform="translate(-45 -6.25)"/></g><g transform="translate(18.757 75.112)"><path d="M22.318,184.681,9.242,132.375a4.138,4.138,0,0,1-.122-.767L5.17,72.371A43.415,43.415,0,0,1,6.378,58.9l.458-1.857A43.637,43.637,0,0,1,45.18,24.2L113.327,18l.793,8.683L45.974,32.88A34.91,34.91,0,0,0,15.3,59.146l-.462,1.866A34.833,34.833,0,0,0,13.866,71.8l3.923,58.845L30.77,182.572Z" transform="translate(-5.074 -18.003)"/></g><g transform="translate(27.153 236.377)"><path d="M46.23,89.871H11.359A4.355,4.355,0,0,1,7,85.512V76.794a21.794,21.794,0,1,1,43.589,0v8.718A4.355,4.355,0,0,1,46.23,89.871ZM15.718,81.153H41.871V76.794a13.077,13.077,0,0,0-26.153,0Z" transform="translate(-7 -55)"/></g><g transform="translate(55.477 236.377)"><path d="M41.839,89.871H24.4V81.153H37.48V76.794A13.081,13.081,0,0,0,17.874,65.461L13.5,57.92A21.8,21.8,0,0,1,46.2,76.794v8.718a4.355,4.355,0,0,1-4.359,4.359Z" transform="translate(-13.498 -55)"/></g><g transform="translate(48.965 169.041)"><path d="M20.674,111.735l-8.67-.85,0-.052A208.987,208.987,0,0,1,32.5,43.035l1.739-3.483,7.8,3.9L40.3,46.936a200.087,200.087,0,0,0-19.624,64.8Z" transform="translate(-12.004 -39.552)"/></g><g transform="translate(66.426 192.788)"><path d="M24.641,93.566,16.01,92.333l1.9-13.251A242.622,242.622,0,0,0,20.325,45h8.718a251.036,251.036,0,0,1-2.506,35.315Z" transform="translate(-16.01 -45)"/></g><g transform="translate(65.005 184.293)"><path d="M67.82,60.264h-1.26a147.967,147.967,0,0,1-46.866-7.606l-4.01-1.338,2.759-8.264,4.01,1.338a139.41,139.41,0,0,0,44.1,7.153h1.26a139.319,139.319,0,0,0,44.107-7.157l4.01-1.338,2.759,8.264-4.01,1.338A147.8,147.8,0,0,1,67.82,60.264Z" transform="translate(-15.684 -43.051)"/></g><g transform="translate(44.589 253.812)"><path d="M11,59h8.718V72.077H11Z" transform="translate(-11 -59)"/></g><g transform="translate(162.278 236.377)"><path d="M77.23,89.871H42.359A4.355,4.355,0,0,1,38,85.512V76.794a21.794,21.794,0,1,1,43.589,0v8.718A4.355,4.355,0,0,1,77.23,89.871ZM46.718,81.153H72.871V76.794a13.077,13.077,0,0,0-26.153,0Z" transform="translate(-38 -55)"/></g><g transform="translate(190.602 236.377)"><path d="M72.839,89.871H55.4V81.153H68.48V76.794A13.081,13.081,0,0,0,48.874,65.461L44.5,57.92A21.8,21.8,0,0,1,77.2,76.794v8.718a4.355,4.355,0,0,1-4.359,4.359Z" transform="translate(-44.498 -55)"/></g><g transform="translate(179.713 253.812)"><path d="M42,59h8.718V72.077H42Z" transform="translate(-42 -59)"/></g><g transform="translate(162.278 170.994)"><path d="M46.818,115.046l-1.242-5.6A318.97,318.97,0,0,1,38,40.423L46.718,40a311.027,311.027,0,0,0,7.371,67.558l1.242,5.6Z" transform="translate(-38 -40)"/></g><g transform="translate(188.457 175.353)"><path d="M52.671,111.221l-8.665-.963,1-9a545.788,545.788,0,0,0,3.335-60.17L57.056,41a557.254,557.254,0,0,1-3.382,61.225Z" transform="translate(-44.006 -41)"/></g><g transform="translate(194.734 144.841)"><path d="M50.28,85.574l-4.834-7.253.92-.615A52.2,52.2,0,0,0,69.655,34.187L78.373,34v.187A60.9,60.9,0,0,1,51.2,84.959Z" transform="translate(-45.446 -34)"/></g><g transform="translate(201.643 175.353)"><path d="M55.483,107.442l-8.452-2.118,1.43-5.719a240.269,240.269,0,0,0,7.153-58.143V41h8.718v.462a248.535,248.535,0,0,1-7.419,60.257Z" transform="translate(-47.031 -41)"/></g><g transform="translate(1 92.7)"><path d="M22.794,170.074a4.337,4.337,0,0,1-2.615-.872l-12.2-9.154A17.523,17.523,0,0,1,1,146.1V66.681A46.631,46.631,0,0,1,34.677,22.038l2.393,8.386A37.865,37.865,0,0,0,9.718,66.681V128.15l7.8,3.9a17.337,17.337,0,0,1,9.637,15.592v18.072a4.354,4.354,0,0,1-4.359,4.359ZM9.718,137.9v8.2a8.762,8.762,0,0,0,3.491,6.979L18.435,157v-9.354a8.674,8.674,0,0,0-4.817-7.8Z" transform="translate(-1 -22.038)"/></g><g transform="translate(57.665 81.197)"><path d="M40.153,61.248A26.156,26.156,0,0,1,19.231,19.4L26.2,24.634A17.274,17.274,0,0,0,22.718,35.1a17.435,17.435,0,1,0,34.871,0,17.257,17.257,0,0,0-3.483-10.457L61.071,19.4A25.869,25.869,0,0,1,66.306,35.1,26.179,26.179,0,0,1,40.153,61.248Z" transform="translate(-14 -19.399)"/></g><g transform="translate(88.177 123.047)"><path d="M64.589,90.024a21.824,21.824,0,0,1-21.354-17.44c-.153,0-.3,0-.44,0A21.794,21.794,0,1,1,64.148,46.44c.153,0,.3,0,.44,0a21.794,21.794,0,1,1,0,43.589Zm-17.37-26.79a4.358,4.358,0,0,1,4.355,4.533c0,.148-.052.584-.074.732a13.387,13.387,0,1,0,9.777-12.854,4.357,4.357,0,0,1-5.466-4.385c0-.148.052-.593.074-.737A13.37,13.37,0,1,0,46.12,63.378a4.3,4.3,0,0,1,1.1-.144Z" transform="translate(-21 -29)"/></g><g transform="translate(27.153 131.764)"><path d="M7,83.306V74.589A17.435,17.435,0,0,0,7,39.718V31A26.153,26.153,0,1,1,7,83.306Z" transform="translate(-7 -31)"/></g><g transform="translate(79.459 192.788)"><path d="M49.512,71.153C32.691,71.153,19,59.423,19,45h8.718c0,9.616,9.777,17.435,21.794,17.435S71.306,54.616,71.306,45h8.718C80.024,59.423,66.333,71.153,49.512,71.153Z" transform="translate(-19 -45)"/></g><g transform="translate(96.895 214.583)"><path d="M23,50h8.718V63.077H23Z" transform="translate(-23 -50)"/></g><g transform="translate(114.33 214.583)"><path d="M27,50h8.718V63.077H27Z" transform="translate(-27 -50)"/></g></g><path d="M-6847.279-4140.6v-71.519" transform="translate(1315.374 -419.318)" fill="none" stroke="#af58fa" stroke-width="1"/><path d="M9.836-3.7A4.107,4.107,0,0,1,8.492-.863,4.581,4.581,0,0,1,5.375.156,4.436,4.436,0,0,1,2.98-.488a4.231,4.231,0,0,1-1.6-1.832A6.611,6.611,0,0,1,.8-5.078V-6.141a6.659,6.659,0,0,1,.57-2.836A4.3,4.3,0,0,1,3-10.867a4.566,4.566,0,0,1,2.465-.664A4.386,4.386,0,0,1,8.5-10.508,4.276,4.276,0,0,1,9.836-7.617H7.867a2.81,2.81,0,0,0-.715-1.77A2.363,2.363,0,0,0,5.469-9.93a2.309,2.309,0,0,0-1.98.941,4.7,4.7,0,0,0-.707,2.762v1.008a4.988,4.988,0,0,0,.66,2.813,2.191,2.191,0,0,0,1.934.969,2.555,2.555,0,0,0,1.75-.523A2.729,2.729,0,0,0,7.867-3.7Zm1.227-.6a4.984,4.984,0,0,1,.492-2.238,3.6,3.6,0,0,1,1.383-1.531,3.9,3.9,0,0,1,2.047-.535,3.692,3.692,0,0,1,2.777,1.1,4.333,4.333,0,0,1,1.152,2.922l.008.445a5.029,5.029,0,0,1-.48,2.234A3.551,3.551,0,0,1,17.066-.383,3.925,3.925,0,0,1,15,.156a3.667,3.667,0,0,1-2.863-1.191,4.563,4.563,0,0,1-1.074-3.176Zm1.9.164A3.406,3.406,0,0,0,13.5-2.1a1.752,1.752,0,0,0,1.5.738,1.733,1.733,0,0,0,1.5-.75,3.762,3.762,0,0,0,.535-2.2,3.362,3.362,0,0,0-.551-2.031,1.759,1.759,0,0,0-1.5-.75,1.743,1.743,0,0,0-1.477.738A3.691,3.691,0,0,0,12.961-4.141Zm9.328-4.312.055.977A3.039,3.039,0,0,1,24.8-8.609q2.641,0,2.688,3.023V0h-1.9V-5.477a1.741,1.741,0,0,0-.348-1.191,1.462,1.462,0,0,0-1.137-.387A1.829,1.829,0,0,0,22.4-6.016V0H20.5V-8.453ZM29.07-4.3a4.984,4.984,0,0,1,.492-2.238,3.6,3.6,0,0,1,1.383-1.531,3.9,3.9,0,0,1,2.047-.535,3.692,3.692,0,0,1,2.777,1.1,4.333,4.333,0,0,1,1.152,2.922l.008.445a5.029,5.029,0,0,1-.48,2.234A3.551,3.551,0,0,1,35.074-.383a3.925,3.925,0,0,1-2.066.539,3.667,3.667,0,0,1-2.863-1.191A4.563,4.563,0,0,1,29.07-4.211Zm1.9.164A3.406,3.406,0,0,0,31.508-2.1a1.752,1.752,0,0,0,1.5.738,1.733,1.733,0,0,0,1.5-.75,3.762,3.762,0,0,0,.535-2.2,3.362,3.362,0,0,0-.551-2.031,1.759,1.759,0,0,0-1.5-.75,1.743,1.743,0,0,0-1.477.738A3.691,3.691,0,0,0,30.969-4.141ZM42.008-1.359a1.716,1.716,0,0,0,1.18-.414,1.415,1.415,0,0,0,.5-1.023h1.789a2.789,2.789,0,0,1-.492,1.473,3.228,3.228,0,0,1-1.25,1.082,3.725,3.725,0,0,1-1.7.4A3.6,3.6,0,0,1,39.219-.992,4.555,4.555,0,0,1,38.18-4.164v-.2a4.479,4.479,0,0,1,1.031-3.09,3.571,3.571,0,0,1,2.813-1.16,3.473,3.473,0,0,1,2.457.879,3.148,3.148,0,0,1,1,2.309H43.688a1.738,1.738,0,0,0-.5-1.2,1.6,1.6,0,0,0-1.184-.469,1.671,1.671,0,0,0-1.422.668,3.408,3.408,0,0,0-.508,2.027v.3a3.465,3.465,0,0,0,.5,2.051A1.669,1.669,0,0,0,42.008-1.359ZM48.93,0h-1.9V-8.453h1.9ZM46.914-10.648a1.008,1.008,0,0,1,.277-.727,1.048,1.048,0,0,1,.793-.289,1.061,1.061,0,0,1,.8.289,1,1,0,0,1,.281.727.977.977,0,0,1-.281.715,1.069,1.069,0,0,1-.8.285,1.056,1.056,0,0,1-.793-.285A.984.984,0,0,1,46.914-10.648Zm5.867,2.2.055.883a3.042,3.042,0,0,1,2.438-1.039,2.337,2.337,0,0,1,2.32,1.3,3,3,0,0,1,2.594-1.3,2.636,2.636,0,0,1,2.082.773,3.405,3.405,0,0,1,.7,2.281V0h-1.9V-5.5a1.681,1.681,0,0,0-.352-1.18,1.539,1.539,0,0,0-1.164-.375,1.581,1.581,0,0,0-1.059.348,1.833,1.833,0,0,0-.574.91L57.93,0h-1.9V-5.562a1.354,1.354,0,0,0-1.523-1.492,1.671,1.671,0,0,0-1.617.93V0h-1.9V-8.453ZM66.938,0h-1.9V-8.453h1.9ZM64.922-10.648a1.008,1.008,0,0,1,.277-.727,1.048,1.048,0,0,1,.793-.289,1.061,1.061,0,0,1,.8.289,1,1,0,0,1,.281.727.977.977,0,0,1-.281.715,1.069,1.069,0,0,1-.8.285,1.056,1.056,0,0,1-.793-.285A.984.984,0,0,1,64.922-10.648Zm7.8,10.8A3.928,3.928,0,0,1,69.8-.98,4.124,4.124,0,0,1,68.68-4.008v-.234A5.072,5.072,0,0,1,69.168-6.5a3.716,3.716,0,0,1,1.371-1.551,3.625,3.625,0,0,1,1.969-.555,3.318,3.318,0,0,1,2.668,1.1,4.658,4.658,0,0,1,.941,3.117v.766H70.594a2.539,2.539,0,0,0,.7,1.656,2.1,2.1,0,0,0,1.543.609,2.571,2.571,0,0,0,2.125-1.055l1.023.977A3.418,3.418,0,0,1,74.629-.262,4.244,4.244,0,0,1,72.727.156ZM72.5-7.086a1.6,1.6,0,0,0-1.262.547,2.835,2.835,0,0,0-.613,1.523h3.617v-.141A2.307,2.307,0,0,0,73.734-6.6,1.586,1.586,0,0,0,72.5-7.086Zm6.852-1.367.055.977a3.039,3.039,0,0,1,2.461-1.133q2.641,0,2.688,3.023V0h-1.9V-5.477a1.741,1.741,0,0,0-.348-1.191,1.462,1.462,0,0,0-1.137-.387,1.829,1.829,0,0,0-1.711,1.039V0h-1.9V-8.453Zm9.516-2.055v2.055h1.492v1.406H88.867v4.719a1.039,1.039,0,0,0,.191.7.888.888,0,0,0,.684.215,2.924,2.924,0,0,0,.664-.078V-.023a4.676,4.676,0,0,1-1.25.18q-2.188,0-2.187-2.414V-7.047H85.578V-8.453h1.391v-2.055Zm2.352,6.2a4.984,4.984,0,0,1,.492-2.238,3.6,3.6,0,0,1,1.383-1.531,3.9,3.9,0,0,1,2.047-.535,3.692,3.692,0,0,1,2.777,1.1A4.333,4.333,0,0,1,99.07-4.586l.008.445a5.029,5.029,0,0,1-.48,2.234A3.551,3.551,0,0,1,97.223-.383a3.925,3.925,0,0,1-2.066.539,3.667,3.667,0,0,1-2.863-1.191,4.563,4.563,0,0,1-1.074-3.176Zm1.9.164A3.406,3.406,0,0,0,93.656-2.1a1.752,1.752,0,0,0,1.5.738,1.733,1.733,0,0,0,1.5-.75,3.762,3.762,0,0,0,.535-2.2,3.362,3.362,0,0,0-.551-2.031,1.759,1.759,0,0,0-1.5-.75,1.743,1.743,0,0,0-1.477.738A3.691,3.691,0,0,0,93.117-4.141Z" transform="translate(-5581.626 -4647.318)" fill="#af58fa"/><path d="M-6847.279-4140.6v-71.519" transform="translate(-1464.541 -11368.96) rotate(-90)" fill="none" stroke="#af58fa" stroke-width="1"/><path d="M5.336-4.383h-2.2V0H1.156V-11.375h4a4.656,4.656,0,0,1,3.039.883,3.122,3.122,0,0,1,1.07,2.555,3.2,3.2,0,0,1-.551,1.91A3.5,3.5,0,0,1,7.18-4.844L9.734-.1V0H7.617Zm-2.2-1.586H5.164a2.259,2.259,0,0,0,1.563-.5,1.757,1.757,0,0,0,.563-1.379,1.871,1.871,0,0,0-.52-1.414,2.207,2.207,0,0,0-1.551-.516H3.133ZM14.68.156A3.928,3.928,0,0,1,11.754-.98a4.124,4.124,0,0,1-1.121-3.027v-.234A5.072,5.072,0,0,1,11.121-6.5a3.716,3.716,0,0,1,1.371-1.551,3.625,3.625,0,0,1,1.969-.555,3.318,3.318,0,0,1,2.668,1.1,4.658,4.658,0,0,1,.941,3.117v.766H12.547a2.539,2.539,0,0,0,.7,1.656,2.1,2.1,0,0,0,1.543.609,2.571,2.571,0,0,0,2.125-1.055l1.023.977A3.418,3.418,0,0,1,16.582-.262,4.244,4.244,0,0,1,14.68.156Zm-.227-7.242a1.6,1.6,0,0,0-1.262.547,2.835,2.835,0,0,0-.613,1.523H16.2v-.141A2.307,2.307,0,0,0,15.688-6.6,1.586,1.586,0,0,0,14.453-7.086ZM21.563,0h-1.9V-12h1.9ZM28.68,0a2.93,2.93,0,0,1-.219-.789,2.955,2.955,0,0,1-2.219.945A2.982,2.982,0,0,1,24.164-.57a2.325,2.325,0,0,1-.8-1.8,2.4,2.4,0,0,1,1-2.074,4.865,4.865,0,0,1,2.871-.723H28.4v-.555a1.481,1.481,0,0,0-.367-1.051,1.456,1.456,0,0,0-1.117-.395,1.672,1.672,0,0,0-1.062.324,1,1,0,0,0-.414.824h-1.9A2.107,2.107,0,0,1,24-7.316a3.071,3.071,0,0,1,1.254-.949,4.4,4.4,0,0,1,1.77-.344,3.547,3.547,0,0,1,2.367.746,2.661,2.661,0,0,1,.906,2.1v3.813a4.321,4.321,0,0,0,.32,1.82V0ZM26.594-1.367a2.159,2.159,0,0,0,1.059-.273,1.827,1.827,0,0,0,.746-.734V-3.969H27.375a2.8,2.8,0,0,0-1.586.367,1.189,1.189,0,0,0-.531,1.039,1.109,1.109,0,0,0,.363.871A1.407,1.407,0,0,0,26.594-1.367Zm9.164.008a1.716,1.716,0,0,0,1.18-.414,1.415,1.415,0,0,0,.5-1.023h1.789a2.789,2.789,0,0,1-.492,1.473,3.228,3.228,0,0,1-1.25,1.082,3.725,3.725,0,0,1-1.7.4A3.6,3.6,0,0,1,32.969-.992,4.555,4.555,0,0,1,31.93-4.164v-.2a4.479,4.479,0,0,1,1.031-3.09,3.571,3.571,0,0,1,2.813-1.16,3.473,3.473,0,0,1,2.457.879,3.148,3.148,0,0,1,1,2.309H37.438a1.738,1.738,0,0,0-.5-1.2,1.6,1.6,0,0,0-1.184-.469,1.671,1.671,0,0,0-1.422.668,3.408,3.408,0,0,0-.508,2.027v.3a3.465,3.465,0,0,0,.5,2.051A1.669,1.669,0,0,0,35.758-1.359ZM42.68,0h-1.9V-8.453h1.9ZM40.664-10.648a1.008,1.008,0,0,1,.277-.727,1.048,1.048,0,0,1,.793-.289,1.061,1.061,0,0,1,.8.289,1,1,0,0,1,.281.727.977.977,0,0,1-.281.715,1.069,1.069,0,0,1-.8.285,1.056,1.056,0,0,1-.793-.285A.984.984,0,0,1,40.664-10.648ZM44.391-4.3a4.984,4.984,0,0,1,.492-2.238,3.6,3.6,0,0,1,1.383-1.531,3.9,3.9,0,0,1,2.047-.535,3.692,3.692,0,0,1,2.777,1.1,4.333,4.333,0,0,1,1.152,2.922l.008.445a5.029,5.029,0,0,1-.48,2.234A3.551,3.551,0,0,1,50.395-.383a3.925,3.925,0,0,1-2.066.539,3.667,3.667,0,0,1-2.863-1.191,4.563,4.563,0,0,1-1.074-3.176Zm1.9.164A3.406,3.406,0,0,0,46.828-2.1a1.752,1.752,0,0,0,1.5.738,1.733,1.733,0,0,0,1.5-.75,3.762,3.762,0,0,0,.535-2.2,3.362,3.362,0,0,0-.551-2.031,1.759,1.759,0,0,0-1.5-.75,1.743,1.743,0,0,0-1.477.738A3.691,3.691,0,0,0,46.289-4.141ZM48.836-12H51L48.836-9.633H47.313Zm6.781,3.547.055.977a3.039,3.039,0,0,1,2.461-1.133q2.641,0,2.688,3.023V0h-1.9V-5.477a1.741,1.741,0,0,0-.348-1.191,1.462,1.462,0,0,0-1.137-.387,1.829,1.829,0,0,0-1.711,1.039V0h-1.9V-8.453ZM70.211-1.359a1.716,1.716,0,0,0,1.18-.414,1.415,1.415,0,0,0,.5-1.023H73.68a2.789,2.789,0,0,1-.492,1.473,3.228,3.228,0,0,1-1.25,1.082,3.725,3.725,0,0,1-1.7.4A3.6,3.6,0,0,1,67.422-.992a4.555,4.555,0,0,1-1.039-3.172v-.2a4.479,4.479,0,0,1,1.031-3.09,3.571,3.571,0,0,1,2.813-1.16,3.473,3.473,0,0,1,2.457.879,3.148,3.148,0,0,1,1,2.309H71.891a1.738,1.738,0,0,0-.5-1.2,1.6,1.6,0,0,0-1.184-.469,1.671,1.671,0,0,0-1.422.668,3.408,3.408,0,0,0-.508,2.027v.3a3.465,3.465,0,0,0,.5,2.051A1.669,1.669,0,0,0,70.211-1.359ZM74.758-4.3a4.984,4.984,0,0,1,.492-2.238,3.6,3.6,0,0,1,1.383-1.531,3.9,3.9,0,0,1,2.047-.535,3.692,3.692,0,0,1,2.777,1.1,4.333,4.333,0,0,1,1.152,2.922l.008.445a5.029,5.029,0,0,1-.48,2.234A3.551,3.551,0,0,1,80.762-.383,3.925,3.925,0,0,1,78.7.156a3.667,3.667,0,0,1-2.863-1.191,4.563,4.563,0,0,1-1.074-3.176Zm1.9.164A3.406,3.406,0,0,0,77.2-2.1a1.752,1.752,0,0,0,1.5.738,1.733,1.733,0,0,0,1.5-.75,3.762,3.762,0,0,0,.535-2.2,3.362,3.362,0,0,0-.551-2.031,1.759,1.759,0,0,0-1.5-.75,1.743,1.743,0,0,0-1.477.738A3.691,3.691,0,0,0,76.656-4.141Zm9.328-4.312.055.977A3.039,3.039,0,0,1,88.5-8.609q2.641,0,2.688,3.023V0h-1.9V-5.477a1.741,1.741,0,0,0-.348-1.191A1.462,1.462,0,0,0,87.8-7.055a1.829,1.829,0,0,0-1.711,1.039V0H84.2V-8.453Zm14.594,7.094a1.716,1.716,0,0,0,1.18-.414,1.415,1.415,0,0,0,.5-1.023h1.789a2.789,2.789,0,0,1-.492,1.473A3.228,3.228,0,0,1,102.3-.242a3.725,3.725,0,0,1-1.7.4A3.6,3.6,0,0,1,97.789-.992,4.555,4.555,0,0,1,96.75-4.164v-.2a4.479,4.479,0,0,1,1.031-3.09,3.571,3.571,0,0,1,2.813-1.16,3.473,3.473,0,0,1,2.457.879,3.148,3.148,0,0,1,1,2.309h-1.789a1.738,1.738,0,0,0-.5-1.2,1.6,1.6,0,0,0-1.184-.469,1.671,1.671,0,0,0-1.422.668,3.408,3.408,0,0,0-.508,2.027v.3a3.465,3.465,0,0,0,.5,2.051A1.669,1.669,0,0,0,100.578-1.359ZM107.5,0h-1.9V-12h1.9Zm4.086,0h-1.9V-8.453h1.9ZM109.57-10.648a1.008,1.008,0,0,1,.277-.727,1.048,1.048,0,0,1,.793-.289,1.061,1.061,0,0,1,.8.289,1,1,0,0,1,.281.727.977.977,0,0,1-.281.715,1.069,1.069,0,0,1-.8.285,1.056,1.056,0,0,1-.793-.285A.984.984,0,0,1,109.57-10.648Zm7.8,10.8A3.928,3.928,0,0,1,114.449-.98a4.124,4.124,0,0,1-1.121-3.027v-.234a5.072,5.072,0,0,1,.488-2.262,3.716,3.716,0,0,1,1.371-1.551,3.625,3.625,0,0,1,1.969-.555,3.318,3.318,0,0,1,2.668,1.1,4.658,4.658,0,0,1,.941,3.117v.766h-5.523a2.539,2.539,0,0,0,.7,1.656,2.1,2.1,0,0,0,1.543.609,2.571,2.571,0,0,0,2.125-1.055l1.023.977a3.418,3.418,0,0,1-1.355,1.176A4.244,4.244,0,0,1,117.375.156Zm-.227-7.242a1.6,1.6,0,0,0-1.262.547,2.835,2.835,0,0,0-.613,1.523h3.617v-.141a2.307,2.307,0,0,0-.508-1.441A1.586,1.586,0,0,0,117.148-7.086ZM124-8.453l.055.977a3.039,3.039,0,0,1,2.461-1.133q2.641,0,2.688,3.023V0h-1.9V-5.477a1.741,1.741,0,0,0-.348-1.191,1.462,1.462,0,0,0-1.137-.387,1.829,1.829,0,0,0-1.711,1.039V0h-1.9V-8.453Zm9.516-2.055v2.055h1.492v1.406h-1.492v4.719a1.039,1.039,0,0,0,.191.7.888.888,0,0,0,.684.215,2.924,2.924,0,0,0,.664-.078V-.023a4.676,4.676,0,0,1-1.25.18q-2.187,0-2.187-2.414V-7.047h-1.391V-8.453h1.391v-2.055ZM140.18.156A3.928,3.928,0,0,1,137.254-.98a4.124,4.124,0,0,1-1.121-3.027v-.234a5.072,5.072,0,0,1,.488-2.262,3.716,3.716,0,0,1,1.371-1.551,3.625,3.625,0,0,1,1.969-.555,3.318,3.318,0,0,1,2.668,1.1,4.658,4.658,0,0,1,.941,3.117v.766h-5.523a2.539,2.539,0,0,0,.7,1.656,2.1,2.1,0,0,0,1.543.609,2.571,2.571,0,0,0,2.125-1.055l1.023.977a3.418,3.418,0,0,1-1.355,1.176A4.244,4.244,0,0,1,140.18.156Zm-.227-7.242a1.6,1.6,0,0,0-1.262.547,2.835,2.835,0,0,0-.613,1.523H141.7v-.141a2.308,2.308,0,0,0-.508-1.441A1.586,1.586,0,0,0,139.953-7.086ZM149.781-2.3a.861.861,0,0,0-.418-.773,4.445,4.445,0,0,0-1.387-.469,7.129,7.129,0,0,1-1.617-.516,2.158,2.158,0,0,1-1.422-1.992,2.25,2.25,0,0,1,.922-1.828,3.644,3.644,0,0,1,2.344-.734,3.792,3.792,0,0,1,2.449.75,2.38,2.38,0,0,1,.934,1.945h-1.9a1.17,1.17,0,0,0-.406-.91,1.557,1.557,0,0,0-1.078-.363,1.682,1.682,0,0,0-1.02.289.911.911,0,0,0-.395.773.769.769,0,0,0,.367.68,5.049,5.049,0,0,0,1.484.488,7.027,7.027,0,0,1,1.754.586,2.484,2.484,0,0,1,.945.816,2.082,2.082,0,0,1,.309,1.156A2.2,2.2,0,0,1,150.7-.551a4.031,4.031,0,0,1-2.477.707,4.371,4.371,0,0,1-1.852-.375,3.047,3.047,0,0,1-1.266-1.031,2.441,2.441,0,0,1-.453-1.414H146.5a1.338,1.338,0,0,0,.508,1.035,1.973,1.973,0,0,0,1.242.363,1.92,1.92,0,0,0,1.141-.285A.883.883,0,0,0,149.781-2.3Z" transform="translate(-5835.626 -4518.318)" fill="#af58fa"/><path d="M-6847.279-4140.6v-71.519" transform="translate(-1271.503 -11319.961) rotate(-90)" fill="none" stroke="#af58fa" stroke-width="1"/><path d="M9.836-3.7A4.107,4.107,0,0,1,8.492-.863,4.581,4.581,0,0,1,5.375.156,4.436,4.436,0,0,1,2.98-.488a4.231,4.231,0,0,1-1.6-1.832A6.611,6.611,0,0,1,.8-5.078V-6.141a6.659,6.659,0,0,1,.57-2.836A4.3,4.3,0,0,1,3-10.867a4.566,4.566,0,0,1,2.465-.664A4.386,4.386,0,0,1,8.5-10.508,4.276,4.276,0,0,1,9.836-7.617H7.867a2.81,2.81,0,0,0-.715-1.77A2.363,2.363,0,0,0,5.469-9.93a2.309,2.309,0,0,0-1.98.941,4.7,4.7,0,0,0-.707,2.762v1.008a4.988,4.988,0,0,0,.66,2.813,2.191,2.191,0,0,0,1.934.969,2.555,2.555,0,0,0,1.75-.523A2.729,2.729,0,0,0,7.867-3.7Zm1.227-.6a4.984,4.984,0,0,1,.492-2.238,3.6,3.6,0,0,1,1.383-1.531,3.9,3.9,0,0,1,2.047-.535,3.692,3.692,0,0,1,2.777,1.1,4.333,4.333,0,0,1,1.152,2.922l.008.445a5.029,5.029,0,0,1-.48,2.234A3.551,3.551,0,0,1,17.066-.383,3.925,3.925,0,0,1,15,.156a3.667,3.667,0,0,1-2.863-1.191,4.563,4.563,0,0,1-1.074-3.176Zm1.9.164A3.406,3.406,0,0,0,13.5-2.1a1.752,1.752,0,0,0,1.5.738,1.733,1.733,0,0,0,1.5-.75,3.762,3.762,0,0,0,.535-2.2,3.362,3.362,0,0,0-.551-2.031,1.759,1.759,0,0,0-1.5-.75,1.743,1.743,0,0,0-1.477.738A3.691,3.691,0,0,0,12.961-4.141Zm9.328-4.312.055.977A3.039,3.039,0,0,1,24.8-8.609q2.641,0,2.688,3.023V0h-1.9V-5.477a1.741,1.741,0,0,0-.348-1.191,1.462,1.462,0,0,0-1.137-.387A1.829,1.829,0,0,0,22.4-6.016V0H20.5V-8.453ZM33.148.156A3.928,3.928,0,0,1,30.223-.98,4.124,4.124,0,0,1,29.1-4.008v-.234A5.072,5.072,0,0,1,29.59-6.5a3.716,3.716,0,0,1,1.371-1.551,3.625,3.625,0,0,1,1.969-.555,3.318,3.318,0,0,1,2.668,1.1,4.658,4.658,0,0,1,.941,3.117v.766H31.016a2.539,2.539,0,0,0,.7,1.656,2.1,2.1,0,0,0,1.543.609,2.571,2.571,0,0,0,2.125-1.055l1.023.977A3.418,3.418,0,0,1,35.051-.262,4.244,4.244,0,0,1,33.148.156Zm-.227-7.242a1.6,1.6,0,0,0-1.262.547,2.835,2.835,0,0,0-.613,1.523h3.617v-.141A2.307,2.307,0,0,0,34.156-6.6,1.586,1.586,0,0,0,32.922-7.086Zm8.125,1.414,1.609-2.781h2.109L42.18-4.289,44.852,0H42.758L41.07-2.891,39.391,0H37.281l2.672-4.289L37.375-8.453h2.094ZM48.078,0h-1.9V-8.453h1.9ZM46.063-10.648a1.008,1.008,0,0,1,.277-.727,1.048,1.048,0,0,1,.793-.289,1.061,1.061,0,0,1,.8.289,1,1,0,0,1,.281.727.977.977,0,0,1-.281.715,1.069,1.069,0,0,1-.8.285,1.056,1.056,0,0,1-.793-.285A.984.984,0,0,1,46.063-10.648ZM49.789-4.3a4.984,4.984,0,0,1,.492-2.238,3.6,3.6,0,0,1,1.383-1.531,3.9,3.9,0,0,1,2.047-.535,3.692,3.692,0,0,1,2.777,1.1,4.333,4.333,0,0,1,1.152,2.922l.008.445a5.029,5.029,0,0,1-.48,2.234A3.551,3.551,0,0,1,55.793-.383a3.925,3.925,0,0,1-2.066.539,3.667,3.667,0,0,1-2.863-1.191,4.563,4.563,0,0,1-1.074-3.176Zm1.9.164A3.406,3.406,0,0,0,52.227-2.1a1.752,1.752,0,0,0,1.5.738,1.733,1.733,0,0,0,1.5-.75,3.762,3.762,0,0,0,.535-2.2,3.362,3.362,0,0,0-.551-2.031,1.759,1.759,0,0,0-1.5-.75,1.743,1.743,0,0,0-1.477.738A3.691,3.691,0,0,0,51.688-4.141ZM54.234-12H56.4L54.234-9.633H52.711Zm6.781,3.547.055.977a3.039,3.039,0,0,1,2.461-1.133q2.641,0,2.688,3.023V0h-1.9V-5.477a1.741,1.741,0,0,0-.348-1.191,1.462,1.462,0,0,0-1.137-.387,1.829,1.829,0,0,0-1.711,1.039V0h-1.9V-8.453ZM74.406,0H72.438V-11.375h1.969Zm4.008-8.453.055.977A3.039,3.039,0,0,1,80.93-8.609q2.641,0,2.688,3.023V0h-1.9V-5.477a1.741,1.741,0,0,0-.348-1.191,1.462,1.462,0,0,0-1.137-.387,1.829,1.829,0,0,0-1.711,1.039V0h-1.9V-8.453Zm9.516-2.055v2.055h1.492v1.406H87.93v4.719a1.039,1.039,0,0,0,.191.7.888.888,0,0,0,.684.215,2.924,2.924,0,0,0,.664-.078V-.023a4.676,4.676,0,0,1-1.25.18q-2.188,0-2.187-2.414V-7.047H84.641V-8.453h1.391v-2.055ZM94.594.156A3.928,3.928,0,0,1,91.668-.98a4.124,4.124,0,0,1-1.121-3.027v-.234A5.072,5.072,0,0,1,91.035-6.5a3.716,3.716,0,0,1,1.371-1.551,3.625,3.625,0,0,1,1.969-.555,3.318,3.318,0,0,1,2.668,1.1,4.658,4.658,0,0,1,.941,3.117v.766H92.461a2.539,2.539,0,0,0,.7,1.656,2.1,2.1,0,0,0,1.543.609,2.571,2.571,0,0,0,2.125-1.055l1.023.977A3.418,3.418,0,0,1,96.5-.262,4.244,4.244,0,0,1,94.594.156Zm-.227-7.242a1.6,1.6,0,0,0-1.262.547,2.835,2.835,0,0,0-.613,1.523h3.617v-.141A2.307,2.307,0,0,0,95.6-6.6,1.586,1.586,0,0,0,94.367-7.086Zm9.516.367a4.7,4.7,0,0,0-.773-.062,1.741,1.741,0,0,0-1.758,1V0h-1.9V-8.453h1.813l.047.945a2.139,2.139,0,0,1,1.906-1.1,1.777,1.777,0,0,1,.672.109Zm2.961-1.734.055.977a3.039,3.039,0,0,1,2.461-1.133q2.641,0,2.688,3.023V0h-1.9V-5.477a1.741,1.741,0,0,0-.348-1.191,1.462,1.462,0,0,0-1.137-.387,1.829,1.829,0,0,0-1.711,1.039V0h-1.9V-8.453ZM119.031,0a2.93,2.93,0,0,1-.219-.789,2.955,2.955,0,0,1-2.219.945,2.982,2.982,0,0,1-2.078-.727,2.325,2.325,0,0,1-.8-1.8,2.4,2.4,0,0,1,1-2.074,4.865,4.865,0,0,1,2.871-.723h1.164v-.555a1.481,1.481,0,0,0-.367-1.051,1.456,1.456,0,0,0-1.117-.395,1.672,1.672,0,0,0-1.062.324,1,1,0,0,0-.414.824h-1.9a2.107,2.107,0,0,1,.461-1.3,3.071,3.071,0,0,1,1.254-.949,4.4,4.4,0,0,1,1.77-.344,3.547,3.547,0,0,1,2.367.746,2.661,2.661,0,0,1,.906,2.1v3.813a4.321,4.321,0,0,0,.32,1.82V0Zm-2.086-1.367A2.159,2.159,0,0,0,118-1.641a1.827,1.827,0,0,0,.746-.734V-3.969h-1.023a2.8,2.8,0,0,0-1.586.367,1.189,1.189,0,0,0-.531,1.039,1.109,1.109,0,0,0,.363.871A1.407,1.407,0,0,0,116.945-1.367Z" transform="translate(-5402.481 -4470.318)" fill="#af58fa"/><path d="M-6847.279-4140.6v-71.519" transform="translate(-1275.075 -11295.324) rotate(-90)" fill="none" stroke="#af58fa" stroke-width="1"/><path d="M1.156,0V-11.375H4.516a5.269,5.269,0,0,1,2.676.672A4.581,4.581,0,0,1,9-8.8a6.051,6.051,0,0,1,.641,2.828v.57A6.026,6.026,0,0,1,9-2.555,4.526,4.526,0,0,1,7.16-.664,5.513,5.513,0,0,1,4.43,0ZM3.133-9.781v8.2H4.422a2.968,2.968,0,0,0,2.387-.973,4.237,4.237,0,0,0,.848-2.793v-.633a4.347,4.347,0,0,0-.8-2.828,2.853,2.853,0,0,0-2.336-.977ZM13.445,0h-1.9V-8.453h1.9ZM11.43-10.648a1.008,1.008,0,0,1,.277-.727,1.048,1.048,0,0,1,.793-.289,1.061,1.061,0,0,1,.8.289,1,1,0,0,1,.281.727.977.977,0,0,1-.281.715,1.069,1.069,0,0,1-.8.285,1.056,1.056,0,0,1-.793-.285A.984.984,0,0,1,11.43-10.648ZM20.25-2.3a.861.861,0,0,0-.418-.773,4.445,4.445,0,0,0-1.387-.469,7.129,7.129,0,0,1-1.617-.516,2.158,2.158,0,0,1-1.422-1.992,2.25,2.25,0,0,1,.922-1.828,3.644,3.644,0,0,1,2.344-.734,3.792,3.792,0,0,1,2.449.75,2.38,2.38,0,0,1,.934,1.945h-1.9a1.17,1.17,0,0,0-.406-.91,1.557,1.557,0,0,0-1.078-.363,1.682,1.682,0,0,0-1.02.289.911.911,0,0,0-.395.773.769.769,0,0,0,.367.68,5.049,5.049,0,0,0,1.484.488,7.027,7.027,0,0,1,1.754.586,2.484,2.484,0,0,1,.945.816A2.082,2.082,0,0,1,22.117-2.4a2.2,2.2,0,0,1-.945,1.848A4.031,4.031,0,0,1,18.7.156a4.371,4.371,0,0,1-1.852-.375A3.047,3.047,0,0,1,15.578-1.25a2.441,2.441,0,0,1-.453-1.414h1.844a1.338,1.338,0,0,0,.508,1.035,1.973,1.973,0,0,0,1.242.363,1.92,1.92,0,0,0,1.141-.285A.883.883,0,0,0,20.25-2.3Zm6.992.938a1.716,1.716,0,0,0,1.18-.414,1.415,1.415,0,0,0,.5-1.023h1.789a2.789,2.789,0,0,1-.492,1.473,3.228,3.228,0,0,1-1.25,1.082,3.725,3.725,0,0,1-1.7.4A3.6,3.6,0,0,1,24.453-.992a4.555,4.555,0,0,1-1.039-3.172v-.2a4.479,4.479,0,0,1,1.031-3.09,3.571,3.571,0,0,1,2.813-1.16,3.473,3.473,0,0,1,2.457.879,3.148,3.148,0,0,1,1,2.309H28.922a1.738,1.738,0,0,0-.5-1.2,1.6,1.6,0,0,0-1.184-.469,1.671,1.671,0,0,0-1.422.668,3.408,3.408,0,0,0-.508,2.027v.3a3.465,3.465,0,0,0,.5,2.051A1.669,1.669,0,0,0,27.242-1.359Zm10.023.531a2.944,2.944,0,0,1-2.375.984,2.624,2.624,0,0,1-2.082-.8A3.423,3.423,0,0,1,32.1-2.977V-8.453H34V-3q0,1.609,1.336,1.609A1.876,1.876,0,0,0,37.2-2.383v-6.07h1.9V0H37.313Zm8.2-5.891a4.7,4.7,0,0,0-.773-.062,1.741,1.741,0,0,0-1.758,1V0h-1.9V-8.453h1.813l.047.945a2.139,2.139,0,0,1,1.906-1.1,1.777,1.777,0,0,1,.672.109ZM51.4-2.3a.861.861,0,0,0-.418-.773,4.445,4.445,0,0,0-1.387-.469,7.129,7.129,0,0,1-1.617-.516,2.158,2.158,0,0,1-1.422-1.992,2.25,2.25,0,0,1,.922-1.828,3.644,3.644,0,0,1,2.344-.734,3.792,3.792,0,0,1,2.449.75A2.38,2.38,0,0,1,53.2-5.914H51.3a1.17,1.17,0,0,0-.406-.91,1.557,1.557,0,0,0-1.078-.363A1.682,1.682,0,0,0,48.8-6.9a.911.911,0,0,0-.395.773.769.769,0,0,0,.367.68,5.049,5.049,0,0,0,1.484.488,7.027,7.027,0,0,1,1.754.586,2.484,2.484,0,0,1,.945.816A2.082,2.082,0,0,1,53.266-2.4,2.2,2.2,0,0,1,52.32-.551a4.031,4.031,0,0,1-2.477.707,4.371,4.371,0,0,1-1.852-.375A3.047,3.047,0,0,1,46.727-1.25a2.441,2.441,0,0,1-.453-1.414h1.844a1.338,1.338,0,0,0,.508,1.035,1.973,1.973,0,0,0,1.242.363,1.92,1.92,0,0,0,1.141-.285A.883.883,0,0,0,51.4-2.3ZM54.563-4.3a4.984,4.984,0,0,1,.492-2.238,3.6,3.6,0,0,1,1.383-1.531,3.9,3.9,0,0,1,2.047-.535,3.692,3.692,0,0,1,2.777,1.1,4.333,4.333,0,0,1,1.152,2.922l.008.445a5.029,5.029,0,0,1-.48,2.234A3.551,3.551,0,0,1,60.566-.383,3.925,3.925,0,0,1,58.5.156a3.667,3.667,0,0,1-2.863-1.191,4.563,4.563,0,0,1-1.074-3.176Zm1.9.164A3.406,3.406,0,0,0,57-2.1a1.752,1.752,0,0,0,1.5.738,1.733,1.733,0,0,0,1.5-.75,3.762,3.762,0,0,0,.535-2.2,3.362,3.362,0,0,0-.551-2.031,1.759,1.759,0,0,0-1.5-.75,1.743,1.743,0,0,0-1.477.738A3.691,3.691,0,0,0,56.461-4.141Z" transform="translate(-5406.054 -4445.682)" fill="#af58fa"/><path d="M-6847.279-4140.6v-71.519" transform="translate(-1295.075 -11261.324) rotate(-90)" fill="none" stroke="#af58fa" stroke-width="1"/><path d="M7.1-2.93a1.374,1.374,0,0,0-.527-1.156,6.345,6.345,0,0,0-1.9-.82,9.186,9.186,0,0,1-2.187-.922A2.919,2.919,0,0,1,.93-8.375a2.772,2.772,0,0,1,1.121-2.266,4.538,4.538,0,0,1,2.91-.891,4.916,4.916,0,0,1,2.117.438A3.475,3.475,0,0,1,8.539-9.848,3.2,3.2,0,0,1,9.07-8.055H7.1a1.782,1.782,0,0,0-.559-1.395,2.305,2.305,0,0,0-1.6-.5,2.408,2.408,0,0,0-1.5.414,1.379,1.379,0,0,0-.535,1.156A1.247,1.247,0,0,0,3.484-7.34a6.66,6.66,0,0,0,1.906.813,8.768,8.768,0,0,1,2.133.9A3.392,3.392,0,0,1,8.7-4.473a3.011,3.011,0,0,1,.375,1.527A2.707,2.707,0,0,1,7.988-.684a4.727,4.727,0,0,1-2.957.84A5.557,5.557,0,0,1,2.762-.3,3.812,3.812,0,0,1,1.152-1.562,3.144,3.144,0,0,1,.578-3.437H2.555a1.84,1.84,0,0,0,.641,1.5,2.805,2.805,0,0,0,1.836.531,2.437,2.437,0,0,0,1.551-.418A1.349,1.349,0,0,0,7.1-2.93ZM14.352.156A3.928,3.928,0,0,1,11.426-.98,4.124,4.124,0,0,1,10.3-4.008v-.234A5.072,5.072,0,0,1,10.793-6.5a3.716,3.716,0,0,1,1.371-1.551,3.625,3.625,0,0,1,1.969-.555,3.318,3.318,0,0,1,2.668,1.1,4.658,4.658,0,0,1,.941,3.117v.766H12.219a2.539,2.539,0,0,0,.7,1.656,2.1,2.1,0,0,0,1.543.609,2.571,2.571,0,0,0,2.125-1.055l1.023.977A3.418,3.418,0,0,1,16.254-.262,4.244,4.244,0,0,1,14.352.156Zm-.227-7.242a1.6,1.6,0,0,0-1.262.547,2.835,2.835,0,0,0-.613,1.523h3.617v-.141A2.307,2.307,0,0,0,15.359-6.6,1.586,1.586,0,0,0,14.125-7.086Zm4.758,2.8a4.944,4.944,0,0,1,.926-3.145,2.971,2.971,0,0,1,2.457-1.176A2.784,2.784,0,0,1,24.539-7.6l.086-.852h1.711v8.2A3.406,3.406,0,0,1,25.3,2.367a3.943,3.943,0,0,1-2.793.961,4.5,4.5,0,0,1-1.816-.387A3.227,3.227,0,0,1,19.344,1.93l.9-1.141A2.713,2.713,0,0,0,22.4,1.828a2.1,2.1,0,0,0,1.492-.512,1.961,1.961,0,0,0,.547-1.5v-.57A2.8,2.8,0,0,1,22.25.156a2.964,2.964,0,0,1-2.426-1.18A5.1,5.1,0,0,1,18.883-4.289Zm1.891.164a3.4,3.4,0,0,0,.52,2,1.671,1.671,0,0,0,1.441.73,1.827,1.827,0,0,0,1.7-.984V-6.094a1.8,1.8,0,0,0-1.687-.961,1.677,1.677,0,0,0-1.457.742A3.811,3.811,0,0,0,20.773-4.125Zm12.633,3.3a2.944,2.944,0,0,1-2.375.984,2.624,2.624,0,0,1-2.082-.8,3.423,3.423,0,0,1-.707-2.328V-8.453h1.9V-3q0,1.609,1.336,1.609a1.876,1.876,0,0,0,1.867-.992v-6.07h1.9V0H33.453Zm8.2-5.891a4.7,4.7,0,0,0-.773-.062,1.741,1.741,0,0,0-1.758,1V0h-1.9V-8.453h1.813l.047.945a2.139,2.139,0,0,1,1.906-1.1,1.777,1.777,0,0,1,.672.109ZM44.82,0h-1.9V-8.453h1.9ZM42.8-10.648a1.008,1.008,0,0,1,.277-.727,1.048,1.048,0,0,1,.793-.289,1.061,1.061,0,0,1,.8.289,1,1,0,0,1,.281.727.977.977,0,0,1-.281.715,1.069,1.069,0,0,1-.8.285,1.056,1.056,0,0,1-.793-.285A.984.984,0,0,1,42.8-10.648Zm3.727,6.359a5.026,5.026,0,0,1,.906-3.137,2.9,2.9,0,0,1,2.43-1.184,2.759,2.759,0,0,1,2.172.938V-12h1.9V0H52.219l-.094-.875A2.8,2.8,0,0,1,49.852.156a2.887,2.887,0,0,1-2.4-1.2A5.21,5.21,0,0,1,46.531-4.289Zm1.9.164a3.519,3.519,0,0,0,.5,2.012,1.61,1.61,0,0,0,1.41.723,1.793,1.793,0,0,0,1.7-1.039V-6.039a1.766,1.766,0,0,0-1.687-1.016,1.622,1.622,0,0,0-1.422.73A3.919,3.919,0,0,0,48.43-4.125ZM60.969,0a2.93,2.93,0,0,1-.219-.789,2.955,2.955,0,0,1-2.219.945A2.982,2.982,0,0,1,56.453-.57a2.325,2.325,0,0,1-.8-1.8,2.4,2.4,0,0,1,1-2.074,4.865,4.865,0,0,1,2.871-.723h1.164v-.555A1.481,1.481,0,0,0,60.32-6.77,1.456,1.456,0,0,0,59.2-7.164a1.672,1.672,0,0,0-1.062.324,1,1,0,0,0-.414.824h-1.9a2.107,2.107,0,0,1,.461-1.3,3.071,3.071,0,0,1,1.254-.949,4.4,4.4,0,0,1,1.77-.344,3.547,3.547,0,0,1,2.367.746,2.661,2.661,0,0,1,.906,2.1v3.813a4.321,4.321,0,0,0,.32,1.82V0ZM58.883-1.367a2.16,2.16,0,0,0,1.059-.273,1.827,1.827,0,0,0,.746-.734V-3.969H59.664a2.8,2.8,0,0,0-1.586.367,1.189,1.189,0,0,0-.531,1.039,1.109,1.109,0,0,0,.363.871A1.407,1.407,0,0,0,58.883-1.367Zm5.336-2.922a5.026,5.026,0,0,1,.906-3.137,2.9,2.9,0,0,1,2.43-1.184,2.759,2.759,0,0,1,2.172.938V-12h1.9V0H69.906l-.094-.875A2.8,2.8,0,0,1,67.539.156a2.887,2.887,0,0,1-2.4-1.2A5.21,5.21,0,0,1,64.219-4.289Zm1.9.164a3.519,3.519,0,0,0,.5,2.012,1.61,1.61,0,0,0,1.41.723,1.793,1.793,0,0,0,1.7-1.039V-6.039a1.766,1.766,0,0,0-1.687-1.016,1.622,1.622,0,0,0-1.422.73A3.918,3.918,0,0,0,66.117-4.125Z" transform="translate(-5426.054 -4411.682)" fill="#af58fa"/><path d="M-6847.279-4140.6v-71.519" transform="translate(-1303.075 -11208.324) rotate(-90)" fill="none" stroke="#af58fa" stroke-width="1"/><path d="M3.719-11.375,7-2.656l3.273-8.719h2.555V0H10.859V-3.75l.2-5.016L7.7,0H6.281L2.93-8.758l.2,5.008V0H1.156V-11.375ZM14.625-4.3a4.984,4.984,0,0,1,.492-2.238A3.6,3.6,0,0,1,16.5-8.074a3.9,3.9,0,0,1,2.047-.535,3.692,3.692,0,0,1,2.777,1.1,4.333,4.333,0,0,1,1.152,2.922l.008.445A5.029,5.029,0,0,1,22-1.906,3.551,3.551,0,0,1,20.629-.383a3.925,3.925,0,0,1-2.066.539A3.667,3.667,0,0,1,15.7-1.035a4.563,4.563,0,0,1-1.074-3.176Zm1.9.164A3.406,3.406,0,0,0,17.063-2.1a1.752,1.752,0,0,0,1.5.738,1.733,1.733,0,0,0,1.5-.75,3.762,3.762,0,0,0,.535-2.2,3.362,3.362,0,0,0-.551-2.031,1.759,1.759,0,0,0-1.5-.75,1.743,1.743,0,0,0-1.477.738A3.691,3.691,0,0,0,16.523-4.141Zm10.43,1.734,1.789-6.047H30.7L27.773,0H26.125L23.172-8.453h1.969ZM33.906,0h-1.9V-8.453h1.9ZM31.891-10.648a1.008,1.008,0,0,1,.277-.727,1.048,1.048,0,0,1,.793-.289,1.061,1.061,0,0,1,.8.289,1,1,0,0,1,.281.727.977.977,0,0,1-.281.715,1.069,1.069,0,0,1-.8.285,1.056,1.056,0,0,1-.793-.285A.984.984,0,0,1,31.891-10.648ZM37.992,0h-1.9V-12h1.9Zm4.086,0h-1.9V-8.453h1.9ZM40.063-10.648a1.008,1.008,0,0,1,.277-.727,1.048,1.048,0,0,1,.793-.289,1.061,1.061,0,0,1,.8.289,1,1,0,0,1,.281.727.977.977,0,0,1-.281.715,1.069,1.069,0,0,1-.8.285,1.056,1.056,0,0,1-.793-.285A.984.984,0,0,1,40.063-10.648Zm3.727,6.359A5.026,5.026,0,0,1,44.7-7.426a2.9,2.9,0,0,1,2.43-1.184,2.759,2.759,0,0,1,2.172.938V-12h1.9V0H49.477l-.094-.875A2.8,2.8,0,0,1,47.109.156a2.887,2.887,0,0,1-2.4-1.2A5.21,5.21,0,0,1,43.789-4.289Zm1.9.164a3.519,3.519,0,0,0,.5,2.012,1.61,1.61,0,0,0,1.41.723A1.793,1.793,0,0,0,49.3-2.43V-6.039a1.766,1.766,0,0,0-1.687-1.016,1.622,1.622,0,0,0-1.422.73A3.919,3.919,0,0,0,45.688-4.125ZM58.227,0a2.93,2.93,0,0,1-.219-.789,2.955,2.955,0,0,1-2.219.945A2.982,2.982,0,0,1,53.711-.57a2.325,2.325,0,0,1-.8-1.8,2.4,2.4,0,0,1,1-2.074,4.865,4.865,0,0,1,2.871-.723h1.164v-.555a1.481,1.481,0,0,0-.367-1.051,1.456,1.456,0,0,0-1.117-.395A1.672,1.672,0,0,0,55.4-6.84a1,1,0,0,0-.414.824h-1.9a2.107,2.107,0,0,1,.461-1.3A3.071,3.071,0,0,1,54.8-8.266a4.4,4.4,0,0,1,1.77-.344,3.547,3.547,0,0,1,2.367.746,2.661,2.661,0,0,1,.906,2.1v3.813a4.321,4.321,0,0,0,.32,1.82V0ZM56.141-1.367A2.16,2.16,0,0,0,57.2-1.641a1.827,1.827,0,0,0,.746-.734V-3.969H56.922a2.8,2.8,0,0,0-1.586.367A1.189,1.189,0,0,0,54.8-2.562a1.109,1.109,0,0,0,.363.871A1.407,1.407,0,0,0,56.141-1.367Zm5.336-2.922a5.026,5.026,0,0,1,.906-3.137,2.9,2.9,0,0,1,2.43-1.184,2.759,2.759,0,0,1,2.172.938V-12h1.9V0H67.164L67.07-.875A2.8,2.8,0,0,1,64.8.156a2.887,2.887,0,0,1-2.4-1.2A5.21,5.21,0,0,1,61.477-4.289Zm1.9.164a3.519,3.519,0,0,0,.5,2.012,1.61,1.61,0,0,0,1.41.723,1.793,1.793,0,0,0,1.7-1.039V-6.039A1.766,1.766,0,0,0,65.3-7.055a1.622,1.622,0,0,0-1.422.73A3.919,3.919,0,0,0,63.375-4.125Z" transform="translate(-5434.054 -4358.682)" fill="#af58fa"/><path d="M-6847.279-4140.6v-71.519" transform="translate(1227.394 -151.061)" fill="none" stroke="#af58fa" stroke-width="1"/><path d="M3.242,0H1.273V-11.375H3.242ZM7.25-8.453l.055.977A3.039,3.039,0,0,1,9.766-8.609q2.641,0,2.688,3.023V0h-1.9V-5.477a1.741,1.741,0,0,0-.348-1.191A1.462,1.462,0,0,0,9.07-7.055,1.829,1.829,0,0,0,7.359-6.016V0h-1.9V-8.453Zm6.8,4.164a4.944,4.944,0,0,1,.926-3.145,2.971,2.971,0,0,1,2.457-1.176A2.784,2.784,0,0,1,19.711-7.6l.086-.852h1.711v8.2a3.406,3.406,0,0,1-1.035,2.625,3.943,3.943,0,0,1-2.793.961,4.5,4.5,0,0,1-1.816-.387A3.227,3.227,0,0,1,14.516,1.93l.9-1.141A2.713,2.713,0,0,0,17.57,1.828a2.1,2.1,0,0,0,1.492-.512,1.961,1.961,0,0,0,.547-1.5v-.57a2.8,2.8,0,0,1-2.187.914A2.964,2.964,0,0,1,15-1.023,5.1,5.1,0,0,1,14.055-4.289Zm1.891.164a3.4,3.4,0,0,0,.52,2,1.671,1.671,0,0,0,1.441.73,1.827,1.827,0,0,0,1.7-.984V-6.094a1.8,1.8,0,0,0-1.687-.961,1.677,1.677,0,0,0-1.457.742A3.811,3.811,0,0,0,15.945-4.125ZM27.883-6.719a4.7,4.7,0,0,0-.773-.062,1.741,1.741,0,0,0-1.758,1V0h-1.9V-8.453h1.813l.047.945a2.139,2.139,0,0,1,1.906-1.1,1.777,1.777,0,0,1,.672.109ZM32.656.156A3.928,3.928,0,0,1,29.73-.98a4.124,4.124,0,0,1-1.121-3.027v-.234A5.072,5.072,0,0,1,29.1-6.5a3.716,3.716,0,0,1,1.371-1.551,3.625,3.625,0,0,1,1.969-.555,3.318,3.318,0,0,1,2.668,1.1,4.658,4.658,0,0,1,.941,3.117v.766H30.523a2.539,2.539,0,0,0,.7,1.656,2.1,2.1,0,0,0,1.543.609,2.571,2.571,0,0,0,2.125-1.055l1.023.977A3.418,3.418,0,0,1,34.559-.262,4.244,4.244,0,0,1,32.656.156ZM32.43-7.086a1.6,1.6,0,0,0-1.262.547,2.835,2.835,0,0,0-.613,1.523h3.617v-.141A2.307,2.307,0,0,0,33.664-6.6,1.586,1.586,0,0,0,32.43-7.086ZM42.258-2.3a.861.861,0,0,0-.418-.773,4.445,4.445,0,0,0-1.387-.469,7.129,7.129,0,0,1-1.617-.516,2.158,2.158,0,0,1-1.422-1.992,2.25,2.25,0,0,1,.922-1.828,3.644,3.644,0,0,1,2.344-.734,3.792,3.792,0,0,1,2.449.75,2.38,2.38,0,0,1,.934,1.945h-1.9a1.17,1.17,0,0,0-.406-.91,1.557,1.557,0,0,0-1.078-.363,1.682,1.682,0,0,0-1.02.289.911.911,0,0,0-.395.773.769.769,0,0,0,.367.68,5.049,5.049,0,0,0,1.484.488,7.027,7.027,0,0,1,1.754.586,2.484,2.484,0,0,1,.945.816A2.082,2.082,0,0,1,44.125-2.4,2.2,2.2,0,0,1,43.18-.551,4.031,4.031,0,0,1,40.7.156a4.371,4.371,0,0,1-1.852-.375A3.047,3.047,0,0,1,37.586-1.25a2.441,2.441,0,0,1-.453-1.414h1.844a1.338,1.338,0,0,0,.508,1.035,1.973,1.973,0,0,0,1.242.363,1.92,1.92,0,0,0,1.141-.285A.883.883,0,0,0,42.258-2.3ZM45.422-4.3a4.984,4.984,0,0,1,.492-2.238A3.6,3.6,0,0,1,47.3-8.074a3.9,3.9,0,0,1,2.047-.535,3.692,3.692,0,0,1,2.777,1.1,4.333,4.333,0,0,1,1.152,2.922l.008.445a5.029,5.029,0,0,1-.48,2.234A3.551,3.551,0,0,1,51.426-.383a3.925,3.925,0,0,1-2.066.539A3.667,3.667,0,0,1,46.5-1.035a4.563,4.563,0,0,1-1.074-3.176Zm1.9.164A3.406,3.406,0,0,0,47.859-2.1a1.752,1.752,0,0,0,1.5.738,1.733,1.733,0,0,0,1.5-.75,3.762,3.762,0,0,0,.535-2.2,3.362,3.362,0,0,0-.551-2.031,1.759,1.759,0,0,0-1.5-.75,1.743,1.743,0,0,0-1.477.738A3.691,3.691,0,0,0,47.32-4.141ZM59.625-2.3a.861.861,0,0,0-.418-.773,4.445,4.445,0,0,0-1.387-.469A7.129,7.129,0,0,1,56.2-4.055a2.158,2.158,0,0,1-1.422-1.992A2.25,2.25,0,0,1,55.7-7.875a3.644,3.644,0,0,1,2.344-.734,3.792,3.792,0,0,1,2.449.75,2.38,2.38,0,0,1,.934,1.945h-1.9a1.17,1.17,0,0,0-.406-.91,1.557,1.557,0,0,0-1.078-.363,1.682,1.682,0,0,0-1.02.289.911.911,0,0,0-.395.773.769.769,0,0,0,.367.68,5.049,5.049,0,0,0,1.484.488,7.027,7.027,0,0,1,1.754.586,2.484,2.484,0,0,1,.945.816A2.082,2.082,0,0,1,61.492-2.4a2.2,2.2,0,0,1-.945,1.848A4.031,4.031,0,0,1,58.07.156a4.371,4.371,0,0,1-1.852-.375A3.047,3.047,0,0,1,54.953-1.25,2.441,2.441,0,0,1,54.5-2.664h1.844a1.338,1.338,0,0,0,.508,1.035,1.973,1.973,0,0,0,1.242.363,1.92,1.92,0,0,0,1.141-.285A.883.883,0,0,0,59.625-2.3Z" transform="translate(-5651.626 -4271.682)" fill="#af58fa"/><path d="M-6847.279-4140.6v-71.519" transform="translate(-1588.271 -11208.324) rotate(-90)" fill="none" stroke="#af58fa" stroke-width="1"/><path d="M7.1-2.93a1.374,1.374,0,0,0-.527-1.156,6.345,6.345,0,0,0-1.9-.82,9.186,9.186,0,0,1-2.187-.922A2.919,2.919,0,0,1,.93-8.375a2.772,2.772,0,0,1,1.121-2.266,4.538,4.538,0,0,1,2.91-.891,4.916,4.916,0,0,1,2.117.438A3.475,3.475,0,0,1,8.539-9.848,3.2,3.2,0,0,1,9.07-8.055H7.1a1.782,1.782,0,0,0-.559-1.395,2.305,2.305,0,0,0-1.6-.5,2.408,2.408,0,0,0-1.5.414,1.379,1.379,0,0,0-.535,1.156A1.247,1.247,0,0,0,3.484-7.34a6.66,6.66,0,0,0,1.906.813,8.768,8.768,0,0,1,2.133.9A3.392,3.392,0,0,1,8.7-4.473a3.011,3.011,0,0,1,.375,1.527A2.707,2.707,0,0,1,7.988-.684a4.727,4.727,0,0,1-2.957.84A5.557,5.557,0,0,1,2.762-.3,3.812,3.812,0,0,1,1.152-1.562,3.144,3.144,0,0,1,.578-3.437H2.555a1.84,1.84,0,0,0,.641,1.5,2.805,2.805,0,0,0,1.836.531,2.437,2.437,0,0,0,1.551-.418A1.349,1.349,0,0,0,7.1-2.93ZM15.68,0a2.93,2.93,0,0,1-.219-.789,2.955,2.955,0,0,1-2.219.945A2.982,2.982,0,0,1,11.164-.57a2.325,2.325,0,0,1-.8-1.8,2.4,2.4,0,0,1,1-2.074,4.865,4.865,0,0,1,2.871-.723H15.4v-.555a1.481,1.481,0,0,0-.367-1.051,1.456,1.456,0,0,0-1.117-.395,1.672,1.672,0,0,0-1.062.324,1,1,0,0,0-.414.824h-1.9A2.107,2.107,0,0,1,11-7.316a3.071,3.071,0,0,1,1.254-.949,4.4,4.4,0,0,1,1.77-.344,3.547,3.547,0,0,1,2.367.746,2.661,2.661,0,0,1,.906,2.1v3.813a4.321,4.321,0,0,0,.32,1.82V0ZM13.594-1.367a2.159,2.159,0,0,0,1.059-.273,1.827,1.827,0,0,0,.746-.734V-3.969H14.375a2.8,2.8,0,0,0-1.586.367,1.189,1.189,0,0,0-.531,1.039,1.109,1.109,0,0,0,.363.871A1.407,1.407,0,0,0,13.594-1.367Zm8.07-9.141v2.055h1.492v1.406H21.664v4.719a1.039,1.039,0,0,0,.191.7.888.888,0,0,0,.684.215,2.924,2.924,0,0,0,.664-.078V-.023a4.676,4.676,0,0,1-1.25.18q-2.188,0-2.187-2.414V-7.047H18.375V-8.453h1.391v-2.055ZM26.625,0h-1.9V-8.453h1.9ZM24.609-10.648a1.008,1.008,0,0,1,.277-.727,1.048,1.048,0,0,1,.793-.289,1.061,1.061,0,0,1,.8.289,1,1,0,0,1,.281.727.977.977,0,0,1-.281.715,1.069,1.069,0,0,1-.8.285,1.056,1.056,0,0,1-.793-.285A.984.984,0,0,1,24.609-10.648ZM33.43-2.3a.861.861,0,0,0-.418-.773,4.445,4.445,0,0,0-1.387-.469,7.129,7.129,0,0,1-1.617-.516,2.158,2.158,0,0,1-1.422-1.992,2.25,2.25,0,0,1,.922-1.828,3.644,3.644,0,0,1,2.344-.734,3.792,3.792,0,0,1,2.449.75,2.38,2.38,0,0,1,.934,1.945h-1.9a1.17,1.17,0,0,0-.406-.91,1.557,1.557,0,0,0-1.078-.363,1.682,1.682,0,0,0-1.02.289.911.911,0,0,0-.395.773.769.769,0,0,0,.367.68,5.049,5.049,0,0,0,1.484.488,7.027,7.027,0,0,1,1.754.586,2.484,2.484,0,0,1,.945.816A2.082,2.082,0,0,1,35.3-2.4a2.2,2.2,0,0,1-.945,1.848,4.031,4.031,0,0,1-2.477.707,4.371,4.371,0,0,1-1.852-.375A3.047,3.047,0,0,1,28.758-1.25,2.441,2.441,0,0,1,28.3-2.664h1.844a1.338,1.338,0,0,0,.508,1.035,1.973,1.973,0,0,0,1.242.363,1.92,1.92,0,0,0,1.141-.285A.883.883,0,0,0,33.43-2.3ZM37.617,0V-7.047H36.328V-8.453h1.289v-.773A2.9,2.9,0,0,1,38.4-11.4a2.993,2.993,0,0,1,2.188-.766,4.388,4.388,0,0,1,1.063.141L41.6-10.539a3.739,3.739,0,0,0-.727-.062,1.219,1.219,0,0,0-1.359,1.4v.75h1.719v1.406H39.516V0ZM47.672,0a2.93,2.93,0,0,1-.219-.789,2.955,2.955,0,0,1-2.219.945A2.982,2.982,0,0,1,43.156-.57a2.325,2.325,0,0,1-.8-1.8,2.4,2.4,0,0,1,1-2.074,4.865,4.865,0,0,1,2.871-.723h1.164v-.555a1.481,1.481,0,0,0-.367-1.051,1.456,1.456,0,0,0-1.117-.395,1.672,1.672,0,0,0-1.062.324,1,1,0,0,0-.414.824h-1.9a2.107,2.107,0,0,1,.461-1.3,3.071,3.071,0,0,1,1.254-.949,4.4,4.4,0,0,1,1.77-.344,3.547,3.547,0,0,1,2.367.746,2.661,2.661,0,0,1,.906,2.1v3.813a4.321,4.321,0,0,0,.32,1.82V0ZM45.586-1.367a2.16,2.16,0,0,0,1.059-.273,1.827,1.827,0,0,0,.746-.734V-3.969H46.367a2.8,2.8,0,0,0-1.586.367,1.189,1.189,0,0,0-.531,1.039,1.109,1.109,0,0,0,.363.871A1.407,1.407,0,0,0,45.586-1.367Zm9.164.008a1.716,1.716,0,0,0,1.18-.414,1.415,1.415,0,0,0,.5-1.023h1.789a2.789,2.789,0,0,1-.492,1.473,3.228,3.228,0,0,1-1.25,1.082,3.725,3.725,0,0,1-1.7.4A3.6,3.6,0,0,1,51.961-.992a4.555,4.555,0,0,1-1.039-3.172v-.2a4.479,4.479,0,0,1,1.031-3.09,3.571,3.571,0,0,1,2.813-1.16,3.473,3.473,0,0,1,2.457.879,3.148,3.148,0,0,1,1,2.309H56.43a1.738,1.738,0,0,0-.5-1.2,1.6,1.6,0,0,0-1.184-.469,1.671,1.671,0,0,0-1.422.668,3.408,3.408,0,0,0-.508,2.027v.3a3.465,3.465,0,0,0,.5,2.051A1.669,1.669,0,0,0,54.75-1.359Zm8.375,0a1.716,1.716,0,0,0,1.18-.414A1.415,1.415,0,0,0,64.8-2.8h1.789A2.789,2.789,0,0,1,66.1-1.324a3.228,3.228,0,0,1-1.25,1.082,3.725,3.725,0,0,1-1.7.4A3.6,3.6,0,0,1,60.336-.992,4.555,4.555,0,0,1,59.3-4.164v-.2a4.479,4.479,0,0,1,1.031-3.09,3.571,3.571,0,0,1,2.813-1.16A3.473,3.473,0,0,1,65.6-7.73a3.148,3.148,0,0,1,1,2.309H64.8a1.738,1.738,0,0,0-.5-1.2,1.6,1.6,0,0,0-1.184-.469,1.671,1.671,0,0,0-1.422.668A3.408,3.408,0,0,0,61.2-4.391v.3a3.465,3.465,0,0,0,.5,2.051A1.669,1.669,0,0,0,63.125-1.359ZM70.047,0h-1.9V-8.453h1.9ZM68.031-10.648a1.008,1.008,0,0,1,.277-.727,1.048,1.048,0,0,1,.793-.289,1.061,1.061,0,0,1,.8.289,1,1,0,0,1,.281.727.977.977,0,0,1-.281.715,1.069,1.069,0,0,1-.8.285,1.056,1.056,0,0,1-.793-.285A.984.984,0,0,1,68.031-10.648ZM71.758-4.3a4.984,4.984,0,0,1,.492-2.238,3.6,3.6,0,0,1,1.383-1.531,3.9,3.9,0,0,1,2.047-.535,3.692,3.692,0,0,1,2.777,1.1,4.333,4.333,0,0,1,1.152,2.922l.008.445a5.029,5.029,0,0,1-.48,2.234A3.551,3.551,0,0,1,77.762-.383,3.925,3.925,0,0,1,75.7.156a3.667,3.667,0,0,1-2.863-1.191,4.563,4.563,0,0,1-1.074-3.176Zm1.9.164A3.406,3.406,0,0,0,74.2-2.1a1.752,1.752,0,0,0,1.5.738,1.733,1.733,0,0,0,1.5-.75,3.762,3.762,0,0,0,.535-2.2,3.362,3.362,0,0,0-.551-2.031,1.759,1.759,0,0,0-1.5-.75,1.743,1.743,0,0,0-1.477.738A3.691,3.691,0,0,0,73.656-4.141ZM76.2-12h2.164L76.2-9.633H74.68Zm6.781,3.547.055.977A3.039,3.039,0,0,1,85.5-8.609q2.641,0,2.688,3.023V0h-1.9V-5.477a1.741,1.741,0,0,0-.348-1.191A1.462,1.462,0,0,0,84.8-7.055a1.829,1.829,0,0,0-1.711,1.039V0H81.2V-8.453Zm18.523,4.313a5.033,5.033,0,0,1-.891,3.129A2.852,2.852,0,0,1,98.227.156,2.871,2.871,0,0,1,96-.758V3.25H94.1v-11.7h1.75l.078.859A2.788,2.788,0,0,1,98.2-8.609a2.881,2.881,0,0,1,2.426,1.152,5.167,5.167,0,0,1,.879,3.2ZM99.617-4.3a3.526,3.526,0,0,0-.5-2.008,1.638,1.638,0,0,0-1.441-.742A1.747,1.747,0,0,0,96-6.094v3.75a1.763,1.763,0,0,0,1.688.984,1.636,1.636,0,0,0,1.418-.73A3.881,3.881,0,0,0,99.617-4.3ZM106.836.156A3.928,3.928,0,0,1,103.91-.98a4.124,4.124,0,0,1-1.121-3.027v-.234a5.072,5.072,0,0,1,.488-2.262,3.716,3.716,0,0,1,1.371-1.551,3.625,3.625,0,0,1,1.969-.555,3.318,3.318,0,0,1,2.668,1.1,4.658,4.658,0,0,1,.941,3.117v.766H104.7a2.539,2.539,0,0,0,.7,1.656,2.1,2.1,0,0,0,1.543.609,2.571,2.571,0,0,0,2.125-1.055l1.023.977a3.418,3.418,0,0,1-1.355,1.176A4.244,4.244,0,0,1,106.836.156Zm-.227-7.242a1.6,1.6,0,0,0-1.262.547,2.835,2.835,0,0,0-.613,1.523h3.617v-.141a2.307,2.307,0,0,0-.508-1.441A1.586,1.586,0,0,0,106.609-7.086Zm9.516.367a4.7,4.7,0,0,0-.773-.062,1.741,1.741,0,0,0-1.758,1V0h-1.9V-8.453h1.813l.047.945a2.139,2.139,0,0,1,1.906-1.1,1.777,1.777,0,0,1,.672.109ZM122.063-2.3a.861.861,0,0,0-.418-.773,4.445,4.445,0,0,0-1.387-.469,7.129,7.129,0,0,1-1.617-.516,2.158,2.158,0,0,1-1.422-1.992,2.25,2.25,0,0,1,.922-1.828,3.644,3.644,0,0,1,2.344-.734,3.792,3.792,0,0,1,2.449.75,2.38,2.38,0,0,1,.934,1.945h-1.9a1.17,1.17,0,0,0-.406-.91,1.557,1.557,0,0,0-1.078-.363,1.682,1.682,0,0,0-1.02.289.911.911,0,0,0-.395.773.769.769,0,0,0,.367.68,5.049,5.049,0,0,0,1.484.488,7.027,7.027,0,0,1,1.754.586,2.484,2.484,0,0,1,.945.816A2.082,2.082,0,0,1,123.93-2.4a2.2,2.2,0,0,1-.945,1.848,4.031,4.031,0,0,1-2.477.707,4.371,4.371,0,0,1-1.852-.375,3.047,3.047,0,0,1-1.266-1.031,2.441,2.441,0,0,1-.453-1.414h1.844a1.338,1.338,0,0,0,.508,1.035,1.973,1.973,0,0,0,1.242.363,1.92,1.92,0,0,0,1.141-.285A.883.883,0,0,0,122.063-2.3ZM125.227-4.3a4.984,4.984,0,0,1,.492-2.238A3.6,3.6,0,0,1,127.1-8.074a3.9,3.9,0,0,1,2.047-.535,3.692,3.692,0,0,1,2.777,1.1,4.333,4.333,0,0,1,1.152,2.922l.008.445a5.029,5.029,0,0,1-.48,2.234A3.551,3.551,0,0,1,131.23-.383a3.925,3.925,0,0,1-2.066.539A3.667,3.667,0,0,1,126.3-1.035a4.563,4.563,0,0,1-1.074-3.176Zm1.9.164a3.406,3.406,0,0,0,.539,2.043,1.752,1.752,0,0,0,1.5.738,1.733,1.733,0,0,0,1.5-.75,3.762,3.762,0,0,0,.535-2.2,3.362,3.362,0,0,0-.551-2.031,1.759,1.759,0,0,0-1.5-.75,1.743,1.743,0,0,0-1.477.738A3.691,3.691,0,0,0,127.125-4.141Zm9.328-4.312.055.977a3.039,3.039,0,0,1,2.461-1.133q2.641,0,2.688,3.023V0h-1.9V-5.477a1.741,1.741,0,0,0-.348-1.191,1.462,1.462,0,0,0-1.137-.387,1.829,1.829,0,0,0-1.711,1.039V0h-1.9V-8.453ZM148.641,0a2.93,2.93,0,0,1-.219-.789A2.955,2.955,0,0,1,146.2.156a2.982,2.982,0,0,1-2.078-.727,2.325,2.325,0,0,1-.8-1.8,2.4,2.4,0,0,1,1-2.074,4.865,4.865,0,0,1,2.871-.723h1.164v-.555a1.481,1.481,0,0,0-.367-1.051,1.456,1.456,0,0,0-1.117-.395,1.672,1.672,0,0,0-1.062.324,1,1,0,0,0-.414.824h-1.9a2.107,2.107,0,0,1,.461-1.3,3.071,3.071,0,0,1,1.254-.949,4.4,4.4,0,0,1,1.77-.344,3.547,3.547,0,0,1,2.367.746,2.661,2.661,0,0,1,.906,2.1v3.813a4.321,4.321,0,0,0,.32,1.82V0Zm-2.086-1.367a2.16,2.16,0,0,0,1.059-.273,1.827,1.827,0,0,0,.746-.734V-3.969h-1.023a2.8,2.8,0,0,0-1.586.367,1.189,1.189,0,0,0-.531,1.039,1.109,1.109,0,0,0,.363.871A1.407,1.407,0,0,0,146.555-1.367ZM154.266,0h-1.9V-12h1.9Z" transform="translate(-5965.019 -4358.682)" fill="#af58fa"/><path d="M-6847.279-4140.6v-71.519" transform="translate(-1266.003 -11408.961) rotate(-90)" fill="none" stroke="#af58fa" stroke-width="1"/><path d="M1.156,0V-11.375H4.516a5.269,5.269,0,0,1,2.676.672A4.581,4.581,0,0,1,9-8.8a6.051,6.051,0,0,1,.641,2.828v.57A6.026,6.026,0,0,1,9-2.555,4.526,4.526,0,0,1,7.16-.664,5.513,5.513,0,0,1,4.43,0ZM3.133-9.781v8.2H4.422a2.968,2.968,0,0,0,2.387-.973,4.237,4.237,0,0,0,.848-2.793v-.633a4.347,4.347,0,0,0-.8-2.828,2.853,2.853,0,0,0-2.336-.977ZM13.445,0h-1.9V-8.453h1.9ZM11.43-10.648a1.008,1.008,0,0,1,.277-.727,1.048,1.048,0,0,1,.793-.289,1.061,1.061,0,0,1,.8.289,1,1,0,0,1,.281.727.977.977,0,0,1-.281.715,1.069,1.069,0,0,1-.8.285,1.056,1.056,0,0,1-.793-.285A.984.984,0,0,1,11.43-10.648ZM16.18,0V-7.047H14.891V-8.453H16.18v-.773a2.9,2.9,0,0,1,.781-2.172,2.993,2.993,0,0,1,2.188-.766,4.388,4.388,0,0,1,1.063.141l-.047,1.484a3.739,3.739,0,0,0-.727-.062,1.219,1.219,0,0,0-1.359,1.4v.75H19.8v1.406H18.078V0Zm8.539.156A3.928,3.928,0,0,1,21.793-.98a4.124,4.124,0,0,1-1.121-3.027v-.234A5.072,5.072,0,0,1,21.16-6.5a3.716,3.716,0,0,1,1.371-1.551A3.625,3.625,0,0,1,24.5-8.609a3.318,3.318,0,0,1,2.668,1.1,4.658,4.658,0,0,1,.941,3.117v.766H22.586a2.539,2.539,0,0,0,.7,1.656,2.1,2.1,0,0,0,1.543.609,2.571,2.571,0,0,0,2.125-1.055l1.023.977A3.418,3.418,0,0,1,26.621-.262,4.244,4.244,0,0,1,24.719.156Zm-.227-7.242a1.6,1.6,0,0,0-1.262.547,2.835,2.835,0,0,0-.613,1.523h3.617v-.141A2.307,2.307,0,0,0,25.727-6.6,1.586,1.586,0,0,0,24.492-7.086Zm9.516.367a4.7,4.7,0,0,0-.773-.062,1.741,1.741,0,0,0-1.758,1V0h-1.9V-8.453h1.813l.047.945a2.139,2.139,0,0,1,1.906-1.1,1.777,1.777,0,0,1,.672.109ZM38.781.156A3.928,3.928,0,0,1,35.855-.98a4.124,4.124,0,0,1-1.121-3.027v-.234A5.072,5.072,0,0,1,35.223-6.5a3.716,3.716,0,0,1,1.371-1.551,3.625,3.625,0,0,1,1.969-.555,3.318,3.318,0,0,1,2.668,1.1,4.658,4.658,0,0,1,.941,3.117v.766H36.648a2.539,2.539,0,0,0,.7,1.656,2.1,2.1,0,0,0,1.543.609,2.571,2.571,0,0,0,2.125-1.055l1.023.977A3.418,3.418,0,0,1,40.684-.262,4.244,4.244,0,0,1,38.781.156Zm-.227-7.242a1.6,1.6,0,0,0-1.262.547,2.835,2.835,0,0,0-.613,1.523H40.3v-.141A2.307,2.307,0,0,0,39.789-6.6,1.586,1.586,0,0,0,38.555-7.086Zm6.852-1.367.055.977a3.039,3.039,0,0,1,2.461-1.133q2.641,0,2.688,3.023V0h-1.9V-5.477a1.741,1.741,0,0,0-.348-1.191,1.462,1.462,0,0,0-1.137-.387,1.829,1.829,0,0,0-1.711,1.039V0h-1.9V-8.453ZM56.016-1.359a1.716,1.716,0,0,0,1.18-.414A1.415,1.415,0,0,0,57.7-2.8h1.789a2.789,2.789,0,0,1-.492,1.473,3.228,3.228,0,0,1-1.25,1.082,3.725,3.725,0,0,1-1.7.4A3.6,3.6,0,0,1,53.227-.992a4.555,4.555,0,0,1-1.039-3.172v-.2a4.479,4.479,0,0,1,1.031-3.09,3.571,3.571,0,0,1,2.813-1.16,3.473,3.473,0,0,1,2.457.879,3.148,3.148,0,0,1,1,2.309H57.7a1.738,1.738,0,0,0-.5-1.2,1.6,1.6,0,0,0-1.184-.469,1.671,1.671,0,0,0-1.422.668,3.408,3.408,0,0,0-.508,2.027v.3a3.465,3.465,0,0,0,.5,2.051A1.669,1.669,0,0,0,56.016-1.359ZM62.938,0h-1.9V-8.453h1.9ZM60.922-10.648a1.008,1.008,0,0,1,.277-.727,1.048,1.048,0,0,1,.793-.289,1.061,1.061,0,0,1,.8.289,1,1,0,0,1,.281.727.977.977,0,0,1-.281.715,1.069,1.069,0,0,1-.8.285,1.056,1.056,0,0,1-.793-.285A.984.984,0,0,1,60.922-10.648ZM70.055,0a2.93,2.93,0,0,1-.219-.789,2.955,2.955,0,0,1-2.219.945A2.982,2.982,0,0,1,65.539-.57a2.325,2.325,0,0,1-.8-1.8,2.4,2.4,0,0,1,1-2.074,4.865,4.865,0,0,1,2.871-.723h1.164v-.555a1.481,1.481,0,0,0-.367-1.051,1.456,1.456,0,0,0-1.117-.395,1.672,1.672,0,0,0-1.062.324,1,1,0,0,0-.414.824h-1.9a2.107,2.107,0,0,1,.461-1.3,3.071,3.071,0,0,1,1.254-.949,4.4,4.4,0,0,1,1.77-.344,3.547,3.547,0,0,1,2.367.746,2.661,2.661,0,0,1,.906,2.1v3.813a4.321,4.321,0,0,0,.32,1.82V0ZM67.969-1.367a2.159,2.159,0,0,0,1.059-.273,1.827,1.827,0,0,0,.746-.734V-3.969H68.75a2.8,2.8,0,0,0-1.586.367,1.189,1.189,0,0,0-.531,1.039A1.109,1.109,0,0,0,67-1.691,1.407,1.407,0,0,0,67.969-1.367Zm9.164.008a1.716,1.716,0,0,0,1.18-.414,1.415,1.415,0,0,0,.5-1.023H80.6a2.789,2.789,0,0,1-.492,1.473,3.228,3.228,0,0,1-1.25,1.082,3.725,3.725,0,0,1-1.7.4A3.6,3.6,0,0,1,74.344-.992,4.555,4.555,0,0,1,73.3-4.164v-.2a4.479,4.479,0,0,1,1.031-3.09,3.571,3.571,0,0,1,2.813-1.16,3.473,3.473,0,0,1,2.457.879,3.148,3.148,0,0,1,1,2.309H78.813a1.738,1.738,0,0,0-.5-1.2,1.6,1.6,0,0,0-1.184-.469,1.671,1.671,0,0,0-1.422.668A3.408,3.408,0,0,0,75.2-4.391v.3a3.465,3.465,0,0,0,.5,2.051A1.669,1.669,0,0,0,77.133-1.359ZM84.055,0h-1.9V-8.453h1.9ZM82.039-10.648a1.008,1.008,0,0,1,.277-.727,1.048,1.048,0,0,1,.793-.289,1.061,1.061,0,0,1,.8.289,1,1,0,0,1,.281.727.977.977,0,0,1-.281.715,1.069,1.069,0,0,1-.8.285,1.056,1.056,0,0,1-.793-.285A.984.984,0,0,1,82.039-10.648ZM85.766-4.3a4.984,4.984,0,0,1,.492-2.238,3.6,3.6,0,0,1,1.383-1.531,3.9,3.9,0,0,1,2.047-.535,3.692,3.692,0,0,1,2.777,1.1,4.333,4.333,0,0,1,1.152,2.922l.008.445a5.029,5.029,0,0,1-.48,2.234A3.551,3.551,0,0,1,91.77-.383,3.925,3.925,0,0,1,89.7.156,3.667,3.667,0,0,1,86.84-1.035a4.563,4.563,0,0,1-1.074-3.176Zm1.9.164A3.406,3.406,0,0,0,88.2-2.1a1.752,1.752,0,0,0,1.5.738,1.733,1.733,0,0,0,1.5-.75,3.762,3.762,0,0,0,.535-2.2,3.362,3.362,0,0,0-.551-2.031,1.759,1.759,0,0,0-1.5-.75,1.743,1.743,0,0,0-1.477.738A3.691,3.691,0,0,0,87.664-4.141ZM90.211-12h2.164L90.211-9.633H88.688Zm6.781,3.547.055.977a3.039,3.039,0,0,1,2.461-1.133q2.641,0,2.688,3.023V0h-1.9V-5.477a1.741,1.741,0,0,0-.348-1.191,1.462,1.462,0,0,0-1.137-.387A1.829,1.829,0,0,0,97.1-6.016V0H95.2V-8.453ZM108.781,0V-7.047h-1.289V-8.453h1.289v-.773a2.9,2.9,0,0,1,.781-2.172,2.993,2.993,0,0,1,2.188-.766,4.388,4.388,0,0,1,1.063.141l-.047,1.484a3.739,3.739,0,0,0-.727-.062,1.219,1.219,0,0,0-1.359,1.4v.75H112.4v1.406H110.68V0Zm9.43-6.719a4.7,4.7,0,0,0-.773-.062,1.741,1.741,0,0,0-1.758,1V0h-1.9V-8.453h1.813l.047.945a2.139,2.139,0,0,1,1.906-1.1,1.777,1.777,0,0,1,.672.109ZM122.984.156A3.928,3.928,0,0,1,120.059-.98a4.124,4.124,0,0,1-1.121-3.027v-.234a5.072,5.072,0,0,1,.488-2.262A3.716,3.716,0,0,1,120.8-8.055a3.625,3.625,0,0,1,1.969-.555,3.318,3.318,0,0,1,2.668,1.1,4.658,4.658,0,0,1,.941,3.117v.766h-5.523a2.539,2.539,0,0,0,.7,1.656,2.1,2.1,0,0,0,1.543.609,2.571,2.571,0,0,0,2.125-1.055l1.023.977a3.418,3.418,0,0,1-1.355,1.176A4.244,4.244,0,0,1,122.984.156Zm-.227-7.242a1.6,1.6,0,0,0-1.262.547,2.835,2.835,0,0,0-.613,1.523H124.5v-.141a2.307,2.307,0,0,0-.508-1.441A1.586,1.586,0,0,0,122.758-7.086Zm6.852-1.367.055.977a3.039,3.039,0,0,1,2.461-1.133q2.641,0,2.688,3.023V0h-1.9V-5.477a1.741,1.741,0,0,0-.348-1.191,1.462,1.462,0,0,0-1.137-.387,1.829,1.829,0,0,0-1.711,1.039V0h-1.9V-8.453Zm9.516-2.055v2.055h1.492v1.406h-1.492v4.719a1.039,1.039,0,0,0,.191.7.888.888,0,0,0,.684.215,2.924,2.924,0,0,0,.664-.078V-.023a4.676,4.676,0,0,1-1.25.18q-2.187,0-2.187-2.414V-7.047h-1.391V-8.453h1.391v-2.055ZM145.789.156A3.928,3.928,0,0,1,142.863-.98a4.124,4.124,0,0,1-1.121-3.027v-.234A5.072,5.072,0,0,1,142.23-6.5,3.716,3.716,0,0,1,143.6-8.055a3.625,3.625,0,0,1,1.969-.555,3.318,3.318,0,0,1,2.668,1.1,4.658,4.658,0,0,1,.941,3.117v.766h-5.523a2.539,2.539,0,0,0,.7,1.656,2.1,2.1,0,0,0,1.543.609,2.571,2.571,0,0,0,2.125-1.055l1.023.977a3.418,3.418,0,0,1-1.355,1.176A4.244,4.244,0,0,1,145.789.156Zm-.227-7.242a1.6,1.6,0,0,0-1.262.547,2.835,2.835,0,0,0-.613,1.523H147.3v-.141A2.308,2.308,0,0,0,146.8-6.6,1.586,1.586,0,0,0,145.563-7.086ZM159.688,0a2.93,2.93,0,0,1-.219-.789,2.955,2.955,0,0,1-2.219.945,2.982,2.982,0,0,1-2.078-.727,2.325,2.325,0,0,1-.8-1.8,2.4,2.4,0,0,1,1-2.074,4.865,4.865,0,0,1,2.871-.723h1.164v-.555a1.481,1.481,0,0,0-.367-1.051,1.456,1.456,0,0,0-1.117-.395,1.672,1.672,0,0,0-1.062.324,1,1,0,0,0-.414.824h-1.9a2.107,2.107,0,0,1,.461-1.3,3.071,3.071,0,0,1,1.254-.949,4.4,4.4,0,0,1,1.77-.344,3.547,3.547,0,0,1,2.367.746,2.661,2.661,0,0,1,.906,2.1v3.813a4.321,4.321,0,0,0,.32,1.82V0ZM157.6-1.367a2.16,2.16,0,0,0,1.059-.273,1.827,1.827,0,0,0,.746-.734V-3.969h-1.023A2.8,2.8,0,0,0,156.8-3.6a1.189,1.189,0,0,0-.531,1.039,1.109,1.109,0,0,0,.363.871A1.407,1.407,0,0,0,157.6-1.367ZM169.3,0h-1.9V-12h1.9Zm7.117,0a2.93,2.93,0,0,1-.219-.789,2.955,2.955,0,0,1-2.219.945A2.982,2.982,0,0,1,171.9-.57a2.325,2.325,0,0,1-.8-1.8,2.4,2.4,0,0,1,1-2.074,4.865,4.865,0,0,1,2.871-.723h1.164v-.555a1.481,1.481,0,0,0-.367-1.051,1.456,1.456,0,0,0-1.117-.395,1.672,1.672,0,0,0-1.062.324,1,1,0,0,0-.414.824h-1.9a2.107,2.107,0,0,1,.461-1.3,3.071,3.071,0,0,1,1.254-.949,4.4,4.4,0,0,1,1.77-.344,3.547,3.547,0,0,1,2.367.746,2.661,2.661,0,0,1,.906,2.1v3.813a4.321,4.321,0,0,0,.32,1.82V0Zm-2.086-1.367a2.16,2.16,0,0,0,1.059-.273,1.827,1.827,0,0,0,.746-.734V-3.969h-1.023a2.8,2.8,0,0,0-1.586.367,1.189,1.189,0,0,0-.531,1.039,1.109,1.109,0,0,0,.363.871A1.407,1.407,0,0,0,174.328-1.367Zm13.148.008a1.716,1.716,0,0,0,1.18-.414,1.415,1.415,0,0,0,.5-1.023h1.789a2.788,2.788,0,0,1-.492,1.473A3.228,3.228,0,0,1,189.2-.242a3.725,3.725,0,0,1-1.7.4,3.6,3.6,0,0,1-2.812-1.148,4.555,4.555,0,0,1-1.039-3.172v-.2a4.479,4.479,0,0,1,1.031-3.09,3.571,3.571,0,0,1,2.813-1.16,3.473,3.473,0,0,1,2.457.879,3.148,3.148,0,0,1,1,2.309h-1.789a1.738,1.738,0,0,0-.5-1.2,1.6,1.6,0,0,0-1.184-.469,1.671,1.671,0,0,0-1.422.668,3.408,3.408,0,0,0-.508,2.027v.3a3.465,3.465,0,0,0,.5,2.051A1.669,1.669,0,0,0,187.477-1.359ZM192.023-4.3a4.984,4.984,0,0,1,.492-2.238A3.6,3.6,0,0,1,193.9-8.074a3.9,3.9,0,0,1,2.047-.535,3.692,3.692,0,0,1,2.777,1.1,4.333,4.333,0,0,1,1.152,2.922l.008.445a5.029,5.029,0,0,1-.48,2.234,3.551,3.551,0,0,1-1.375,1.523,3.925,3.925,0,0,1-2.066.539A3.667,3.667,0,0,1,193.1-1.035a4.563,4.563,0,0,1-1.074-3.176Zm1.9.164a3.406,3.406,0,0,0,.539,2.043,1.752,1.752,0,0,0,1.5.738,1.733,1.733,0,0,0,1.5-.75,3.762,3.762,0,0,0,.535-2.2,3.362,3.362,0,0,0-.551-2.031,1.759,1.759,0,0,0-1.5-.75,1.743,1.743,0,0,0-1.477.738A3.691,3.691,0,0,0,193.922-4.141Zm9.352-4.312.055.883a3.042,3.042,0,0,1,2.438-1.039,2.337,2.337,0,0,1,2.32,1.3,3,3,0,0,1,2.594-1.3,2.636,2.636,0,0,1,2.082.773,3.405,3.405,0,0,1,.7,2.281V0h-1.9V-5.5a1.681,1.681,0,0,0-.352-1.18,1.539,1.539,0,0,0-1.164-.375,1.581,1.581,0,0,0-1.059.348,1.833,1.833,0,0,0-.574.91l.008,5.8h-1.9V-5.562A1.354,1.354,0,0,0,205-7.055a1.671,1.671,0,0,0-1.617.93V0h-1.9V-8.453Zm19.539,4.313a5.033,5.033,0,0,1-.891,3.129A2.852,2.852,0,0,1,219.531.156,2.871,2.871,0,0,1,217.3-.758V3.25h-1.9v-11.7h1.75l.078.859a2.788,2.788,0,0,1,2.273-1.016,2.881,2.881,0,0,1,2.426,1.152,5.167,5.167,0,0,1,.879,3.2ZM220.922-4.3a3.526,3.526,0,0,0-.5-2.008,1.638,1.638,0,0,0-1.441-.742,1.747,1.747,0,0,0-1.672.961v3.75a1.763,1.763,0,0,0,1.688.984,1.636,1.636,0,0,0,1.418-.73A3.881,3.881,0,0,0,220.922-4.3ZM228.141.156A3.928,3.928,0,0,1,225.215-.98a4.124,4.124,0,0,1-1.121-3.027v-.234a5.072,5.072,0,0,1,.488-2.262,3.716,3.716,0,0,1,1.371-1.551,3.625,3.625,0,0,1,1.969-.555,3.318,3.318,0,0,1,2.668,1.1,4.658,4.658,0,0,1,.941,3.117v.766h-5.523a2.539,2.539,0,0,0,.7,1.656,2.1,2.1,0,0,0,1.543.609,2.571,2.571,0,0,0,2.125-1.055l1.023.977a3.418,3.418,0,0,1-1.355,1.176A4.244,4.244,0,0,1,228.141.156Zm-.227-7.242a1.6,1.6,0,0,0-1.262.547,2.835,2.835,0,0,0-.613,1.523h3.617v-.141a2.308,2.308,0,0,0-.508-1.441A1.586,1.586,0,0,0,227.914-7.086Zm7.469-3.422v2.055h1.492v1.406h-1.492v4.719a1.039,1.039,0,0,0,.191.7.888.888,0,0,0,.684.215,2.924,2.924,0,0,0,.664-.078V-.023a4.676,4.676,0,0,1-1.25.18q-2.187,0-2.187-2.414V-7.047h-1.391V-8.453h1.391v-2.055ZM242.047.156A3.928,3.928,0,0,1,239.121-.98,4.124,4.124,0,0,1,238-4.008v-.234a5.072,5.072,0,0,1,.488-2.262,3.716,3.716,0,0,1,1.371-1.551,3.625,3.625,0,0,1,1.969-.555,3.318,3.318,0,0,1,2.668,1.1,4.658,4.658,0,0,1,.941,3.117v.766h-5.523a2.539,2.539,0,0,0,.7,1.656,2.1,2.1,0,0,0,1.543.609,2.571,2.571,0,0,0,2.125-1.055l1.023.977a3.418,3.418,0,0,1-1.355,1.176A4.244,4.244,0,0,1,242.047.156Zm-.227-7.242a1.6,1.6,0,0,0-1.262.547,2.835,2.835,0,0,0-.613,1.523h3.617v-.141a2.308,2.308,0,0,0-.508-1.441A1.586,1.586,0,0,0,241.82-7.086Zm6.852-1.367.055.977a3.039,3.039,0,0,1,2.461-1.133q2.641,0,2.688,3.023V0h-1.9V-5.477a1.741,1.741,0,0,0-.348-1.191,1.462,1.462,0,0,0-1.137-.387,1.829,1.829,0,0,0-1.711,1.039V0h-1.9V-8.453Zm10.609,7.094a1.716,1.716,0,0,0,1.18-.414,1.415,1.415,0,0,0,.5-1.023h1.789a2.789,2.789,0,0,1-.492,1.473,3.228,3.228,0,0,1-1.25,1.082,3.725,3.725,0,0,1-1.7.4,3.6,3.6,0,0,1-2.812-1.148,4.555,4.555,0,0,1-1.039-3.172v-.2a4.479,4.479,0,0,1,1.031-3.09,3.571,3.571,0,0,1,2.813-1.16,3.473,3.473,0,0,1,2.457.879,3.148,3.148,0,0,1,1,2.309h-1.789a1.738,1.738,0,0,0-.5-1.2,1.6,1.6,0,0,0-1.184-.469,1.671,1.671,0,0,0-1.422.668,3.408,3.408,0,0,0-.508,2.027v.3a3.465,3.465,0,0,0,.5,2.051A1.669,1.669,0,0,0,259.281-1.359ZM266.2,0h-1.9V-8.453h1.9Zm-2.016-10.648a1.007,1.007,0,0,1,.277-.727,1.048,1.048,0,0,1,.793-.289,1.061,1.061,0,0,1,.8.289,1,1,0,0,1,.281.727.977.977,0,0,1-.281.715,1.069,1.069,0,0,1-.8.285,1.056,1.056,0,0,1-.793-.285A.984.984,0,0,1,264.188-10.648ZM273.32,0a2.929,2.929,0,0,1-.219-.789,2.955,2.955,0,0,1-2.219.945A2.982,2.982,0,0,1,268.8-.57a2.325,2.325,0,0,1-.8-1.8,2.4,2.4,0,0,1,1-2.074,4.865,4.865,0,0,1,2.871-.723h1.164v-.555a1.481,1.481,0,0,0-.367-1.051,1.456,1.456,0,0,0-1.117-.395,1.672,1.672,0,0,0-1.062.324,1,1,0,0,0-.414.824h-1.9a2.107,2.107,0,0,1,.461-1.3,3.071,3.071,0,0,1,1.254-.949,4.4,4.4,0,0,1,1.77-.344,3.547,3.547,0,0,1,2.367.746,2.661,2.661,0,0,1,.906,2.1v3.813a4.321,4.321,0,0,0,.32,1.82V0Zm-2.086-1.367a2.159,2.159,0,0,0,1.059-.273,1.827,1.827,0,0,0,.746-.734V-3.969h-1.023a2.8,2.8,0,0,0-1.586.367,1.189,1.189,0,0,0-.531,1.039,1.109,1.109,0,0,0,.363.871A1.407,1.407,0,0,0,271.234-1.367Z" transform="translate(-5396.981 -4559.318)" fill="#af58fa"/><path d="M-6847.279-4140.6v-71.519" transform="translate(-1293.003 -11360.461) rotate(-90)" fill="none" stroke="#af58fa" stroke-width="1"/><path d="M5.164-2.477l2.891-8.9h2.172L6.133,0H4.219L.141-11.375H2.3ZM13.344,0h-1.9V-8.453h1.9ZM11.328-10.648a1.008,1.008,0,0,1,.277-.727,1.048,1.048,0,0,1,.793-.289,1.061,1.061,0,0,1,.8.289,1,1,0,0,1,.281.727.977.977,0,0,1-.281.715,1.069,1.069,0,0,1-.8.285,1.056,1.056,0,0,1-.793-.285A.984.984,0,0,1,11.328-10.648ZM20.148-2.3a.861.861,0,0,0-.418-.773,4.445,4.445,0,0,0-1.387-.469,7.129,7.129,0,0,1-1.617-.516A2.158,2.158,0,0,1,15.3-6.047a2.25,2.25,0,0,1,.922-1.828,3.644,3.644,0,0,1,2.344-.734,3.792,3.792,0,0,1,2.449.75,2.38,2.38,0,0,1,.934,1.945h-1.9a1.17,1.17,0,0,0-.406-.91,1.557,1.557,0,0,0-1.078-.363,1.682,1.682,0,0,0-1.02.289.911.911,0,0,0-.395.773.769.769,0,0,0,.367.68,5.049,5.049,0,0,0,1.484.488,7.027,7.027,0,0,1,1.754.586,2.484,2.484,0,0,1,.945.816A2.082,2.082,0,0,1,22.016-2.4,2.2,2.2,0,0,1,21.07-.551a4.031,4.031,0,0,1-2.477.707,4.371,4.371,0,0,1-1.852-.375A3.047,3.047,0,0,1,15.477-1.25a2.441,2.441,0,0,1-.453-1.414h1.844a1.338,1.338,0,0,0,.508,1.035,1.973,1.973,0,0,0,1.242.363,1.92,1.92,0,0,0,1.141-.285A.883.883,0,0,0,20.148-2.3ZM25.688,0h-1.9V-8.453h1.9ZM23.672-10.648a1.008,1.008,0,0,1,.277-.727,1.048,1.048,0,0,1,.793-.289,1.061,1.061,0,0,1,.8.289,1,1,0,0,1,.281.727.977.977,0,0,1-.281.715,1.069,1.069,0,0,1-.8.285,1.056,1.056,0,0,1-.793-.285A.984.984,0,0,1,23.672-10.648Zm11.5,6.508a5.078,5.078,0,0,1-.879,3.133A2.863,2.863,0,0,1,31.875.156a2.758,2.758,0,0,1-2.312-1.07L29.469,0H27.75V-12h1.9v4.359a2.748,2.748,0,0,1,2.211-.969,2.9,2.9,0,0,1,2.43,1.148,5.162,5.162,0,0,1,.883,3.211Zm-1.9-.164a3.589,3.589,0,0,0-.484-2.062,1.613,1.613,0,0,0-1.406-.687,1.763,1.763,0,0,0-1.734,1.078v3.484a1.781,1.781,0,0,0,1.75,1.1,1.6,1.6,0,0,0,1.375-.664,3.477,3.477,0,0,0,.5-2.008ZM38.781,0h-1.9V-8.453h1.9ZM36.766-10.648a1.008,1.008,0,0,1,.277-.727,1.048,1.048,0,0,1,.793-.289,1.061,1.061,0,0,1,.8.289,1,1,0,0,1,.281.727.977.977,0,0,1-.281.715,1.069,1.069,0,0,1-.8.285,1.056,1.056,0,0,1-.793-.285A.984.984,0,0,1,36.766-10.648ZM42.867,0h-1.9V-12h1.9Zm4.086,0h-1.9V-8.453h1.9ZM44.938-10.648a1.008,1.008,0,0,1,.277-.727,1.048,1.048,0,0,1,.793-.289,1.061,1.061,0,0,1,.8.289,1,1,0,0,1,.281.727.977.977,0,0,1-.281.715,1.069,1.069,0,0,1-.8.285,1.056,1.056,0,0,1-.793-.285A.984.984,0,0,1,44.938-10.648Zm3.727,6.359a5.026,5.026,0,0,1,.906-3.137A2.9,2.9,0,0,1,52-8.609a2.759,2.759,0,0,1,2.172.938V-12h1.9V0H54.352l-.094-.875A2.8,2.8,0,0,1,51.984.156a2.887,2.887,0,0,1-2.4-1.2A5.21,5.21,0,0,1,48.664-4.289Zm1.9.164a3.519,3.519,0,0,0,.5,2.012,1.61,1.61,0,0,0,1.41.723,1.793,1.793,0,0,0,1.7-1.039V-6.039a1.766,1.766,0,0,0-1.687-1.016,1.622,1.622,0,0,0-1.422.73A3.919,3.919,0,0,0,50.563-4.125ZM63.1,0a2.93,2.93,0,0,1-.219-.789,2.955,2.955,0,0,1-2.219.945A2.982,2.982,0,0,1,58.586-.57a2.325,2.325,0,0,1-.8-1.8,2.4,2.4,0,0,1,1-2.074,4.865,4.865,0,0,1,2.871-.723H62.82v-.555a1.481,1.481,0,0,0-.367-1.051,1.456,1.456,0,0,0-1.117-.395,1.672,1.672,0,0,0-1.062.324,1,1,0,0,0-.414.824h-1.9a2.107,2.107,0,0,1,.461-1.3,3.071,3.071,0,0,1,1.254-.949,4.4,4.4,0,0,1,1.77-.344,3.547,3.547,0,0,1,2.367.746,2.661,2.661,0,0,1,.906,2.1v3.813a4.321,4.321,0,0,0,.32,1.82V0ZM61.016-1.367a2.16,2.16,0,0,0,1.059-.273,1.827,1.827,0,0,0,.746-.734V-3.969H61.8a2.8,2.8,0,0,0-1.586.367,1.189,1.189,0,0,0-.531,1.039,1.109,1.109,0,0,0,.363.871A1.407,1.407,0,0,0,61.016-1.367Zm5.336-2.922a5.026,5.026,0,0,1,.906-3.137,2.9,2.9,0,0,1,2.43-1.184,2.759,2.759,0,0,1,2.172.938V-12h1.9V0H72.039l-.094-.875A2.8,2.8,0,0,1,69.672.156a2.887,2.887,0,0,1-2.4-1.2A5.21,5.21,0,0,1,66.352-4.289Zm1.9.164a3.519,3.519,0,0,0,.5,2.012,1.61,1.61,0,0,0,1.41.723,1.793,1.793,0,0,0,1.7-1.039V-6.039a1.766,1.766,0,0,0-1.687-1.016,1.622,1.622,0,0,0-1.422.73A3.918,3.918,0,0,0,68.25-4.125Z" transform="translate(-5423.981 -4510.818)" fill="#af58fa"/></g></svg>