<svg xmlns="http://www.w3.org/2000/svg" xmlns:xlink="http://www.w3.org/1999/xlink" width="151" height="151" viewBox="0 0 151 151"><defs><linearGradient id="a" x1="0.053" y1="0.047" x2="0.962" y2="0.97" gradientUnits="objectBoundingBox"><stop offset="0" stop-color="#43efd4"/><stop offset="0.798" stop-color="#006cff"/><stop offset="1" stop-color="#006cff"/></linearGradient></defs><g transform="translate(6716 9208)"><rect width="151" height="151" rx="12" transform="translate(-6716 -9208)" fill="url(#a)"/><g transform="translate(-6685.939 -9174.082)"><g transform="translate(2.438 2.438)"><g transform="translate(63.278 60.401)"><path d="M67.572,44H46V67.01H67.572a1.442,1.442,0,0,0,1.438-1.438V45.438A1.442,1.442,0,0,0,67.572,44Z" transform="translate(-46 -44)" fill="#d3a06c"/></g><g transform="translate(31.639 46.02)"><path d="M49.886,48.381H24V35.438A1.439,1.439,0,0,1,25.438,34H49.886Z" transform="translate(-24 -34)" fill="#d3a06c"/></g><g transform="translate(43.144 14.381)"><path d="M67.953,12H33.438A1.442,1.442,0,0,0,32,13.438v30.2H46.381V33.572a1.442,1.442,0,0,1,1.438-1.438H69.391v-18.7A1.442,1.442,0,0,0,67.953,12Z" transform="translate(-32 -12)" fill="#d3a06c"/></g><g transform="translate(71.907 60.401)"><path d="M52,44h5.753v5.753H52Z" transform="translate(-52 -44)" fill="#b27946"/></g><g transform="translate(57.525 34.515)"><path d="M67.886,51.886H42V27.438A1.439,1.439,0,0,1,43.438,26h23.01a1.439,1.439,0,0,1,1.438,1.438Z" transform="translate(-42 -26)" fill="#d3a06c"/></g><g transform="translate(66.154 34.515)"><path d="M48,26h8.629v5.753H48Z" transform="translate(-48 -26)" fill="#b27946"/></g><g transform="translate(57.525 14.381)"><path d="M42,12h8.629v8.629H42Z" transform="translate(-42 -12)" fill="#b27946"/></g><g transform="translate(34.515 57.525)"><path d="M49.01,67.886v1.438a1.442,1.442,0,0,1-1.438,1.438H27.438A1.442,1.442,0,0,1,26,69.324V43.438A1.442,1.442,0,0,1,27.438,42h4.314v1.438a1.442,1.442,0,0,0,1.438,1.438h8.629a1.442,1.442,0,0,0,1.438-1.438V42H49.01V67.886Z" transform="translate(-26 -42)" fill="#af58fa"/></g><g transform="translate(40.268 54.649)"><path d="M41.505,42.876v1.438a1.442,1.442,0,0,1-1.438,1.438H31.438A1.442,1.442,0,0,1,30,44.314V41.438A1.442,1.442,0,0,1,31.438,40h8.629a1.442,1.442,0,0,1,1.438,1.438Z" transform="translate(-30 -40)" fill="#b4dd7f"/></g><path d="M20.437,15.029a6.364,6.364,0,0,0-4.07,5.9v1.208H14.929A4.3,4.3,0,0,0,11.88,23.4a4.245,4.245,0,0,0-1.266,3.049,4.309,4.309,0,0,0,4.314,4.314h1.453L16.367,40.83l-5-3.006A19.287,19.287,0,0,1,21.285,2H35.077a7.191,7.191,0,0,1,1.438,14.237,6.777,6.777,0,0,1-1.438.144H23.572a4.3,4.3,0,0,1-3.049-1.266l-.086-.086Z" transform="translate(-2 -2)" fill="#656d78"/><g transform="translate(8.614 13.029)"><path d="M33.891,32.546A5.751,5.751,0,0,1,28.138,38.3H22.386v8.327a22.444,22.444,0,0,0-8.643-2.574V36.86l.014-10.067H12.3A4.309,4.309,0,0,1,7.99,22.479,4.245,4.245,0,0,1,9.256,19.43,4.3,4.3,0,0,1,12.3,18.164h1.438V16.956a6.364,6.364,0,0,1,4.07-5.9l.086.086a4.3,4.3,0,0,0,3.049,1.266H32.453a6.777,6.777,0,0,0,1.438-.144v3.581a2.826,2.826,0,0,0,.489,1.6l1.87,2.8a3.243,3.243,0,0,1,.518,1.74,3.114,3.114,0,0,1-1.726,2.79l-.36.173a1.442,1.442,0,0,0-.791,1.294Z" transform="translate(-7.99 -11.06)" fill="#f0d0b4"/></g><g transform="translate(23.01 66.154)"><path d="M29.505,55.191v8.629a4.309,4.309,0,0,0-4.314-4.314L18,52.314,22.314,48Z" transform="translate(-18 -48)" fill="#b4dd7f"/></g><g transform="translate(2.876 46.02)"><path d="M24.134,65.639v8.629H18.381A14.387,14.387,0,0,1,4,59.886V52.6A20.793,20.793,0,0,1,15.491,34a22.444,22.444,0,0,1,8.643,2.574,22.961,22.961,0,0,1,8.629,7.967v.014a22.443,22.443,0,0,1,2.747,6.227l.129.475V61.324l-7.191-7.191-2.459-2.459a1.451,1.451,0,0,0-1.007-.417,3.732,3.732,0,0,0-3.725,3.725,1.451,1.451,0,0,0,.417,1.007l2.459,2.459,7.191,7.191H29.886v-.216a2.666,2.666,0,0,0-5.048-1.194Z" transform="translate(-4 -34)" fill="#e4c4ff"/></g><g transform="translate(23.01 74.783)"><path d="M25.191,56.876a4.314,4.314,0,0,1,0,8.629H18V56.876l.7-1.409a2.666,2.666,0,0,1,5.048,1.194v.216Z" transform="translate(-18 -54)" fill="#f0d0b4"/></g><g transform="translate(20.134 63.278)"><path d="M23.191,48.876l-4.314,4.314-2.459-2.459A1.451,1.451,0,0,1,16,49.725,3.732,3.732,0,0,1,19.725,46a1.451,1.451,0,0,1,1.007.417Z" transform="translate(-16 -46)" fill="#aab2bd"/></g></g><g transform="translate(1 1)"><path d="M22.753,16.438a1.438,1.438,0,1,1-2.876,0V15H17v1.438a4.314,4.314,0,1,0,8.629,0V15H22.753Z" transform="translate(6.01 5.134)"/><path d="M87.288,61.4V38.391a2.879,2.879,0,0,0-2.876-2.876V18.258a2.879,2.879,0,0,0-2.876-2.876H47.02a2.879,2.879,0,0,0-2.876,2.876V47.02H35.515A2.879,2.879,0,0,0,32.639,49.9v4.936a24.563,24.563,0,0,0-5.753-4.615V44.144H31.2a7.2,7.2,0,0,0,7.191-7.191l0-6.3.358-.178A4.562,4.562,0,0,0,40.5,23.863l-1.868-2.8a1.43,1.43,0,0,1-.242-.8v-2.51A8.623,8.623,0,0,0,35.515,1H21.721A20.721,20.721,0,0,0,11.06,39.489l4.31,2.586-.006,5.514A22.118,22.118,0,0,0,3.876,67.059v7.286A15.838,15.838,0,0,0,19.7,90.164H32.639a5.7,5.7,0,0,0,3.446-1.175,2.866,2.866,0,0,0,2.307,1.175H58.525A2.879,2.879,0,0,0,61.4,87.288H87.288a2.879,2.879,0,0,0,2.876-2.876V64.278A2.879,2.879,0,0,0,87.288,61.4ZM61.4,61.4V38.391h5.753v5.753H78.659V38.391h5.753V61.4Zm14.381,2.876h2.876v2.876H75.783ZM70.03,38.391h5.753v2.876H70.03ZM61.4,18.258h5.753V24.01H61.4Zm-14.381,0H58.525v8.629H70.03V18.258H81.535V35.515H61.4a2.879,2.879,0,0,0-2.876,2.876v2.876H55.649v2.876h2.876V47.02H47.02ZM35.515,49.9h23.01v8.629H55.649a2.879,2.879,0,0,0-2.876-2.876H44.144a2.879,2.879,0,0,0-2.876,2.876H38.391a2.862,2.862,0,0,0-2.275,1.138c-.188-.345-.4-.676-.6-1.01ZM52.776,61.4H44.144V58.525h8.629ZM33.3,78.727l-5.82-5.82,2.281-2.281,5.753,5.753v3.08A5.679,5.679,0,0,0,33.3,78.727ZM24.01,69.435a2.284,2.284,0,0,1,2.281-2.281l1.438,1.438-2.281,2.281ZM36.24,22.657l1.87,2.8a1.685,1.685,0,0,1-.647,2.439l-.357.178a2.857,2.857,0,0,0-1.591,2.573v4.864H32.639a2.879,2.879,0,0,1-2.876-2.876H26.886a5.758,5.758,0,0,0,5.753,5.753H35.25a4.309,4.309,0,0,1-4.05,2.876H21.134v2.876H24.01v4.638A24.1,24.1,0,0,0,18.24,47.2l.019-17.434h-2.9a2.876,2.876,0,1,1,0-5.753h2.871l.01-2.639a4.923,4.923,0,0,1,2.425-4.2,5.7,5.7,0,0,0,3.342,1.089H35.515v2.006a4.3,4.3,0,0,0,.725,2.393ZM12.54,37.024A17.846,17.846,0,0,1,21.721,3.876H35.515a5.753,5.753,0,1,1,0,11.505H24.01a2.876,2.876,0,1,1,0-5.753V6.753a5.758,5.758,0,0,0-5.753,5.753,5.683,5.683,0,0,0,.567,2.448,7.811,7.811,0,0,0-3.453,6.181h-.009a5.753,5.753,0,1,0,0,11.505h.017l-.006,6.085ZM6.753,74.345V67.059A19.245,19.245,0,0,1,17.08,49.945,21.546,21.546,0,0,1,35.435,65.618l.081.292v6.4L28.324,65.12a2.9,2.9,0,0,0-2.034-.843,5.162,5.162,0,0,0-5.157,5.157,2.9,2.9,0,0,0,.843,2.034l4.763,4.763a4.057,4.057,0,0,0-1.877,1.821l-.3.607H19.7a4.32,4.32,0,0,1-4.314-4.314V64.278H12.505V74.345A7.2,7.2,0,0,0,19.7,81.535H24.01v5.753H19.7A12.957,12.957,0,0,1,6.753,74.345ZM32.639,87.288H26.886V80.437l.549-1.1a1.228,1.228,0,0,1,2.327.549v1.648h2.876a2.876,2.876,0,1,1,0,5.753Zm5.753,0V61.4h2.876a2.879,2.879,0,0,0,2.876,2.876h8.629A2.879,2.879,0,0,0,55.649,61.4h2.876V87.288ZM61.4,64.278h2.876V84.412H61.4ZM87.288,84.412H67.154V64.278h5.753V70.03h8.629V64.278h5.753Z" transform="translate(-1 -1)"/><path d="M45,39h2.876v2.876H45Z" transform="translate(18.278 15.649)"/><path d="M49,39h2.876v2.876H49Z" transform="translate(20.03 15.649)"/><path d="M35,29h2.876v2.876H35Z" transform="translate(13.896 11.268)"/></g></g></g></svg>