<svg xmlns="http://www.w3.org/2000/svg" xmlns:xlink="http://www.w3.org/1999/xlink" width="295" height="316" viewBox="0 0 295 316"><defs><linearGradient id="a" x1="0.053" y1="0.047" x2="0.962" y2="0.97" gradientUnits="objectBoundingBox"><stop offset="0" stop-color="#43efd4"/><stop offset="0.798" stop-color="#006cff"/><stop offset="1" stop-color="#006cff"/></linearGradient></defs><g transform="translate(-495 -3309)"><rect width="295" height="316" rx="12" transform="translate(495 3309)" fill="url(#a)"/><path d="M-46.066-13.887h-5.121V0H-55.3V-13.887h-5.027v-3.176h14.262ZM-33.75-7.23h-6.469v4.066h7.641V0H-44.332V-17.062h11.777v3.176h-7.664v3.6h6.469Zm-3.832-14.4h4.172l-3.258,3.68h-3.223ZM-17.1-5.777a6.231,6.231,0,0,1-.961,3.146A5.8,5.8,0,0,1-20.525-.516a8.4,8.4,0,0,1-3.627.75,6.7,6.7,0,0,1-5.3-2.191,9.048,9.048,0,0,1-1.934-6.187v-.844a10.328,10.328,0,0,1,.873-4.389A6.615,6.615,0,0,1-28-16.283a7.013,7.013,0,0,1,3.8-1.025,7.354,7.354,0,0,1,4.992,1.635,6.459,6.459,0,0,1,2.145,4.506h-4.1a3.056,3.056,0,0,0-.785-2.238,3.229,3.229,0,0,0-2.25-.68,2.457,2.457,0,0,0-2.25,1.148A7.381,7.381,0,0,0-27.2-9.27v1.207a8.167,8.167,0,0,0,.686,3.9,2.509,2.509,0,0,0,2.361,1.172,3.159,3.159,0,0,0,2.168-.668,2.835,2.835,0,0,0,.8-2.121ZM-.9,0h-4.09l-6.047-10.617V0h-4.113V-17.062h4.113L-5-6.445V-17.062H-.9ZM6.082,0H1.98V-17.062h4.1ZM22.746-5.777a6.231,6.231,0,0,1-.961,3.146A5.8,5.8,0,0,1,19.318-.516a8.4,8.4,0,0,1-3.627.75,6.7,6.7,0,0,1-5.3-2.191A9.048,9.048,0,0,1,8.461-8.145v-.844a10.328,10.328,0,0,1,.873-4.389,6.615,6.615,0,0,1,2.514-2.906,7.013,7.013,0,0,1,3.8-1.025,7.354,7.354,0,0,1,4.992,1.635,6.459,6.459,0,0,1,2.145,4.506h-4.1a3.056,3.056,0,0,0-.785-2.238,3.229,3.229,0,0,0-2.25-.68,2.457,2.457,0,0,0-2.25,1.148,7.381,7.381,0,0,0-.75,3.668v1.207a8.167,8.167,0,0,0,.686,3.9,2.509,2.509,0,0,0,2.361,1.172,3.159,3.159,0,0,0,2.168-.668,2.835,2.835,0,0,0,.8-2.121Zm11.637,2.59H28.746L27.762,0H23.367l6.258-17.062h3.867L39.8,0H35.379ZM29.73-6.363H33.4l-1.84-5.918ZM49.84-4.535A1.69,1.69,0,0,0,49.2-5.941a7.938,7.938,0,0,0-2.244-1.043,21.53,21.53,0,0,1-2.625-1.043Q41.016-9.656,41.016-12.5a4.014,4.014,0,0,1,.826-2.5,5.344,5.344,0,0,1,2.338-1.687,9.1,9.1,0,0,1,3.4-.6,7.958,7.958,0,0,1,3.3.656,5.223,5.223,0,0,1,2.268,1.869A4.881,4.881,0,0,1,53.953-12h-4.1a2.063,2.063,0,0,0-.639-1.617,2.489,2.489,0,0,0-1.729-.574,2.807,2.807,0,0,0-1.74.486,1.492,1.492,0,0,0-.639,1.236,1.5,1.5,0,0,0,.7,1.189,8.867,8.867,0,0,0,2.473,1.1,15.147,15.147,0,0,1,2.906,1.225,4.884,4.884,0,0,1,2.766,4.395,4.166,4.166,0,0,1-1.687,3.516A7.506,7.506,0,0,1,47.637.234,9.184,9.184,0,0,1,43.881-.51,5.663,5.663,0,0,1,41.35-2.549a5.313,5.313,0,0,1-.85-2.982h4.125a2.617,2.617,0,0,0,.709,2.021,3.351,3.351,0,0,0,2.3.65A2.647,2.647,0,0,0,49.248-3.3,1.45,1.45,0,0,0,49.84-4.535ZM-67.617,24.223a6.231,6.231,0,0,1-.961,3.146,5.8,5.8,0,0,1-2.467,2.115,8.4,8.4,0,0,1-3.627.75,6.7,6.7,0,0,1-5.3-2.191A9.048,9.048,0,0,1-81.9,21.855v-.844a10.328,10.328,0,0,1,.873-4.389,6.615,6.615,0,0,1,2.514-2.906,7.013,7.013,0,0,1,3.8-1.025,7.354,7.354,0,0,1,4.992,1.635,6.459,6.459,0,0,1,2.145,4.506h-4.1a3.056,3.056,0,0,0-.785-2.238,3.229,3.229,0,0,0-2.25-.68,2.457,2.457,0,0,0-2.25,1.148,7.381,7.381,0,0,0-.75,3.668v1.207a8.167,8.167,0,0,0,.686,3.9,2.509,2.509,0,0,0,2.361,1.172,3.159,3.159,0,0,0,2.168-.668,2.835,2.835,0,0,0,.8-2.121Zm15.328-11.285V24.105a6.419,6.419,0,0,1-.809,3.287,5.238,5.238,0,0,1-2.32,2.115,8.174,8.174,0,0,1-3.574.727,7.062,7.062,0,0,1-4.91-1.617,5.768,5.768,0,0,1-1.828-4.43V12.938h4.137V24.27q.07,2.8,2.6,2.8a2.518,2.518,0,0,0,1.934-.7,3.286,3.286,0,0,0,.656-2.285V12.938Zm12,13.875h-5.637L-46.91,30H-51.3l6.258-17.062h3.867L-34.875,30h-4.418Zm-4.652-3.176h3.668l-1.84-5.918Zm15.422,3.2h7.16V30H-33.633V12.938h4.113ZM-16.242,30h-4.1V12.938h4.1ZM.012,16.113H-5.109V30H-9.223V16.113H-14.25V12.938H.012Zm10.02,10.7H4.395L3.41,30H-.984L5.273,12.938H9.141L15.445,30H11.027ZM5.379,23.637H9.047l-1.84-5.918Zm23.3-7.523H23.555V30H19.441V16.113H14.414V12.938H28.676ZM34.793,30h-4.1V12.938h4.1Zm9.48-4.641,3.4-12.422h4.594L46.523,30h-4.5l-5.7-17.062h4.559ZM62.32,26.813H56.684L55.7,30H51.3l6.258-17.062H61.43L67.734,30H63.316Zm-4.652-3.176h3.668L59.5,17.719Zm20.109,1.828a1.69,1.69,0,0,0-.639-1.406,7.938,7.938,0,0,0-2.244-1.043,21.53,21.53,0,0,1-2.625-1.043q-3.316-1.629-3.316-4.477a4.014,4.014,0,0,1,.826-2.5,5.344,5.344,0,0,1,2.338-1.687,9.1,9.1,0,0,1,3.4-.6,7.958,7.958,0,0,1,3.3.656,5.223,5.223,0,0,1,2.268,1.869A4.881,4.881,0,0,1,81.891,18h-4.1a2.063,2.063,0,0,0-.639-1.617,2.489,2.489,0,0,0-1.729-.574,2.807,2.807,0,0,0-1.74.486,1.432,1.432,0,0,0,.064,2.426,8.867,8.867,0,0,0,2.473,1.1,15.147,15.147,0,0,1,2.906,1.225,4.884,4.884,0,0,1,2.766,4.395A4.166,4.166,0,0,1,80.2,28.957a7.506,7.506,0,0,1-4.629,1.277,9.184,9.184,0,0,1-3.756-.744,5.663,5.663,0,0,1-2.531-2.039,5.313,5.313,0,0,1-.85-2.982h4.125a2.617,2.617,0,0,0,.709,2.021,3.351,3.351,0,0,0,2.3.65,2.647,2.647,0,0,0,1.611-.439A1.45,1.45,0,0,0,77.777,25.465Z" transform="translate(643 3529)" fill="#fff"/><g transform="translate(590.542 3366.154)"><g transform="translate(17.715 1.477)"><path d="M123.91,16.991l8.431-8.663a2.677,2.677,0,0,1,4.513,1.209l2.97,11.718,11.633-3.287a2.677,2.677,0,0,1,3.3,3.3l-3.287,11.633,11.718,2.97a2.677,2.677,0,0,1,1.209,4.513l-8.663,8.431,8.663,8.431a2.677,2.677,0,0,1-1.209,4.513l-11.718,2.97,3.287,11.633a2.677,2.677,0,0,1-3.3,3.3l-11.633-3.287L136.854,88.1a2.677,2.677,0,0,1-4.513,1.209L123.91,80.65l-8.431,8.663a2.677,2.677,0,0,1-4.513-1.209l-2.97-11.718L96.361,79.672a2.677,2.677,0,0,1-3.3-3.3l3.287-11.633-11.718-2.97a2.677,2.677,0,0,1-1.209-4.513l8.663-8.431-8.663-8.431a2.677,2.677,0,0,1,1.209-4.513l11.718-2.97L93.058,21.272a2.677,2.677,0,0,1,3.3-3.3l11.633,3.287,2.97-11.718a2.677,2.677,0,0,1,4.513-1.209Z" transform="translate(-82.606 -7.516)" fill="#e4c4ff"/><path d="M358.929,57.248a2.677,2.677,0,0,1-1.21,4.513L346,64.732l3.284,11.633a2.675,2.675,0,0,1-3.3,3.3l-11.633-3.287L331.38,88.1a2.677,2.677,0,0,1-4.513,1.21l-1.74-1.788,4.114-18.076a1.338,1.338,0,0,1,1.668-.99l7.685,2.171a1.339,1.339,0,0,0,1.654-1.652l-2.182-7.717a1.337,1.337,0,0,1,.958-1.662l7.776-1.97a1.338,1.338,0,0,0,.6-2.256l-5.75-5.594a1.339,1.339,0,0,1,0-1.916l5.75-5.594a1.338,1.338,0,0,0-.6-2.256l-7.776-1.97a1.339,1.339,0,0,1-.958-1.662l2.182-7.717a1.34,1.34,0,0,0-1.654-1.652l-7.714,2.179a1.339,1.339,0,0,1-1.662-.961l-4.465-17.731,2.115-2.171a2.677,2.677,0,0,1,4.513,1.21l2.971,11.719,11.633-3.287a2.676,2.676,0,0,1,3.3,3.3L346,32.9l11.716,2.971a2.677,2.677,0,0,1,1.21,4.513l-8.662,8.432Z" transform="translate(-277.133 -7.512)" fill="#d1a7f4"/></g><g transform="translate(1.83 0)"><g transform="translate(1.476 23.268)"><g transform="translate(14.293)"><path d="M140.934,155.986h-.774a6.7,6.7,0,0,0,0-13.408H119.1l3.45-8a6.263,6.263,0,0,0,.368-1.143l.689-3.149a9.861,9.861,0,0,0-9.632-11.97,4.3,4.3,0,0,0-4.145,3.156l-2.569,9.31L97.152,148.861H82.014v36.645h22.814l1.847,1.662a9.774,9.774,0,0,0,6.557,2.519h24.245a5.475,5.475,0,1,0,0-10.951h2.042a5.445,5.445,0,0,0,0-10.889h1.414a5.93,5.93,0,1,0,0-11.861Z" transform="translate(-82.014 -118.319)" fill="#fda79b"/><g transform="translate(29.281 0.001)"><path d="M345.32,261.014a5.931,5.931,0,0,1-5.931,5.931h-1.415a5.444,5.444,0,1,1,0,10.889h-2.042a5.476,5.476,0,0,1,0,10.951H329.05a5.476,5.476,0,0,0,0-10.951h2.042a5.444,5.444,0,0,0,0-10.889h1.415a5.93,5.93,0,0,0,0-11.86h-.775a6.7,6.7,0,0,0,0-13.409h6.881a6.7,6.7,0,1,1,0,13.409h.775A5.931,5.931,0,0,1,345.32,261.014Z" transform="translate(-309.749 -217.417)" fill="#fc9085"/><path d="M243.214,130.291l-.689,3.149a6.143,6.143,0,0,1-.368,1.142l-3.45,8h-6.881l3.45-8a6.325,6.325,0,0,0,.368-1.142l.689-3.149a9.865,9.865,0,0,0-5.427-11.032.889.889,0,0,1,.072-.058,4.3,4.3,0,0,1,2.6-.879A9.86,9.86,0,0,1,243.214,130.291Z" transform="translate(-230.906 -118.322)" fill="#fc9085"/></g></g><g transform="translate(0 26.525)"><path d="M9.334,253.2H26.548a2.18,2.18,0,0,1,2.18,2.18v40.484a2.18,2.18,0,0,1-2.18,2.18H9.334Z" transform="translate(-9.334 -253.198)" fill="#43efd4"/><path d="M70.525,255.375V295.86a2.18,2.18,0,0,1-2.179,2.179H61.363a2.179,2.179,0,0,0,2.179-2.179V255.375a2.18,2.18,0,0,0-2.179-2.179h6.983A2.181,2.181,0,0,1,70.525,255.375Z" transform="translate(-51.131 -253.196)" fill="#43efd4"/></g></g><g transform="translate(0)"><g transform="translate(17.16 72.396)"><circle cx="13.41" cy="13.41" r="13.41" fill="#af58fa"/><path d="M148.906,381.547a13.416,13.416,0,0,1-18.74,12.309c.159.006.319.01.48.01a12.318,12.318,0,0,0,0-24.636c-.16,0-.321,0-.48.01a13.416,13.416,0,0,1,18.74,12.307Z" transform="translate(-122.087 -368.137)" fill="#e4c4ff"/></g><g transform="translate(23.001 73.813)"><path d="M126.648,393.935a2.7,2.7,0,0,1-1.914-.793l-5.15-5.15a2.707,2.707,0,1,1,3.829-3.829l3.235,3.235,11.269-11.269a2.707,2.707,0,0,1,3.829,3.829l-13.183,13.183A2.7,2.7,0,0,1,126.648,393.935Z" transform="translate(-118.79 -375.337)" fill="#f8f3f1"/></g><path d="M100.54,50.157l-7.577-7.376,7.576-7.373a4.152,4.152,0,0,0-1.875-7l-10.25-2.6,2.876-10.176a4.153,4.153,0,0,0-5.124-5.124L75.991,13.385l-.354-1.4a1.475,1.475,0,1,0-2.86.724l.726,2.865a1.475,1.475,0,0,0,1.831,1.057l11.634-3.286a1.2,1.2,0,0,1,1.484,1.483L85.164,26.467A1.475,1.475,0,0,0,86.221,28.3l11.718,2.97a1.2,1.2,0,0,1,.544,2.027L89.82,41.725a1.475,1.475,0,0,0,0,2.114l8.663,8.433A1.2,1.2,0,0,1,97.94,54.3L86.221,57.268A1.475,1.475,0,0,0,85.164,59.1l3.288,11.634a1.2,1.2,0,0,1-1.484,1.482L82.658,71a7.39,7.39,0,0,0-1.974-10.25,8.177,8.177,0,0,0-4.94-14.694H56.923l2.562-5.938a7.762,7.762,0,0,0,.454-1.411l.689-3.149a11.335,11.335,0,0,0-11.073-13.76,5.79,5.79,0,0,0-5.567,4.239l-2.522,9.138L38.1,41.192a1.475,1.475,0,1,0,2.575,1.439l3.453-6.176a1.477,1.477,0,0,0,.135-.327l2.569-9.31a2.833,2.833,0,0,1,2.723-2.074,8.386,8.386,0,0,1,8.192,10.179l-.689,3.149a4.8,4.8,0,0,1-.281.874l-3.066,7.107H47.8a1.475,1.475,0,0,0,0,2.95H75.745a5.229,5.229,0,0,1,0,10.459h-6.5a1.475,1.475,0,1,0,0,2.95h7.277a4.456,4.456,0,0,1,0,8.911H68.013a1.475,1.475,0,0,0,0,2.95H75.1a3.97,3.97,0,0,1,0,7.939h-9.55a1.475,1.475,0,0,0,0,2.95h7.509a4,4,0,1,1,0,8H48.817a8.338,8.338,0,0,1-3.152-.619,14.789,14.789,0,0,0,1.618-6.736,14.944,14.944,0,0,0-.6-4.185l2.143-2.143a4.182,4.182,0,1,0-5.914-5.915l-.892.892a14.838,14.838,0,0,0-17.848-1.037V55.287h8.563a1.475,1.475,0,0,0,1.287-.755l3.168-5.667a1.475,1.475,0,0,0-2.575-1.439l-2.746,4.912h-7.7v-.363a3.647,3.647,0,0,0-1.38-2.855l5.423-5.28a1.475,1.475,0,0,0,0-2.114l-8.662-8.431a1.2,1.2,0,0,1,.543-2.027L31.817,28.3a1.475,1.475,0,0,0,1.057-1.831L29.585,14.833a1.2,1.2,0,0,1,1.483-1.484L42.7,16.635a1.475,1.475,0,0,0,1.831-1.057L47.5,3.862a1.2,1.2,0,0,1,2.027-.544l8.433,8.663a1.475,1.475,0,0,0,2.114,0l8.431-8.663a1.2,1.2,0,0,1,2.026.544l.488,1.923a1.475,1.475,0,0,0,2.859-.725l-.488-1.924a4.152,4.152,0,0,0-7-1.875L59.02,8.838,51.645,1.262a4.152,4.152,0,0,0-7,1.875l-2.6,10.248L31.871,10.511a4.152,4.152,0,0,0-5.124,5.124l2.876,10.176-10.25,2.6a4.152,4.152,0,0,0-1.875,7l7.577,7.374L19.386,48.32H3.3a1.475,1.475,0,0,0,0,2.95H20.52a.7.7,0,0,1,.7.7V75.988A14.79,14.79,0,0,0,18.07,81.78a1.475,1.475,0,1,0,2.84.8A11.93,11.93,0,0,1,39.927,76.55l-7.239,7.239L30.5,81.6a4.182,4.182,0,1,0-5.915,5.915l5.15,5.15a4.183,4.183,0,0,0,5.915,0L44.211,84.1A11.935,11.935,0,0,1,20.88,88.93a1.475,1.475,0,0,0-2.848.77,14.792,14.792,0,0,0,1.427,3.462H3.3a1.475,1.475,0,0,0,0,2.95H20.52a3.62,3.62,0,0,0,1.007-.145,14.863,14.863,0,0,0,22.523-.913,11.287,11.287,0,0,0,4.767,1.058H73.063a6.947,6.947,0,0,0,5.1-11.665,6.914,6.914,0,0,0,1.864-11.062c.026-.014.05-.03.076-.044l6.061,1.711a4.231,4.231,0,0,0,1.153.162,4.158,4.158,0,0,0,3.972-5.284L88.415,59.754l10.249-2.6a4.15,4.15,0,0,0,1.877-7ZM33.56,90.575a1.233,1.233,0,0,1-1.743,0l-5.15-5.15a1.233,1.233,0,0,1,1.743-1.743l3.235,3.235a1.475,1.475,0,0,0,2.086,0L45,75.649a1.232,1.232,0,1,1,1.743,1.743Z" transform="translate(-1.83 0)"/><path d="M36.406,446.229a1.475,1.475,0,1,0,0-2.95H34.079a1.475,1.475,0,1,0,0,2.95Z" transform="translate(-26.552 -356.105)"/></g></g></g><rect width="129" height="129" transform="translate(578 3352)" fill="none"/></g></svg>