<svg xmlns="http://www.w3.org/2000/svg" xmlns:xlink="http://www.w3.org/1999/xlink" width="151" height="151" viewBox="0 0 151 151"><defs><linearGradient id="a" x1="0.053" y1="0.047" x2="0.962" y2="0.97" gradientUnits="objectBoundingBox"><stop offset="0" stop-color="#43efd4"/><stop offset="0.798" stop-color="#006cff"/><stop offset="1" stop-color="#006cff"/></linearGradient></defs><g transform="translate(6716 9525)"><rect width="151" height="151" rx="12" transform="translate(-6716 -9525)" fill="url(#a)"/><g transform="translate(-6682.227 -9492.726)"><g transform="translate(1.266 1.266)"><g transform="translate(0 15.613)"><path d="M7.5,106.991v13.271H31.7V106.991a7.026,7.026,0,0,0-7.026-7.026H14.526A7.026,7.026,0,0,0,7.5,106.991Z" transform="translate(-7.5 -99.965)" fill="#3d8efc"/></g><g transform="translate(12.1 15.613)"><path d="M84.234,99.965H79.16a7.026,7.026,0,0,1,7.026,7.026v13.271H91.26V106.991A7.025,7.025,0,0,0,84.234,99.965Z" transform="translate(-79.16 -99.965)" fill="#006cff"/></g><g transform="translate(4.293)"><circle cx="7.806" cy="7.806" r="7.806" fill="#fed2a4"/></g><g transform="translate(5.21 0.916)"><path d="M48.913,12.926a7.807,7.807,0,0,1-10.56,10.56,7.807,7.807,0,1,0,10.56-10.56Z" transform="translate(-38.353 -12.926)" fill="#ffbd86"/></g></g><g transform="translate(32.492 7.511)"><g transform="translate(37.471 0)"><path d="M428.007,52.292H414.346V44.486h13.661a1.561,1.561,0,0,1,1.561,1.561v4.684A1.561,1.561,0,0,1,428.007,52.292Z" transform="translate(-414.346 -44.486)" fill="#b2e5fb"/></g><path d="M229.9,52.292H193.99a1.561,1.561,0,0,1-1.561-1.561V46.046a1.561,1.561,0,0,1,1.561-1.561H229.9a1.561,1.561,0,0,1,1.561,1.561V50.73A1.561,1.561,0,0,1,229.9,52.292Z" transform="translate(-192.429 -44.485)" fill="#43efd4"/><g transform="translate(32.396 0)"><path d="M389.369,44.486h-5.074a1.561,1.561,0,0,1,1.561,1.561v4.684a1.561,1.561,0,0,1-1.561,1.561h5.074a1.561,1.561,0,0,0,1.561-1.561V46.047A1.561,1.561,0,0,0,389.369,44.486Z" transform="translate(-384.295 -44.486)" fill="#f3d332"/></g></g><g transform="translate(32.492 29.369)"><g transform="translate(29.664 0)"><path d="M389.581,181.743H368.113v-7.806h21.468a1.561,1.561,0,0,1,1.561,1.561v4.684A1.561,1.561,0,0,1,389.581,181.743Z" transform="translate(-368.113 -173.937)" fill="#b2e5fb"/></g><path d="M222.094,181.743h-28.1a1.561,1.561,0,0,1-1.561-1.561V175.5a1.561,1.561,0,0,1,1.561-1.561h28.1a1.561,1.561,0,0,1,1.561,1.561v4.684A1.561,1.561,0,0,1,222.094,181.743Z" transform="translate(-192.43 -173.936)" fill="#ad7fdd"/><g transform="translate(24.59 0)"><path d="M343.137,173.937h-5.074a1.561,1.561,0,0,1,1.561,1.561v4.684a1.561,1.561,0,0,1-1.561,1.561h5.074a1.561,1.561,0,0,0,1.561-1.561V175.5A1.561,1.561,0,0,0,343.137,173.937Z" transform="translate(-338.063 -173.937)" fill="#9d66d6"/></g></g><g transform="translate(1.266 49.275)"><g transform="translate(0 15.613)"><path d="M7.5,391.322v13.271H31.7V391.322a7.026,7.026,0,0,0-7.026-7.026H14.526A7.026,7.026,0,0,0,7.5,391.322Z" transform="translate(-7.5 -384.296)" fill="#e4c4ff"/></g><g transform="translate(12.1 15.613)"><path d="M84.234,384.295H79.16a7.026,7.026,0,0,1,7.026,7.026v13.271H91.26V391.321A7.025,7.025,0,0,0,84.234,384.295Z" transform="translate(-79.16 -384.295)" fill="#af58fa"/></g><g transform="translate(4.293)"><circle cx="7.806" cy="7.806" r="7.806" fill="#fed2a4"/></g><g transform="translate(5.21 0.916)"><path d="M48.913,297.256a7.807,7.807,0,0,1-10.56,10.56,7.807,7.807,0,1,0,10.56-10.56Z" transform="translate(-38.353 -297.256)" fill="#ffbd86"/></g></g><g transform="translate(32.492 55.52)"><g transform="translate(41.374)"><path d="M447.22,336.622h-9.758v-7.806h9.758a1.561,1.561,0,0,1,1.561,1.561v4.684A1.561,1.561,0,0,1,447.22,336.622Z" transform="translate(-437.462 -328.816)" fill="#b2e5fb"/></g><path d="M233.8,336.622H193.991a1.561,1.561,0,0,1-1.561-1.561v-4.684a1.561,1.561,0,0,1,1.561-1.561H233.8a1.561,1.561,0,0,1,1.561,1.561v4.684A1.561,1.561,0,0,1,233.8,336.622Z" transform="translate(-192.43 -328.816)" fill="#e4c4ff"/><g transform="translate(36.3)"><path d="M412.486,328.816h-5.074a1.561,1.561,0,0,1,1.561,1.561v4.684a1.561,1.561,0,0,1-1.561,1.561h5.074a1.561,1.561,0,0,0,1.561-1.561v-4.684A1.561,1.561,0,0,0,412.486,328.816Z" transform="translate(-407.412 -328.816)" fill="#e38523"/></g></g><g transform="translate(32.492 77.378)"><g transform="translate(39.422)"><path d="M437.614,466.073H425.9v-7.806h11.71a1.561,1.561,0,0,1,1.561,1.561v4.684A1.561,1.561,0,0,1,437.614,466.073Z" transform="translate(-425.904 -458.267)" fill="#b2e5fb"/></g><path d="M231.852,466.073H193.991a1.561,1.561,0,0,1-1.561-1.561v-4.684a1.561,1.561,0,0,1,1.561-1.561h37.861a1.561,1.561,0,0,1,1.561,1.561v4.684A1.561,1.561,0,0,1,231.852,466.073Z" transform="translate(-192.43 -458.267)" fill="#e175a5"/><g transform="translate(34.348)"><path d="M400.928,458.267h-5.074a1.561,1.561,0,0,1,1.561,1.561v4.684a1.561,1.561,0,0,1-1.561,1.561h5.074a1.561,1.561,0,0,0,1.561-1.561v-4.684A1.561,1.561,0,0,0,400.928,458.267Z" transform="translate(-395.854 -458.267)" fill="#de5791"/></g></g><g transform="translate(0)"><path d="M19.563,15.691a9.073,9.073,0,1,0-12.393,0A8.3,8.3,0,0,0,0,23.9V37.176a1.266,1.266,0,0,0,1.266,1.266h24.2a1.266,1.266,0,0,0,1.266-1.266V23.9a8.3,8.3,0,0,0-7.17-8.214ZM6.826,9.073a6.54,6.54,0,1,1,6.54,6.54,6.547,6.547,0,0,1-6.54-6.54ZM24.2,35.909H2.533v-12a5.766,5.766,0,0,1,5.759-5.759H18.44A5.766,5.766,0,0,1,24.2,23.9v12Z" transform="translate(0 0)"/><path d="M237.328,36.986h-49.57a2.831,2.831,0,0,0-2.828,2.828V44.5a2.831,2.831,0,0,0,2.828,2.828h49.57a2.831,2.831,0,0,0,2.828-2.828V39.814A2.831,2.831,0,0,0,237.328,36.986ZM187.463,44.5V39.814a.3.3,0,0,1,.295-.295h35.909a.3.3,0,0,1,.295.295V44.5a.3.3,0,0,1-.295.295H187.758A.3.3,0,0,1,187.463,44.5Zm50.16,0a.3.3,0,0,1-.295.295H226.479a2.837,2.837,0,0,0,.016-.295V39.814a2.833,2.833,0,0,0-.016-.295h10.849a.3.3,0,0,1,.295.295Z" transform="translate(-153.705 -30.741)"/><path d="M186.2,2.533H202.98a1.266,1.266,0,1,0,0-2.533H186.2a1.266,1.266,0,1,0,0,2.533Z" transform="translate(-153.705)"/><path d="M237.327,166.44H187.758a2.83,2.83,0,0,0-2.828,2.826v4.684a2.831,2.831,0,0,0,2.828,2.828H225.4a1.266,1.266,0,1,0,0-2.533h-6.723a2.836,2.836,0,0,0,.016-.295v-4.684a2.824,2.824,0,0,0-.016-.294h18.655a.3.3,0,0,1,.3.294v4.684a.3.3,0,0,1-.3.3h-6.022a1.266,1.266,0,1,0,0,2.533h6.022a2.831,2.831,0,0,0,2.828-2.828v-4.684A2.83,2.83,0,0,0,237.327,166.44Zm-21.172,2.827v4.684a.3.3,0,0,1-.295.295h-28.1a.3.3,0,0,1-.3-.3v-4.684a.3.3,0,0,1,.3-.294h28.107A.3.3,0,0,1,216.155,169.267Z" transform="translate(-153.705 -138.337)"/><path d="M202.98,131.984a1.266,1.266,0,1,0,0-2.533H186.2a1.266,1.266,0,1,0,0,2.533Z" transform="translate(-153.705 -107.593)"/><path d="M19.563,300.021a9.073,9.073,0,1,0-12.393,0A8.3,8.3,0,0,0,0,308.235v13.271a1.266,1.266,0,0,0,1.266,1.266h24.2a1.266,1.266,0,0,0,1.266-1.266V308.235a8.3,8.3,0,0,0-7.17-8.214ZM6.826,293.4a6.54,6.54,0,1,1,6.54,6.54,6.547,6.547,0,0,1-6.54-6.54ZM24.2,320.239H2.533v-12a5.766,5.766,0,0,1,5.759-5.759H18.44a5.766,5.766,0,0,1,5.759,5.759v12Z" transform="translate(0 -236.321)"/><path d="M237.327,321.32h-38.26a1.266,1.266,0,1,0,0,2.533h28.509a.3.3,0,0,1,.288.294v4.684a.3.3,0,0,1-.295.295H187.758a.3.3,0,0,1-.3-.3v-4.684a.3.3,0,0,1,.3-.294h5.4a1.266,1.266,0,1,0,0-2.533h-5.4a2.83,2.83,0,0,0-2.828,2.826v4.684a2.831,2.831,0,0,0,2.828,2.828h49.569a2.831,2.831,0,0,0,2.828-2.828v-4.684A2.83,2.83,0,0,0,237.327,321.32Zm.3,7.51a.3.3,0,0,1-.3.3h-6.945a2.836,2.836,0,0,0,.016-.295v-4.684a2.823,2.823,0,0,0-.016-.294h6.945a.3.3,0,0,1,.3.294v4.684Z" transform="translate(-153.705 -267.065)"/><path d="M202.98,286.863a1.266,1.266,0,1,0,0-2.533H186.2a1.266,1.266,0,1,0,0,2.533Z" transform="translate(-153.705 -236.321)"/><path d="M237.327,450.77H187.758a2.831,2.831,0,0,0-2.828,2.827v4.684a2.831,2.831,0,0,0,2.828,2.828h28.828a1.266,1.266,0,1,0,0-2.533H187.758a.3.3,0,0,1-.3-.3V453.6a.3.3,0,0,1,.3-.294h37.864a.3.3,0,0,1,.292.294v4.684a.3.3,0,0,1-.295.295H222.5a1.266,1.266,0,1,0,0,2.533h14.831a2.831,2.831,0,0,0,2.828-2.828V453.6A2.83,2.83,0,0,0,237.327,450.77Zm.3,7.51a.3.3,0,0,1-.3.3h-8.9a2.833,2.833,0,0,0,.016-.295V453.6a2.828,2.828,0,0,0-.016-.294h8.9a.3.3,0,0,1,.3.294v4.684Z" transform="translate(-153.705 -374.658)"/><path d="M202.98,416.314a1.266,1.266,0,1,0,0-2.533H186.2a1.266,1.266,0,1,0,0,2.533Z" transform="translate(-153.705 -343.914)"/></g></g></g></svg>