<svg xmlns="http://www.w3.org/2000/svg" xmlns:xlink="http://www.w3.org/1999/xlink" width="151" height="151" viewBox="0 0 151 151"><defs><linearGradient id="a" x1="0.053" y1="0.047" x2="0.962" y2="0.97" gradientUnits="objectBoundingBox"><stop offset="0" stop-color="#43efd4"/><stop offset="0.798" stop-color="#006cff"/><stop offset="1" stop-color="#006cff"/></linearGradient></defs><g transform="translate(-717 -2266)"><rect width="151" height="151" rx="12" transform="translate(717 2266)" fill="url(#a)"/><g transform="translate(754.005 2299.004)"><g transform="translate(1.242 1.246)"><path d="M369.9,60.49V56.578l-2.663-.683a10.946,10.946,0,0,0-1.273-3.065l1.4-2.362L364.589,47.7l-2.368,1.4a11,11,0,0,0-3.072-1.27l-.685-2.657h-3.921l-.685,2.657a11,11,0,0,0-3.072,1.27l-2.368-1.4-2.773,2.766,1.4,2.362a10.952,10.952,0,0,0-1.273,3.065l-2.663.683V60.49l2.663.683a10.945,10.945,0,0,0,1.273,3.065l-1.4,2.362,2.773,2.766,2.368-1.4a11,11,0,0,0,3.072,1.27l.685,2.657h3.921l.685-2.657a11,11,0,0,0,3.072-1.27l2.368,1.4,2.773-2.766-1.4-2.362a10.95,10.95,0,0,0,1.273-3.065ZM356.5,64.023a5.49,5.49,0,1,1,5.5-5.49A5.5,5.5,0,0,1,356.5,64.023Z" transform="translate(-287.396 -38.917)" fill="#e4c4ff"/><g transform="translate(7.08)"><path d="M67.447,173.441a28.024,28.024,0,0,0-17.006,17.794,6.492,6.492,0,0,0,6.216,8.421H97.585a6.492,6.492,0,0,0,6.216-8.421A28.025,28.025,0,0,0,86.8,173.441Z" transform="translate(-50.138 -145.895)" fill="#af58fa"/><ellipse cx="15.684" cy="15.66" rx="15.684" ry="15.66" transform="translate(11.3 0)" fill="#43efd4"/><path d="M200.179,7.5a15.824,15.824,0,0,0-2.49.2,15.659,15.659,0,0,1,0,30.928A15.663,15.663,0,1,0,200.179,7.5Z" transform="translate(-173.195 -7.5)" fill="#a7fff1"/></g><g transform="translate(0 41.874)"><path d="M67.439,294.3H15.666a4.3,4.3,0,0,1-4.252-3.659L7.538,264.682a4.3,4.3,0,0,1,4.252-4.925H71.316a4.3,4.3,0,0,1,4.252,4.925l-3.877,25.963A4.3,4.3,0,0,1,67.439,294.3Z" transform="translate(-7.49 -259.757)" fill="#faf7f7"/><path d="M347.489,259.757h-4.98a4.3,4.3,0,0,1,4.252,4.925l-3.877,25.963a4.3,4.3,0,0,1-4.252,3.659h4.98a4.3,4.3,0,0,0,4.252-3.659l3.877-25.963A4.3,4.3,0,0,0,347.489,259.757Z" transform="translate(-283.662 -259.757)" fill="#f3eae6"/><path d="M90.569,473.958H37.463a3.039,3.039,0,0,1-3.039-3.039v0a3.039,3.039,0,0,1,3.039-3.039H90.569a3.039,3.039,0,0,1,3.039,3.039v0A3.039,3.039,0,0,1,90.569,473.958Z" transform="translate(-29.953 -433.331)" fill="#dac7e6"/><path d="M347.629,467.879h-4.98a3.039,3.039,0,0,1,3.039,3.039v0a3.039,3.039,0,0,1-3.039,3.039h4.98a3.038,3.038,0,0,0,3.039-3.039v0A3.039,3.039,0,0,0,347.629,467.879Z" transform="translate(-287.013 -433.331)" fill="#ceb4dd"/><ellipse cx="6.311" cy="6.302" rx="6.311" ry="6.302" transform="translate(27.752 10.972)" fill="#b289c9"/></g></g><g transform="translate(0 0.001)"><path d="M363.953,49.116l-1.968-.5a12.173,12.173,0,0,0-.84-2.022l1.032-1.743a1.245,1.245,0,0,0-.192-1.516l-2.773-2.766a1.245,1.245,0,0,0-1.512-.191l-1.75,1.032a12.223,12.223,0,0,0-2.031-.839l-.506-1.962a1.245,1.245,0,0,0-1.206-.934h-3.921a1.245,1.245,0,0,0-1.206.934l-.506,1.962a12.223,12.223,0,0,0-2.031.839l-1.75-1.032a1.245,1.245,0,0,0-1.512.191l-2.773,2.766a1.245,1.245,0,0,0-.192,1.516l1.032,1.743a12.18,12.18,0,0,0-.84,2.022l-1.968.5a1.245,1.245,0,0,0-.936,1.206v3.912a1.245,1.245,0,0,0,.936,1.206l1.968.5a12.162,12.162,0,0,0,.84,2.022L338.32,59.71a1.245,1.245,0,0,0,.192,1.516l2.773,2.766a1.245,1.245,0,0,0,1.512.191l1.75-1.032a12.224,12.224,0,0,0,2.031.839l.506,1.962a1.245,1.245,0,0,0,1.206.934h3.921a1.245,1.245,0,0,0,1.206-.934l.506-1.962a12.229,12.229,0,0,0,2.031-.839l1.75,1.032a1.245,1.245,0,0,0,1.512-.191l2.773-2.766a1.245,1.245,0,0,0,.192-1.516l-1.032-1.743a12.175,12.175,0,0,0,.84-2.022l1.968-.5a1.245,1.245,0,0,0,.936-1.206V50.322A1.245,1.245,0,0,0,363.953,49.116ZM362.4,53.268l-1.728.443a1.245,1.245,0,0,0-.9.908,9.694,9.694,0,0,1-1.128,2.716,1.245,1.245,0,0,0-.007,1.281l.906,1.53-1.406,1.4-1.538-.907a1.246,1.246,0,0,0-1.276.007,9.75,9.75,0,0,1-2.724,1.126,1.245,1.245,0,0,0-.909.9l-.444,1.723h-1.992l-.444-1.723a1.245,1.245,0,0,0-.909-.9,9.751,9.751,0,0,1-2.724-1.126,1.245,1.245,0,0,0-1.276-.007l-1.538.907-1.406-1.4.906-1.53a1.245,1.245,0,0,0-.007-1.281,9.69,9.69,0,0,1-1.128-2.716,1.245,1.245,0,0,0-.9-.908l-1.728-.443v-1.98l1.728-.443a1.245,1.245,0,0,0,.9-.908,9.7,9.7,0,0,1,1.128-2.716,1.245,1.245,0,0,0,.007-1.281l-.906-1.53,1.406-1.4,1.538.907a1.245,1.245,0,0,0,1.276-.007,9.75,9.75,0,0,1,2.724-1.126,1.245,1.245,0,0,0,.909-.9l.444-1.723h1.992l.444,1.723a1.245,1.245,0,0,0,.909.9,9.747,9.747,0,0,1,2.724,1.126,1.245,1.245,0,0,0,1.276.007l1.538-.907,1.406,1.4-.906,1.53a1.245,1.245,0,0,0,.007,1.281,9.694,9.694,0,0,1,1.128,2.716,1.245,1.245,0,0,0,.9.908l1.728.443Z" transform="translate(-279.899 -31.416)"/><path d="M394.344,88.645a1.245,1.245,0,0,0-.5,1.688,4.246,4.246,0,1,1-4.564-2.151,1.245,1.245,0,1,0-.472-2.445,6.736,6.736,0,1,0,7.225,3.409A1.245,1.245,0,0,0,394.344,88.645Z" transform="translate(-319.746 -71.485)"/><path d="M65.078,41.874H61.413A29.083,29.083,0,0,0,47.6,28.525C57.755,17.968,50.118-.044,35.314,0,20.51-.044,12.873,17.971,23.03,28.525A29.084,29.084,0,0,0,9.216,41.874H5.551A5.622,5.622,0,0,0,.068,48.228L3.944,74.191a5.527,5.527,0,0,0,1.892,3.387,4.294,4.294,0,0,0,2.925,7.412H61.868a4.3,4.3,0,0,0,2.925-7.412,5.527,5.527,0,0,0,1.892-3.387l3.877-25.963a5.623,5.623,0,0,0-5.483-6.354ZM35.314,2.49A14.443,14.443,0,0,1,49.753,16.9C49.027,36,21.6,36,20.876,16.9A14.443,14.443,0,0,1,35.314,2.49ZM25.066,30.351a17.055,17.055,0,0,0,20.5,0A26.6,26.6,0,0,1,58.59,41.874H12.038A26.606,26.606,0,0,1,25.066,30.351ZM68.1,47.86,64.221,73.823a3.07,3.07,0,0,1-3.021,2.6H19.928a1.246,1.246,0,0,0,0,2.49H61.868a1.795,1.795,0,0,1,0,3.589H8.761a1.8,1.8,0,0,1,0-3.589H13.3a1.246,1.246,0,0,0,0-2.49H9.428a3.07,3.07,0,0,1-3.021-2.6L2.531,47.86a3.078,3.078,0,0,1,3.021-3.5H65.078A3.078,3.078,0,0,1,68.1,47.86Z" transform="translate(-0.009 0)"/><path d="M174.727,318.356a7.56,7.56,0,0,0-7.556,7.547c.38,10,14.734,9.995,15.112,0A7.56,7.56,0,0,0,174.727,318.356Zm0,12.6a5.066,5.066,0,1,1,5.066-5.056A5.067,5.067,0,0,1,174.727,330.959Z" transform="translate(-139.422 -265.51)"/></g></g></g></svg>