<svg xmlns="http://www.w3.org/2000/svg" xmlns:xlink="http://www.w3.org/1999/xlink" width="151" height="151" viewBox="0 0 151 151"><defs><linearGradient id="a" x1="0.053" y1="0.047" x2="0.962" y2="0.97" gradientUnits="objectBoundingBox"><stop offset="0" stop-color="#43efd4"/><stop offset="0.798" stop-color="#006cff"/><stop offset="1" stop-color="#006cff"/></linearGradient></defs><g transform="translate(6716 8899)"><rect width="151" height="151" rx="12" transform="translate(-6716 -8899)" fill="url(#a)"/><g transform="translate(-6682.227 -8863.466)"><g transform="translate(0 -0.006)"><g transform="translate(1.541 1.53)"><path d="M37.018,51.893a23.022,23.022,0,0,0,6.889,17.584A27.987,27.987,0,0,1,27.74,74.563,27.442,27.442,0,0,1,0,47.424C0,35.048,8.461,20.284,20.035,16H35.446c6.735,2.5,12.406,8.522,15.982,15.581a23.319,23.319,0,0,0-14.41,20.312Z" transform="translate(0 7.138)" fill="#43efd4"/><path d="M42.46,31.581C38.885,24.522,33.213,18.5,26.478,16H21.855c6.735,2.5,12.406,8.522,15.982,15.581a23.319,23.319,0,0,0-14.41,20.312,23.022,23.022,0,0,0,6.889,17.584,27.916,27.916,0,0,1-13.744,4.978c.729.055,1.458.108,2.2.108a27.987,27.987,0,0,0,16.167-5.086A23.022,23.022,0,0,1,28.05,51.893,23.319,23.319,0,0,1,42.46,31.581Z" transform="translate(8.968 7.138)" fill="#22ac96"/><path d="M34.519,8.081,29.587,24.124H15.07L10.138,8.081A3.082,3.082,0,0,1,13.082,4.09h3.082a6.678,6.678,0,0,1,6.165-3.082A6.678,6.678,0,0,1,28.493,4.09h3.082a3.082,3.082,0,0,1,2.944,3.992Z" transform="translate(5.412 -0.987)" fill="#43efd4"/><path d="M70.171,46.42a1.564,1.564,0,0,1-1.541,1.7H48.657a1.541,1.541,0,0,0-1.541,1.541V69.63a1.564,1.564,0,0,1-1.7,1.541,23.106,23.106,0,0,1-6.981-44.462,22.655,22.655,0,0,1,7.582-1.68A23.117,23.117,0,0,1,70.171,46.42Z" transform="translate(12.989 12.01)" fill="#3d8efc"/><path d="M36.151,41.541V61.514a1.5,1.5,0,0,1-.43,1.029,22.943,22.943,0,0,0,3.358.512,1.564,1.564,0,0,0,1.7-1.541V41.541A1.541,1.541,0,0,1,42.316,40H37.692A1.541,1.541,0,0,0,36.151,41.541Z" transform="translate(19.33 20.125)" fill="#0377bc"/><path d="M38.732,25.029c-.424.02-.84.071-1.258.113A23.1,23.1,0,0,1,58.258,46.42a1.564,1.564,0,0,1-1.541,1.7H61.34a1.564,1.564,0,0,0,1.541-1.7A23.117,23.117,0,0,0,38.732,25.029Z" transform="translate(20.279 12.01)" fill="#0377bc"/><path d="M66.117,45.7A23.188,23.188,0,0,1,44.7,67.117,1.564,1.564,0,0,1,43,65.576V45.541A1.541,1.541,0,0,1,44.541,44H64.576a1.564,1.564,0,0,1,1.541,1.7Z" transform="translate(23.269 22.29)" fill="#e4c4ff"/><path d="M64.426,44H59.8a1.564,1.564,0,0,1,1.541,1.7A23.182,23.182,0,0,1,43.277,66.6a1.581,1.581,0,0,0,1.268.515A23.188,23.188,0,0,0,65.967,45.7,1.564,1.564,0,0,0,64.426,44Z" transform="translate(23.419 22.29)" fill="#af58fa"/></g><path d="M0,57.085A29.018,29.018,0,0,0,29.282,85.766a29.436,29.436,0,0,0,15.965-4.66,24.555,24.555,0,0,0,14.6,6.137c.076,0,.154.008.227.008a3.135,3.135,0,0,0,2.136-.837,3.073,3.073,0,0,0,.98-2.247V64.19H83.163a3.082,3.082,0,0,0,2.249-.98,3.144,3.144,0,0,0,.826-2.363A24.546,24.546,0,0,0,60.479,38.018a24.149,24.149,0,0,0-6.812,1.313A35.6,35.6,0,0,0,43.1,27.2h1.6a1.541,1.541,0,0,0,0-3.082H38.621l4.324-14.052a4.623,4.623,0,0,0-4.417-5.983H36.257A8.544,8.544,0,0,0,29.282,1a8.544,8.544,0,0,0-6.975,3.082H20.035a4.623,4.623,0,0,0-4.418,5.983L19.942,24.12H13.87a1.541,1.541,0,0,0,0,3.082h1.6A38.419,38.419,0,0,0,0,57.085Zm83.163,4.022H63.187A3.082,3.082,0,0,0,60.1,64.19l-.037,19.978a21.576,21.576,0,0,1,.553-43.07c.35-.017.7-.025,1.042-.025a21.456,21.456,0,0,1,21.5,20.035ZM18.565,9.162a1.541,1.541,0,0,1,1.47-1.994h2.037l2.694,6.738a1.542,1.542,0,1,0,2.863-1.147L24.855,5.833a5.6,5.6,0,0,1,4.426-1.748A5.6,5.6,0,0,1,33.7,5.832l-2.774,6.935a1.542,1.542,0,0,0,2.863,1.147l2.7-6.746h2.039A1.541,1.541,0,0,1,40,9.162L35.4,24.12H23.166ZM21.884,27.2h14.78c5.49,2.111,10.564,6.935,14.154,13.348a24.658,24.658,0,0,0-7.8,38.327,26.4,26.4,0,0,1-13.741,3.807,25.933,25.933,0,0,1-26.2-25.6c0-11,7.552-25.567,18.8-29.883Z" transform="translate(0 -0.994)"/><path d="M21.165,47.576a3.082,3.082,0,0,1-3.082-3.082,1.541,1.541,0,0,0-3.082,0,6.165,6.165,0,0,0,4.623,5.946V52.2a1.541,1.541,0,0,0,3.082,0v-1.76a6.152,6.152,0,0,0-1.541-12.11,3.082,3.082,0,1,1,3.082-3.082,1.541,1.541,0,0,0,3.082,0A6.165,6.165,0,0,0,22.706,29.3v-1.76a1.541,1.541,0,0,0-3.082,0V29.3a6.152,6.152,0,0,0,1.541,12.11,3.082,3.082,0,0,1,0,6.165Z" transform="translate(8.117 12.538)"/><path d="M43,47.082V67.117a3.042,3.042,0,0,0,.979,2.247,3.162,3.162,0,0,0,2.147.835,2.271,2.271,0,0,0,.23-.008A24.825,24.825,0,0,0,69.19,47.355a3.162,3.162,0,0,0-.831-2.376A3.039,3.039,0,0,0,66.117,44H46.082A3.082,3.082,0,0,0,43,47.082Zm23.117.046A21.73,21.73,0,0,1,46.082,67.117V47.082H66.1a.06.06,0,0,1,.015.049Z" transform="translate(23.269 22.278)"/><ellipse cx="2" cy="1.5" rx="2" ry="1.5" transform="translate(55 44.472)"/><circle cx="1.5" cy="1.5" r="1.5" transform="translate(63 52.472)"/><path d="M37.541,40.781a1.541,1.541,0,0,0,1.09-.452l7.706-7.706a1.541,1.541,0,0,0-2.179-2.179l-7.706,7.706a1.541,1.541,0,0,0,1.09,2.631Z" transform="translate(19.481 14.709)"/></g></g></g></svg>