<svg xmlns="http://www.w3.org/2000/svg" width="64.502" height="52.646" viewBox="0 0 64.502 52.646"><g transform="translate(-773.999 -1091.238)"><g transform="translate(778.401 1095.651)"><path d="M1040.167,1362.971h-27.829a2.745,2.745,0,0,1-2.745-2.745v-30.037a2.745,2.745,0,0,1,2.745-2.745h27.829a2.745,2.745,0,0,1,2.745,2.745v30.037A2.745,2.745,0,0,1,1040.167,1362.971Z" transform="translate(-1009.593 -1327.444)" fill="#fff"/></g><g transform="translate(779.594 1096.807)"><path d="M1102.784,1394.764v23.41a2.745,2.745,0,0,1-2.745,2.745h-20.627a8.845,8.845,0,0,0-5.623,1.961c-.132.109-.255.217-.363.326a2.73,2.73,0,0,0,1.552.482h27.829a2.745,2.745,0,0,0,2.745-2.745v-30.037a2.725,2.725,0,0,0-.512-1.589A7.7,7.7,0,0,0,1102.784,1394.764Z" transform="translate(-1073.426 -1389.316)" fill="#ededed"/></g><g transform="translate(785.343 1102.462)"><path d="M1400.187,1696.016c.206,0,.379-.238.379-.519v-3.042c0-.281-.173-.519-.379-.519h-18.677c-.205,0-.379.238-.379.519v3.042c0,.281.174.519.379.519Z" transform="translate(-1381.13 -1691.936)" fill="#fff"/></g><g transform="translate(799.454 1119.07)"><path d="M2136.294,2580.772v7.716h6.567a1.26,1.26,0,0,0,1.259-1.259v-6.457Z" transform="translate(-2136.294 -2580.772)" fill="#fce26c"/></g><g transform="translate(799.454 1111.005)"><path d="M2136.294,2156.833h7.826v-6.461a1.26,1.26,0,0,0-1.259-1.259h-6.567Z" transform="translate(-2136.294 -2149.114)" fill="#fff"/></g><g transform="translate(791.001 1119.07)"><path d="M1692.026,2588.488v-7.716h-8.107v7.716Z" transform="translate(-1683.919 -2580.772)" fill="#fff"/></g><g transform="translate(791.001 1111.005)"><path d="M1683.919,2149.114h8.107v7.72h-8.107Z" transform="translate(-1683.919 -2149.114)" fill="#fce26c"/></g><g transform="translate(782.83 1119.07)"><path d="M1254.452,2580.772h-7.825v6.457a1.26,1.26,0,0,0,1.259,1.259h6.566Z" transform="translate(-1246.627 -2580.772)" fill="#fff"/></g><g transform="translate(783.236 1124.018)"><path d="M1274.328,2845.592a8.334,8.334,0,0,0-5.963,2.5l-.025.025c.063.08.13.156.189.239h15.62v-2.768Z" transform="translate(-1268.34 -2845.592)" fill="#ededed"/></g><g transform="translate(804.512 1111.753)"><path d="M2407,2195.833v.306h2.768v-6.95l-.028.028A9.357,9.357,0,0,0,2407,2195.833Z" transform="translate(-2407 -2189.189)" fill="#ededed"/></g><g transform="translate(799.422 1118.973)"><path d="M2139.662,2575.559v3.786a1.261,1.261,0,0,1-1.259,1.259h-3.831v2.768h6.6a1.26,1.26,0,0,0,1.259-1.259v-6.555Z" transform="translate(-2134.572 -2575.559)" fill="#fcba5d"/></g><g transform="translate(828.913 1106.91)"><path d="M3712.879,1929.965c.378.512.719,1.011,1.031,1.518a1.828,1.828,0,0,0,1.555.873h5.073a1.239,1.239,0,0,0,1.235-1.239v-1.152Z" transform="translate(-3712.879 -1929.965)" fill="#96a1ff"/></g><g transform="translate(774.691 1103.441)"><path d="M854.878,1750.549a1.586,1.586,0,0,1-1.584-1.584v-.789c-.311.431-.616.874-.9,1.335a2.18,2.18,0,0,1-1.853,1.04h-2.3v18.874a2.875,2.875,0,0,1-2.872,2.872H817.445a2.875,2.875,0,0,1-2.872-2.872v-25.079a4.057,4.057,0,0,0-3.537,4v23.377a4.048,4.048,0,0,0,4.045,4.041H827.97a.173.173,0,0,1,.173.173v3.727a.173.173,0,0,1-.173.173H823.6a.866.866,0,0,0-.865.865v2.523a.866.866,0,0,0,.865.865h21.457a.866.866,0,0,0,.865-.865v-2.523a.866.866,0,0,0-.865-.865H840.68a.173.173,0,0,1-.173-.173v-3.723a.173.173,0,0,1,.173-.173h11.5a10.963,10.963,0,0,1-2.835-3.614.167.167,0,0,1-.011-.043.17.17,0,0,1,0-.019.173.173,0,0,1,.006-.053.146.146,0,0,1,.025-.055.17.17,0,0,1,.13-.077.29.29,0,0,1,.064.007c.96.306,1.931.558,2.91.767v-14.32a.243.243,0,0,1,.012-.06.175.175,0,0,1,.009-.018.172.172,0,0,1,.014-.028l.027-.024a.171.171,0,0,1,.039-.026l.018-.006a.172.172,0,0,1,.046-.009.241.241,0,0,1,.063.009.162.162,0,0,1,.033.016.153.153,0,0,1,.017.008,10.48,10.48,0,0,0,6.309,2.185.168.168,0,0,1-.028-.089v-9.774Z" transform="translate(-811.036 -1744.345)" fill="#9cf2ff"/></g><g transform="translate(787.359 1109.645)"><g transform="translate(32.618 0)"><path d="M3234.654,2076.36v9.469a10.672,10.672,0,0,0,2.725.393.17.17,0,0,1-.028-.089v-9.774Z" transform="translate(-3234.654 -2076.36)" fill="#7dcfff"/></g><g transform="translate(0 22.504)"><path d="M1510.349,3287.5H1505.8v-3.9a.173.173,0,0,1,.173-.173h11.5a10.963,10.963,0,0,1-2.343-2.719h-10.485a1.609,1.609,0,0,0-1.609,1.609v5.055a1.61,1.61,0,0,1-1.61,1.609h-5.781a9.357,9.357,0,0,0-6.616,2.74l-.028.028h21.35a.865.865,0,0,0,.865-.865v-2.522A.865.865,0,0,0,1510.349,3287.5Z" transform="translate(-1488.999 -3280.716)" fill="#7dcfff"/></g></g><g transform="translate(826.451 1135.89)"><path d="M3582.807,3481.1c-.057.031-.113.065-.17.095a10.82,10.82,0,0,1-1.086.5c-.054.021-.108.041-.162.061-.093.035-.186.073-.28.105l3.135,5.82a1.075,1.075,0,0,0,.952.569,1.106,1.106,0,0,0,.513-.128,1.084,1.084,0,0,0,.436-1.464l-3.073-5.709C3582.985,3481.007,3582.9,3481.055,3582.807,3481.1Z" transform="translate(-3581.109 -3480.956)" fill="#fce26c"/></g><g transform="translate(814.078 1135.887)"><path d="M2922.168,3480.8l-3.074,5.712a1.083,1.083,0,0,0,.437,1.464,1.1,1.1,0,0,0,.511.128,1.075,1.075,0,0,0,.952-.568l3.137-5.826A11.3,11.3,0,0,1,2922.168,3480.8Z" transform="translate(-2918.965 -3480.801)" fill="#fce26c"/></g><g transform="translate(807.883 1106.91)"><path d="M2591.266,1932.355c.009,0,2.472,0,2.472,0a1.836,1.836,0,0,0,1.559-.877c.328-.525.676-1.029,1.033-1.513h-8.9v1.152a1.24,1.24,0,0,0,1.239,1.239h2.588Z" transform="translate(-2587.43 -1929.966)" fill="#96a1ff"/></g><g transform="translate(813.499 1131.45)"><path d="M2903.941,3243.971a.17.17,0,0,1-.074.018,34.829,34.829,0,0,1-6.795.692,31.39,31.39,0,0,1-6.352-.648.181.181,0,0,1-.041-.009q-1.373-.285-2.721-.695a10.63,10.63,0,0,0,3.795,4.033,10.952,10.952,0,0,0,2.255,1.045,10.7,10.7,0,0,0,6.6,0c.1-.033.2-.071.293-.106a10.612,10.612,0,0,0,1.44-.641q.258-.14.509-.293a10.6,10.6,0,0,0,3.811-4.051Q2905.294,3243.7,2903.941,3243.971Z" transform="translate(-2887.959 -3243.318)" fill="#fce26c"/></g><g transform="translate(814.68 1131.45)"><path d="M2966.005,3244.031c-.539.283-1.055.695-1.6.973a12.6,12.6,0,0,1-4.439,1.435,29.6,29.6,0,0,1-3.148.333,10.523,10.523,0,0,1-3.212-.521,10.952,10.952,0,0,1-2.255-1.045c-.061-.037-.119-.08-.179-.118a10.641,10.641,0,0,0,2.624,2.282,10.936,10.936,0,0,0,2.244,1.038,10.7,10.7,0,0,0,6.6,0c.1-.032.2-.07.293-.105a10.579,10.579,0,0,0,1.44-.641c.172-.093.342-.19.511-.293a10.607,10.607,0,0,0,3.809-4.051c-.083.156-1.037.274-1.226.32a7.369,7.369,0,0,0-1.264.3Q2966.1,3243.979,2966.005,3244.031Z" transform="translate(-2951.173 -3243.318)" fill="#fcba5d"/></g><g transform="translate(816.461 1117.794)"><path d="M3052.881,2514.52a10.822,10.822,0,0,1-6.385-2.065v14.059a32.424,32.424,0,0,0,12.773-.055v-14.006A10.822,10.822,0,0,1,3052.881,2514.52Z" transform="translate(-3046.495 -2512.454)" fill="#fce26c"/></g><g transform="translate(826.466 1118.647)"><path d="M3583.312,2558.121a11.1,11.1,0,0,1-1.371.592v.779Z" transform="translate(-3581.941 -2558.121)" fill="#fcba5d"/></g><g transform="translate(826.466 1119.103)"><path d="M3581.941,2589.228v6.447q1.376-.161,2.768-.433v-12.7A9.451,9.451,0,0,0,3581.941,2589.228Z" transform="translate(-3581.941 -2582.545)" fill="#fcba5d"/></g><g transform="translate(817.295 1106.91)"><path d="M3091.1,1929.966v1.151a1.24,1.24,0,0,0,1.238,1.239h8.625a1.24,1.24,0,0,0,1.238-1.239v-1.151Z" transform="translate(-3091.101 -1929.966)" fill="#fff"/></g><g transform="translate(802.386 1091.93)"><path d="M2293.214,1132.008s0,2.136,0,2.136a1.224,1.224,0,0,0,.945,1.22,1.2,1.2,0,0,0,1.448-1.171v-4.709a1.195,1.195,0,0,0-1.2-1.2,1.245,1.245,0,0,0-.248.025,1.223,1.223,0,0,0-.945,1.22V1132S2293.214,1132.007,2293.214,1132.008Z" transform="translate(-2293.213 -1128.288)" fill="#fce26c"/></g><g transform="translate(785.343 1091.93)"><path d="M1382.076,1135.365a1.205,1.205,0,0,0,1.008-.244,1.193,1.193,0,0,0,.439-.927v-4.709a1.2,1.2,0,0,0-1.2-1.2,1.252,1.252,0,0,0-.248.025,1.223,1.223,0,0,0-.945,1.22v4.612A1.224,1.224,0,0,0,1382.076,1135.365Z" transform="translate(-1381.131 -1128.289)" fill="#fce26c"/></g><g transform="translate(808.218 1101.6)"><path d="M2620.023,1645.832h-.146a23.983,23.983,0,0,0-14.558,4.962h29.259A23.978,23.978,0,0,0,2620.023,1645.832Z" transform="translate(-2605.319 -1645.831)" fill="#96a1ff"/></g><g transform="translate(793.865 1091.93)"><path d="M1837.177,1132.01s0,2.136,0,2.136a1.223,1.223,0,0,0,.945,1.22,1.206,1.206,0,0,0,1.009-.245,1.193,1.193,0,0,0,.439-.927v-4.709a1.2,1.2,0,0,0-1.2-1.2,1.255,1.255,0,0,0-.248.025,1.223,1.223,0,0,0-.945,1.22v2.472S1837.177,1132.008,1837.177,1132.01Z" transform="translate(-1837.176 -1128.289)" fill="#fce26c"/></g><g transform="translate(782.83 1111.005)"><path d="M1254.452,2156.833v-7.72h-6.566a1.26,1.26,0,0,0-1.259,1.259v6.461Z" transform="translate(-1246.627 -2149.114)" fill="#fce26c"/></g><g transform="translate(774.691 1103.441)"><path d="M812.419,1773.111v-23.377a4.055,4.055,0,0,1,2.153-3.564v-1.824a4.057,4.057,0,0,0-3.537,4v23.377a4.038,4.038,0,0,0,1.965,3.459A4.008,4.008,0,0,1,812.419,1773.111Z" transform="translate(-811.035 -1744.345)" fill="#fff"/></g><g transform="translate(807.883 1106.91)"><path d="M2589.218,1929.966h-1.789v1.152a1.239,1.239,0,0,0,1.239,1.239h.55Z" transform="translate(-2587.429 -1929.966)" fill="#fff"/></g><g transform="translate(813.499 1131.462)"><path d="M2890.271,3245.928a.275.275,0,0,1,.311-.408q1.024.287,2.063.5a.187.187,0,0,0,.041.009c4.3.731,8.675,1.109,12.417-1.6a2.97,2.97,0,0,0-1.159.151.162.162,0,0,1-.081.016,34.582,34.582,0,0,1-6.787.694,31.373,31.373,0,0,1-6.353-.648.187.187,0,0,1-.041-.009q-1.373-.285-2.721-.695a10.648,10.648,0,0,0,3.805,4.041c.148.09.3.174.452.257A10.646,10.646,0,0,1,2890.271,3245.928Z" transform="translate(-2887.96 -3243.944)" fill="#fff"/></g><g transform="translate(816.461 1117.795)"><path d="M3056.014,2515.237l1.848-1.848a10.906,10.906,0,0,1-11.367-.86v14.06c.459.093.921.173,1.384.244v-10.9a1.152,1.152,0,0,1,1.669-1.024,10.819,10.819,0,0,0,4.716,1.069A2.482,2.482,0,0,0,3056.014,2515.237Z" transform="translate(-3046.495 -2512.529)" fill="#fff"/></g><g transform="translate(808.218 1101.6)"><path d="M2621.256,1647.216h.152a24.055,24.055,0,0,1,12.548,3.578h.623a23.976,23.976,0,0,0-14.555-4.962h-.146a23.981,23.981,0,0,0-14.558,4.962h3.392A24.047,24.047,0,0,1,2621.256,1647.216Z" transform="translate(-2605.32 -1645.831)" fill="#fff"/></g><g transform="translate(782.83 1111.005)"><path d="M1248.011,2151.756a1.261,1.261,0,0,1,1.259-1.259h13.981v-1.384h-15.365a1.26,1.26,0,0,0-1.259,1.259v6.46h1.384Z" transform="translate(-1246.627 -2149.113)" fill="#fff"/></g><g transform="translate(807.192 1100.908)"><path d="M2581.209,1615.142a.517.517,0,0,1-.335-.122,23.618,23.618,0,0,0-14.726-5.187h-.136a23.627,23.627,0,0,0-14.748,5.193.519.519,0,1,1-.653-.807,24.657,24.657,0,0,1,15.369-5.424h.182a24.647,24.647,0,0,1,15.372,5.424.449.449,0,0,1,.041.037.519.519,0,0,1-.367.887Z" transform="translate(-2550.419 -1608.794)" fill="#000d42"/></g><g transform="translate(807.192 1106.218)"><path d="M2581.208,1893.966h-30.271a.519.519,0,0,1,0-1.038h30.271a.519.519,0,0,1,0,1.038Z" transform="translate(-2550.419 -1892.928)" fill="#000d42"/></g><g transform="translate(807.191 1106.217)"><path d="M2557.393,1896.685h-5.069a1.933,1.933,0,0,1-1.931-1.931v-1.325a.519.519,0,1,1,1.038,0v1.325a.894.894,0,0,0,.893.893h5.069a1.493,1.493,0,0,0,1.266-.715c.4-.632.816-1.244,1.251-1.817a.519.519,0,0,1,.827.627c-.416.548-.82,1.134-1.2,1.74A2.524,2.524,0,0,1,2557.393,1896.685Z" transform="translate(-2550.393 -1892.91)" fill="#000d42"/></g><g transform="translate(828.05 1106.217)"><path d="M3675.205,1896.685h-5.073a2.516,2.516,0,0,1-2.143-1.2c-.359-.58-.751-1.15-1.2-1.743a.519.519,0,1,1,.827-.627c.47.619.881,1.216,1.257,1.823a1.483,1.483,0,0,0,1.261.709h5.073a.892.892,0,0,0,.889-.893v-1.325a.519.519,0,1,1,1.038,0v1.325A1.931,1.931,0,0,1,3675.205,1896.685Z" transform="translate(-3666.682 -1892.91)" fill="#000d42"/></g><g transform="translate(816.603 1106.218)"><path d="M3064.619,1896.7h-8.625a1.932,1.932,0,0,1-1.93-1.93v-1.323a.519.519,0,1,1,1.038,0v1.323a.893.893,0,0,0,.892.892h8.625a.893.893,0,0,0,.892-.892v-1.324a.519.519,0,0,1,1.038,0v1.324A1.933,1.933,0,0,1,3064.619,1896.7Z" transform="translate(-3054.063 -1892.928)" fill="#000d42"/></g><g transform="translate(822.327 1109.039)"><path d="M3360.961,2054.814a.519.519,0,0,1-.519-.519v-9.861a.519.519,0,0,1,1.038,0v9.861A.519.519,0,0,1,3360.961,2054.814Z" transform="translate(-3360.442 -2043.915)" fill="#000d42"/></g><g transform="translate(822.327 1097.18)"><path d="M3360.943,1414.026a.519.519,0,0,1-.519-.519v-3.728a.519.519,0,0,1,1.038,0v3.728A.519.519,0,0,1,3360.943,1414.026Z" transform="translate(-3360.424 -1409.259)" fill="#000d42"/></g><g transform="translate(815.768 1116.941)"><path d="M3016.466,2470.084a11.174,11.174,0,0,1-6.876-2.335.519.519,0,1,1,.633-.823,10.256,10.256,0,0,0,12.487,0,.519.519,0,1,1,.633.823A11.173,11.173,0,0,1,3016.466,2470.084Z" transform="translate(-3009.387 -2466.819)" fill="#000d42"/></g><g transform="translate(812.633 1130.66)"><path d="M2851.844,3208.119a11.261,11.261,0,0,1-3.517-.558,11.64,11.64,0,0,1-2.388-1.1,11.327,11.327,0,0,1-4.258-4.686.519.519,0,1,1,.933-.456,10.288,10.288,0,0,0,3.866,4.256,10.6,10.6,0,0,0,2.172,1,10.269,10.269,0,0,0,12.416-5.26.519.519,0,0,1,.933.454,11.285,11.285,0,0,1-10.157,6.35Z" transform="translate(-2841.627 -3201.022)" fill="#000d42"/></g><g transform="translate(812.634 1130.659)"><path d="M2851.633,3203.467a31.539,31.539,0,0,1-9.617-1.487.519.519,0,0,1,.315-.989,32.346,32.346,0,0,0,19.086,0,.519.519,0,1,1,.288,1A36.214,36.214,0,0,1,2851.633,3203.467Z" transform="translate(-2841.654 -3200.967)" fill="#000d42"/></g><g transform="translate(815.769 1116.941)"><path d="M3009.977,2482.423a.519.519,0,0,1-.519-.519v-14.537a.519.519,0,0,1,1.038,0V2481.9A.519.519,0,0,1,3009.977,2482.423Z" transform="translate(-3009.458 -2466.848)" fill="#000d42"/></g><g transform="translate(828.888 1116.942)"><path d="M3712.089,2482.374a.519.519,0,0,1-.519-.519v-14.487a.519.519,0,0,1,1.038,0v14.487A.519.519,0,0,1,3712.089,2482.374Z" transform="translate(-3711.57 -2466.849)" fill="#000d42"/></g><g transform="translate(825.682 1135.129)"><path d="M3544.833,3448.985a1.766,1.766,0,0,1-1.563-.935l-3.23-6a.519.519,0,0,1,.3-.74,10.16,10.16,0,0,0,2.168-1,.519.519,0,0,1,.729.2l3.159,5.869a1.777,1.777,0,0,1-.718,2.4A1.8,1.8,0,0,1,3544.833,3448.985Zm-3.594-6.894,2.946,5.469a.75.75,0,0,0,1,.3.737.737,0,0,0,.294-1l-2.9-5.4A11.19,11.19,0,0,1,3541.24,3442.091Z" transform="translate(-3539.978 -3440.231)" fill="#000d42"/></g><g transform="translate(813.387 1135.129)"><path d="M2883.712,3448.982a1.8,1.8,0,0,1-.836-.208,1.777,1.777,0,0,1-.723-2.4l3.159-5.87a.519.519,0,1,1,.914.492l-3.159,5.869a.737.737,0,0,0,.3,1,.755.755,0,0,0,.994-.3l3.233-6a.519.519,0,1,1,.914.492l-3.231,6A1.766,1.766,0,0,1,2883.712,3448.982Z" transform="translate(-2881.942 -3440.227)" fill="#000d42"/></g><g transform="translate(787.39 1095.131)"><path d="M1496.962,1300.659h-5.783a.519.519,0,0,1,0-1.038h5.783a.519.519,0,0,1,0,1.038Z" transform="translate(-1490.659 -1299.621)" fill="#000d42"/></g><g transform="translate(777.882 1095.132)"><path d="M1012.954,1336.272H985.034a3.222,3.222,0,0,1-3.218-3.218v-30.17a3.222,3.222,0,0,1,3.218-3.218H989.1a.519.519,0,0,1,0,1.038h-4.069a2.182,2.182,0,0,0-2.18,2.18v30.17a2.182,2.182,0,0,0,2.18,2.18h27.921a2.182,2.182,0,0,0,2.18-2.18v-19.049a.519.519,0,0,1,1.038,0v19.049A3.222,3.222,0,0,1,1012.954,1336.272Z" transform="translate(-981.816 -1299.666)" fill="#000d42"/></g><g transform="translate(804.433 1095.132)"><path d="M2410.029,1308.666a.519.519,0,0,1-.519-.519v-5.263a2.182,2.182,0,0,0-2.18-2.18h-4.069a.519.519,0,0,1,0-1.038h4.069a3.221,3.221,0,0,1,3.218,3.218v5.263A.519.519,0,0,1,2410.029,1308.666Z" transform="translate(-2402.742 -1299.666)" fill="#000d42"/></g><g transform="translate(782.138 1110.313)"><path d="M1233.473,2129.243h-21.932a1.953,1.953,0,0,1-1.951-1.951v-13.264a1.953,1.953,0,0,1,1.951-1.951h21.932a1.953,1.953,0,0,1,1.951,1.951v13.264A1.953,1.953,0,0,1,1233.473,2129.243Zm-21.932-16.128a.914.914,0,0,0-.913.913v13.264a.914.914,0,0,0,.913.913h21.932a.914.914,0,0,0,.913-.913v-13.264a.914.914,0,0,0-.913-.913Z" transform="translate(-1209.59 -2112.077)" fill="#000d42"/></g><g transform="translate(782.15 1118.378)"><path d="M1235.522,2544.773h-24.8a.519.519,0,0,1,0-1.038h24.8a.519.519,0,0,1,0,1.038Z" transform="translate(-1210.205 -2543.735)" fill="#000d42"/></g><g transform="translate(790.309 1110.315)"><path d="M1647.4,2129.367a.519.519,0,0,1-.519-.519v-16.126a.519.519,0,1,1,1.038,0v16.126A.519.519,0,0,1,1647.4,2129.367Z" transform="translate(-1646.882 -2112.203)" fill="#000d42"/></g><g transform="translate(798.762 1110.315)"><path d="M2099.775,2129.367a.519.519,0,0,1-.519-.519v-16.126a.519.519,0,0,1,1.038,0v16.126A.519.519,0,0,1,2099.775,2129.367Z" transform="translate(-2099.256 -2112.203)" fill="#000d42"/></g><g transform="translate(784.651 1091.238)"><path d="M1345.979,1099.725a1.951,1.951,0,0,1-.386-.039,1.917,1.917,0,0,1-1.5-1.9v-4.612a1.916,1.916,0,0,1,1.5-1.9,1.89,1.89,0,0,1,2.277,1.849v4.709a1.888,1.888,0,0,1-1.891,1.888Zm0-7.448a.922.922,0,0,0-.184.019.888.888,0,0,0-.667.881v4.612a.888.888,0,0,0,.668.881.852.852,0,0,0,1.033-.832v-4.709a.848.848,0,0,0-.313-.659A.839.839,0,0,0,1345.982,1092.277Z" transform="translate(-1344.093 -1091.239)" fill="#000d42"/></g><g transform="translate(801.694 1091.238)"><path d="M2258.063,1099.724a1.95,1.95,0,0,1-.386-.039,1.917,1.917,0,0,1-1.5-1.9v-4.611a1.917,1.917,0,0,1,1.5-1.9,1.89,1.89,0,0,1,2.277,1.849v4.709a1.888,1.888,0,0,1-1.891,1.888Zm0-7.448a.932.932,0,0,0-.184.019.888.888,0,0,0-.667.881v4.611a.888.888,0,0,0,.668.881.852.852,0,0,0,1.033-.832v-4.709a.848.848,0,0,0-.312-.659A.839.839,0,0,0,2258.066,1092.276Z" transform="translate(-2256.176 -1091.238)" fill="#000d42"/></g><g transform="translate(793.173 1091.238)"><path d="M1802.025,1099.726a1.951,1.951,0,0,1-.386-.039,1.917,1.917,0,0,1-1.5-1.9v-4.611a1.917,1.917,0,0,1,1.5-1.9,1.89,1.89,0,0,1,2.277,1.849v4.71a1.887,1.887,0,0,1-1.891,1.888Zm0-7.448a.932.932,0,0,0-.184.019.888.888,0,0,0-.667.881v4.612a.888.888,0,0,0,.668.881.852.852,0,0,0,1.033-.832v-4.71a.848.848,0,0,0-.312-.659A.84.84,0,0,0,1802.028,1092.278Z" transform="translate(-1800.139 -1091.24)" fill="#000d42"/></g><g transform="translate(784.651 1101.77)"><path d="M1363.842,1660.364h-18.677a1.149,1.149,0,0,1-1.071-1.211v-3.042a1.149,1.149,0,0,1,1.071-1.211h18.677a1.149,1.149,0,0,1,1.071,1.211v3.042A1.149,1.149,0,0,1,1363.842,1660.364Zm-.029-4.432-18.648.007c.013,0-.033.066-.033.173v3.042a.238.238,0,0,0,.062.18l18.627-.007a.26.26,0,0,0,.054-.173v-3.042A.238.238,0,0,0,1363.813,1655.931Z" transform="translate(-1344.093 -1654.9)" fill="#000d42"/></g><g transform="translate(801.24 1112.684)"><path d="M2235.467,2243.109a.517.517,0,0,1-.367-.152l-3.069-3.069a.519.519,0,0,1,.734-.734l3.069,3.069a.519.519,0,0,1-.367.886Z" transform="translate(-2231.879 -2239.002)" fill="#000d42"/></g><g transform="translate(801.24 1112.684)"><path d="M2232.4,2243.109a.519.519,0,0,1-.367-.886l3.069-3.069a.519.519,0,0,1,.734.734l-3.069,3.069A.517.517,0,0,1,2232.4,2243.109Z" transform="translate(-2231.879 -2239.002)" fill="#000d42"/></g><g transform="translate(784.651 1120.781)"><path d="M1347.682,2676.423a.518.518,0,0,1-.367-.152l-3.069-3.069a.519.519,0,0,1,.734-.734l3.069,3.069a.519.519,0,0,1-.367.886Z" transform="translate(-1344.094 -2672.316)" fill="#000d42"/></g><g transform="translate(784.651 1120.781)"><path d="M1344.612,2676.423a.519.519,0,0,1-.367-.886l3.069-3.069a.519.519,0,0,1,.734.734l-3.069,3.069A.517.517,0,0,1,1344.612,2676.423Z" transform="translate(-1344.093 -2672.316)" fill="#000d42"/></g><g transform="translate(793.014 1120.781)"><path d="M1795.255,2676.423a.518.518,0,0,1-.367-.152l-3.069-3.069a.519.519,0,0,1,.734-.734l3.069,3.069a.519.519,0,0,1-.367.886Z" transform="translate(-1791.667 -2672.316)" fill="#000d42"/></g><g transform="translate(793.014 1120.781)"><path d="M1792.185,2676.423a.519.519,0,0,1-.367-.886l3.069-3.069a.519.519,0,0,1,.734.734l-3.069,3.069A.518.518,0,0,1,1792.185,2676.423Z" transform="translate(-1791.666 -2672.316)" fill="#000d42"/></g><g transform="translate(795.911 1095.131)"><path d="M1953.008,1300.659h-5.783a.519.519,0,0,1,0-1.038h5.783a.519.519,0,0,1,0,1.038Z" transform="translate(-1946.705 -1299.621)" fill="#000d42"/></g><g transform="translate(773.999 1102.726)"><path d="M808.709,1747.238H787.252a1.559,1.559,0,0,1-1.557-1.557v-2.523a1.559,1.559,0,0,1,1.557-1.557h3.855v-2.689h-12.37a4.741,4.741,0,0,1-4.737-4.734V1710.8a4.754,4.754,0,0,1,4.361-4.718.519.519,0,1,1,.081,1.035,3.711,3.711,0,0,0-3.4,3.683v23.377a3.7,3.7,0,0,0,3.7,3.7h12.889a.519.519,0,0,1,.519.519v3.727a.519.519,0,0,1-.519.519h-4.374a.52.52,0,0,0-.519.519v2.523a.52.52,0,0,0,.519.519h21.457a.52.52,0,0,0,.519-.519v-2.523a.52.52,0,0,0-.519-.519h-4.374a.519.519,0,0,1-.519-.519V1738.4a.519.519,0,0,1,.519-.519h11.992a.519.519,0,0,1,0,1.038H804.854v2.685h3.855a1.559,1.559,0,0,1,1.557,1.557v2.523A1.559,1.559,0,0,1,808.709,1747.238Z" transform="translate(-773.999 -1706.083)" fill="#000d42"/></g></g></svg>