<svg xmlns="http://www.w3.org/2000/svg" width="259" height="259" viewBox="0 0 259 259"><g transform="translate(6799 5060)"><rect width="259" height="259" rx="22" transform="translate(-6799 -5060)" fill="#fff"/><g transform="translate(-6757.625 -5027)"><g transform="translate(3.758 127.872)"><path d="M5.31,63.273A8.28,8.28,0,0,1,2,56.653V47l6.459,3.23a8.274,8.274,0,0,1,4.573,7.4V69.065Z" transform="translate(-2 -47)" fill="#52565a"/></g><g transform="translate(53.404 122.355)"><path d="M53.1,45c0,7.615-7.408,13.79-16.549,13.79S20,52.615,20,45" transform="translate(-20 -45)" fill="#c66b60"/></g><g transform="translate(122.502 111.119)"><path d="M53.181,82.89V82.5l.9-3.619A154.515,154.515,0,0,0,58.7,41.422v-.5a35.764,35.764,0,0,1-10.45,10.848l-.582.389-.177.138q-.439,13.665-1.947,27.267l-.488,4.385a10.428,10.428,0,0,1,8.128-1.062Z" transform="translate(-45.053 -40.926)" fill="#a8b0bc"/></g><g transform="translate(31.339 119.719)"><path d="M25.89,77.442l-.1-.422,1.2-8.385a155.124,155.124,0,0,0,1.561-21.954V45.63c-.993-.292-2-.535-2.979-.861l-2.179-.725a129.633,129.633,0,0,0-8.627,32.945l-.006.03H12a10.806,10.806,0,0,1,5.53,1.522,10.42,10.42,0,0,1,8.36-1.1Z" transform="translate(-12 -44.044)" fill="#a8b0bc"/></g><g transform="translate(31.339 152.694)"><path d="M23.032,56A11.033,11.033,0,0,1,34.065,67.032v5.516H12V67.032A11.033,11.033,0,0,1,23.032,56Z" transform="translate(-12 -56)" fill="#52565a"/></g><g transform="translate(116.84 152.694)"><path d="M54.032,56A11.033,11.033,0,0,1,65.065,67.032v5.516H43V67.032A11.033,11.033,0,0,1,54.032,56Z" transform="translate(-43 -56)" fill="#52565a"/></g><g transform="translate(20.307 152.694)"><path d="M19.032,56A11.033,11.033,0,0,1,30.065,67.032v5.516H8V67.032A11.033,11.033,0,0,1,19.032,56Z" transform="translate(-8 -56)" fill="#52565a"/></g><g transform="translate(105.808 152.694)"><path d="M50.032,56A11.033,11.033,0,0,1,61.065,67.032v5.516H39V67.032A11.033,11.033,0,0,1,50.032,56Z" transform="translate(-39 -56)" fill="#52565a"/></g><g transform="translate(14.995 31.338)"><path d="M132.742,72.678V72.8a35.853,35.853,0,0,1-15.967,29.834l-.582.386-.177.138q-.439,13.665-1.947,27.266l-.634,5.693H102.4l-.805-3.624a197.559,197.559,0,0,1-4.413-32.143l-.006-.088h-.292l-2.537.847a91.057,91.057,0,0,1-28.781,4.669h-.8a91.073,91.073,0,0,1-28.783-4.669l-2.179-.725a129.633,129.633,0,0,0-8.627,32.945l0,.03H16.9l-8.274-33.1-2.5-37.482a24.851,24.851,0,0,1,.687-7.67l.3-1.178a24.817,24.817,0,0,1,21.833-18.7l43.12-3.922V23.032A11.033,11.033,0,0,1,83.1,12H91.37" transform="translate(-6.074 -12)" fill="#e3e4e5"/></g><g transform="translate(94.775 17.548)"><path d="M37.758,67.678l-2.7-37.855c-.036-.5-.055-1.012-.055-1.517A21.3,21.3,0,0,1,56.3,7H74.372A21.3,21.3,0,0,1,95.678,28.3c0,.507-.019,1.012-.055,1.517l-2.7,37.858" transform="translate(-35 -7)" fill="#e3e4e5"/></g><g transform="translate(92.017 3.757)"><path d="M50.549,18.549l-.927-1.39A27.325,27.325,0,0,1,45.032,2L38.827,6.653a12.069,12.069,0,0,0-1.291,18.19l1.98,1.98" transform="translate(-34 -2)" fill="#efbe9a"/></g><g transform="translate(141.663 3.757)"><path d="M52,18.549l.927-1.39A27.325,27.325,0,0,0,57.516,2l6.206,4.653a12.069,12.069,0,0,1,1.291,18.19l-1.98,1.98" transform="translate(-52 -2)" fill="#efbe9a"/></g><g transform="translate(80.985 31.338)"><path d="M43.79,12H41.868A11.869,11.869,0,0,0,30,23.868v7.439h3.359a11.87,11.87,0,0,0,8.393-3.475L43.79,25.79" transform="translate(-30 -12)" fill="#c66b60"/></g><g transform="translate(155.453 31.338)"><path d="M57,12h1.922A11.869,11.869,0,0,1,70.79,23.868v7.439H67.431a11.87,11.87,0,0,1-8.393-3.475L57,25.79" transform="translate(-57 -12)" fill="#c66b60"/></g><g transform="translate(97.533 64.435)"><path d="M55.307,24a25.7,25.7,0,0,1,8.274,1.346A25.7,25.7,0,0,1,71.855,24c10.663,0,19.307,6.175,19.307,13.79s-8.644,13.79-19.307,13.79a25.7,25.7,0,0,1-8.274-1.346,25.7,25.7,0,0,1-8.274,1.346C44.644,51.581,36,45.406,36,37.79S44.644,24,55.307,24Z" transform="translate(-36 -24)" fill="#c66b60"/></g><g transform="translate(125.114 17.548)"><path d="M55.036,7H53.472A22.045,22.045,0,0,0,75.244,44.394l1.04-14.571c.036-.5.055-1.012.055-1.517A21.3,21.3,0,0,0,55.036,7Z" transform="translate(-46 -7)" fill="#52565a"/></g><g transform="translate(39.613 53.403)"><path d="M17.758,20a13.79,13.79,0,1,0,22.065,0" transform="translate(-15 -20)" fill="#52565a"/></g><g transform="translate(58.92 80.984)"><path d="M33.032,30A11.033,11.033,0,0,1,44.065,41.032c0,.138-.036.265-.041.4a10.911,10.911,0,0,1,2.8-.4A11.032,11.032,0,1,1,35.79,52.065c0-.138.036-.265.041-.4a10.911,10.911,0,0,1-2.8.4,11.032,11.032,0,0,1,0-22.065Z" transform="translate(-22 -30)" fill="#52565a"/></g><g transform="translate(17.549 86.5)"><path d="M7,59.581A13.79,13.79,0,0,0,7,32" transform="translate(-7 -32)" fill="#52565a"/></g><g transform="translate(94.775 61.677)"><path d="M73.613,56.1a28.519,28.519,0,0,1-8.274-1.208A28.519,28.519,0,0,1,57.065,56.1C44.9,56.1,35,48.675,35,39.549S44.9,23,57.065,23a28.519,28.519,0,0,1,8.274,1.208A28.519,28.519,0,0,1,73.613,23c12.166,0,22.065,7.422,22.065,16.549S85.779,56.1,73.613,56.1Zm-8.274-6.859a2.784,2.784,0,0,1,.885.146,22.97,22.97,0,0,0,7.389,1.2c8.969,0,16.549-5.053,16.549-11.032S82.583,28.516,73.613,28.516a22.9,22.9,0,0,0-7.389,1.2,2.787,2.787,0,0,1-1.773,0,22.867,22.867,0,0,0-7.386-1.2c-8.969,0-16.549,5.053-16.549,11.032S48.1,50.581,57.065,50.581a22.9,22.9,0,0,0,7.389-1.2,2.781,2.781,0,0,1,.885-.143Z" transform="translate(-35 -23)"/></g><g transform="translate(136.147 72.71)"><path d="M54.137,35.274a4.137,4.137,0,1,1,4.137-4.137A4.142,4.142,0,0,1,54.137,35.274Z" transform="translate(-50 -27)"/></g><g transform="translate(105.808 72.71)"><path d="M43.137,35.274a4.137,4.137,0,1,1,4.137-4.137A4.142,4.142,0,0,1,43.137,35.274Z" transform="translate(-39 -27)"/></g><g transform="translate(92.017 14.79)"><path d="M97.428,69.632l-5.5-.394,2.7-37.858c.03-.43.047-.874.047-1.316A18.57,18.57,0,0,0,76.13,11.516H58.062A18.569,18.569,0,0,0,39.516,30.064c0,.441.017.885.05,1.324l2.7,37.852-5.5.394-2.7-37.858C34.022,31.2,34,30.635,34,30.064A24.092,24.092,0,0,1,58.064,6H76.133a24.091,24.091,0,0,1,24.062,24.064c0,.571-.022,1.139-.058,1.707Z" transform="translate(-34 -6)"/></g><g transform="translate(138.905 39.613)"><path d="M55.137,23.274a4.137,4.137,0,1,1,4.137-4.137A4.142,4.142,0,0,1,55.137,23.274Z" transform="translate(-51 -15)"/></g><g transform="translate(103.049 39.613)"><path d="M42.137,23.274a4.137,4.137,0,1,1,4.137-4.137A4.142,4.142,0,0,1,42.137,23.274Z" transform="translate(-38 -15)"/></g><g transform="translate(89.259 1)"><path d="M39.324,30.53l-1.983-1.983A14.723,14.723,0,0,1,33,18.066a14.9,14.9,0,0,1,5.93-11.86l6.206-4.656a2.757,2.757,0,0,1,4.413,2.206,24.508,24.508,0,0,0,4.126,13.628l.927,1.39-4.589,3.059-.927-1.39A30.026,30.026,0,0,1,44.479,8.937l-2.24,1.68a9.315,9.315,0,0,0-1,14.033l1.983,1.983Z" transform="translate(-33 -1)"/></g><g transform="translate(139.368 1)"><path d="M66.445,30.53l-3.9-3.9,1.983-1.983a9.309,9.309,0,0,0-1-14.028L61.29,8.943a30.027,30.027,0,0,1-4.606,11.507l-.927,1.39-4.589-3.059.927-1.39A24.539,24.539,0,0,0,56.221,3.757a2.757,2.757,0,0,1,4.413-2.206l6.206,4.656a14.89,14.89,0,0,1,5.93,11.86A14.729,14.729,0,0,1,68.428,28.55Z" transform="translate(-51.168 -1)"/></g><g transform="translate(78.227 28.58)"><path d="M35.117,35.823H31.758A2.756,2.756,0,0,1,29,33.065V25.626A14.631,14.631,0,0,1,43.626,11h1.922v5.516H43.626a9.112,9.112,0,0,0-9.11,9.11v4.68h.6a9.057,9.057,0,0,0,6.44-2.667L43.6,25.6l3.9,3.9L45.458,31.54a14.531,14.531,0,0,1-10.34,4.283Z" transform="translate(-29 -11)"/></g><g transform="translate(153.503 28.58)"><path d="M72.033,35.823H68.674a14.531,14.531,0,0,1-10.34-4.283L56.293,29.5l3.9-3.9,2.041,2.041a9.057,9.057,0,0,0,6.44,2.667h.6v-4.68a9.112,9.112,0,0,0-9.11-9.11H58.243V11h1.922A14.627,14.627,0,0,1,74.792,25.626v7.439a2.756,2.756,0,0,1-2.758,2.758Z" transform="translate(-56.293 -11)"/></g><g transform="translate(122.356 15.479)"><path d="M69.823,49.69A24.823,24.823,0,0,1,53.4,6.25l3.652,4.137a19.309,19.309,0,0,0,20,32.383l2.074,5.114a24.7,24.7,0,0,1-9.311,1.807Z" transform="translate(-45 -6.25)"/></g><g transform="translate(12.236 47.895)"><path d="M15.985,123.47l-8.274-33.1a2.618,2.618,0,0,1-.077-.485L5.135,52.4A27.471,27.471,0,0,1,5.9,43.879l.29-1.175A27.612,27.612,0,0,1,30.452,21.922L73.572,18l.5,5.494-43.12,3.919a22.09,22.09,0,0,0-19.411,16.62l-.292,1.18a22.041,22.041,0,0,0-.612,6.824L13.12,89.275l8.214,32.86Z" transform="translate(-5.074 -18.003)"/></g><g transform="translate(17.549 149.936)"><path d="M31.823,77.065H9.758A2.756,2.756,0,0,1,7,74.307V68.79a13.79,13.79,0,1,1,27.581,0v5.516A2.756,2.756,0,0,1,31.823,77.065ZM12.516,71.549H29.065V68.79a8.274,8.274,0,0,0-16.549,0Z" transform="translate(-7 -55)"/></g><g transform="translate(35.471 149.936)"><path d="M31.431,77.065H20.4V71.549h8.274V68.79a8.277,8.277,0,0,0-12.406-7.171L13.5,56.848A13.794,13.794,0,0,1,34.189,68.79v5.516a2.756,2.756,0,0,1-2.758,2.758Z" transform="translate(-13.498 -55)"/></g><g transform="translate(31.35 107.329)"><path d="M17.49,85.226,12,84.688l0-.033a132.237,132.237,0,0,1,12.966-42.9l1.1-2.2,4.934,2.468-1.1,2.2a126.606,126.606,0,0,0-12.417,41Z" transform="translate(-12.004 -39.552)"/></g><g transform="translate(42.399 122.355)"><path d="M21.471,75.731,16.01,74.95l1.2-8.385A153.52,153.52,0,0,0,18.741,45h5.516a158.845,158.845,0,0,1-1.586,22.346Z" transform="translate(-16.01 -45)"/></g><g transform="translate(41.5 116.98)"><path d="M48.674,53.943h-.8A93.627,93.627,0,0,1,18.221,49.13l-2.537-.847,1.746-5.229,2.537.847a88.212,88.212,0,0,0,27.906,4.526h.8A88.155,88.155,0,0,0,76.58,43.9l2.537-.847,1.746,5.229-2.537.847A93.522,93.522,0,0,1,48.674,53.943Z" transform="translate(-15.684 -43.051)"/></g><g transform="translate(28.581 160.969)"><path d="M11,59h5.516v8.274H11Z" transform="translate(-11 -59)"/></g><g transform="translate(103.049 149.936)"><path d="M62.823,77.065H40.758A2.756,2.756,0,0,1,38,74.307V68.79a13.79,13.79,0,1,1,27.581,0v5.516A2.756,2.756,0,0,1,62.823,77.065ZM43.516,71.549H60.065V68.79a8.274,8.274,0,0,0-16.549,0Z" transform="translate(-38 -55)"/></g><g transform="translate(120.972 149.936)"><path d="M62.431,77.065H51.4V71.549h8.274V68.79a8.277,8.277,0,0,0-12.406-7.171L44.5,56.848A13.794,13.794,0,0,1,65.189,68.79v5.516a2.756,2.756,0,0,1-2.758,2.758Z" transform="translate(-44.498 -55)"/></g><g transform="translate(114.082 160.969)"><path d="M42,59h5.516v8.274H42Z" transform="translate(-42 -59)"/></g><g transform="translate(103.049 108.565)"><path d="M43.58,87.486l-.786-3.541A201.83,201.83,0,0,1,38,40.268L43.516,40A196.8,196.8,0,0,0,48.18,82.748l.786,3.541Z" transform="translate(-38 -40)"/></g><g transform="translate(119.615 111.323)"><path d="M49.489,85.433l-5.483-.61.632-5.693a345.351,345.351,0,0,0,2.11-38.073L52.264,41a352.606,352.606,0,0,1-2.14,38.74Z" transform="translate(-44.006 -41)"/></g><g transform="translate(123.586 92.016)"><path d="M48.5,66.634l-3.059-4.589.582-.389A33.032,33.032,0,0,0,60.764,34.119L66.281,34v.119A38.537,38.537,0,0,1,49.087,66.245Z" transform="translate(-45.446 -34)"/></g><g transform="translate(127.958 111.323)"><path d="M52.379,83.042,47.031,81.7l.9-3.619a152.032,152.032,0,0,0,4.526-36.79V41h5.516v.292A157.262,157.262,0,0,1,53.284,79.42Z" transform="translate(-47.031 -41)"/></g><g transform="translate(1 59.024)"><path d="M14.79,115.708a2.744,2.744,0,0,1-1.655-.552l-7.723-5.792A11.088,11.088,0,0,1,1,100.539V50.286A29.506,29.506,0,0,1,22.309,22.038l1.514,5.307A23.959,23.959,0,0,0,6.516,50.286V89.181L11.45,91.65a10.97,10.97,0,0,1,6.1,9.866V112.95a2.755,2.755,0,0,1-2.758,2.758ZM6.516,95.348v5.191a5.544,5.544,0,0,0,2.209,4.416l3.307,2.48v-5.919a5.488,5.488,0,0,0-3.048-4.934Z" transform="translate(-1 -22.038)"/></g><g transform="translate(36.855 51.745)"><path d="M30.549,45.879A16.551,16.551,0,0,1,17.31,19.4l4.413,3.312a10.93,10.93,0,0,0-2.206,6.619,11.032,11.032,0,1,0,22.065,0,10.92,10.92,0,0,0-2.2-6.617L43.785,19.4A16.369,16.369,0,0,1,47.1,29.331,16.565,16.565,0,0,1,30.549,45.879Z" transform="translate(-14 -19.399)"/></g><g transform="translate(56.162 78.226)"><path d="M48.581,67.613A13.809,13.809,0,0,1,35.069,56.578c-.1,0-.188,0-.279,0A13.79,13.79,0,1,1,48.3,40.035c.1,0,.188,0,.279,0a13.79,13.79,0,1,1,0,27.581ZM37.59,50.662a2.757,2.757,0,0,1,2.755,2.868c0,.094-.033.37-.047.463a8.47,8.47,0,1,0,6.186-8.134,2.757,2.757,0,0,1-3.459-2.775c0-.094.033-.375.047-.466a8.46,8.46,0,1,0-6.178,8.134,2.718,2.718,0,0,1,.7-.091Z" transform="translate(-21 -29)"/></g><g transform="translate(17.549 83.742)"><path d="M7,64.1V58.581A11.032,11.032,0,0,0,7,36.516V31A16.549,16.549,0,1,1,7,64.1Z" transform="translate(-7 -31)"/></g><g transform="translate(50.646 122.355)"><path d="M38.307,61.549C27.663,61.549,19,54.127,19,45h5.516c0,6.084,6.186,11.032,13.79,11.032S52.1,51.084,52.1,45h5.516C57.613,54.127,48.95,61.549,38.307,61.549Z" transform="translate(-19 -45)"/></g><g transform="translate(61.678 136.146)"><path d="M23,50h5.516v8.274H23Z" transform="translate(-23 -50)"/></g><g transform="translate(72.71 136.146)"><path d="M27,50h5.516v8.274H27Z" transform="translate(-27 -50)"/></g></g></g></svg>