<svg xmlns="http://www.w3.org/2000/svg" width="64.502" height="62.795" viewBox="0 0 64.502 62.795"><g transform="translate(-962.614 -949.2)"><g transform="translate(963.364 966.154)"><path d="M1004.219,1822.087h14.761a.187.187,0,0,1,.188.187v4.068a.187.187,0,0,1-.187.188h-4.739a.938.938,0,0,0-.937.937v2.733a.938.938,0,0,0,.937.937h23.249a.938.938,0,0,0,.937-.937v-2.733a.938.938,0,0,0-.937-.937h-4.739a.187.187,0,0,1-.187-.187v-4.068a.187.187,0,0,1,.187-.187h15.534v-17.739h-1.046a.187.187,0,0,1-.187-.188v-15.985a5.444,5.444,0,0,1,.235-1.582h-3.622v26.553a3.853,3.853,0,0,1-3.849,3.849H1007.8a3.853,3.853,0,0,1-3.849-3.849v-26.538a4.577,4.577,0,0,0-4.3,4.551v26.361A4.572,4.572,0,0,0,1004.219,1822.087Z" transform="translate(-999.652 -1786.594)" fill="#9cf2ff"/></g><g transform="translate(977.713 998.724)"><path d="M1727.146,3398.255h15.534v-2.922h-15.922a2.781,2.781,0,0,0-2.782,2.77c0,1.192-.009,2.574-.012,3.731a2.479,2.479,0,0,1-2.48,2.473h-5.973a10.021,10.021,0,0,0-7.086,2.935l-.03.029a.932.932,0,0,0,.239.035h23.249a.937.937,0,0,0,.937-.937v-2.733a.937.937,0,0,0-.937-.937h-1.67c-.155-.107-.381-.144-.924.277l-2.318-.486c-.014,0-.014-4.047-.014-4.047A.187.187,0,0,1,1727.146,3398.255Z" transform="translate(-1708.397 -3395.333)" fill="#7dcfff"/></g><g transform="translate(1001.045 952.167)"><circle cx="1.521" cy="1.521" r="1.521" transform="translate(0)" fill="#fff"/></g><g transform="translate(971.823 984.678)"><path d="M1421.191,2709.054a3.743,3.743,0,1,0-3.743-3.742A3.746,3.746,0,0,0,1421.191,2709.054Z" transform="translate(-1417.448 -2701.569)" fill="#fce26c"/></g><g transform="translate(995.067 952.167)"><path d="M2567.065,1098.781a1.521,1.521,0,1,0-1.522-1.521A1.523,1.523,0,0,0,2567.065,1098.781Z" transform="translate(-2565.543 -1095.739)" fill="#fff"/></g><g transform="translate(968.039 958.163)"><path d="M1234.047,1429.909h32.014a3.478,3.478,0,0,0,3.474-3.474v-34.544h-38.962v34.544A3.478,3.478,0,0,0,1234.047,1429.909Zm4.052-34.444a4.1,4.1,0,0,1,2.611.937l1.156-2.02a.188.188,0,1,1,.325.186l-1.2,2.091a4.115,4.115,0,1,1-2.9-1.195Zm0,11.283a4.092,4.092,0,0,1,2.5.854l1.266-2.213a.187.187,0,0,1,.325.186l-1.3,2.273a4.111,4.111,0,1,1-2.792-1.1Zm0,11.283a4.117,4.117,0,1,1-4.118,4.117A4.122,4.122,0,0,1,1238.1,1418.032Z" transform="translate(-1230.573 -1391.891)" fill="#fff"/></g><g transform="translate(968.039 949.95)"><path d="M1269.535,994.075v-4.364a3.478,3.478,0,0,0-3.474-3.474h-32.014a3.478,3.478,0,0,0-3.474,3.474v4.364Zm-4.435-6a1.9,1.9,0,1,1-1.9,1.9A1.9,1.9,0,0,1,1265.1,988.079Zm-5.978,0a1.9,1.9,0,1,1-1.9,1.9A1.9,1.9,0,0,1,1259.121,988.079Z" transform="translate(-1230.572 -986.237)" fill="#9cf2ff"/></g><g transform="translate(1004.002 950.992)"><path d="M3009.433,1037.7l-.026.026a8.6,8.6,0,0,0-2.549,6.118v.516h3v-6.286a.227.227,0,0,1-.112-.057C3009.635,1037.921,3009.535,1037.812,3009.433,1037.7Z" transform="translate(-3006.858 -1037.704)" fill="#7dcfff"/></g><g transform="translate(969.422 958.061)"><path d="M1333.427,1386.86v31.647a3.474,3.474,0,0,1-3.474,3.474h-25.417a8.034,8.034,0,0,0-5.667,2.271l-.023.023a3.447,3.447,0,0,0,2.092.705h32.014a3.474,3.474,0,0,0,3.474-3.474V1386.86Z" transform="translate(-1298.846 -1386.86)" fill="#ededed"/></g><g transform="translate(1014.969 1006.019)"><path d="M3548.552,3755.622v4.034a1.192,1.192,0,1,0,2.384,0v-4.034a4.129,4.129,0,0,1-2.384,0Z" transform="translate(-3548.552 -3755.622)" fill="#fff"/></g><g transform="translate(1013.667 955.248)"><path d="M3489.205,1250.443a2.494,2.494,0,1,0-4.988,0v5.338h4.988Z" transform="translate(-3484.217 -1247.947)" fill="#96a1ff"/></g><g transform="translate(1013.667 955.248)"><path d="M3486.281,1250.4a6.9,6.9,0,0,1,.656-.737c.088-.088,1.2-1.262,1.237-1.237a2.467,2.467,0,0,0-1.462-.479,2.5,2.5,0,0,0-2.5,2.5v5.338h1.5v-3.838A2.53,2.53,0,0,1,3486.281,1250.4Z" transform="translate(-3484.217 -1247.948)" fill="#fff"/></g><g transform="translate(1012.371 983.908)"><path d="M3420.243,2681.633a3.79,3.79,0,0,0,7.58,0v-18.123h-7.58Z" transform="translate(-3420.243 -2663.511)" fill="#96a1ff"/></g><g transform="translate(1013.113 983.908)"><path d="M3460.7,2663.511v15.123a3.769,3.769,0,0,1-1.184,2.744l-2.42,2.265-.234.234a3.781,3.781,0,0,0,3,1.546,3.9,3.9,0,0,0,3.838-3.918v-17.994Z" transform="translate(-3456.863 -2663.511)" fill="#7885f5"/></g><g transform="translate(1011.138 963.457)"><path d="M3359.624,1655.972a5.058,5.058,0,0,0-.29,1.69v15.8h10.045v-15.8a4.986,4.986,0,0,0-2.391-4.279h-5.264a4.986,4.986,0,0,0-2.094,2.572C3359.628,1655.962,3359.626,1655.967,3359.624,1655.972Z" transform="translate(-3359.334 -1653.384)" fill="#96a1ff"/></g><g transform="translate(1012.167 964.246)"><path d="M3417.757,1692.375a3.224,3.224,0,0,0-.267.31,6.641,6.641,0,0,0-1.325,4.043v10.279a1.655,1.655,0,0,1-1.655,1.655,3.29,3.29,0,0,0-2.326.963l-2.036,2.036h9.016v-15.8A4.979,4.979,0,0,0,3417.757,1692.375Z" transform="translate(-3410.148 -1692.375)" fill="#7885f5"/></g><g transform="translate(971.823 973.395)"><path d="M1421.19,2151.753a3.738,3.738,0,0,0,2.6-6.427l-2.439,4.263a.188.188,0,0,1-.321.007l-1.407-2.222a.187.187,0,1,1,.317-.2l1.241,1.959,2.322-4.058a3.741,3.741,0,1,0-2.314,6.678Z" transform="translate(-1417.447 -2144.268)" fill="#fff"/></g><g transform="translate(971.823 962.112)"><path d="M1421.19,1594.444a3.737,3.737,0,0,0,2.7-6.325l-2.539,4.437a.187.187,0,0,1-.159.094.189.189,0,0,1-.163-.087l-1.407-2.222a.187.187,0,0,1,.317-.2l1.241,1.959,2.43-4.246a3.741,3.741,0,1,0-2.421,6.591Z" transform="translate(-1417.447 -1586.959)" fill="#fff"/></g><g transform="translate(963.364 966.154)"><g transform="translate(44.012 0)"><path d="M3176.915,1788.094a5.456,5.456,0,0,1,.232-1.5h-3.622v1.5Z" transform="translate(-3173.525 -1786.594)" fill="#fff"/></g><g transform="translate(0 0.015)"><path d="M1001.152,1819.738v-26.361a4.574,4.574,0,0,1,2.8-4.2v-1.853a4.577,4.577,0,0,0-4.3,4.55v26.361a4.564,4.564,0,0,0,2.18,3.886A4.534,4.534,0,0,1,1001.152,1819.738Z" transform="translate(-999.652 -1787.326)" fill="#fff"/></g></g><g transform="translate(968.039 949.95)"><path d="M1267.711,986.666a3.433,3.433,0,0,0-1.651-.428h-32.014a3.474,3.474,0,0,0-3.474,3.474v4.364h1.5v-2.864a3.474,3.474,0,0,1,3.474-3.474h29.579a3.659,3.659,0,0,0,2.576-1.061Z" transform="translate(-1230.572 -986.238)" fill="#fff"/></g><g transform="translate(1012.371 983.908)"><path d="M3421.743,2679.163v-15.652h-1.5v18.123a3.753,3.753,0,0,0,.109.869l.014-.014A4.7,4.7,0,0,0,3421.743,2679.163Z" transform="translate(-3420.243 -2663.511)" fill="#fff"/></g><g transform="translate(1011.138 963.457)"><path d="M3361.723,1653.384a4.987,4.987,0,0,0-2.094,2.572,5.084,5.084,0,0,0-.3,1.707v14.818a5.12,5.12,0,0,0,1.5-3.621v-9.7a5.051,5.051,0,0,1,.29-1.69,4.973,4.973,0,0,1,1.251-1.934,2.5,2.5,0,0,1,1.745-.655,2.742,2.742,0,0,0,1.936-.8l.7-.7Z" transform="translate(-3359.333 -1653.384)" fill="#fff"/></g><g transform="translate(1006.627 965.404)"><path d="M3141.138,1750.681h-4.07a.562.562,0,1,1,0-1.125h4.07a.562.562,0,1,1,0,1.125Z" transform="translate(-3136.506 -1749.556)" fill="#000d42"/></g><g transform="translate(962.614 965.406)"><path d="M1001.2,1795.706H977.952a1.689,1.689,0,0,1-1.687-1.687v-2.733a1.689,1.689,0,0,1,1.687-1.687h4.177v-2.943h-14.2a5.323,5.323,0,0,1-5.317-5.317v-26.361a5.332,5.332,0,0,1,5.23-5.313.562.562,0,1,1,.016,1.125,4.2,4.2,0,0,0-4.121,4.188v26.361a4.2,4.2,0,0,0,4.192,4.192h14.761a.562.562,0,0,1,.562.562v4.068a.562.562,0,0,1-.562.563h-4.739a.563.563,0,0,0-.562.562v2.733a.563.563,0,0,0,.562.562H1001.2a.563.563,0,0,0,.563-.562v-2.733a.563.563,0,0,0-.562-.562h-4.739a.562.562,0,0,1-.562-.562v-4.068a.562.562,0,0,1,.562-.562h15.721a.562.562,0,1,1,0,1.125H997.025v2.943h4.177a1.689,1.689,0,0,1,1.687,1.687v2.733A1.689,1.689,0,0,1,1001.2,1795.706Z" transform="translate(-962.614 -1749.665)" fill="#000d42"/></g><g transform="translate(971.073 961.362)"><path d="M1384.9,1558.907a4.492,4.492,0,1,1,4.492-4.492A4.5,4.5,0,0,1,1384.9,1558.907Zm0-7.86a3.368,3.368,0,1,0,3.368,3.368A3.371,3.371,0,0,0,1384.9,1551.047Z" transform="translate(-1380.411 -1549.922)" fill="#000d42"/></g><g transform="translate(971.073 972.645)"><path d="M1384.9,2116.216a4.492,4.492,0,1,1,4.492-4.492A4.5,4.5,0,0,1,1384.9,2116.216Zm0-7.86a3.368,3.368,0,1,0,3.368,3.368A3.371,3.371,0,0,0,1384.9,2108.356Z" transform="translate(-1380.411 -2107.231)" fill="#000d42"/></g><g transform="translate(971.073 983.929)"><path d="M1384.9,2673.517a4.492,4.492,0,1,1,4.492-4.492A4.5,4.5,0,0,1,1384.9,2673.517Zm0-7.86a3.368,3.368,0,1,0,3.368,3.368A3.372,3.372,0,0,0,1384.9,2665.656Z" transform="translate(-1380.411 -2664.532)" fill="#000d42"/></g><g transform="translate(973.596 960.184)"><path d="M1506.98,1499.745a.562.562,0,0,1-.475-.261l-1.407-2.222a.562.562,0,1,1,.95-.6l.908,1.433,3.466-6.058a.562.562,0,1,1,.976.559l-3.93,6.868a.562.562,0,0,1-.475.283Z" transform="translate(-1505.01 -1491.751)" fill="#000d42"/></g><g transform="translate(973.596 971.192)"><path d="M1506.98,2043.455a.563.563,0,0,1-.475-.261l-1.407-2.222a.562.562,0,0,1,.95-.6l.908,1.433,3.466-6.058a.562.562,0,1,1,.976.559l-3.93,6.868a.561.561,0,0,1-.475.283Z" transform="translate(-1505.01 -2035.461)" fill="#000d42"/></g><g transform="translate(982.72 965.292)"><path d="M1973.826,1745.157H1956.25a.562.562,0,1,1,0-1.125h17.575a.562.562,0,0,1,0,1.125Z" transform="translate(-1955.688 -1744.032)" fill="#000d42"/></g><g transform="translate(982.72 968.146)"><path d="M1973.826,1886.134H1956.25a.562.562,0,1,1,0-1.125h17.575a.562.562,0,0,1,0,1.125Z" transform="translate(-1955.688 -1885.009)" fill="#000d42"/></g><g transform="translate(982.72 976.527)"><path d="M1973.826,2300.079H1956.25a.562.562,0,1,1,0-1.124h17.575a.562.562,0,1,1,0,1.124Z" transform="translate(-1955.688 -2298.954)" fill="#000d42"/></g><g transform="translate(982.72 979.381)"><path d="M1973.826,2441.056H1956.25a.562.562,0,1,1,0-1.124h17.575a.562.562,0,1,1,0,1.124Z" transform="translate(-1955.688 -2439.932)" fill="#000d42"/></g><g transform="translate(982.72 987.762)"><path d="M1973.826,2855.011H1956.25a.562.562,0,1,1,0-1.125h17.575a.562.562,0,0,1,0,1.125Z" transform="translate(-1955.688 -2853.886)" fill="#000d42"/></g><g transform="translate(982.72 990.616)"><path d="M1973.826,2995.979H1956.25a.563.563,0,0,1,0-1.125h17.575a.563.563,0,0,1,0,1.125Z" transform="translate(-1955.688 -2994.854)" fill="#000d42"/></g><g transform="translate(967.289 949.2)"><path d="M1229.773,996.931h-32.014a4.229,4.229,0,0,1-4.224-4.224V953.424a4.229,4.229,0,0,1,4.224-4.224h32.014a4.229,4.229,0,0,1,4.224,4.224v39.283A4.229,4.229,0,0,1,1229.773,996.931Zm-32.014-46.606a3.1,3.1,0,0,0-3.1,3.1v39.283a3.1,3.1,0,0,0,3.1,3.1h32.014a3.1,3.1,0,0,0,3.1-3.1V953.424a3.1,3.1,0,0,0-3.1-3.1Z" transform="translate(-1193.535 -949.2)" fill="#000d42"/></g><g transform="translate(967.29 957.413)"><path d="M1233.453,1355.978h-39.338a.562.562,0,1,1,0-1.125h39.338a.562.562,0,0,1,0,1.125Z" transform="translate(-1193.553 -1354.853)" fill="#000d42"/></g><g transform="translate(1000.295 951.417)"><path d="M2826.042,1063.244a2.271,2.271,0,1,1,2.271-2.271A2.274,2.274,0,0,1,2826.042,1063.244Zm0-3.417a1.146,1.146,0,1,0,1.146,1.146A1.148,1.148,0,0,0,2826.042,1059.827Z" transform="translate(-2823.771 -1058.702)" fill="#000d42"/></g><g transform="translate(994.317 951.417)"><path d="M2530.777,1063.244a2.271,2.271,0,1,1,2.271-2.271A2.274,2.274,0,0,1,2530.777,1063.244Zm0-3.417a1.146,1.146,0,1,0,1.146,1.146A1.148,1.148,0,0,0,2530.777,1059.827Z" transform="translate(-2528.506 -1058.702)" fill="#000d42"/></g><g transform="translate(1011.622 983.158)"><path d="M3387.745,2649.885a4.545,4.545,0,0,1-4.54-4.54v-18.31a.562.562,0,0,1,1.125,0v18.31a3.415,3.415,0,1,0,6.83,0v-18.31a.562.562,0,0,1,1.125,0v18.31A4.545,4.545,0,0,1,3387.745,2649.885Z" transform="translate(-3383.205 -2626.474)" fill="#000d42"/></g><g transform="translate(1010.388 962.703)"><path d="M3333.279,1637.739h-10.42a.562.562,0,0,1-.562-.562v-15.985a5.731,5.731,0,0,1,2.8-4.952.562.562,0,1,1,.579.964,4.616,4.616,0,0,0-2.255,3.988v15.423h9.3v-15.423a4.616,4.616,0,0,0-2.256-3.988.562.562,0,0,1,.579-.964,5.73,5.73,0,0,1,2.8,4.952v15.985A.562.562,0,0,1,3333.279,1637.739Z" transform="translate(-3322.296 -1616.159)" fill="#000d42"/></g><g transform="translate(1014.219 1005.201)"><path d="M3513.457,3722.017a1.944,1.944,0,0,1-1.942-1.942v-4.29a.562.562,0,1,1,1.125,0v4.29a.817.817,0,1,0,1.634,0v-4.29a.563.563,0,0,1,1.125,0v4.29A1.944,1.944,0,0,1,3513.457,3722.017Z" transform="translate(-3511.515 -3715.223)" fill="#000d42"/></g><g transform="translate(1012.917 954.498)"><path d="M3453.1,1220.243h-5.363a.562.562,0,0,1-.562-.562v-5.525a3.244,3.244,0,1,1,6.488,0v5.525A.562.562,0,0,1,3453.1,1220.243Zm-4.8-1.125h4.239v-4.963a2.119,2.119,0,1,0-4.239,0Z" transform="translate(-3447.179 -1210.91)" fill="#000d42"/></g><g transform="translate(1018.281 960.163)"><path d="M3720.39,1521.261a3.669,3.669,0,0,1-3.488-2.813c-.285-1.112.119-3.893.629-7.415.7-4.805,1.565-10.785.9-14.2-1.049-5.356-5.509-5.021-5.7-5a.562.562,0,0,1-.1-1.12c.057-.005,5.659-.466,6.908,5.908.705,3.6-.178,9.686-.887,14.575-.453,3.127-.882,6.08-.652,6.974a2.557,2.557,0,0,0,2.4,1.967.562.562,0,0,1,0,1.125Z" transform="translate(-3712.115 -1490.702)" fill="#000d42"/></g></g></svg>