<svg xmlns="http://www.w3.org/2000/svg" width="169.965" height="55.264" viewBox="0 0 169.965 55.264"><g transform="translate(-425 -2068.833)"><text transform="translate(425 2105.097)" fill="#fff" font-size="30" font-family="Roboto-Medium, Roboto" font-weight="500"><tspan x="0" y="0">04</tspan></text><path d="M51.556,34.047l-2.008-.988a22.516,22.516,0,0,0,0-10.842l2.009-.989a6.647,6.647,0,0,0,1.765-10.665L44.71,1.955A6.647,6.647,0,0,0,34.046,3.717l-.99,2.01a22.517,22.517,0,0,0-10.844,0l-.989-2.01A6.65,6.65,0,0,0,10.558,1.953L1.95,10.562A6.573,6.573,0,0,0,0,15.237a6.8,6.8,0,0,0,.091,1.11,6.573,6.573,0,0,0,3.623,4.88l2.01.989a22.517,22.517,0,0,0,0,10.843l-2.01.988A6.574,6.574,0,0,0,.091,38.926,6.79,6.79,0,0,0,0,40.037a6.573,6.573,0,0,0,1.95,4.675l8.608,8.609a6.563,6.563,0,0,0,4.671,1.95,6.792,6.792,0,0,0,1.114-.092,6.573,6.573,0,0,0,4.881-3.623l.987-2.006a22.516,22.516,0,0,0,10.849,0l.987,2.006a6.574,6.574,0,0,0,4.879,3.622,6.812,6.812,0,0,0,1.117.093,6.564,6.564,0,0,0,4.67-1.951l8.608-8.608a6.65,6.65,0,0,0-1.765-10.665ZM6.572,27.638A20.93,20.93,0,0,1,9.83,16.407l6.656,6.658a12.023,12.023,0,0,0,0,9.145L9.828,38.868a20.93,20.93,0,0,1-3.255-11.23Zm10.619-6.006-6.5-6.494A21.247,21.247,0,0,1,15.133,10.7l6.5,6.5a12.138,12.138,0,0,0-4.437,4.437ZM7.418,17.613,5.869,16.85A1.77,1.77,0,0,1,5.4,14.011L14.007,5.4a1.77,1.77,0,0,1,2.839.47l.763,1.55A22.717,22.717,0,0,0,7.418,17.613Zm10.19,30.243-.76,1.546a1.77,1.77,0,0,1-2.839.47L5.4,41.263a1.77,1.77,0,0,1,.469-2.839l1.547-.761A22.718,22.718,0,0,0,17.607,47.855Zm-6.914-7.717,6.5-6.5a12.133,12.133,0,0,0,4.435,4.438l-6.495,6.5a21.237,21.237,0,0,1-4.436-4.437Zm6.4-12.5A10.541,10.541,0,1,1,27.635,38.181,10.541,10.541,0,0,1,17.093,27.638ZM45.442,38.865,38.784,32.21a12.023,12.023,0,0,0,0-9.145l6.656-6.656a20.991,20.991,0,0,1,0,22.459ZM37.66,7.423l.763-1.55a1.77,1.77,0,0,1,2.839-.47l8.61,8.608a1.77,1.77,0,0,1-.47,2.839l-1.549.762A22.716,22.716,0,0,0,37.66,7.423Zm6.913,7.715-6.5,6.5A12.139,12.139,0,0,0,33.641,17.2l6.5-6.5a21.247,21.247,0,0,1,4.437,4.437Zm-6.494,18.5,6.5,6.5a21.237,21.237,0,0,1-4.436,4.438l-6.495-6.5a12.133,12.133,0,0,0,4.435-4.438Zm9.774,4.02,1.547.761a1.77,1.77,0,0,1,.47,2.839L41.262,49.87a1.77,1.77,0,0,1-2.839-.469l-.76-1.545A22.72,22.72,0,0,0,47.853,37.662ZM35.4,4.386a5.138,5.138,0,0,1,8.24-1.363l8.609,8.609a5.138,5.138,0,0,1-1.363,8.24l-1.762.867q-.287-.892-.644-1.751l1.586-.781a3.282,3.282,0,0,0,.871-5.264L42.33,4.334a3.282,3.282,0,0,0-5.264.872l-.781,1.587q-.858-.358-1.751-.644Zm3.464,5.45-6.657,6.656a12.024,12.024,0,0,0-9.149,0L16.4,9.835A20.991,20.991,0,0,1,38.866,9.835ZM4.381,19.871a5.08,5.08,0,0,1-2.8-3.77,5.317,5.317,0,0,1-.071-.864,5.073,5.073,0,0,1,1.507-3.606l8.609-8.609a5.138,5.138,0,0,1,8.24,1.364l.867,1.763q-.893.287-1.751.644L18.2,5.206a3.282,3.282,0,0,0-5.264-.872L4.33,12.944A3.282,3.282,0,0,0,5.2,18.206l1.586.781q-.358.858-.644,1.751ZM19.867,50.888a5.138,5.138,0,0,1-8.24,1.362L3.018,43.643a5.072,5.072,0,0,1-1.507-3.606,5.317,5.317,0,0,1,.071-.864,5.08,5.08,0,0,1,2.8-3.77l1.761-.867q.287.892.644,1.751l-1.585.78a3.282,3.282,0,0,0-.871,5.263l8.609,8.609a3.235,3.235,0,0,0,2.3.962,3.35,3.35,0,0,0,.55-.045A3.238,3.238,0,0,0,18.2,50.068l.777-1.582q.858.358,1.751.644ZM22,47.932l-.009,0A20.934,20.934,0,0,1,16.4,45.444l6.657-6.658a12.023,12.023,0,0,0,9.157,0l6.656,6.656a20.944,20.944,0,0,1-5.58,2.481l-.049.014A20.966,20.966,0,0,1,22,47.932ZM52.25,43.645,43.642,52.25a5.138,5.138,0,0,1-8.24-1.363l-.864-1.759q.892-.287,1.751-.644l.777,1.583a3.244,3.244,0,0,0,2.408,1.788,3.4,3.4,0,0,0,.55.045,3.241,3.241,0,0,0,2.306-.962l8.609-8.609a3.282,3.282,0,0,0-.871-5.264l-1.584-.78q.358-.858.644-1.751l1.76.866a5.138,5.138,0,0,1,1.363,8.24Z" transform="translate(539.695 2068.826)" fill="#fff"/></g></svg>