<svg xmlns="http://www.w3.org/2000/svg" width="441.868" height="320.875" viewBox="0 0 441.868 320.875"><g transform="translate(-56.736 -38.542)"><g transform="translate(381.53 77.443)"><path d="M545.223,371.109l5.972,13.54s-11.757,10.618-10.9,13.228l26.67-10.636-8.439-21.479Z" transform="translate(-509.012 -163.716)" fill="#e8505b"/><path d="M545.223,371.109l5.972,13.54s-11.757,10.618-10.9,13.228l26.67-10.636-8.439-21.479Z" transform="translate(-509.012 -163.716)" opacity="0.5"/><path d="M566.939,394.168,566,392.036l-25.221,11s-.982.99-.514,1.773Z" transform="translate(-508.983 -170.643)" fill="#263238"/><path d="M610.092,396.627l7.475,12.771s-10.471,11.888-9.319,14.383l25.284-13.605L622.7,389.8Z" transform="translate(-526.916 -170.053)" fill="#e8505b"/><path d="M610.092,396.627l7.475,12.771s-10.471,11.888-9.319,14.383l25.284-13.605L622.7,389.8Z" transform="translate(-526.916 -170.053)" opacity="0.5"/><path d="M633.5,416.752l-1.172-2.011-23.8,13.8s-.862,1.095-.308,1.82Z" transform="translate(-526.881 -176.63)" fill="#263238"/><g transform="translate(20.268)"><g transform="translate(3.794 8.208)"><path d="M556.992,141.734,540.6,143.01l-.544-9.176s-6.611-.1-7.6-6.553-1.956-21.467-1.956-21.467h0a22.7,22.7,0,0,1,22.987-.337l1.063.6Z" transform="translate(-530.503 -102.518)" fill="#ffbe9d"/><g transform="translate(9.533 27.642)"><path d="M543.449,143.64a15.188,15.188,0,0,0,8.1-3.582s-1.433,5.079-7.97,5.4Z" transform="translate(-543.449 -140.058)" fill="#eb996e"/></g><g transform="translate(24.195 9.928)"><path d="M563.361,116.447c.1-.063,4.26-1.94,4.74,2.5s-4.078,4.008-4.1,3.881S563.361,116.447,563.361,116.447Z" transform="translate(-563.361 -116)" fill="#ffbe9d"/><g transform="translate(1.779 1.393)"><path d="M565.813,121.5c.018-.016.083.046.22.092a.781.781,0,0,0,.58-.051,1.925,1.925,0,0,0,.7-1.814,2.563,2.563,0,0,0-.336-1.085.9.9,0,0,0-.646-.531.4.4,0,0,0-.434.261c-.046.13-.008.216-.031.226s-.1-.064-.088-.251a.5.5,0,0,1,.144-.3.591.591,0,0,1,.416-.159,1.093,1.093,0,0,1,.883.6,2.642,2.642,0,0,1,.4,1.209,2.02,2.02,0,0,1-.921,2.04.834.834,0,0,1-.72-.041C565.833,121.607,565.8,121.51,565.813,121.5Z" transform="translate(-565.776 -117.891)" fill="#eb996e"/></g></g><g transform="translate(2.424 6.12)"><g transform="translate(0.058 3.665)"><g transform="translate(0 1.188)"><g transform="translate(0.305 1.516)"><path d="M534.291,120.45a.933.933,0,0,0,1.022.806.893.893,0,0,0,.835-.967.933.933,0,0,0-1.021-.807A.893.893,0,0,0,534.291,120.45Z" transform="translate(-534.287 -119.479)" fill="#263238"/></g><path d="M533.894,118.67c.132.1.758-.512,1.753-.649s1.792.258,1.884.121c.045-.061-.1-.262-.452-.449a2.559,2.559,0,0,0-1.529-.245,2.459,2.459,0,0,0-1.374.667C533.9,118.392,533.831,118.624,533.894,118.67Z" transform="translate(-533.873 -117.42)" fill="#263238"/></g><g transform="translate(9.797)"><g transform="translate(0.175 1.586)"><path d="M547.42,118.931a.933.933,0,0,0,1.021.806.892.892,0,0,0,.835-.967.933.933,0,0,0-1.021-.807A.892.892,0,0,0,547.42,118.931Z" transform="translate(-547.416 -117.96)" fill="#263238"/></g><path d="M547.2,117.056c.132.1.759-.512,1.753-.649.991-.152,1.792.257,1.884.12.045-.061-.1-.262-.453-.448a2.556,2.556,0,0,0-1.528-.246,2.456,2.456,0,0,0-1.374.667C547.209,116.778,547.136,117.01,547.2,117.056Z" transform="translate(-547.178 -115.807)" fill="#263238"/></g><g transform="translate(4.604 0.783)"><path d="M542.769,125.216a6.612,6.612,0,0,0-1.656-.064c-.257.009-.5-.007-.571-.175a1.3,1.3,0,0,1,.063-.776q.229-.972.479-2.039a33.439,33.439,0,0,0,.975-5.292,33.685,33.685,0,0,0-1.4,5.2c-.155.714-.3,1.395-.445,2.046a1.488,1.488,0,0,0,.008,1.015.644.644,0,0,0,.47.312,1.711,1.711,0,0,0,.44,0A6.533,6.533,0,0,0,542.769,125.216Z" transform="translate(-540.125 -116.87)" fill="#263238"/></g><g transform="translate(7.472 9.404)"><path d="M546.818,128.579c-.163.013-.014,1.093-.829,1.988s-1.982.939-1.968,1.091c-.006.07.286.174.772.119a2.711,2.711,0,0,0,1.652-.85,2.358,2.358,0,0,0,.626-1.657C547.049,128.812,546.891,128.562,546.818,128.579Z" transform="translate(-544.021 -128.578)" fill="#263238"/></g></g><g transform="translate(9.061)"><path d="M546.111,111.885c.135.256,1.11-.012,2.3-.035,1.186-.048,2.174.162,2.294-.1.053-.126-.147-.357-.563-.565a3.99,3.99,0,0,0-3.5.1C546.236,111.52,546.051,111.762,546.111,111.885Z" transform="translate(-546.1 -110.83)" fill="#263238"/></g><g transform="translate(0 1.877)"><path d="M533.835,114.676c.207.2.859-.13,1.68-.256.817-.155,1.542-.062,1.669-.32.054-.125-.087-.336-.422-.507a2.46,2.46,0,0,0-2.7.465C533.805,114.331,533.743,114.577,533.835,114.676Z" transform="translate(-533.795 -113.379)" fill="#263238"/></g></g></g><path d="M525.419,99.235A2.411,2.411,0,0,1,526,96.978a1.711,1.711,0,0,1,2.218-.144A2,2,0,0,1,529.58,94.2c1.046-.215,2.057.455,3.116.591a4.85,4.85,0,0,0,2.971-.773c.9-.52,1.722-1.178,2.642-1.668a8.351,8.351,0,0,1,11.262,3.369,3.709,3.709,0,0,1,4.1.927,6.083,6.083,0,0,1,1.519,4.114,13.593,13.593,0,0,1-.331,3.006c.012.083.032.163.042.247.433,3.566.618,7.8-.9,8.036-2.639.413-2.71-4.659-2.71-4.659-3.422-.8-2.9-5.831-3.812-6.454s-2.854-2.1-9.161,2.329a13.288,13.288,0,0,1-7.941,2.006c-.057,0-.116,0-.174-.01l-.04,0c-.022,0-.038-.011-.06-.015a6.154,6.154,0,0,1-1.847-.494,3.479,3.479,0,0,1-1.661-1.395,1.906,1.906,0,0,1,.086-2.077A4.187,4.187,0,0,1,525.419,99.235Z" transform="translate(-525.35 -91.372)" fill="#263238"/></g><g transform="translate(33.594 33.246)"><path d="M543.449,148.422l.732,25.678,15.977-34.4-.4-3.184Z" transform="translate(-543.449 -136.521)" fill="#ebebeb"/></g><g transform="translate(11.079 115.871)"><g transform="translate(0 5.317)"><path d="M545.987,256.674c-.585.191-33.851,33.834-33.1,39.877s24.428,50.8,24.428,50.8l16.895-8.33-15.848-39.235.208-2.434,19.369-15.872L556.9,255.952Z" transform="translate(-512.871 -255.952)" fill="#263238"/></g><g transform="translate(40.288)"><path d="M567.585,261.4c.387.587,6.147,53.44,7.691,56.175s24.682,47.857,24.682,47.857l17.179-6.922-20.972-49.591,2.39-46.935-1.294-13.253-25.936,5.317Z" transform="translate(-567.585 -248.731)" fill="#263238"/></g><g transform="translate(40.269 15.369)"><path d="M574.968,322.148a2.94,2.94,0,0,1-.113-.529c-.063-.384-.146-.891-.25-1.526-.208-1.367-.5-3.278-.852-5.623L571.083,295.9c-1-7.242-1.9-13.8-2.565-18.587-.306-2.351-.556-4.267-.735-5.638q-.113-.958-.181-1.535a2.875,2.875,0,0,1-.038-.539,2.93,2.93,0,0,1,.112.528c.063.384.146.892.25,1.526.207,1.367.5,3.278.852,5.622.688,4.787,1.63,11.336,2.671,18.572,1,7.24,1.9,13.793,2.564,18.584.306,2.351.556,4.267.735,5.638.076.639.136,1.149.182,1.536A3.029,3.029,0,0,1,574.968,322.148Z" transform="translate(-567.559 -269.603)" fill="#455a64"/></g><g transform="translate(66.066 58.671)"><path d="M604.959,328.41a50.152,50.152,0,0,1-2.353,8.276,50.341,50.341,0,0,1,2.353-8.276Z" transform="translate(-602.593 -328.41)" fill="#455a64"/></g><g transform="translate(68.436 60.261)"><path d="M608.406,340.95a4.821,4.821,0,0,1-.937-1.3,12.847,12.847,0,0,1-1.6-7.5,4.787,4.787,0,0,1,.325-1.573,16.773,16.773,0,0,0,2.213,10.381Z" transform="translate(-605.811 -330.569)" fill="#455a64"/></g><g transform="translate(19.944 43.446)"><path d="M539.957,307.742a9.06,9.06,0,0,1,4.752,4.334c-.093.062-.912-1.141-2.227-2.33S539.905,307.841,539.957,307.742Z" transform="translate(-539.956 -307.734)" fill="#455a64"/></g><g transform="translate(22.547 41.889)"><path d="M543.5,305.623a7.362,7.362,0,0,1,2.566,4.155,62.778,62.778,0,0,0-2.566-4.155Z" transform="translate(-543.492 -305.619)" fill="#455a64"/></g></g><g transform="translate(16.171 34.713)"><g transform="translate(18.142)"><path d="M546.041,184.462l4.252,21.1L553.754,235s14.267-1.993,20.348-3.917c7.053-2.233,22.4-4.134,22.4-4.134l-2.587,2.56c5.491-1.537,8.987-6.777,8.987-6.777-9.464-8.777-17.537-26.833-17.537-26.833l-7.2-35.73s-1.093-5.04-1.752-7.282-11.586-9.472-13.1-10.385l-.952-.45-.3-2.864-1.126-.674-11.826,10.743a12.815,12.815,0,0,0-4.115,8.029,92.686,92.686,0,0,0-.515,13.441C544.619,174.912,546.041,184.462,546.041,184.462Z" transform="translate(-544.425 -138.514)" fill="#af58fa"/></g><g transform="translate(0 8.972)"><g transform="translate(0.177)"><path d="M547.726,151.128s-6.248,3.35-7.331,6.192,2.138,34.007,2.138,34.007l-22.436.421-.07,13.368s35.635,2.816,37.023.89c1.875-2.605,4.054-26.958,4.054-26.958l.809-17.521S559.847,148.165,547.726,151.128Z" transform="translate(-520.028 -150.699)" fill="#af58fa"/></g><g transform="translate(23.59 32.559)" opacity="0.3"><path d="M552.243,220.43a21.46,21.46,0,0,0,8.98.839c3.16-.294,6.375-2.023,7.57-4.963.915-2.252.533-4.788.672-7.215.121-2.108.643-4.169.961-6.256s-.764-5.924-1.452-7.919c0,0-.8,14.467-3.063,20.54a4.974,4.974,0,0,1-1.387,2.218,5.449,5.449,0,0,1-2.932.808,84.985,84.985,0,0,1-9.768-.2" transform="translate(-551.823 -194.916)"/></g><g transform="translate(0 12.721)"><path d="M561.812,167.975a1.97,1.97,0,0,1,0,.318c-.009.226-.021.535-.035.931-.04.837-.1,2.039-.173,3.579-.082,1.56-.181,3.459-.3,5.662-.135,2.206-.208,4.724-.479,7.494-.241,2.772-.532,5.805-.88,9.059s-.747,6.727-1.365,10.363a22.583,22.583,0,0,1-.616,2.748,5.364,5.364,0,0,1-1.618,2.423,4.1,4.1,0,0,1-2.791,1c-.99.022-1.981,0-2.983-.015-4.005-.1-8.145-.3-12.383-.534-6.368-.352-12.505-.749-18.241-1.152l-.165-.012v-.165c.029-4.748.056-9.221.08-13.347l0-.154.153,0,21.655-.465,6.058-.105,1.595-.015c.361,0,.547.012.547.012s-.186.021-.546.038l-1.594.063-6.056.192-21.651.6.154-.158c-.013,4.126-.028,8.6-.044,13.347l-.164-.177c5.734.392,11.871.783,18.236,1.135,4.236.23,8.374.437,12.371.541,1,.013,1.99.04,2.964.019a3.741,3.741,0,0,0,2.578-.912,5.01,5.01,0,0,0,1.515-2.264,22.419,22.419,0,0,0,.608-2.7c.626-3.615,1.023-7.089,1.4-10.335s.666-6.28.923-9.049c.287-2.766.378-5.282.533-7.485.139-2.2.26-4.1.359-5.657.1-1.537.186-2.738.242-3.573.03-.4.055-.7.072-.929A2.139,2.139,0,0,1,561.812,167.975Z" transform="translate(-519.787 -167.975)" fill="#263238"/></g><g transform="translate(4.428 41.257)"><path d="M525.954,219.692a57,57,0,0,1-.151-6.483,57.24,57.24,0,0,1,.219-6.481,56.8,56.8,0,0,1,.151,6.483A57.266,57.266,0,0,1,525.954,219.692Z" transform="translate(-525.8 -206.728)" fill="#263238"/></g><g transform="translate(1.67 43.112)"><path d="M522.587,209.423c-.043-.024.181-.274.608-.133a.69.69,0,0,1,.454.593.814.814,0,0,1-.456.8.835.835,0,0,1-.9-.166.755.755,0,0,1-.219-.706c.1-.423.4-.513.406-.471.036.042-.14.2-.146.5a.511.511,0,0,0,.186.42.527.527,0,0,0,.524.084.5.5,0,0,0,.269-.445.433.433,0,0,0-.225-.376C522.827,209.374,522.61,209.471,522.587,209.423Z" transform="translate(-522.055 -209.247)" fill="#263238"/></g></g><g transform="translate(51.985 24.716)"><path d="M590.385,172.08s11.672,15.261,13.094,19.42.323,10.13-2.054,12.985-4.294,1.7-4.294,1.7Z" transform="translate(-590.385 -172.08)" fill="#af58fa"/></g><g transform="translate(52.4 57.559)"><path d="M596.862,216.715a24.462,24.462,0,0,1-5.913,1.015,24.478,24.478,0,0,1,5.913-1.015Z" transform="translate(-590.949 -216.683)" fill="#263238"/></g><g transform="translate(60.551 68.843)"><path d="M602.024,232.007a3.934,3.934,0,0,1,.317.806c.177.526.445,1.283.792,2.211a65.63,65.63,0,0,0,3.135,7.073,74.436,74.436,0,0,0,3.921,6.673c.545.828.995,1.494,1.309,1.951a3.961,3.961,0,0,1,.456.736,3.831,3.831,0,0,1-.571-.65c-.351-.432-.835-1.077-1.409-1.889a57.253,57.253,0,0,1-4.034-6.651,52.012,52.012,0,0,1-3.053-7.154c-.317-.944-.548-1.716-.683-2.257A3.913,3.913,0,0,1,602.024,232.007Z" transform="translate(-602.019 -232.007)" fill="#263238"/></g><g transform="translate(61.349 70.652)" opacity="0.3"><path d="M603.1,234.463c1.85,3.3,3.751,6.657,6.569,9.177a16.986,16.986,0,0,1,2.867,2.777,3.494,3.494,0,0,1,.365,3.756,1.179,1.179,0,0,1-1.163.629,1.492,1.492,0,0,1-.761-.618,45.459,45.459,0,0,1-7.75-15.217" transform="translate(-603.103 -234.463)"/></g><g transform="translate(52.965 27.017)" opacity="0.3"><path d="M598.56,206.947a5.645,5.645,0,0,0,1.921-5.286,19.571,19.571,0,0,0-1.939-5.55,91.375,91.375,0,0,1-5.685-16.673l-1.141-4.233,5.774,30.2Z" transform="translate(-591.717 -175.205)"/></g><g transform="translate(30.911 3.693)"><path d="M561.769,147.881a25.822,25.822,0,0,1,2.175-2.173,25.906,25.906,0,0,1,2.173-2.176,12.911,12.911,0,0,1-4.348,4.349Z" transform="translate(-561.766 -143.529)" fill="#263238"/></g><g transform="translate(21.063 10.623)"><path d="M557.063,152.948c.018.062-.674.27-1.707.781a13.567,13.567,0,0,0-6.2,6.269c-.5,1.039-.7,1.733-.761,1.716-.025-.007.005-.185.08-.5a8.412,8.412,0,0,1,.442-1.318,12.187,12.187,0,0,1,6.324-6.4,8.33,8.33,0,0,1,1.312-.457A1.381,1.381,0,0,1,557.063,152.948Z" transform="translate(-548.391 -152.94)" fill="#263238"/></g><g transform="translate(52.187 25.042)"><path d="M599.554,209.275a1.243,1.243,0,0,1-.183-.293l-.468-.876-1.68-3.286-.007-.013,0-.018c-.73-3.344-1.763-8.222-2.885-13.647-1.037-5.112-1.974-9.739-2.666-13.152L590.9,174c-.077-.44-.14-.8-.19-1.09a.195.195,0,1,1,.073-.015l.258,1.076c.219.99.518,2.333.881,3.97.719,3.407,1.694,8.025,2.772,13.131,1.123,5.425,2.11,10.312,2.768,13.672l-.01-.03c.654,1.383,1.185,2.508,1.578,3.336l.409.9A1.294,1.294,0,0,1,599.554,209.275Z" transform="translate(-590.66 -172.522)" fill="#263238"/></g><g transform="translate(19.757 21.277)"><path d="M549.156,195.721a6.579,6.579,0,0,1-.171-1.106c-.085-.781-.2-1.8-.329-3.029-.261-2.558-.6-6.1-.946-10s-.644-7.451-.839-10.016c-.086-1.233-.157-2.255-.212-3.038a6.567,6.567,0,0,1-.027-1.118,6.4,6.4,0,0,1,.171,1.107c.085.781.2,1.8.329,3.029.262,2.559.6,6.1.947,10s.643,7.448.839,10.013c.086,1.233.158,2.255.212,3.039A6.4,6.4,0,0,1,549.156,195.721Z" transform="translate(-546.618 -167.41)" fill="#263238"/></g></g><g transform="translate(0 79.32)"><g transform="translate(0 2.988)"><path d="M514.526,207.141s-4.839-3.671-6.019-3.892c-.9-.169-6.3-.08-8.788-.028a1.778,1.778,0,0,0-1.782,1.725.94.94,0,0,0,.017.175,1.62,1.62,0,0,0,1.18,1.228,1.883,1.883,0,0,0-1.308,1.771c-.021,1.4,1.677,1.7,1.677,1.7a2.524,2.524,0,0,0-.242.216,1.673,1.673,0,0,0,.821,2.808l.766.174a1.658,1.658,0,0,0-1.021,1.393c.028,1.846,4.179,2.2,4.179,2.2s10.258,1.624,10.48,1.55S514.526,207.141,514.526,207.141Z" transform="translate(-497.826 -203.15)" fill="#ffbe9d"/></g><g transform="translate(2.845)"><path d="M501.691,199.968a3,3,0,0,0,1.223,2.49l5.716-.224s-4.257-1.469-4.862-2.2a4.919,4.919,0,0,0-.816-.8A.808.808,0,0,0,501.691,199.968Z" transform="translate(-501.689 -199.093)" fill="#ffbe9d"/></g><g transform="translate(1.882 2.897)"><path d="M505.6,203.215a8.391,8.391,0,0,1-2.61.185,10.591,10.591,0,0,1-2.6-.185,8.39,8.39,0,0,1,2.61-.185A10.6,10.6,0,0,1,505.6,203.215Z" transform="translate(-500.382 -203.027)" fill="#eb996e"/></g><g transform="translate(1.328 6.067)"><path d="M504.114,207.542a8.281,8.281,0,0,1-4.485-.16,42.475,42.475,0,0,1,4.485.16Z" transform="translate(-499.629 -207.332)" fill="#eb996e"/></g><g transform="translate(7.708 5.857)"><path d="M509.307,207.06c.085.052-.025.363-.348.571s-.652.183-.665.083.213-.227.464-.393S509.221,207,509.307,207.06Z" transform="translate(-508.294 -207.047)" fill="#eb996e"/></g><g transform="translate(1.528 9.616)"><path d="M504.815,212.434a16.468,16.468,0,0,1-4.914-.161,16.468,16.468,0,0,1,4.914.161Z" transform="translate(-499.901 -212.152)" fill="#eb996e"/></g><g transform="translate(8.515 8.369)"><path d="M510.584,210.46c.046-.013.135.1.162.327a1.176,1.176,0,0,1-1,1.272c-.225.027-.358-.033-.356-.08,0-.1.492-.165.819-.585S510.485,210.481,510.584,210.46Z" transform="translate(-509.39 -210.459)" fill="#eb996e"/></g><g transform="translate(2.906 12.844)"><path d="M506.172,217.136a13.365,13.365,0,0,1-4.4-.544,13.418,13.418,0,0,1,4.4.544Z" transform="translate(-501.772 -216.536)" fill="#eb996e"/></g><g transform="translate(9.351 11.641)"><path d="M511.669,214.9c.047-.007.118.119.111.34a1.378,1.378,0,0,1-.306.776c-.418.507-.888.69-.94.621-.074-.088.3-.423.648-.848S511.573,214.92,511.669,214.9Z" transform="translate(-510.524 -214.903)" fill="#eb996e"/></g></g><g transform="translate(81.31 122.124)"><path d="M608.8,261.115a6.534,6.534,0,0,0,4.957-3.123c.117-.2.218-.467.065-.638a.566.566,0,0,0-.432-.13,13.424,13.424,0,0,0-4.7.806.64.64,0,0,0-.421.315.648.648,0,0,0,.02.387l.6,2.322" transform="translate(-608.249 -257.223)" fill="#e8505b"/></g><g transform="translate(81.31 122.124)" opacity="0.4"><g transform="translate(0 0)"><path d="M608.8,261.115a6.534,6.534,0,0,0,4.957-3.123c.117-.2.218-.467.065-.638a.566.566,0,0,0-.432-.13,13.424,13.424,0,0,0-4.7.806.64.64,0,0,0-.421.315.648.648,0,0,0,.02.387l.6,2.322" transform="translate(-608.249 -257.223)"/></g></g><g transform="translate(31.777 45.147)"><path d="M542.8,152.684s-2.353,7.9-1.7,7.45,2.054-1.7,2.054-1.7Z" transform="translate(-540.98 -152.684)" fill="#ebebeb"/><g transform="translate(0.323 3.642)"><path d="M543.049,157.63l-1.286,3.076a4.191,4.191,0,0,0-.25.993c-.106.862-.229,2.441.284,2.551a1.728,1.728,0,0,0,1.375-.568Z" transform="translate(-541.419 -157.63)" fill="#263238"/></g><g transform="translate(0.166 1.764)"><path d="M582.9,157.443s-12.589-4.911-19.56-.574-8.24,11.258-12.391,11.258c-8.1,0-7.836-5.713-7.836-5.713l-1.721.521c-.033,1.169-1.876,9.561,6.655,10.6s12.117-10.59,19.791-10.6a25.475,25.475,0,0,1,13.5,4.151l5.514-3.487Z" transform="translate(-541.206 -155.079)" fill="#24b59f"/><g transform="translate(9.396 0.655)"><path d="M553.966,173.632a11.829,11.829,0,0,0,4.856-5.571c1.956-4.512,6.154-9.664,9.659-10.958s11.616-2.2,17.217,1.453l3.588,4.847-4.658,3.021a43.254,43.254,0,0,0-8.208-3.286c-5.789-1.616-9.307.209-12.673,3.395-.209.2-.4.395-.569.584a38.176,38.176,0,0,1-5.329,4.718A8.4,8.4,0,0,1,553.966,173.632Z" transform="translate(-553.966 -155.969)" fill="#43efd4"/></g></g></g></g><g transform="translate(101.754 38.541)"><g transform="translate(0.309)"><path d="M178.438,74.132c-7.467,1.15-12.94-5.121-14.686-10.706-1.611-5.154-2.377-10.517-4.641-15.42-3.163-6.852-11.544-10.019-19.065-9.385s-15.1,4.4-21.753,7.964l1.836,41.248s14.491-15.43,21.453-15.711c11.618-.469,10.985,18.627,22.266,21.447,0,0,15.815,4.288,26.508-9.523a38.866,38.866,0,0,0,7.387-19.413S192.545,71.959,178.438,74.132Z" transform="translate(-118.293 -38.541)" fill="#af58fa"/></g><g transform="translate(0 1.199)"><path d="M117.878,40.17c.1,0,2.134,43.8,4.538,97.82,2.4,54.043,4.272,97.842,4.169,97.846s-2.133-43.788-4.538-97.829C119.643,83.983,117.776,40.175,117.878,40.17Z" transform="translate(-117.874 -40.17)" fill="#263238"/></g><g transform="translate(39.885 22.031)" opacity="0.2"><path d="M172.04,68.461a50.193,50.193,0,0,0,5.491,12.381c2.15,3.367,5.412,6.2,9.324,7.018a9.049,9.049,0,0,1,2.093.543,2.024,2.024,0,0,1,1.246,1.641c.03,1.08-1.087,1.787-2.056,2.265a16.938,16.938,0,0,1-4.292,1.649c-1.511.283-2.7.44-3.733-.694a21.687,21.687,0,0,1-2.7-3.235c-3.409-5.808-5.095-14.115-5.372-20.687" transform="translate(-172.04 -68.461)"/></g><g transform="translate(39.189 13.444)"><path d="M181.888,91.874a1.514,1.514,0,0,1-.336-.191c-.213-.137-.516-.354-.892-.655a15.349,15.349,0,0,1-2.754-2.992,22.954,22.954,0,0,1-2.757-5.363,59.048,59.048,0,0,1-2.042-7.087,79.14,79.14,0,0,1-1.9-13.245c-.095-1.711-.111-3.1-.11-4.055.01-.445.018-.809.024-1.1a1.484,1.484,0,0,1,.035-.384,1.551,1.551,0,0,1,.04.384c.012.293.026.657.045,1.1.043.955.1,2.336.227,4.04a88.531,88.531,0,0,0,2,13.179,63.24,63.24,0,0,0,2,7.053,23.659,23.659,0,0,0,2.652,5.331,16.746,16.746,0,0,0,2.633,3.032C181.467,91.549,181.906,91.848,181.888,91.874Z" transform="translate(-171.095 -56.799)" fill="#263238"/></g></g><g transform="translate(56.736 232.019)"><g transform="translate(0 12.096)"><path d="M56.736,317.722l98.649,16.15v-16.15Z" transform="translate(-56.736 -317.722)" fill="#e0e0e0"/></g><g transform="translate(114.934 48.578)"><path d="M212.824,367.267l98.649,16.15v-16.15Z" transform="translate(-212.824 -367.267)" fill="#e0e0e0"/></g><g transform="translate(229.077 83.477)"><path d="M367.835,414.662l98.649,16.15v-16.15Z" transform="translate(-367.835 -414.662)" fill="#e0e0e0"/></g><g transform="translate(343.068 111.248)"><path d="M522.643,452.376l98.649,16.15v-16.15Z" transform="translate(-522.643 -452.376)" fill="#e0e0e0"/></g><rect width="98.649" height="12.096" fill="#43efd4"/><g transform="translate(67.866)" opacity="0.3"><rect width="30.783" height="12.096"/></g><g transform="translate(114.934 36.482)"><rect width="98.649" height="12.096" fill="#43efd4"/><g transform="translate(67.866)" opacity="0.3"><rect width="30.783" height="12.096"/></g></g><g transform="translate(229.077 71.381)"><rect width="98.649" height="12.096" fill="#43efd4"/><g transform="translate(67.866)" opacity="0.3"><rect width="30.783" height="12.096"/></g></g><g transform="translate(343.219 99.152)"><rect width="98.649" height="12.096" fill="#43efd4"/><g transform="translate(67.866)" opacity="0.3"><rect width="30.783" height="12.096"/></g></g><g transform="translate(381.073 52.441)"><path d="M574.256,375.2a2.683,2.683,0,1,0,2.683-2.683A2.683,2.683,0,0,0,574.256,375.2Z" transform="translate(-574.256 -372.513)" fill="#ebebeb"/></g></g></g></svg>