<svg xmlns="http://www.w3.org/2000/svg" xmlns:xlink="http://www.w3.org/1999/xlink" width="151" height="151" viewBox="0 0 151 151"><defs><linearGradient id="a" x1="0.053" y1="0.047" x2="0.962" y2="0.97" gradientUnits="objectBoundingBox"><stop offset="0" stop-color="#43efd4"/><stop offset="0.798" stop-color="#006cff"/><stop offset="1" stop-color="#006cff"/></linearGradient></defs><g transform="translate(-1050 -2266)"><rect width="151" height="151" rx="12" transform="translate(1050 2266)" fill="url(#a)"/><g transform="translate(1095.744 2294.564)"><g transform="translate(1.427 1.246)"><g transform="translate(0 8.956)"><path d="M93.667,89.837,86.8,95.6a28.426,28.426,0,0,0,24.918,37.335h2.832v-43.1Z" transform="translate(-85.345 -85.125)" fill="#7ce3ff"/><path d="M254.8,61.451H229.641v40.411h23.652a28.371,28.371,0,0,0,1.5-40.411Z" transform="translate(-205.688 -61.451)" fill="#b9f0ff"/></g><g transform="translate(1.457)"><path d="M233.393,23.967h-19.17V77.012h26.39V69.5c.007-2.682,0-4.288-1.954-6.155a6.2,6.2,0,0,0-4.286-1.691H225.14A4.028,4.028,0,0,1,222.4,60.58a4.589,4.589,0,0,1-1.329-2.595,3.021,3.021,0,0,0-2.84-1.992l3.318-3.318a1.875,1.875,0,0,0-1.326-3.2,4.046,4.046,0,0,1,4.046-4.046h3.691a2.415,2.415,0,0,1,1.708.707l2.4,2.4q.063.062.129.12a2.011,2.011,0,0,0,3.286-1.57V43.4a2.781,2.781,0,0,1,2.781-2.781l.039,0a4.042,4.042,0,0,0,3.633-4.04V30.189a28.547,28.547,0,0,0-8.544-6.222Z" transform="translate(-194.286 -21.233)" fill="#af58fa"/><path d="M116.962,35.92a28.463,28.463,0,0,1,16.266-25.686,28.4,28.4,0,0,0-39.107,16.7h2.3a4.144,4.144,0,0,1,4.144,4.144v5.642q0,.473.041.942c.27,3.1,4.589,3.494,5.867.339a2.158,2.158,0,0,1,4.115.436l1.027,5.631c.558,3.059,2.371,6.85,5,8.51h0v10.7h5.254l8.786-3.062a28.423,28.423,0,0,1-13.7-24.3Z" transform="translate(-94.121 -7.5)" fill="#e4c4ff"/></g></g><g transform="translate(1.245 42.616)"><g transform="translate(2.082)"><path d="M148.305,278.952a6.075,6.075,0,0,0-8.568.644l-.062.072a18.3,18.3,0,0,1-13.853,6.291h-5.791L96.8,305.113l11.617,5.027,11.617-5.027a54.752,54.752,0,0,0,28.919-17.592A6.076,6.076,0,0,0,148.305,278.952Z" transform="translate(-96.797 -274.036)" fill="#ffd4bd"/><path d="M121.558,258.473a6.076,6.076,0,0,0-8.567.025c-13.246,13.246-10.126,10.123-13.168,13.173a10.3,10.3,0,0,0-3.025,7.285V287.8h10.945a16.421,16.421,0,0,1,4.81-11.676l7.479-7.478,1.468-1.468A6.188,6.188,0,0,0,121.558,258.473Z" transform="translate(-96.798 -256.72)" fill="#ffbf9d"/></g><g transform="translate(0 31.077)"><path d="M119.935,443.934H96.8v10.054h23.242A7.009,7.009,0,0,0,119.935,443.934Z" transform="translate(-94.715 -443.934)" fill="#e4c4ff"/><path d="M92.254,448.961a5.027,5.027,0,0,1,5.027-5.027H86.336a7.109,7.109,0,0,0,0,10.054H97.28A5.027,5.027,0,0,1,92.254,448.961Z" transform="translate(-84.253 -443.934)" fill="#af58fa"/></g></g><g transform="translate(0 0.001)"><path d="M190.158,85.872V84.493a1.245,1.245,0,0,0-2.49,0v1.379a1.245,1.245,0,0,0,2.49,0Z" transform="translate(-169.256 -69.429)"/><path d="M303.967,85.872V84.493a1.245,1.245,0,1,0-2.49,0v1.379a1.245,1.245,0,1,0,2.49,0Z" transform="translate(-264.172 -69.429)"/><path d="M237.242,96.775a1.245,1.245,0,0,0-1.877-1.636,1.889,1.889,0,0,1-2.851,0,1.245,1.245,0,1,0-1.877,1.636A4.38,4.38,0,0,0,237.242,96.775Z" transform="translate(-204.836 -78.99)"/><path d="M132.4,46.588a7.319,7.319,0,0,0-.975-.706,29.387,29.387,0,0,0,4.838-16.217A29.651,29.651,0,0,0,87.038,7.379a1.245,1.245,0,0,0,1.644,1.87A27.125,27.125,0,0,1,126.04,10.7v5.888a2.814,2.814,0,0,1-2.49,2.8,4.031,4.031,0,0,0-3.963,4.025V27.1a.763.763,0,0,1-1.29.57l-2.4-2.4a3.637,3.637,0,0,0-2.588-1.072h-3.69a5.3,5.3,0,0,0-5.291,5.291,1.245,1.245,0,0,0,1.245,1.245.629.629,0,0,1,.446,1.076L102.7,35.125a1.246,1.246,0,0,0,.88,2.125,1.765,1.765,0,0,1,1.735,1.424,5.283,5.283,0,0,0,5.176,4.239h9.234a5.081,5.081,0,0,1,4.5,2.74,7.3,7.3,0,0,0-2.151,1.708l-.062.072a17.028,17.028,0,0,1-12.912,5.86h-2.864a7.318,7.318,0,0,0-6.581-11.861c-1.2-2.406-1.264-3.632-2.329-9.476a3.4,3.4,0,0,0-6.494-.68c-.793,1.959-3.318,1.8-3.473.02-.024-.275-.036-.556-.036-.834V24.82a5.4,5.4,0,0,0-5.389-5.389h-.525a27.2,27.2,0,0,1,3.981-6.743,1.245,1.245,0,0,0-1.942-1.558A29.614,29.614,0,0,0,87,51.909c-3.179,3.179-2.677,2.677-4.773,4.779a11.494,11.494,0,0,0-3.389,8.164V73.2A8.348,8.348,0,0,0,79.2,84.627a1.245,1.245,0,0,0,.88.365h23.242a1.245,1.245,0,0,0,.893-.377,8.249,8.249,0,0,0,1.193-10.174,56.128,56.128,0,0,0,7.837-2.767,1.245,1.245,0,0,0-1-2.279,53.616,53.616,0,0,1-9.082,3.054H81.323v-7.6a9.019,9.019,0,0,1,2.662-6.406c2.067-2.073,1.386-1.393,13.166-13.172a4.84,4.84,0,0,1,6.812-.02,4.945,4.945,0,0,1-.064,6.935l-5.086,5.086a1.245,1.245,0,0,0,1.761,1.761l3.253-3.253H109.1a19.516,19.516,0,0,0,14.8-6.722l.063-.074a4.831,4.831,0,0,1,7.324,6.3A53.4,53.4,0,0,1,116.6,67.236a1.245,1.245,0,0,0,1.205,2.179,55.882,55.882,0,0,0,15.367-12.5,7.323,7.323,0,0,0-.776-10.324ZM102.768,82.5H80.623a5.863,5.863,0,0,1,0-7.564h22.065A5.747,5.747,0,0,1,102.768,82.5ZM95.391,43.513,88.76,50.144A27.208,27.208,0,0,1,80.537,21.92h1.4a2.9,2.9,0,0,1,2.9,2.9v5.642c0,.35.015.7.046,1.05.384,4.41,6.493,5.066,8.261.7a.869.869,0,0,1,.927-.548.884.884,0,0,1,.809.741l1.027,5.63a17.15,17.15,0,0,0,1.338,4.134,7.309,7.309,0,0,0-1.853,1.346Zm31.225,1.378a7.559,7.559,0,0,0-6.894-4.467h-9.234a2.775,2.775,0,0,1-1.894-.744,2.714,2.714,0,0,1-.86-1.581,4.219,4.219,0,0,0-1.839-2.651l1.881-1.881a3.123,3.123,0,0,0-.807-5,2.806,2.806,0,0,1,2.648-1.885h3.69a1.162,1.162,0,0,1,.827.342l2.4,2.4a3.253,3.253,0,0,0,5.537-2.334V23.413a1.538,1.538,0,0,1,1.536-1.536c.036,0,.072,0,.107,0l.048,0a5.257,5.257,0,0,0,4.762-5.28V13.64a27.11,27.11,0,0,1,.515,31.319,7.183,7.183,0,0,0-2.429-.068Z" transform="translate(-76.751)"/></g></g></g></svg>