<svg xmlns="http://www.w3.org/2000/svg" width="74.873" height="54.979" viewBox="0 0 74.873 54.979"><path d="M63.893,16.593A9.089,9.089,0,1,1,54.8,7.5,9.088,9.088,0,0,1,63.893,16.593Zm0,0" transform="translate(-39.03 -6.407)" fill="#bebfc0"/><path d="M59.474,23.513A8.611,8.611,0,0,1,51.8,10.992,9.089,9.089,0,1,0,63.383,22.574,8.571,8.571,0,0,1,59.474,23.513Zm0,0" transform="translate(-39.03 -9.385)" fill="#a9aaab"/><path d="M90.533,48.739a3.583,3.583,0,1,1-3.583-3.583A3.583,3.583,0,0,1,90.533,48.739Zm0,0" transform="translate(-71.176 -38.553)" fill="#495059"/><path d="M83.652,60.07a3.584,3.584,0,0,0,4.7,4.7A8.638,8.638,0,0,1,83.652,60.07Zm0,0" transform="translate(-71.176 -51.286)" fill="#41464f"/><path d="M237.44,16.593A9.089,9.089,0,1,1,228.351,7.5,9.089,9.089,0,0,1,237.44,16.593Zm0,0" transform="translate(-187.198 -6.407)" fill="#bebfc0"/><path d="M233.025,23.513a8.611,8.611,0,0,1-7.673-12.52,9.089,9.089,0,1,0,11.582,11.582A8.578,8.578,0,0,1,233.025,23.513Zm0,0" transform="translate(-187.201 -9.385)" fill="#a9aaab"/><path d="M264.084,48.739a3.583,3.583,0,1,1-3.583-3.583A3.583,3.583,0,0,1,264.084,48.739Zm0,0" transform="translate(-219.347 -38.553)" fill="#495059"/><path d="M257.2,60.07a3.584,3.584,0,0,0,4.7,4.7A8.638,8.638,0,0,1,257.2,60.07Zm0,0" transform="translate(-219.347 -51.286)" fill="#41464f"/><path d="M394.535,156.672l-12.749,5.272v13.67l12.749,5.271a3.759,3.759,0,0,0,5.2-3.474V160.146A3.759,3.759,0,0,0,394.535,156.672Zm0,0" transform="translate(-325.954 -133.514)" fill="#e4c4ff"/><path d="M385.959,182.609l-4.173,1.726V198l8.909,3.683C386.878,196.867,386.112,189.633,385.959,182.609Zm0,0" transform="translate(-325.954 -155.905)" fill="#af58fa"/><path d="M458.614,156.672l-1.774.733v22.747l1.774.733a3.76,3.76,0,0,0,5.2-3.474V160.146A3.759,3.759,0,0,0,458.614,156.672Zm0,0" transform="translate(-390.033 -133.514)" fill="#bebfc0"/><path d="M54.835,151.507a99.721,99.721,0,0,1-39.936,0,9.252,9.252,0,0,1-7.4-9.064V127.808a9.251,9.251,0,0,1,7.4-9.064,99.721,99.721,0,0,1,39.936,0,9.251,9.251,0,0,1,7.4,9.064v14.636A9.252,9.252,0,0,1,54.835,151.507Zm0,0" transform="translate(-6.403 -99.655)" fill="#eeeeed"/><path d="M54.835,152.333a9.228,9.228,0,0,0,4.155-2.03c-25.563.1-30.285-20.823-29.4-32.612A99.682,99.682,0,0,0,14.9,119.57a9.251,9.251,0,0,0-7.4,9.064v14.636a9.252,9.252,0,0,0,7.4,9.064A99.72,99.72,0,0,0,54.835,152.333Zm0,0" transform="translate(-6.403 -100.481)" fill="#dfdfdd"/><path d="M151,196.827v8.666a2.755,2.755,0,0,0,3.987,2.464l8.232-4.116a3,3,0,0,0,0-5.361l-8.232-4.116A2.755,2.755,0,0,0,151,196.827Zm0,0" transform="translate(-128.915 -165.689)" fill="#af58fa"/><path d="M154.983,208.607l3.678-1.839a29.246,29.246,0,0,1-5.675-11.937A2.748,2.748,0,0,0,151,197.478v8.666A2.755,2.755,0,0,0,154.983,208.607Zm0,0" transform="translate(-128.915 -166.341)" fill="#af58fa"/><path d="M15.774,5.507a4.68,4.68,0,1,0,4.68,4.68A4.685,4.685,0,0,0,15.774,5.507Zm0,7.166a2.486,2.486,0,1,1,2.486-2.486A2.489,2.489,0,0,1,15.774,12.672Zm9.059,30.986a3.846,3.846,0,0,0,1.725-.41l8.232-4.116a4.094,4.094,0,0,0,0-7.323l-8.232-4.116a3.851,3.851,0,0,0-5.574,3.445V39.8a3.861,3.861,0,0,0,3.849,3.855ZM23.178,31.137a1.626,1.626,0,0,1,.787-1.41,1.643,1.643,0,0,1,.868-.252,1.661,1.661,0,0,1,.744.18l8.231,4.116a1.9,1.9,0,0,1,0,3.4l-8.231,4.116a1.657,1.657,0,0,1-2.4-1.483V31.137ZM41.153,5.507a4.68,4.68,0,1,0,4.68,4.68A4.685,4.685,0,0,0,41.153,5.507Zm0,7.166a2.486,2.486,0,1,1,2.486-2.486A2.489,2.489,0,0,1,41.153,12.672ZM73.776,29.4a1.1,1.1,0,0,0-1.1,1.1V43.9A2.662,2.662,0,0,1,69,46.357L67.9,45.9V24.625l1.1-.454a2.63,2.63,0,0,1,2.111.032,2.679,2.679,0,0,1,1.43,1.567,1.1,1.1,0,0,0,2.078-.7,4.879,4.879,0,0,0-2.6-2.861,4.8,4.8,0,0,0-3.855-.061l-1.774.733-.013.005-9.534,3.942a10.391,10.391,0,0,0-8.189-8.811c-.267-.054-.534-.106-.8-.158a10.182,10.182,0,1,0-15.021-1.8q-4.365-.191-8.731,0a10.189,10.189,0,1,0-15.021,1.8c-.267.053-.534.1-.8.159A10.384,10.384,0,0,0,0,28.153V42.788a10.285,10.285,0,0,0,3.991,8.165,1.1,1.1,0,0,0,1.348-1.73,8.106,8.106,0,0,1-3.145-6.435V28.153a8.183,8.183,0,0,1,6.522-7.989q1.7-.348,3.406-.633l.025,0q4.591-.773,9.2-1.109a1.11,1.11,0,0,0,.26-.018,97.69,97.69,0,0,1,13.709,0,1.092,1.092,0,0,0,.262.018q4.608.337,9.2,1.109l.026,0q1.7.287,3.406.633a8.183,8.183,0,0,1,6.522,7.989V42.788a8.183,8.183,0,0,1-6.522,7.989A98.126,98.126,0,0,1,9.5,50.934a1.1,1.1,0,1,0-.422,2.153,100.674,100.674,0,0,0,19.391,1.891,100.66,100.66,0,0,0,20.183-2.052,10.389,10.389,0,0,0,8.233-9.2l9.489,3.924.014.006,1.774.733A4.856,4.856,0,0,0,74.873,43.9V30.5A1.1,1.1,0,0,0,73.776,29.4ZM20.983,16.242q-4.43.332-8.845,1.06a8,8,0,1,1,8.845-1.06ZM44.79,17.3q-4.414-.727-8.845-1.06A7.989,7.989,0,1,1,44.79,17.3ZM65.71,45l-8.782-3.631v-12.2l8.782-3.631Zm0,0"/></svg>