<svg xmlns="http://www.w3.org/2000/svg" width="129" height="127" viewBox="0 0 129 127"><g transform="translate(-405 -2958)"><rect width="129" height="127" rx="12" transform="translate(405 2958)" fill="#dbfff9"/><g transform="translate(420.2 2972.135)"><g transform="translate(2.548 2.548)"><path d="M51.548,26.774A24.774,24.774,0,1,1,26.774,2,24.767,24.767,0,0,1,51.548,26.774Z" transform="translate(-2 -2)" fill="#e6e9ed"/><g transform="translate(9.29 9.29)"><path d="M38.968,23.484A15.484,15.484,0,1,1,23.484,8,15.49,15.49,0,0,1,38.968,23.484Z" transform="translate(-8 -8)" fill="#a7fff1"/></g><g transform="translate(15.484 15.484)"><circle cx="9.29" cy="9.29" r="9.29" fill="#e4c4ff"/></g><g transform="translate(46.452 74.323)"><path d="M35.1,50H66.065a9.29,9.29,0,0,0,0,18.581H35.1a3.106,3.106,0,0,1-3.1-3.1V53.1A3.106,3.106,0,0,1,35.1,50Z" transform="translate(-32 -50)" fill="#af58fa"/></g><g transform="translate(46.452 49.548)"><path d="M35.1,34H66.065a9.29,9.29,0,0,0,0,18.581H35.1a3.106,3.106,0,0,1-3.1-3.1V37.1A3.106,3.106,0,0,1,35.1,34Z" transform="translate(-32 -34)" fill="#af58fa"/></g><g transform="translate(71.226 74.323)"><path d="M64.846,53.886a9.183,9.183,0,0,1,1.734,5.4,9.292,9.292,0,1,1-1.734-5.4Z" transform="translate(-48 -50)" fill="#e4c4ff"/></g><g transform="translate(71.226 49.548)"><path d="M64.846,37.886a9.183,9.183,0,0,1,1.734,5.4,9.292,9.292,0,1,1-1.734-5.4Z" transform="translate(-48 -34)" fill="#e4c4ff"/></g><g transform="translate(71.226 15.484)"><path d="M69.677,12H51.1L48,21.29l3.1,9.29H69.677l-3.1-9.29Z" transform="translate(-48 -12)" fill="#b4dd7f"/></g></g><path d="M53.566,28.871H72.658l3.1,9.29H97.6L93.987,27.323,97.6,16.484H75.755l-3.1,9.29H53.566A26.305,26.305,0,1,0,25.774,53.566v29.5a4.651,4.651,0,0,0,4.645,4.645H47.452v4.645A4.651,4.651,0,0,0,52.1,97H83.065a10.831,10.831,0,0,0,9.482-16.078l4.063-4.571-2.315-2.058-3.663,4.122a10.8,10.8,0,0,0-7.567-3.092H52.1a4.651,4.651,0,0,0-4.645,4.645v4.645H30.419a1.551,1.551,0,0,1-1.548-1.548V62.935H47.452v4.645A4.651,4.651,0,0,0,52.1,72.226H83.065a10.831,10.831,0,0,0,9.482-16.078l4.063-4.571-2.315-2.058-3.663,4.122a10.8,10.8,0,0,0-7.567-3.092H52.1a4.651,4.651,0,0,0-4.645,4.645v4.645H28.871V53.566A26.313,26.313,0,0,0,53.566,28.871Zm35,51.862L83,87l-3.484-3.484-2.189,2.189,3.566,3.566A3,3,0,0,0,83,90.148h.087a3,3,0,0,0,2.145-1l5.057-5.689a7.647,7.647,0,0,1,.514,2.7,7.766,7.766,0,1,1-2.236-5.429Zm-38.022-.765A1.551,1.551,0,0,1,52.1,78.419h23.4a10.806,10.806,0,0,0,0,15.484H52.1a1.551,1.551,0,0,1-1.548-1.548ZM88.571,55.958,83,62.228l-3.484-3.484-2.189,2.189L80.891,64.5A3,3,0,0,0,83,65.374h.087a3,3,0,0,0,2.145-1l5.057-5.689a7.647,7.647,0,0,1,.514,2.7,7.766,7.766,0,1,1-2.236-5.429Zm-38.022-.765A1.551,1.551,0,0,1,52.1,53.645h23.4a10.806,10.806,0,0,0,0,15.484H52.1a1.551,1.551,0,0,1-1.548-1.548ZM75.923,28.871H81.95l2.064,6.194H77.987Zm11.354,6.194-2.064-6.194H91.24l2.066,6.194Zm3.961-9.29H85.212l2.064-6.194H93.3ZM77.987,19.581h6.026L81.95,25.774H75.923ZM4.1,27.323a23.212,23.212,0,0,1,46.373-1.548H44.276a17.032,17.032,0,1,0,0,3.1h6.194A23.212,23.212,0,0,1,4.1,27.323Zm33.941-1.548a10.839,10.839,0,1,0,0,3.1h3.129a13.935,13.935,0,1,1,0-3.1Zm-3.129,3.1a7.742,7.742,0,1,1,0-3.1H25.774v3.1Z" transform="translate(0 0)"/></g></g></svg>